<svg width="60" height="60" viewBox="0 0 60 60" fill="none" xmlns="http://www.w3.org/2000/svg">
<path d="M42.3849 49.6595C41.5036 49.6595 40.6411 49.3502 40.1818 49.0033L35.8036 46.2377C35.363 45.9658 35.2318 45.3845 35.513 44.9439C35.7943 44.5033 36.3661 44.3814 36.8068 44.6533L41.2224 47.4377C41.2505 47.4564 41.288 47.4752 41.3161 47.5033C41.513 47.6533 42.7036 48.0658 43.1724 47.4752C43.4255 47.1939 43.6693 46.8377 43.6505 46.4627C43.6318 46.2095 43.4911 45.9564 43.2568 45.7595L34.5661 40.2564C30.8161 42.5345 27.6099 41.7939 25.538 40.7345C24.6568 40.2845 24.113 39.422 24.0755 38.4283C24.0606 37.9427 24.1751 37.4618 24.4074 37.0351C24.6397 36.6084 24.9814 36.2512 25.3974 36.0002L33.1974 31.3408C37.2943 28.997 41.4193 31.2845 42.7974 32.2033L46.8849 30.4502C47.3161 30.2627 47.8224 30.4314 48.0661 30.8345L53.363 39.8627C53.4943 40.0877 53.5224 40.3502 53.4568 40.5939C53.3911 40.8377 53.2224 41.0439 52.9974 41.1658L45.2443 45.3095C45.4036 45.6283 45.4974 45.9845 45.5255 46.3408C45.563 46.922 45.4411 47.8033 44.6068 48.7033C44.2036 49.2189 43.5568 49.5658 42.7786 49.6502C42.6474 49.6502 42.5161 49.6595 42.3849 49.6595ZM34.5661 38.2033C34.7443 38.2033 34.913 38.2502 35.063 38.3533L43.8568 43.9127L51.2536 39.9658L46.8755 32.4939L43.0599 34.1345C42.7411 34.2658 42.3755 34.2189 42.113 34.0127C42.0755 33.9845 37.9411 30.8064 34.1536 32.972L26.3724 37.622C26.1005 37.7814 25.9505 38.0627 25.9599 38.3814C25.9693 38.5314 26.0161 38.8877 26.4005 39.0845C28.8943 40.3595 31.463 40.1252 34.0411 38.3814C34.2005 38.2502 34.3786 38.2033 34.5661 38.2033Z" fill="#008080"/>
<path d="M13.5856 44.8878C13.4075 44.8878 13.22 44.8315 13.0606 44.7284L6.67621 40.4253C6.57381 40.3565 6.48599 40.2682 6.41781 40.1654C6.34963 40.0626 6.30242 39.9474 6.2789 39.8263C6.25538 39.7052 6.25601 39.5807 6.28076 39.4599C6.3055 39.339 6.35387 39.2243 6.42309 39.1222L11.9637 30.8909C12.2356 30.4878 12.77 30.3565 13.1918 30.5909L17.0356 32.6909L23.0731 30.4409C25.9043 29.3722 28.0137 30.6284 29.3543 31.669L31.2856 33.169C31.6981 33.4878 31.7637 34.0784 31.4543 34.4815C31.1356 34.894 30.545 34.9597 30.1418 34.6409L28.2106 33.1409C26.6075 31.894 25.2668 31.6034 23.7387 32.1847L17.2887 34.594C17.0356 34.6878 16.7543 34.669 16.5106 34.5378L13.0418 32.644L8.50434 39.394L14.1106 43.1815C14.5418 43.4722 14.6543 44.0534 14.3637 44.4847C14.1856 44.7378 13.895 44.8878 13.5856 44.8878Z" fill="#008080"/>
<path d="M14.1846 49.1437C13.3971 49.1437 12.6096 48.8156 12.0565 48.1687L11.8502 47.9343C11.3627 47.3624 11.119 46.6406 11.1659 45.8906C11.1916 45.5209 11.2902 45.16 11.456 44.8286C11.6217 44.4971 11.8512 44.2017 12.1315 43.9593L14.1752 42.1874C14.4544 41.9442 14.7788 41.7586 15.1299 41.641C15.481 41.5235 15.8518 41.4765 16.2211 41.5026C16.5904 41.5287 16.951 41.6275 17.282 41.7933C17.613 41.9591 17.9081 42.1886 18.1502 42.4687L18.3565 42.7031C19.3784 43.8749 19.2471 45.6656 18.0752 46.6781L16.0315 48.4499C15.4971 48.9187 14.8409 49.1437 14.1846 49.1437ZM16.0221 43.3874C15.7971 43.3874 15.5815 43.4624 15.4034 43.6218L13.3596 45.3937C13.1721 45.5624 13.0596 45.7874 13.0409 46.0406C13.0221 46.2937 13.1065 46.5374 13.2659 46.7249L13.4721 46.9593C13.8096 47.3531 14.4096 47.3906 14.8034 47.0531L16.8471 45.2812C17.2409 44.9437 17.2784 44.3437 16.9409 43.9499L16.7346 43.7156C16.5659 43.5281 16.3409 43.4062 16.0877 43.3874H16.0221Z" fill="#008080"/>
<path d="M16.8565 52.219C16.069 52.219 15.2815 51.8909 14.7284 51.2534L14.5221 51.019C14.0346 50.4471 13.7909 49.7253 13.8377 48.9753C13.8635 48.6056 13.9621 48.2447 14.1278 47.9133C14.2935 47.5818 14.5231 47.2864 14.8034 47.044L17.6534 44.5784C18.219 44.0912 18.9542 43.8474 19.6988 43.9001C20.4434 43.9528 21.137 44.2977 21.6284 44.8596L21.8346 45.094C22.0777 45.3732 22.2633 45.6977 22.3807 46.0487C22.4981 46.3998 22.5452 46.7706 22.519 47.1399C22.4929 47.5091 22.3941 47.8696 22.2284 48.2007C22.0627 48.5317 21.8333 48.8268 21.5534 49.069L18.7034 51.5346C18.1596 51.994 17.5034 52.219 16.8565 52.219ZM19.4909 45.7596C19.2628 45.7591 19.0426 45.8425 18.8721 45.994L16.0221 48.4596C15.8346 48.6284 15.7221 48.8534 15.7034 49.1065C15.6846 49.3596 15.769 49.6034 15.9284 49.7909L16.1346 50.0253C16.4721 50.419 17.0721 50.4565 17.4659 50.119L20.3159 47.6534C20.5023 47.4877 20.6166 47.2557 20.6341 47.0069C20.6516 46.758 20.571 46.5123 20.4096 46.3221L20.2034 46.0877C20.1163 45.9838 20.0072 45.9004 19.884 45.8436C19.7608 45.7869 19.6265 45.7582 19.4909 45.7596Z" fill="#008080"/>
<path d="M19.5205 55.294C18.733 55.294 17.9455 54.9659 17.3924 54.319L17.1862 54.0846C16.6987 53.5127 16.4549 52.7909 16.5018 52.0409C16.5276 51.6712 16.6262 51.3103 16.7919 50.9789C16.9576 50.6475 17.1872 50.3521 17.4674 50.1096L20.5987 47.3909C21.1643 46.9037 21.8995 46.6599 22.6441 46.7126C23.3887 46.7653 24.0823 47.1102 24.5737 47.6721L24.7799 47.9065C25.7924 49.0784 25.6705 50.8596 24.4987 51.8815L21.3674 54.6003C20.833 55.069 20.1768 55.294 19.5205 55.294ZM22.4455 48.5909C22.2175 48.5903 21.9972 48.6738 21.8268 48.8253L18.6955 51.544C18.508 51.7127 18.3955 51.9377 18.3768 52.1909C18.358 52.444 18.4424 52.6878 18.6018 52.8753L18.808 53.1096C19.1455 53.5034 19.7455 53.5409 20.1393 53.2034L23.2705 50.4846C23.6643 50.1471 23.7018 49.5471 23.3643 49.1534L23.158 48.919C23.0711 48.8149 22.962 48.7314 22.8388 48.6746C22.7155 48.6179 22.5812 48.5893 22.4455 48.5909Z" fill="#008080"/>
<path d="M24.0173 56.7844C23.9517 56.7844 23.8767 56.7844 23.8111 56.775C23.4414 56.7492 23.0805 56.6506 22.7491 56.4849C22.4177 56.3192 22.1223 56.0896 21.8798 55.8094L21.6736 55.575C21.1865 55.0094 20.9427 54.2742 20.9953 53.5296C21.048 52.785 21.3929 52.0914 21.9548 51.6L23.4548 50.3062C23.734 50.0631 24.0584 49.8774 24.4095 49.7599C24.7606 49.6423 25.1314 49.5953 25.5007 49.6214C25.87 49.6476 26.2306 49.7464 26.5616 49.9121C26.8926 50.0779 27.1877 50.3074 27.4298 50.5875L27.6361 50.8219C28.6486 51.9937 28.5267 53.775 27.3548 54.7969L25.8548 56.0906C25.3392 56.55 24.6923 56.7844 24.0173 56.7844ZM25.3017 51.4969C25.0767 51.4969 24.8611 51.5812 24.683 51.7312L23.183 53.025C22.7892 53.3625 22.7517 53.9625 23.0892 54.3562L23.2955 54.5906C23.4548 54.7781 23.6892 54.8906 23.9423 54.9094C24.1955 54.9281 24.4392 54.8438 24.6267 54.6844L26.1267 53.3906C26.5205 53.0531 26.558 52.4531 26.2205 52.0594L26.0142 51.825C25.8455 51.6375 25.6205 51.525 25.3673 51.5062C25.3486 51.4969 25.3298 51.4969 25.3017 51.4969ZM39.2986 53.0531C38.6236 53.0531 37.958 52.8187 37.4236 52.3875L32.5298 49.0125C32.4286 48.9425 32.3422 48.8533 32.2756 48.7498C32.209 48.6464 32.1635 48.5308 32.1417 48.4097C32.12 48.2886 32.1223 48.1644 32.1487 48.0442C32.1751 47.924 32.225 47.8102 32.2955 47.7094C32.5861 47.2781 33.1767 47.175 33.5986 47.475L38.5486 50.8969C38.858 51.1406 39.1767 51.225 39.4861 51.1687C39.7392 51.1219 39.9736 50.9906 40.1423 50.775C40.3392 50.5312 40.4611 50.1469 40.4517 49.7719C40.4423 49.4437 40.3392 49.1625 40.1611 49.0031L35.8017 46.2562C35.3611 45.9844 35.2298 45.4031 35.5111 44.9625C35.7923 44.5219 36.3642 44.4 36.8048 44.6719L41.2205 47.4562C41.2486 47.475 41.2861 47.4937 41.3142 47.5219C41.933 48.0281 42.2986 48.825 42.3267 49.7156C42.3548 50.5406 42.0923 51.3562 41.6048 51.9562C41.1455 52.5187 40.5173 52.8937 39.8142 53.0156C39.6455 53.0344 39.4767 53.0531 39.2986 53.0531Z" fill="#008080"/>
<path d="M35.6084 55.2845C34.999 55.2845 34.4084 55.0876 33.9209 54.722L29.9834 51.6657C29.5709 51.347 29.4959 50.7564 29.8146 50.3532C30.1334 49.9501 30.724 49.8657 31.1271 50.1845L35.0646 53.2314C35.2615 53.372 35.5146 53.4376 35.7677 53.3907C35.974 53.3532 36.1615 53.2501 36.3021 53.0814C36.4615 52.8939 36.6021 52.4626 36.5552 52.022C36.5271 51.7595 36.4427 51.5907 36.3677 51.5345L32.5521 49.0126C32.4489 48.9447 32.3601 48.8569 32.2909 48.7545C32.2218 48.6521 32.1736 48.5369 32.1492 48.4158C32.1248 48.2946 32.1246 48.1698 32.1487 48.0486C32.1728 47.9273 32.2207 47.8121 32.2896 47.7095C32.5802 47.2782 33.1615 47.1564 33.5927 47.447L37.4646 50.0157C38.0271 50.447 38.3459 51.0751 38.4209 51.8345C38.5146 52.7439 38.2521 53.6907 37.7271 54.3001C37.3052 54.7876 36.724 55.1251 36.0959 55.2376C35.9271 55.2751 35.7677 55.2845 35.6084 55.2845Z" fill="#008080"/>
<path d="M30.9567 56.9251C30.2817 56.9251 29.4848 56.7094 28.6036 56.1469L26.4005 54.6844C26.1943 54.5452 26.0512 54.3305 26.0021 54.0867C25.953 53.8428 26.0018 53.5895 26.138 53.3813C26.2061 53.2782 26.2939 53.1897 26.3963 53.1207C26.4988 53.0516 26.6139 53.0036 26.7349 52.9792C26.856 52.9548 26.9808 52.9545 27.102 52.9785C27.2231 53.0025 27.3384 53.0502 27.4411 53.1188L29.6255 54.5719C31.0598 55.4907 31.7161 54.8157 31.8848 54.5813C32.138 54.2251 32.4098 53.5594 31.5755 52.9125L29.9723 51.6657C29.8751 51.5904 29.7939 51.4965 29.7332 51.3896C29.6725 51.2826 29.6336 51.1647 29.6188 51.0427C29.604 50.9206 29.6135 50.7968 29.6468 50.6785C29.6802 50.5601 29.7366 50.4496 29.813 50.3532C30.1317 49.9407 30.7223 49.875 31.1255 50.1938L32.7286 51.4407C34.5098 52.8188 34.1161 54.7313 33.413 55.6782C33.0567 56.2126 32.1942 56.9251 30.9567 56.9251ZM5.37233 42.4688C4.9692 42.4688 4.57545 42.3563 4.22858 42.1313L1.75358 40.5657C1.5113 40.4125 1.30201 40.2126 1.13795 39.9775C0.973896 39.7425 0.858368 39.4771 0.798131 39.1968C0.737895 38.9166 0.734159 38.6272 0.787143 38.3455C0.840128 38.0638 0.948767 37.7955 1.1067 37.5563L8.33483 26.6157C8.64033 26.1489 9.11549 25.8194 9.65971 25.6969C10.2039 25.5744 10.7744 25.6686 11.2505 25.9594L13.8286 27.5251C14.3348 27.8344 14.7005 28.35 14.8223 28.9313C14.9442 29.5126 14.813 30.1313 14.4661 30.6094L13.5192 31.9501C13.2192 32.3719 12.638 32.475 12.2161 32.175C11.7942 31.875 11.6911 31.2938 11.9911 30.8719L12.938 29.5313C12.9942 29.4469 12.9942 29.3626 12.9848 29.3157C12.9755 29.2688 12.9473 29.1844 12.8536 29.1376L10.2848 27.5719C10.2233 27.5358 10.1503 27.5244 10.0807 27.5401C10.011 27.5557 9.94996 27.5973 9.90983 27.6563L2.66295 38.5969C2.6067 38.6813 2.61608 38.7563 2.62545 38.8126C2.63483 38.8688 2.66295 38.9344 2.74733 38.9907L5.22233 40.5563C5.3067 40.6125 5.39108 40.6032 5.43795 40.5938C5.4942 40.5844 5.55983 40.5469 5.61608 40.4719L6.41295 39.1688C6.68483 38.7282 7.2567 38.5876 7.69733 38.8594C8.13795 39.1313 8.27858 39.7032 8.0067 40.1438L7.20983 41.4469C6.90983 41.9438 6.4317 42.2907 5.85983 42.4219C5.70045 42.4501 5.5317 42.4688 5.37233 42.4688ZM54.6286 43.3501C54.2577 43.3531 53.8924 43.2597 53.5686 43.0789C53.2448 42.8981 52.9736 42.6361 52.7817 42.3188L51.9848 41.0157C51.9203 40.9112 51.877 40.7949 51.8576 40.6736C51.8382 40.5524 51.8431 40.4284 51.8718 40.309C51.9006 40.1896 51.9527 40.0771 52.0252 39.9779C52.0977 39.8787 52.1891 39.7949 52.2942 39.7313C52.3987 39.6667 52.5149 39.6235 52.6362 39.6041C52.7575 39.5847 52.8815 39.5895 53.0009 39.6183C53.1203 39.6471 53.2328 39.6992 53.332 39.7717C53.4311 39.8442 53.515 39.9356 53.5786 40.0407L54.3755 41.3438C54.4317 41.4282 54.5067 41.4563 54.5536 41.4657C54.6098 41.475 54.6848 41.4844 54.7692 41.4282L57.2442 39.8625C57.3286 39.8157 57.3567 39.7407 57.3661 39.6844C57.3755 39.6282 57.3755 39.5532 57.3286 39.4688L50.0817 27.5063C50.0161 27.4125 49.8473 27.3751 49.7255 27.4501L47.1567 29.0157C47.063 29.0719 47.0348 29.1563 47.0255 29.1938C47.0161 29.2313 47.0067 29.3251 47.0723 29.4094L48.0192 30.75C48.3192 31.1719 48.2161 31.7625 47.7942 32.0532C47.6939 32.1241 47.5806 32.1746 47.4608 32.2017C47.341 32.2288 47.217 32.232 47.096 32.2111C46.9749 32.1902 46.8592 32.1456 46.7554 32.0799C46.6516 32.0142 46.5618 31.9287 46.4911 31.8282L45.5442 30.4876C45.1973 30 45.0755 29.3907 45.188 28.8094C45.3005 28.2282 45.6661 27.7125 46.1723 27.4032L48.7505 25.8469C49.2265 25.5561 49.797 25.4619 50.3412 25.5844C50.8854 25.7069 51.3606 26.0364 51.6661 26.5032L58.913 38.4657C59.213 38.925 59.3255 39.5063 59.2036 40.0688C59.0817 40.6407 58.7442 41.1282 58.2473 41.4375L55.7723 43.0032C55.4348 43.2375 55.0317 43.3501 54.6286 43.3501ZM41.8411 23.2782H19.2661C17.3723 23.2782 15.8255 21.7313 15.8255 19.8376V17.8126C15.8255 15.8813 16.8567 14.0719 18.5255 13.0876C19.1255 12.7313 19.613 12.2157 19.9223 11.5969L21.6192 8.20318C22.1441 7.14369 22.9556 6.25262 23.9615 5.63118C24.9674 5.00974 26.1274 4.68282 27.3098 4.68755H33.7973C36.2255 4.68755 38.4005 6.03755 39.488 8.20318L41.1848 11.5969C41.4942 12.2251 41.9817 12.7407 42.5817 13.0876C43.4026 13.5737 44.0831 14.2648 44.5564 15.0931C45.0297 15.9214 45.2797 16.8585 45.2817 17.8126V19.8469C45.2817 21.7407 43.7442 23.2782 41.8411 23.2782ZM27.3098 6.56255C25.6036 6.56255 24.0661 7.50943 23.2973 9.03755L21.6005 12.4313C21.1269 13.3755 20.3913 14.1632 19.4817 14.7001C18.3848 15.3469 17.7005 16.5376 17.7005 17.8032V19.8376C17.7005 20.7001 18.4036 21.4032 19.2661 21.4032H41.8505C42.713 21.4032 43.4161 20.7001 43.4161 19.8376V17.8126C43.4161 16.5376 42.7317 15.3563 41.6348 14.7094C40.7209 14.1779 39.9839 13.3888 39.5161 12.4407L37.8192 9.04693C37.4476 8.29865 36.8739 7.66935 36.1631 7.23028C35.4523 6.79121 34.6328 6.5599 33.7973 6.56255H27.3098Z" fill="#008080"/>
<path d="M20.043 27.7596H19.3117C17.6711 27.7596 16.3398 26.4283 16.3398 24.7877V21.3471C16.3398 20.8314 16.7617 20.4096 17.2773 20.4096C17.793 20.4096 18.2148 20.8314 18.2148 21.3471V24.7877C18.2148 25.3971 18.7117 25.8846 19.3117 25.8846H20.0523C20.6523 25.8846 21.1398 25.3877 21.1398 24.7877V22.3502C21.1398 21.8346 21.5617 21.4127 22.0773 21.4127C22.593 21.4127 23.0148 21.8346 23.0148 22.3502V24.7877C23.0131 25.5754 22.6994 26.3303 22.1425 26.8872C21.5855 27.4442 20.8306 27.7578 20.043 27.7596ZM41.8023 27.7596H41.0617C39.4211 27.7596 38.0898 26.4283 38.0898 24.7877V22.3502C38.0898 21.8346 38.5117 21.4127 39.0273 21.4127C39.543 21.4127 39.9648 21.8346 39.9648 22.3502V24.7877C39.9648 25.3971 40.4617 25.8846 41.0617 25.8846H41.8023C42.4023 25.8846 42.8898 25.3877 42.8898 24.7877V21.3564C42.8898 20.8408 43.3117 20.4189 43.8273 20.4189C44.343 20.4189 44.7648 20.8408 44.7648 21.3564V24.7877C44.7648 26.4283 43.4336 27.7596 41.8023 27.7596ZM22.068 18.7596H20.6898C20.1742 18.7596 19.7523 18.3377 19.7523 17.8221C19.7523 17.3064 20.1742 16.8846 20.6898 16.8846H22.068C22.5836 16.8846 23.0055 17.3064 23.0055 17.8221C23.0055 18.3377 22.593 18.7596 22.068 18.7596ZM40.4055 18.7596H39.0273C38.5117 18.7596 38.0898 18.3377 38.0898 17.8221C38.0898 17.3064 38.5117 16.8846 39.0273 16.8846H40.4055C40.9211 16.8846 41.343 17.3064 41.343 17.8221C41.343 18.3377 40.9211 18.7596 40.4055 18.7596ZM41.0242 13.9502H20.0617C19.5461 13.9502 19.1242 13.5283 19.1242 13.0127C19.1242 12.4971 19.5461 12.0752 20.0617 12.0752H41.0242C41.5398 12.0752 41.9617 12.4971 41.9617 13.0127C41.9617 13.5283 41.5492 13.9502 41.0242 13.9502Z" fill="#008080"/>
</svg>
