<svg width="60" height="60" viewBox="0 0 60 60" fill="none" xmlns="http://www.w3.org/2000/svg">
<path d="M56.1432 43.5646C54.8835 43.5646 53.8155 44.4002 53.4639 45.5463H47.5451V41.8076C50.4421 41.7904 52.8697 39.7628 53.5036 37.0521L56.8587 36.6213C57.897 36.488 58.6506 35.6135 58.6506 34.5421V27.1255C58.6506 25.1164 57.1329 24.2907 55.8429 24.1949L50.4884 23.7328L47.5451 20.5813V13.7766H53.4639C53.8154 14.9227 54.8835 15.7583 56.1431 15.7583C57.6882 15.7583 58.9452 14.5012 58.9452 12.9562C58.9452 11.4113 57.6881 10.1542 56.1431 10.1542C54.8835 10.1542 53.8154 10.9898 53.4639 12.1359H46.7248C46.5072 12.1359 46.2986 12.2224 46.1447 12.3762C45.9909 12.53 45.9045 12.7387 45.9045 12.9562V18.8341C45.4691 18.4148 44.944 18.1915 44.3754 18.1915H38.2543V4.67707H44.1731C44.5247 5.82316 45.5927 6.65883 46.8525 6.65883C48.3975 6.65883 49.6546 5.40176 49.6546 3.85676C49.6546 2.31176 48.3975 1.05469 46.8525 1.05469C45.5927 1.05469 44.5248 1.89035 44.1731 3.03645H37.434C37.2165 3.03645 37.0078 3.12287 36.854 3.27671C36.7001 3.43055 36.6137 3.6392 36.6137 3.85676V18.1915H30.9675V6.9798C32.1136 6.62824 32.9493 5.5602 32.9493 4.30055C32.9493 2.75543 31.6922 1.49848 30.1472 1.49848C28.6022 1.49848 27.3451 2.75555 27.3451 4.30055C27.3451 5.5602 28.1808 6.62824 29.3269 6.9798V18.1915H25.9675C25.4293 18.1915 24.9743 18.3517 24.615 18.6676L23.6807 19.4898V3.85676C23.6807 3.6392 23.5942 3.43055 23.4404 3.27671C23.2866 3.12287 23.0779 3.03645 22.8604 3.03645H16.1212C15.7698 1.89035 14.7018 1.05469 13.4421 1.05469C11.897 1.05469 10.64 2.31176 10.64 3.85676C10.64 5.40176 11.8971 6.65883 13.4421 6.65883C14.7018 6.65883 15.7698 5.82316 16.1214 4.67707H22.0402V20.9333L17.8077 24.6575L14.39 24.9809V12.9562C14.39 12.7387 14.3036 12.53 14.1498 12.3762C13.9959 12.2224 13.7873 12.1359 13.5697 12.1359H6.83062C6.47906 10.9898 5.41102 10.1542 4.15125 10.1542C2.60625 10.1542 1.34918 11.4113 1.34918 12.9562C1.34918 14.5012 2.60625 15.7583 4.15125 15.7583C5.41102 15.7583 6.47895 14.9227 6.83062 13.7766H12.7494V25.136L4.73109 25.8947C2.7382 26.0832 1.05469 28.2539 1.05469 30.6348V35.7296C1.05469 36.8798 1.90547 37.8156 2.95113 37.8156H6.06891C6.94723 40.1461 9.19934 41.8088 11.8334 41.8088C12.1446 41.8088 12.4505 41.7851 12.7494 41.7403V45.5466H6.83062C6.47906 44.4005 5.41102 43.5648 4.15137 43.5648C2.60625 43.5648 1.3493 44.8219 1.3493 46.3669C1.3493 47.9119 2.60637 49.1689 4.15137 49.1689C5.41102 49.1689 6.47906 48.3333 6.83062 47.1872H13.5697C13.7873 47.1872 13.9959 47.1008 14.1498 46.9469C14.3036 46.7931 14.39 46.5844 14.39 46.3669V41.2507C15.8618 40.5762 17.0235 39.3393 17.5977 37.8156H22.0402V55.323H16.1214C15.7698 54.177 14.7018 53.3413 13.4421 53.3413C11.897 53.3413 10.64 54.5984 10.64 56.1434C10.64 57.6884 11.897 58.9453 13.4421 58.9453C14.7018 58.9453 15.7698 58.1096 16.1214 56.9636H22.8605C23.078 56.9636 23.2867 56.8771 23.4405 56.7233C23.5944 56.5695 23.6808 56.3608 23.6808 56.1432V37.8155H29.327V53.464C28.181 53.8155 27.3452 54.8836 27.3452 56.1432C27.3452 57.6884 28.6023 58.9453 30.1473 58.9453C31.6923 58.9453 32.9494 57.6882 32.9494 56.1432C32.9494 54.8836 32.1136 53.8155 30.9676 53.464V37.8155H36.6138V56.1432C36.6138 56.3608 36.7003 56.5695 36.8541 56.7233C37.0079 56.8771 37.2166 56.9636 37.4341 56.9636H44.1732C44.5248 58.1096 45.5928 58.9453 46.8526 58.9453C48.3976 58.9453 49.6547 57.6882 49.6547 56.1432C49.6547 54.5982 48.3976 53.3412 46.8526 53.3412C45.5928 53.3412 44.5249 54.1768 44.1732 55.3229H38.2545V37.8155H41.7437C42.4371 39.6552 43.9867 41.0777 45.9046 41.5955V46.3666C45.9046 46.5842 45.991 46.7929 46.1448 46.9467C46.2987 47.1005 46.5073 47.187 46.7249 47.187H53.464C53.8155 48.3329 54.8836 49.1687 56.1434 49.1687C57.6884 49.1687 58.9454 47.9116 58.9454 46.3666C58.9453 44.8216 57.6882 43.5646 56.1432 43.5646ZM56.1432 11.7948C56.7837 11.7948 57.3047 12.3158 57.3047 12.9562C57.3047 13.5967 56.7837 14.1177 56.1432 14.1177C55.5028 14.1177 54.9818 13.5967 54.9818 12.9562C54.9818 12.3158 55.5028 11.7948 56.1432 11.7948ZM46.8525 2.69531C47.4929 2.69531 48.0139 3.21633 48.0139 3.85676C48.0139 4.49719 47.4929 5.0182 46.8525 5.0182C46.2121 5.0182 45.6911 4.49719 45.6911 3.85676C45.6911 3.21633 46.2121 2.69531 46.8525 2.69531ZM28.9859 4.30055C28.9859 3.66012 29.5069 3.1391 30.1473 3.1391C30.7877 3.1391 31.3088 3.66012 31.3088 4.30055C31.3088 4.94098 30.7877 5.46199 30.1473 5.46199C29.5069 5.46199 28.9859 4.94098 28.9859 4.30055ZM13.4421 5.0182C12.8017 5.0182 12.2807 4.49719 12.2807 3.85676C12.2807 3.21633 12.8017 2.69531 13.4421 2.69531C14.0825 2.69531 14.6036 3.21633 14.6036 3.85676C14.6036 4.49719 14.0825 5.0182 13.4421 5.0182ZM4.15137 14.1178C3.51094 14.1178 2.98992 13.5968 2.98992 12.9564C2.98992 12.3159 3.51094 11.7949 4.15137 11.7949C4.7918 11.7949 5.31281 12.3159 5.31281 12.9564C5.31281 13.5968 4.7918 14.1178 4.15137 14.1178ZM4.15137 47.5281C3.51094 47.5281 2.98992 47.0071 2.98992 46.3666C2.98992 45.7262 3.51094 45.2052 4.15137 45.2052C4.7918 45.2052 5.31281 45.7262 5.31281 46.3666C5.3127 47.0071 4.7918 47.5281 4.15137 47.5281ZM13.4421 57.3047C12.8017 57.3047 12.2807 56.7837 12.2807 56.1432C12.2807 55.5028 12.8017 54.9818 13.4421 54.9818C14.0825 54.9818 14.6036 55.5028 14.6036 56.1432C14.6036 56.7837 14.0825 57.3047 13.4421 57.3047ZM31.3088 56.1432C31.3088 56.7837 30.7877 57.3047 30.1473 57.3047C29.5069 57.3047 28.9859 56.7837 28.9859 56.1432C28.9859 55.5028 29.5069 54.9818 30.1473 54.9818C30.7877 54.9818 31.3088 55.5028 31.3088 56.1432ZM46.8525 54.9818C47.4929 54.9818 48.0139 55.5028 48.0139 56.1432C48.0139 56.7837 47.4929 57.3047 46.8525 57.3047C46.2121 57.3047 45.6911 56.7837 45.6911 56.1432C45.6911 55.5028 46.2121 54.9818 46.8525 54.9818ZM43.3716 24.5936L33.9673 24.6067V19.8321H41.7328L43.3716 24.5936ZM25.6988 19.8995C25.7216 19.8793 25.7753 19.8321 25.9675 19.8321H32.3265V24.609L20.3272 24.6258L25.6988 19.8995ZM11.8332 40.168C9.34207 40.168 7.31531 38.1412 7.31531 35.6501C7.31531 33.1589 9.34195 31.1321 11.8332 31.1321C14.3245 31.1321 16.3512 33.1589 16.3512 35.6501C16.3512 38.1412 14.3244 40.168 11.8332 40.168ZM17.9679 36.1748C17.9825 36.0016 17.9918 35.8269 17.9918 35.65C17.9918 32.2541 15.2291 29.4914 11.8332 29.4914C8.43738 29.4914 5.67469 32.2541 5.67469 35.65C5.67469 35.8269 5.68395 36.0016 5.69859 36.1748H2.95113C2.8493 36.1748 2.69531 35.9972 2.69531 35.7295V30.6347C2.69531 29.1171 3.73922 27.6364 4.88543 27.528L18.1888 26.2693L44.5219 26.2325C44.6524 26.2324 44.7811 26.201 44.8971 26.1411C45.0131 26.0812 45.1131 25.9945 45.1888 25.8882C45.2646 25.7818 45.3138 25.6589 45.3325 25.5297C45.3512 25.4005 45.3388 25.2687 45.2963 25.1453L43.4675 19.832H44.3753C44.4866 19.832 44.625 19.8584 44.8078 20.0541L49.5043 25.0828C49.6428 25.231 49.8312 25.3227 50.0333 25.3402L55.7115 25.8301C56.3039 25.8742 57.01 26.1347 57.01 27.1255V34.5421C57.01 34.8224 56.829 34.9711 56.6497 34.9941L53.6597 35.378C53.5168 32.1079 50.8127 29.4913 47.508 29.4913C44.1122 29.4913 41.3495 32.254 41.3495 35.6498C41.3495 35.8268 41.3587 36.0015 41.3734 36.1747L17.9679 36.1748ZM42.9902 35.65C42.9902 33.1588 45.0169 31.132 47.5082 31.132C49.9995 31.132 52.0261 33.1588 52.0261 35.65C52.0261 38.1411 49.9993 40.1679 47.5082 40.1679C45.017 40.1679 42.9902 38.1413 42.9902 35.65ZM56.1432 47.5281C55.5028 47.5281 54.9818 47.0071 54.9818 46.3666C54.9818 45.7262 55.5028 45.2052 56.1432 45.2052C56.7837 45.2052 57.3047 45.7262 57.3047 46.3666C57.3047 47.0071 56.7837 47.5281 56.1432 47.5281ZM11.8332 32.9677C10.3542 32.9677 9.15082 34.1711 9.15082 35.6501C9.15082 37.1291 10.3542 38.3325 11.8332 38.3325C13.3123 38.3325 14.5157 37.1291 14.5157 35.6501C14.5157 34.1711 13.3123 32.9677 11.8332 32.9677ZM11.8332 36.6918C11.2588 36.6918 10.7914 36.2244 10.7914 35.65C10.7914 35.0755 11.2588 34.6082 11.8332 34.6082C12.4077 34.6082 12.875 35.0755 12.875 35.65C12.875 36.2244 12.4077 36.6918 11.8332 36.6918ZM50.1905 35.65C50.1905 34.1709 48.9871 32.9675 47.508 32.9675C46.029 32.9675 44.8257 34.1709 44.8257 35.65C44.8257 37.129 46.029 38.3324 47.508 38.3324C48.9871 38.3324 50.1905 37.129 50.1905 35.65ZM46.4664 35.65C46.4664 35.0755 46.9337 34.6082 47.508 34.6082C48.0825 34.6082 48.5498 35.0755 48.5498 35.65C48.5498 36.2244 48.0825 36.6918 47.508 36.6918C46.9337 36.6918 46.4664 36.2244 46.4664 35.65Z" fill="#008080"/>
</svg>
