<svg width="60" height="60" viewBox="0 0 60 60" fill="none" xmlns="http://www.w3.org/2000/svg">
<path d="M48.5171 45.1036C48.1011 44.9273 47.6538 44.8368 47.2019 44.8375C46.7501 44.8383 46.303 44.9302 45.8876 45.1079L39.8265 47.6816C39.8735 47.2247 39.8241 46.763 39.6815 46.3264C39.5389 45.8898 39.3062 45.488 38.9986 45.147C38.691 44.8059 38.3152 44.5332 37.8956 44.3465C37.4759 44.1598 37.0218 44.0632 36.5625 44.063H29.2903C28.5548 44.0621 27.8295 43.8909 27.1713 43.5627C24.1287 42.0459 20.7761 41.2545 17.3763 41.2505H15C15 41.0018 14.9012 40.7634 14.7254 40.5875C14.5496 40.4117 14.3111 40.313 14.0625 40.313H8.4375C8.18886 40.313 7.9504 40.4117 7.77459 40.5875C7.59877 40.7634 7.5 41.0018 7.5 41.2505H1.875V43.1255H7.5V52.5005H1.875V54.3755H7.5C7.5 54.6241 7.59877 54.8625 7.77459 55.0384C7.9504 55.2142 8.18886 55.313 8.4375 55.313H14.0625C14.3111 55.313 14.5496 55.2142 14.7254 55.0384C14.9012 54.8625 15 54.6241 15 54.3755V54.0179L21.9994 56.9242C25.815 58.482 30.0806 58.5291 33.9298 57.056L48.412 51.5342C48.8367 51.373 49.2248 51.1284 49.5536 50.8151C49.8824 50.5017 50.1453 50.1258 50.3268 49.7094C50.5147 49.2871 50.6164 48.8316 50.6258 48.3695C50.6353 47.9074 50.5523 47.4481 50.3818 47.0185C50.2159 46.5903 49.9653 46.1999 49.6448 45.8708C49.3244 45.5418 48.9409 45.2808 48.5171 45.1036ZM13.125 53.438H9.375V42.188H13.125V53.438ZM48.6115 48.952C48.5295 49.1412 48.4106 49.3121 48.2617 49.4546C48.1127 49.5972 47.9369 49.7086 47.7443 49.7823L33.2617 55.3045C29.8583 56.6076 26.0865 56.5667 22.7121 55.1904L15 51.9878V43.1255H17.3763C20.485 43.1292 23.5506 43.8528 26.3327 45.2397C27.2514 45.6978 28.2638 45.9367 29.2903 45.938H36.5625C36.9301 45.9384 37.2829 46.0829 37.5453 46.3404C37.8077 46.5979 37.9587 46.948 37.966 47.3155C37.9732 47.6831 37.8362 48.0389 37.5843 48.3066C37.3323 48.5743 36.9855 48.7326 36.6182 48.7476C36.5803 48.7487 25.3125 48.7505 25.3125 48.7505V50.6255C25.3125 50.6255 36.6927 50.623 36.7571 50.6191C37.4543 50.5901 38.1404 50.4352 38.7825 50.1621L46.6197 46.834C46.8047 46.7549 47.0039 46.714 47.2051 46.7137C47.4064 46.7134 47.6056 46.7537 47.7909 46.8322C47.9834 46.9132 48.1576 47.0322 48.303 47.1822C48.4484 47.3321 48.562 47.5099 48.637 47.7048C48.716 47.9039 48.7545 48.1168 48.7501 48.331C48.7457 48.5452 48.6986 48.7563 48.6115 48.952ZM58.125 7.49986V5.62486H52.5C52.5 5.37622 52.4012 5.13777 52.2254 4.96195C52.0496 4.78613 51.8111 4.68736 51.5625 4.68736H45.9375C45.6889 4.68736 45.4504 4.78613 45.2746 4.96195C45.0988 5.13777 45 5.37622 45 5.62486V5.9824L38.0006 3.07615C34.185 1.51822 29.9194 1.47109 26.0702 2.94432L11.588 8.46549C11.1633 8.62677 10.7752 8.87128 10.4464 9.18466C10.1176 9.49803 9.85474 9.87395 9.67324 10.2903C9.48531 10.7126 9.38362 11.1681 9.37416 11.6302C9.36471 12.0923 9.44766 12.5516 9.61816 12.9812C9.78407 13.4095 10.0347 13.7998 10.3552 14.1289C10.6756 14.4579 11.0591 14.7189 11.4829 14.8962C11.8989 15.0724 12.3462 15.1629 12.7981 15.1622C13.2499 15.1614 13.697 15.0695 14.1124 14.8918L20.1735 12.3181C20.1264 12.7751 20.1757 13.2368 20.3183 13.6735C20.4609 14.1101 20.6935 14.512 21.0012 14.8532C21.3088 15.1943 21.6846 15.467 22.1043 15.6538C22.5239 15.8406 22.9781 15.9372 23.4375 15.9374H30.7097C31.4452 15.9382 32.1705 16.1094 32.8287 16.4376C35.8713 17.9544 39.2239 18.7458 42.6237 18.7499H45C45 18.9985 45.0988 19.237 45.2746 19.4128C45.4504 19.5886 45.6889 19.6874 45.9375 19.6874H51.5625C51.8111 19.6874 52.0496 19.5886 52.2254 19.4128C52.4012 19.237 52.5 18.9985 52.5 18.7499H58.125V16.8749H52.5V7.49986H58.125ZM42.6237 16.8749C39.515 16.8712 36.4494 16.1475 33.6673 14.7606C32.7486 14.3025 31.7362 14.0636 30.7097 14.0624H23.4375C23.0699 14.0619 22.7171 13.9174 22.4547 13.6599C22.1923 13.4024 22.0413 13.0523 22.034 12.6848C22.0268 12.3172 22.1638 11.9614 22.4157 11.6937C22.6677 11.426 23.0145 11.2677 23.3818 11.2527C23.4197 11.251 34.6875 11.2499 34.6875 11.2499V9.37486C34.6875 9.37486 23.3073 9.37732 23.2429 9.38119C22.5457 9.41025 21.8596 9.56508 21.2175 9.83822L13.3804 13.1663C13.1952 13.2456 12.996 13.2865 12.7946 13.2868C12.5932 13.2871 12.3939 13.2468 12.2085 13.1681C12.016 13.0871 11.8418 12.9681 11.6964 12.8181C11.551 12.6682 11.4374 12.4904 11.3624 12.2955C11.2834 12.0964 11.2449 11.8836 11.2493 11.6694C11.2537 11.4552 11.3008 11.2441 11.3879 11.0484C11.4699 10.8592 11.5888 10.6884 11.7378 10.5458C11.8867 10.4032 12.0626 10.2918 12.2551 10.2181L26.7383 4.69521C30.1418 3.39227 33.9134 3.43308 37.2879 4.80935L45 8.01197V16.8749H42.6237ZM50.625 17.8124H46.875V6.56236H50.625V17.8124ZM49.9955 21.9139C51.356 25.2882 51.8421 28.9515 51.4087 32.5639C50.9753 36.1762 49.6365 39.6205 47.5164 42.5772L49.0384 43.6722C51.3434 40.4585 52.7991 36.7144 53.2703 32.7876C53.7414 28.8608 53.2129 24.8787 51.7336 21.2108L49.9955 21.9139ZM10.9616 16.3274C8.65657 19.5412 7.2009 23.2853 6.72971 27.2121C6.25853 31.1388 6.78712 35.121 8.26641 38.7889L10.0045 38.0858C8.64401 34.7115 8.15789 31.0482 8.59128 27.4359C9.02468 23.8235 10.3635 20.3792 12.4836 17.4225L10.9616 16.3274ZM36.5625 29.9999H40.3125V31.8749H36.5625V29.9999ZM19.6875 29.9999H23.4375V31.8749H19.6875V29.9999Z" fill="#008080"/>
<path d="M16.875 26.25C16.6465 26.25 16.4258 26.3335 16.2545 26.4847C16.0832 26.6359 15.9731 26.8445 15.9447 27.0712L15.0072 34.5712C14.9908 34.7031 15.0025 34.837 15.0417 34.9641C15.0809 35.0911 15.1467 35.2083 15.2347 35.3079C15.3226 35.4076 15.4308 35.4874 15.552 35.5421C15.6731 35.5967 15.8045 35.625 15.9375 35.625H16.875V37.0312C16.8757 37.6526 17.1228 38.2484 17.5622 38.6877C18.0016 39.1271 18.5973 39.3743 19.2187 39.375H22.9687C23.5901 39.3743 24.1858 39.1271 24.6252 38.6877C25.0646 38.2484 25.3118 37.6526 25.3125 37.0312V35.625H34.6875V37.0312C34.6882 37.6526 34.9353 38.2484 35.3747 38.6877C35.8141 39.1271 36.4098 39.3743 37.0312 39.375H40.7812C41.4026 39.3743 41.9983 39.1271 42.4377 38.6877C42.8771 38.2484 43.1243 37.6526 43.125 37.0312V35.625H44.0625C44.1954 35.625 44.3268 35.5967 44.448 35.5421C44.5691 35.4874 44.6773 35.4076 44.7653 35.3079C44.8532 35.2083 44.919 35.0911 44.9582 34.9641C44.9974 34.837 45.0092 34.7031 44.9927 34.5712L44.0552 27.0712C44.0269 26.8445 43.9167 26.6359 43.7454 26.4847C43.5741 26.3335 43.3535 26.25 43.125 26.25H41.9257L41.6133 25.3125H43.125V23.4375H40.9882L40.2644 21.266C40.2022 21.0793 40.0828 20.917 39.9232 20.8019C39.7635 20.6869 39.5717 20.625 39.375 20.625H20.625C20.4282 20.625 20.2364 20.6869 20.0768 20.8019C19.9171 20.917 19.7977 21.0793 19.7355 21.266L19.0118 23.4375H16.875V25.3125H18.3867L18.0743 26.25H16.875ZM23.4375 37.0312C23.4375 37.1556 23.3881 37.2748 23.3002 37.3627C23.2123 37.4506 23.093 37.5 22.9687 37.5H19.2187C19.0944 37.5 18.9752 37.4506 18.8873 37.3627C18.7994 37.2748 18.75 37.1556 18.75 37.0312V35.625H23.4375V37.0312ZM32.8125 33.75H27.1875V31.875H32.8125V33.75ZM41.25 37.0312C41.25 37.1556 41.2006 37.2748 41.1127 37.3627C41.0248 37.4506 40.9055 37.5 40.7812 37.5H37.0312C36.9069 37.5 36.7877 37.4506 36.6998 37.3627C36.6119 37.2748 36.5625 37.1556 36.5625 37.0312V35.625H41.25V37.0312ZM43.0005 33.75H34.6875V30.9375C34.6875 30.6889 34.5887 30.4504 34.4129 30.2746C34.2371 30.0988 33.9986 30 33.75 30H26.25C26.0013 30 25.7629 30.0988 25.5871 30.2746C25.4112 30.4504 25.3125 30.6889 25.3125 30.9375V33.75H16.9994L17.7025 28.125H42.2974L43.0005 33.75ZM21.3007 22.5H38.6993L39.9492 26.25H20.0508L21.3007 22.5Z" fill="#008080"/>
</svg>
