<svg width="60" height="60" viewBox="0 0 60 60" fill="none" xmlns="http://www.w3.org/2000/svg">
<g clip-path="url(#clip0_1148_2163)">
<path d="M41.0127 32.1104L45.9077 37.0055L40.7239 42.1893L35.8555 37.3209" stroke="#008080" stroke-width="1.75781" stroke-miterlimit="10" stroke-linecap="round" stroke-linejoin="round"/>
<path d="M13.5625 1.96387H21.2519C22.2198 1.96387 23.0043 2.74844 23.0043 3.71629V5.42547M14.9182 9.60285H2.63328C1.66543 9.60285 0.880859 8.81828 0.880859 7.85043V3.71641C0.880859 2.74855 1.66543 1.96398 2.63328 1.96398H9.47316M14.5679 9.60285H3.09969V49.9864C3.09969 54.4323 6.70391 58.0367 11.15 58.0367H12.7353C17.1813 58.0367 20.7856 54.4325 20.7856 49.9864V43.2796M57.8082 53.4865L57.2043 54.0904C55.4512 55.8435 52.6089 55.8435 50.8559 54.0904L39.8398 43.0744L46.7922 36.122L57.8082 47.1381C59.5613 48.8911 59.5613 51.7334 57.8082 53.4865Z" stroke="#008080" stroke-width="1.75781" stroke-miterlimit="10" stroke-linecap="round" stroke-linejoin="round"/>
<path d="M9.47113 19.2478C7.08777 18.6388 4.92496 18.3833 3.09766 18.3137M7.25699 43.985H3.35219M9.21402 39.1903H3.35219M7.25699 34.3954H3.35219M5.55215 29.6007H3.35219M22.6316 34.3954V11.2427M22.6316 18.8087C20.2714 18.968 17.6559 18.7183 14.9161 17.7347" stroke="#008080" stroke-width="1.75781" stroke-miterlimit="10" stroke-linecap="round" stroke-linejoin="round"/>
<path d="M27.9129 20.1765H31.6679M27.9129 24.0732H31.6679M38.4646 10.457C31.7563 3.74871 20.8801 3.74871 14.1718 10.457C7.46355 17.1653 7.46355 28.0414 14.1718 34.7497C20.8801 41.458 31.7563 41.458 38.4646 34.7497C45.1729 28.0414 45.1729 17.1653 38.4646 10.457ZM35.0836 31.3688C30.2426 36.2098 22.3938 36.2098 17.5528 31.3688C12.7118 26.5277 12.7118 18.679 17.5528 13.838C22.3938 8.99695 30.2426 8.99695 35.0836 13.838C39.9246 18.679 39.9246 26.5277 35.0836 31.3688Z" stroke="#008080" stroke-width="1.75781" stroke-miterlimit="10" stroke-linecap="round" stroke-linejoin="round"/>
</g>
<defs>
<clipPath id="clip0_1148_2163">
<rect width="60" height="60" fill="white"/>
</clipPath>
</defs>
</svg>
