<svg width="60" height="60" viewBox="0 0 60 60" fill="none" xmlns="http://www.w3.org/2000/svg">
<path d="M53.5932 9.37482L46.377 5.54736L45.498 7.20381L52.9205 11.1405C53.0558 11.2123 53.2066 11.2498 53.3598 11.2498H58.0473V9.37482H53.5932Z" fill="#008080"/>
<path d="M53.2756 18.7539L47.6389 19.2662C46.3327 19.3819 45.0175 19.193 43.7967 18.7144C42.5759 18.2358 41.4828 17.4805 40.6033 16.5079L37.687 13.2673C37.2451 12.7761 36.9902 12.1451 36.967 11.4848C36.9438 10.8245 37.1538 10.1772 37.5602 9.65625L42.5279 12.968C42.6303 13.0377 42.7455 13.0865 42.8669 13.1114C42.9882 13.1364 43.1133 13.137 43.2349 13.1133C43.3565 13.0896 43.4722 13.042 43.5753 12.9734C43.6785 12.9047 43.7669 12.8162 43.8357 12.7132C43.9044 12.6101 43.952 12.4944 43.9757 12.3728C43.9995 12.2512 43.9989 12.1261 43.974 12.0047C43.9491 11.8834 43.9004 11.7681 43.8307 11.6657C43.761 11.5633 43.6717 11.4757 43.5679 11.408L37.9429 7.65797L37.9412 7.65668L37.94 7.65598C37.7854 7.55363 37.6039 7.49936 37.4185 7.5H27.1111C26.0375 7.4996 24.9977 7.12491 24.1706 6.44043C23.3436 5.75596 22.781 4.80455 22.5799 3.75H38.9861L43.6232 6.20953L44.5022 4.55309L39.6591 1.98434C39.5238 1.91251 39.373 1.87497 39.2198 1.875H21.5636C21.3172 1.87498 21.0807 1.97196 20.9053 2.14497C20.7298 2.31798 20.6296 2.55311 20.6261 2.79949C20.6142 3.65868 20.7731 4.51167 21.0937 5.30892C21.4142 6.10616 21.89 6.83176 22.4933 7.44356C23.0967 8.05535 23.8156 8.54115 24.6084 8.87272C25.4011 9.20429 26.2518 9.37502 27.1111 9.375H35.5422C35.1454 10.2112 35.0051 11.1462 35.1388 12.0621C35.2725 12.978 35.6744 13.8338 36.2938 14.5216L39.2101 17.7621C40.1806 18.8354 41.3651 19.6936 42.6874 20.2815C44.0096 20.8694 45.4402 21.1741 46.8873 21.1758C47.1938 21.1758 47.5009 21.1619 47.8086 21.1341L53.4029 20.625H58.0479V18.75H53.3604C53.3326 18.75 53.3038 18.7513 53.2756 18.7539ZM32.89 50.625H29.063V52.5H32.89C33.9636 52.5004 35.0034 52.8751 35.8305 53.5596C36.6575 54.244 37.2201 55.1955 37.4212 56.25H21.015L7.07996 48.8593C6.94465 48.7875 6.7938 48.75 6.64062 48.75H1.95312V50.625H6.40742L20.342 58.0157C20.4773 58.0875 20.6281 58.125 20.7813 58.125H38.438C38.6845 58.125 38.921 58.028 39.0964 57.855C39.2719 57.682 39.3721 57.4469 39.3755 57.2005C39.3875 56.3413 39.2286 55.4882 38.908 54.6909C38.5874 53.8937 38.1116 53.168 37.5081 52.5562C36.9047 51.9444 36.1857 51.4586 35.3929 51.1271C34.6001 50.7956 33.7494 50.6249 32.89 50.625Z" fill="#008080"/>
<path d="M6.72547 41.2461L12.3622 40.7338C13.6684 40.618 14.9836 40.8069 16.2044 41.2855C17.4252 41.7641 18.5183 42.5195 19.3978 43.4921L22.3141 46.7327C22.7562 47.2239 23.0112 47.855 23.0344 48.5154C23.0577 49.1757 22.8477 49.8232 22.4412 50.3442L17.4732 47.0325C17.3708 46.9628 17.2556 46.914 17.1342 46.8891C17.0129 46.8641 16.8878 46.8635 16.7662 46.8872C16.6446 46.9109 16.5289 46.9584 16.4257 47.0271C16.3226 47.0958 16.2342 47.1842 16.1654 47.2873C16.0967 47.3904 16.0491 47.5061 16.0253 47.6277C16.0016 47.7493 16.0022 47.8744 16.0271 47.9957C16.052 48.1171 16.1007 48.2323 16.1704 48.3348C16.2401 48.4372 16.3294 48.5248 16.4332 48.5925L22.0582 52.3425L22.0599 52.3438L22.0612 52.3446C22.2145 52.446 22.3941 52.5 22.5779 52.5H27.188V50.625H24.4587C24.8556 49.7888 24.9961 48.8538 24.8623 47.9379C24.7286 47.022 24.3267 46.1662 23.7073 45.4784L20.791 42.2379C19.7161 41.0492 18.3801 40.126 16.888 39.541C15.396 38.956 13.7886 38.7251 12.1921 38.8664L6.5982 39.375H1.95312V41.25H6.64062C6.66852 41.25 6.69734 41.2487 6.72547 41.2461ZM33.7505 17.8125H26.2505C26.0019 17.8125 25.7634 17.9113 25.5876 18.0871C25.4118 18.2629 25.313 18.5014 25.313 18.75V25.3125H23.438V27.1875H26.2505C26.4992 27.1875 26.7376 27.0887 26.9135 26.9129C27.0893 26.7371 27.188 26.4986 27.188 26.25V19.6875H32.813V26.25C32.813 26.4986 32.9118 26.7371 33.0876 26.9129C33.2635 27.0887 33.5019 27.1875 33.7505 27.1875H40.313V32.8125H33.7505C33.5019 32.8125 33.2635 32.9113 33.0876 33.0871C32.9118 33.2629 32.813 33.5014 32.813 33.75V40.3125H27.188V33.75C27.188 33.5014 27.0893 33.2629 26.9135 33.0871C26.7376 32.9113 26.4992 32.8125 26.2505 32.8125H19.688V27.1875H21.563V25.3125H18.7505C18.5019 25.3125 18.2634 25.4113 18.0876 25.5871C17.9118 25.7629 17.813 26.0014 17.813 26.25V33.75C17.813 33.9986 17.9118 34.2371 18.0876 34.4129C18.2634 34.5887 18.5019 34.6875 18.7505 34.6875H25.313V41.25C25.313 41.4986 25.4118 41.7371 25.5876 41.9129C25.7634 42.0887 26.0019 42.1875 26.2505 42.1875H33.7505C33.9992 42.1875 34.2376 42.0887 34.4135 41.9129C34.5893 41.7371 34.688 41.4986 34.688 41.25V34.6875H41.2505C41.4992 34.6875 41.7376 34.5887 41.9135 34.4129C42.0893 34.2371 42.188 33.9986 42.188 33.75V26.25C42.188 26.0014 42.0893 25.7629 41.9135 25.5871C41.7376 25.4113 41.4992 25.3125 41.2505 25.3125H34.688V18.75C34.688 18.5014 34.5893 18.2629 34.4135 18.0871C34.2376 17.9113 33.9992 17.8125 33.7505 17.8125Z" fill="#008080"/>
<path d="M12.1875 30C12.1854 31.9949 12.5201 33.9759 13.1774 35.8594L14.9475 35.2412C14.3597 33.5564 14.0605 31.7844 14.0625 30C14.0625 21.212 21.212 14.0625 30 14.0625C30.5919 14.0626 31.1833 14.0952 31.7717 14.1602L31.9784 12.297C31.3214 12.2241 30.661 12.1876 30 12.1875C20.1782 12.1875 12.1875 20.1782 12.1875 30ZM30 45.9375C29.4081 45.9374 28.8167 45.9048 28.2284 45.8398L28.0217 47.703C28.6786 47.7759 29.339 47.8124 30 47.8125C39.8218 47.8125 47.8125 39.8218 47.8125 30C47.8146 28.0051 47.4799 26.0241 46.8226 24.1406L45.0525 24.7588C45.6403 26.4436 45.9395 28.2156 45.9375 30C45.9375 38.788 38.788 45.9375 30 45.9375Z" fill="#008080"/>
<path d="M50.2644 23.6216C50.113 23.7338 49.9989 23.8889 49.9369 24.0668C49.8749 24.2448 49.868 24.4372 49.9171 24.6191C51.1209 29.096 50.784 33.8476 48.9606 38.1099C47.1373 42.3721 43.9334 45.8973 39.8643 48.1184L40.7624 49.7644C44.8606 47.5276 48.1629 44.073 50.2128 39.8782C52.2627 35.6833 52.9589 30.9553 52.2054 26.3475L54.8157 27.9822L55.8109 26.3931L51.3198 23.5806C51.1601 23.4806 50.974 23.4311 50.7858 23.4384C50.5975 23.4457 50.4158 23.5096 50.2644 23.6216ZM8.94914 35.6252C9.08949 35.6252 9.22805 35.5937 9.3546 35.533C9.48114 35.4723 9.59245 35.384 9.6803 35.2745C9.76816 35.1651 9.83032 35.0373 9.8622 34.9006C9.89408 34.7639 9.89486 34.6218 9.86449 34.4848C8.85466 29.9442 9.40834 25.1957 11.4357 21.0092C13.4631 16.8228 16.8454 13.444 21.0339 11.4209L20.2178 9.7334C15.9565 11.7955 12.453 15.1474 10.2045 19.3134C7.95604 23.4793 7.07685 28.2477 7.69172 32.9416L4.19695 31.0506L3.30469 32.6997L8.50313 35.5122C8.64008 35.5864 8.79338 35.6252 8.94914 35.6252Z" fill="#008080"/>
</svg>
