<svg width="60" height="60" viewBox="0 0 60 60" fill="none" xmlns="http://www.w3.org/2000/svg">
<path d="M54.9416 31.3556C56.041 30.258 56.6465 28.7933 56.6465 27.2313C56.6465 25.6697 56.0411 24.2043 54.942 23.1052C52.8563 21.0195 49.5675 20.8478 47.281 22.5904C46.2724 21.8201 45.0419 21.403 43.7441 21.403C42.9959 21.4019 42.2545 21.5442 41.5599 21.8222C40.5347 21.3271 39.4421 20.9861 38.3172 20.8102C41.6165 18.874 43.8368 15.2893 43.8368 11.1954C43.8368 5.05453 38.8393 0.0585938 32.6966 0.0585938C26.5557 0.0585938 21.5598 5.05453 21.5598 11.1954C21.5598 15.2879 23.7778 18.8714 27.074 20.808C21.5342 21.6673 17.2803 26.469 17.2803 32.2459V38.711L11.9853 41.9325L11.5156 41.1962C11.4569 41.104 11.3805 41.0244 11.2909 40.9617C11.2013 40.8991 11.1003 40.8547 10.9936 40.8311C10.8868 40.8075 10.7765 40.8052 10.6689 40.8243C10.5612 40.8434 10.4584 40.8834 10.3663 40.9423L3.73814 45.1712C3.55208 45.2899 3.42079 45.4777 3.37314 45.6932C3.3255 45.9087 3.3654 46.1343 3.48407 46.3204L11.9251 59.5564C11.9838 59.6487 12.0601 59.7284 12.1497 59.7911C12.2392 59.8538 12.3403 59.8982 12.447 59.9218C12.5538 59.9454 12.6641 59.9477 12.7718 59.9287C12.8794 59.9096 12.9822 59.8695 13.0743 59.8106L19.7059 55.5817C19.892 55.4629 20.0233 55.2752 20.071 55.0596C20.1186 54.8441 20.0787 54.6184 19.9601 54.4323L18.9725 52.8844L21.502 51.3463L32.226 54.8917C32.9488 55.1312 33.6709 55.2504 34.382 55.2504C35.6211 55.2504 36.8268 54.8887 37.9443 54.1723L50.6515 46.0277C52.3997 44.907 52.9119 42.5701 51.792 40.8165C50.9759 39.5466 49.5194 38.9309 48.1131 39.1184V38.1875L54.9416 31.3556ZM46.6919 24.2821C46.8479 24.4381 47.0595 24.5258 47.2801 24.5259C47.5007 24.5259 47.7124 24.4384 47.8685 24.2825C49.4956 22.6581 52.1408 22.6579 53.7649 24.2821C54.5497 25.0669 54.9819 26.1143 54.9819 27.2312C54.9819 28.348 54.5498 29.3944 53.7648 30.1781L47.2804 36.6655L40.796 30.178C39.1719 28.5539 39.1721 25.9089 40.7965 24.2817C41.5796 23.4989 42.6263 23.0677 43.744 23.0677C44.8619 23.0677 45.9089 23.4989 46.6919 24.2821ZM23.2243 11.1954C23.2243 5.97234 27.4735 1.72313 32.6966 1.72313C37.9215 1.72313 42.1721 5.97234 42.1721 11.1954C42.1721 16.4203 37.9214 20.6709 32.6966 20.6709C27.4735 20.6711 23.2243 16.4203 23.2243 11.1954ZM28.8551 22.3356H36.538C37.6602 22.3366 38.7741 22.5283 39.832 22.9025C39.7593 22.9683 39.6883 23.0358 39.619 23.1052L39.6185 23.1056C37.3461 25.3819 37.3463 29.0825 39.6188 31.355L46.4482 38.1877V39.7654L38.8687 44.6243C38.6844 44.0646 38.3712 43.5559 37.9545 43.1392C37.5377 42.7225 37.029 42.4095 36.4692 42.2252L23.0008 37.7707C21.6214 37.3139 20.2394 37.3379 18.9449 37.8275V32.246C18.9447 26.7813 23.3905 22.3356 28.8551 22.3356ZM12.8809 57.9598L5.3347 46.127L10.5597 42.7934L17.0973 53.0406C17.0988 53.043 17.0999 53.0456 17.1014 53.0481C17.1051 53.0542 17.1095 53.0597 17.1133 53.0658L18.1087 54.6259L12.8809 57.9598ZM50.3901 41.7145C51.0156 42.6939 50.7297 44 49.7529 44.6263L37.0458 52.7708C35.7242 53.6181 34.2385 53.805 32.7488 53.3113L21.6592 49.6451C21.5447 49.6073 21.4234 49.5948 21.3036 49.6084C21.1839 49.6221 21.0685 49.6616 20.9655 49.7242L18.0768 51.4807L12.8808 43.3361L18.7312 39.7766C19.9065 39.06 21.167 38.9166 22.4778 39.3507L35.9464 43.8054C36.8245 44.0959 37.4179 44.9566 37.3892 45.8748C37.3819 45.9057 37.3763 45.937 37.3725 45.9686C37.2915 46.6643 36.9074 47.3092 36.3701 47.6517C35.8714 47.9695 35.2847 48.0203 34.6257 47.8018L28.4895 45.7733C28.2808 45.707 28.0543 45.7257 27.8592 45.8253C27.6641 45.9249 27.5161 46.0974 27.4474 46.3054C27.3786 46.5134 27.3946 46.7401 27.4919 46.9363C27.5891 47.1326 27.7599 47.2826 27.967 47.3538L34.1028 49.3822C34.535 49.5254 34.967 49.5963 35.3871 49.5963C36.0597 49.5963 36.7018 49.4143 37.2649 49.0554C38.1249 48.5072 38.7408 47.5855 38.9624 46.5414L47.4804 41.0808C48.4576 40.4545 49.7636 40.7394 50.3901 41.7145ZM43.8636 29.048C43.8636 28.8272 43.9513 28.6155 44.1074 28.4595C44.2635 28.3034 44.4751 28.2157 44.6959 28.2157H46.4481V26.4601C46.4481 26.2394 46.5357 26.0277 46.6918 25.8716C46.8479 25.7155 47.0596 25.6279 47.2803 25.6279C47.5011 25.6279 47.7127 25.7155 47.8688 25.8716C48.0249 26.0277 48.1126 26.2394 48.1126 26.4601V28.2157H49.8683C50.089 28.2157 50.3007 28.3034 50.4568 28.4595C50.6129 28.6155 50.7006 28.8272 50.7006 29.048C50.7006 29.2687 50.6129 29.4804 50.4568 29.6365C50.3007 29.7925 50.089 29.8802 49.8683 29.8802H48.1126V31.6325C48.1126 31.8533 48.0249 32.065 47.8688 32.221C47.7127 32.3771 47.5011 32.4648 47.2803 32.4648C47.0596 32.4648 46.8479 32.3771 46.6918 32.221C46.5357 32.065 46.4481 31.8533 46.4481 31.6325V29.8802H44.6959C44.4751 29.8802 44.2635 29.7925 44.1074 29.6365C43.9513 29.4804 43.8636 29.2687 43.8636 29.048Z" fill="#008080"/>
</svg>
