<svg width="60" height="60" viewBox="0 0 60 60" fill="none" xmlns="http://www.w3.org/2000/svg">
<path d="M46.6334 33.3255C47.1898 33.2589 47.7025 32.9908 48.0747 32.572C48.4469 32.1531 48.6529 31.6125 48.6537 31.0521V28.9484C48.653 28.3883 48.4473 27.8479 48.0754 27.4291C47.7036 27.0103 47.1913 26.742 46.6353 26.6749L44.045 26.3609C43.7118 25.0547 43.1928 23.8032 42.5037 22.6446L44.1069 20.598C44.4558 20.1574 44.631 19.6041 44.5994 19.043C44.5678 18.4818 44.3315 17.9517 43.9353 17.553L42.4447 16.0624C42.0471 15.6685 41.5191 15.4336 40.9603 15.402C40.4015 15.3704 39.8504 15.5443 39.4109 15.8909L37.3578 17.4996C36.1992 16.8106 34.9477 16.2915 33.6416 15.9584L33.3275 13.369C33.2606 12.8128 32.9925 12.3003 32.5736 11.9283C32.1548 11.5563 31.6143 11.3504 31.0541 11.3496H28.9503C28.3904 11.3504 27.8501 11.5559 27.4313 11.9276C27.0125 12.2992 26.7442 12.8113 26.6769 13.3671L26.3628 15.9584C25.0567 16.2915 23.8051 16.8106 22.6466 17.4996L20.6 15.8965C20.1593 15.5478 19.6062 15.3727 19.0451 15.4041C18.4841 15.4356 17.954 15.6714 17.555 16.0671L16.0644 17.5577C15.6705 17.9554 15.4356 18.4833 15.404 19.0421C15.3724 19.6009 15.5462 20.152 15.8928 20.5915L17.5016 22.6446C16.8126 23.8032 16.2935 25.0547 15.9603 26.3609L13.3709 26.6749C12.8147 26.7418 12.3023 27.01 11.9302 27.4288C11.5582 27.8476 11.3524 28.3882 11.3516 28.9484V31.0521C11.3523 31.612 11.5579 32.1523 11.9295 32.5711C12.3012 32.9899 12.8132 33.2582 13.3691 33.3255L15.9603 33.6396C16.2935 34.9458 16.8126 36.1973 17.5016 37.3559L15.8984 39.4024C15.5494 39.8429 15.374 40.3962 15.4054 40.9573C15.4369 41.5185 15.673 42.0486 16.0691 42.4474L17.5597 43.938C17.9572 44.3321 18.4852 44.5671 19.044 44.5987C19.6029 44.6303 20.154 44.4564 20.5934 44.1096L22.6466 42.5009C23.8051 43.1902 25.0566 43.7096 26.3628 44.043L26.6769 46.6315C26.7435 47.1878 27.0116 47.7006 27.4305 48.0728C27.8493 48.445 28.39 48.651 28.9503 48.6518H31.0541C31.6141 48.651 32.1545 48.4453 32.5733 48.0735C32.9922 47.7016 33.2604 47.1894 33.3275 46.6334L33.6416 44.043C34.9477 43.7099 36.1992 43.1908 37.3578 42.5018L39.4044 44.1049C39.8449 44.454 40.3983 44.6294 40.9595 44.5978C41.5207 44.5662 42.0508 44.3297 42.4494 43.9334L43.94 42.4427C44.3339 42.0451 44.5688 41.5172 44.6004 40.9583C44.632 40.3995 44.4581 39.8485 44.1116 39.409L42.5028 37.3559C43.1921 36.1973 43.7115 34.9458 44.045 33.6396L46.6334 33.3255ZM42.3612 32.599C42.0469 34.133 41.4413 35.5925 40.5772 36.8984C40.4687 37.0624 40.4147 37.2565 40.4226 37.453C40.4305 37.6495 40.5 37.8385 40.6212 37.9934L42.6406 40.5715C42.7031 40.6514 42.7344 40.7512 42.7287 40.8525C42.723 40.9537 42.6807 41.0494 42.6097 41.1218L41.1284 42.603C41.055 42.6764 40.9572 42.72 40.8536 42.7257C40.75 42.7314 40.6479 42.6988 40.5669 42.634L37.9953 40.6193C37.8406 40.4978 37.6515 40.4281 37.4549 40.4202C37.2584 40.4123 37.0643 40.4665 36.9003 40.5752C35.5944 41.4393 34.1349 42.045 32.6009 42.3593C32.4087 42.3991 32.2338 42.4982 32.101 42.6427C31.9681 42.7872 31.8839 42.9697 31.8603 43.1646L31.4666 46.4084C31.4547 46.5095 31.4061 46.6029 31.3301 46.6708C31.2542 46.7386 31.156 46.7763 31.0541 46.7768H28.9503C28.8483 46.7763 28.75 46.7385 28.6739 46.6704C28.5979 46.6023 28.5495 46.5088 28.5378 46.4074L28.1441 43.1637C28.1203 42.969 28.036 42.7866 27.9032 42.6423C27.7703 42.498 27.5955 42.399 27.4034 42.3593C25.8694 42.045 24.4099 41.4393 23.1041 40.5752C22.94 40.4668 22.746 40.4127 22.5495 40.4206C22.3529 40.4285 22.1639 40.498 22.0091 40.6193L19.4309 42.6396C19.351 42.7021 19.2511 42.7334 19.1498 42.7275C19.0485 42.7216 18.9528 42.6791 18.8806 42.6077L17.3994 41.1265C17.3261 41.0531 17.2824 40.9552 17.2767 40.8516C17.271 40.748 17.3036 40.6459 17.3684 40.5649L19.3831 37.9934C19.5044 37.8385 19.5739 37.6495 19.5818 37.453C19.5897 37.2565 19.5356 37.0624 19.4272 36.8984C18.5631 35.5925 17.9575 34.133 17.6431 32.599C17.6033 32.4068 17.5042 32.2319 17.3597 32.099C17.2152 31.9661 17.0327 31.882 16.8378 31.8584L13.5941 31.4646C13.4929 31.4527 13.3995 31.4042 13.3317 31.3282C13.2638 31.2522 13.2261 31.154 13.2256 31.0521V28.9484C13.2261 28.8463 13.2639 28.748 13.332 28.672C13.4001 28.596 13.4936 28.5476 13.595 28.5359L16.8387 28.1421C17.0335 28.1183 17.2158 28.0341 17.3601 27.9012C17.5044 27.7683 17.6034 27.5936 17.6431 27.4015C17.9575 25.8675 18.5631 24.408 19.4272 23.1021C19.5356 22.938 19.5897 22.744 19.5818 22.5475C19.5739 22.351 19.5044 22.1619 19.3831 22.0071L17.3637 19.429C17.3013 19.3491 17.27 19.2492 17.2757 19.148C17.2814 19.0468 17.3237 18.9511 17.3947 18.8787L18.8759 17.3974C18.9491 17.3237 19.0471 17.2798 19.1508 17.2741C19.2545 17.2684 19.3566 17.3013 19.4375 17.3665L22.0091 19.3812C22.164 19.5022 22.353 19.5715 22.5495 19.5794C22.7459 19.5873 22.9399 19.5334 23.1041 19.4252C24.4099 18.5611 25.8694 17.9555 27.4034 17.6412C27.5955 17.6014 27.7703 17.5024 27.9032 17.3581C28.036 17.2138 28.1203 17.0315 28.1441 16.8368L28.5378 13.593C28.5495 13.4917 28.5979 13.3981 28.6739 13.3301C28.75 13.262 28.8483 13.2241 28.9503 13.2237H31.0541C31.1561 13.2241 31.2544 13.262 31.3304 13.3301C31.4064 13.3981 31.4549 13.4917 31.4666 13.593L31.8603 16.8368C31.8841 17.0315 31.9684 17.2138 32.1012 17.3581C32.2341 17.5024 32.4089 17.6014 32.6009 17.6412C34.1349 17.9555 35.5944 18.5611 36.9003 19.4252C37.0644 19.5337 37.2584 19.5878 37.4549 19.5799C37.6514 19.572 37.8405 19.5024 37.9953 19.3812L40.5734 17.3618C40.6534 17.2995 40.7532 17.2684 40.8544 17.2741C40.9556 17.2797 41.0513 17.3219 41.1237 17.3927L42.605 18.874C42.6783 18.9474 42.722 19.0453 42.7277 19.1489C42.7334 19.2525 42.7007 19.3545 42.6359 19.4355L40.6212 22.0071C40.5 22.1619 40.4305 22.351 40.4226 22.5475C40.4147 22.744 40.4687 22.938 40.5772 23.1021C41.4413 24.408 42.0469 25.8675 42.3612 27.4015C42.401 27.5937 42.5002 27.7686 42.6447 27.9015C42.7891 28.0343 42.9717 28.1185 43.1666 28.1421L46.4103 28.5359C46.5115 28.5478 46.6048 28.5963 46.6727 28.6723C46.7406 28.7483 46.7783 28.8465 46.7787 28.9484V31.0521C46.7783 31.1541 46.7404 31.2525 46.6724 31.3285C46.6043 31.4045 46.5107 31.4529 46.4094 31.4646L43.1656 31.8584C42.9709 31.8821 42.7886 31.9664 42.6443 32.0993C42.5 32.2321 42.401 32.4069 42.3612 32.599Z" fill="#008080"/>
<path d="M30 19.3828C27.1851 19.3858 24.4863 20.5053 22.4958 22.4958C20.5053 24.4863 19.3858 27.1851 19.3828 30C19.9659 44.085 40.0359 44.0812 40.6172 30C40.6142 27.1851 39.4947 24.4863 37.5042 22.4958C35.5137 20.5053 32.8149 19.3858 30 19.3828ZM30 38.7422C27.6822 38.7397 25.46 37.8179 23.8211 36.1789C22.1821 34.54 21.2603 32.3178 21.2578 30C21.7387 18.4031 38.2641 18.4059 38.7422 30C38.7397 32.3178 37.8179 34.54 36.1789 36.1789C34.54 37.8179 32.3178 38.7397 30 38.7422Z" fill="#008080"/>
<path d="M12.7645 12.7643C21.2864 3.89462 36.3989 3.25149 45.6398 11.3084L40.7855 11.6215C40.5373 11.6375 40.3057 11.7515 40.1416 11.9383C39.9775 12.1251 39.8943 12.3694 39.9103 12.6176C39.9263 12.8657 40.0403 13.0973 40.2271 13.2615C40.4139 13.4256 40.6582 13.5088 40.9064 13.4927L47.9592 13.0371C48.0177 13.0284 48.0751 13.014 48.1308 12.994C48.3212 12.9482 48.492 12.8429 48.6185 12.6933C48.7449 12.5438 48.8204 12.3578 48.8339 12.1624L49.2905 5.10868C49.3066 4.86054 49.2235 4.61614 49.0595 4.42925C48.8955 4.24235 48.6639 4.12828 48.4158 4.11212C48.1676 4.09596 47.9232 4.17903 47.7363 4.34307C47.5494 4.5071 47.4354 4.73866 47.4192 4.98681L47.0901 10.0831C37.1555 1.19743 20.6967 1.79743 11.438 11.4387C7.57292 15.3035 5.01018 20.278 4.10706 25.6686C3.20394 31.0593 4.00544 36.5974 6.39983 41.5109C6.50886 41.7344 6.70222 41.9055 6.93737 41.9864C7.17252 42.0674 7.43021 42.0516 7.65373 41.9426C7.87726 41.8336 8.04832 41.6402 8.12929 41.405C8.21025 41.1699 8.19448 40.9122 8.08545 40.6887C5.86213 36.1262 5.11788 30.9836 5.95647 25.978C6.79506 20.9723 9.17562 16.3531 12.7645 12.7643ZM53.1811 17.6684C53.1232 17.5597 53.0445 17.4634 52.9494 17.3851C52.8544 17.3068 52.7448 17.248 52.627 17.2121C52.5093 17.1761 52.3855 17.1637 52.263 17.1756C52.1404 17.1874 52.0214 17.2233 51.9126 17.2812C51.8039 17.339 51.7077 17.4178 51.6294 17.5128C51.5511 17.6079 51.4923 17.7174 51.4563 17.8352C51.4204 17.953 51.408 18.0767 51.4198 18.1993C51.4317 18.3219 51.4676 18.4409 51.5255 18.5496C53.999 23.1545 54.9178 28.4355 54.1448 33.6052C53.3719 38.7748 50.9486 43.5562 47.2364 47.2362C38.7145 56.1059 23.602 56.749 14.3611 48.6921L19.2155 48.379C19.4636 48.363 19.6952 48.249 19.8593 48.0622C20.0235 47.8754 20.1066 47.631 20.0906 47.3829C20.0746 47.1348 19.9606 46.9031 19.7738 46.739C19.587 46.5749 19.3427 46.4917 19.0945 46.5077L12.0417 46.9634C11.8164 46.9835 11.6054 47.0821 11.4453 47.242C11.2853 47.4018 11.1865 47.6128 11.1661 47.8381L10.7105 54.8918C10.6943 55.1399 10.7774 55.3844 10.9414 55.5712C11.1054 55.7581 11.337 55.8722 11.5851 55.8884C11.8333 55.9045 12.0777 55.8215 12.2646 55.6574C12.4515 55.4934 12.5655 55.2618 12.5817 55.0137L12.9108 49.9174C17.6589 54.0174 23.7272 56.2661 30.0005 56.2502C49.507 56.5034 62.632 34.789 53.1811 17.6684Z" fill="#008080"/>
</svg>
