<svg width="60" height="60" viewBox="0 0 60 60" fill="none" xmlns="http://www.w3.org/2000/svg">
<g clip-path="url(#clip0_1133_2273)">
<path d="M31.875 37.4999C32.1236 37.4999 32.3621 37.4011 32.5379 37.2253C32.7137 37.0495 32.8125 36.811 32.8125 36.5624V25.3124C32.8125 25.0638 32.7137 24.8253 32.5379 24.6495C32.3621 24.4737 32.1236 24.3749 31.875 24.3749H26.25C26.0014 24.3749 25.7629 24.4737 25.5871 24.6495C25.4113 24.8253 25.3125 25.0638 25.3125 25.3124V36.5624C25.3125 36.811 25.4113 37.0495 25.5871 37.2253C25.7629 37.4011 26.0014 37.4999 26.25 37.4999H31.875ZM27.1875 26.2499H30.9375V35.6249H27.1875V26.2499ZM20.625 37.4999C20.8736 37.4999 21.1121 37.4011 21.2879 37.2253C21.4637 37.0495 21.5625 36.811 21.5625 36.5624V30.9374C21.5625 30.6888 21.4637 30.4503 21.2879 30.2745C21.1121 30.0987 20.8736 29.9999 20.625 29.9999H15C14.7514 29.9999 14.5129 30.0987 14.3371 30.2745C14.1613 30.4503 14.0625 30.6888 14.0625 30.9374V36.5624C14.0625 36.811 14.1613 37.0495 14.3371 37.2253C14.5129 37.4011 14.7514 37.4999 15 37.4999H20.625ZM15.9375 31.8749H19.6875V35.6249H15.9375V31.8749ZM44.0625 21.5624H45.9375C46.1166 21.5622 46.292 21.5108 46.4428 21.414C46.5935 21.3173 46.7135 21.1794 46.7883 21.0167C46.8632 20.8539 46.8899 20.6732 46.8652 20.4957C46.8405 20.3183 46.7655 20.1517 46.6491 20.0155L41.0241 13.453C40.9335 13.3546 40.8235 13.2759 40.7011 13.2222C40.5786 13.1684 40.4463 13.1406 40.3125 13.1406C40.1787 13.1406 40.0464 13.1684 39.9239 13.2222C39.8015 13.2759 39.6915 13.3546 39.6009 13.453L33.9759 20.0155C33.8595 20.1517 33.7845 20.3183 33.7598 20.4957C33.7351 20.6732 33.7618 20.8539 33.8367 21.0167C33.9115 21.1794 34.0314 21.3173 34.1822 21.414C34.333 21.5108 34.5084 21.5622 34.6875 21.5624H36.5625V33.7499H38.4375V20.6249C38.4375 20.3763 38.3387 20.1378 38.1629 19.962C37.9871 19.7862 37.7486 19.6874 37.5 19.6874H36.7256L40.3125 15.5024L43.8994 19.6874H43.125C42.8764 19.6874 42.6379 19.7862 42.4621 19.962C42.2863 20.1378 42.1875 20.3763 42.1875 20.6249V33.7499H44.0625V21.5624Z" fill="#008080"/>
<path d="M29.9987 0.9375C25.5413 0.9383 21.1439 1.96436 17.1465 3.93632C13.1491 5.90828 9.65878 8.7733 6.94561 12.3098C4.23244 15.8463 2.36907 19.9594 1.49964 24.3312C0.630203 28.7029 0.777995 33.216 1.93158 37.5215C3.08517 41.827 5.21364 45.8095 8.15237 49.1609C11.0911 52.5123 14.7613 55.1428 18.8792 56.849C22.9971 58.5552 27.4522 59.2914 31.9001 59.0006C36.3479 58.7098 40.6693 57.3997 44.5299 55.1719L43.5924 53.5491C37.7766 56.9334 30.9172 58.0548 24.3265 56.6987C17.7357 55.3426 11.8763 51.6041 7.8691 46.1986C3.86193 40.793 1.98836 34.0999 2.60681 27.3995C3.22526 20.6991 6.29231 14.462 11.2212 9.88124C16.1501 5.3005 22.5949 2.69776 29.3225 2.57094C36.0502 2.44412 42.5884 4.80212 47.6865 9.19385C52.7845 13.5856 56.0845 19.7027 56.955 26.375C57.8255 33.0473 56.2055 39.8063 52.4049 45.3591L49.5812 43.0088C49.4525 42.9018 49.2976 42.8313 49.1325 42.8044C48.9673 42.7776 48.798 42.7954 48.6421 42.856C48.4862 42.9167 48.3494 43.0179 48.2458 43.1493C48.1422 43.2807 48.0757 43.4374 48.0531 43.6031L46.8577 52.3659C46.8397 52.4985 46.8502 52.6335 46.8886 52.7616C46.927 52.8898 46.9925 53.0083 47.0805 53.1091C47.1685 53.2099 47.2771 53.2907 47.3989 53.346C47.5207 53.4014 47.653 53.43 47.7868 53.43C47.8862 53.4302 47.985 53.4144 48.0793 53.3831L56.4802 50.6175C56.6393 50.5652 56.7815 50.4713 56.892 50.3455C57.0024 50.2197 57.0772 50.0666 57.1085 49.9021C57.1398 49.7376 57.1265 49.5677 57.0699 49.4101C57.0133 49.2525 56.9156 49.113 56.7868 49.0059L53.8515 46.5628C57.2504 41.7092 59.0696 35.9254 59.0612 30C59.0525 22.2948 55.9878 14.9077 50.5394 9.4593C45.091 4.01091 37.7039 0.946185 29.9987 0.9375ZM54.2884 49.365L48.9193 51.1331L49.6862 45.5316L54.2884 49.365Z" fill="#008080"/>
<path d="M11.25 39.375H46.875V41.25H11.25V39.375ZM36.5625 35.625H38.4375V37.5H36.5625V35.625ZM42.1875 35.625H44.0625V37.5H42.1875V35.625ZM39.375 35.625H41.25V37.5H39.375V35.625Z" fill="#008080"/>
</g>
<defs>
<clipPath id="clip0_1133_2273">
<rect width="60" height="60" fill="white"/>
</clipPath>
</defs>
</svg>
