<svg width="60" height="60" viewBox="0 0 60 60" fill="none" xmlns="http://www.w3.org/2000/svg">
<g clip-path="url(#clip0_1133_2216)">
<path d="M21.4854 19.1428C19.8334 20.2106 18.4692 21.668 17.5127 23.3868C16.5561 25.1056 16.0367 27.0331 16 28.9998C16 29.1311 16.0259 29.2611 16.0761 29.3825C16.1264 29.5038 16.2 29.614 16.2929 29.7069C16.3858 29.7998 16.496 29.8734 16.6173 29.9237C16.7387 29.9739 16.8687 29.9998 17 29.9998C17.1313 29.9998 17.2614 29.9739 17.3827 29.9237C17.504 29.8734 17.6143 29.7998 17.7071 29.7069C17.8 29.614 17.8737 29.5038 17.9239 29.3825C17.9742 29.2611 18 29.1311 18 28.9998C18.0338 27.3774 18.4628 25.7878 19.2498 24.3688C20.0368 22.9497 21.158 21.744 22.5163 20.8562C22.7393 20.7173 22.8988 20.4964 22.9603 20.241C23.0218 19.9855 22.9803 19.7162 22.8449 19.4911C22.563 19.0233 21.9573 18.8676 21.4854 19.1428Z" fill="#008080"/>
<path d="M52.0001 24.9998C49.6253 25.003 47.5791 26.6739 47.1012 28.9998H34.899C34.6678 27.9048 34.0745 26.9196 33.2149 26.2029L36.5937 20.0002H40.1011C40.6146 22.515 42.9487 24.2326 45.5026 23.9745C48.0565 23.7166 50.0002 21.5666 50.0002 18.9998C50.0002 16.4332 48.0565 14.283 45.5026 14.0255C42.9487 13.7672 40.6147 15.4853 40.101 18.0002H37.0002V11.4138L40.4141 7.99992H45.1011C45.6144 10.5148 47.9489 12.2327 50.5028 11.9747C53.0566 11.7169 55.0003 9.56684 55.0003 7.00008C55.0003 4.43297 53.0566 2.28328 50.5028 2.02512C47.9489 1.76742 45.6143 3.48492 45.1011 5.99988H40.4141C39.884 6.0013 39.3759 6.21187 39.0001 6.58582L38.1427 7.44363C37.4401 7.18356 36.725 6.95898 35.9999 6.77074V2.00004C35.9985 0.895781 35.1041 0.00128906 34 0H26C24.8959 0.00140625 24.0014 0.895898 24.0001 1.99992V6.76992C21.8263 7.32437 19.7422 8.18501 17.8106 9.32602L14.4563 5.97105C14.271 5.78024 14.0493 5.62868 13.8042 5.52541C13.5591 5.42215 13.2958 5.36929 13.0298 5.37H13.0281C12.7645 5.36884 12.5034 5.42073 12.2604 5.52258C12.0173 5.62444 11.7972 5.77416 11.6132 5.96285L5.97152 11.6034C5.78194 11.7883 5.6311 12.0091 5.52782 12.2529C5.42454 12.4967 5.37089 12.7586 5.37 13.0234C5.36924 13.2883 5.42127 13.5506 5.52307 13.7951C5.62486 14.0396 5.77437 14.2614 5.96285 14.4475L9.32508 17.8102C8.18439 19.7421 7.32362 21.8262 6.76852 24H1.99992C0.895898 24.0015 0.00140625 24.896 0 26.0002V34.0001C0.00140625 35.1042 0.895898 35.9987 1.99992 36H6.76852C7.32362 38.1738 8.18439 40.2579 9.32508 42.1898L5.97152 45.5435C5.78188 45.7283 5.631 45.9491 5.52772 46.1929C5.42444 46.4368 5.37082 46.6987 5.37001 46.9635C5.36921 47.2283 5.42122 47.4906 5.52302 47.7351C5.62481 47.9795 5.77434 48.2012 5.96285 48.3872L11.6043 54.0281C11.7889 54.2192 12.0102 54.3709 12.2549 54.4744C12.4997 54.5778 12.7628 54.6308 13.0284 54.6301H13.0302C13.5635 54.6325 14.0743 54.4186 14.4475 54.0373L17.8107 50.6746C19.7423 51.8156 21.8263 52.6762 24.0001 53.2307V58.0002C24.0014 59.1042 24.8959 59.9987 26 60.0001H34C35.1041 59.9987 35.9985 59.1042 35.9999 58.0002V53.2294C36.725 53.0411 37.4401 52.8165 38.1427 52.5564L39.0001 53.4142C39.3759 53.7881 39.884 53.9987 40.4141 54.0001H45.1011C45.6144 56.5152 47.9489 58.2327 50.5028 57.975C53.0566 57.7168 55.0003 55.5672 55.0003 53C55.0003 50.4333 53.0566 48.2832 50.5028 48.0254C47.9489 47.7673 45.6143 49.4852 45.1011 52.0002H40.4141L37.0001 48.5863V41.9999H40.101C40.6146 44.5148 42.9487 46.2329 45.5026 45.9746C48.0565 45.717 50.0002 43.5669 50.0002 41.0002C50.0002 38.4335 48.0565 36.2834 45.5026 36.0257C42.9487 35.7675 40.6147 37.485 40.101 40H36.5936L33.2149 33.7972C34.0745 33.0805 34.6677 32.0953 34.8989 31.0003H47.1012C47.6276 33.578 50.0614 35.3074 52.6693 34.9549C55.2768 34.6029 57.1656 32.2898 56.9889 29.6646C56.8121 27.0393 54.6314 25 52.0002 25L52.0001 24.9998ZM50.0002 3.99984C51.6568 3.99984 52.9999 5.34305 52.9999 7.00008C52.9999 8.65676 51.6568 9.99984 50.0002 9.99984C48.3431 9.99984 46.9999 8.65687 46.9999 7.00008C47.0018 5.34398 48.3441 4.0016 50.0002 3.99984ZM50.0002 50.0002C51.6568 50.0002 52.9999 51.3431 52.9999 52.9999C52.9999 54.657 51.6568 56 50.0002 56C48.3431 56 46.9999 54.6571 46.9999 52.9999C47.0018 51.3437 48.3441 50.002 50.0002 50.0002ZM30 33.0002C28.3433 33.0002 26.9998 31.6567 26.9998 30C26.9998 28.3433 28.3433 26.9998 30 26.9998C31.6567 26.9998 33.0002 28.3433 33.0002 30C32.9984 31.6562 31.6561 32.9984 30 33.0002ZM45 16.0002C46.6567 16.0002 48.0002 17.3433 48.0002 19C48.0002 20.657 46.6567 22.0001 45 22.0001C43.3433 22.0001 41.9998 20.6571 41.9998 19C42.0016 17.3438 43.3439 16.0021 45 16.0002ZM34.7831 51.4641C34.561 51.5132 34.3623 51.6368 34.2198 51.8142C34.0774 51.9917 33.9999 52.2125 34 52.44V58.0001H26V52.44C26.0001 52.2119 25.9222 51.9907 25.7792 51.8131C25.6362 51.6354 25.4368 51.5119 25.2141 51.4631C22.7227 50.9172 20.347 49.9365 18.1961 48.566C18.004 48.4446 17.7764 48.3921 17.5506 48.417C17.3248 48.442 17.1142 48.543 16.9533 48.7034L13.0275 52.6232L7.3773 46.967L11.2972 43.0471C11.458 42.8863 11.5592 42.6755 11.584 42.4495C11.6089 42.2235 11.556 41.9958 11.434 41.8039C10.0639 39.6529 9.08309 37.2775 8.53641 34.7864C8.4877 34.5636 8.36432 34.3642 8.18674 34.2212C8.00916 34.0781 7.78802 34.0001 7.56 34H1.99992V26H7.56C7.78798 26 8.00911 25.9221 8.1867 25.7791C8.36429 25.6361 8.48768 25.4368 8.53641 25.2141C9.083 22.7228 10.0638 20.3473 11.434 18.1961C11.556 18.0043 11.6089 17.7766 11.5841 17.5506C11.5592 17.3246 11.4579 17.1139 11.2971 16.9533L7.3773 13.027L13.0336 7.37695L16.9534 11.2969C17.1141 11.4578 17.3249 11.5591 17.551 11.584C17.777 11.609 18.0048 11.5561 18.1968 11.4341C20.3475 10.0637 22.723 9.08314 25.2142 8.53746C25.437 8.48854 25.6364 8.36497 25.7793 8.18722C25.9223 8.00947 26.0002 7.78822 26.0002 7.56012V1.99992H34.0001V7.56C34.0001 8.02875 34.3255 8.4348 34.7832 8.53594C35.3856 8.67103 35.9821 8.83078 36.5713 9.01477L35.5862 9.99984C35.3999 10.1851 35.2521 10.4054 35.1515 10.6481C35.051 10.8908 34.9995 11.1511 35.0003 11.4138V12.7098C27.6468 10.5812 19.7517 13.3361 15.3192 19.5777C10.8862 25.8188 10.8862 34.1812 15.3192 40.4224C19.7517 46.6639 27.6468 49.4188 35.0003 47.2902V48.5862C34.9996 48.8489 35.0511 49.1091 35.1517 49.3518C35.2523 49.5945 35.3999 49.8149 35.5862 50.0002L36.5713 50.9848C35.9822 51.1693 35.3856 51.3292 34.7831 51.4641ZM45 37.9999C46.6567 37.9999 48.0002 39.3429 48.0002 41C48.0002 42.6567 46.6567 43.9998 45 43.9998C43.3433 43.9998 41.9998 42.6567 41.9998 41C42.0016 39.3438 43.3439 38.0017 45 37.9999ZM35.0002 41.2546V45.1868C28.3983 47.3759 21.138 45.0495 17.0388 39.4304C12.9391 33.8118 12.9391 26.1882 17.0388 20.5696C21.138 14.9505 28.3983 12.6243 35.0002 14.8133V18.7454L31.4607 25.2429C30.9888 25.0891 30.4963 25.0072 30 24.9998C27.2387 24.9998 24.9998 27.2388 24.9998 30C24.9998 32.7612 27.2387 35.0002 30 35.0002C30.4963 34.9928 30.9888 34.9109 31.4607 34.7571L35.0002 41.2546ZM52.0001 33.0002C50.343 33.0002 49 31.6567 49 30C49 28.3433 50.3429 26.9998 52.0001 26.9998C53.6568 26.9998 54.9998 28.3433 54.9998 30C54.998 31.6562 53.6563 32.9984 52.0001 33.0002Z" fill="#008080"/>
</g>
<defs>
<clipPath id="clip0_1133_2216">
<rect width="60" height="60" fill="white"/>
</clipPath>
</defs>
</svg>
