<svg width="60" height="60" viewBox="0 0 60 60" fill="none" xmlns="http://www.w3.org/2000/svg">
<g clip-path="url(#clip0_1133_2536)">
<path d="M59.1435 19.7463L31.1665 0.367285C30.8249 0.12945 30.4187 0.00195312 30.0025 0.00195312C29.5863 0.00195312 29.1801 0.12945 28.8385 0.367285L20.0005 6.48629V6.00029C20.0005 5.20464 19.6844 4.44157 19.1218 3.87897C18.5592 3.31636 17.7962 3.00029 17.0005 3.00029H14.0005C13.2049 3.00029 12.4418 3.31636 11.8792 3.87897C11.3166 4.44157 11.0005 5.20464 11.0005 6.00029V12.7203L0.857502 19.7463C0.642132 19.8955 0.458317 20.0858 0.316586 20.3061C0.174854 20.5265 0.0779921 20.7727 0.0315462 21.0305C-0.0148996 21.2884 -0.0100162 21.5529 0.0459166 21.8089C0.101849 22.0649 0.207733 22.3073 0.357502 22.5223L1.6335 24.3523C1.94722 24.7996 2.42499 25.1049 2.96274 25.2015C3.5005 25.2982 4.05466 25.1784 4.5045 24.8683L5.0045 24.5253V55.0003C5.00609 56.3259 5.53338 57.5967 6.47072 58.5341C7.40806 59.4714 8.67891 59.9987 10.0045 60.0003H50.0005C51.3261 59.9987 52.5969 59.4714 53.5343 58.5341C54.4716 57.5967 54.9989 56.3259 55.0005 55.0003V24.5253L55.5005 24.8683C55.9503 25.1784 56.5045 25.2982 57.0423 25.2015C57.58 25.1049 58.0578 24.7996 58.3715 24.3523L59.6475 22.5213C59.7972 22.3064 59.9031 22.064 59.959 21.8081C60.0149 21.5522 60.0198 21.2878 59.9734 21.03C59.9269 20.7722 59.8301 20.5262 59.6884 20.3059C59.5466 20.0856 59.3628 19.8954 59.1475 19.7463H59.1435ZM13.0005 6.00029C13.0005 5.73507 13.1059 5.48072 13.2934 5.29318C13.4809 5.10564 13.7353 5.00029 14.0005 5.00029H17.0005C17.2657 5.00029 17.5201 5.10564 17.7076 5.29318C17.8951 5.48072 18.0005 5.73507 18.0005 6.00029V7.87229L13.0005 11.3353V6.00029ZM53.0005 55.0003C53.0005 55.7959 52.6844 56.559 52.1218 57.1216C51.5592 57.6842 50.7962 58.0003 50.0005 58.0003H10.0005C9.20485 58.0003 8.44179 57.6842 7.87918 57.1216C7.31657 56.559 7.0005 55.7959 7.0005 55.0003V23.1433L30.0245 7.23429L53.0005 23.1403V55.0003ZM56.6355 23.2243L31.1665 5.59329C30.8249 5.35545 30.4187 5.22795 30.0025 5.22795C29.5863 5.22795 29.1801 5.35545 28.8385 5.59329L3.3655 23.2243C3.35098 23.234 3.33323 23.2377 3.31604 23.2345C3.29886 23.2313 3.28359 23.2216 3.2735 23.2073L2.0005 21.3913L30.0245 2.00929L58.0005 21.3783L56.6355 23.2243Z" fill="#008080"/>
<path d="M28.314 18.791C27.088 20.265 24.001 22.774 17.114 23.02C16.5459 23.0464 16.0098 23.2901 15.6163 23.7006C15.2228 24.1112 15.0022 24.6573 15 25.226V33.667C15 42.044 20.273 49.729 28.762 53.724C29.1497 53.9041 29.572 53.9975 29.9995 53.9975C30.427 53.9975 30.8493 53.9041 31.237 53.724C39.727 49.729 45 42.044 45 33.667V25.226C44.9978 24.6578 44.7776 24.1121 44.3848 23.7016C43.992 23.2911 43.4565 23.0471 42.889 23.02C35.999 22.774 32.912 20.265 31.689 18.791C31.4774 18.5523 31.2176 18.3612 30.9267 18.2303C30.6358 18.0994 30.3205 18.0317 30.0015 18.0317C29.6825 18.0317 29.3672 18.0994 29.0763 18.2303C28.7854 18.3612 28.5256 18.5523 28.314 18.791ZM42.814 25.018C42.8634 25.0269 42.9083 25.0524 42.9413 25.0902C42.9744 25.128 42.9936 25.1758 42.996 25.226V33.667C42.996 41.261 38.162 48.253 30.381 51.915C30.2604 51.9715 30.1287 52.0009 29.9955 52.0009C29.8623 52.0009 29.7306 51.9715 29.61 51.915C21.834 48.253 17 41.261 17 33.667V25.226C17.0024 25.1758 17.0216 25.128 17.0547 25.0902C17.0877 25.0524 17.1326 25.0269 17.182 25.018C24.85 24.745 28.411 21.801 29.852 20.07C29.8694 20.0466 29.892 20.0276 29.9181 20.0145C29.9441 20.0014 29.9729 19.9946 30.002 19.9946C30.0311 19.9946 30.0599 20.0014 30.0859 20.0145C30.112 20.0276 30.1346 20.0466 30.152 20.07C31.589 21.8 35.15 24.745 42.818 25.018H42.814Z" fill="#008080"/>
<path d="M28.868 23.657C26.4239 25.2897 23.6339 26.3321 20.718 26.702C20.2419 26.7698 19.8062 27.0069 19.4907 27.3698C19.1752 27.7327 19.001 28.1971 19 28.678V33.667C19 39.991 22.745 45.858 29.018 49.361C29.3185 49.5276 29.6564 49.615 30 49.615C30.3436 49.615 30.6815 49.5276 30.982 49.361C37.255 45.86 41 39.993 41 33.667V28.678C40.9995 28.1969 40.8257 27.7321 40.5103 27.3688C40.195 27.0055 39.7592 26.7681 39.283 26.7C36.3665 26.3309 33.5758 25.288 31.132 23.654C30.7997 23.4226 30.4044 23.2988 29.9995 23.2993C29.5946 23.2999 29.1997 23.4247 28.868 23.657ZM39 28.678V33.667C39 39.259 35.638 44.473 30.007 47.615H29.993C24.362 44.471 21 39.256 21 33.667L21.017 28.68C24.2301 28.2722 27.3015 27.1114 29.981 25.292C32.6826 27.1076 35.771 28.267 39 28.678Z" fill="#008080"/>
<path d="M26.7064 37.293C26.5178 37.1108 26.2652 37.0101 26.003 37.0123C25.7408 37.0146 25.49 37.1198 25.3046 37.3052C25.1192 37.4906 25.014 37.7414 25.0118 38.0036C25.0095 38.2658 25.1103 38.5184 25.2924 38.707L27.2924 40.707C27.4799 40.8946 27.7342 40.9999 27.9994 41H28.0704C28.2135 40.9895 28.3527 40.9484 28.4785 40.8794C28.6043 40.8104 28.7137 40.7151 28.7994 40.6L34.7994 32.6C34.9586 32.3878 35.0269 32.1211 34.9894 31.8586C34.9519 31.596 34.8116 31.3591 34.5994 31.2C34.3873 31.0409 34.1206 30.9725 33.858 31.0101C33.5955 31.0476 33.3586 31.1878 33.1994 31.4L27.8914 38.478L26.7064 37.293Z" fill="#008080"/>
</g>
<defs>
<clipPath id="clip0_1133_2536">
<rect width="60" height="60" fill="white"/>
</clipPath>
</defs>
</svg>
