<svg width="60" height="60" viewBox="0 0 60 60" fill="none" xmlns="http://www.w3.org/2000/svg">
<path d="M24.3471 16.282C24.1962 16.1681 24.0123 16.1064 23.8232 16.1064C23.6341 16.1064 23.4502 16.1681 23.2993 16.282L12.2584 24.6194C12.1134 24.7293 12.0065 24.882 11.9528 25.0558C11.8991 25.2297 11.9013 25.4161 11.9591 25.5886C12.0169 25.7612 12.1274 25.9113 12.275 26.0177C12.4226 26.1242 12.5999 26.1816 12.7819 26.182H14.9697V39.6168C14.9697 39.8474 15.0613 40.0686 15.2244 40.2316C15.3875 40.3947 15.6087 40.4863 15.8393 40.4863H31.8071C32.0377 40.4863 32.2589 40.3947 32.422 40.2316C32.5851 40.0686 32.6767 39.8474 32.6767 39.6168V26.1829H34.8636C35.0456 26.1825 35.2229 26.1251 35.3705 26.0186C35.5182 25.9122 35.6286 25.7621 35.6865 25.5895C35.7443 25.417 35.7465 25.2306 35.6928 25.0567C35.6391 24.8828 35.5322 24.7302 35.3871 24.6203L24.3471 16.282ZM21.7193 38.7472V34.5907C21.7193 33.4307 22.6636 32.4863 23.8236 32.4863C24.9836 32.4863 25.928 33.4307 25.928 34.5907V38.7472H21.7193ZM31.8071 24.4429C31.5765 24.4429 31.3553 24.5345 31.1922 24.6976C31.0292 24.8606 30.9376 25.0818 30.9376 25.3124V38.7472H27.6663V34.5907C27.6663 32.4724 25.9428 30.7472 23.8228 30.7472C21.7028 30.7472 19.9793 32.4724 19.9793 34.5907V38.7472H16.7089V25.3133C16.7089 25.0827 16.6173 24.8615 16.4542 24.6984C16.2911 24.5353 16.0699 24.4437 15.8393 24.4437H15.3767L23.8228 18.0655L32.2689 24.4437L31.8071 24.4429ZM47.1106 32.4507C47.2599 32.3649 47.3803 32.2367 47.4566 32.0824C47.533 31.9281 47.5618 31.7546 47.5394 31.5839C47.5171 31.4132 47.4446 31.253 47.3311 31.1236C47.2176 30.9941 47.0682 30.9013 46.9019 30.8568L39.6167 28.9072C39.4692 28.8671 39.3138 28.8667 39.1662 28.906C39.0185 28.9452 38.8838 29.0228 38.7757 29.1308C38.6676 29.2388 38.59 29.3734 38.5506 29.521C38.5112 29.6687 38.5115 29.8241 38.5515 29.9716L40.5002 37.2576C40.5448 37.4237 40.6377 37.5728 40.767 37.6861C40.8964 37.7994 41.0565 37.8718 41.227 37.8941C41.3975 37.9165 41.5708 37.8878 41.725 37.8116C41.8792 37.7355 42.0073 37.6153 42.0932 37.4663L43.4784 35.0637L46.2106 37.795L47.4402 36.5655L44.708 33.8342L47.1106 32.4507ZM41.6367 34.775L40.6193 30.9768L44.4193 31.9933L42.8558 32.8924C42.7231 32.9691 42.613 33.0795 42.5367 33.2124L41.6367 34.775Z" fill="#008080"/>
<path d="M56.9584 42.4089H55.654V12.368C55.6527 11.4661 55.2937 10.6015 54.6559 9.96387C54.018 9.3262 53.1534 8.96746 52.2514 8.96631H7.74448C6.84263 8.96746 5.97806 9.32623 5.34035 9.96393C4.70265 10.6016 4.34389 11.4662 4.34274 12.368V42.4107H3.04535C2.81472 42.4107 2.59355 42.5023 2.43047 42.6653C2.2674 42.8284 2.17578 43.0496 2.17578 43.2802V47.6367C2.1767 48.5382 2.53521 49.4025 3.17264 50.0399C3.81006 50.6773 4.67433 51.0358 5.57578 51.0367H54.4367C56.3071 51.0367 57.828 49.5115 57.828 47.6367V43.2802C57.828 43.0496 57.7363 42.8284 57.5733 42.6653C57.4102 42.5023 57.189 42.4107 56.9584 42.4107V42.4089ZM6.08187 12.368C6.08187 11.4507 6.82796 10.7054 7.74448 10.7054H52.2514C53.1688 10.7054 53.9149 11.4507 53.9149 12.368V42.4107H52.1749V13.3133C52.1749 13.0826 52.0833 12.8615 51.9202 12.6984C51.7571 12.5353 51.536 12.4437 51.3053 12.4437H8.69056C8.45994 12.4437 8.23876 12.5353 8.07569 12.6984C7.91261 12.8615 7.821 13.0826 7.821 13.3133V42.4089H6.08187V12.368ZM37.5071 42.4107C37.3219 42.4106 37.1415 42.4697 36.9923 42.5793C36.8431 42.689 36.7328 42.8435 36.6775 43.0202L36.0845 44.9141H23.928L23.3367 43.0202C23.2814 42.8435 23.1711 42.689 23.0219 42.5793C22.8727 42.4697 22.6923 42.4106 22.5071 42.4107H9.56013V14.1828H50.4367V42.4089L37.5071 42.4107ZM56.0888 47.635C56.0888 48.5498 55.3471 49.2959 54.4367 49.2959H5.57578C5.13543 49.2954 4.71325 49.1203 4.40188 48.8089C4.0905 48.4975 3.91537 48.0754 3.91491 47.635V44.1481H21.868L22.4593 46.042C22.5723 46.4046 22.9088 46.6515 23.2888 46.6515H36.7236C36.9089 46.6518 37.0895 46.5928 37.2389 46.4831C37.3883 46.3734 37.4988 46.2189 37.554 46.042L38.1462 44.1481H56.0888V47.635Z" fill="#008080"/>
<path d="M7.1261 46.1065C6.78697 46.4665 6.79566 47.0005 7.1261 47.3326C7.95653 48.1587 9.16958 46.9152 8.36088 46.1065C8.03045 45.7848 7.45653 45.7848 7.1261 46.1065ZM10.5531 46.1065C10.2435 46.3874 10.1739 46.9613 10.5531 47.3413C11.3548 48.1439 12.6017 46.9326 11.7791 46.1065C11.4574 45.7848 10.8748 45.7848 10.5531 46.1065Z" fill="#008080"/>
</svg>
