<svg width="60" height="60" viewBox="0 0 60 60" fill="none" xmlns="http://www.w3.org/2000/svg">
<path d="M10.7227 15.6445C12.4757 15.6445 13.9444 14.4149 14.3189 12.7734H16.6055C16.8213 12.7734 17.0329 12.8608 17.1855 13.0138L18.3458 14.1737C18.5062 14.3341 18.7158 14.414 18.9258 14.414C19.1358 14.414 19.3458 14.3341 19.5057 14.1737C19.8261 13.8534 19.8261 13.3341 19.5057 13.0138L18.3458 11.8539C17.8811 11.3887 17.263 11.1328 16.6055 11.1328H14.3189C13.9444 9.49136 12.4757 8.26172 10.7227 8.26172C8.68746 8.26172 7.03125 9.91752 7.03125 11.9531C7.03125 13.9887 8.68746 15.6445 10.7227 15.6445ZM10.7227 9.90233C11.8535 9.90233 12.7734 10.8223 12.7734 11.9531C12.7734 13.0839 11.8535 14.0039 10.7227 14.0039C9.59187 14.0039 8.67188 13.0839 8.67188 11.9531C8.67188 10.8223 9.59186 9.90233 10.7227 9.90233ZM19.1661 45.006L17.1851 46.987C17.0325 47.1392 16.8213 47.2265 16.6043 47.2265H14.3189C13.9444 45.5851 12.4757 44.3555 10.7227 44.3555C8.68746 44.3555 7.03125 46.0113 7.03125 48.0469C7.03125 50.0825 8.68746 51.7383 10.7227 51.7383C12.4757 51.7383 13.9444 50.5086 14.3189 48.8672H16.6043C17.2532 48.8672 17.8873 48.6047 18.345 48.1469L20.3261 46.1659C20.6464 45.8456 20.6464 45.3263 20.3261 45.006C20.0061 44.6856 19.4861 44.6856 19.1661 45.006ZM10.7227 50.0977C9.59186 50.0977 8.67188 49.1777 8.67188 48.0469C8.67188 46.9161 9.59186 45.9961 10.7227 45.9961C11.8535 45.9961 12.7734 46.9161 12.7734 48.0469C12.7734 49.1777 11.8535 50.0977 10.7227 50.0977ZM7.44141 33.6914C9.47661 33.6914 11.1328 32.0356 11.1328 30C11.1328 27.9644 9.47661 26.3086 7.44141 26.3086C5.40621 26.3086 3.75 27.9644 3.75 30C3.75 32.0356 5.40621 33.6914 7.44141 33.6914ZM7.44141 27.9492C8.57222 27.9492 9.4922 28.8692 9.4922 30C9.4922 31.1308 8.57222 32.0508 7.44141 32.0508C6.31061 32.0508 5.39063 31.1308 5.39063 30C5.39063 28.8692 6.31061 27.9492 7.44141 27.9492ZM41.0742 14.4141C41.2842 14.4141 41.4938 14.3341 41.6542 14.1737L42.8145 13.0138C42.9671 12.8608 43.1783 12.7734 43.3945 12.7734H45.6811C46.0556 14.4149 47.5243 15.6445 49.2773 15.6445C51.3125 15.6445 52.9687 13.9887 52.9687 11.9531C52.9687 9.91752 51.3125 8.26172 49.2773 8.26172C47.5243 8.26172 46.0556 9.49137 45.6811 11.1328H43.3945C42.737 11.1328 42.1193 11.3887 41.6546 11.8535L40.4943 13.0138C40.1739 13.3341 40.1739 13.8534 40.4943 14.1737C40.6542 14.3341 40.8642 14.4141 41.0742 14.4141ZM49.2773 9.90233C50.4081 9.90233 51.3281 10.8223 51.3281 11.9531C51.3281 13.0839 50.4081 14.0039 49.2773 14.0039C48.1465 14.0039 47.2266 13.0839 47.2266 11.9531C47.2266 10.8223 48.1466 9.90233 49.2773 9.90233ZM49.2773 44.3555C47.5243 44.3555 46.0556 45.5851 45.6811 47.2265H43.3957C43.1787 47.2265 42.9675 47.1392 42.8149 46.987L40.8339 45.006C40.5139 44.6856 39.9939 44.6856 39.6739 45.006C39.3536 45.3263 39.3536 45.8456 39.6739 46.1659L41.655 48.1469C42.1127 48.6047 42.7472 48.8672 43.3957 48.8672H45.6811C46.0556 50.5086 47.5243 51.7383 49.2773 51.7383C51.3125 51.7383 52.9687 50.0825 52.9687 48.0469C52.9687 46.0112 51.3125 44.3555 49.2773 44.3555ZM49.2773 50.0977C48.1465 50.0977 47.2266 49.1777 47.2266 48.0469C47.2266 46.9161 48.1465 45.9961 49.2773 45.9961C50.4081 45.9961 51.3281 46.9161 51.3281 48.0469C51.3281 49.1777 50.4081 50.0977 49.2773 50.0977ZM48.8672 30C48.8672 32.0356 50.5234 33.6914 52.5586 33.6914C54.5938 33.6914 56.25 32.0356 56.25 30C56.25 27.9644 54.5938 26.3086 52.5586 26.3086C50.5234 26.3086 48.8672 27.9644 48.8672 30ZM54.6094 30C54.6094 31.1308 53.6894 32.0508 52.5586 32.0508C51.4278 32.0508 50.5078 31.1308 50.5078 30C50.5078 28.8692 51.4278 27.9492 52.5586 27.9492C53.6894 27.9492 54.6094 28.8692 54.6094 30ZM13.1836 21.1144V28.8319C13.1836 34.9014 16.4312 40.5869 21.6595 43.6701L29.5833 48.3434C29.7117 48.4189 29.856 48.457 30 48.457C30.144 48.457 30.2883 48.4189 30.4167 48.3434L38.3405 43.6701C43.5688 40.5869 46.8164 34.9014 46.8164 28.8319V21.1144C46.8164 20.2276 46.3369 19.4065 45.5646 18.9709L31.8141 11.214C30.6747 10.5709 29.3257 10.5709 28.1867 11.214L14.4354 18.9709C13.6631 19.4065 13.1836 20.2276 13.1836 21.1144ZM14.8242 21.1144C14.8242 20.8186 14.9842 20.5451 15.2414 20.3999L28.9923 12.643C29.3167 12.4601 29.6653 12.3633 30 12.3633C30.3347 12.3633 30.6833 12.4601 31.0078 12.643L44.7587 20.4003C45.0159 20.5455 45.1758 20.819 45.1758 21.1144V28.8319C45.1758 34.323 42.2375 39.4676 37.5071 42.2571L30 46.6843L22.4929 42.2571C17.7626 39.4676 14.8242 34.3231 14.8242 28.8319V21.1144Z" fill="#008080"/>
<path d="M25.8985 40.6641H34.1016C36.8156 40.6641 39.0235 38.4562 39.0235 35.7422V28.7695C39.0235 26.9603 37.5514 25.4883 35.7422 25.4883H35.332V23.8477C35.332 20.9077 32.94 18.5156 30 18.5156C27.06 18.5156 24.668 20.9077 24.668 23.8477V25.4883H24.2578C22.4486 25.4883 20.9766 26.9603 20.9766 28.7695V35.7422C20.9766 38.4562 23.1845 40.6641 25.8985 40.6641ZM26.3086 23.8477C26.3086 21.8121 27.9648 20.1563 30 20.1563C32.0352 20.1563 33.6914 21.8121 33.6914 23.8477V25.4883H26.3086V23.8477ZM22.6172 28.7695C22.6172 27.8647 23.353 27.1289 24.2578 27.1289H35.7422C36.647 27.1289 37.3828 27.8647 37.3828 28.7695V35.7422C37.3828 37.5514 35.9108 39.0234 34.1016 39.0234H25.8985C24.0893 39.0234 22.6172 37.5514 22.6172 35.7422V28.7695Z" fill="#008080"/>
<path d="M29.1797 34.3682V36.5625C29.1797 37.0153 29.5472 37.3828 30 37.3828C30.4528 37.3828 30.8203 37.0153 30.8203 36.5625V34.3682C31.7747 34.0294 32.4609 33.12 32.4609 32.0508C32.4609 30.6936 31.3572 29.5898 30 29.5898C28.6428 29.5898 27.5391 30.6936 27.5391 32.0508C27.539 33.1196 28.2252 34.0294 29.1797 34.3682ZM30 31.2305C30.4524 31.2305 30.8203 31.5984 30.8203 32.0508C30.8203 32.5032 30.4524 32.8711 30 32.8711C29.5476 32.8711 29.1797 32.5032 29.1797 32.0508C29.1797 31.5984 29.5476 31.2305 30 31.2305Z" fill="#008080"/>
</svg>
