<svg width="60" height="60" viewBox="0 0 60 60" fill="none" xmlns="http://www.w3.org/2000/svg">
<path fill-rule="evenodd" clip-rule="evenodd" d="M52.0256 29.0755C51.7805 29.1168 51.5618 29.2538 51.4176 29.4563C51.2735 29.6588 51.2156 29.9103 51.2569 30.1555C51.4594 31.3555 51.5625 32.5648 51.5625 33.7498C51.5625 40.3573 48.6188 46.3217 43.8713 50.293C43.4755 47.6933 42.3528 45.2585 40.6326 43.2696C38.9124 41.2807 36.6649 39.8187 34.1494 39.0523C35.179 38.3691 36.0238 37.4418 36.6083 36.3531C37.1929 35.2644 37.4992 34.0481 37.5 32.8123C37.5 28.6761 34.1362 25.3123 30 25.3123C25.8638 25.3123 22.5 28.6761 22.5 32.8123C22.5 35.4148 23.8331 37.7061 25.8506 39.0523C23.3351 39.8187 21.0876 41.2807 19.3674 43.2696C17.6472 45.2585 16.5245 47.6933 16.1288 50.293C13.7123 48.2681 11.7707 45.7365 10.4415 42.8776C9.11236 40.0187 8.4282 36.9026 8.4375 33.7498C8.4375 32.5648 8.54063 31.3573 8.74313 30.1555C8.7657 30.0332 8.76372 29.9076 8.7373 29.7861C8.71088 29.6646 8.66054 29.5495 8.58923 29.4477C8.51791 29.3458 8.42704 29.2591 8.32191 29.1927C8.21677 29.1263 8.09948 29.0814 7.97685 29.0608C7.85421 29.0401 7.7287 29.0441 7.60761 29.0724C7.48653 29.1008 7.37229 29.1529 7.27155 29.2258C7.17081 29.2987 7.08558 29.391 7.02082 29.4971C6.95607 29.6033 6.91309 29.7213 6.89438 29.8442C6.6754 31.1346 6.56439 32.441 6.5625 33.7498C6.5625 45.2623 14.7863 54.9805 26.115 56.8555C26.3559 56.8866 26.5995 56.8231 26.7945 56.6782C26.9895 56.5333 27.1206 56.3183 27.1603 56.0786C27.1999 55.8389 27.1449 55.5932 27.0069 55.3933C26.869 55.1933 26.6588 55.0547 26.4206 55.0067C23.3574 54.5007 20.4404 53.3365 17.8706 51.5942C18.3188 45.2323 23.55 40.3123 30 40.3123C36.45 40.3123 41.6794 45.2323 42.1312 51.5942C39.5609 53.3367 36.6432 54.501 33.5794 55.0067C33.4545 55.0229 33.3342 55.064 33.2256 55.1277C33.117 55.1913 33.0223 55.2762 32.9472 55.3772C32.8721 55.4783 32.8182 55.5934 32.7885 55.7158C32.7589 55.8381 32.7542 55.9652 32.7747 56.0894C32.7953 56.2136 32.8406 56.3324 32.908 56.4387C32.9755 56.545 33.0636 56.6366 33.1672 56.7081C33.2709 56.7796 33.3878 56.8295 33.5111 56.8548C33.6344 56.8801 33.7616 56.8804 33.885 56.8555C45.2137 54.9805 53.4375 45.2642 53.4375 33.7498C53.4375 32.4598 53.325 31.1455 53.1056 29.8442C53.0856 29.7226 53.0418 29.6062 52.9766 29.5016C52.9114 29.397 52.8261 29.3064 52.7257 29.2349C52.6253 29.1635 52.5118 29.1126 52.3916 29.0852C52.2715 29.0578 52.1471 29.0545 52.0256 29.0755ZM24.375 32.8123C24.375 29.7111 26.8988 27.1873 30 27.1873C33.1012 27.1873 35.625 29.7111 35.625 32.8123C35.625 35.9136 33.1012 38.4373 30 38.4373C26.8988 38.4373 24.375 35.9136 24.375 32.8123ZM40.2675 10.273C40.2136 10.1063 40.1141 9.95799 39.9802 9.84498C39.8463 9.73197 39.6834 9.65874 39.51 9.63359L33.5194 8.76359L30.84 3.33359C30.525 2.69609 29.475 2.69609 29.16 3.33359L26.4806 8.76359L20.49 9.63359C20.3168 9.65874 20.1542 9.73184 20.0204 9.84463C19.8866 9.95742 19.7871 10.1054 19.7331 10.2718C19.679 10.4382 19.6726 10.6164 19.7146 10.7863C19.7566 10.9562 19.8453 11.1109 19.9706 11.233L24.3056 15.4573L23.2819 21.4236C23.2522 21.5961 23.2714 21.7735 23.3374 21.9357C23.4034 22.0979 23.5134 22.2383 23.6551 22.3411C23.7968 22.444 23.9644 22.5051 24.139 22.5176C24.3136 22.5301 24.4883 22.4934 24.6431 22.4117L30 19.5936L35.3569 22.4117C35.5114 22.4946 35.6863 22.5319 35.8613 22.5193C36.0362 22.5067 36.2039 22.4447 36.345 22.3405C36.4869 22.2375 36.597 22.0969 36.663 21.9345C36.7289 21.7721 36.748 21.5944 36.7181 21.4217L35.6944 15.4592L40.0312 11.2311C40.1565 11.1092 40.2451 10.9547 40.2872 10.7851C40.3293 10.6154 40.3231 10.4374 40.2694 10.2711L40.2675 10.273ZM34.0312 14.4561C33.9223 14.5623 33.8409 14.6934 33.7938 14.8381C33.7468 14.9828 33.7356 15.1368 33.7613 15.2867L34.5488 19.8673L30.435 17.7036C30.3001 17.6333 30.1502 17.5965 29.9981 17.5965C29.846 17.5965 29.6961 17.6333 29.5612 17.7036L25.4494 19.8673L26.235 15.2867C26.2606 15.1368 26.2494 14.9828 26.2024 14.8381C26.1554 14.6934 26.0739 14.5623 25.965 14.4561L22.6388 11.2142L27.2362 10.5467C27.3864 10.5247 27.5289 10.4666 27.6517 10.3775C27.7745 10.2883 27.8738 10.1708 27.9412 10.0348L30 5.86859L32.0569 10.0367C32.1243 10.1726 32.2237 10.2902 32.3464 10.3793C32.4692 10.4685 32.6118 10.5265 32.7619 10.5486L37.3594 11.2161L34.0331 14.458L34.0312 14.4561Z" fill="#008080"/>
<path fill-rule="evenodd" clip-rule="evenodd" d="M7.56758 25.3555C7.53749 25.5281 7.55641 25.7058 7.6222 25.8683C7.68798 26.0307 7.798 26.1715 7.93975 26.2746C8.0815 26.3777 8.24932 26.439 8.42415 26.4515C8.59898 26.464 8.77382 26.4273 8.92883 26.3455L13.127 24.1367L17.327 26.3455C17.4813 26.428 17.6558 26.4651 17.8304 26.4525C18.0049 26.4399 18.1723 26.378 18.3132 26.2742C18.4551 26.1713 18.5652 26.0306 18.6312 25.8682C18.6971 25.7058 18.7162 25.5282 18.6863 25.3555L17.8838 20.6811L21.2813 17.3717C21.4072 17.2497 21.4964 17.0949 21.5387 16.9247C21.581 16.7546 21.5748 16.576 21.5207 16.4092C21.4666 16.2425 21.3668 16.0942 21.2327 15.9813C21.0986 15.8684 20.9355 15.7954 20.762 15.7705L16.067 15.0898L13.967 10.8336C13.652 10.1961 12.602 10.1961 12.287 10.8336L10.187 15.0898L5.49195 15.7705C5.31841 15.7954 5.15532 15.8684 5.02121 15.9813C4.88709 16.0942 4.78733 16.2425 4.73324 16.4092C4.67915 16.576 4.6729 16.7546 4.71521 16.9247C4.75751 17.0949 4.84668 17.2497 4.97258 17.3717L8.37008 20.6811L7.56758 25.3555ZM7.64258 17.3548L10.9426 16.8748C11.093 16.8531 11.2359 16.7951 11.3591 16.706C11.4822 16.6168 11.5818 16.4991 11.6495 16.363L13.127 13.3686L14.6045 16.363C14.6719 16.4989 14.7712 16.6164 14.894 16.7056C15.0168 16.7947 15.1593 16.8528 15.3095 16.8748L18.6113 17.3548L16.2226 19.6817C16.1137 19.788 16.0322 19.9191 15.9852 20.0637C15.9381 20.2084 15.927 20.3624 15.9526 20.5123L16.517 23.8011L13.5638 22.2486C13.4289 22.1783 13.2791 22.1415 13.127 22.1415C12.9748 22.1415 12.825 22.1783 12.6901 22.2486L9.73695 23.8011L10.2995 20.5123C10.3253 20.3625 10.3144 20.2087 10.2677 20.064C10.221 19.9193 10.1399 19.7881 10.0313 19.6817L7.64258 17.3548ZM54.512 15.7705L49.817 15.0898L47.717 10.8336C47.402 10.1961 46.352 10.1961 46.037 10.8336L43.937 15.0898L39.242 15.7705C39.0684 15.7954 38.9053 15.8684 38.7712 15.9813C38.6371 16.0942 38.5373 16.2425 38.4832 16.4092C38.4291 16.576 38.4229 16.7546 38.4652 16.9247C38.5075 17.0949 38.5967 17.2497 38.7226 17.3717L42.1201 20.6811L41.3176 25.3555C41.2875 25.5281 41.3064 25.7058 41.3722 25.8683C41.438 26.0307 41.548 26.1715 41.6898 26.2746C41.8315 26.3777 41.9993 26.439 42.1741 26.4515C42.349 26.464 42.5238 26.4273 42.6788 26.3455L46.877 24.1367L51.077 26.3455C51.2313 26.428 51.4058 26.4651 51.5804 26.4525C51.7549 26.4399 51.9223 26.378 52.0632 26.2742C52.2051 26.1713 52.3152 26.0306 52.3812 25.8682C52.4471 25.7058 52.4662 25.5282 52.4363 25.3555L51.6338 20.6811L55.0313 17.3717C55.1572 17.2497 55.2464 17.0949 55.2887 16.9247C55.331 16.7546 55.3248 16.576 55.2707 16.4092C55.2166 16.2425 55.1168 16.0942 54.9827 15.9813C54.8486 15.8684 54.6855 15.7954 54.512 15.7705ZM49.9726 19.6817C49.8637 19.788 49.7822 19.9191 49.7352 20.0637C49.6881 20.2084 49.677 20.3624 49.7026 20.5123L50.267 23.8011L47.3138 22.2486C47.1789 22.1783 47.0291 22.1415 46.877 22.1415C46.7248 22.1415 46.575 22.1783 46.4401 22.2486L43.4869 23.8011L44.0495 20.5123C44.0753 20.3625 44.0644 20.2087 44.0177 20.064C43.971 19.9193 43.8899 19.7881 43.7813 19.6817L41.3926 17.3548L44.6926 16.8748C44.843 16.8531 44.9859 16.7951 45.1091 16.706C45.2322 16.6168 45.3318 16.4991 45.3995 16.363L46.877 13.3686L48.3545 16.363C48.4219 16.4989 48.5212 16.6164 48.644 16.7056C48.7668 16.7947 48.9093 16.8528 49.0595 16.8748L52.3613 17.3548L49.9726 19.6817Z" fill="#008080"/>
<path d="M30 57.1875C30.5178 57.1875 30.9375 56.7678 30.9375 56.25C30.9375 55.7322 30.5178 55.3125 30 55.3125C29.4822 55.3125 29.0625 55.7322 29.0625 56.25C29.0625 56.7678 29.4822 57.1875 30 57.1875Z" fill="#008080"/>
</svg>
