<svg width="60" height="60" viewBox="0 0 60 60" fill="none" xmlns="http://www.w3.org/2000/svg">
<path fill-rule="evenodd" clip-rule="evenodd" d="M50.8598 28.3881L46.923 29.6635C46.6735 29.7466 46.4793 29.9338 46.3962 30.1763C46.0755 31.0987 45.8197 31.8448 45.3843 32.7478L44.9963 33.5518C44.8854 33.7805 44.8923 34.0509 45.0032 34.2796L46.8885 37.9808L42.6122 42.2504L41.2467 41.5573L44.6358 31.3199C44.8145 30.7822 44.4157 30.2387 43.8525 30.2387H42.8268C43.4159 28.6862 43.7139 27.0505 43.7138 25.3593C43.7136 17.7975 37.5656 11.6429 29.997 11.6432C22.4353 11.6434 16.2806 17.7982 16.2809 25.36C16.281 28.5691 17.4038 31.6742 19.4486 34.1277L19.4487 41.1974L17.3833 42.251L13.1067 37.9815L14.9918 34.2802C15.0493 34.1678 15.0799 34.0435 15.0811 33.9172C15.0823 33.7909 15.0541 33.6661 14.9988 33.5525C14.3397 32.1903 14.0961 31.6083 13.5986 30.1772C13.5155 29.9347 13.3214 29.7475 13.0788 29.6643L9.13499 28.3891L9.13487 22.3383L13.0785 21.0629C13.3211 20.9798 13.5152 20.7926 13.5984 20.5501C13.9115 19.6495 14.1942 18.853 14.6102 17.9786L14.9983 17.1746C15.1092 16.9389 15.1092 16.6755 14.9913 16.4469L13.106 12.7457L17.3823 8.47613L21.0767 10.3544C21.1898 10.413 21.315 10.4447 21.4424 10.4471C21.5699 10.4495 21.6961 10.4225 21.8114 10.3682C22.7509 9.91625 23.2988 9.62897 24.3413 9.25913L25.1868 8.96105C25.3059 8.92006 25.4138 8.85166 25.5016 8.76137C25.5895 8.67108 25.655 8.56142 25.6927 8.44121L26.9749 4.49741L33.0188 4.49729L34.3011 8.44097C34.3843 8.68349 34.5715 8.87765 34.814 8.96081C36.2684 9.46637 36.8097 9.69713 38.1895 10.3677C38.4182 10.4786 38.6886 10.4716 38.9173 10.3538L42.6115 8.47541L46.8881 12.7448L45.0029 16.4461C44.892 16.6748 44.885 16.9382 44.9959 17.1739C45.4403 18.106 45.7404 18.6787 46.098 19.7037L46.3961 20.5492C46.4792 20.7917 46.6734 20.9789 46.9159 21.0621L50.8597 22.3373L50.8598 28.3881ZM29.672 42.2091L39.2993 42.2089L42.716 31.8815L33.0888 31.8818L29.672 42.2091ZM21.0913 41.1765C21.0913 41.7448 21.5557 42.2092 22.131 42.2092L27.9392 42.2091L28.8125 39.5822L25.3885 39.5823C24.938 39.5823 24.5706 39.208 24.5706 38.7575L24.5705 33.1433C24.5358 32.6027 24.404 31.1126 21.7842 30.6898C21.3275 31.6095 21.0903 32.6226 21.0912 33.6494L21.0913 41.1765ZM30.0805 25.2835C32.1876 25.2835 33.9065 23.5645 33.9063 21.4575C33.9063 19.3504 32.1873 17.6385 30.0803 17.6386C27.9732 17.6386 26.2613 19.3507 26.2614 21.4577C26.2615 23.5647 27.9734 25.2835 30.0805 25.2835ZM29.3531 37.9327L31.7095 30.8006C31.8204 30.4679 32.1392 30.2392 32.4927 30.2392L38.1347 30.2391C36.9355 28.2153 34.7383 26.9261 32.3472 26.9261L27.8213 26.9263C25.8113 26.9263 24.0023 27.8135 22.7685 29.2136C24.8826 29.768 26.0886 31.1057 26.2134 33.0741V33.1226L26.2135 37.9328L29.3531 37.9327ZM41.0455 30.2389C41.7247 28.7001 42.0713 27.0644 42.0713 25.3594C42.0711 18.7057 36.6578 13.2926 29.9971 13.2928C23.3433 13.2929 17.9234 18.7063 17.9235 25.36C17.9235 27.5918 18.5474 29.7681 19.6911 31.6465C20.4743 28.472 23.0733 26.0045 26.3171 25.4153C25.2704 24.4243 24.6189 23.0173 24.6188 21.4577C24.6187 18.4427 27.0723 15.9961 30.0804 15.9959C33.0954 15.9958 35.549 18.4425 35.5491 21.4575C35.5491 23.017 34.8977 24.424 33.8442 25.4221C36.5335 25.9141 38.8484 27.7091 39.9852 30.239L41.0455 30.2389ZM31.3357 54.1651C31.3357 54.9067 30.7397 55.5028 29.9981 55.5028C29.2634 55.5028 28.6604 54.9068 28.6604 54.1652C28.6604 53.4304 29.2634 52.8344 29.9981 52.8344C30.7397 52.8343 31.3357 53.4304 31.3357 54.1651ZM48.0326 54.1647C48.0326 54.9063 47.4366 55.5025 46.695 55.5025C45.9604 55.5025 45.3572 54.9064 45.3572 54.1648C45.3572 53.4301 45.9602 52.8271 46.6949 52.8271C47.4366 52.8269 48.0326 53.4299 48.0326 54.1647ZM14.6389 54.1655C14.6389 54.9071 14.0429 55.5033 13.3013 55.5033C12.5666 55.5033 11.9635 54.9073 11.9635 54.1657C11.9635 53.4309 12.5665 52.8279 13.3011 52.8279C14.0427 52.8278 14.6388 53.4308 14.6389 54.1655ZM51.9409 20.9579L47.8169 19.6204C47.3981 18.4514 47.1984 17.9543 46.6524 16.8272L48.6277 12.9596C48.7054 12.8054 48.7324 12.6306 48.705 12.4601C48.6776 12.2897 48.5972 12.1322 48.4752 12.01L43.353 6.88817C43.1035 6.63869 42.7153 6.57629 42.3965 6.73565L38.5359 8.70413C37.4435 8.19209 36.8978 7.94921 35.7427 7.54673L34.398 3.42281C34.2941 3.08321 33.9752 2.85449 33.6217 2.85449L26.3787 2.85461C26.2048 2.85399 26.0351 2.90872 25.8943 3.01089C25.7535 3.11305 25.6489 3.25736 25.5955 3.42293L24.258 7.54697C23.1278 7.93493 22.5375 8.19365 21.4649 8.70449L17.5973 6.73613C17.2784 6.57677 16.8972 6.63917 16.6407 6.88865L11.5257 12.011C11.4008 12.1313 11.3184 12.289 11.2909 12.4603C11.2634 12.6316 11.2923 12.8071 11.3733 12.9605L13.3418 16.828C12.8339 17.8769 12.5645 18.5141 12.1844 19.6213L8.06051 20.959C7.89546 21.0132 7.7517 21.1181 7.64968 21.2587C7.54765 21.3993 7.49254 21.5685 7.49219 21.7423L7.49231 28.9852C7.49268 29.1589 7.54779 29.3281 7.64982 29.4687C7.75184 29.6093 7.89559 29.7142 8.06063 29.7685L12.1847 31.1061C12.5648 32.2132 12.8341 32.8503 13.3422 33.8992L11.3739 37.7668C11.2076 38.0787 11.27 38.4669 11.5265 38.7164L16.6417 43.8383C16.8959 44.0927 17.2841 44.1538 17.5982 43.9909L19.9825 42.7779C20.2321 43.1121 20.5563 43.3833 20.9294 43.5698C21.3025 43.7563 21.714 43.853 22.1311 43.8521L29.18 43.852L29.1801 46.2502L14.6595 46.2506C13.4605 46.2506 12.4832 47.2279 12.4832 48.4339L12.4833 51.3033C11.2357 51.6634 10.3208 52.807 10.3208 54.1655C10.3208 55.8152 11.6586 57.1459 13.3013 57.1459C14.9439 57.1459 16.2816 55.8151 16.2816 54.1654C16.2816 52.8069 15.3735 51.6633 14.1259 51.3029L14.1258 48.4335C14.1258 48.1355 14.3684 47.8929 14.6594 47.8929L29.18 47.8925L29.1801 51.3026C27.9325 51.6631 27.0176 52.8067 27.0177 54.1652C27.0177 55.8148 28.3555 57.1455 29.9982 57.1455C31.6478 57.1455 32.9785 55.8147 32.9785 54.1651C32.9785 52.8065 32.0705 51.6629 30.8229 51.3026L30.8228 47.8925L45.3365 47.8922C45.4798 47.8923 45.6172 47.9493 45.7186 48.0507C45.8199 48.152 45.8769 48.2894 45.8771 48.4328L45.8772 51.3022C44.6297 51.6627 43.7148 52.8063 43.7148 54.1648C43.7148 55.8145 45.0525 57.1451 46.6952 57.1451C48.3379 57.1451 49.6755 55.8143 49.6755 54.1647C49.6755 52.8062 48.7675 51.6626 47.52 51.3022L47.5199 48.4328C47.5199 47.2268 46.5426 46.2495 45.3365 46.2495L30.8228 46.2499V43.8517L39.8955 43.8514C40.2491 43.8514 40.5679 43.6227 40.6788 43.2901L40.7273 43.1375L42.3977 43.99C42.7165 44.1494 43.1046 44.087 43.3542 43.8375L48.4761 38.7153C48.7256 38.4658 48.788 38.0776 48.6285 37.7657L46.6601 33.8983C47.0715 33.0203 47.3099 32.527 47.6511 31.5625L47.8175 31.105L51.9414 29.7673C52.1064 29.713 52.2502 29.6082 52.3522 29.4675C52.4542 29.3269 52.5094 29.1577 52.5097 28.984L52.5096 21.7411C52.5091 21.5673 52.4539 21.3982 52.3518 21.2576C52.2497 21.117 52.106 21.0122 51.9409 20.9579Z" fill="#008080"/>
</svg>
