<svg width="60" height="60" viewBox="0 0 60 60" fill="none" xmlns="http://www.w3.org/2000/svg">
<g clip-path="url(#clip0_1133_2163)">
<path d="M9.7494 47.9939C10.2678 47.9939 10.693 48.4059 10.693 48.9239C10.693 49.4419 10.2678 49.8675 9.7494 49.8675H2.74675C2.38558 49.8691 2.02776 49.7982 1.6945 49.659C1.36124 49.5197 1.05931 49.3151 0.80659 49.057C0.548518 48.8043 0.343804 48.5024 0.204586 48.1692C0.0653678 47.8359 -0.00552111 47.4781 -0.00387834 47.1169V2.75063C-0.00387834 1.99312 0.301747 1.31531 0.80659 0.810469C1.3119 0.305625 1.98972 0 2.74675 0H57.238C57.996 0 58.6864 0.305625 59.1917 0.810469C59.6835 1.31531 60.0022 1.99312 60.0022 2.75063V47.1169C60.0022 47.8744 59.6835 48.5653 59.1917 49.057C58.9356 49.3142 58.6311 49.5183 58.2958 49.6574C57.9605 49.7964 57.601 49.8679 57.238 49.8675H54.5282C54.0102 49.8675 53.5841 49.4423 53.5841 48.9239C53.5841 48.4055 54.0097 47.9939 54.5282 47.9939H57.238C57.4907 47.9939 57.703 47.8875 57.8633 47.7281C58.0227 47.5687 58.1286 47.3564 58.1286 47.1169V2.75063C58.1286 2.51156 58.0222 2.29875 57.8633 2.13937C57.782 2.05565 57.6849 1.989 57.5775 1.94336C57.4701 1.89772 57.3547 1.874 57.238 1.87359H2.74675C2.50768 1.87359 2.29487 1.98 2.1355 2.13937C1.97612 2.29875 1.86972 2.51156 1.86972 2.75063V47.1169C1.86972 47.3564 1.97612 47.5687 2.1355 47.7281C2.29487 47.888 2.50722 47.9939 2.74675 47.9939H9.7494Z" fill="#008080"/>
<path d="M0.941406 8.34424H59.0608V10.2178H0.941406V8.34424Z" fill="#008080"/>
<path fill-rule="evenodd" clip-rule="evenodd" d="M5.57563 4.19873C5.81516 4.1991 6.04477 4.29445 6.2141 4.46387C6.38343 4.63329 6.47866 4.86295 6.47891 5.10248C6.47891 5.60732 6.08047 6.01936 5.57563 6.01936C5.07078 6.01936 4.67188 5.60732 4.67188 5.10248C4.67212 4.86287 4.76742 4.63314 4.93685 4.46371C5.10628 4.29427 5.33601 4.19898 5.57563 4.19873ZM13.4952 4.19873C13.7347 4.1991 13.9643 4.29445 14.1336 4.46387C14.303 4.63329 14.3982 4.86295 14.3984 5.10248C14.3984 5.60732 14 6.01936 13.4952 6.01936C13.2521 6.01886 13.0192 5.9221 12.8474 5.75026C12.6755 5.57842 12.5788 5.3455 12.5783 5.10248C12.5783 4.61076 12.9898 4.19873 13.4952 4.19873ZM9.53562 4.19873C9.77516 4.1991 10.0048 4.29445 10.1741 4.46387C10.3434 4.63329 10.4387 4.86295 10.4389 5.10248C10.4389 5.60732 10.0405 6.01936 9.53562 6.01936C9.03078 6.01936 8.61875 5.60732 8.61875 5.10248C8.61875 4.61076 9.03078 4.19873 9.53562 4.19873Z" fill="#008080"/>
<path d="M53.2388 4.17188C53.7568 4.17188 54.1688 4.58391 54.1688 5.10188C54.1688 5.61984 53.7568 6.04547 53.2388 6.04547H21.3357C20.8177 6.04547 20.3921 5.62031 20.3921 5.10188C20.3921 4.58344 20.8177 4.17188 21.3357 4.17188H53.2388ZM30.1852 48.8573L31.7269 55.3148C31.7591 55.4582 31.7579 55.6071 31.7232 55.75C31.6886 55.8928 31.6215 56.0257 31.5272 56.1384L28.5507 59.6728C28.1522 60.1378 27.4214 60.098 27.076 59.6063L23.6879 54.9825C23.4221 54.6103 23.4488 54.1186 23.7408 53.8003L28.5643 48.3923C29.0822 47.7947 30.0657 48.0867 30.1852 48.8573ZM29.7999 55.2886L28.7635 50.97L25.6407 54.4777L27.8864 57.547L29.7999 55.2886ZM22.425 46.4259L18.0005 46.8248L16.4724 49.3627L20.0996 50.5055L22.425 46.4259ZM17.3625 45.0173L24.0061 44.4061C24.1922 44.3794 24.4046 44.4061 24.5907 44.5125C25.0294 44.7647 25.1888 45.3366 24.9361 45.7884L21.3882 52.0331C21.2883 52.2352 21.1201 52.3954 20.9134 52.4854C20.7068 52.5754 20.4749 52.5894 20.2589 52.5248L14.7713 50.7844C14.6363 50.7429 14.5126 50.6711 14.4096 50.5744C14.3066 50.4778 14.2271 50.3589 14.1771 50.2268C14.1272 50.0948 14.108 49.953 14.1212 49.8124C14.1344 49.6718 14.1796 49.5361 14.2533 49.4156L16.6449 45.4561C16.721 45.3311 16.8258 45.2261 16.9506 45.1498C17.0754 45.0735 17.2166 45.0281 17.3625 45.0173Z" fill="#008080"/>
<path d="M36.1107 22.4027C37.44 20.5558 40.2563 17.9383 43.0074 16.4763C45.2396 15.2805 47.4713 14.8286 49.0791 15.9714C50.6335 17.0875 50.9002 19.3731 50.4882 21.8978C49.9828 24.9672 48.4547 28.4749 47.1389 30.3081C47.1121 30.3468 47.0811 30.3825 47.0466 30.4145L24.7102 55.5414L24.6305 55.6211C24.0858 56.1527 23.408 56.3922 22.7171 56.3922C21.9596 56.4053 21.1753 56.1264 20.5777 55.6877V55.7008C19.98 55.2625 19.4616 54.6114 19.2225 53.8942C18.9966 53.2028 19.0097 52.4589 19.395 51.7417L19.4349 51.7014L36.0572 22.4828C36.0713 22.4556 36.098 22.4294 36.1107 22.4027ZM43.8835 18.1244C41.3986 19.4397 38.8608 21.7914 37.6524 23.4658L21.0563 52.6178L21.0432 52.6445C20.9236 52.8442 20.9368 53.0833 21.0033 53.3092C21.1228 53.6411 21.375 53.9603 21.6675 54.1727C21.9732 54.3855 22.3453 54.5317 22.7039 54.5317C22.9299 54.5186 23.1291 54.4652 23.2753 54.3194L23.3021 54.2927L45.638 29.1794C46.8207 27.5186 48.1758 24.3695 48.6408 21.6058C48.9464 19.7322 48.8541 18.1113 47.9771 17.5C47.0733 16.8353 45.5185 17.2469 43.8835 18.1244Z" fill="#008080"/>
<path d="M13.1254 25.4321L33.4017 28.2357C34.0663 28.329 34.4114 29.086 34.0664 29.6443L29.2429 37.9622C29.0038 38.3743 28.499 38.5468 28.0734 38.3612L8.83354 30.0563C8.35494 29.8571 8.12948 29.2988 8.34182 28.8338C8.42151 28.6477 8.54104 28.5015 8.70041 28.4087L12.434 25.6182C12.6335 25.4727 12.8799 25.4064 13.1254 25.4321ZM31.7676 29.8965L13.2454 27.3455L11.0531 28.9796L28.0476 36.3005L31.7676 29.8965ZM49.7849 53.5477L41.4281 36.8321L36.5512 42.413L48.9356 56.1521L49.7849 53.5477ZM42.4771 34.7462L51.606 53.003C51.7387 53.229 51.7781 53.5079 51.6857 53.7741L50.2237 58.2385C50.0249 58.9426 49.1212 59.1549 48.6299 58.6102L34.611 43.0374C34.4552 42.87 34.3676 42.6505 34.3652 42.4218C34.3629 42.1931 34.446 41.9719 34.5984 41.8013L40.9495 34.5601C41.0239 34.4642 41.1196 34.3869 41.2289 34.3341C41.6934 34.1087 42.2512 34.2943 42.4771 34.7462ZM42.9028 23.4788C42.6565 23.4461 42.4332 23.3175 42.2813 23.1209C42.1295 22.9244 42.0614 22.6758 42.0918 22.4293C42.1588 21.9244 42.6239 21.5654 43.1418 21.6188C43.5932 21.6854 44.0456 21.8312 44.4435 22.0571C44.8415 22.283 45.2006 22.6022 45.4799 22.974C45.7987 23.3729 45.719 23.9574 45.3206 24.2762C45.1242 24.4275 44.8762 24.4956 44.6301 24.4658C44.3839 24.436 44.1594 24.3106 44.0048 24.1168C43.8774 23.9376 43.7088 23.7918 43.5131 23.6916C43.329 23.574 43.12 23.5011 42.9028 23.4788ZM10.5876 15.1876C10.0696 15.1876 9.6576 14.7624 9.6576 14.244C9.6576 13.7255 10.0696 13.314 10.5876 13.314H25.2703C25.7882 13.314 26.2003 13.726 26.2003 14.244C26.2003 14.7619 25.7882 15.1876 25.2703 15.1876H10.5876ZM10.5876 20.1966C10.0696 20.1966 9.6576 19.7715 9.6576 19.253C9.6576 18.7346 10.0696 18.323 10.5876 18.323H30.3731C30.8906 18.323 31.3021 18.7351 31.3021 19.253C31.3021 19.771 30.8901 20.1966 30.3731 20.1966H10.5876Z" fill="#008080"/>
</g>
<defs>
<clipPath id="clip0_1133_2163">
<rect width="60" height="60" fill="white"/>
</clipPath>
</defs>
</svg>
