<svg width="60" height="60" viewBox="0 0 60 60" fill="none" xmlns="http://www.w3.org/2000/svg">
<path d="M12.5544 37.8732C12.3754 37.8728 12.2002 37.8212 12.0495 37.7246C11.8988 37.6279 11.7788 37.4902 11.7037 37.3277C11.6287 37.1651 11.6016 36.9845 11.6258 36.8071C11.6499 36.6297 11.7243 36.4629 11.8401 36.3263L12.3051 35.7807C16.1788 31.9032 21.9426 31.0501 26.6976 33.5982C26.9169 33.7158 27.0805 33.9157 27.1524 34.1539C27.2243 34.3922 27.1986 34.6492 27.081 34.8685C27.0228 34.9771 26.9437 35.0731 26.8484 35.1512C26.753 35.2292 26.6432 35.2877 26.5253 35.3233C26.287 35.3952 26.03 35.3695 25.8107 35.2519C23.8662 34.2004 21.6333 33.8072 19.4466 34.1314C17.2599 34.4556 15.2371 35.4796 13.6813 37.0501L13.2669 37.5413C13.1801 37.6459 13.0712 37.7299 12.948 37.7873C12.8248 37.8447 12.6904 37.874 12.5544 37.8732ZM18.8338 50.1469C18.6203 50.1475 18.4129 50.0752 18.2461 49.9419C18.0792 49.8086 17.9629 49.6223 17.9163 49.4139C17.8698 49.2055 17.8957 48.9875 17.9899 48.7958C18.0841 48.6042 18.241 48.4504 18.4344 48.3601L18.7607 48.2063C19.7188 47.4301 21.2676 46.8751 22.5069 46.8751H31.7844C32.9732 46.8751 34.1526 46.7119 35.2907 46.3913L45.3088 43.5713L55.0326 37.8432C54.8001 36.9057 54.3351 36.2401 53.6413 35.8594C52.3738 35.1638 50.3001 35.4038 47.9451 36.5082L42.6426 39.2626C42.5588 39.3056 42.469 39.3359 42.3763 39.3526L40.2219 39.7426C39.9782 39.7847 39.7276 39.7288 39.5249 39.587C39.3222 39.4452 39.1837 39.2291 39.1397 38.9856C39.0957 38.7422 39.1496 38.4912 39.2898 38.2874C39.43 38.0836 39.6451 37.9435 39.8882 37.8976L41.9038 37.5338L47.1144 34.8282C50.0957 33.4294 52.7207 33.2176 54.5413 34.2169C55.4938 34.7382 56.6938 35.8538 57.0032 38.1976C57.0267 38.38 56.9962 38.5652 56.9156 38.7305C56.8349 38.8958 56.7077 39.0338 56.5494 39.1276L46.1582 45.2513C46.0887 45.2923 46.0144 45.3244 45.9369 45.3469L35.8026 48.1988C34.4945 48.5647 33.1427 48.7501 31.7844 48.7501H22.5069C21.6857 48.7501 20.4838 49.1907 19.8857 49.7119C19.8208 49.7692 19.7482 49.8171 19.6701 49.8544L19.2351 50.0588C19.1092 50.1167 18.9723 50.1467 18.8338 50.1469Z" fill="#008080"/>
<path d="M40.1693 41.25H26.5755C26.3269 41.25 26.0884 41.1512 25.9126 40.9754C25.7368 40.7996 25.638 40.5611 25.638 40.3125C25.638 40.0639 25.7368 39.8254 25.9126 39.6496C26.0884 39.4738 26.3269 39.375 26.5755 39.375H39.168C38.8061 36.885 36.9218 35.625 33.5505 35.625H26.5586C26.31 35.625 26.0715 35.5262 25.8957 35.3504C25.7199 35.1746 25.6211 34.9361 25.6211 34.6875C25.6211 34.4389 25.7199 34.2004 25.8957 34.0246C26.0715 33.8488 26.31 33.75 26.5586 33.75H33.5505C38.3543 33.75 41.1068 36.1425 41.1068 40.3125C41.1068 40.5611 41.008 40.7996 40.8322 40.9754C40.6564 41.1512 40.4179 41.25 40.1693 41.25ZM14.6486 58.2675C14.4634 58.2675 14.2822 58.2125 14.1282 58.1096C13.9741 58.0067 13.854 57.8605 13.7829 57.6894C13.7119 57.5182 13.6932 57.3299 13.7291 57.1481C13.7651 56.9664 13.8541 56.7994 13.9849 56.6681L19.4336 51.2194L8.82864 40.6125L3.47551 45.9656C3.2987 46.1364 3.06188 46.2309 2.81607 46.2288C2.57026 46.2266 2.33513 46.128 2.16131 45.9542C1.98749 45.7804 1.88889 45.5453 1.88675 45.2994C1.88462 45.0536 1.97911 44.8168 2.14989 44.64L8.16676 38.6231C8.34257 38.4474 8.58098 38.3486 8.82957 38.3486C9.07817 38.3486 9.31658 38.4474 9.49239 38.6231L21.4249 50.5556C21.5122 50.6427 21.5815 50.7462 21.6287 50.8601C21.676 50.974 21.7003 51.0961 21.7003 51.2194C21.7003 51.3427 21.676 51.4648 21.6287 51.5787C21.5815 51.6926 21.5122 51.796 21.4249 51.8831L15.3124 57.9938C15.136 58.1691 14.8974 58.2675 14.6486 58.2675ZM39.6311 8.96063C39.5224 8.9613 39.4144 8.94224 39.3124 8.90438L25.0268 3.73876L23.358 4.27688L26.7086 7.02188C26.9011 7.17977 27.0229 7.40764 27.0474 7.65536C27.0718 7.90309 26.9968 8.15037 26.8389 8.34282C26.6811 8.53527 26.4532 8.65711 26.2055 8.68155C25.9577 8.70599 25.7105 8.63102 25.518 8.47313L21.9386 5.54063C21.6984 5.3431 21.5163 5.0841 21.4116 4.79122C21.3069 4.49835 21.2836 4.18256 21.3443 3.87751C21.4029 3.57561 21.5426 3.29536 21.7484 3.0668C21.9542 2.83823 22.2183 2.66996 22.5124 2.58001L24.5824 1.94813C24.9352 1.84037 25.3134 1.84957 25.6605 1.97438L39.9499 7.14188C40.1617 7.21295 40.341 7.35763 40.4553 7.54963C40.5696 7.74164 40.6112 7.96825 40.5726 8.18833C40.534 8.40841 40.4178 8.60736 40.2451 8.74906C40.0723 8.89077 39.8545 8.96584 39.6311 8.96063Z" fill="#008080"/>
<path d="M21.507 20.6061C20.1536 20.6048 18.8191 20.2891 17.6087 19.6839C16.3983 19.0786 15.345 18.2005 14.532 17.1186L11.592 13.1511C11.4269 12.9315 11.3174 12.6753 11.2727 12.4043C11.228 12.1333 11.2495 11.8555 11.3353 11.5946C11.4211 11.3337 11.5687 11.0973 11.7655 10.9058C11.9624 10.7142 12.2026 10.573 12.4657 10.4942L13.9676 10.0349C14.5301 9.86423 15.1282 9.9786 15.5688 10.3499L18.2707 12.5642C18.8257 13.0217 19.5626 13.168 20.2582 12.958L49.3863 4.06298C50.7298 3.65084 52.1653 3.64628 53.5113 4.04985L56.0182 4.80173C56.9782 5.10923 57.7094 5.84423 57.9945 6.77235C58.222 7.51952 58.1439 8.32644 57.7773 9.01609C57.4107 9.70575 56.7855 10.2218 56.0388 10.4511L40.6038 15.1667C40.3673 15.2354 40.1133 15.2083 39.8967 15.0913C39.68 14.9742 39.5181 14.7766 39.4459 14.5412C39.3738 14.3057 39.3972 14.0513 39.511 13.833C39.6249 13.6146 39.8201 13.4498 40.0545 13.3742L55.4895 8.6586C55.6241 8.61767 55.7493 8.55061 55.8579 8.46125C55.9666 8.3719 56.0566 8.262 56.1228 8.13784C56.189 8.01368 56.23 7.8777 56.2436 7.73766C56.2572 7.59763 56.243 7.45629 56.202 7.32173C56.1479 7.149 56.0522 6.99217 55.9234 6.865C55.7946 6.73784 55.6366 6.64422 55.4632 6.59235L52.9732 5.8461C51.9821 5.54817 50.9249 5.55144 49.9357 5.85548L20.8057 14.7524C20.1718 14.9475 19.4994 14.9822 18.8488 14.8532C18.1982 14.7243 17.5898 14.4358 17.0782 14.0136L14.367 11.7917L13.227 12.208L16.0357 15.9974C16.8753 17.1156 18.0379 17.9492 19.3663 18.3858C20.6948 18.8223 22.1252 18.8408 23.4645 18.4386L26.6857 17.4542C26.9222 17.3855 27.1762 17.4126 27.3929 17.5297C27.6095 17.6467 27.7714 17.8443 27.8436 18.0798C27.9158 18.3152 27.8924 18.5696 27.7785 18.788C27.6646 19.0063 27.4694 19.1711 27.2351 19.2467L24.0138 20.2311C23.187 20.4842 22.3432 20.6061 21.507 20.6061Z" fill="#008080"/>
<path d="M28.0421 30.2287C27.7735 30.229 27.5087 30.1657 27.2693 30.0441C27.0299 29.9225 26.8226 29.7459 26.6644 29.5289C26.5063 29.3118 26.4017 29.0605 26.3592 28.7953C26.3168 28.5301 26.3377 28.2587 26.4202 28.0031L30.489 15.105C30.5218 14.9828 30.579 14.8686 30.6571 14.7692C30.7352 14.6698 30.8327 14.5872 30.9435 14.5264C31.0544 14.4655 31.1765 14.4278 31.3023 14.4154C31.4281 14.403 31.5552 14.4162 31.6758 14.4541C31.7964 14.4921 31.9081 14.5541 32.0042 14.6363C32.1002 14.7186 32.1786 14.8194 32.2347 14.9328C32.2907 15.0461 32.3233 15.1697 32.3303 15.2959C32.3374 15.4222 32.3189 15.5486 32.2758 15.6675L28.3027 28.2656L30.0183 27.7425L39.5527 13.7418C39.6985 13.5499 39.9126 13.4215 40.1505 13.3829C40.3884 13.3444 40.632 13.3988 40.8309 13.5349C41.0299 13.671 41.1689 13.8783 41.2192 14.114C41.2696 14.3497 41.2274 14.5957 41.1015 14.8012L31.4902 28.8637C31.267 29.1865 30.9413 29.4244 30.5658 29.5387L28.5446 30.1556C28.3812 30.2028 28.2121 30.2274 28.0421 30.2287ZM51.5602 7.49996C51.3395 7.49917 51.1262 7.42056 50.9578 7.27798C50.7894 7.13539 50.6767 6.93796 50.6395 6.72045C50.6023 6.50294 50.643 6.27928 50.7545 6.08884C50.866 5.8984 51.0411 5.75339 51.249 5.67934L54.4946 4.53371C54.6114 4.48953 54.7359 4.46915 54.8608 4.47377C54.9856 4.47839 55.1083 4.50791 55.2215 4.5606C55.3348 4.61329 55.4364 4.68809 55.5204 4.78059C55.6043 4.8731 55.6689 4.98146 55.7104 5.0993C55.7519 5.21713 55.7694 5.34207 55.762 5.46677C55.7545 5.59147 55.7221 5.71342 55.6669 5.82545C55.6116 5.93748 55.5345 6.03734 55.4401 6.11915C55.3456 6.20095 55.2358 6.26307 55.1171 6.30184L51.8715 7.44746C51.7714 7.48232 51.6662 7.50007 51.5602 7.49996ZM6.87333 30.2287C6.65627 30.228 6.4462 30.1519 6.27896 30.0135C6.11173 29.8751 5.99769 29.683 5.95631 29.4699C5.91493 29.2568 5.94878 29.036 6.05207 28.8451C6.15537 28.6542 6.32171 28.505 6.52271 28.4231L19.3346 23.2725C19.4497 23.2208 19.5741 23.1929 19.7003 23.1905C19.8265 23.188 19.9519 23.2111 20.069 23.2583C20.186 23.3055 20.2923 23.3758 20.3816 23.4651C20.4708 23.5544 20.541 23.6607 20.5882 23.7778C20.6353 23.8949 20.6583 24.0203 20.6557 24.1465C20.6532 24.2727 20.6252 24.3971 20.5735 24.5122C20.5217 24.6273 20.4473 24.7308 20.3546 24.8164C20.2619 24.9021 20.1528 24.9681 20.034 25.0106L7.22208 30.1612C7.11109 30.2054 6.99279 30.2283 6.87333 30.2287ZM5.30958 8.43746C5.08139 8.4377 4.86095 8.35471 4.68958 8.20404C4.51821 8.05338 4.40767 7.84538 4.37869 7.61904C4.34971 7.3927 4.40427 7.16356 4.53215 6.97457C4.66003 6.78558 4.85245 6.64973 5.07333 6.59246L17.6227 3.31309C17.8595 3.26077 18.1075 3.30228 18.3143 3.4289C18.5212 3.55552 18.671 3.75739 18.7321 3.9921C18.7933 4.22682 18.7611 4.4761 18.6423 4.68758C18.5236 4.89907 18.3275 5.05629 18.0952 5.12621L5.54583 8.40746C5.46868 8.42747 5.38929 8.43755 5.30958 8.43746Z" fill="#008080"/>
</svg>
