<svg width="60" height="60" viewBox="0 0 60 60" fill="none" xmlns="http://www.w3.org/2000/svg">
<g clip-path="url(#clip0_1133_2178)">
<path d="M11.4433 51.1388C11.4242 51.1217 11.4044 51.1053 11.384 51.0897C10.7723 50.582 10.1606 50.0376 9.59788 49.4749C9.4261 49.3049 9.1942 49.2096 8.95255 49.2096C8.7109 49.2096 8.47901 49.3049 8.30723 49.4749C8.13541 49.6469 8.0389 49.8801 8.0389 50.1233C8.0389 50.3664 8.13541 50.5996 8.30723 50.7717C8.91891 51.3833 9.53059 51.9522 10.2157 52.5027C10.3967 52.6643 10.6344 52.7475 10.8767 52.7343C11.119 52.721 11.3462 52.6123 11.5085 52.432C11.6709 52.2516 11.7551 52.0143 11.7429 51.7719C11.7307 51.5296 11.623 51.3019 11.4433 51.1388ZM1.84086 23.937C1.70918 23.891 1.56875 23.8756 1.43025 23.892C1.29174 23.9084 1.15881 23.9562 1.04154 24.0317C0.924274 24.1072 0.825768 24.2085 0.753508 24.3278C0.681249 24.4471 0.637139 24.5813 0.62453 24.7202C0.441026 25.5582 0.30034 26.4084 0.196354 27.2587C0.164888 27.4977 0.228739 27.7395 0.374104 27.9317C0.519469 28.124 0.734671 28.2514 0.973188 28.2863H1.08941C1.31378 28.2865 1.53043 28.2044 1.69838 28.0556C1.86632 27.9068 1.97392 27.7016 2.00081 27.4789C2.09868 26.6837 2.23325 25.8824 2.40452 25.1056C2.44425 24.9918 2.46119 24.8714 2.45436 24.7511C2.44754 24.6308 2.41708 24.513 2.36474 24.4045C2.3124 24.296 2.23919 24.1988 2.1493 24.1186C2.05942 24.0384 1.9546 23.9767 1.84086 23.937ZM6.88202 46.2758C6.41102 45.6274 5.9645 44.9546 5.55467 44.2695C5.49308 44.1659 5.4117 44.0755 5.31516 44.0034C5.21863 43.9313 5.10884 43.8789 4.99206 43.8492C4.87528 43.8196 4.75379 43.8132 4.63455 43.8304C4.5153 43.8477 4.40062 43.8883 4.29706 43.9499L4.29461 43.9514C4.19105 44.013 4.10063 44.0944 4.02852 44.1909C3.95641 44.2875 3.90402 44.3973 3.87434 44.514C3.84467 44.6308 3.83828 44.7523 3.85555 44.8716C3.87282 44.9908 3.91342 45.1055 3.97501 45.209L3.97654 45.2115C4.41695 45.9455 4.89406 46.6673 5.40175 47.3585C5.54871 47.5455 5.76256 47.6682 5.99821 47.7006C6.23385 47.733 6.47288 47.6726 6.66487 47.5322C6.85686 47.3918 6.98681 47.1823 7.02732 46.9479C7.06783 46.7135 7.01574 46.4725 6.88202 46.2758ZM3.68293 40.4893C3.38932 39.7492 3.12019 38.9846 2.89386 38.2139C2.85967 38.096 2.80218 37.9862 2.7248 37.8909C2.64741 37.7957 2.55171 37.7169 2.44334 37.6593C2.33498 37.6017 2.21616 37.5665 2.09392 37.5556C1.97168 37.5447 1.8485 37.5585 1.73167 37.5961C1.50032 37.6668 1.30625 37.826 1.1917 38.0391C1.07714 38.2521 1.05137 38.5018 1.11999 38.7338C1.36466 39.5535 1.64604 40.3731 1.96411 41.1805C2.05577 41.4084 2.23422 41.5906 2.4602 41.687C2.68618 41.7833 2.94119 41.786 3.16912 41.6943C3.39705 41.6027 3.57923 41.4242 3.67559 41.1982C3.77195 40.9723 3.77459 40.7173 3.68293 40.4893ZM4.23038 17.6461C4.013 17.5366 3.76102 17.518 3.52988 17.5943C3.29874 17.6705 3.10736 17.8355 2.99785 18.0529C2.61249 18.8175 2.25772 19.6066 1.94576 20.4079C1.8574 20.6334 1.86183 20.8848 1.95809 21.1071C2.05435 21.3294 2.23462 21.5046 2.45957 21.5945C2.5716 21.6389 2.69127 21.6608 2.81174 21.6589C2.93222 21.657 3.05115 21.6314 3.16174 21.5836C3.27233 21.5357 3.37242 21.4666 3.45628 21.3801C3.54014 21.2936 3.60614 21.1914 3.65051 21.0793L3.65235 21.0746C3.94595 20.3283 4.26403 19.5882 4.63715 18.8787C4.74664 18.6613 4.76529 18.4093 4.68901 18.1782C4.61273 17.947 4.44776 17.7556 4.23038 17.6461ZM2.0317 34.106L2.03139 34.1035C1.93353 33.3083 1.86624 32.5009 1.83566 31.7057C1.83124 31.5853 1.80313 31.4668 1.75294 31.3572C1.70275 31.2476 1.63146 31.1489 1.54313 31.0668C1.45481 30.9847 1.35118 30.9209 1.23818 30.8788C1.12517 30.8368 1.00498 30.8175 0.884494 30.8219C0.764004 30.8263 0.645563 30.8544 0.535935 30.9046C0.426307 30.9548 0.327639 31.0261 0.245563 31.1144C0.163488 31.2027 0.0996123 31.3063 0.0575843 31.4194C0.0155563 31.5324 -0.00380138 31.6525 0.000616602 31.773C0.000616602 32.6294 0.0984854 33.4919 0.208588 34.3421C0.238966 34.5574 0.344808 34.7549 0.507247 34.8994C0.669686 35.0439 0.878165 35.126 1.09552 35.1312H1.23621C1.35576 35.1161 1.47117 35.0776 1.57584 35.0179C1.68052 34.9582 1.77242 34.8785 1.84629 34.7833C1.92015 34.6881 1.97455 34.5793 2.00636 34.4631C2.03818 34.3469 2.04679 34.2255 2.0317 34.106ZM26.3732 3.49797C26.3497 3.25463 26.2305 3.0306 26.0417 2.87516C25.853 2.71973 25.6103 2.64562 25.367 2.66914C24.5168 2.75478 23.6604 2.87711 22.8163 3.04227C22.5729 3.06498 22.3486 3.18343 22.1926 3.37155C22.0366 3.55968 21.9617 3.80208 21.9844 4.04542C22.0071 4.28876 22.1256 4.51311 22.3137 4.66912C22.5018 4.82513 22.7442 4.90002 22.9876 4.87731L22.9814 4.85284H23.1588C23.9479 4.69992 24.7492 4.5837 25.5444 4.50418C25.7877 4.48066 26.0117 4.36143 26.1672 4.17273C26.3226 3.98403 26.3967 3.74131 26.3732 3.49797ZM8.21548 12.0951C8.03216 11.9329 7.79191 11.8502 7.54757 11.8651C7.30324 11.88 7.07483 11.9913 6.9126 12.1746C6.34986 12.8169 5.81158 13.4959 5.31 14.1932C5.21094 14.3299 5.15153 14.4914 5.13832 14.6597C5.12511 14.8281 5.15862 14.9968 5.23514 15.1473C5.31167 15.2978 5.42825 15.4243 5.57204 15.5128C5.71584 15.6013 5.88128 15.6485 6.05013 15.649V15.6612C6.19569 15.6617 6.33927 15.6276 6.46903 15.5617C6.59879 15.4957 6.711 15.3999 6.79638 15.282C7.26738 14.6336 7.76895 13.9975 8.295 13.398C8.45722 13.2147 8.53997 12.9744 8.52506 12.7301C8.51015 12.4858 8.39879 12.2574 8.21548 12.0951ZM32.4197 2.82206C31.5755 2.69361 30.7131 2.60186 29.8567 2.55292C29.6134 2.53832 29.3742 2.62099 29.1918 2.78273C29.0094 2.94447 28.8988 3.17205 28.8842 3.41539C28.8696 3.65873 28.9522 3.89791 29.114 4.0803C29.2757 4.26269 29.5033 4.37336 29.7466 4.38796C30.554 4.44913 31.3553 4.53476 32.1444 4.6571H32.2851C32.5284 4.67495 32.7689 4.59539 32.9536 4.43594C33.1383 4.27649 33.2521 4.05021 33.2699 3.80687C33.2877 3.56352 33.2082 3.32306 33.0487 3.13837C32.8893 2.95369 32.663 2.83991 32.4197 2.82206ZM13.4262 7.7233C13.2879 7.53545 13.0833 7.40732 12.8539 7.36497C12.6245 7.32262 12.3876 7.36922 12.1914 7.4953C11.488 7.97852 10.7968 8.50457 10.1362 9.04896C10.0434 9.12607 9.96668 9.2207 9.91047 9.32745C9.85426 9.4342 9.81963 9.55097 9.80855 9.67111C9.79747 9.79124 9.81017 9.91238 9.84592 10.0276C9.88166 10.1428 9.93975 10.2499 10.0169 10.3427C10.094 10.4355 10.1886 10.5121 10.2954 10.5684C10.4021 10.6246 10.5189 10.6592 10.639 10.6703C10.7592 10.6813 10.8803 10.6687 10.9955 10.6329C11.1108 10.5972 11.2178 10.5391 11.3106 10.4619C11.9223 9.94813 12.5706 9.45879 13.2313 9.00615C13.3283 8.93472 13.4103 8.84487 13.4726 8.74174C13.5349 8.63862 13.5763 8.52423 13.5944 8.4051C13.6125 8.28598 13.607 8.16446 13.5781 8.04747C13.5493 7.93049 13.4977 7.82033 13.4262 7.7233ZM16.5037 6.98148C16.5007 6.98148 16.4978 6.98087 16.4947 6.98087C16.4915 6.98087 16.4885 6.98148 16.4854 6.98148H16.5037Z" fill="#008080"/>
<path d="M19.7387 4.83228C19.7038 4.70523 19.642 4.58719 19.5574 4.48617C19.4728 4.38516 19.3675 4.30355 19.2485 4.24689C19.1296 4.19023 18.9998 4.15985 18.8681 4.15782C18.7363 4.15579 18.6057 4.18216 18.4851 4.23513C17.6838 4.52874 16.8825 4.84681 16.1118 5.23217C15.9229 5.32021 15.7697 5.46992 15.6772 5.65666C15.5848 5.84341 15.5587 6.05605 15.6032 6.2596C15.6477 6.46315 15.7602 6.64549 15.9222 6.7766C16.0841 6.90771 16.2858 6.97978 16.4942 6.98096C16.6267 6.97854 16.7571 6.94744 16.8764 6.88982C17.5981 6.54728 18.3444 6.23532 19.0968 5.96007C19.213 5.92818 19.3218 5.87371 19.4169 5.79977C19.5121 5.72583 19.5917 5.63387 19.6513 5.52915C19.7109 5.42442 19.7493 5.30897 19.7643 5.1894C19.7793 5.06984 19.7706 4.94848 19.7387 4.83228ZM30.832 57.9068C30.8244 57.7864 30.7931 57.6685 30.7399 57.5601C30.6867 57.4517 30.6128 57.3549 30.5222 57.2751C30.4316 57.1953 30.3261 57.1341 30.2119 57.095C30.0977 57.056 29.9768 57.0398 29.8564 57.0474C29.0551 57.1086 28.2476 57.1269 27.4463 57.1025C27.3258 57.0993 27.2059 57.1198 27.0934 57.163C26.9808 57.2061 26.8779 57.271 26.7904 57.3539C26.7029 57.4368 26.6326 57.5362 26.5836 57.6463C26.5345 57.7564 26.5076 57.875 26.5044 57.9955C26.5011 58.116 26.5217 58.236 26.5648 58.3485C26.608 58.4611 26.6729 58.564 26.7558 58.6515C26.8387 58.739 26.9381 58.8092 27.0481 58.8583C27.1582 58.9074 27.2769 58.9343 27.3974 58.9375H28.1742C28.7859 58.9375 29.3976 58.9375 29.9726 58.8825C30.0931 58.8749 30.2109 58.8436 30.3193 58.7904C30.4277 58.7373 30.5246 58.6633 30.6044 58.5727C30.6842 58.4821 30.7454 58.3767 30.7844 58.2624C30.8235 58.1482 30.8396 58.0273 30.832 57.9068ZM54.8465 36.651C54.6105 36.591 54.3603 36.6272 54.151 36.7516C53.9416 36.8761 53.7903 37.0786 53.7302 37.3146C53.5329 38.0921 53.2981 38.8597 53.0268 39.6146C52.9501 39.8418 52.9654 40.09 53.0694 40.3061C53.1735 40.5221 53.358 40.6889 53.5834 40.7706C53.6968 40.8113 53.8172 40.8293 53.9375 40.8235C54.0579 40.8176 54.1759 40.7882 54.2849 40.7368C54.3939 40.6853 54.4916 40.6129 54.5726 40.5237C54.6536 40.4345 54.7163 40.3302 54.7569 40.2167L54.7579 40.214C55.0453 39.4066 55.2961 38.5808 55.5102 37.7673C55.5399 37.6504 55.5464 37.5288 55.5291 37.4095C55.5118 37.2901 55.4712 37.1753 55.4096 37.0717C55.348 36.968 55.2665 36.8775 55.1699 36.8053C55.0733 36.7331 54.9634 36.6807 54.8465 36.651ZM56.0179 26.1454C55.8772 25.3012 55.6998 24.451 55.4857 23.6252C55.4171 23.3979 55.263 23.2061 55.0558 23.0901C54.8486 22.9741 54.6045 22.9429 54.3749 23.0031C54.1452 23.0633 53.9478 23.2102 53.8241 23.4129C53.7005 23.6156 53.6603 23.8583 53.7119 24.0901C53.9137 24.8608 54.0789 25.656 54.2135 26.4451C54.2518 26.6547 54.3619 26.8444 54.5248 26.9817C54.6878 27.119 54.8934 27.1952 55.1065 27.1974H55.2594C55.4995 27.1584 55.7142 27.0257 55.8565 26.8284C55.9987 26.6311 56.0568 26.3854 56.0179 26.1454Z" fill="#008080"/>
<path d="M59.9197 15.6144C59.8766 15.5208 59.8176 15.4353 59.7452 15.3618L58.1243 13.6736C58.0103 13.5598 57.8676 13.4792 57.7113 13.4404C57.5551 13.4016 57.3912 13.4061 57.2373 13.4534L54.3135 14.3403L50.8881 10.7069L58.5769 6.42517C58.7071 6.36527 58.8209 6.2749 58.9088 6.16171C58.9967 6.04852 59.0561 5.91584 59.0819 5.77487C59.1077 5.6339 59.0992 5.4888 59.057 5.35182C59.0149 5.21484 58.9405 5.09001 58.8399 4.98788L56.6807 2.82865C56.5651 2.71758 56.4218 2.63966 56.2657 2.60307C56.1097 2.56647 55.9466 2.57256 55.7938 2.62068L46.0497 5.56898L42.7711 2.08852C42.3636 1.61741 41.8183 1.28649 41.2122 1.14267C40.6062 0.99885 39.9703 1.04942 39.3946 1.28721H39.3396C38.8988 1.46863 38.4984 1.73555 38.1614 2.07256C37.8244 2.40956 37.5575 2.80999 37.3761 3.25071C37.2837 3.48312 37.2181 3.72527 37.1803 3.97249L36.8072 3.84404C36.576 3.77238 36.3259 3.79481 36.1112 3.90646C35.8965 4.01811 35.7345 4.20996 35.6604 4.44034C35.5863 4.67073 35.606 4.92105 35.7154 5.13695C35.8248 5.35285 36.0149 5.51689 36.2445 5.59344C36.7154 5.74636 37.1864 5.91763 37.6574 6.09502C37.7992 6.31679 37.9654 6.52196 38.1529 6.7067L41.6089 9.98531L40.618 13.2578C30.9262 6.34443 17.4651 8.59679 10.5517 18.2886C3.63839 27.9803 5.89075 41.4413 15.5825 48.3546C25.2743 55.268 38.7354 53.0156 45.6487 43.3239C51.1618 35.5951 50.9694 25.1695 45.175 17.6495L46.7409 14.8235L50.3743 18.249L49.4996 21.1422C49.4479 21.2981 49.4406 21.4653 49.4784 21.6252C49.5162 21.785 49.5976 21.9312 49.7137 22.0475C49.7137 22.0475 51.5059 23.8214 51.5487 23.8825C51.6511 23.9419 51.7644 23.9801 51.8819 23.995C51.9993 24.0099 52.1186 24.0011 52.2326 23.9692C52.3466 23.9373 52.4531 23.8829 52.5457 23.8091C52.6384 23.7354 52.7153 23.6439 52.7721 23.54L55.1637 19.1542L59.4822 16.7993C59.5887 16.7502 59.6845 16.6806 59.7642 16.5945C59.8438 16.5084 59.9057 16.4075 59.9463 16.2975C59.987 16.1874 60.0055 16.0705 60.0009 15.9533C59.9964 15.8361 59.9688 15.721 59.9197 15.6144ZM14.2484 16.8236C16.0743 14.9985 18.2421 13.5513 20.6278 12.5647C23.0135 11.5781 25.5703 11.0714 28.1519 11.0738C28.5598 11.0738 28.9674 11.086 29.3753 11.1105C32.8435 14.3096 31.822 17.2273 29.4976 19.8575C28.1259 21.3123 26.6543 22.6694 25.0935 23.9191C22.8364 25.8397 20.7322 27.632 19.9371 29.4242C18.9951 31.5528 19.6863 33.4796 23.4909 35.1618C25.3932 36.0059 26.427 36.6604 26.8307 37.1558C26.8367 37.163 26.8425 37.1681 26.8484 37.1725C26.8343 37.1768 26.8202 37.1815 26.8062 37.1864C25.8851 37.5372 24.9045 37.7055 23.9191 37.6819C19.307 37.8776 16.0223 34.9293 13.4716 32.6477C11.6366 31.0146 10.1135 29.6566 8.52923 29.6444C8.79112 24.8122 10.8277 20.2467 14.2484 16.8236ZM47.8847 30.7577H47.8908C47.8881 39.2829 42.4076 46.8412 34.3054 49.4934C34.0779 48.0598 34.3431 46.5913 35.0578 45.3279C36.027 43.7714 37.2705 42.4035 38.7279 41.2908C44.3737 36.5808 44.6918 33.9506 44.9364 31.926C45.0893 30.6476 45.2056 29.6933 47.7318 28.3048C47.8332 29.1185 47.8843 29.9377 47.8847 30.7577ZM46.747 24.1393C47.0204 24.9094 47.2451 25.6959 47.4199 26.4942C43.5724 28.4516 43.4011 29.8463 43.1687 31.7486C42.9607 33.4613 42.6916 35.7 37.5902 39.9573C35.9563 41.2074 34.5669 42.7481 33.4919 44.5021C32.5546 46.1588 32.2299 48.0924 32.5744 49.9644C21.9634 52.39 11.3953 45.7545 8.96964 35.1437C8.69224 33.9301 8.53044 32.693 8.48641 31.4489C9.45898 31.4489 10.719 32.6049 12.2666 33.9812C15.0681 36.483 18.6525 39.676 23.9925 39.4863C25.2507 39.5081 26.5 39.2707 27.6626 38.789C27.9048 38.682 28.1209 38.5237 28.2962 38.3252C28.4715 38.1267 28.6017 37.8927 28.678 37.6391C28.7421 37.3573 28.7355 37.064 28.6586 36.7854C28.5818 36.5068 28.4371 36.2516 28.2376 36.0426C27.6626 35.3391 26.4025 34.5073 24.2372 33.5408C21.6498 32.397 21.087 31.2837 21.5947 30.146C22.2064 28.7146 24.176 27.0876 26.268 25.2525C27.8981 23.9352 29.4331 22.5044 30.8617 20.9708C33.4185 18.0592 34.7336 14.8846 32.134 11.4102C35.0231 12.0008 37.7413 13.2366 40.0858 15.0252L38.6789 19.6679C38.628 19.8239 38.621 19.9909 38.6588 20.1506C38.6966 20.3103 38.7776 20.4565 38.893 20.5732C38.893 20.5732 41.1746 22.8364 41.248 22.8792C41.3504 22.9386 41.4637 22.9768 41.5812 22.9917C41.6986 23.0066 41.8179 22.9978 41.9319 22.9659C42.0459 22.934 42.1524 22.8795 42.245 22.8058C42.3377 22.7321 42.4146 22.6406 42.4714 22.5367L44.2514 19.3192C45.302 20.8028 46.1419 22.425 46.747 24.1393ZM54.9496 17.3068L54.1606 17.6983C53.9839 17.7859 53.8418 17.9302 53.7569 18.1081L53.3654 18.9033L51.8423 21.6559L51.3958 21.1665L52.2827 18.2366C52.3332 18.0687 52.3329 17.8897 52.2817 17.722C52.2306 17.5543 52.1309 17.4056 51.9952 17.2946L47.1691 12.7498C47.0839 12.6661 46.9826 12.6005 46.8715 12.5568C46.7603 12.5132 46.6414 12.4925 46.522 12.4959C46.4027 12.4993 46.2852 12.5269 46.1767 12.5768C46.0682 12.6267 45.9709 12.698 45.8907 12.7865C45.8295 12.8538 41.4866 20.6772 41.4866 20.6772L40.5385 19.7291L43.499 9.97277C43.5508 9.80407 43.5512 9.62372 43.5 9.45482C43.4488 9.28592 43.3483 9.13614 43.2115 9.02466L39.3701 5.40963C39.163 5.23415 39.0174 4.99701 38.9547 4.73288C38.892 4.46875 38.9154 4.19148 39.0215 3.9416C39.2167 3.49719 39.5729 3.14316 40.0185 2.95068H40.0491C40.2962 2.85527 40.5669 2.83934 40.8235 2.90513C41.0801 2.97092 41.3097 3.11514 41.4804 3.31769L45.1505 7.19574C45.2635 7.31704 45.4082 7.40426 45.5682 7.4475C45.7282 7.49075 45.8971 7.48829 46.0558 7.44041L55.8427 4.486L56.7908 5.4341L49.0224 9.70363C48.9185 9.76032 48.827 9.83726 48.7532 9.92991C48.6795 10.0226 48.625 10.129 48.5931 10.243C48.5612 10.3571 48.5524 10.4763 48.5673 10.5938C48.5822 10.7113 48.6205 10.8246 48.6799 10.927C48.7166 10.9943 53.396 15.9733 53.396 15.9733C53.5096 16.0936 53.6546 16.1796 53.8146 16.2218C53.9745 16.264 54.1431 16.2605 54.3013 16.2119L57.2434 15.325L57.7022 15.7837L54.9496 17.3068ZM52.5864 43.0995C52.4815 43.0377 52.3652 42.9974 52.2446 42.981C52.1239 42.9645 52.0011 42.9723 51.8835 43.0038C51.7658 43.0353 51.6556 43.0899 51.5593 43.1644C51.4629 43.239 51.3824 43.332 51.3224 43.4379C50.937 44.1414 50.515 44.8326 50.0623 45.4932C49.9243 45.6928 49.8707 45.9389 49.9133 46.1778C49.9559 46.4167 50.0912 46.6292 50.2897 46.7688C50.4882 46.9084 50.7339 46.9639 50.9731 46.9232C51.2124 46.8824 51.4259 46.7488 51.567 46.5514C52.0442 45.8418 52.4968 45.1017 52.9127 44.3555C52.9738 44.2516 53.0138 44.1367 53.0304 44.0173C53.047 43.898 53.04 43.7765 53.0097 43.6599C52.9794 43.5433 52.9264 43.4338 52.8538 43.3376C52.7812 43.2415 52.6903 43.1606 52.5864 43.0995ZM55.4879 29.7056C55.3643 29.7039 55.2417 29.7272 55.1273 29.7741C55.0129 29.821 54.9092 29.8905 54.8224 29.9785C54.7356 30.0665 54.6674 30.1711 54.622 30.2861C54.5766 30.401 54.5549 30.524 54.5582 30.6476V30.7515C54.5582 31.5528 54.5215 32.3603 54.4481 33.1616C54.426 33.4039 54.5011 33.645 54.6569 33.832C54.8126 34.0189 55.0362 34.1364 55.2786 34.1584L55.2799 34.1586H55.3656C55.5987 34.1608 55.824 34.0741 55.9956 33.9162C56.1671 33.7582 56.2721 33.5409 56.2892 33.3084C56.3687 32.4581 56.4054 31.5957 56.4054 30.7393V30.617C56.4038 30.3747 56.3064 30.1429 56.1345 29.9721C55.9627 29.8014 55.7302 29.7056 55.4879 29.7056ZM23.2707 56.644C22.4755 56.5094 21.6865 56.3381 20.9219 56.1057C20.8037 56.0639 20.6783 56.0468 20.5532 56.0555C20.4282 56.0641 20.3063 56.0982 20.195 56.1557C20.0836 56.2132 19.9853 56.2929 19.9059 56.3899C19.8266 56.4869 19.768 56.5992 19.7336 56.7197C19.6993 56.8402 19.6901 56.9665 19.7064 57.0907C19.7228 57.215 19.7644 57.3345 19.8287 57.4421C19.8931 57.5496 19.9787 57.6428 20.0805 57.716C20.1822 57.7892 20.2979 57.8407 20.4203 57.8675C21.2399 58.0999 22.0841 58.3018 22.9282 58.4791H23.0994C23.3412 58.4988 23.5809 58.4224 23.7667 58.2665C23.9525 58.1105 24.0693 57.8877 24.0918 57.6462C24.1144 57.4047 24.0408 57.164 23.8871 56.9764C23.7334 56.7888 23.5119 56.6694 23.2707 56.644ZM37.4674 56.3652C37.3874 56.148 37.2282 55.969 37.0219 55.8642C36.8155 55.7594 36.5771 55.7365 36.3546 55.8V55.8245C35.5961 56.0752 34.8131 56.2893 34.0363 56.4361C33.8002 56.4912 33.5954 56.6373 33.4667 56.8427C33.3379 57.0481 33.2955 57.2961 33.3488 57.5326C33.402 57.7691 33.5466 57.9749 33.751 58.1053C33.9555 58.2356 34.2031 58.2799 34.44 58.2284C35.2719 58.0387 36.1099 57.8063 36.9234 57.5433C37.0365 57.5016 37.1403 57.4381 37.2288 57.3564C37.3173 57.2747 37.3889 57.1763 37.4394 57.0669C37.4899 56.9575 37.5184 56.8392 37.5232 56.7188C37.528 56.5984 37.509 56.4783 37.4674 56.3652ZM16.9765 54.6438C16.2486 54.2829 15.533 53.8914 14.8418 53.4999C14.7377 53.4389 14.6227 53.3989 14.5032 53.3823C14.3838 53.3657 14.2622 53.3728 14.1455 53.4032C14.0288 53.4336 13.9192 53.4867 13.823 53.5594C13.7268 53.6322 13.6458 53.7231 13.5848 53.8272C13.5237 53.9312 13.4838 54.0462 13.4672 54.1657C13.4506 54.2852 13.4577 54.4067 13.4881 54.5234C13.5184 54.6402 13.5715 54.7498 13.6443 54.846C13.717 54.9422 13.808 55.0231 13.912 55.0842C14.6521 55.5185 15.4167 55.9222 16.1936 56.3075C16.4136 56.4068 16.6638 56.4157 16.8902 56.3322C17.1167 56.2486 17.3012 56.0794 17.4039 55.861C17.5067 55.6426 17.5195 55.3926 17.4395 55.1648C17.3596 54.9371 17.1933 54.75 16.9765 54.6438ZM48.6883 48.7417C48.5115 48.5802 48.2786 48.4943 48.0393 48.5022C47.8001 48.5101 47.5734 48.6113 47.4076 48.784H47.4137C46.8632 49.3957 46.2821 49.934 45.6888 50.4661C45.509 50.6289 45.4008 50.8561 45.388 51.0983C45.3751 51.3405 45.4585 51.5779 45.62 51.7588C45.7815 51.9397 46.008 52.0494 46.2501 52.0639C46.4922 52.0784 46.7302 51.9966 46.9122 51.8363C47.5238 51.2674 48.1722 50.6619 48.7472 50.038C48.8285 49.949 48.8914 49.8449 48.9324 49.7316C48.9734 49.6183 48.9917 49.498 48.9863 49.3776C48.9808 49.2572 48.9517 49.1391 48.9005 49.03C48.8494 48.9209 48.7773 48.8229 48.6883 48.7417ZM43.6261 53.3183C43.562 53.2111 43.4768 53.1182 43.3756 53.0452C43.2744 52.9721 43.1594 52.9205 43.0376 52.8934C42.9157 52.8664 42.7897 52.8644 42.6671 52.8878C42.5445 52.9111 42.4279 52.9592 42.3246 53.0291V53.0046C41.6517 53.4328 40.9483 53.8365 40.2387 54.228C40.0233 54.3398 39.861 54.5323 39.7872 54.7635C39.7134 54.9947 39.7342 55.2457 39.845 55.4616C39.9558 55.6775 40.1475 55.8407 40.3784 55.9156C40.6092 55.9905 40.8603 55.9709 41.0767 55.8612C41.8352 55.4697 42.5876 55.0354 43.3094 54.5766C43.4128 54.5148 43.503 54.4332 43.5749 54.3365C43.6468 54.2398 43.6989 54.1299 43.7283 54.013C43.7578 53.8962 43.7639 53.7747 43.7463 53.6555C43.7288 53.5363 43.6879 53.4217 43.6261 53.3183Z" fill="#008080"/>
</g>
<defs>
<clipPath id="clip0_1133_2178">
<rect width="60" height="60" fill="white"/>
</clipPath>
</defs>
</svg>
