<svg width="40" height="40" viewBox="0 0 40 40" fill="none" xmlns="http://www.w3.org/2000/svg">
<path d="M20.9767 4.31016C20.3517 3.685 19.504 3.33368 18.62 3.3335H6.66668C5.78262 3.3335 4.93478 3.68469 4.30965 4.30981C3.68453 4.93493 3.33334 5.78277 3.33334 6.66683V18.6202C3.33353 19.5041 3.68485 20.3519 4.31001 20.9768L17.6433 34.3102C18.2684 34.9351 19.1161 35.2861 20 35.2861C20.8839 35.2861 21.7316 34.9351 22.3567 34.3102L34.31 22.3568C34.9349 21.7317 35.286 20.884 35.286 20.0002C35.286 19.1163 34.9349 18.2686 34.31 17.6435L20.9767 4.31016ZM11.6667 15.0002C10.7824 14.9999 9.93443 14.6485 9.30931 14.023C8.68419 13.3976 8.33312 12.5494 8.33334 11.6652C8.33356 10.7809 8.68505 9.93292 9.31049 9.3078C9.93592 8.68267 10.7841 8.33161 11.6683 8.33183C12.5526 8.33205 13.4006 8.68354 14.0257 9.30897C14.6508 9.93441 15.0019 10.7826 15.0017 11.6668C15.0015 12.5511 14.65 13.3991 14.0245 14.0242C13.3991 14.6493 12.551 15.0004 11.6667 15.0002Z" fill="white"/>
</svg>
