<svg width="60" height="60" viewBox="0 0 60 60" fill="none" xmlns="http://www.w3.org/2000/svg">
<path d="M56.2414 15.4407C56.1671 14.5051 56.1442 13.5662 56.1729 12.6282C56.1712 10.9615 55.5084 9.36356 54.33 8.18494C53.1515 7.00633 51.5537 6.34329 49.887 6.34131H15.1573C13.4906 6.34329 11.8928 7.00633 10.7143 8.18494C9.5359 9.36356 8.87311 10.9615 8.87137 12.6282C8.85262 13.6801 8.88449 42.7097 8.87137 44.7038L4.91324 46.9894C4.65078 47.1399 4.42076 47.3409 4.2365 47.5808C4.05225 47.8207 3.91741 48.0948 3.83981 48.3872C3.38418 49.5629 4.64512 50.986 5.11856 51.9516C5.42727 52.4832 5.93396 52.8709 6.52779 53.0299C7.12163 53.1889 7.75426 53.1063 8.28731 52.8001L10.4604 51.5457C11.7004 52.82 13.3817 53.5705 15.1582 53.6429H36.7873C36.9173 53.6606 37.0492 53.6606 37.1792 53.6429H49.8879C51.5546 53.6409 53.1525 52.9778 54.3309 51.7992C55.5093 50.6206 56.1721 49.0227 56.1739 47.356V15.781C56.2179 15.6729 56.2401 15.5574 56.2414 15.4407ZM15.1573 8.21537H49.887C51.0568 8.21686 52.1783 8.68229 53.0053 9.50955C53.8324 10.3368 54.2976 11.4584 54.2989 12.6282V14.5032H41.6511C41.3008 14.4465 40.9438 14.4465 40.5936 14.5032H10.7454V12.6282C10.7467 11.4584 11.2119 10.3368 12.039 9.50955C12.866 8.68229 13.9875 8.21686 15.1573 8.21537ZM7.34887 51.1772C7.24645 51.2358 7.12502 51.2515 7.01105 51.221C6.89709 51.1904 6.79981 51.1161 6.74043 51.0141L5.69231 49.1982C5.66167 49.1501 5.64136 49.0961 5.63266 49.0398C5.62397 48.9834 5.62708 48.9259 5.6418 48.8708C5.65652 48.8157 5.68253 48.7643 5.71817 48.7198C5.75382 48.6753 5.79833 48.6386 5.84887 48.6122C6.08606 48.4397 10.4576 46.0097 10.5073 45.9235L13.4304 44.2351L14.9164 46.8076L7.34887 51.1772ZM15.0439 38.5229L20.6154 48.2391C20.1561 48.4454 19.2326 49.2422 18.687 49.0304C18.5654 48.9984 18.4514 48.9426 18.3516 48.8662C18.2518 48.7897 18.1682 48.6941 18.1057 48.5851L17.0839 46.8132C17.0715 46.7631 17.0549 46.7142 17.0342 46.6669L14.6117 42.4716C14.5818 42.4314 14.5485 42.3937 14.5123 42.3591L13.4614 40.5394C13.3357 40.3199 13.302 40.0596 13.3675 39.8153C13.433 39.571 13.5924 39.3626 13.8111 39.2354L15.0439 38.5229ZM20.8676 38.7854C20.9923 39.0003 21.1971 39.1571 21.4372 39.2212C21.6773 39.2854 21.933 39.2517 22.1482 39.1276L24.7217 37.6416L25.9217 39.7191L23.3689 41.1929C23.1616 41.3211 23.0124 41.525 22.9529 41.7614C22.8935 41.9978 22.9284 42.248 23.0503 42.4591C23.1723 42.6701 23.3716 42.8254 23.6061 42.892C23.8405 42.9586 24.0917 42.9312 24.3064 42.8157L26.8582 41.3419L28.2842 43.8113L22.2382 47.3026L16.6667 37.5863L22.6836 34.1119L23.7842 36.0188L21.2107 37.5047C20.9957 37.6291 20.8387 37.8337 20.7744 38.0736C20.7101 38.3135 20.7436 38.5701 20.8676 38.7854ZM12.1611 50.5632L15.8529 48.4313L16.4829 49.5226C16.8605 50.1697 17.4784 50.6415 18.2021 50.8353C18.9258 51.0292 19.6968 50.9293 20.3473 50.5576L22.1098 49.5404C22.2941 49.5088 22.461 49.4123 22.5804 49.2685L30.0336 44.9663C30.2473 44.8408 30.4031 44.6361 30.4671 44.3966C30.5312 44.1572 30.4983 43.9021 30.3757 43.6866L28.0592 39.6741C28.0471 39.6118 28.0144 39.5553 27.9664 39.5138L23.8386 32.3635C23.7142 32.1482 23.5095 31.9911 23.2693 31.9267C23.0291 31.8624 22.7733 31.8961 22.5579 32.0204L12.8736 37.6116C12.2263 37.989 11.7542 38.6069 11.5602 39.3306C11.3662 40.0543 11.4659 40.8254 11.8376 41.476L12.4939 42.6122L10.7454 43.621V16.3782H41.5236C49.167 17.4413 48.6223 28.5066 40.857 28.7635C40.7531 28.7438 40.6477 28.7331 40.542 28.7316H33.7395C27.0298 28.8966 27.0382 39.0488 33.7236 39.2194L36.9364 39.2766C38.5728 39.2848 40.1392 39.941 41.2929 41.1015C42.4466 42.2621 43.0935 43.8324 43.092 45.4688C43.1002 47.0765 42.4916 48.626 41.3913 49.7983C40.2911 50.9705 38.7832 51.6762 37.1782 51.7697H15.1573C14.0524 51.7115 12.9983 51.2874 12.1611 50.5641V50.5632ZM49.8861 51.7688H42.0336C47.7832 47.0382 44.4673 37.3547 36.8764 37.3782C36.8422 37.383 36.8084 37.3899 36.7751 37.3988L33.7395 37.3444C29.5292 37.3051 29.5226 30.6441 33.7395 30.6038L40.5307 30.6085C40.6236 30.6254 40.7176 30.6355 40.812 30.6385C48.3082 30.6779 51.7339 21.0985 46.0282 16.3772H54.2989V47.356C54.2976 48.5258 53.8324 49.6474 53.0053 50.4746C52.1783 51.3019 51.0568 51.7673 49.887 51.7688H49.8861Z" fill="#008080"/>
<path d="M25.4088 12.6807C25.7726 12.6675 26.1171 12.5136 26.3698 12.2515C26.6225 11.9894 26.7637 11.6395 26.7637 11.2754C26.7637 10.9114 26.6225 10.5615 26.3698 10.2994C26.1171 10.0373 25.7726 9.88341 25.4088 9.87012C25.045 9.88341 24.7005 10.0373 24.4478 10.2994C24.1951 10.5615 24.0539 10.9114 24.0539 11.2754C24.0539 11.6395 24.1951 11.9894 24.4478 12.2515C24.7005 12.5136 25.045 12.6675 25.4088 12.6807ZM20.7241 12.6807C21.088 12.6675 21.4325 12.5136 21.6851 12.2515C21.9378 11.9894 22.079 11.6395 22.079 11.2754C22.079 10.9114 21.9378 10.5615 21.6851 10.2994C21.4325 10.0373 21.088 9.88341 20.7241 9.87012C20.3603 9.88341 20.0158 10.0373 19.7631 10.2994C19.5104 10.5615 19.3692 10.9114 19.3692 11.2754C19.3692 11.6395 19.5104 11.9894 19.7631 12.2515C20.0158 12.5136 20.3603 12.6675 20.7241 12.6807ZM16.0385 12.6807C16.4023 12.6675 16.7468 12.5136 16.9995 12.2515C17.2522 11.9894 17.3934 11.6395 17.3934 11.2754C17.3934 10.9114 17.2522 10.5615 16.9995 10.2994C16.7468 10.0373 16.4023 9.88341 16.0385 9.87012C15.6747 9.88341 15.3302 10.0373 15.0775 10.2994C14.8248 10.5615 14.6836 10.9114 14.6836 11.2754C14.6836 11.6395 14.8248 11.9894 15.0775 12.2515C15.3302 12.5136 15.6747 12.6675 16.0385 12.6807Z" fill="#008080"/>
</svg>
