<svg width="60" height="60" viewBox="0 0 60 60" fill="none" xmlns="http://www.w3.org/2000/svg">
<path d="M55.3125 2.8125H4.6875C3.94185 2.81337 3.22698 3.10996 2.69972 3.63722C2.17246 4.16448 1.87587 4.87935 1.875 5.625V54.375C1.87587 55.1207 2.17246 55.8355 2.69972 56.3628C3.22698 56.89 3.94185 57.1866 4.6875 57.1875H55.3125C56.0582 57.1866 56.773 56.89 57.3003 56.3628C57.8275 55.8355 58.1241 55.1207 58.125 54.375V5.625C58.1241 4.87935 57.8275 4.16448 57.3003 3.63722C56.773 3.10996 56.0582 2.81337 55.3125 2.8125ZM4.6875 4.6875H55.3125C55.5611 4.68778 55.7994 4.78664 55.9751 4.9624C56.1509 5.13815 56.2497 5.37645 56.25 5.625V10.3125H3.75V5.625C3.75028 5.37645 3.84914 5.13815 4.0249 4.9624C4.20065 4.78664 4.43895 4.68778 4.6875 4.6875ZM55.3125 55.3125H4.6875C4.43895 55.3122 4.20065 55.2134 4.0249 55.0376C3.84914 54.8619 3.75028 54.6236 3.75 54.375V12.1875H56.25V54.375C56.2497 54.6236 56.1509 54.8619 55.9751 55.0376C55.7994 55.2134 55.5611 55.3122 55.3125 55.3125Z" fill="#008080"/>
<path d="M14.0625 8.4375C14.5803 8.4375 15 8.01777 15 7.5C15 6.98223 14.5803 6.5625 14.0625 6.5625C13.5447 6.5625 13.125 6.98223 13.125 7.5C13.125 8.01777 13.5447 8.4375 14.0625 8.4375Z" fill="#008080"/>
<path d="M10.3125 8.4375C10.8303 8.4375 11.25 8.01777 11.25 7.5C11.25 6.98223 10.8303 6.5625 10.3125 6.5625C9.79473 6.5625 9.375 6.98223 9.375 7.5C9.375 8.01777 9.79473 8.4375 10.3125 8.4375Z" fill="#008080"/>
<path d="M6.5625 8.4375C7.08027 8.4375 7.5 8.01777 7.5 7.5C7.5 6.98223 7.08027 6.5625 6.5625 6.5625C6.04473 6.5625 5.625 6.98223 5.625 7.5C5.625 8.01777 6.04473 8.4375 6.5625 8.4375Z" fill="#008080"/>
<path d="M51.5625 15.9375H8.4375C8.18886 15.9375 7.9504 16.0363 7.77459 16.2121C7.59877 16.3879 7.5 16.6264 7.5 16.875V31.875C7.5 32.1236 7.59877 32.3621 7.77459 32.5379C7.9504 32.7137 8.18886 32.8125 8.4375 32.8125H51.5625C51.8111 32.8125 52.0496 32.7137 52.2254 32.5379C52.4012 32.3621 52.5 32.1236 52.5 31.875V16.875C52.5 16.6264 52.4012 16.3879 52.2254 16.2121C52.0496 16.0363 51.8111 15.9375 51.5625 15.9375ZM36.1932 29.8201L38.4375 27.5757L41.7991 30.9375H37.0312L36.1932 29.8201ZM34.6875 30.9375H27.1875L30.9375 25.9375L34.6875 30.9375ZM24.8438 30.9375H17.7381L22.5 24.1348L26.0945 29.2698L24.8438 30.9375ZM50.625 30.9375H44.4509L39.1004 25.5871C39.0134 25.5 38.91 25.431 38.7963 25.3838C38.6825 25.3367 38.5606 25.3125 38.4375 25.3125C38.3144 25.3125 38.1925 25.3367 38.0787 25.3838C37.965 25.431 37.8616 25.5 37.7746 25.5871L35.0568 28.3049L31.6875 23.8125C31.6002 23.6961 31.4869 23.6016 31.3568 23.5365C31.2266 23.4714 31.083 23.4375 30.9375 23.4375C30.792 23.4375 30.6484 23.4714 30.5182 23.5365C30.3881 23.6016 30.2748 23.6961 30.1875 23.8125L27.2783 27.6914L23.268 21.9623C23.1816 21.8389 23.0667 21.738 22.933 21.6684C22.7993 21.5988 22.6507 21.5624 22.5 21.5624C22.3493 21.5624 22.2007 21.5988 22.067 21.6684C21.9333 21.738 21.8184 21.8389 21.732 21.9623L15.4494 30.9375H9.375V17.8125H50.625V30.9375Z" fill="#008080"/>
<path d="M35.625 23.4375C36.1428 23.4375 36.5625 23.0178 36.5625 22.5C36.5625 21.9822 36.1428 21.5625 35.625 21.5625C35.1072 21.5625 34.6875 21.9822 34.6875 22.5C34.6875 23.0178 35.1072 23.4375 35.625 23.4375Z" fill="#008080"/>
<path d="M31.875 45.9375H28.125C27.3791 45.9375 26.6637 46.2338 26.1363 46.7613C25.6088 47.2887 25.3125 48.0041 25.3125 48.75C25.3125 49.4959 25.6088 50.2113 26.1363 50.7387C26.6637 51.2662 27.3791 51.5625 28.125 51.5625H31.875C32.6209 51.5625 33.3363 51.2662 33.8637 50.7387C34.3912 50.2113 34.6875 49.4959 34.6875 48.75C34.6875 48.0041 34.3912 47.2887 33.8637 46.7613C33.3363 46.2338 32.6209 45.9375 31.875 45.9375ZM31.875 49.6875H28.125C27.8764 49.6875 27.6379 49.5887 27.4621 49.4129C27.2863 49.2371 27.1875 48.9986 27.1875 48.75C27.1875 48.5014 27.2863 48.2629 27.4621 48.0871C27.6379 47.9113 27.8764 47.8125 28.125 47.8125H31.875C32.1236 47.8125 32.3621 47.9113 32.5379 48.0871C32.7137 48.2629 32.8125 48.5014 32.8125 48.75C32.8125 48.9986 32.7137 49.2371 32.5379 49.4129C32.3621 49.5887 32.1236 49.6875 31.875 49.6875ZM35.625 38.4375C35.8736 38.4375 36.1121 38.3387 36.2879 38.1629C36.4637 37.9871 36.5625 37.7486 36.5625 37.5C36.5625 37.2514 36.4637 37.0129 36.2879 36.8371C36.1121 36.6613 35.8736 36.5625 35.625 36.5625H24.375C24.1264 36.5625 23.8879 36.6613 23.7121 36.8371C23.5363 37.0129 23.4375 37.2514 23.4375 37.5C23.4375 37.7486 23.5363 37.9871 23.7121 38.1629C23.8879 38.3387 24.1264 38.4375 24.375 38.4375H35.625ZM40.3125 40.3125H19.6875C19.4389 40.3125 19.2004 40.4113 19.0246 40.5871C18.8488 40.7629 18.75 41.0014 18.75 41.25C18.75 41.4986 18.8488 41.7371 19.0246 41.9129C19.2004 42.0887 19.4389 42.1875 19.6875 42.1875H40.3125C40.5611 42.1875 40.7996 42.0887 40.9754 41.9129C41.1512 41.7371 41.25 41.4986 41.25 41.25C41.25 41.0014 41.1512 40.7629 40.9754 40.5871C40.7996 40.4113 40.5611 40.3125 40.3125 40.3125ZM15.9375 40.3125H14.0625C13.8139 40.3125 13.5754 40.4113 13.3996 40.5871C13.2238 40.7629 13.125 41.0014 13.125 41.25C13.125 41.4986 13.2238 41.7371 13.3996 41.9129C13.5754 42.0887 13.8139 42.1875 14.0625 42.1875H15.9375C16.1861 42.1875 16.4246 42.0887 16.6004 41.9129C16.7762 41.7371 16.875 41.4986 16.875 41.25C16.875 41.0014 16.7762 40.7629 16.6004 40.5871C16.4246 40.4113 16.1861 40.3125 15.9375 40.3125ZM45.9375 40.3125H44.0625C43.8139 40.3125 43.5754 40.4113 43.3996 40.5871C43.2238 40.7629 43.125 41.0014 43.125 41.25C43.125 41.4986 43.2238 41.7371 43.3996 41.9129C43.5754 42.0887 43.8139 42.1875 44.0625 42.1875H45.9375C46.1861 42.1875 46.4246 42.0887 46.6004 41.9129C46.7762 41.7371 46.875 41.4986 46.875 41.25C46.875 41.0014 46.7762 40.7629 46.6004 40.5871C46.4246 40.4113 46.1861 40.3125 45.9375 40.3125Z" fill="#008080"/>
</svg>
