<svg width="60" height="60" viewBox="0 0 60 60" fill="none" xmlns="http://www.w3.org/2000/svg">
<path d="M50.625 11.25H47.8125V5.625C47.811 4.38225 47.3167 3.19084 46.4379 2.31208C45.5592 1.43333 44.3677 0.938989 43.125 0.9375H16.875C15.6323 0.938989 14.4408 1.43333 13.5621 2.31208C12.6833 3.19084 12.189 4.38225 12.1875 5.625V11.25H9.375C9.12636 11.25 8.8879 11.3488 8.71209 11.5246C8.53627 11.7004 8.4375 11.9389 8.4375 12.1875V41.25C8.4375 41.4986 8.53627 41.7371 8.71209 41.9129C8.8879 42.0887 9.12636 42.1875 9.375 42.1875H12.1875V54.375C12.189 55.6177 12.6833 56.8092 13.5621 57.6879C14.4408 58.5667 15.6323 59.061 16.875 59.0625H43.125C44.3677 59.061 45.5592 58.5667 46.4379 57.6879C47.3167 56.8092 47.811 55.6177 47.8125 54.375V42.1875H50.625C50.8736 42.1875 51.1121 42.0887 51.2879 41.9129C51.4637 41.7371 51.5625 41.4986 51.5625 41.25V12.1875C51.5625 11.9389 51.4637 11.7004 51.2879 11.5246C51.1121 11.3488 50.8736 11.25 50.625 11.25ZM14.0625 5.625C14.0632 4.87931 14.3598 4.16437 14.8871 3.63708C15.4144 3.1098 16.1293 2.81324 16.875 2.8125H43.125C43.8707 2.81324 44.5856 3.1098 45.1129 3.63708C45.6402 4.16437 45.9368 4.87931 45.9375 5.625V11.25H14.0625V5.625ZM10.3125 13.125H49.6875V18.75H10.3125V13.125ZM45.9375 54.375C45.9368 55.1207 45.6402 55.8356 45.1129 56.3629C44.5856 56.8902 43.8707 57.1868 43.125 57.1875H16.875C16.1293 57.1868 15.4144 56.8902 14.8871 56.3629C14.3598 55.8356 14.0632 55.1207 14.0625 54.375V49.6875H45.9375V54.375ZM45.9375 47.8125H14.0625V42.1875H45.9375V47.8125ZM49.6875 40.3125H10.3125V20.625H49.6875V40.3125Z" fill="#008080"/>
<path d="M46.875 16.875C47.3928 16.875 47.8125 16.4553 47.8125 15.9375C47.8125 15.4197 47.3928 15 46.875 15C46.3572 15 45.9375 15.4197 45.9375 15.9375C45.9375 16.4553 46.3572 16.875 46.875 16.875Z" fill="#008080"/>
<path d="M43.125 16.875C43.6428 16.875 44.0625 16.4553 44.0625 15.9375C44.0625 15.4197 43.6428 15 43.125 15C42.6072 15 42.1875 15.4197 42.1875 15.9375C42.1875 16.4553 42.6072 16.875 43.125 16.875Z" fill="#008080"/>
<path d="M39.375 16.875C39.8928 16.875 40.3125 16.4553 40.3125 15.9375C40.3125 15.4197 39.8928 15 39.375 15C38.8572 15 38.4375 15.4197 38.4375 15.9375C38.4375 16.4553 38.8572 16.875 39.375 16.875Z" fill="#008080"/>
<path d="M30 56.25C30.5563 56.25 31.1 56.085 31.5625 55.776C32.0251 55.467 32.3855 55.0277 32.5984 54.5138C32.8113 53.9999 32.867 53.4344 32.7585 52.8888C32.6499 52.3432 32.3821 51.8421 31.9887 51.4488C31.5954 51.0554 31.0943 50.7876 30.5487 50.679C30.0031 50.5705 29.4376 50.6262 28.9237 50.8391C28.4098 51.052 27.9705 51.4124 27.6615 51.875C27.3524 52.3375 27.1875 52.8812 27.1875 53.4375C27.1882 54.1832 27.4848 54.8981 28.0121 55.4254C28.5394 55.9527 29.2543 56.2493 30 56.25ZM30 52.5C30.1854 52.5 30.3667 52.555 30.5208 52.658C30.675 52.761 30.7952 52.9074 30.8661 53.0787C30.9371 53.25 30.9557 53.4385 30.9195 53.6204C30.8833 53.8023 30.794 53.9693 30.6629 54.1004C30.5318 54.2315 30.3648 54.3208 30.1829 54.357C30.001 54.3932 29.8125 54.3746 29.6412 54.3036C29.4699 54.2327 29.3235 54.1125 29.2205 53.9583C29.1175 53.8042 29.0625 53.6229 29.0625 53.4375C29.0625 53.1889 29.1613 52.9504 29.3371 52.7746C29.5129 52.5988 29.7514 52.5 30 52.5ZM37.5 54.375H41.25C41.4986 54.375 41.7371 54.2762 41.9129 54.1004C42.0887 53.9246 42.1875 53.6861 42.1875 53.4375C42.1875 53.1889 42.0887 52.9504 41.9129 52.7746C41.7371 52.5988 41.4986 52.5 41.25 52.5H37.5C37.2514 52.5 37.0129 52.5988 36.8371 52.7746C36.6613 52.9504 36.5625 53.1889 36.5625 53.4375C36.5625 53.6861 36.6613 53.9246 36.8371 54.1004C37.0129 54.2762 37.2514 54.375 37.5 54.375ZM18.75 54.375H22.5C22.7486 54.375 22.9871 54.2762 23.1629 54.1004C23.3387 53.9246 23.4375 53.6861 23.4375 53.4375C23.4375 53.1889 23.3387 52.9504 23.1629 52.7746C22.9871 52.5988 22.7486 52.5 22.5 52.5H18.75C18.5014 52.5 18.2629 52.5988 18.0871 52.7746C17.9113 52.9504 17.8125 53.1889 17.8125 53.4375C17.8125 53.6861 17.9113 53.9246 18.0871 54.1004C18.2629 54.2762 18.5014 54.375 18.75 54.375ZM33.75 4.6875H26.25C26.0014 4.6875 25.7629 4.78627 25.5871 4.96209C25.4113 5.1379 25.3125 5.37636 25.3125 5.625C25.3125 5.87364 25.4113 6.1121 25.5871 6.28791C25.7629 6.46373 26.0014 6.5625 26.25 6.5625H33.75C33.9986 6.5625 34.2371 6.46373 34.4129 6.28791C34.5887 6.1121 34.6875 5.87364 34.6875 5.625C34.6875 5.37636 34.5887 5.1379 34.4129 4.96209C34.2371 4.78627 33.9986 4.6875 33.75 4.6875Z" fill="#008080"/>
<path d="M37.5 6.5625C38.0178 6.5625 38.4375 6.14277 38.4375 5.625C38.4375 5.10723 38.0178 4.6875 37.5 4.6875C36.9822 4.6875 36.5625 5.10723 36.5625 5.625C36.5625 6.14277 36.9822 6.5625 37.5 6.5625Z" fill="#008080"/>
<path d="M22.3057 35.3502C22.4826 35.521 22.7194 35.6155 22.9652 35.6134C23.211 35.6112 23.4461 35.5126 23.6199 35.3388C23.7938 35.165 23.8924 34.9299 23.8945 34.6841C23.8966 34.4382 23.8021 34.2014 23.6314 34.0246L19.6067 29.9999L23.6314 25.9752C23.8021 25.7984 23.8966 25.5616 23.8945 25.3158C23.8924 25.07 23.7938 24.8349 23.6199 24.661C23.4461 24.4872 23.211 24.3886 22.9652 24.3865C22.7194 24.3843 22.4826 24.4788 22.3057 24.6496L17.6182 29.3371C17.4425 29.5129 17.3438 29.7513 17.3438 29.9999C17.3438 30.2485 17.4425 30.4869 17.6182 30.6627L22.3057 35.3502ZM36.3682 35.3502C36.544 35.526 36.7825 35.6247 37.031 35.6247C37.2796 35.6247 37.5181 35.526 37.6939 35.3502L42.3814 30.6627C42.5571 30.4869 42.6558 30.2485 42.6558 29.9999C42.6558 29.7513 42.5571 29.5129 42.3814 29.3371L37.6939 24.6496C37.517 24.4788 37.2802 24.3843 37.0344 24.3865C36.7886 24.3886 36.5535 24.4872 36.3797 24.661C36.2058 24.8349 36.1072 25.07 36.1051 25.3158C36.103 25.5616 36.1975 25.7984 36.3682 25.9752L40.3929 29.9999L36.3682 34.0246C36.1925 34.2004 36.0938 34.4388 36.0938 34.6874C36.0938 34.936 36.1925 35.1744 36.3682 35.3502ZM26.8179 37.4249C26.9311 37.4734 27.0528 37.4991 27.1759 37.5005C27.299 37.502 27.4212 37.4792 27.5355 37.4334C27.6499 37.3876 27.754 37.3197 27.8421 37.2336C27.9302 37.1476 28.0004 37.045 28.0489 36.9318L33.6739 23.8068C33.7677 23.579 33.7681 23.3235 33.675 23.0955C33.5819 22.8674 33.4028 22.6851 33.1764 22.5881C32.95 22.491 32.6945 22.4869 32.4652 22.5768C32.2358 22.6666 32.051 22.8431 31.9507 23.0681L26.3257 36.1931C26.2278 36.4216 26.2246 36.6796 26.3169 36.9104C26.4092 37.1413 26.5894 37.3269 26.8179 37.4249Z" fill="#008080"/>
</svg>
