<svg width="60" height="60" viewBox="0 0 60 60" fill="none" xmlns="http://www.w3.org/2000/svg">
<path d="M57.1875 16.375H2.8125C2.56386 16.375 2.3254 16.2762 2.14959 16.1004C1.97377 15.9246 1.875 15.6861 1.875 15.4375V9.8125C1.875 8.26187 3.13687 7 4.6875 7H55.3125C56.8631 7 58.125 8.26187 58.125 9.8125V15.4375C58.125 15.6861 58.0262 15.9246 57.8504 16.1004C57.6746 16.2762 57.4361 16.375 57.1875 16.375ZM3.75 14.5H56.25V9.8125C56.25 9.29688 55.8281 8.875 55.3125 8.875H4.6875C4.17188 8.875 3.75 9.29688 3.75 9.8125V14.5ZM12.1875 27.625H6.5625C6.31386 27.625 6.0754 27.5262 5.89959 27.3504C5.72377 27.1746 5.625 26.9361 5.625 26.6875C5.625 26.4389 5.72377 26.2004 5.89959 26.0246C6.0754 25.8488 6.31386 25.75 6.5625 25.75H12.1875C12.4361 25.75 12.6746 25.8488 12.8504 26.0246C13.0262 26.2004 13.125 26.4389 13.125 26.6875C13.125 26.9361 13.0262 27.1746 12.8504 27.3504C12.6746 27.5262 12.4361 27.625 12.1875 27.625ZM17.8125 23.875H6.5625C6.31386 23.875 6.0754 23.7762 5.89959 23.6004C5.72377 23.4246 5.625 23.1861 5.625 22.9375C5.625 22.6889 5.72377 22.4504 5.89959 22.2746C6.0754 22.0988 6.31386 22 6.5625 22H17.8125C18.0611 22 18.2996 22.0988 18.4754 22.2746C18.6512 22.4504 18.75 22.6889 18.75 22.9375C18.75 23.1861 18.6512 23.4246 18.4754 23.6004C18.2996 23.7762 18.0611 23.875 17.8125 23.875Z" fill="#008080"/>
<path d="M14.0625 12.625C14.5803 12.625 15 12.2053 15 11.6875C15 11.1697 14.5803 10.75 14.0625 10.75C13.5447 10.75 13.125 11.1697 13.125 11.6875C13.125 12.2053 13.5447 12.625 14.0625 12.625Z" fill="#008080"/>
<path d="M10.3125 12.625C10.8303 12.625 11.25 12.2053 11.25 11.6875C11.25 11.1697 10.8303 10.75 10.3125 10.75C9.79473 10.75 9.375 11.1697 9.375 11.6875C9.375 12.2053 9.79473 12.625 10.3125 12.625Z" fill="#008080"/>
<path d="M6.5625 12.625C7.08027 12.625 7.5 12.2053 7.5 11.6875C7.5 11.1697 7.08027 10.75 6.5625 10.75C6.04473 10.75 5.625 11.1697 5.625 11.6875C5.625 12.2053 6.04473 12.625 6.5625 12.625Z" fill="#008080"/>
<path d="M55.3125 53.875H49.6875C49.4389 53.875 49.2004 53.7762 49.0246 53.6004C48.8488 53.4246 48.75 53.1861 48.75 52.9375C48.75 52.6889 48.8488 52.4504 49.0246 52.2746C49.2004 52.0988 49.4389 52 49.6875 52H55.3125C55.5611 52 55.7996 51.9012 55.9754 51.7254C56.1512 51.5496 56.25 51.3111 56.25 51.0625V9.8125C56.25 9.56386 56.1512 9.3254 55.9754 9.14959C55.7996 8.97377 55.5611 8.875 55.3125 8.875H4.6875C4.43886 8.875 4.2004 8.97377 4.02459 9.14959C3.84877 9.3254 3.75 9.56386 3.75 9.8125V51.0625C3.75 51.3111 3.84877 51.5496 4.02459 51.7254C4.2004 51.9012 4.43886 52 4.6875 52H25.3125C25.5611 52 25.7996 52.0988 25.9754 52.2746C26.1512 52.4504 26.25 52.6889 26.25 52.9375C26.25 53.1861 26.1512 53.4246 25.9754 53.6004C25.7996 53.7762 25.5611 53.875 25.3125 53.875H4.6875C3.13687 53.875 1.875 52.6131 1.875 51.0625V9.8125C1.875 8.26187 3.13687 7 4.6875 7H55.3125C56.8631 7 58.125 8.26187 58.125 9.8125V51.0625C58.125 52.6131 56.8631 53.875 55.3125 53.875Z" fill="#008080"/>
<path d="M45.0394 53.879C44.91 53.8794 44.7819 53.8528 44.6634 53.8008C44.5449 53.7488 44.4386 53.6726 44.3512 53.5771L42.045 51.0758C41.9185 50.9395 41.8356 50.7686 41.8068 50.5848C41.7781 50.4011 41.8049 50.213 41.8837 50.0446C42.3388 49.0747 42.6731 48.0527 42.8794 47.0015C42.9146 46.8182 43.0038 46.6497 43.1354 46.5174C43.267 46.3851 43.4351 46.2952 43.6181 46.259L46.875 45.6065V43.394L43.6181 42.7415C43.4354 42.7046 43.2677 42.6143 43.1362 42.4822C43.0047 42.35 42.9153 42.1819 42.8794 41.999C42.6737 40.9469 42.3393 39.9243 41.8837 38.954C41.8049 38.7856 41.7781 38.5974 41.8068 38.4137C41.8356 38.23 41.9185 38.059 42.045 37.9227L44.3025 35.474L43.0031 33.6833L39.975 35.0765C39.8061 35.1543 39.6179 35.1802 39.4343 35.1509C39.2506 35.1215 39.0799 35.0381 38.9438 34.9115C38.1614 34.1779 37.2925 33.5426 36.3562 33.0196C36.1939 32.9295 36.0619 32.7931 35.9771 32.6279C35.8923 32.4626 35.8585 32.2759 35.88 32.0915L36.2681 28.7933L34.1625 28.109L32.5331 31.0115C32.4401 31.1718 32.3025 31.3016 32.1371 31.3852C31.9716 31.4687 31.7855 31.5024 31.6012 31.4821C30.5383 31.3527 29.4636 31.3527 28.4006 31.4821C28.2159 31.5047 28.0286 31.4721 27.8624 31.3884C27.6962 31.3046 27.5585 31.1734 27.4669 31.0115L25.8394 28.109L23.7338 28.7933L24.1219 32.0915C24.1434 32.2759 24.1096 32.4626 24.0248 32.6279C23.94 32.7931 23.808 32.9295 23.6456 33.0196C22.7094 33.5426 21.8404 34.1779 21.0581 34.9115C20.922 35.0381 20.7512 35.1215 20.5676 35.1509C20.384 35.1802 20.1957 35.1543 20.0269 35.0765L16.9987 33.6833L15.6994 35.4758L17.9569 37.9246C18.0834 38.0609 18.1663 38.2319 18.195 38.4156C18.2238 38.5993 18.197 38.7874 18.1181 38.9558C17.6631 39.9257 17.3287 40.9477 17.1225 41.999C17.0872 42.1822 16.9981 42.3507 16.8665 42.483C16.7349 42.6153 16.5668 42.7053 16.3837 42.7415L13.125 43.394V45.6065L16.3819 46.259C16.755 46.334 17.0456 46.6265 17.1206 47.0015C17.235 47.5883 17.3944 48.1883 17.6025 48.7808C17.6429 48.8973 17.6599 49.0206 17.6527 49.1436C17.6454 49.2667 17.614 49.3871 17.5602 49.498C17.5064 49.6089 17.4313 49.7082 17.3391 49.79C17.247 49.8719 17.1396 49.9348 17.0231 49.9752C16.9067 50.0156 16.7834 50.0326 16.6603 50.0254C16.5373 50.0181 16.4169 49.9867 16.3059 49.9329C16.195 49.8791 16.0958 49.804 16.0139 49.7118C15.9321 49.6197 15.8691 49.5123 15.8288 49.3958C15.6671 48.9304 15.5282 48.4573 15.4125 47.9783L12.0037 47.294C11.7913 47.2515 11.6001 47.1368 11.4627 46.9693C11.3253 46.8018 11.2501 46.5919 11.25 46.3752V42.6252C11.2501 42.4086 11.3253 42.1986 11.4627 42.0312C11.6001 41.8637 11.7913 41.7489 12.0037 41.7065L15.4125 41.024C15.5981 40.2552 15.8456 39.4921 16.1588 38.744L13.7962 36.1827C13.6486 36.0237 13.5609 35.8183 13.5483 35.6017C13.5356 35.3852 13.5988 35.1709 13.7269 34.9958L15.9319 31.9602C16.0591 31.7849 16.2432 31.6591 16.4528 31.6044C16.6625 31.5497 16.8846 31.5694 17.0812 31.6602L20.2481 33.1171C20.8544 32.5938 21.5014 32.1198 22.1831 31.6996L21.7763 28.2477C21.7517 28.0323 21.8023 27.815 21.9195 27.6326C22.0367 27.4501 22.2133 27.3137 22.4194 27.2465L25.9856 26.0858C26.192 26.0194 26.4149 26.0262 26.6168 26.1051C26.8187 26.184 26.9872 26.3302 27.0938 26.519L28.7944 29.5527C29.5935 29.4833 30.3971 29.4833 31.1963 29.5527L32.8987 26.519C33.005 26.3304 33.1731 26.1842 33.3747 26.1053C33.5763 26.0264 33.7989 26.0195 34.005 26.0858L37.5713 27.2446C37.9969 27.3833 38.265 27.8015 38.2144 28.2458L37.8075 31.6996C38.4892 32.1198 39.1363 32.5938 39.7425 33.1171L42.9094 31.6602C43.106 31.5691 43.3282 31.5491 43.5379 31.6039C43.7476 31.6586 43.9318 31.7846 44.0588 31.9602L46.2637 34.994C46.3919 35.169 46.455 35.3833 46.4424 35.5999C46.4297 35.8165 46.342 36.0219 46.1944 36.1808L43.8319 38.7421C44.145 39.4883 44.3944 40.2533 44.5781 41.0221L47.9869 41.7046C48.2012 41.7455 48.3946 41.8598 48.5338 42.0278C48.6731 42.1958 48.7495 42.407 48.75 42.6252V46.3752C48.7499 46.5919 48.6747 46.8018 48.5373 46.9693C48.3999 47.1368 48.2087 47.2515 47.9963 47.294L44.5875 47.9765C44.4019 48.7452 44.1544 49.5083 43.8413 50.2565L45.7312 52.3058C45.8549 52.4399 45.9368 52.6072 45.9668 52.7872C45.9969 52.9671 45.9738 53.1519 45.9003 53.3189C45.8269 53.4859 45.7063 53.6278 45.5534 53.7273C45.4004 53.8268 45.2218 53.8795 45.0394 53.879ZM30 53.8752C29.7514 53.8752 29.5129 53.7764 29.3371 53.6006C29.1613 53.4248 29.0625 53.1864 29.0625 52.9377C29.0625 52.6891 29.1613 52.4506 29.3371 52.2748C29.5129 52.099 29.7514 52.0002 30 52.0002C34.1362 52.0002 37.5 48.6365 37.5 44.5002C37.5 40.364 34.1362 37.0002 30 37.0002C28.6382 37.0024 27.3025 37.375 26.1362 38.0781C24.9699 38.7811 24.0168 39.7882 23.3789 40.9915C22.7411 42.1947 22.4426 43.5488 22.5153 44.9087C22.588 46.2686 23.0293 47.5831 23.7919 48.7115C23.9238 48.9169 23.9704 49.1658 23.9216 49.405C23.8729 49.6443 23.7328 49.8551 23.531 49.9927C23.3292 50.1302 23.0818 50.1836 22.8413 50.1414C22.6007 50.0993 22.3861 49.965 22.2431 49.7671C21.186 48.2143 20.6221 46.3787 20.625 44.5002C20.625 39.3308 24.8306 35.1252 30 35.1252C35.1694 35.1252 39.375 39.3308 39.375 44.5002C39.375 49.6696 35.1694 53.8752 30 53.8752Z" fill="#008080"/>
</svg>
