<svg width="60" height="60" viewBox="0 0 60 60" fill="none" xmlns="http://www.w3.org/2000/svg">
<path d="M53.4375 7.96875H51.5625C51.3139 7.96875 51.0754 8.06752 50.8996 8.24334C50.7238 8.41915 50.625 8.65761 50.625 8.90625C50.625 9.15489 50.7238 9.39335 50.8996 9.56916C51.0754 9.74498 51.3139 9.84375 51.5625 9.84375H53.4375C53.6861 9.844 53.9244 9.94285 54.1001 10.1186C54.2759 10.2944 54.3748 10.5327 54.375 10.7812V11.7188H31.875C31.6264 11.7188 31.388 11.8176 31.2122 11.9934L27.7369 15.4688H5.625V10.7812C5.62525 10.5327 5.7241 10.2944 5.89986 10.1186C6.07562 9.94285 6.31394 9.844 6.5625 9.84375H47.8125C48.0611 9.84375 48.2996 9.74498 48.4754 9.56916C48.6512 9.39335 48.75 9.15489 48.75 8.90625C48.75 8.65761 48.6512 8.41915 48.4754 8.24334C48.2996 8.06752 48.0611 7.96875 47.8125 7.96875H6.5625C5.81681 7.96949 5.10187 8.26605 4.57458 8.79333C4.0473 9.32062 3.75074 10.0356 3.75 10.7812V49.2188C3.75074 49.9644 4.0473 50.6794 4.57458 51.2067C5.10187 51.7339 5.81681 52.0305 6.5625 52.0312H8.4375C8.68614 52.0312 8.9246 51.9325 9.10041 51.7567C9.27623 51.5808 9.375 51.3424 9.375 51.0938C9.375 50.8451 9.27623 50.6067 9.10041 50.4308C8.9246 50.255 8.68614 50.1562 8.4375 50.1562H6.5625C6.31394 50.156 6.07562 50.0571 5.89986 49.8814C5.7241 49.7056 5.62525 49.4673 5.625 49.2188V17.3438H28.125C28.3736 17.3437 28.612 17.2449 28.7878 17.0691L32.2631 13.5938H54.375V49.2188C54.3748 49.4673 54.2759 49.7056 54.1001 49.8814C53.9244 50.0571 53.6861 50.156 53.4375 50.1562H12.1875C11.9389 50.1562 11.7004 50.255 11.5246 50.4308C11.3488 50.6067 11.25 50.8451 11.25 51.0938C11.25 51.3424 11.3488 51.5808 11.5246 51.7567C11.7004 51.9325 11.9389 52.0312 12.1875 52.0312H53.4375C54.1832 52.0305 54.8981 51.7339 55.4254 51.2067C55.9527 50.6794 56.2493 49.9644 56.25 49.2188V10.7812C56.2493 10.0356 55.9527 9.32062 55.4254 8.79333C54.8981 8.26605 54.1832 7.96949 53.4375 7.96875Z" fill="#008080"/>
<path d="M8.91406 11.7188C8.66459 11.72 8.42579 11.8201 8.25004 11.9972C8.07429 12.1743 7.97594 12.4138 7.97657 12.6633C7.97719 12.9127 8.07673 13.1518 8.25335 13.328C8.42998 13.5042 8.66927 13.6031 8.91875 13.6031C9.16823 13.6031 9.40752 13.5042 9.58415 13.328C9.76077 13.1518 9.86031 12.9127 9.86093 12.6633C9.86155 12.4138 9.76321 12.1743 9.58746 11.9972C9.41171 11.8201 9.17291 11.72 8.92344 11.7188H8.91406ZM13.6016 11.7188C13.3521 11.72 13.1133 11.8201 12.9375 11.9972C12.7618 12.1743 12.6634 12.4138 12.6641 12.6633C12.6647 12.9127 12.7642 13.1518 12.9409 13.328C13.1175 13.5042 13.3568 13.6031 13.6063 13.6031C13.8557 13.6031 14.095 13.5042 14.2716 13.328C14.4483 13.1518 14.5478 12.9127 14.5484 12.6633C14.5491 12.4138 14.4507 12.1743 14.275 11.9972C14.0992 11.8201 13.8604 11.72 13.6109 11.7188H13.6016ZM18.2891 11.7188C18.0396 11.72 17.8008 11.8201 17.625 11.9972C17.4493 12.1743 17.3509 12.4138 17.3516 12.6633C17.3522 12.9127 17.4517 13.1518 17.6284 13.328C17.805 13.5042 18.0443 13.6031 18.2937 13.6031C18.5432 13.6031 18.7825 13.5042 18.9591 13.328C19.1358 13.1518 19.2353 12.9127 19.2359 12.6633C19.2366 12.4138 19.1382 12.1743 18.9625 11.9972C18.7867 11.8201 18.5479 11.72 18.2984 11.7188H18.2891ZM42.8047 39.075H38.1078C37.8592 39.075 37.6207 39.1738 37.4449 39.3496C37.2691 39.5254 37.1703 39.7639 37.1703 40.0125C37.1703 40.2611 37.2691 40.4996 37.4449 40.6754C37.6207 40.8512 37.8592 40.95 38.1078 40.95H42.8047C43.8838 40.95 44.9187 40.5213 45.6817 39.7583C46.4448 38.9953 46.8734 37.9604 46.8734 36.8813C46.8734 35.8022 46.4448 34.7672 45.6817 34.0042C44.9187 33.2412 43.8838 32.8125 42.8047 32.8125H41.2391C40.6572 32.8125 40.0993 32.5814 39.6878 32.17C39.2764 31.7586 39.0453 31.2006 39.0453 30.6187C39.0453 30.0369 39.2764 29.4789 39.6878 29.0675C40.0993 28.6561 40.6572 28.425 41.2391 28.425H45.9359C46.1846 28.425 46.423 28.3262 46.5989 28.1504C46.7747 27.9746 46.8734 27.7361 46.8734 27.4875C46.8734 27.2389 46.7747 27.0004 46.5989 26.8246C46.423 26.6488 46.1846 26.55 45.9359 26.55H41.2391C40.16 26.55 39.1251 26.9787 38.362 27.7417C37.599 28.5047 37.1703 29.5396 37.1703 30.6187C37.1703 31.6978 37.599 32.7328 38.362 33.4958C39.1251 34.2588 40.16 34.6875 41.2391 34.6875H42.8047C43.3865 34.6875 43.9445 34.9186 44.3559 35.33C44.7673 35.7414 44.9984 36.2994 44.9984 36.8813C44.9984 37.4631 44.7673 38.0211 44.3559 38.4325C43.9445 38.8439 43.3865 39.075 42.8047 39.075ZM15.6312 28.425H20.3187C20.4016 28.4246 20.4837 28.4406 20.5604 28.4719C20.6371 28.5033 20.7069 28.5495 20.7657 28.6078C20.8246 28.6661 20.8713 28.7355 20.9034 28.8119C20.9354 28.8883 20.9521 28.9703 20.9525 29.0531C20.9525 29.3018 21.0513 29.5402 21.2271 29.716C21.4029 29.8919 21.6414 29.9906 21.89 29.9906C22.1386 29.9906 22.3771 29.8919 22.5529 29.716C22.7287 29.5402 22.8275 29.3018 22.8275 29.0531C22.826 28.3889 22.5612 27.7524 22.0911 27.2831C21.6209 26.8139 20.9839 26.5502 20.3197 26.55H15.6312C14.967 26.5502 14.33 26.8139 13.8599 27.2831C13.3898 27.7524 13.1249 28.3889 13.1234 29.0531V38.4469C13.1249 39.1111 13.3898 39.7476 13.8599 40.2169C14.33 40.6861 14.967 40.9498 15.6312 40.95H20.3187C20.9831 40.95 21.6204 40.6865 22.0907 40.2172C22.561 39.7479 22.826 39.1113 22.8275 38.4469C22.8275 38.1982 22.7287 37.9598 22.5529 37.784C22.3771 37.6081 22.1386 37.5094 21.89 37.5094C21.6414 37.5094 21.4029 37.6081 21.2271 37.784C21.0513 37.9598 20.9525 38.1982 20.9525 38.4469C20.9518 38.614 20.8847 38.7741 20.766 38.8919C20.6474 39.0096 20.4869 39.0755 20.3197 39.075H15.6312C15.4641 39.0755 15.3035 39.0096 15.1849 38.8919C15.0662 38.7741 14.9992 38.614 14.9984 38.4469V29.0531C14.9992 28.886 15.0662 28.7259 15.1849 28.6081C15.3035 28.4904 15.4641 28.4245 15.6312 28.425ZM33.9134 40.95C34.1621 40.95 34.4005 40.8512 34.5763 40.6754C34.7522 40.4996 34.8509 40.2611 34.8509 40.0125V27.4875C34.8509 27.2839 34.7847 27.0859 34.6622 26.9233C34.5397 26.7607 34.3676 26.6424 34.1719 26.5863C33.9762 26.5302 33.7676 26.5393 33.5775 26.6122C33.3875 26.6852 33.2263 26.818 33.1184 26.9906L29.9984 31.98L26.8784 26.9888C26.7705 26.8161 26.6094 26.6833 26.4193 26.6104C26.2293 26.5374 26.0207 26.5283 25.825 26.5844C25.6293 26.6406 25.4572 26.7589 25.3347 26.9214C25.2122 27.084 25.1459 27.2821 25.1459 27.4856V40.0125C25.1459 40.2611 25.2447 40.4996 25.4205 40.6754C25.5963 40.8512 25.8348 40.95 26.0834 40.95C26.3321 40.95 26.5705 40.8512 26.7463 40.6754C26.9222 40.4996 27.0209 40.2611 27.0209 40.0125V30.7547L29.2034 34.2459C29.2936 34.3729 29.4128 34.4764 29.5511 34.5478C29.6894 34.6192 29.8428 34.6565 29.9984 34.6565C30.1541 34.6565 30.3075 34.6192 30.4458 34.5478C30.5841 34.4764 30.7033 34.3729 30.7934 34.2459L32.9759 30.7547V40.0125C32.9759 40.2611 33.0747 40.4996 33.2505 40.6754C33.4263 40.8512 33.6648 40.95 33.9134 40.95Z" fill="#008080"/>
</svg>
