<svg width="60" height="60" viewBox="0 0 60 60" fill="none" xmlns="http://www.w3.org/2000/svg">
<path d="M55.3031 8.85449H4.69688C3.14063 8.85449 1.875 10.1201 1.875 11.6764V48.3232C1.875 49.8795 3.14063 51.1451 4.69688 51.1451H14.3034C14.5521 51.1451 14.7905 51.0463 14.9663 50.8705C15.1422 50.6947 15.2409 50.4563 15.2409 50.2076C15.2409 49.959 15.1422 49.7205 14.9663 49.5447C14.7905 49.3689 14.5521 49.2701 14.3034 49.2701H4.69688C4.17469 49.2701 3.75 48.8454 3.75 48.3232V18.0804H36.9713C37.2199 18.0804 37.4583 17.9817 37.6342 17.8058C37.81 17.63 37.9088 17.3916 37.9088 17.1429C37.9088 16.8943 37.81 16.6558 37.6342 16.48C37.4583 16.3042 37.2199 16.2054 36.9713 16.2054H18.5231L24 10.7286H55.3031C55.8253 10.7286 56.25 11.1532 56.25 11.6754V16.2054H41.2594C41.0107 16.2054 40.7723 16.3042 40.5965 16.48C40.4206 16.6558 40.3219 16.8943 40.3219 17.1429C40.3219 17.3916 40.4206 17.63 40.5965 17.8058C40.7723 17.9817 41.0107 18.0804 41.2594 18.0804H56.25V48.3214C56.25 48.8445 55.8253 49.2682 55.3031 49.2682H19.1597C18.911 49.2682 18.6726 49.367 18.4968 49.5428C18.321 49.7186 18.2222 49.9571 18.2222 50.2057C18.2222 50.4544 18.321 50.6928 18.4968 50.8687C18.6726 51.0445 18.911 51.1432 19.1597 51.1432H55.3031C56.8594 51.1432 58.125 49.8776 58.125 48.3214V11.6773C58.125 10.1211 56.8594 8.85543 55.3031 8.85543V8.85449ZM3.75 11.6764C3.75 11.1542 4.17469 10.7295 4.69688 10.7295H12.9881L7.51125 16.2064H3.75V11.6773V11.6764ZM15.8719 16.2064H10.1625L15.6394 10.7295H21.3487L15.8719 16.2064Z" fill="#008080"/>
<path d="M41.2575 14.4204H42.8728C43.1215 14.4204 43.3599 14.3216 43.5357 14.1458C43.7115 13.97 43.8103 13.7316 43.8103 13.4829C43.8103 13.2343 43.7115 12.9958 43.5357 12.82C43.3599 12.6442 43.1215 12.5454 42.8728 12.5454H41.2575C41.0089 12.5454 40.7704 12.6442 40.5946 12.82C40.4188 12.9958 40.32 13.2343 40.32 13.4829C40.32 13.7316 40.4188 13.97 40.5946 14.1458C40.7704 14.3216 41.0089 14.4204 41.2575 14.4204ZM47.4956 14.4204C47.7443 14.4204 47.9827 14.3216 48.1585 14.1458C48.3344 13.97 48.4331 13.7316 48.4331 13.4829C48.4331 13.2343 48.3344 12.9958 48.1585 12.82C47.9827 12.6442 47.7443 12.5454 47.4956 12.5454H45.8794C45.6307 12.5454 45.3923 12.6442 45.2165 12.82C45.0406 12.9958 44.9419 13.2343 44.9419 13.4829C44.9419 13.7316 45.0406 13.97 45.2165 14.1458C45.3923 14.3216 45.6307 14.4204 45.8794 14.4204H47.4956ZM52.1175 14.4204C52.3661 14.4204 52.6046 14.3216 52.7804 14.1458C52.9562 13.97 53.055 13.7316 53.055 13.4829C53.055 13.2343 52.9562 12.9958 52.7804 12.82C52.6046 12.6442 52.3661 12.5454 52.1175 12.5454H50.5022C50.2535 12.5454 50.0151 12.6442 49.8393 12.82C49.6635 12.9958 49.5647 13.2343 49.5647 13.4829C49.5647 13.7316 49.6635 13.97 49.8393 14.1458C50.0151 14.3216 50.2535 14.4204 50.5022 14.4204H52.1175ZM21.0647 44.8601C21.0647 44.5301 20.9972 44.217 20.8922 43.9226H24.7509C24.6399 44.2228 24.5815 44.54 24.5784 44.8601C24.5784 46.4107 25.8394 47.6726 27.3909 47.6726C28.9425 47.6726 30.2034 46.4107 30.2034 44.8601C30.2034 44.5301 30.1359 44.217 30.03 43.9226H31.3866C31.6352 43.9226 31.8737 43.8238 32.0495 43.648C32.2253 43.4722 32.3241 43.2337 32.3241 42.9851C32.3241 42.7365 32.2253 42.498 32.0495 42.3222C31.8737 42.1464 31.6352 42.0476 31.3866 42.0476H15.8466C15.6218 42.0488 15.4041 41.9687 15.2337 41.8221C15.0634 41.6755 14.9517 41.4722 14.9194 41.2498L14.6587 39.5145H31.3069C31.5315 39.5145 31.7486 39.4338 31.9188 39.2873C32.0889 39.1407 32.2008 38.9379 32.2341 38.7157L34.3744 24.4582C34.3947 24.3248 34.3858 24.1886 34.3485 24.0589C34.3112 23.9292 34.2463 23.8092 34.1582 23.7069C34.0702 23.6047 33.961 23.5227 33.8383 23.4666C33.7155 23.4105 33.5821 23.3817 33.4472 23.382H12.2372L11.8003 20.4757C11.7667 20.2541 11.6548 20.0519 11.4848 19.9057C11.3149 19.7595 11.0982 19.679 10.8741 19.6788H7.38281C7.13417 19.6788 6.89572 19.7776 6.7199 19.9534C6.54408 20.1293 6.44531 20.3677 6.44531 20.6163C6.44531 20.865 6.54408 21.1034 6.7199 21.2793C6.89572 21.4551 7.13417 21.5538 7.38281 21.5538H10.0669L13.065 41.5273C13.1568 42.1547 13.4599 42.732 13.9243 43.1637C14.3886 43.5955 14.9864 43.8559 15.6188 43.902C15.5091 44.202 15.4406 44.5226 15.4406 44.8601C15.4406 46.4107 16.7016 47.6726 18.2531 47.6726C19.8047 47.6726 21.0647 46.4107 21.0647 44.8601ZM13.9397 34.7295H18.4331L18.6244 37.6395H14.3775L13.9397 34.7295ZM25.8103 30.042L25.6256 32.8545H20.1891L20.0044 30.042H25.8103ZM19.8816 28.167L19.6903 25.257H26.1244L25.9331 28.167H19.8816ZM31.2178 32.8545H27.5053L27.6891 30.042H31.6406L31.2178 32.8545ZM25.5019 34.7295L25.3106 37.6395H20.5041L20.3128 34.7295H25.5019ZM18.3103 32.8545H13.6594L13.2375 30.042H18.1256L18.3103 32.8545ZM27.1903 37.6395L27.3816 34.7295H30.9356L30.4988 37.6395H27.1903ZM31.9219 28.167H27.8137L28.005 25.257H32.3597L31.9219 28.167ZM17.8106 25.256L18.0019 28.166H12.9553L12.5184 25.256H17.8106ZM28.3284 44.8592C28.3284 45.3757 27.9075 45.7967 27.3909 45.7967C26.8744 45.7967 26.4534 45.3757 26.4534 44.8592C26.4534 44.3426 26.8734 43.9217 27.3909 43.9217C27.9084 43.9217 28.3284 44.3426 28.3284 44.8592ZM17.3147 44.8592C17.3147 44.3426 17.7356 43.9217 18.2522 43.9217C18.7688 43.9217 19.1897 44.3426 19.1897 44.8592C19.1897 45.3757 18.7688 45.7967 18.2522 45.7967C17.7356 45.7967 17.3147 45.3757 17.3147 44.8592ZM40.0172 30.9373H51.6759C52.71 30.9373 53.5509 30.0963 53.5509 29.0623V25.256C53.5509 24.2229 52.71 23.381 51.6759 23.381H40.0172C38.9831 23.381 38.1422 24.2229 38.1422 25.256V29.0623C38.1422 30.0963 38.9831 30.9373 40.0172 30.9373ZM40.0172 25.256H51.6759L51.6769 29.0623H40.0181L40.0172 25.256ZM38.1422 38.3951C38.1422 39.4292 38.9831 40.2701 40.0172 40.2701H51.6759C52.71 40.2701 53.5509 39.4292 53.5509 38.3951V34.5898C53.5509 33.5557 52.71 32.7148 51.6759 32.7148H40.0172C38.9831 32.7148 38.1422 33.5557 38.1422 34.5898V38.3951ZM40.0172 34.5898H51.6759L51.6769 38.396H40.0181L40.0172 34.5898ZM39.0797 43.9226H52.6134C52.8621 43.9226 53.1005 43.8238 53.2763 43.648C53.4522 43.4722 53.5509 43.2337 53.5509 42.9851C53.5509 42.7365 53.4522 42.498 53.2763 42.3222C53.1005 42.1464 52.8621 42.0476 52.6134 42.0476H39.0797C38.831 42.0476 38.5926 42.1464 38.4168 42.3222C38.241 42.498 38.1422 42.7365 38.1422 42.9851C38.1422 43.2337 38.241 43.4722 38.4168 43.648C38.5926 43.8238 38.831 43.9226 39.0797 43.9226ZM39.0797 47.6726H52.6134C52.8621 47.6726 53.1005 47.5738 53.2763 47.398C53.4522 47.2222 53.5509 46.9837 53.5509 46.7351C53.5509 46.4865 53.4522 46.248 53.2763 46.0722C53.1005 45.8964 52.8621 45.7976 52.6134 45.7976H39.0797C38.831 45.7976 38.5926 45.8964 38.4168 46.0722C38.241 46.248 38.1422 46.4865 38.1422 46.7351C38.1422 46.9837 38.241 47.2222 38.4168 47.398C38.5926 47.5738 38.831 47.6726 39.0797 47.6726Z" fill="#008080"/>
</svg>
