<svg width="60" height="40" viewBox="0 0 60 40" fill="none" xmlns="http://www.w3.org/2000/svg">
<g clip-path="url(#clip0_6_881)">
<path d="M6.4807 26.2306C6.4807 28.5172 6.98367 30.2727 7.64086 31.3347C8.50266 32.7258 9.78773 33.3151 11.0981 33.3151C12.7882 33.3151 14.3344 32.8964 17.3138 28.7836C19.7009 25.4873 22.5136 20.8599 24.4059 17.9591L27.611 13.0444C29.8373 9.63134 32.4141 5.83719 35.3688 3.26526C37.7803 1.16608 40.3823 0 43.0008 0C47.3972 0 51.5848 2.54269 54.7898 7.31158C58.2973 12.5343 60 19.1127 60 25.9015C60 29.9373 59.2031 32.9027 57.8468 35.2456C56.5364 37.5113 53.9824 39.775 49.6863 39.775V33.3151C53.3648 33.3151 54.2829 29.9415 54.2829 26.0807C54.2829 20.5789 52.9976 14.473 50.1663 10.1104C48.1568 7.01567 45.5529 5.12491 42.6881 5.12491C39.5897 5.12491 37.0962 7.45708 34.294 11.6161C32.8043 13.8255 31.2748 16.5181 29.5577 19.5563L27.6673 22.8987C23.8697 29.6187 22.9078 31.1492 21.0091 33.6753C17.681 38.0987 14.8395 39.775 11.0981 39.775C6.66023 39.775 3.85359 37.8568 2.1157 34.9665C0.696797 32.6112 0 29.5209 0 25.9995L6.4807 26.2306Z" fill="#0081FB"/>
<path d="M5.10983 7.76749C8.08124 3.19673 12.3689 0 17.2868 0C20.1351 0 22.9664 0.841404 25.923 3.25076C29.1569 5.88491 32.6039 10.2227 36.9042 17.3719L38.4464 19.9373C42.1685 26.1266 44.2863 29.3104 45.5257 30.8122C47.1199 32.7404 48.2362 33.3151 49.6863 33.3151C53.3648 33.3151 54.2829 29.9415 54.2829 26.0807L60 25.9015C60 29.9373 59.2031 32.9027 57.8468 35.2456C56.5364 37.5113 53.9824 39.775 49.6863 39.775C47.0156 39.775 44.6496 39.196 42.033 36.7324C40.0216 34.8416 37.6701 31.4826 35.861 28.4629L30.4798 19.4917C27.78 14.9895 25.3031 11.6327 23.8699 10.1123C22.3282 8.47766 20.3458 6.50339 17.1827 6.50339C14.6226 6.50339 12.4483 8.29661 10.6289 11.0391L5.10983 7.76749Z" fill="url(#paint0_linear_6_881)"/>
<path d="M17.1825 6.50339C14.6224 6.50339 12.4481 8.29661 10.6287 11.0391C8.05617 14.9146 6.4807 20.687 6.4807 26.2306C6.4807 28.5172 6.98367 30.2727 7.64086 31.3347L2.1157 34.9665C0.696797 32.6112 0 29.5209 0 25.9995C0 19.5958 1.76109 12.9216 5.10984 7.76749C8.08125 3.19673 12.3689 0 17.2868 0L17.1825 6.50339Z" fill="url(#paint1_linear_6_881)"/>
</g>
<defs>
<linearGradient id="paint0_linear_6_881" x1="12.7275" y1="22.2477" x2="53.991" y2="24.3359" gradientUnits="userSpaceOnUse">
<stop stop-color="#0064E1"/>
<stop offset="0.4" stop-color="#0064E1"/>
<stop offset="0.83" stop-color="#0073EE"/>
<stop offset="1" stop-color="#0082FB"/>
</linearGradient>
<linearGradient id="paint1_linear_6_881" x1="9.38932" y1="28.946" x2="9.38932" y2="13.7443" gradientUnits="userSpaceOnUse">
<stop stop-color="#0082FB"/>
<stop offset="1" stop-color="#0064E0"/>
</linearGradient>
<clipPath id="clip0_6_881">
<rect width="60" height="40" fill="white"/>
</clipPath>
</defs>
</svg>
