<svg width="40" height="40" viewBox="0 0 40 40" fill="none" xmlns="http://www.w3.org/2000/svg">
<path d="M11.6666 20.0002C11.6666 20.4422 11.4911 20.8661 11.1785 21.1787C10.8659 21.4912 10.442 21.6668 9.99998 21.6668H4.99998C4.55795 21.6668 4.13403 21.4912 3.82147 21.1787C3.50891 20.8661 3.33331 20.4422 3.33331 20.0002C3.33331 19.5581 3.50891 19.1342 3.82147 18.8217C4.13403 18.5091 4.55795 18.3335 4.99998 18.3335H9.99998C10.442 18.3335 10.8659 18.5091 11.1785 18.8217C11.4911 19.1342 11.6666 19.5581 11.6666 20.0002ZM21.6666 5.00016V10.0002C21.6666 10.4422 21.4911 10.8661 21.1785 11.1787C20.8659 11.4912 20.442 11.6668 20 11.6668C19.558 11.6668 19.134 11.4912 18.8215 11.1787C18.5089 10.8661 18.3333 10.4422 18.3333 10.0002V5.00016C18.3333 4.55814 18.5089 4.13421 18.8215 3.82165C19.134 3.50909 19.558 3.3335 20 3.3335C20.442 3.3335 20.8659 3.50909 21.1785 3.82165C21.4911 4.13421 21.6666 4.55814 21.6666 5.00016ZM10.5116 8.15516L14.1783 11.8218C14.4819 12.1362 14.6499 12.5572 14.6461 12.9942C14.6423 13.4312 14.467 13.8492 14.158 14.1582C13.849 14.4672 13.431 14.6425 12.994 14.6463C12.557 14.6501 12.136 14.4821 11.8216 14.1785L8.15498 10.5118C7.85138 10.1975 7.68339 9.77649 7.68719 9.33949C7.69099 8.9025 7.86627 8.48448 8.17528 8.17547C8.4843 7.86645 8.90232 7.69117 9.33931 7.68737C9.77631 7.68358 10.1973 7.85157 10.5116 8.15516ZM31.845 8.15516C32.1574 8.46771 32.333 8.89156 32.333 9.3335C32.333 9.77544 32.1574 10.1993 31.845 10.5118L28.1783 14.1785C27.864 14.4821 27.443 14.6501 27.006 14.6463C26.569 14.6425 26.151 14.4672 25.8419 14.1582C25.5329 13.8492 25.3577 13.4312 25.3539 12.9942C25.3501 12.5572 25.518 12.1362 25.8216 11.8218L29.4883 8.15516C29.8009 7.84271 30.2247 7.66719 30.6666 7.66719C31.1086 7.66719 31.5324 7.84271 31.845 8.15516ZM14.1783 25.8218C14.4908 26.1344 14.6663 26.5582 14.6663 27.0002C14.6663 27.4421 14.4908 27.8659 14.1783 28.1785L10.5116 31.8452C10.3579 32.0043 10.174 32.1313 9.97065 32.2187C9.76731 32.306 9.54861 32.352 9.32731 32.3539C9.10602 32.3558 8.88655 32.3137 8.68172 32.2299C8.4769 32.1461 8.29081 32.0223 8.13432 31.8658C7.97783 31.7093 7.85408 31.5232 7.77028 31.3184C7.68648 31.1136 7.64431 30.8941 7.64623 30.6728C7.64815 30.4515 7.69413 30.2328 7.78148 30.0295C7.86883 29.8261 7.9958 29.6422 8.15498 29.4885L11.8216 25.8218C12.1342 25.5094 12.558 25.3339 13 25.3339C13.4419 25.3339 13.8658 25.5094 14.1783 25.8218ZM19.8783 18.3385L19.96 18.3335L20.1233 18.3385L20.285 18.3585L20.4466 18.3952L35.5266 23.4185C36.935 23.8885 37.0733 25.8268 35.745 26.4902L29.575 29.5752L26.4916 35.7452C25.8266 37.0735 23.8883 36.9352 23.4183 35.5285L18.4133 20.5102L18.3583 20.2852L18.3383 20.1235V19.8768L18.3583 19.7152L18.395 19.5535L18.445 19.3968L18.5116 19.2468L18.595 19.1068L18.7383 18.9118L18.85 18.7952L18.9116 18.7385L19.0383 18.6385L19.1733 18.5518L19.3183 18.4802L19.49 18.4135L19.715 18.3585L19.8783 18.3385Z" fill="white"/>
</svg>
