<svg width="25" height="25" viewBox="0 0 25 25" fill="none" xmlns="http://www.w3.org/2000/svg">
<path d="M13.3913 18.3912C13.6304 18.1512 13.75 17.8542 13.75 17.5C13.75 17.1458 13.63 16.8492 13.39 16.61C13.15 16.3708 12.8533 16.2508 12.5 16.25C12.1467 16.2492 11.85 16.3692 11.61 16.61C11.37 16.8508 11.25 17.1475 11.25 17.5C11.25 17.8525 11.37 18.1496 11.61 18.3912C11.85 18.6329 12.1467 18.7525 12.5 18.75C12.8533 18.7475 13.1504 18.6287 13.3913 18.3912ZM11.25 13.75H13.75V6.25H11.25V13.75ZM12.5 25C10.7708 25 9.14584 24.6717 7.625 24.015C6.10417 23.3583 4.78125 22.4679 3.65625 21.3438C2.53125 20.2196 1.64084 18.8967 0.985002 17.375C0.329168 15.8533 0.000834916 14.2283 1.58228e-06 12.5C-0.000831751 10.7717 0.327502 9.14667 0.985002 7.625C1.6425 6.10333 2.53292 4.78042 3.65625 3.65625C4.77958 2.53208 6.1025 1.64167 7.625 0.985C9.1475 0.328333 10.7725 0 12.5 0C14.2275 0 15.8525 0.328333 17.375 0.985C18.8975 1.64167 20.2204 2.53208 21.3438 3.65625C22.4671 4.78042 23.3579 6.10333 24.0163 7.625C24.6746 9.14667 25.0025 10.7717 25 12.5C24.9975 14.2283 24.6692 15.8533 24.015 17.375C23.3608 18.8967 22.4704 20.2196 21.3438 21.3438C20.2171 22.4679 18.8942 23.3587 17.375 24.0162C15.8558 24.6737 14.2308 25.0017 12.5 25ZM12.5 22.5C15.2917 22.5 17.6562 21.5312 19.5938 19.5938C21.5312 17.6562 22.5 15.2917 22.5 12.5C22.5 9.70833 21.5312 7.34375 19.5938 5.40625C17.6562 3.46875 15.2917 2.5 12.5 2.5C9.70833 2.5 7.34375 3.46875 5.40625 5.40625C3.46875 7.34375 2.5 9.70833 2.5 12.5C2.5 15.2917 3.46875 17.6562 5.40625 19.5938C7.34375 21.5312 9.70833 22.5 12.5 22.5Z" fill="black"/>
</svg>
