<svg width="46" height="46" viewBox="0 0 46 46" fill="none" xmlns="http://www.w3.org/2000/svg">
<g clip-path="url(#clip0_308_266)">
<g clip-path="url(#clip1_308_266)">
<g clip-path="url(#clip2_308_266)">
<path d="M22.5957 13.1602C25.5507 13.1602 27.9502 15.5586 27.9502 18.5137C27.9502 21.4688 25.5507 23.8672 22.5957 23.8672C19.6407 23.8672 17.2422 21.4687 17.2422 18.5137C17.2422 15.5586 19.6407 13.1602 22.5957 13.1602ZM22.5957 14.7852C20.5378 14.7852 18.8672 16.4558 18.8672 18.5137C18.8672 20.5716 20.5378 22.2422 22.5957 22.2422C24.6537 22.2422 26.3252 20.5716 26.3252 18.5137C26.3252 16.4558 24.6537 14.7852 22.5957 14.7852Z" fill="black" stroke="black" stroke-width="0.5"/>
<path d="M25.9785 27.3555C28.4141 27.3555 30.7497 28.3229 32.4717 30.0449C33.2627 30.8359 33.8945 31.7556 34.3467 32.7559C34.484 33.0598 34.4211 33.4181 34.1885 33.6572C31.2522 36.6818 27.1421 38.5625 22.5967 38.5625C18.0512 38.5624 13.9421 36.6809 11.0059 33.6562C10.7733 33.4171 10.7103 33.0598 10.8477 32.7559C11.2998 31.7558 11.9309 30.8358 12.7217 30.0449C14.4436 28.323 16.78 27.3556 19.2148 27.3555H25.9785ZM19.2148 28.9805C17.336 28.9806 15.5288 29.68 14.1426 30.9355L13.8711 31.1943C13.3543 31.7111 12.9207 32.2951 12.5771 32.9258C15.185 35.4107 18.7137 36.9374 22.5967 36.9375C26.4799 36.9375 30.0078 35.4109 32.6162 32.9258C32.3193 32.3807 31.9555 31.8702 31.5283 31.4082L31.3232 31.1943C29.906 29.7765 27.9828 28.9805 25.9785 28.9805H19.2148Z" fill="black" stroke="black" stroke-width="0.5"/>
<path d="M33.8789 5.4375C37.016 5.43772 39.5624 7.98398 39.5625 11.1211C39.5625 14.2577 37.016 16.8045 33.8789 16.8047C30.7421 16.8047 28.1953 14.2579 28.1953 11.1211C28.1954 7.98386 30.7422 5.4375 33.8789 5.4375ZM33.8789 7.0625C31.6394 7.0625 29.8204 8.88097 29.8203 11.1211C29.8203 13.3607 31.6393 15.1797 33.8789 15.1797C36.1189 15.1795 37.9375 13.3606 37.9375 11.1211C37.9374 8.88112 36.1188 7.06272 33.8789 7.0625Z" fill="black" stroke="black" stroke-width="0.5"/>
<path d="M22.5957 6.24512C25.2595 6.24512 27.7751 6.89159 29.9922 8.03613C30.1874 8.13684 30.334 8.312 30.3975 8.52246V8.52344C30.4605 8.73396 30.4362 8.96029 30.3301 9.15234L30.3291 9.15332C30.0047 9.73561 29.8203 10.4065 29.8203 11.1211C29.8203 13.3607 31.6393 15.1797 33.8789 15.1797C34.5936 15.1797 35.2644 14.9944 35.8467 14.6699H35.8477C36.0398 14.5638 36.266 14.5394 36.4766 14.6025C36.6872 14.666 36.8631 14.8124 36.9639 15.0078C38.1084 17.2248 38.7548 19.7397 38.7549 22.4033C38.7549 31.3215 31.5138 38.5625 22.5957 38.5625C13.6778 38.5623 6.4375 31.3213 6.4375 22.4033C6.43773 13.4855 13.6779 6.24535 22.5957 6.24512ZM22.5957 7.87012C14.575 7.87035 8.06273 14.3821 8.0625 22.4033C8.0625 30.4242 14.5749 36.9373 22.5957 36.9375C30.6172 36.9375 37.1299 30.4243 37.1299 22.4033C37.1298 20.2816 36.673 18.267 35.8545 16.4492C35.2389 16.6778 34.5736 16.8047 33.8789 16.8047C30.7421 16.8047 28.1953 14.2579 28.1953 11.1211C28.1953 10.4262 28.3211 9.76033 28.5498 9.14453C26.7321 8.3263 24.7172 7.87012 22.5957 7.87012Z" fill="black" stroke="black" stroke-width="0.5"/>
<path d="M35.5283 9.0498C35.8453 8.73287 36.3607 8.73301 36.6777 9.0498C36.9757 9.34703 36.9941 9.81868 36.7334 10.1377L36.6777 10.1992L33.6855 13.1914C33.3684 13.5088 32.8544 13.5084 32.5371 13.1914L31.0801 11.7344C30.7626 11.4169 30.7621 10.9021 31.0801 10.585H31.0811C31.3982 10.268 31.9114 10.2682 32.2285 10.585L33.1104 11.4668L35.5283 9.0498Z" fill="black" stroke="black" stroke-width="0.5"/>
</g>
</g>
</g>
<defs>
<clipPath id="clip0_308_266">
<rect width="45" height="45" fill="white" transform="translate(0.810547 0.65918)"/>
</clipPath>
<clipPath id="clip1_308_266">
<rect width="45" height="45" fill="white" transform="translate(0.810547 0.65918)"/>
</clipPath>
<clipPath id="clip2_308_266">
<rect width="45" height="45" fill="white" transform="translate(0.810547 0.65918)"/>
</clipPath>
</defs>
</svg>
