<svg width="39" height="45" viewBox="0 0 39 45" fill="none" xmlns="http://www.w3.org/2000/svg">
<g clip-path="url(#clip0_308_253)">
<path d="M2.39062 21.8942V39.2412C2.39062 40.9527 3.77838 42.3405 5.5362 42.3405H27.4627C29.1743 42.3405 30.6083 40.9527 30.6083 39.2412V21.8942C30.6083 20.1827 29.2205 18.7949 27.4627 18.7949H21.1253V21.1078H27.4627C27.9253 21.1078 28.2953 21.4779 28.2953 21.8942V39.2412C28.2953 39.7037 27.9253 40.0275 27.4627 40.0275H5.5362C5.07361 40.0275 4.70355 39.6575 4.70355 39.2412V21.8942C4.70355 21.4317 5.07361 21.1078 5.5362 21.1078H10.9484V18.7949H5.5362C3.77838 18.7949 2.39062 20.1827 2.39062 21.8942Z" fill="black"/>
<path d="M15.1121 8.34082V26.1966L12.1515 23.6524L10.625 25.4102L15.4821 29.5734C15.7134 29.7585 15.9447 29.851 16.2223 29.851C16.4998 29.851 16.7774 29.7585 16.9624 29.5734L21.8195 25.4102L20.293 23.6524L17.425 26.1966V8.34082H15.1121Z" fill="black"/>
</g>
<defs>
<clipPath id="clip0_308_253">
<rect width="45" height="45" fill="white" transform="translate(-6)"/>
</clipPath>
</defs>
</svg>
