<svg width="17" height="18" viewBox="0 0 17 18" fill="none" xmlns="http://www.w3.org/2000/svg">
<g clip-path="url(#clip0_97_14)">
<path d="M9.62984 13.8853L14.1375 9.35425L9.62984 4.82318C9.58913 4.76972 9.53741 4.72564 9.47818 4.6939C9.41895 4.66217 9.35359 4.64353 9.28653 4.63925C9.21947 4.63497 9.15228 4.64515 9.08949 4.6691C9.02671 4.69305 8.96981 4.73021 8.92263 4.77806C8.87546 4.82591 8.83912 4.88334 8.81607 4.94646C8.79302 5.00958 8.7838 5.07692 8.78904 5.14391C8.79427 5.2109 8.81384 5.27598 8.84642 5.33475C8.87899 5.39352 8.92382 5.44461 8.97785 5.48455L12.3504 8.8852L3.37734 8.8852C3.25294 8.8852 3.13363 8.93461 3.04567 9.02258C2.9577 9.11054 2.90828 9.22985 2.90828 9.35425C2.90828 9.47865 2.9577 9.59796 3.04567 9.68592C3.13363 9.77389 3.25294 9.82331 3.37734 9.82331L12.3504 9.82331L8.97785 13.224C8.89015 13.3123 8.84112 13.4318 8.84156 13.5563C8.842 13.6808 8.89187 13.8 8.9802 13.8877C9.06852 13.9754 9.18807 14.0244 9.31254 14.024C9.43701 14.0235 9.55621 13.9736 9.64391 13.8853L9.62984 13.8853Z" fill="white"/>
</g>
<defs>
<clipPath id="clip0_97_14">
<rect width="16.886" height="16.886" fill="white" transform="translate(16.9518 0.91127) rotate(90)"/>
</clipPath>
</defs>
</svg>
