<svg width="510" height="510" viewBox="0 0 510 510" fill="none" xmlns="http://www.w3.org/2000/svg">
<g style="mix-blend-mode:multiply">
<path d="M257.242 372.648C167.546 372.648 94.8333 299.935 94.8333 210.24C94.8333 120.544 167.546 47.8311 257.242 47.8311C346.938 47.8311 419.65 120.544 419.65 210.24C419.65 299.935 346.938 372.648 257.242 372.648Z" stroke="#8398FF" stroke-width="6.05093" stroke-miterlimit="10"/>
</g>
<g style="mix-blend-mode:multiply">
<path d="M257.241 327.085C192.71 327.085 140.396 274.772 140.396 210.24C140.396 145.709 192.71 93.3955 257.241 93.3955C321.773 93.3955 374.086 145.709 374.086 210.24C374.086 274.772 321.773 327.085 257.241 327.085Z" stroke="#8398FF" stroke-width="6.05093" stroke-miterlimit="10"/>
</g>
<path d="M0 10C0 4.47715 4.47715 0 10 0H510V510H10C4.47715 510 0 505.523 0 500V10Z" fill="url(#paint0_linear_237_2)"/>
<path d="M111.112 419.364H112.726L115.953 424.795H116.089L119.317 419.364H120.93L116.726 426.205V431H115.317V426.205L111.112 419.364ZM124.882 431.182C124.094 431.182 123.403 430.994 122.808 430.619C122.217 430.244 121.755 429.72 121.422 429.045C121.092 428.371 120.928 427.583 120.928 426.682C120.928 425.773 121.092 424.979 121.422 424.301C121.755 423.623 122.217 423.097 122.808 422.722C123.403 422.347 124.094 422.159 124.882 422.159C125.67 422.159 126.359 422.347 126.95 422.722C127.545 423.097 128.007 423.623 128.337 424.301C128.67 424.979 128.837 425.773 128.837 426.682C128.837 427.583 128.67 428.371 128.337 429.045C128.007 429.72 127.545 430.244 126.95 430.619C126.359 430.994 125.67 431.182 124.882 431.182ZM124.882 429.977C125.481 429.977 125.973 429.824 126.359 429.517C126.746 429.21 127.032 428.807 127.217 428.307C127.403 427.807 127.496 427.265 127.496 426.682C127.496 426.098 127.403 425.555 127.217 425.051C127.032 424.547 126.746 424.14 126.359 423.83C125.973 423.519 125.481 423.364 124.882 423.364C124.284 423.364 123.791 423.519 123.405 423.83C123.018 424.14 122.732 424.547 122.547 425.051C122.361 425.555 122.268 426.098 122.268 426.682C122.268 427.265 122.361 427.807 122.547 428.307C122.732 428.807 123.018 429.21 123.405 429.517C123.791 429.824 124.284 429.977 124.882 429.977ZM136.384 427.432V422.273H137.724V431H136.384V429.523H136.293C136.088 429.966 135.77 430.343 135.338 430.653C134.906 430.96 134.361 431.114 133.702 431.114C133.156 431.114 132.671 430.994 132.247 430.756C131.823 430.513 131.49 430.15 131.247 429.665C131.005 429.176 130.884 428.561 130.884 427.818V422.273H132.224V427.727C132.224 428.364 132.402 428.871 132.759 429.25C133.118 429.629 133.577 429.818 134.134 429.818C134.467 429.818 134.806 429.733 135.151 429.562C135.499 429.392 135.791 429.131 136.026 428.778C136.264 428.426 136.384 427.977 136.384 427.432ZM140.18 431V422.273H141.476V423.591H141.567C141.726 423.159 142.014 422.809 142.43 422.54C142.847 422.271 143.317 422.136 143.839 422.136C143.938 422.136 144.061 422.138 144.209 422.142C144.357 422.146 144.468 422.152 144.544 422.159V423.523C144.499 423.511 144.394 423.494 144.232 423.472C144.072 423.445 143.904 423.432 143.726 423.432C143.302 423.432 142.923 423.521 142.589 423.699C142.26 423.873 141.999 424.116 141.805 424.426C141.616 424.733 141.521 425.083 141.521 425.477V431H140.18ZM150.815 431V419.364H152.156V423.659H152.27C152.368 423.508 152.505 423.314 152.679 423.08C152.857 422.841 153.111 422.629 153.44 422.443C153.774 422.254 154.224 422.159 154.793 422.159C155.527 422.159 156.175 422.343 156.736 422.71C157.296 423.078 157.734 423.598 158.048 424.273C158.363 424.947 158.52 425.742 158.52 426.659C158.52 427.583 158.363 428.384 158.048 429.062C157.734 429.737 157.298 430.259 156.741 430.631C156.185 430.998 155.543 431.182 154.815 431.182C154.255 431.182 153.806 431.089 153.469 430.903C153.132 430.714 152.872 430.5 152.69 430.261C152.509 430.019 152.368 429.818 152.27 429.659H152.111V431H150.815ZM152.134 426.636C152.134 427.295 152.23 427.877 152.423 428.381C152.616 428.881 152.899 429.273 153.27 429.557C153.641 429.837 154.096 429.977 154.634 429.977C155.194 429.977 155.662 429.83 156.037 429.534C156.416 429.235 156.7 428.833 156.889 428.33C157.082 427.822 157.179 427.258 157.179 426.636C157.179 426.023 157.084 425.47 156.895 424.977C156.709 424.481 156.427 424.089 156.048 423.801C155.673 423.509 155.202 423.364 154.634 423.364C154.088 423.364 153.63 423.502 153.259 423.778C152.887 424.051 152.607 424.434 152.418 424.926C152.228 425.415 152.134 425.985 152.134 426.636ZM166.071 427.432V422.273H167.412V431H166.071V429.523H165.98C165.776 429.966 165.457 430.343 165.026 430.653C164.594 430.96 164.048 431.114 163.389 431.114C162.844 431.114 162.359 430.994 161.935 430.756C161.51 430.513 161.177 430.15 160.935 429.665C160.692 429.176 160.571 428.561 160.571 427.818V422.273H161.912V427.727C161.912 428.364 162.09 428.871 162.446 429.25C162.806 429.629 163.264 429.818 163.821 429.818C164.154 429.818 164.493 429.733 164.838 429.562C165.187 429.392 165.478 429.131 165.713 428.778C165.952 428.426 166.071 427.977 166.071 427.432ZM176.05 424.227L174.845 424.568C174.769 424.367 174.658 424.172 174.51 423.983C174.366 423.79 174.169 423.631 173.919 423.506C173.669 423.381 173.349 423.318 172.959 423.318C172.425 423.318 171.98 423.441 171.624 423.688C171.271 423.93 171.095 424.239 171.095 424.614C171.095 424.947 171.216 425.21 171.459 425.403C171.701 425.597 172.08 425.758 172.595 425.886L173.891 426.205C174.671 426.394 175.252 426.684 175.635 427.074C176.018 427.46 176.209 427.958 176.209 428.568C176.209 429.068 176.065 429.515 175.777 429.909C175.493 430.303 175.095 430.614 174.584 430.841C174.072 431.068 173.478 431.182 172.8 431.182C171.91 431.182 171.173 430.989 170.589 430.602C170.006 430.216 169.637 429.652 169.482 428.909L170.754 428.591C170.875 429.061 171.105 429.413 171.442 429.648C171.783 429.883 172.228 430 172.777 430C173.402 430 173.898 429.867 174.266 429.602C174.637 429.333 174.822 429.011 174.822 428.636C174.822 428.333 174.716 428.08 174.504 427.875C174.292 427.667 173.966 427.511 173.527 427.409L172.072 427.068C171.273 426.879 170.686 426.585 170.311 426.188C169.94 425.786 169.754 425.284 169.754 424.682C169.754 424.189 169.893 423.754 170.169 423.375C170.449 422.996 170.83 422.699 171.311 422.483C171.796 422.267 172.345 422.159 172.959 422.159C173.822 422.159 174.5 422.348 174.993 422.727C175.489 423.106 175.841 423.606 176.05 424.227ZM178.227 431V422.273H179.568V431H178.227ZM178.909 420.818C178.648 420.818 178.422 420.729 178.233 420.551C178.047 420.373 177.955 420.159 177.955 419.909C177.955 419.659 178.047 419.445 178.233 419.267C178.422 419.089 178.648 419 178.909 419C179.17 419 179.394 419.089 179.58 419.267C179.769 419.445 179.864 419.659 179.864 419.909C179.864 420.159 179.769 420.373 179.58 420.551C179.394 420.729 179.17 420.818 178.909 420.818ZM183.365 425.75V431H182.024V422.273H183.32V423.636H183.433C183.638 423.193 183.948 422.837 184.365 422.568C184.782 422.295 185.32 422.159 185.979 422.159C186.57 422.159 187.087 422.28 187.53 422.523C187.973 422.761 188.318 423.125 188.564 423.614C188.81 424.098 188.933 424.712 188.933 425.455V431H187.592V425.545C187.592 424.86 187.414 424.326 187.058 423.943C186.702 423.557 186.214 423.364 185.592 423.364C185.164 423.364 184.782 423.456 184.445 423.642C184.111 423.828 183.848 424.098 183.655 424.455C183.462 424.811 183.365 425.242 183.365 425.75ZM195.043 431.182C194.202 431.182 193.476 430.996 192.866 430.625C192.26 430.25 191.793 429.727 191.463 429.057C191.137 428.383 190.974 427.598 190.974 426.705C190.974 425.811 191.137 425.023 191.463 424.341C191.793 423.655 192.251 423.121 192.838 422.739C193.429 422.352 194.118 422.159 194.906 422.159C195.361 422.159 195.81 422.235 196.253 422.386C196.696 422.538 197.099 422.784 197.463 423.125C197.827 423.462 198.116 423.909 198.332 424.466C198.548 425.023 198.656 425.708 198.656 426.523V427.091H191.929V425.932H197.293C197.293 425.439 197.194 425 196.997 424.614C196.804 424.227 196.527 423.922 196.168 423.699C195.812 423.475 195.391 423.364 194.906 423.364C194.372 423.364 193.91 423.496 193.52 423.761C193.134 424.023 192.836 424.364 192.628 424.784C192.42 425.205 192.315 425.655 192.315 426.136V426.909C192.315 427.568 192.429 428.127 192.656 428.585C192.887 429.04 193.207 429.386 193.616 429.625C194.026 429.86 194.501 429.977 195.043 429.977C195.395 429.977 195.713 429.928 195.997 429.83C196.285 429.727 196.533 429.576 196.741 429.375C196.95 429.17 197.111 428.917 197.224 428.614L198.52 428.977C198.384 429.417 198.154 429.803 197.832 430.136C197.51 430.466 197.113 430.723 196.639 430.909C196.166 431.091 195.634 431.182 195.043 431.182ZM206.878 424.227L205.673 424.568C205.598 424.367 205.486 424.172 205.338 423.983C205.194 423.79 204.997 423.631 204.747 423.506C204.497 423.381 204.177 423.318 203.787 423.318C203.253 423.318 202.808 423.441 202.452 423.688C202.099 423.93 201.923 424.239 201.923 424.614C201.923 424.947 202.045 425.21 202.287 425.403C202.529 425.597 202.908 425.758 203.423 425.886L204.719 426.205C205.499 426.394 206.08 426.684 206.463 427.074C206.846 427.46 207.037 427.958 207.037 428.568C207.037 429.068 206.893 429.515 206.605 429.909C206.321 430.303 205.923 430.614 205.412 430.841C204.901 431.068 204.306 431.182 203.628 431.182C202.738 431.182 202.001 430.989 201.418 430.602C200.834 430.216 200.465 429.652 200.31 428.909L201.582 428.591C201.704 429.061 201.933 429.413 202.27 429.648C202.611 429.883 203.056 430 203.605 430C204.23 430 204.726 429.867 205.094 429.602C205.465 429.333 205.651 429.011 205.651 428.636C205.651 428.333 205.545 428.08 205.332 427.875C205.12 427.667 204.795 427.511 204.355 427.409L202.901 427.068C202.101 426.879 201.514 426.585 201.139 426.188C200.768 425.786 200.582 425.284 200.582 424.682C200.582 424.189 200.721 423.754 200.997 423.375C201.277 422.996 201.658 422.699 202.139 422.483C202.624 422.267 203.173 422.159 203.787 422.159C204.651 422.159 205.329 422.348 205.821 422.727C206.317 423.106 206.67 423.606 206.878 424.227ZM215.237 424.227L214.033 424.568C213.957 424.367 213.845 424.172 213.697 423.983C213.554 423.79 213.357 423.631 213.107 423.506C212.857 423.381 212.536 423.318 212.146 423.318C211.612 423.318 211.167 423.441 210.811 423.688C210.459 423.93 210.283 424.239 210.283 424.614C210.283 424.947 210.404 425.21 210.646 425.403C210.889 425.597 211.268 425.758 211.783 425.886L213.078 426.205C213.858 426.394 214.44 426.684 214.822 427.074C215.205 427.46 215.396 427.958 215.396 428.568C215.396 429.068 215.252 429.515 214.964 429.909C214.68 430.303 214.283 430.614 213.771 430.841C213.26 431.068 212.665 431.182 211.987 431.182C211.097 431.182 210.36 430.989 209.777 430.602C209.194 430.216 208.824 429.652 208.669 428.909L209.942 428.591C210.063 429.061 210.292 429.413 210.629 429.648C210.97 429.883 211.415 430 211.964 430C212.589 430 213.086 429.867 213.453 429.602C213.824 429.333 214.01 429.011 214.01 428.636C214.01 428.333 213.904 428.08 213.692 427.875C213.48 427.667 213.154 427.511 212.714 427.409L211.26 427.068C210.461 426.879 209.874 426.585 209.499 426.188C209.127 425.786 208.942 425.284 208.942 424.682C208.942 424.189 209.08 423.754 209.357 423.375C209.637 422.996 210.018 422.699 210.499 422.483C210.983 422.267 211.533 422.159 212.146 422.159C213.01 422.159 213.688 422.348 214.18 422.727C214.677 423.106 215.029 423.606 215.237 424.227ZM225.21 431.182C224.483 431.182 223.841 430.998 223.284 430.631C222.727 430.259 222.292 429.737 221.977 429.062C221.663 428.384 221.506 427.583 221.506 426.659C221.506 425.742 221.663 424.947 221.977 424.273C222.292 423.598 222.729 423.078 223.29 422.71C223.85 422.343 224.498 422.159 225.233 422.159C225.801 422.159 226.25 422.254 226.58 422.443C226.913 422.629 227.167 422.841 227.341 423.08C227.519 423.314 227.657 423.508 227.756 423.659H227.869V419.364H229.21V431H227.915V429.659H227.756C227.657 429.818 227.517 430.019 227.335 430.261C227.153 430.5 226.894 430.714 226.557 430.903C226.22 431.089 225.771 431.182 225.21 431.182ZM225.392 429.977C225.93 429.977 226.384 429.837 226.756 429.557C227.127 429.273 227.409 428.881 227.602 428.381C227.795 427.877 227.892 427.295 227.892 426.636C227.892 425.985 227.797 425.415 227.608 424.926C227.419 424.434 227.138 424.051 226.767 423.778C226.396 423.502 225.938 423.364 225.392 423.364C224.824 423.364 224.35 423.509 223.972 423.801C223.597 424.089 223.314 424.481 223.125 424.977C222.939 425.47 222.847 426.023 222.847 426.636C222.847 427.258 222.941 427.822 223.131 428.33C223.324 428.833 223.608 429.235 223.983 429.534C224.362 429.83 224.831 429.977 225.392 429.977ZM235.511 431.182C234.67 431.182 233.945 430.996 233.335 430.625C232.729 430.25 232.261 429.727 231.932 429.057C231.606 428.383 231.443 427.598 231.443 426.705C231.443 425.811 231.606 425.023 231.932 424.341C232.261 423.655 232.72 423.121 233.307 422.739C233.898 422.352 234.587 422.159 235.375 422.159C235.83 422.159 236.278 422.235 236.722 422.386C237.165 422.538 237.568 422.784 237.932 423.125C238.295 423.462 238.585 423.909 238.801 424.466C239.017 425.023 239.125 425.708 239.125 426.523V427.091H232.398V425.932H237.761C237.761 425.439 237.663 425 237.466 424.614C237.273 424.227 236.996 423.922 236.636 423.699C236.28 423.475 235.86 423.364 235.375 423.364C234.841 423.364 234.379 423.496 233.989 423.761C233.602 424.023 233.305 424.364 233.097 424.784C232.888 425.205 232.784 425.655 232.784 426.136V426.909C232.784 427.568 232.898 428.127 233.125 428.585C233.356 429.04 233.676 429.386 234.085 429.625C234.494 429.86 234.97 429.977 235.511 429.977C235.864 429.977 236.182 429.928 236.466 429.83C236.754 429.727 237.002 429.576 237.21 429.375C237.419 429.17 237.58 428.917 237.693 428.614L238.989 428.977C238.852 429.417 238.623 429.803 238.301 430.136C237.979 430.466 237.581 430.723 237.108 430.909C236.634 431.091 236.102 431.182 235.511 431.182ZM247.347 424.227L246.142 424.568C246.066 424.367 245.955 424.172 245.807 423.983C245.663 423.79 245.466 423.631 245.216 423.506C244.966 423.381 244.646 423.318 244.256 423.318C243.722 423.318 243.277 423.441 242.92 423.688C242.568 423.93 242.392 424.239 242.392 424.614C242.392 424.947 242.513 425.21 242.756 425.403C242.998 425.597 243.377 425.758 243.892 425.886L245.188 426.205C245.968 426.394 246.549 426.684 246.932 427.074C247.314 427.46 247.506 427.958 247.506 428.568C247.506 429.068 247.362 429.515 247.074 429.909C246.79 430.303 246.392 430.614 245.881 430.841C245.369 431.068 244.775 431.182 244.097 431.182C243.206 431.182 242.47 430.989 241.886 430.602C241.303 430.216 240.934 429.652 240.778 428.909L242.051 428.591C242.172 429.061 242.402 429.413 242.739 429.648C243.08 429.883 243.525 430 244.074 430C244.699 430 245.195 429.867 245.562 429.602C245.934 429.333 246.119 429.011 246.119 428.636C246.119 428.333 246.013 428.08 245.801 427.875C245.589 427.667 245.263 427.511 244.824 427.409L243.369 427.068C242.57 426.879 241.983 426.585 241.608 426.188C241.237 425.786 241.051 425.284 241.051 424.682C241.051 424.189 241.189 423.754 241.466 423.375C241.746 422.996 242.127 422.699 242.608 422.483C243.093 422.267 243.642 422.159 244.256 422.159C245.119 422.159 245.797 422.348 246.29 422.727C246.786 423.106 247.138 423.606 247.347 424.227ZM253.183 431.182C252.342 431.182 251.617 430.996 251.007 430.625C250.401 430.25 249.933 429.727 249.604 429.057C249.278 428.383 249.115 427.598 249.115 426.705C249.115 425.811 249.278 425.023 249.604 424.341C249.933 423.655 250.392 423.121 250.979 422.739C251.57 422.352 252.259 422.159 253.047 422.159C253.501 422.159 253.95 422.235 254.393 422.386C254.837 422.538 255.24 422.784 255.604 423.125C255.967 423.462 256.257 423.909 256.473 424.466C256.689 425.023 256.797 425.708 256.797 426.523V427.091H250.07V425.932H255.433C255.433 425.439 255.335 425 255.138 424.614C254.945 424.227 254.668 423.922 254.308 423.699C253.952 423.475 253.532 423.364 253.047 423.364C252.513 423.364 252.051 423.496 251.661 423.761C251.274 424.023 250.977 424.364 250.768 424.784C250.56 425.205 250.456 425.655 250.456 426.136V426.909C250.456 427.568 250.57 428.127 250.797 428.585C251.028 429.04 251.348 429.386 251.757 429.625C252.166 429.86 252.642 429.977 253.183 429.977C253.536 429.977 253.854 429.928 254.138 429.83C254.426 429.727 254.674 429.576 254.882 429.375C255.09 429.17 255.251 428.917 255.365 428.614L256.661 428.977C256.524 429.417 256.295 429.803 255.973 430.136C255.651 430.466 255.253 430.723 254.78 430.909C254.306 431.091 253.774 431.182 253.183 431.182ZM258.837 431V422.273H260.132V423.591H260.223C260.382 423.159 260.67 422.809 261.087 422.54C261.503 422.271 261.973 422.136 262.496 422.136C262.594 422.136 262.717 422.138 262.865 422.142C263.013 422.146 263.125 422.152 263.2 422.159V423.523C263.155 423.511 263.051 423.494 262.888 423.472C262.729 423.445 262.56 423.432 262.382 423.432C261.958 423.432 261.579 423.521 261.246 423.699C260.916 423.873 260.655 424.116 260.462 424.426C260.272 424.733 260.178 425.083 260.178 425.477V431H258.837ZM272.192 422.273L268.964 431H267.601L264.374 422.273H265.828L268.237 429.227H268.328L270.737 422.273H272.192ZM277.308 431.182C276.467 431.182 275.742 430.996 275.132 430.625C274.526 430.25 274.058 429.727 273.729 429.057C273.403 428.383 273.24 427.598 273.24 426.705C273.24 425.811 273.403 425.023 273.729 424.341C274.058 423.655 274.517 423.121 275.104 422.739C275.695 422.352 276.384 422.159 277.172 422.159C277.626 422.159 278.075 422.235 278.518 422.386C278.962 422.538 279.365 422.784 279.729 423.125C280.092 423.462 280.382 423.909 280.598 424.466C280.814 425.023 280.922 425.708 280.922 426.523V427.091H274.195V425.932H279.558C279.558 425.439 279.46 425 279.263 424.614C279.07 424.227 278.793 423.922 278.433 423.699C278.077 423.475 277.657 423.364 277.172 423.364C276.638 423.364 276.176 423.496 275.786 423.761C275.399 424.023 275.102 424.364 274.893 424.784C274.685 425.205 274.581 425.655 274.581 426.136V426.909C274.581 427.568 274.695 428.127 274.922 428.585C275.153 429.04 275.473 429.386 275.882 429.625C276.291 429.86 276.767 429.977 277.308 429.977C277.661 429.977 277.979 429.928 278.263 429.83C278.551 429.727 278.799 429.576 279.007 429.375C279.215 429.17 279.376 428.917 279.49 428.614L280.786 428.977C280.649 429.417 280.42 429.803 280.098 430.136C279.776 430.466 279.378 430.723 278.905 430.909C278.431 431.091 277.899 431.182 277.308 431.182ZM289.143 424.227L287.939 424.568C287.863 424.367 287.751 424.172 287.604 423.983C287.46 423.79 287.263 423.631 287.013 423.506C286.763 423.381 286.443 423.318 286.053 423.318C285.518 423.318 285.073 423.441 284.717 423.688C284.365 423.93 284.189 424.239 284.189 424.614C284.189 424.947 284.31 425.21 284.553 425.403C284.795 425.597 285.174 425.758 285.689 425.886L286.984 426.205C287.765 426.394 288.346 426.684 288.729 427.074C289.111 427.46 289.303 427.958 289.303 428.568C289.303 429.068 289.159 429.515 288.871 429.909C288.587 430.303 288.189 430.614 287.678 430.841C287.166 431.068 286.571 431.182 285.893 431.182C285.003 431.182 284.267 430.989 283.683 430.602C283.1 430.216 282.731 429.652 282.575 428.909L283.848 428.591C283.969 429.061 284.198 429.413 284.536 429.648C284.876 429.883 285.321 430 285.871 430C286.496 430 286.992 429.867 287.359 429.602C287.731 429.333 287.916 429.011 287.916 428.636C287.916 428.333 287.81 428.08 287.598 427.875C287.386 427.667 287.06 427.511 286.621 427.409L285.166 427.068C284.367 426.879 283.78 426.585 283.405 426.188C283.034 425.786 282.848 425.284 282.848 424.682C282.848 424.189 282.986 423.754 283.263 423.375C283.543 422.996 283.924 422.699 284.405 422.483C284.89 422.267 285.439 422.159 286.053 422.159C286.916 422.159 287.594 422.348 288.087 422.727C288.583 423.106 288.935 423.606 289.143 424.227ZM299.616 422.273V423.409H295.094V422.273H299.616ZM296.412 420.182H297.753V428.5C297.753 428.879 297.808 429.163 297.918 429.352C298.031 429.538 298.175 429.663 298.349 429.727C298.527 429.788 298.715 429.818 298.912 429.818C299.06 429.818 299.181 429.811 299.276 429.795C299.37 429.777 299.446 429.761 299.503 429.75L299.776 430.955C299.685 430.989 299.558 431.023 299.395 431.057C299.232 431.095 299.026 431.114 298.776 431.114C298.397 431.114 298.026 431.032 297.662 430.869C297.302 430.706 297.003 430.458 296.764 430.125C296.529 429.792 296.412 429.371 296.412 428.864V420.182ZM305.085 431.182C304.297 431.182 303.606 430.994 303.011 430.619C302.42 430.244 301.958 429.72 301.625 429.045C301.295 428.371 301.131 427.583 301.131 426.682C301.131 425.773 301.295 424.979 301.625 424.301C301.958 423.623 302.42 423.097 303.011 422.722C303.606 422.347 304.297 422.159 305.085 422.159C305.873 422.159 306.563 422.347 307.153 422.722C307.748 423.097 308.21 423.623 308.54 424.301C308.873 424.979 309.04 425.773 309.04 426.682C309.04 427.583 308.873 428.371 308.54 429.045C308.21 429.72 307.748 430.244 307.153 430.619C306.563 430.994 305.873 431.182 305.085 431.182ZM305.085 429.977C305.684 429.977 306.176 429.824 306.562 429.517C306.949 429.21 307.235 428.807 307.42 428.307C307.606 427.807 307.699 427.265 307.699 426.682C307.699 426.098 307.606 425.555 307.42 425.051C307.235 424.547 306.949 424.14 306.562 423.83C306.176 423.519 305.684 423.364 305.085 423.364C304.487 423.364 303.994 423.519 303.608 423.83C303.222 424.14 302.936 424.547 302.75 425.051C302.564 425.555 302.472 426.098 302.472 426.682C302.472 427.265 302.564 427.807 302.75 428.307C302.936 428.807 303.222 429.21 303.608 429.517C303.994 429.824 304.487 429.977 305.085 429.977ZM315.768 431V419.364H317.109V423.659H317.223C317.321 423.508 317.458 423.314 317.632 423.08C317.81 422.841 318.064 422.629 318.393 422.443C318.727 422.254 319.178 422.159 319.746 422.159C320.481 422.159 321.128 422.343 321.689 422.71C322.25 423.078 322.687 423.598 323.001 424.273C323.316 424.947 323.473 425.742 323.473 426.659C323.473 427.583 323.316 428.384 323.001 429.062C322.687 429.737 322.251 430.259 321.695 430.631C321.138 430.998 320.496 431.182 319.768 431.182C319.208 431.182 318.759 431.089 318.422 430.903C318.085 430.714 317.825 430.5 317.643 430.261C317.462 430.019 317.321 429.818 317.223 429.659H317.064V431H315.768ZM317.087 426.636C317.087 427.295 317.183 427.877 317.376 428.381C317.57 428.881 317.852 429.273 318.223 429.557C318.594 429.837 319.049 429.977 319.587 429.977C320.147 429.977 320.615 429.83 320.99 429.534C321.369 429.235 321.653 428.833 321.842 428.33C322.036 427.822 322.132 427.258 322.132 426.636C322.132 426.023 322.037 425.47 321.848 424.977C321.662 424.481 321.38 424.089 321.001 423.801C320.626 423.509 320.155 423.364 319.587 423.364C319.041 423.364 318.583 423.502 318.212 423.778C317.84 424.051 317.56 424.434 317.371 424.926C317.181 425.415 317.087 425.985 317.087 426.636ZM329.183 431.182C328.342 431.182 327.617 430.996 327.007 430.625C326.401 430.25 325.933 429.727 325.604 429.057C325.278 428.383 325.115 427.598 325.115 426.705C325.115 425.811 325.278 425.023 325.604 424.341C325.933 423.655 326.392 423.121 326.979 422.739C327.57 422.352 328.259 422.159 329.047 422.159C329.501 422.159 329.95 422.235 330.393 422.386C330.837 422.538 331.24 422.784 331.604 423.125C331.967 423.462 332.257 423.909 332.473 424.466C332.689 425.023 332.797 425.708 332.797 426.523V427.091H326.07V425.932H331.433C331.433 425.439 331.335 425 331.138 424.614C330.945 424.227 330.668 423.922 330.308 423.699C329.952 423.475 329.532 423.364 329.047 423.364C328.513 423.364 328.051 423.496 327.661 423.761C327.274 424.023 326.977 424.364 326.768 424.784C326.56 425.205 326.456 425.655 326.456 426.136V426.909C326.456 427.568 326.57 428.127 326.797 428.585C327.028 429.04 327.348 429.386 327.757 429.625C328.166 429.86 328.642 429.977 329.183 429.977C329.536 429.977 329.854 429.928 330.138 429.83C330.426 429.727 330.674 429.576 330.882 429.375C331.09 429.17 331.251 428.917 331.365 428.614L332.661 428.977C332.524 429.417 332.295 429.803 331.973 430.136C331.651 430.466 331.253 430.723 330.78 430.909C330.306 431.091 329.774 431.182 329.183 431.182ZM340.678 425.75V431H339.337V422.273H340.632V423.636H340.746C340.95 423.193 341.261 422.837 341.678 422.568C342.094 422.295 342.632 422.159 343.291 422.159C343.882 422.159 344.399 422.28 344.842 422.523C345.286 422.761 345.63 423.125 345.876 423.614C346.123 424.098 346.246 424.712 346.246 425.455V431H344.905V425.545C344.905 424.86 344.727 424.326 344.371 423.943C344.015 423.557 343.526 423.364 342.905 423.364C342.477 423.364 342.094 423.456 341.757 423.642C341.424 423.828 341.161 424.098 340.967 424.455C340.774 424.811 340.678 425.242 340.678 425.75ZM352.241 431.182C351.454 431.182 350.762 430.994 350.168 430.619C349.577 430.244 349.115 429.72 348.781 429.045C348.452 428.371 348.287 427.583 348.287 426.682C348.287 425.773 348.452 424.979 348.781 424.301C349.115 423.623 349.577 423.097 350.168 422.722C350.762 422.347 351.454 422.159 352.241 422.159C353.029 422.159 353.719 422.347 354.31 422.722C354.904 423.097 355.366 423.623 355.696 424.301C356.029 424.979 356.196 425.773 356.196 426.682C356.196 427.583 356.029 428.371 355.696 429.045C355.366 429.72 354.904 430.244 354.31 430.619C353.719 430.994 353.029 431.182 352.241 431.182ZM352.241 429.977C352.84 429.977 353.332 429.824 353.719 429.517C354.105 429.21 354.391 428.807 354.577 428.307C354.762 427.807 354.855 427.265 354.855 426.682C354.855 426.098 354.762 425.555 354.577 425.051C354.391 424.547 354.105 424.14 353.719 423.83C353.332 423.519 352.84 423.364 352.241 423.364C351.643 423.364 351.151 423.519 350.764 423.83C350.378 424.14 350.092 424.547 349.906 425.051C349.721 425.555 349.628 426.098 349.628 426.682C349.628 427.265 349.721 427.807 349.906 428.307C350.092 428.807 350.378 429.21 350.764 429.517C351.151 429.824 351.643 429.977 352.241 429.977ZM362.038 422.273V423.409H357.516V422.273H362.038ZM358.834 420.182H360.175V428.5C360.175 428.879 360.23 429.163 360.339 429.352C360.453 429.538 360.597 429.663 360.771 429.727C360.949 429.788 361.137 429.818 361.334 429.818C361.482 429.818 361.603 429.811 361.697 429.795C361.792 429.777 361.868 429.761 361.925 429.75L362.197 430.955C362.107 430.989 361.98 431.023 361.817 431.057C361.654 431.095 361.447 431.114 361.197 431.114C360.819 431.114 360.447 431.032 360.084 430.869C359.724 430.706 359.425 430.458 359.186 430.125C358.951 429.792 358.834 429.371 358.834 428.864V420.182ZM364.055 431V422.273H365.396V431H364.055ZM364.737 420.818C364.476 420.818 364.25 420.729 364.061 420.551C363.875 420.373 363.783 420.159 363.783 419.909C363.783 419.659 363.875 419.445 364.061 419.267C364.25 419.089 364.476 419 364.737 419C364.999 419 365.222 419.089 365.408 419.267C365.597 419.445 365.692 419.659 365.692 419.909C365.692 420.159 365.597 420.373 365.408 420.551C365.222 420.729 364.999 420.818 364.737 420.818ZM371.398 431.182C370.58 431.182 369.875 430.989 369.284 430.602C368.693 430.216 368.239 429.684 367.92 429.006C367.602 428.328 367.443 427.553 367.443 426.682C367.443 425.795 367.606 425.013 367.932 424.335C368.261 423.653 368.72 423.121 369.307 422.739C369.898 422.352 370.587 422.159 371.375 422.159C371.989 422.159 372.542 422.273 373.034 422.5C373.527 422.727 373.93 423.045 374.244 423.455C374.559 423.864 374.754 424.341 374.83 424.886H373.489C373.386 424.489 373.159 424.136 372.807 423.83C372.458 423.519 371.989 423.364 371.398 423.364C370.875 423.364 370.417 423.5 370.023 423.773C369.633 424.042 369.328 424.422 369.108 424.915C368.892 425.403 368.784 425.977 368.784 426.636C368.784 427.311 368.89 427.898 369.102 428.398C369.318 428.898 369.621 429.286 370.011 429.562C370.405 429.839 370.867 429.977 371.398 429.977C371.746 429.977 372.062 429.917 372.347 429.795C372.631 429.674 372.871 429.5 373.068 429.273C373.265 429.045 373.405 428.773 373.489 428.455H374.83C374.754 428.97 374.566 429.434 374.267 429.847C373.972 430.256 373.58 430.581 373.091 430.824C372.606 431.062 372.042 431.182 371.398 431.182ZM380.449 431.182C379.608 431.182 378.883 430.996 378.273 430.625C377.667 430.25 377.199 429.727 376.869 429.057C376.544 428.383 376.381 427.598 376.381 426.705C376.381 425.811 376.544 425.023 376.869 424.341C377.199 423.655 377.657 423.121 378.244 422.739C378.835 422.352 379.525 422.159 380.312 422.159C380.767 422.159 381.216 422.235 381.659 422.386C382.102 422.538 382.506 422.784 382.869 423.125C383.233 423.462 383.523 423.909 383.739 424.466C383.955 425.023 384.062 425.708 384.062 426.523V427.091H377.335V425.932H382.699C382.699 425.439 382.6 425 382.403 424.614C382.21 424.227 381.934 423.922 381.574 423.699C381.218 423.475 380.797 423.364 380.312 423.364C379.778 423.364 379.316 423.496 378.926 423.761C378.54 424.023 378.242 424.364 378.034 424.784C377.826 425.205 377.722 425.655 377.722 426.136V426.909C377.722 427.568 377.835 428.127 378.062 428.585C378.294 429.04 378.614 429.386 379.023 429.625C379.432 429.86 379.907 429.977 380.449 429.977C380.801 429.977 381.119 429.928 381.403 429.83C381.691 429.727 381.939 429.576 382.148 429.375C382.356 429.17 382.517 428.917 382.631 428.614L383.926 428.977C383.79 429.417 383.561 429.803 383.239 430.136C382.917 430.466 382.519 430.723 382.045 430.909C381.572 431.091 381.04 431.182 380.449 431.182ZM389.398 431.182C388.67 431.182 388.028 430.998 387.472 430.631C386.915 430.259 386.479 429.737 386.165 429.062C385.85 428.384 385.693 427.583 385.693 426.659C385.693 425.742 385.85 424.947 386.165 424.273C386.479 423.598 386.917 423.078 387.477 422.71C388.038 422.343 388.686 422.159 389.42 422.159C389.989 422.159 390.438 422.254 390.767 422.443C391.1 422.629 391.354 422.841 391.528 423.08C391.706 423.314 391.845 423.508 391.943 423.659H392.057V419.364H393.398V431H392.102V429.659H391.943C391.845 429.818 391.705 430.019 391.523 430.261C391.341 430.5 391.081 430.714 390.744 430.903C390.407 431.089 389.958 431.182 389.398 431.182ZM389.58 429.977C390.117 429.977 390.572 429.837 390.943 429.557C391.314 429.273 391.597 428.881 391.79 428.381C391.983 427.877 392.08 427.295 392.08 426.636C392.08 425.985 391.985 425.415 391.795 424.926C391.606 424.434 391.326 424.051 390.955 423.778C390.583 423.502 390.125 423.364 389.58 423.364C389.011 423.364 388.538 423.509 388.159 423.801C387.784 424.089 387.502 424.481 387.312 424.977C387.127 425.47 387.034 426.023 387.034 426.636C387.034 427.258 387.129 427.822 387.318 428.33C387.511 428.833 387.795 429.235 388.17 429.534C388.549 429.83 389.019 429.977 389.58 429.977ZM398.04 429.409L397.949 430.023C397.884 430.455 397.786 430.917 397.653 431.409C397.525 431.902 397.39 432.366 397.25 432.801C397.11 433.237 396.994 433.583 396.903 433.841H395.881C395.93 433.598 395.994 433.278 396.074 432.881C396.153 432.483 396.233 432.038 396.312 431.545C396.396 431.057 396.464 430.557 396.517 430.045L396.585 429.409H398.04ZM153.115 454V445.273H155.814V446.864H155.905C156.064 446.288 156.323 445.86 156.683 445.58C157.043 445.295 157.462 445.153 157.939 445.153C158.068 445.153 158.2 445.163 158.337 445.182C158.473 445.197 158.6 445.222 158.717 445.256V447.67C158.585 447.625 158.411 447.589 158.195 447.562C157.982 447.536 157.793 447.523 157.626 447.523C157.297 447.523 157 447.597 156.734 447.744C156.473 447.888 156.267 448.091 156.115 448.352C155.967 448.61 155.893 448.913 155.893 449.261V454H153.115ZM163.476 454.165C162.563 454.165 161.775 453.985 161.112 453.625C160.453 453.261 159.946 452.744 159.589 452.074C159.237 451.4 159.061 450.598 159.061 449.67C159.061 448.769 159.239 447.981 159.595 447.307C159.951 446.629 160.453 446.102 161.101 445.727C161.749 445.348 162.512 445.159 163.391 445.159C164.012 445.159 164.58 445.256 165.095 445.449C165.61 445.642 166.055 445.928 166.43 446.307C166.805 446.686 167.097 447.153 167.305 447.71C167.514 448.263 167.618 448.898 167.618 449.614V450.307H160.033V448.693H165.033C165.029 448.398 164.959 448.134 164.822 447.903C164.686 447.672 164.499 447.492 164.26 447.364C164.025 447.231 163.754 447.165 163.447 447.165C163.137 447.165 162.858 447.235 162.612 447.375C162.366 447.511 162.171 447.699 162.027 447.938C161.883 448.172 161.807 448.439 161.8 448.739V450.381C161.8 450.737 161.87 451.049 162.01 451.318C162.15 451.583 162.349 451.79 162.607 451.938C162.864 452.085 163.171 452.159 163.527 452.159C163.773 452.159 163.997 452.125 164.197 452.057C164.398 451.989 164.571 451.888 164.714 451.756C164.858 451.623 164.966 451.46 165.038 451.267L167.589 451.341C167.483 451.913 167.25 452.411 166.891 452.835C166.535 453.256 166.067 453.583 165.487 453.818C164.908 454.049 164.237 454.165 163.476 454.165ZM169.037 454V445.273H171.679V446.875H171.776C171.957 446.345 172.264 445.926 172.696 445.619C173.128 445.312 173.643 445.159 174.241 445.159C174.848 445.159 175.366 445.314 175.798 445.625C176.23 445.936 176.505 446.352 176.622 446.875H176.713C176.876 446.356 177.194 445.941 177.668 445.631C178.141 445.316 178.7 445.159 179.344 445.159C180.17 445.159 180.84 445.424 181.355 445.955C181.87 446.481 182.128 447.205 182.128 448.125V454H179.349V448.761C179.349 448.326 179.238 447.994 179.014 447.767C178.791 447.536 178.501 447.42 178.145 447.42C177.762 447.42 177.461 447.545 177.241 447.795C177.026 448.042 176.918 448.373 176.918 448.79V454H174.247V448.733C174.247 448.328 174.137 448.008 173.918 447.773C173.698 447.538 173.408 447.42 173.048 447.42C172.806 447.42 172.592 447.479 172.406 447.597C172.221 447.71 172.075 447.873 171.969 448.085C171.866 448.297 171.815 448.547 171.815 448.835V454H169.037ZM187.929 454.165C187.016 454.165 186.228 453.985 185.565 453.625C184.906 453.261 184.399 452.744 184.043 452.074C183.69 451.4 183.514 450.598 183.514 449.67C183.514 448.769 183.692 447.981 184.048 447.307C184.404 446.629 184.906 446.102 185.554 445.727C186.202 445.348 186.965 445.159 187.844 445.159C188.465 445.159 189.033 445.256 189.548 445.449C190.063 445.642 190.509 445.928 190.884 446.307C191.259 446.686 191.55 447.153 191.759 447.71C191.967 448.263 192.071 448.898 192.071 449.614V450.307H184.486V448.693H189.486C189.482 448.398 189.412 448.134 189.276 447.903C189.139 447.672 188.952 447.492 188.713 447.364C188.478 447.231 188.207 447.165 187.901 447.165C187.59 447.165 187.312 447.235 187.065 447.375C186.819 447.511 186.624 447.699 186.48 447.938C186.336 448.172 186.26 448.439 186.253 448.739V450.381C186.253 450.737 186.323 451.049 186.463 451.318C186.603 451.583 186.802 451.79 187.06 451.938C187.317 452.085 187.624 452.159 187.98 452.159C188.226 452.159 188.45 452.125 188.651 452.057C188.851 451.989 189.024 451.888 189.168 451.756C189.312 451.623 189.42 451.46 189.491 451.267L192.043 451.341C191.937 451.913 191.704 452.411 191.344 452.835C190.988 453.256 190.52 453.583 189.94 453.818C189.361 454.049 188.69 454.165 187.929 454.165ZM193.49 454V445.273H196.132V446.875H196.229C196.411 446.345 196.717 445.926 197.149 445.619C197.581 445.312 198.096 445.159 198.695 445.159C199.301 445.159 199.82 445.314 200.251 445.625C200.683 445.936 200.958 446.352 201.075 446.875H201.166C201.329 446.356 201.647 445.941 202.121 445.631C202.594 445.316 203.153 445.159 203.797 445.159C204.623 445.159 205.293 445.424 205.808 445.955C206.323 446.481 206.581 447.205 206.581 448.125V454H203.803V448.761C203.803 448.326 203.691 447.994 203.467 447.767C203.244 447.536 202.954 447.42 202.598 447.42C202.215 447.42 201.914 447.545 201.695 447.795C201.479 448.042 201.371 448.373 201.371 448.79V454H198.7V448.733C198.7 448.328 198.59 448.008 198.371 447.773C198.151 447.538 197.861 447.42 197.501 447.42C197.259 447.42 197.045 447.479 196.859 447.597C196.674 447.71 196.528 447.873 196.422 448.085C196.32 448.297 196.268 448.547 196.268 448.835V454H193.49ZM208.303 454V442.364H211.081V446.767H211.138C211.251 446.502 211.412 446.246 211.621 446C211.833 445.754 212.102 445.553 212.428 445.398C212.757 445.239 213.151 445.159 213.609 445.159C214.215 445.159 214.782 445.318 215.308 445.636C215.839 445.955 216.267 446.445 216.592 447.108C216.918 447.771 217.081 448.616 217.081 449.642C217.081 450.631 216.924 451.458 216.609 452.125C216.299 452.792 215.878 453.292 215.348 453.625C214.821 453.958 214.236 454.125 213.592 454.125C213.153 454.125 212.772 454.053 212.45 453.909C212.128 453.765 211.857 453.576 211.638 453.341C211.422 453.106 211.255 452.854 211.138 452.585H211.053V454H208.303ZM211.024 449.636C211.024 450.106 211.087 450.515 211.212 450.864C211.34 451.212 211.524 451.483 211.763 451.676C212.005 451.866 212.295 451.96 212.632 451.96C212.973 451.96 213.263 451.866 213.501 451.676C213.74 451.483 213.92 451.212 214.041 450.864C214.166 450.515 214.229 450.106 214.229 449.636C214.229 449.167 214.166 448.759 214.041 448.415C213.92 448.07 213.74 447.803 213.501 447.614C213.267 447.424 212.977 447.33 212.632 447.33C212.291 447.33 212.001 447.422 211.763 447.608C211.524 447.794 211.34 448.059 211.212 448.403C211.087 448.748 211.024 449.159 211.024 449.636ZM222.616 454.165C221.704 454.165 220.916 453.985 220.253 453.625C219.594 453.261 219.086 452.744 218.73 452.074C218.378 451.4 218.202 450.598 218.202 449.67C218.202 448.769 218.38 447.981 218.736 447.307C219.092 446.629 219.594 446.102 220.241 445.727C220.889 445.348 221.652 445.159 222.531 445.159C223.152 445.159 223.721 445.256 224.236 445.449C224.751 445.642 225.196 445.928 225.571 446.307C225.946 446.686 226.238 447.153 226.446 447.71C226.654 448.263 226.759 448.898 226.759 449.614V450.307H219.173V448.693H224.173C224.17 448.398 224.099 448.134 223.963 447.903C223.827 447.672 223.639 447.492 223.401 447.364C223.166 447.231 222.895 447.165 222.588 447.165C222.277 447.165 221.999 447.235 221.753 447.375C221.507 447.511 221.312 447.699 221.168 447.938C221.024 448.172 220.948 448.439 220.94 448.739V450.381C220.94 450.737 221.01 451.049 221.151 451.318C221.291 451.583 221.49 451.79 221.747 451.938C222.005 452.085 222.312 452.159 222.668 452.159C222.914 452.159 223.137 452.125 223.338 452.057C223.539 451.989 223.711 451.888 223.855 451.756C223.999 451.623 224.107 451.46 224.179 451.267L226.73 451.341C226.624 451.913 226.391 452.411 226.031 452.835C225.675 453.256 225.207 453.583 224.628 453.818C224.048 454.049 223.378 454.165 222.616 454.165ZM228.178 454V445.273H230.876V446.864H230.967C231.126 446.288 231.386 445.86 231.746 445.58C232.106 445.295 232.524 445.153 233.001 445.153C233.13 445.153 233.263 445.163 233.399 445.182C233.536 445.197 233.662 445.222 233.78 445.256V447.67C233.647 447.625 233.473 447.589 233.257 447.562C233.045 447.536 232.856 447.523 232.689 447.523C232.359 447.523 232.062 447.597 231.797 447.744C231.536 447.888 231.329 448.091 231.178 448.352C231.03 448.61 230.956 448.913 230.956 449.261V454H228.178ZM238.538 454.165C237.625 454.165 236.838 453.985 236.175 453.625C235.516 453.261 235.008 452.744 234.652 452.074C234.3 451.4 234.124 450.598 234.124 449.67C234.124 448.769 234.302 447.981 234.658 447.307C235.014 446.629 235.516 446.102 236.163 445.727C236.811 445.348 237.574 445.159 238.453 445.159C239.074 445.159 239.643 445.256 240.158 445.449C240.673 445.642 241.118 445.928 241.493 446.307C241.868 446.686 242.16 447.153 242.368 447.71C242.576 448.263 242.68 448.898 242.68 449.614V450.307H235.095V448.693H240.095C240.091 448.398 240.021 448.134 239.885 447.903C239.749 447.672 239.561 447.492 239.322 447.364C239.088 447.231 238.817 447.165 238.51 447.165C238.199 447.165 237.921 447.235 237.675 447.375C237.429 447.511 237.233 447.699 237.089 447.938C236.946 448.172 236.87 448.439 236.862 448.739V450.381C236.862 450.737 236.932 451.049 237.072 451.318C237.213 451.583 237.411 451.79 237.669 451.938C237.927 452.085 238.233 452.159 238.589 452.159C238.836 452.159 239.059 452.125 239.26 452.057C239.461 451.989 239.633 451.888 239.777 451.756C239.921 451.623 240.029 451.46 240.101 451.267L242.652 451.341C242.546 451.913 242.313 452.411 241.953 452.835C241.597 453.256 241.129 453.583 240.55 453.818C239.97 454.049 239.3 454.165 238.538 454.165ZM247.287 454.125C246.643 454.125 246.058 453.958 245.531 453.625C245.005 453.292 244.584 452.792 244.27 452.125C243.955 451.458 243.798 450.631 243.798 449.642C243.798 448.616 243.961 447.771 244.287 447.108C244.613 446.445 245.039 445.955 245.565 445.636C246.096 445.318 246.666 445.159 247.276 445.159C247.734 445.159 248.126 445.239 248.452 445.398C248.777 445.553 249.046 445.754 249.259 446C249.471 446.246 249.632 446.502 249.741 446.767H249.798V442.364H252.577V454H249.827V452.585H249.741C249.624 452.854 249.457 453.106 249.241 453.341C249.026 453.576 248.755 453.765 248.429 453.909C248.107 454.053 247.726 454.125 247.287 454.125ZM248.253 451.96C248.59 451.96 248.878 451.866 249.116 451.676C249.355 451.483 249.539 451.212 249.668 450.864C249.796 450.515 249.861 450.106 249.861 449.636C249.861 449.159 249.796 448.748 249.668 448.403C249.543 448.059 249.359 447.794 249.116 447.608C248.878 447.422 248.59 447.33 248.253 447.33C247.908 447.33 247.616 447.424 247.378 447.614C247.139 447.803 246.957 448.07 246.832 448.415C246.711 448.759 246.651 449.167 246.651 449.636C246.651 450.106 246.713 450.515 246.838 450.864C246.963 451.212 247.143 451.483 247.378 451.676C247.616 451.866 247.908 451.96 248.253 451.96ZM257.169 452.409L257.118 453.04C257.072 453.562 256.98 454.072 256.839 454.568C256.703 455.068 256.557 455.517 256.402 455.915C256.247 456.313 256.124 456.621 256.033 456.841H254.283C254.343 456.621 254.425 456.313 254.527 455.915C254.633 455.517 254.732 455.068 254.822 454.568C254.913 454.068 254.964 453.561 254.976 453.045L254.987 452.409H257.169ZM264.466 454.148C263.909 454.148 263.415 454.055 262.983 453.869C262.555 453.68 262.216 453.396 261.966 453.017C261.72 452.634 261.597 452.155 261.597 451.58C261.597 451.095 261.682 450.686 261.852 450.352C262.023 450.019 262.258 449.748 262.557 449.54C262.856 449.331 263.201 449.174 263.591 449.068C263.981 448.958 264.398 448.884 264.841 448.847C265.337 448.801 265.737 448.754 266.04 448.705C266.343 448.652 266.563 448.578 266.699 448.483C266.839 448.384 266.909 448.246 266.909 448.068V448.04C266.909 447.748 266.809 447.523 266.608 447.364C266.407 447.205 266.136 447.125 265.795 447.125C265.428 447.125 265.133 447.205 264.909 447.364C264.686 447.523 264.544 447.742 264.483 448.023L261.92 447.932C261.996 447.402 262.191 446.928 262.506 446.511C262.824 446.091 263.259 445.761 263.812 445.523C264.369 445.28 265.038 445.159 265.818 445.159C266.375 445.159 266.888 445.225 267.358 445.358C267.828 445.487 268.237 445.676 268.585 445.926C268.934 446.172 269.203 446.475 269.392 446.835C269.585 447.195 269.682 447.606 269.682 448.068V454H267.068V452.784H267C266.845 453.08 266.646 453.33 266.403 453.534C266.165 453.739 265.883 453.892 265.557 453.994C265.235 454.097 264.871 454.148 264.466 454.148ZM265.324 452.33C265.623 452.33 265.892 452.269 266.131 452.148C266.373 452.027 266.566 451.86 266.71 451.648C266.854 451.432 266.926 451.182 266.926 450.898V450.068C266.847 450.11 266.75 450.148 266.636 450.182C266.527 450.216 266.405 450.248 266.273 450.278C266.14 450.309 266.004 450.335 265.864 450.358C265.723 450.381 265.589 450.402 265.46 450.42C265.199 450.462 264.975 450.527 264.79 450.614C264.608 450.701 264.468 450.814 264.369 450.955C264.275 451.091 264.227 451.254 264.227 451.443C264.227 451.731 264.33 451.951 264.534 452.102C264.742 452.254 265.006 452.33 265.324 452.33ZM274.159 449.023V454H271.381V445.273H274.023V446.875H274.119C274.313 446.341 274.642 445.922 275.108 445.619C275.574 445.312 276.129 445.159 276.773 445.159C277.386 445.159 277.919 445.297 278.369 445.574C278.824 445.847 279.176 446.229 279.426 446.722C279.68 447.21 279.805 447.782 279.801 448.438V454H277.023V448.983C277.027 448.498 276.903 448.119 276.653 447.847C276.407 447.574 276.064 447.438 275.625 447.438C275.333 447.438 275.076 447.502 274.852 447.631C274.633 447.756 274.462 447.936 274.341 448.17C274.223 448.405 274.163 448.689 274.159 449.023ZM284.709 454.125C284.065 454.125 283.48 453.958 282.953 453.625C282.427 453.292 282.006 452.792 281.692 452.125C281.377 451.458 281.22 450.631 281.22 449.642C281.22 448.616 281.383 447.771 281.709 447.108C282.035 446.445 282.461 445.955 282.987 445.636C283.518 445.318 284.088 445.159 284.697 445.159C285.156 445.159 285.548 445.239 285.874 445.398C286.199 445.553 286.468 445.754 286.68 446C286.893 446.246 287.054 446.502 287.163 446.767H287.22V442.364H289.999V454H287.249V452.585H287.163C287.046 452.854 286.879 453.106 286.663 453.341C286.447 453.576 286.177 453.765 285.851 453.909C285.529 454.053 285.148 454.125 284.709 454.125ZM285.675 451.96C286.012 451.96 286.3 451.866 286.538 451.676C286.777 451.483 286.961 451.212 287.089 450.864C287.218 450.515 287.283 450.106 287.283 449.636C287.283 449.159 287.218 448.748 287.089 448.403C286.964 448.059 286.781 447.794 286.538 447.608C286.3 447.422 286.012 447.33 285.675 447.33C285.33 447.33 285.038 447.424 284.8 447.614C284.561 447.803 284.379 448.07 284.254 448.415C284.133 448.759 284.072 449.167 284.072 449.636C284.072 450.106 284.135 450.515 284.26 450.864C284.385 451.212 284.565 451.483 284.8 451.676C285.038 451.866 285.33 451.96 285.675 451.96ZM300.119 445.273V447.318H294.614V445.273H300.119ZM295.767 443.182H298.545V451.256C298.545 451.426 298.572 451.564 298.625 451.67C298.682 451.773 298.763 451.847 298.869 451.892C298.975 451.934 299.102 451.955 299.25 451.955C299.356 451.955 299.468 451.945 299.585 451.926C299.706 451.903 299.797 451.884 299.858 451.869L300.278 453.875C300.146 453.913 299.958 453.96 299.716 454.017C299.477 454.074 299.191 454.11 298.858 454.125C298.206 454.155 297.648 454.08 297.182 453.898C296.72 453.712 296.366 453.424 296.119 453.034C295.877 452.644 295.759 452.153 295.767 451.562V443.182ZM301.537 454V445.273H304.236V446.864H304.327C304.486 446.288 304.745 445.86 305.105 445.58C305.465 445.295 305.884 445.153 306.361 445.153C306.49 445.153 306.622 445.163 306.759 445.182C306.895 445.197 307.022 445.222 307.139 445.256V447.67C307.007 447.625 306.832 447.589 306.616 447.562C306.404 447.536 306.215 447.523 306.048 447.523C305.719 447.523 305.421 447.597 305.156 447.744C304.895 447.888 304.688 448.091 304.537 448.352C304.389 448.61 304.315 448.913 304.315 449.261V454H301.537ZM313.902 450.233V445.273H316.675V454H314.027V452.375H313.936C313.743 452.909 313.413 453.333 312.947 453.648C312.485 453.958 311.927 454.114 311.271 454.114C310.677 454.114 310.154 453.977 309.703 453.705C309.252 453.432 308.902 453.051 308.652 452.562C308.402 452.07 308.275 451.494 308.271 450.835V445.273H311.05V450.29C311.054 450.763 311.179 451.136 311.425 451.409C311.671 451.682 312.006 451.818 312.43 451.818C312.707 451.818 312.955 451.758 313.175 451.636C313.398 451.511 313.574 451.331 313.703 451.097C313.836 450.858 313.902 450.57 313.902 450.233ZM326.062 447.938L323.511 448.006C323.485 447.824 323.413 447.663 323.295 447.523C323.178 447.379 323.025 447.267 322.835 447.188C322.65 447.104 322.434 447.062 322.188 447.062C321.866 447.062 321.591 447.127 321.364 447.256C321.14 447.384 321.03 447.559 321.034 447.778C321.03 447.949 321.098 448.097 321.239 448.222C321.383 448.347 321.638 448.447 322.006 448.523L323.688 448.841C324.559 449.008 325.206 449.284 325.631 449.67C326.059 450.057 326.275 450.568 326.278 451.205C326.275 451.803 326.097 452.324 325.744 452.767C325.396 453.21 324.919 453.555 324.312 453.801C323.706 454.044 323.013 454.165 322.233 454.165C320.987 454.165 320.004 453.909 319.284 453.398C318.568 452.883 318.159 452.193 318.057 451.33L320.801 451.261C320.862 451.58 321.019 451.822 321.273 451.989C321.527 452.155 321.85 452.239 322.244 452.239C322.6 452.239 322.89 452.172 323.114 452.04C323.337 451.907 323.451 451.731 323.455 451.511C323.451 451.314 323.364 451.157 323.193 451.04C323.023 450.919 322.756 450.824 322.392 450.756L320.869 450.466C319.994 450.307 319.343 450.013 318.915 449.585C318.487 449.153 318.275 448.604 318.278 447.938C318.275 447.354 318.43 446.856 318.744 446.443C319.059 446.027 319.506 445.708 320.085 445.489C320.665 445.269 321.348 445.159 322.136 445.159C323.318 445.159 324.25 445.407 324.932 445.903C325.614 446.396 325.991 447.074 326.062 447.938ZM332.572 445.273V447.318H327.067V445.273H332.572ZM328.22 443.182H330.999V451.256C330.999 451.426 331.025 451.564 331.078 451.67C331.135 451.773 331.216 451.847 331.322 451.892C331.429 451.934 331.555 451.955 331.703 451.955C331.809 451.955 331.921 451.945 332.038 451.926C332.16 451.903 332.25 451.884 332.311 451.869L332.732 453.875C332.599 453.913 332.411 453.96 332.169 454.017C331.93 454.074 331.644 454.11 331.311 454.125C330.66 454.155 330.101 454.08 329.635 453.898C329.173 453.712 328.819 453.424 328.572 453.034C328.33 452.644 328.213 452.153 328.22 451.562V443.182ZM337.976 454.165C337.063 454.165 336.275 453.985 335.612 453.625C334.953 453.261 334.446 452.744 334.089 452.074C333.737 451.4 333.561 450.598 333.561 449.67C333.561 448.769 333.739 447.981 334.095 447.307C334.451 446.629 334.953 446.102 335.601 445.727C336.249 445.348 337.012 445.159 337.891 445.159C338.512 445.159 339.08 445.256 339.595 445.449C340.11 445.642 340.555 445.928 340.93 446.307C341.305 446.686 341.597 447.153 341.805 447.71C342.014 448.263 342.118 448.898 342.118 449.614V450.307H334.533V448.693H339.533C339.529 448.398 339.459 448.134 339.322 447.903C339.186 447.672 338.999 447.492 338.76 447.364C338.525 447.231 338.254 447.165 337.947 447.165C337.637 447.165 337.358 447.235 337.112 447.375C336.866 447.511 336.671 447.699 336.527 447.938C336.383 448.172 336.307 448.439 336.3 448.739V450.381C336.3 450.737 336.37 451.049 336.51 451.318C336.65 451.583 336.849 451.79 337.107 451.938C337.364 452.085 337.671 452.159 338.027 452.159C338.273 452.159 338.497 452.125 338.697 452.057C338.898 451.989 339.071 451.888 339.214 451.756C339.358 451.623 339.466 451.46 339.538 451.267L342.089 451.341C341.983 451.913 341.75 452.411 341.391 452.835C341.035 453.256 340.567 453.583 339.987 453.818C339.408 454.049 338.737 454.165 337.976 454.165ZM346.724 454.125C346.08 454.125 345.495 453.958 344.969 453.625C344.442 453.292 344.022 452.792 343.707 452.125C343.393 451.458 343.236 450.631 343.236 449.642C343.236 448.616 343.399 447.771 343.724 447.108C344.05 446.445 344.476 445.955 345.003 445.636C345.533 445.318 346.103 445.159 346.713 445.159C347.171 445.159 347.563 445.239 347.889 445.398C348.215 445.553 348.484 445.754 348.696 446C348.908 446.246 349.069 446.502 349.179 446.767H349.236V442.364H352.014V454H349.264V452.585H349.179C349.062 452.854 348.895 453.106 348.679 453.341C348.463 453.576 348.192 453.765 347.866 453.909C347.545 454.053 347.164 454.125 346.724 454.125ZM347.69 451.96C348.027 451.96 348.315 451.866 348.554 451.676C348.793 451.483 348.976 451.212 349.105 450.864C349.234 450.515 349.298 450.106 349.298 449.636C349.298 449.159 349.234 448.748 349.105 448.403C348.98 448.059 348.796 447.794 348.554 447.608C348.315 447.422 348.027 447.33 347.69 447.33C347.346 447.33 347.054 447.424 346.815 447.614C346.577 447.803 346.395 448.07 346.27 448.415C346.149 448.759 346.088 449.167 346.088 449.636C346.088 450.106 346.151 450.515 346.276 450.864C346.401 451.212 346.58 451.483 346.815 451.676C347.054 451.866 347.346 451.96 347.69 451.96ZM355.334 454.165C354.925 454.165 354.574 454.021 354.283 453.733C353.995 453.445 353.853 453.097 353.857 452.688C353.853 452.286 353.995 451.943 354.283 451.659C354.574 451.371 354.925 451.227 355.334 451.227C355.72 451.227 356.061 451.371 356.357 451.659C356.656 451.943 356.807 452.286 356.811 452.688C356.807 452.96 356.735 453.208 356.595 453.432C356.459 453.655 356.279 453.833 356.055 453.966C355.836 454.098 355.595 454.165 355.334 454.165Z" fill="white"/>
<path d="M260.241 426C263.037 426 265.304 423.733 265.304 420.937C265.304 418.141 263.037 415.874 260.241 415.874C257.444 415.874 255.178 418.141 255.178 420.937C255.178 423.733 257.444 426 260.241 426Z" fill="#8D9CF6"/>
<path d="M57.7469 300.268C70.3097 300.268 80.4939 290.084 80.4939 277.521C80.4939 264.959 70.3097 254.774 57.7469 254.774C45.1841 254.774 35 264.959 35 277.521C35 290.084 45.1841 300.268 57.7469 300.268Z" fill="url(#paint1_linear_237_2)"/>
<path d="M68.1495 273.544C68.1495 279.289 57.7466 291.899 57.7466 291.899C57.7466 291.899 47.3438 279.289 47.3438 273.544C47.3438 267.799 52.0011 263.141 57.7466 263.141C63.492 263.141 68.1495 267.799 68.1495 273.544ZM57.7466 267.744C54.5426 267.744 51.9469 270.34 51.9469 273.544C51.9469 276.748 54.5426 279.344 57.7466 279.344C60.9505 279.344 63.5463 276.748 63.5463 273.544C63.5463 270.34 60.9505 267.744 57.7466 267.744Z" fill="url(#paint2_linear_237_2)"/>
<path d="M213.507 90.4102C229.636 90.4102 242.712 77.3346 242.712 61.2051C242.712 45.0756 229.636 32 213.507 32C197.377 32 184.302 45.0756 184.302 61.2051C184.302 77.3346 197.377 90.4102 213.507 90.4102Z" fill="url(#paint3_linear_237_2)"/>
<path d="M231.062 48.7686H197.375C195.949 48.7686 194.793 49.9244 194.793 51.3502V72.3848C194.793 73.8106 195.949 74.9664 197.375 74.9664H231.062C232.488 74.9664 233.644 73.8106 233.644 72.3848V51.3502C233.644 49.9244 232.488 48.7686 231.062 48.7686Z" fill="#2332E3"/>
<path d="M212.793 74.9668L220.158 81.6357L220.285 74.9668H212.793Z" fill="#2332E3"/>
<path d="M213.506 56.5755H202.318C202.098 56.5755 201.917 56.3948 201.917 56.174C201.917 55.9531 202.098 55.7725 202.318 55.7725H213.506C213.727 55.7725 213.908 55.9531 213.908 56.174C213.908 56.3948 213.727 56.5755 213.506 56.5755Z" fill="#49FBDF"/>
<path d="M224.89 62.2698H202.318C202.097 62.2698 201.916 62.0891 201.916 61.8683C201.916 61.6475 202.097 61.4668 202.318 61.4668H224.89C225.111 61.4668 225.291 61.6475 225.291 61.8683C225.291 62.0891 225.111 62.2698 224.89 62.2698Z" fill="#49FBDF"/>
<path d="M224.89 67.9627H202.318C202.097 67.9627 201.916 67.782 201.916 67.5612C201.916 67.3403 202.097 67.1597 202.318 67.1597H224.89C225.111 67.1597 225.291 67.3403 225.291 67.5612C225.291 67.782 225.111 67.9627 224.89 67.9627Z" fill="#49FBDF"/>
<path d="M397.778 399.557C412.015 399.557 423.557 388.015 423.557 373.778C423.557 359.541 412.015 348 397.778 348C383.541 348 372 359.541 372 373.778C372 388.015 383.541 399.557 397.778 399.557Z" fill="url(#paint4_linear_237_2)"/>
<path d="M412.841 376.15L410.197 378.836L397.883 391.332L385.569 378.836L382.925 376.15C381 374.236 379.96 371.452 380.46 368.415C381.03 364.968 383.71 362.123 387.121 361.368C390.24 360.678 393.227 361.67 395.237 363.653L395.602 364.018L395.634 364.05L397.881 366.339L400.127 364.05L400.159 364.018L400.525 363.653C402.536 361.67 405.523 360.678 408.641 361.368C412.052 362.123 414.732 364.968 415.302 368.415C415.804 371.452 414.764 374.236 412.837 376.15H412.841Z" fill="url(#paint5_linear_237_2)"/>
<path d="M462.625 295.135C478.907 295.135 492.107 281.936 492.107 265.653C492.107 249.37 478.907 236.171 462.625 236.171C446.342 236.171 433.143 249.37 433.143 265.653C433.143 281.936 446.342 295.135 462.625 295.135Z" fill="url(#paint6_linear_237_2)"/>
<path d="M462.624 250.899C446.52 250.899 440.746 265.642 440.746 265.642C440.746 265.642 446.52 280.386 462.624 280.386C478.728 280.386 484.502 265.642 484.502 265.642C484.502 265.642 478.728 250.899 462.624 250.899Z" fill="url(#paint7_linear_237_2)"/>
<path d="M462.625 276.508C468.62 276.508 473.48 271.649 473.48 265.654C473.48 259.659 468.62 254.799 462.625 254.799C456.63 254.799 451.771 259.659 451.771 265.654C451.771 271.649 456.63 276.508 462.625 276.508Z" fill="url(#paint8_linear_237_2)"/>
<path d="M468.801 265.654C468.801 269.067 466.037 271.831 462.624 271.831C459.212 271.831 456.447 269.065 456.447 265.654C456.447 265.086 456.524 264.536 456.668 264.014L462.624 265.654L461.35 259.61C461.761 259.523 462.189 259.477 462.624 259.477C466.037 259.477 468.801 262.243 468.801 265.654Z" fill="url(#paint9_linear_237_2)"/>
<path d="M479.437 261.922C482.901 261.922 485.709 259.114 485.709 255.65C485.709 252.187 482.901 249.379 479.437 249.379C475.974 249.379 473.166 252.187 473.166 255.65C473.166 259.114 475.974 261.922 479.437 261.922Z" fill="url(#paint10_linear_237_2)"/>
<path d="M479.436 258.655C479.123 258.655 478.87 258.402 478.87 258.089V253.211C478.87 252.897 479.123 252.645 479.436 252.645C479.749 252.645 480.002 252.897 480.002 253.211V258.089C480.002 258.402 479.749 258.655 479.436 258.655Z" fill="#3D48E8"/>
<path d="M481.775 256.115H476.897C476.584 256.115 476.331 255.862 476.331 255.549C476.331 255.236 476.584 254.983 476.897 254.983H481.775C482.088 254.983 482.341 255.236 482.341 255.549C482.341 255.862 482.088 256.115 481.775 256.115Z" fill="#3D48E8"/>
<path d="M446.55 251.87C446.249 251.87 446.006 251.627 446.006 251.326V247.536C446.006 247.235 446.249 246.992 446.55 246.992H450.34C450.641 246.992 450.884 247.235 450.884 247.536C450.884 247.837 450.641 248.08 450.34 248.08H447.094V251.326C447.094 251.627 446.851 251.87 446.55 251.87Z" fill="#5D70FF"/>
<path d="M450.338 284.297H446.548C446.247 284.297 446.004 284.054 446.004 283.753V279.963C446.004 279.662 446.247 279.419 446.548 279.419C446.849 279.419 447.092 279.662 447.092 279.963V283.209H450.338C450.639 283.209 450.882 283.452 450.882 283.753C450.882 284.054 450.639 284.297 450.338 284.297Z" fill="#5D70FF"/>
<path d="M478.698 284.297H474.908C474.607 284.297 474.364 284.054 474.364 283.753C474.364 283.452 474.607 283.209 474.908 283.209H478.154V279.963C478.154 279.662 478.397 279.419 478.698 279.419C479 279.419 479.243 279.662 479.243 279.963V283.753C479.243 284.054 479 284.297 478.698 284.297Z" fill="#5D70FF"/>
<g style="mix-blend-mode:multiply">
<path d="M122.999 82.2621C128.693 82.2621 133.31 77.646 133.31 71.9516C133.31 66.2573 128.693 61.6411 122.999 61.6411C117.305 61.6411 112.688 66.2573 112.688 71.9516C112.688 77.646 117.305 82.2621 122.999 82.2621Z" fill="#8D9CF6"/>
</g>
<path d="M122.999 77.8994C122.74 77.8994 122.529 77.6886 122.529 77.4297V66.4707C122.529 66.2118 122.74 66.001 122.999 66.001C123.258 66.001 123.469 66.2118 123.469 66.4707V77.4297C123.469 77.6886 123.258 77.8994 122.999 77.8994Z" fill="#48F9DE"/>
<path d="M128.477 72.4215H117.518C117.259 72.4215 117.048 72.2107 117.048 71.9517C117.048 71.6927 117.259 71.4819 117.518 71.4819H128.477C128.735 71.4819 128.946 71.6927 128.946 71.9517C128.946 72.2107 128.735 72.4215 128.477 72.4215Z" fill="#48F9DE"/>
<g style="mix-blend-mode:multiply">
<path d="M411.284 251.437C416.978 251.437 421.595 246.821 421.595 241.127C421.595 235.433 416.978 230.816 411.284 230.816C405.59 230.816 400.974 235.433 400.974 241.127C400.974 246.821 405.59 251.437 411.284 251.437Z" fill="#8D9CF6"/>
</g>
<path d="M411.283 247.078C411.024 247.078 410.813 246.867 410.813 246.608V235.649C410.813 235.39 411.024 235.18 411.283 235.18C411.542 235.18 411.753 235.39 411.753 235.649V246.608C411.753 246.867 411.542 247.078 411.283 247.078Z" fill="#48F9DE"/>
<path d="M416.764 241.597H405.805C405.546 241.597 405.335 241.386 405.335 241.127C405.335 240.868 405.546 240.658 405.805 240.658H416.764C417.023 240.658 417.233 240.868 417.233 241.127C417.233 241.386 417.023 241.597 416.764 241.597Z" fill="#48F9DE"/>
<g style="mix-blend-mode:multiply">
<path d="M117.52 277.995C123.215 277.995 127.831 273.379 127.831 267.685C127.831 261.99 123.215 257.374 117.52 257.374C111.826 257.374 107.21 261.99 107.21 267.685C107.21 273.379 111.826 277.995 117.52 277.995Z" fill="#8D9CF6"/>
</g>
<path d="M117.52 273.632C117.261 273.632 117.05 273.422 117.05 273.163V262.204C117.05 261.945 117.261 261.734 117.52 261.734C117.778 261.734 117.989 261.945 117.989 262.204V273.163C117.989 273.422 117.778 273.632 117.52 273.632Z" fill="#48F9DE"/>
<path d="M122.999 268.151H112.04C111.781 268.151 111.57 267.941 111.57 267.682C111.57 267.423 111.781 267.212 112.04 267.212H122.999C123.258 267.212 123.469 267.423 123.469 267.682C123.469 267.941 123.258 268.151 122.999 268.151Z" fill="#48F9DE"/>
<rect x="331.002" y="56" width="122.219" height="173" rx="5" fill="black" fill-opacity="0.2"/>
<path d="M387.755 62.7505L361.191 62.3599C360.992 62.3443 360.791 62.3697 360.602 62.4346C360.413 62.4994 360.24 62.6023 360.092 62.737C359.945 62.8716 359.826 63.035 359.744 63.2172C359.662 63.3994 359.618 63.5965 359.616 63.7963C359.613 63.9961 359.651 64.1943 359.728 64.3787C359.805 64.5631 359.919 64.7298 360.062 64.8685C360.206 65.0072 360.377 65.115 360.564 65.1851C360.751 65.2552 360.95 65.2862 361.15 65.2762L387.706 65.6665C388.077 65.6484 388.426 65.49 388.685 65.2235C388.943 64.9569 389.09 64.6022 389.096 64.2312C389.102 63.8603 388.967 63.5008 388.718 63.2258C388.469 62.9508 388.124 62.7809 387.755 62.7505Z" fill="white"/>
<path d="M395.769 68.4032L360.309 67.8752C360.222 67.874 360.136 67.89 360.055 67.9225C359.974 67.9549 359.901 68.0031 359.839 68.0642C359.777 68.1253 359.728 68.198 359.694 68.2783C359.66 68.3586 359.643 68.4448 359.643 68.5318C359.641 68.6185 359.656 68.7047 359.687 68.7854C359.719 68.8661 359.766 68.9397 359.827 69.0018C359.887 69.0638 359.96 69.1132 360.039 69.1469C360.119 69.1806 360.205 69.198 360.292 69.1981L395.751 69.7261C395.843 69.7368 395.937 69.728 396.026 69.7002C396.115 69.6725 396.197 69.6264 396.266 69.565C396.336 69.5036 396.393 69.4282 396.432 69.3437C396.47 69.2592 396.491 69.1675 396.492 69.0744C396.494 68.9814 396.475 68.8892 396.439 68.8037C396.402 68.7181 396.348 68.6413 396.28 68.578C396.211 68.5147 396.131 68.4665 396.043 68.4364C395.955 68.4063 395.861 68.395 395.769 68.4032Z" fill="white"/>
<path d="M444.127 200.209L440.637 198.437L437.1 200.109L437.208 193.083L444.226 193.191L444.127 200.209Z" fill="white" stroke="white" stroke-linecap="round" stroke-linejoin="round"/>
<path d="M348.957 194.052C348.108 192.571 346.38 193.083 345.467 194.185C344.618 193.029 342.929 192.42 341.985 193.845C340.413 196.254 343.449 198.615 344.897 199.545L345.303 199.804C345.422 199.748 345.565 199.662 345.732 199.57C347.221 198.721 350.4 196.545 348.957 194.052Z" fill="#FF0004"/>
<path d="M356.093 193.054L360.904 193.125C361.135 193.13 361.354 193.226 361.514 193.392C361.674 193.558 361.763 193.78 361.76 194.011L361.706 197.995C361.701 198.225 361.605 198.444 361.439 198.604C361.273 198.765 361.051 198.853 360.82 198.85L358.972 198.822L358.396 200.001L357.858 198.806L356.009 198.779C355.895 198.777 355.783 198.754 355.678 198.709C355.573 198.664 355.479 198.599 355.399 198.517C355.32 198.436 355.257 198.339 355.215 198.234C355.173 198.128 355.152 198.015 355.153 197.901L355.208 193.909C355.213 193.679 355.308 193.46 355.474 193.3C355.64 193.139 355.863 193.051 356.093 193.054Z" fill="white" stroke="white" stroke-linecap="round" stroke-linejoin="round"/>
<path d="M355.158 66.8655C355.135 68.8212 354.372 70.6955 353.022 72.111C352.305 72.8757 351.437 73.4845 350.474 73.8994C350.284 73.9831 350.095 74.0513 349.906 74.1195C349.054 74.4181 348.156 74.5632 347.253 74.5482C346.249 74.5326 345.257 74.3215 344.334 73.9267C344.241 73.892 344.149 73.8514 344.061 73.8051C343.15 73.3843 342.332 72.7868 341.654 72.0472C340.787 71.1131 340.161 69.9806 339.834 68.7489C339.506 67.5171 339.485 66.2238 339.773 64.9821C340.061 63.7405 340.649 62.5884 341.486 61.627C342.323 60.6655 343.383 59.9239 344.573 59.4673C345.763 59.0107 347.047 58.8529 348.312 59.0078C349.577 59.1627 350.785 59.6255 351.83 60.3557C352.875 61.0859 353.724 62.0612 354.305 63.1962C354.885 64.3311 355.178 65.591 355.158 66.8655Z" fill="url(#paint11_linear_237_2)"/>
<mask id="mask0_237_2" style="mask-type:alpha" maskUnits="userSpaceOnUse" x="339" y="58" width="17" height="17">
<path d="M355.158 66.8655C355.135 68.8212 354.372 70.6955 353.022 72.111C352.305 72.8757 351.437 73.4845 350.474 73.8994C350.284 73.9831 350.095 74.0513 349.906 74.1195C349.054 74.4181 348.156 74.5632 347.253 74.5482C346.249 74.5326 345.257 74.3215 344.334 73.9267C344.241 73.892 344.149 73.8514 344.061 73.8051C343.15 73.3843 342.332 72.7868 341.654 72.0472C340.787 71.1131 340.161 69.9806 339.834 68.7489C339.506 67.5171 339.485 66.2238 339.773 64.9821C340.061 63.7405 340.649 62.5884 341.486 61.627C342.323 60.6655 343.383 59.9239 344.573 59.4673C345.763 59.0107 347.047 58.8529 348.312 59.0078C349.577 59.1627 350.785 59.6255 351.83 60.3557C352.875 61.0859 353.724 62.0612 354.305 63.1962C354.885 64.3311 355.178 65.591 355.158 66.8655Z" fill="url(#paint12_linear_237_2)"/>
</mask>
<g mask="url(#mask0_237_2)">
<path d="M347.502 60.9028C348.424 60.9028 349.309 61.2694 349.962 61.9219C350.615 62.5744 350.981 63.4594 350.981 64.3822C350.981 65.305 350.615 66.19 349.962 66.8425C349.309 67.495 348.424 67.8616 347.502 67.8616C346.579 67.8616 345.694 67.495 345.041 66.8425C344.389 66.19 344.022 65.305 344.022 64.3822C344.022 63.4594 344.389 62.5744 345.041 61.9219C345.694 61.2694 346.579 60.9028 347.502 60.9028ZM347.502 69.6013C351.346 69.6013 354.46 71.1583 354.46 73.0806V74.8203H340.543V73.0806C340.543 71.1583 343.657 69.6013 347.502 69.6013Z" fill="white"/>
</g>
<rect x="337.888" y="80.96" width="108.992" height="108.992" fill="url(#paint13_linear_237_2)"/>
<g filter="url(#filter0_d_237_2)">
<path d="M401.518 122.805L391.681 113.892L349.649 157.565H393.47L404.201 146.869L410.461 149.543L405.095 157.565H435.501L407.778 129.935L386.315 149.543H375.584L401.518 122.805Z" fill="white"/>
</g>
<rect x="337.888" y="205.761" width="55.0846" height="2.33605" rx="1.16803" fill="white"/>
<g opacity="0.87">
<rect x="337.888" y="212.646" width="108.448" height="0.61707" rx="0.308535" fill="white"/>
<rect x="337.888" y="216.09" width="108.448" height="0.61707" rx="0.308535" fill="white"/>
<rect x="337.888" y="219.532" width="108.448" height="0.61707" rx="0.308535" fill="white"/>
</g>
<path d="M216.247 282.891C216.247 282.891 186.531 247.689 182.729 245.395C180.096 244.127 177.295 243.244 174.411 242.774C172.745 242.377 171.054 242.093 169.35 241.922L169.016 241.915C159.681 240.875 145.507 240.949 145.507 240.949C145.507 240.949 144.975 253.393 128.974 258.261C112.567 261.448 106.265 250.674 106.265 250.674C106.265 250.674 93.7017 257.225 85.9368 262.505L85.6426 262.699C84.213 263.644 82.8489 264.684 81.5598 265.814C79.2235 267.575 77.156 269.666 75.4224 272.023C73.1065 275.824 63.3129 320.767 63.3129 320.767L95.8341 328.068L99.666 305.873L115.632 378.84L154.695 369.156L158.012 368.319L197.546 358.512L177.118 286.735L190.879 304.567L216.247 282.891Z" fill="url(#paint14_linear_237_2)"/>
<mask id="mask1_237_2" style="mask-type:alpha" maskUnits="userSpaceOnUse" x="63" y="240" width="154" height="139">
<path d="M216.247 282.891C216.247 282.891 186.531 247.689 182.729 245.395C180.096 244.127 177.295 243.244 174.411 242.774C172.745 242.377 171.054 242.093 169.35 241.922L169.016 241.915C159.681 240.875 145.507 240.949 145.507 240.949C145.507 240.949 144.975 253.393 128.974 258.261C112.567 261.448 106.265 250.674 106.265 250.674C106.265 250.674 93.7017 257.225 85.9368 262.505L85.6426 262.699C84.213 263.644 82.8489 264.684 81.5598 265.814C79.2235 267.575 77.156 269.666 75.4224 272.023C73.1065 275.824 63.3129 320.767 63.3129 320.767L95.8341 328.068L99.666 305.873L115.632 378.84L154.695 369.156L158.012 368.319L197.546 358.512L177.118 286.735L190.879 304.567L216.247 282.891Z" fill="url(#paint15_linear_237_2)"/>
</mask>
<g mask="url(#mask1_237_2)">
<g filter="url(#filter1_i_237_2)">
<path d="M159.767 322.084L145.005 312.498L108.477 384.949L161.343 372.576L170.817 354.709L179.237 356.651L175.368 369.294L212.05 360.708L169.634 330.208L150.107 363.469L137.161 366.499L159.767 322.084Z" stroke="white" stroke-width="2"/>
</g>
<path d="M104.131 323.846C103.348 321.703 102.721 319.507 102.255 317.274C101.235 313.173 99.8749 307.414 98.3752 300.94L98.4825 301.121L96.6252 298.56C92.3075 292.533 88.4452 287.051 85.7071 283.066C84.3492 281.074 83.2503 279.444 82.5192 278.291C82.0856 277.729 81.7254 277.114 81.4473 276.461C81.9872 276.918 82.4624 277.446 82.8595 278.032C83.7039 279.098 84.8934 280.663 86.3425 282.568C89.2613 286.446 93.2147 291.841 97.5329 297.845L99.367 300.45C100.821 306.968 102.048 312.723 102.888 316.887C103.486 319.17 103.901 321.497 104.131 323.846Z" fill="black"/>
<path d="M181.362 304.659C180.507 302.56 179.811 300.398 179.282 298.194C178.083 294.133 176.477 288.436 174.708 282.022L174.713 281.799C174.87 280.8 175.006 279.734 175.143 278.645C176.158 271.315 177.136 264.697 177.803 259.899C178.17 257.501 178.507 255.459 178.758 254.239C178.841 253.535 179.007 252.844 179.251 252.178C179.34 252.882 179.324 253.595 179.203 254.294C179.171 255.653 178.881 257.607 178.603 260.007C178.046 264.83 177.202 271.473 176.186 278.803C176.05 279.892 175.89 281.024 175.757 281.957L175.762 281.734C177.486 288.169 178.958 293.886 179.978 297.987C180.601 300.174 181.064 302.404 181.362 304.659Z" fill="black"/>
</g>
<rect x="51" y="119" width="192" height="63" rx="5" fill="url(#paint16_linear_237_2)"/>
<rect opacity="0.2" x="57" y="124" width="54" height="53" rx="5" fill="white"/>
<g filter="url(#filter2_d_237_2)">
<path d="M87.7917 140.898L82.5208 136L60 160H83.4792L89.2292 154.122L92.5833 155.592L89.7083 160H106L91.1458 144.816L79.6458 155.592H73.8958L87.7917 140.898Z" fill="white"/>
</g>
<rect x="118" y="134" width="115" height="5" rx="2.5" fill="white"/>
<rect x="118" y="147" width="115" height="1" rx="0.5" fill="white"/>
<rect x="118" y="151" width="115" height="1" rx="0.5" fill="white"/>
<rect x="118" y="155" width="115" height="1" rx="0.5" fill="white"/>
<rect x="118" y="159" width="115" height="1" rx="0.5" fill="white"/>
<rect x="118" y="163" width="115" height="1" rx="0.5" fill="white"/>
<rect x="118" y="167" width="115" height="1" rx="0.5" fill="white"/>
<g filter="url(#filter3_d_237_2)">
<path d="M294.668 151.735L265.334 125L140.001 256H270.668L302.668 223.918L321.334 231.939L305.334 256H396.001L313.334 173.122L249.334 231.939H217.334L294.668 151.735Z" fill="white"/>
</g>
<path d="M396.232 334.546C390.64 344.684 383.187 352.306 376.403 355.621H376.401C372.36 357.599 368.553 358.044 365.521 356.585C365.508 356.578 365.494 356.572 365.479 356.564L364.995 356.308L325.858 335.592L358.066 276.066L397.083 296.768C397.083 296.768 397.088 296.768 397.089 296.771C397.383 296.883 397.668 297.014 397.947 297.161C401.484 299.03 403.326 303.287 403.525 308.857C403.779 316.015 401.312 325.339 396.232 334.547V334.546Z" fill="url(#paint17_linear_237_2)"/>
<path d="M357.199 314.109C348.168 330.479 333.448 339.623 325.364 335.347C317.279 331.071 318.047 314.333 327.078 297.962C336.109 281.592 349.985 271.787 358.07 276.065C366.156 280.341 366.232 297.738 357.199 314.11V314.109Z" fill="#182273"/>
<path d="M273.308 325.242C273.308 325.242 294.457 314.148 321.381 329.773C321.381 329.773 330.512 336.811 340.389 329.791C350.264 322.771 359.072 307.382 360.827 297.447C362.582 287.511 361.797 281.501 355.82 277.969C349.844 274.438 337.372 268.582 331.624 259.997C325.877 251.412 322.398 245.91 321.322 237.23L311.916 268.973L291.298 304.385L273.307 325.24L273.308 325.242Z" fill="url(#paint18_linear_237_2)"/>
<path d="M408.884 340.719C402.952 351.47 394.211 358.416 388.105 357.714C387.95 357.696 387.794 357.672 387.643 357.644C387.631 357.641 387.618 357.64 387.606 357.635L386.193 357.382L384.886 357.147L376.405 355.619C383.189 352.304 390.643 344.682 396.234 334.544C401.315 325.336 403.781 316.01 403.528 308.854C406.647 310.737 410.554 313.101 410.834 313.31L411.012 313.44C416.3 317.181 415.345 329.011 408.886 340.719H408.884Z" fill="url(#paint19_linear_237_2)"/>
<path d="M389.358 356.682C388.225 357.095 387.16 357.329 386.193 357.384L384.887 357.149L380.02 354.194C380.841 353.66 381.662 353.099 382.48 352.51H382.482L389.357 356.684L389.358 356.682Z" fill="#081551"/>
<path d="M395.962 352.789C394.726 353.779 393.511 354.611 392.335 355.283L384.834 350.731C385.928 349.866 387.005 348.951 388.052 347.986L395.961 352.789H395.962Z" fill="#081551"/>
<path d="M402.323 346.317C401.271 347.638 400.2 348.841 399.126 349.926L391.057 345.027C392.146 343.866 393.192 342.65 394.181 341.376L402.323 346.317Z" fill="#081551"/>
<path d="M407.497 338.474C407.297 338.85 407.09 339.225 406.873 339.6C406.276 340.637 405.664 341.63 405.037 342.575L396.839 337.599C397.181 337.06 397.512 336.513 397.83 335.956C398.309 335.122 398.753 334.275 399.163 333.415L407.496 338.473L407.497 338.474Z" fill="#081551"/>
<path d="M410.745 330.313C410.378 331.689 409.913 333.098 409.34 334.524L400.849 329.368C401.356 327.959 401.793 326.533 402.17 325.105L410.743 330.312L410.745 330.313Z" fill="#081551"/>
<path d="M411.615 325.951L403.142 320.805C403.393 319.479 403.607 318.161 403.784 316.872L411.873 321.782H411.874C411.888 323.102 411.805 324.497 411.614 325.951H411.615Z" fill="#081551"/>
<path d="M411.579 318.132L404.179 313.636C404.265 312.814 404.341 312.007 404.409 311.218L410.855 315.13H410.857C411.161 316.037 411.405 317.043 411.579 318.131V318.132Z" fill="#081551"/>
<path d="M335.87 338.669L333.428 342.831L326.566 340.921L328.188 336.822L335.87 338.669Z" fill="url(#paint20_linear_237_2)"/>
<path d="M362.016 352.433L335.872 338.67L333.43 342.832L354.359 361.885L362.016 352.433Z" fill="url(#paint21_linear_237_2)"/>
<path d="M326.566 340.922L333.428 342.831L354.357 361.884L349.497 361.08L326.566 340.922Z" fill="#081551"/>
<path d="M349.499 361.079L323.979 392.886L323.246 395.557L319.864 399.999L305.046 383.404L308.148 380.368L312.294 381.386L337.987 350.958L349.499 361.079Z" fill="url(#paint22_linear_237_2)"/>
<path d="M335.113 348.436L308.146 380.369L312.292 381.387L337.986 350.959L335.113 348.436Z" fill="url(#paint23_linear_237_2)"/>
<path d="M308.147 380.368L303.087 379.275L299.131 382.444L305.045 383.404L308.147 380.368Z" fill="url(#paint24_linear_237_2)"/>
<path d="M299.131 382.444L314.975 399.439L319.863 400L305.045 383.404L299.131 382.444Z" fill="#081551"/>
<path d="M308.274 266.399C306.193 272.009 303.54 277.818 300.332 283.633C297.224 289.268 293.833 294.473 290.305 299.14L290.302 299.144C276.46 317.44 260.48 327.426 250.933 322.378C238.955 316.04 241.646 288.42 256.949 260.685C272.249 232.951 294.365 215.605 306.346 221.94C315.817 226.949 316.117 245.253 308.274 266.399Z" fill="url(#paint25_radial_237_2)"/>
<path d="M311.142 265.172V265.176C308.566 271.722 305.314 278.491 301.409 285.253C297.626 291.805 293.519 297.848 289.266 303.254L289.263 303.258L289.254 303.264L272.249 292.614L292.184 255.837L311.142 265.172Z" fill="url(#paint26_linear_237_2)"/>
<path d="M290.285 278.711C296.074 268.688 297.149 258.559 292.686 256.087C288.223 253.615 279.912 259.737 274.123 269.76C268.334 279.783 267.259 289.912 271.722 292.384C276.185 294.856 284.496 288.734 290.285 278.711Z" fill="url(#paint27_linear_237_2)"/>
<path d="M288.3 277.599C284.148 284.791 278.263 289.226 275.158 287.506L273.65 286.671L273.919 286.184L287.635 261.218L288.688 260.629L290.066 261.398L290.196 261.465C293.301 263.183 292.452 270.409 288.3 277.599Z" fill="url(#paint28_linear_237_2)"/>
<path d="M286.801 276.784C290.954 269.593 291.803 262.37 288.697 260.65C285.591 258.929 279.706 263.364 275.553 270.555C271.4 277.746 270.551 284.969 273.657 286.689C276.763 288.409 282.648 283.974 286.801 276.784Z" fill="url(#paint29_linear_237_2)"/>
<path d="M307.121 286.889C289.581 318.683 262.675 337.745 247.027 329.469C231.379 321.191 234.623 289.48 252.164 257.688C269.703 225.894 294.897 206.057 310.545 214.335C326.194 222.613 324.66 255.097 307.121 286.889ZM306.349 221.941C294.368 215.605 272.252 232.95 256.952 260.686C241.651 288.421 238.958 316.041 250.937 322.379C260.483 327.428 276.463 317.443 290.305 299.145L290.308 299.141C293.836 294.474 297.227 289.269 300.335 283.634C303.543 277.821 306.196 272.01 308.277 266.4C316.12 245.254 315.818 226.949 306.349 221.941Z" fill="url(#paint30_linear_237_2)"/>
<path d="M335.019 345.785C333.763 349.034 323.541 355.101 323.221 355.29L323.213 355.296L319.872 354.911C330.317 348.373 331.885 345.234 331.885 345.234L335.019 345.785Z" fill="url(#paint31_linear_237_2)"/>
<path d="M324.536 361.536L319.872 354.91L323.213 355.294L327.87 361.987L324.536 361.536Z" fill="#081551"/>
<path d="M338.531 349.208L327.871 361.989L323.215 355.296L323.222 355.29C323.541 355.103 333.764 349.036 335.02 345.785L338.531 349.206V349.208Z" fill="url(#paint32_linear_237_2)"/>
<defs>
<filter id="filter0_d_237_2" x="342.408" y="108.582" width="100.334" height="58.1553" filterUnits="userSpaceOnUse" color-interpolation-filters="sRGB">
<feFlood flood-opacity="0" result="BackgroundImageFix"/>
<feColorMatrix in="SourceAlpha" type="matrix" values="0 0 0 0 0 0 0 0 0 0 0 0 0 0 0 0 0 0 127 0" result="hardAlpha"/>
<feOffset dy="1.93105"/>
<feGaussianBlur stdDeviation="3.62072"/>
<feComposite in2="hardAlpha" operator="out"/>
<feColorMatrix type="matrix" values="0 0 0 0 1 0 0 0 0 1 0 0 0 0 1 0 0 0 0.75 0"/>
<feBlend mode="normal" in2="BackgroundImageFix" result="effect1_dropShadow_237_2"/>
<feBlend mode="normal" in="SourceGraphic" in2="effect1_dropShadow_237_2" result="shape"/>
</filter>
<filter id="filter1_i_237_2" x="106.62" y="311.052" width="107.8" height="79.3589" filterUnits="userSpaceOnUse" color-interpolation-filters="sRGB">
<feFlood flood-opacity="0" result="BackgroundImageFix"/>
<feBlend mode="normal" in="SourceGraphic" in2="BackgroundImageFix" result="shape"/>
<feColorMatrix in="SourceAlpha" type="matrix" values="0 0 0 0 0 0 0 0 0 0 0 0 0 0 0 0 0 0 127 0" result="hardAlpha"/>
<feOffset dy="4"/>
<feGaussianBlur stdDeviation="2"/>
<feComposite in2="hardAlpha" operator="arithmetic" k2="-1" k3="1"/>
<feColorMatrix type="matrix" values="0 0 0 0 0 0 0 0 0 0 0 0 0 0 0 0 0 0 0.25 0"/>
<feBlend mode="normal" in2="shape" result="effect1_innerShadow_237_2"/>
</filter>
<filter id="filter2_d_237_2" x="52.7586" y="130.69" width="60.4829" height="38.4829" filterUnits="userSpaceOnUse" color-interpolation-filters="sRGB">
<feFlood flood-opacity="0" result="BackgroundImageFix"/>
<feColorMatrix in="SourceAlpha" type="matrix" values="0 0 0 0 0 0 0 0 0 0 0 0 0 0 0 0 0 0 127 0" result="hardAlpha"/>
<feOffset dy="1.93105"/>
<feGaussianBlur stdDeviation="3.62072"/>
<feComposite in2="hardAlpha" operator="out"/>
<feColorMatrix type="matrix" values="0 0 0 0 1 0 0 0 0 1 0 0 0 0 1 0 0 0 0.75 0"/>
<feBlend mode="normal" in2="BackgroundImageFix" result="effect1_dropShadow_237_2"/>
<feBlend mode="normal" in="SourceGraphic" in2="effect1_dropShadow_237_2" result="shape"/>
</filter>
<filter id="filter3_d_237_2" x="132.76" y="119.69" width="270.483" height="145.483" filterUnits="userSpaceOnUse" color-interpolation-filters="sRGB">
<feFlood flood-opacity="0" result="BackgroundImageFix"/>
<feColorMatrix in="SourceAlpha" type="matrix" values="0 0 0 0 0 0 0 0 0 0 0 0 0 0 0 0 0 0 127 0" result="hardAlpha"/>
<feOffset dy="1.93105"/>
<feGaussianBlur stdDeviation="3.62072"/>
<feComposite in2="hardAlpha" operator="out"/>
<feColorMatrix type="matrix" values="0 0 0 0 1 0 0 0 0 1 0 0 0 0 1 0 0 0 0.75 0"/>
<feBlend mode="normal" in2="BackgroundImageFix" result="effect1_dropShadow_237_2"/>
<feBlend mode="normal" in="SourceGraphic" in2="effect1_dropShadow_237_2" result="shape"/>
</filter>
<linearGradient id="paint0_linear_237_2" x1="255" y1="0" x2="255" y2="510" gradientUnits="userSpaceOnUse">
<stop offset="0.2487" stop-color="#003BAC"/>
<stop offset="1" stop-color="#000E28"/>
</linearGradient>
<linearGradient id="paint1_linear_237_2" x1="53.5975" y1="260.544" x2="63.2616" y2="300.074" gradientUnits="userSpaceOnUse">
<stop stop-color="white"/>
<stop offset="0.64" stop-color="#C6D2F8"/>
<stop offset="1" stop-color="#ABBDF6"/>
</linearGradient>
<linearGradient id="paint2_linear_237_2" x1="30.1254" y1="193.075" x2="65.612" y2="296.074" gradientUnits="userSpaceOnUse">
<stop stop-color="#456EEF"/>
<stop offset="1" stop-color="#1D27E1"/>
</linearGradient>
<linearGradient id="paint3_linear_237_2" x1="247.648" y1="114.314" x2="213.394" y2="61.0305" gradientUnits="userSpaceOnUse">
<stop stop-color="#0093A2"/>
<stop offset="1" stop-color="#49FBDF"/>
</linearGradient>
<linearGradient id="paint4_linear_237_2" x1="394.922" y1="353.495" x2="403.917" y2="417.375" gradientUnits="userSpaceOnUse">
<stop stop-color="#456EEF"/>
<stop offset="1" stop-color="#1D27E1"/>
</linearGradient>
<linearGradient id="paint5_linear_237_2" x1="430.501" y1="455.53" x2="399.117" y2="373.154" gradientUnits="userSpaceOnUse">
<stop stop-color="#0093A2"/>
<stop offset="1" stop-color="#49FBDF"/>
</linearGradient>
<linearGradient id="paint6_linear_237_2" x1="457.247" y1="243.651" x2="469.769" y2="294.884" gradientUnits="userSpaceOnUse">
<stop stop-color="white"/>
<stop offset="0.64" stop-color="#C6D2F8"/>
<stop offset="1" stop-color="#ABBDF6"/>
</linearGradient>
<linearGradient id="paint7_linear_237_2" x1="462.624" y1="250.392" x2="462.624" y2="280.5" gradientUnits="userSpaceOnUse">
<stop stop-color="#456EEF"/>
<stop offset="1" stop-color="#1D27E1"/>
</linearGradient>
<linearGradient id="paint8_linear_237_2" x1="462.625" y1="256.014" x2="462.625" y2="278.41" gradientUnits="userSpaceOnUse">
<stop stop-color="white"/>
<stop offset="0.64" stop-color="#C6D2F8"/>
<stop offset="1" stop-color="#ABBDF6"/>
</linearGradient>
<linearGradient id="paint9_linear_237_2" x1="462.701" y1="259.341" x2="462.558" y2="271.263" gradientUnits="userSpaceOnUse">
<stop stop-color="#456EEF"/>
<stop offset="1" stop-color="#1D27E1"/>
</linearGradient>
<linearGradient id="paint10_linear_237_2" x1="486.55" y1="276.229" x2="477.48" y2="249.991" gradientUnits="userSpaceOnUse">
<stop stop-color="#0093A2"/>
<stop offset="1" stop-color="#49FBDF"/>
</linearGradient>
<linearGradient id="paint11_linear_237_2" x1="344.906" y1="59.1778" x2="353.414" y2="70.8133" gradientUnits="userSpaceOnUse">
<stop stop-color="#001552"/>
<stop offset="0.5" stop-color="#001E74"/>
<stop offset="1" stop-color="#4F67EE"/>
</linearGradient>
<linearGradient id="paint12_linear_237_2" x1="344.906" y1="59.1778" x2="353.414" y2="70.8133" gradientUnits="userSpaceOnUse">
<stop stop-color="#001552"/>
<stop offset="0.5" stop-color="#001E74"/>
<stop offset="1" stop-color="#4F67EE"/>
</linearGradient>
<linearGradient id="paint13_linear_237_2" x1="372.646" y1="83.446" x2="435.949" y2="161.811" gradientUnits="userSpaceOnUse">
<stop stop-color="#001552"/>
<stop offset="0.5" stop-color="#001E74"/>
<stop offset="1" stop-color="#4F67EE"/>
</linearGradient>
<linearGradient id="paint14_linear_237_2" x1="113.593" y1="243.279" x2="189.774" y2="351.841" gradientUnits="userSpaceOnUse">
<stop stop-color="#001552"/>
<stop offset="0.5" stop-color="#001E74"/>
<stop offset="1" stop-color="#4F67EE"/>
</linearGradient>
<linearGradient id="paint15_linear_237_2" x1="113.593" y1="243.279" x2="189.774" y2="351.841" gradientUnits="userSpaceOnUse">
<stop stop-color="#001552"/>
<stop offset="0.5" stop-color="#001E74"/>
<stop offset="1" stop-color="#4F67EE"/>
</linearGradient>
<linearGradient id="paint16_linear_237_2" x1="112.231" y1="120.437" x2="130.769" y2="190.378" gradientUnits="userSpaceOnUse">
<stop stop-color="#001552"/>
<stop offset="0.5" stop-color="#001E74"/>
<stop offset="1" stop-color="#4F67EE"/>
</linearGradient>
<linearGradient id="paint17_linear_237_2" x1="386.384" y1="290.034" x2="354.97" y2="344.389" gradientUnits="userSpaceOnUse">
<stop stop-color="#456EEF"/>
<stop offset="0.35" stop-color="#182273"/>
<stop offset="0.76" stop-color="#0A209E"/>
<stop offset="1" stop-color="#111C60"/>
</linearGradient>
<linearGradient id="paint18_linear_237_2" x1="334.438" y1="276.276" x2="315.917" y2="316.981" gradientUnits="userSpaceOnUse">
<stop stop-color="white"/>
<stop offset="0.59" stop-color="#ABBDF6"/>
<stop offset="1" stop-color="#6F95FC"/>
</linearGradient>
<linearGradient id="paint19_linear_237_2" x1="413.469" y1="312.652" x2="386.124" y2="360.407" gradientUnits="userSpaceOnUse">
<stop stop-color="#456EEF"/>
<stop offset="0.35" stop-color="#182273"/>
<stop offset="0.76" stop-color="#0A209E"/>
<stop offset="1" stop-color="#111C60"/>
</linearGradient>
<linearGradient id="paint20_linear_237_2" x1="326.764" y1="339.348" x2="335.671" y2="340.415" gradientUnits="userSpaceOnUse">
<stop stop-color="#456EEF"/>
<stop offset="0.76" stop-color="#0A209E"/>
<stop offset="1" stop-color="#111C60"/>
</linearGradient>
<linearGradient id="paint21_linear_237_2" x1="343.858" y1="354.466" x2="349.071" y2="344.861" gradientUnits="userSpaceOnUse">
<stop stop-color="#456EEF"/>
<stop offset="0.76" stop-color="#0A209E"/>
<stop offset="1" stop-color="#111C60"/>
</linearGradient>
<linearGradient id="paint22_linear_237_2" x1="338.207" y1="345.657" x2="320.662" y2="390.174" gradientUnits="userSpaceOnUse">
<stop stop-color="#456EEF"/>
<stop offset="0.76" stop-color="#0A209E"/>
<stop offset="1" stop-color="#111C60"/>
</linearGradient>
<linearGradient id="paint23_linear_237_2" x1="310.198" y1="363.346" x2="336.139" y2="366.453" gradientUnits="userSpaceOnUse">
<stop stop-color="#456EEF"/>
<stop offset="0.76" stop-color="#0A209E"/>
<stop offset="1" stop-color="#111C60"/>
</linearGradient>
<linearGradient id="paint24_linear_237_2" x1="299.341" y1="380.783" x2="307.985" y2="381.818" gradientUnits="userSpaceOnUse">
<stop stop-color="#456EEF"/>
<stop offset="0.76" stop-color="#0A209E"/>
<stop offset="1" stop-color="#111C60"/>
</linearGradient>
<radialGradient id="paint25_radial_237_2" cx="0" cy="0" r="1" gradientTransform="matrix(75.1194 8.6278 -8.8112 73.5557 259.932 245.623)" gradientUnits="userSpaceOnUse">
<stop stop-color="white"/>
<stop offset="0.59" stop-color="#ABBDF6"/>
<stop offset="1" stop-color="#6F95FC"/>
</radialGradient>
<linearGradient id="paint26_linear_237_2" x1="290.701" y1="268.463" x2="292.986" y2="293.502" gradientUnits="userSpaceOnUse">
<stop stop-color="white"/>
<stop offset="1" stop-color="#ABBDF6"/>
</linearGradient>
<linearGradient id="paint27_linear_237_2" x1="276.514" y1="291.254" x2="291.561" y2="244.365" gradientUnits="userSpaceOnUse">
<stop stop-color="#ABBDF6"/>
<stop offset="0.53" stop-color="#D9E1FB"/>
<stop offset="1" stop-color="white"/>
</linearGradient>
<linearGradient id="paint28_linear_237_2" x1="290.039" y1="263.448" x2="280.152" y2="284.843" gradientUnits="userSpaceOnUse">
<stop stop-color="#456EEF"/>
<stop offset="1" stop-color="#1D27E1"/>
</linearGradient>
<linearGradient id="paint29_linear_237_2" x1="275.553" y1="270.555" x2="286.685" y2="276.985" gradientUnits="userSpaceOnUse">
<stop stop-color="#5BD2DD"/>
<stop offset="1" stop-color="#2F68EA"/>
</linearGradient>
<linearGradient id="paint30_linear_237_2" x1="279.15" y1="212.452" x2="279.15" y2="331.402" gradientUnits="userSpaceOnUse">
<stop stop-color="#5BD2DD"/>
<stop offset="1" stop-color="#2F68EA"/>
</linearGradient>
<linearGradient id="paint31_linear_237_2" x1="320.536" y1="349.445" x2="334.391" y2="351.105" gradientUnits="userSpaceOnUse">
<stop stop-color="#456EEF"/>
<stop offset="0.76" stop-color="#0A209E"/>
<stop offset="1" stop-color="#111C60"/>
</linearGradient>
<linearGradient id="paint32_linear_237_2" x1="323.505" y1="352.96" x2="337.885" y2="354.683" gradientUnits="userSpaceOnUse">
<stop stop-color="#456EEF"/>
<stop offset="0.76" stop-color="#0A209E"/>
<stop offset="1" stop-color="#111C60"/>
</linearGradient>
</defs>
</svg>
