<svg width="45" height="45" viewBox="0 0 45 45" fill="none" xmlns="http://www.w3.org/2000/svg">
<g clip-path="url(#clip0_98_129)">
<path d="M40.9919 7.77051C34.8004 6.07404 28.5726 3.4325 22.9816 0.131507C22.8359 0.0454141 22.6697 0 22.5004 0C22.3312 0 22.165 0.0454141 22.0192 0.131507C16.267 3.52733 10.3757 6.02597 4.00846 7.77051C3.80835 7.82532 3.6318 7.94436 3.50596 8.10933C3.38013 8.27429 3.31198 8.47603 3.31201 8.68351V18.3555C3.31201 28.3155 7.90684 34.9083 11.7615 38.6851C15.9114 42.7513 20.7453 45 22.5004 45C24.2553 45 29.0893 42.7513 33.2391 38.6851C37.0938 34.9084 41.6883 28.3156 41.6883 18.3555V8.68342C41.6883 8.25698 41.4032 7.88309 40.9919 7.77051ZM39.7952 18.3554C39.7952 27.658 35.5095 33.8099 31.9141 37.3327C27.8333 41.3313 23.4701 43.1067 22.5004 43.1067C21.5307 43.1067 17.1673 41.3313 13.0864 37.3327C9.49106 33.8098 5.20526 27.658 5.20526 18.3554V9.40202C11.2941 7.67321 16.9647 5.26053 22.5006 2.04348C27.8983 5.17519 33.8517 7.70784 39.7952 9.40166V18.3554Z" fill="black"/>
<path d="M14.1099 9.29616C13.9183 8.80969 13.3687 8.57071 12.8821 8.7624C11.1847 9.43096 9.464 10.039 7.72337 10.5853C7.53106 10.6457 7.36303 10.7658 7.24373 10.9282C7.12443 11.0907 7.06008 11.287 7.06006 11.4885V15.144C7.06006 15.6667 7.48395 16.0905 8.00664 16.0905C8.52933 16.0905 8.95322 15.6667 8.95322 15.144V12.1803C10.511 11.6762 12.0527 11.1237 13.5761 10.5237C14.0626 10.3322 14.3015 9.78264 14.1099 9.29616ZM15.908 9.47572C16.035 9.47572 16.1639 9.45015 16.2876 9.39618L16.305 9.38862C16.7839 9.17874 16.9996 8.62125 16.7897 8.14251C16.5797 7.6636 16.019 7.44695 15.5406 7.65665L15.5253 7.66324C15.0462 7.87251 14.8298 8.42956 15.039 8.90857C15.1943 9.26417 15.5428 9.47572 15.908 9.47572ZM33.7784 30.523C33.3409 30.2371 32.7544 30.36 32.4681 30.7976C31.6881 31.9915 30.773 33.1348 29.7478 34.1954C28.9046 35.0676 27.997 35.8751 27.0326 36.6111C26.617 36.928 26.537 37.522 26.8538 37.9378C26.9422 38.0538 27.0561 38.1478 27.1868 38.2125C27.3175 38.2771 27.4614 38.3107 27.6072 38.3105C27.8074 38.3105 28.0091 38.2473 28.1805 38.1166C29.2206 37.3228 30.1994 36.4519 31.1088 35.5113C32.2172 34.3649 33.2077 33.1274 34.053 31.8332C34.3391 31.3955 34.216 30.8089 33.7784 30.523ZM24.8343 38.0956L24.78 38.1276C24.3276 38.3896 24.173 38.9687 24.4349 39.421C24.4971 39.5287 24.58 39.623 24.6787 39.6985C24.7774 39.7741 24.89 39.8295 25.0101 39.8616C25.1302 39.8936 25.2555 39.9016 25.3787 39.8852C25.502 39.8688 25.6207 39.8283 25.7283 39.7659L25.791 39.7291C26.2421 39.4649 26.3936 38.8851 26.1294 38.4339C25.8651 37.983 25.2851 37.8317 24.8343 38.0956ZM16.0479 20.5681C15.4667 19.9868 14.6937 19.6669 13.8716 19.6669C13.0495 19.6669 12.2764 19.9869 11.6949 20.5681C10.4949 21.7684 10.4949 23.7213 11.6949 24.9214L17.2844 30.5108C17.8657 31.0919 18.6387 31.4119 19.4609 31.4119C20.2831 31.4119 21.0561 31.0919 21.6375 30.5106L33.306 18.8421C34.5058 17.6416 34.5058 15.6889 33.3058 14.4891C32.7245 13.9078 31.9515 13.5879 31.1292 13.5879C30.307 13.5879 29.534 13.9079 28.9526 14.4891L19.4608 23.9808L16.0479 20.5681ZM30.2913 15.8278C30.4011 15.7175 30.5317 15.63 30.6756 15.5705C30.8194 15.511 30.9736 15.4806 31.1293 15.481C31.446 15.481 31.7434 15.6042 31.9673 15.8278C32.4292 16.2897 32.4292 17.0415 31.9671 17.5036L20.2988 29.1719C20.0752 29.3956 19.7775 29.5187 19.4609 29.5187C19.1443 29.5187 18.8466 29.3956 18.6229 29.1719L13.0335 23.5828C12.5715 23.1207 12.5715 22.3689 13.0334 21.9071C13.2571 21.6834 13.5548 21.5601 13.8715 21.5601C14.1882 21.5601 14.4857 21.6832 14.7094 21.9069L18.7914 25.9891C18.9691 26.1665 19.2097 26.2663 19.4608 26.2663C19.7119 26.2663 19.9526 26.1666 20.13 25.9891L30.2913 15.8278Z" fill="black"/>
</g>
<defs>
<clipPath id="clip0_98_129">
<rect width="45" height="45" fill="white"/>
</clipPath>
</defs>
</svg>
