<svg width="30" height="30" viewBox="0 0 30 30" fill="none" xmlns="http://www.w3.org/2000/svg">
<path fill-rule="evenodd" clip-rule="evenodd" d="M15.0545 0.220513C16.6511 -0.277362 18.414 0.0769867 19.7006 1.1909C19.9038 1.36618 19.8733 1.69515 19.6409 1.83106L16.0997 3.87598C15.9397 3.9687 15.8685 4.23544 15.9613 4.39675L16.6369 5.56655C16.7487 5.75961 17.0002 5.82693 17.1933 5.71643L20.7101 3.68549C20.9451 3.54958 21.2448 3.68676 21.2956 3.95222C21.8964 7.06023 19.4031 9.92431 16.2366 9.74645C15.3856 9.69818 14.5562 9.42764 13.8373 8.95896L4.69636 15.0608C3.62057 15.7797 2.18025 15.4431 1.53375 14.3241L0.840265 13.1213C0.195035 12.0036 0.624346 10.5849 1.78142 10.012L11.6364 5.14611C11.5526 3.61178 12.194 2.13464 13.3612 1.1503C13.8566 0.731149 14.4347 0.413589 15.0545 0.220513ZM24.5359 6.61433H27.7036C28.9674 6.61433 30 7.64695 30 8.91072V27.7036C30 28.9674 28.9674 30 27.7036 30L24.5359 29.9975C23.2722 29.9975 22.2396 28.9648 22.2396 27.7011L22.2408 8.90948C22.2408 7.64571 23.2734 6.61433 24.5359 6.61433ZM27.7036 7.40435H24.5359C23.7091 7.40435 23.0308 8.08259 23.0308 8.90945V27.7023C23.0308 28.5292 23.7091 29.2074 24.5359 29.2074H27.7036C28.5305 29.2074 29.2087 28.5292 29.2087 27.7023V8.90945C29.2087 8.08259 28.5305 7.40435 27.7036 7.40435ZM13.4162 13.7221C12.1524 13.7221 11.1198 14.7547 11.1198 16.0185V27.7025C11.1198 28.9663 12.1524 29.9989 13.4162 29.9989H16.5838C17.8476 29.9989 18.8802 28.9663 18.8802 27.7025V16.0185C18.8802 14.7547 17.8476 13.7221 16.5838 13.7221H13.4162ZM16.5838 14.5134H13.4162C12.5893 14.5134 11.9111 15.1916 11.9111 16.0185V27.7025C11.9111 28.5294 12.5893 29.2076 13.4162 29.2076H16.5838C17.4107 29.2076 18.0889 28.5294 18.0889 27.7025V16.0185C18.0877 15.1916 17.4107 14.5134 16.5838 14.5134ZM2.29638 19.4934H5.46407C6.72783 19.4934 7.76045 20.526 7.76045 21.7898V27.7024C7.76045 28.9662 6.72783 29.9988 5.46407 29.9988H2.29638C1.03261 29.9988 0 28.9662 0 27.7024V21.7898C0 20.526 1.03261 19.4934 2.29638 19.4934ZM5.46407 20.2847H2.29638C1.46952 20.2847 0.791288 20.9629 0.791288 21.7898V27.7024C0.791288 28.5293 1.46952 29.2075 2.29638 29.2075H5.46407C6.29093 29.2075 6.96916 28.5293 6.96916 27.7024L6.96789 21.7898C6.96789 20.9629 6.29093 20.2847 5.46407 20.2847ZM3.46744 11.0865C2.70535 11.2681 2.29511 12.1305 2.70155 12.8456C3.22358 13.7626 4.61181 13.5835 4.88744 12.5585C5.1275 11.6606 4.30064 10.887 3.46744 11.0865ZM3.83958 11.8612C3.50936 11.7723 3.19435 12.1191 3.3963 12.4684C3.55125 12.7364 4.02628 12.7186 4.12409 12.354C4.18124 12.1381 4.05423 11.9184 3.83958 11.8612ZM16.8915 0.806016C15.22 0.645979 13.6146 1.53254 12.8589 3.03C12.502 3.73747 12.3547 4.54017 12.4449 5.33657C12.4627 5.50169 12.375 5.66045 12.2264 5.73414L2.13017 10.7194C1.38079 11.089 1.10393 12.0009 1.52178 12.7262L2.21653 13.9277C2.63441 14.6517 3.56285 14.8702 4.2576 14.4053L13.6145 8.1601C13.7491 8.06484 13.9371 8.06103 14.0768 8.16518C16.156 9.70332 19.1459 8.93742 20.2228 6.57753C20.4946 5.98185 20.6216 5.32517 20.5886 4.66472L17.5886 6.39716C17.0221 6.73119 16.2804 6.52672 15.9539 5.96022L15.2909 4.81204C14.9556 4.24936 15.1652 3.50255 15.7279 3.1774L18.7292 1.44495C18.1754 1.08676 17.543 0.86825 16.8915 0.806016Z" fill="white"/>
</svg>
