<svg width="31" height="31" viewBox="0 0 31 31" fill="none" xmlns="http://www.w3.org/2000/svg">
<path d="M16.8624 0.79395H13.9174C13.2049 0.79395 12.5907 1.31563 12.4749 2.01784L12.1784 3.82069C11.1345 4.10208 10.1316 4.51793 9.19605 5.05829L7.70986 3.99249C7.13059 3.57663 6.3271 3.64261 5.82379 4.14688L3.74092 6.2299C3.23765 6.7329 3.17036 7.53599 3.58645 8.11495V8.11371L4.65283 9.60158C4.11218 10.5366 3.69609 11.5389 3.4158 12.5823L1.61323 12.8786C0.910633 12.9944 0.388672 13.6082 0.388672 14.3204V17.265C0.388672 17.9772 0.910633 18.591 1.61323 18.7068V18.708L3.4158 19.0044C3.6961 20.0477 4.11218 21.0513 4.65407 21.9863L3.5877 23.4742H3.58645C3.17161 24.0531 3.23763 24.855 3.74092 25.3592L5.82379 27.441C6.32706 27.944 7.13059 28.0112 7.70986 27.5954L9.19605 26.5296C10.1316 27.0699 11.1344 27.4858 12.1784 27.7659L12.4749 29.5675V29.5688C12.5907 30.271 13.2036 30.7939 13.9174 30.7939H16.8624C16.9521 30.7939 17.0393 30.7865 17.124 30.7703C17.1663 30.7628 17.2087 30.7529 17.2498 30.7417C17.2909 30.7304 17.332 30.7168 17.3719 30.7018C17.6111 30.6122 17.8229 30.4603 17.9848 30.266C18.0122 30.2337 18.0371 30.2 18.062 30.1652C18.1829 29.9909 18.2676 29.7892 18.3037 29.57V29.5675L18.6002 27.7647C19.6441 27.4833 20.647 27.0675 21.5825 26.5271L23.0687 27.5941V27.5954C23.648 28.01 24.4502 27.944 24.9548 27.441L27.0376 25.3592C27.5422 24.855 27.607 24.0532 27.1909 23.4742L26.1245 21.9876C26.6651 21.0513 27.0812 20.049 27.3628 19.0044L29.1653 18.708C29.2089 18.7006 29.2525 18.6919 29.2949 18.6806C29.9315 18.5151 30.3887 17.9336 30.3887 17.2662V14.3216C30.3887 13.6095 29.868 12.9956 29.1654 12.8799L27.3665 12.5835C27.0862 11.5377 26.6701 10.5329 26.1282 9.59536L27.1909 8.11498V8.11374C27.6057 7.53478 27.5409 6.73296 27.0376 6.22868L24.9548 4.14566C24.4515 3.64266 23.648 3.57665 23.0687 3.99127L21.5875 5.05331C20.6495 4.51171 19.6454 4.09585 18.6002 3.81571L18.3037 2.01784C18.1879 1.31438 17.5737 0.79395 16.8624 0.79395ZM13.9174 1.73149H16.8624C17.1227 1.73149 17.337 1.91327 17.3794 2.16975L17.7257 4.27017H17.7244C17.7556 4.45569 17.8938 4.60511 18.077 4.64992C19.238 4.93006 20.348 5.38949 21.3669 6.01326H21.3681C21.5288 6.11162 21.7331 6.1029 21.8863 5.99334L23.6154 4.75326C23.6416 4.73458 23.669 4.71839 23.6977 4.7047C23.8957 4.61007 24.1312 4.64742 24.2919 4.80804L26.3748 6.89106C26.5579 7.07409 26.5815 7.3567 26.4296 7.56838L25.1888 9.29779V9.29654C25.0792 9.44969 25.0717 9.65388 25.1689 9.81449C25.7917 10.8342 26.2514 11.9436 26.5317 13.1052H26.533C26.5766 13.2882 26.726 13.4264 26.9117 13.4575L29.012 13.8036C29.2686 13.846 29.4505 14.0601 29.4505 14.3203V17.2649C29.4505 17.5252 29.2686 17.7406 29.012 17.7816L26.9079 18.1278V18.129C26.7223 18.1589 26.5728 18.2983 26.5292 18.4814C26.2489 19.6405 25.788 20.7499 25.1664 21.7673H25.1651C25.0667 21.9279 25.0742 22.132 25.1838 22.284L26.4283 24.0183V24.0196C26.5803 24.2312 26.5566 24.5126 26.3735 24.6957L24.2906 26.7774C24.1062 26.9617 23.8259 26.9841 23.6142 26.8334L21.8788 25.5884H21.8801C21.7269 25.4788 21.5226 25.4713 21.3619 25.5697C20.3441 26.1922 19.2354 26.6517 18.0768 26.933C17.8936 26.9766 17.7554 27.126 17.7242 27.3115L17.3779 29.4157C17.3405 29.6411 17.1711 29.8079 16.9556 29.8465C16.9245 29.8528 16.8933 29.8553 16.8609 29.8553H13.916C13.6569 29.8553 13.4413 29.6722 13.399 29.4157L13.0527 27.3116V27.3128C13.0228 27.126 12.8833 26.9766 12.7001 26.9331C11.5403 26.6529 10.4329 26.1935 9.41502 25.571C9.25432 25.4726 9.05003 25.4801 8.89804 25.5896L7.16272 26.8335C6.95219 26.9853 6.67064 26.9617 6.48628 26.7774L4.40341 24.6957C4.21904 24.5114 4.19661 24.23 4.34735 24.0196L5.59183 22.284H5.59308C5.7027 22.1308 5.71018 21.9266 5.61177 21.766C4.9889 20.7488 4.52922 19.6407 4.24893 18.4802L4.24769 18.4814C4.20409 18.2984 4.0546 18.1602 3.86898 18.129L1.7649 17.7829C1.50828 17.7406 1.32516 17.5252 1.32516 17.2662V14.3216C1.32516 14.0614 1.50828 13.8472 1.7649 13.8049L3.86898 13.4588V13.4575C4.0546 13.4264 4.20409 13.2882 4.24769 13.1052C4.52798 11.946 4.9889 10.8379 5.61052 9.82057H5.61177C5.71018 9.65996 5.70271 9.45702 5.59308 9.30386L4.34859 7.56824C4.19661 7.35658 4.22028 7.07518 4.40465 6.89216L4.40341 6.89092L6.48628 4.8079C6.67065 4.62363 6.95093 4.60121 7.16147 4.75311H7.16272L8.89804 5.99692C9.05127 6.10774 9.25433 6.11396 9.41503 6.0156C10.4328 5.39307 11.5415 4.93364 12.7001 4.65226L12.7014 4.65351C12.8833 4.60868 13.0228 4.45927 13.0527 4.27376L13.399 2.16958C13.4413 1.91309 13.6556 1.73131 13.916 1.73131L13.9174 1.73149ZM15.3899 7.46368C13.1812 7.46368 11.061 8.34145 9.49866 9.904C7.93651 11.4666 7.05826 13.5845 7.05826 15.7943C7.05826 18.0031 7.93651 20.1221 9.49866 21.6846C11.0608 23.247 13.1798 24.1237 15.3899 24.1237C17.5986 24.1237 19.7188 23.2459 21.2811 21.6846C22.8433 20.122 23.7215 18.0041 23.7215 15.7943C23.7215 13.5855 22.8433 11.4665 21.2811 9.904C19.719 8.34145 17.5999 7.46368 15.3899 7.46368ZM15.3899 8.40122C17.3507 8.40122 19.2305 9.17938 20.6172 10.5664C22.0037 11.9534 22.7823 13.8335 22.7823 15.7931C22.7823 17.6856 22.0573 19.5022 20.7605 20.8731L20.5138 19.8223C20.1476 18.2659 18.7536 17.1603 17.1541 17.1603H13.625C12.0255 17.1603 10.6315 18.2647 10.2653 19.821L10.0186 20.8719C8.7218 19.5011 7.99679 17.6845 7.99679 15.7918V15.6088C8.04413 13.7151 8.81649 11.9086 10.1594 10.5651C11.5459 9.17807 13.4257 8.3999 15.3867 8.3999L15.3899 8.40122ZM15.3899 9.59151C13.4989 9.59151 11.9565 11.1329 11.9565 13.0231C11.9565 13.9332 12.3178 14.806 12.9618 15.4497C13.6058 16.0934 14.4791 16.4545 15.3898 16.4545C16.3004 16.4545 17.1737 16.0934 17.8177 15.4497C18.4618 14.806 18.823 13.9332 18.823 13.0231C18.823 12.1129 18.4618 11.2401 17.8177 10.5964C17.1737 9.95271 16.3005 9.59151 15.3899 9.59151ZM15.3899 10.5291C16.0526 10.5291 16.6867 10.7918 17.1551 11.2599C17.6236 11.7281 17.8864 12.3618 17.8864 13.0242C17.8864 13.6866 17.6235 14.3203 17.1551 14.7885C16.6867 15.2566 16.0527 15.5193 15.3899 15.5193C14.7271 15.5193 14.0931 15.2566 13.6247 14.7885C13.1562 14.3203 12.8934 13.6866 12.8934 13.0242C12.8934 11.6409 14.0059 10.5291 15.3899 10.5291ZM13.6247 18.0991H17.1537C18.3235 18.0991 19.3338 18.8997 19.6004 20.0377L19.9666 21.6002C18.7645 22.549 17.2933 23.103 15.756 23.179C15.695 23.1839 15.634 23.1839 15.5729 23.1852H15.3898C13.7205 23.1852 12.1098 22.6199 10.8118 21.5965L11.1781 20.0351C11.4447 18.8972 12.455 18.0966 13.6247 18.0966L13.6247 18.0991Z" fill="white"/>
</svg>
