<svg width="24" height="31" viewBox="0 0 24 31" fill="none" xmlns="http://www.w3.org/2000/svg">
<path d="M19.4398 12.3946C19.4398 16.5939 16.054 20.0093 11.8912 20.0093C7.73085 20.0093 4.3427 16.5938 4.3427 12.3946C4.3427 8.19546 7.72852 4.77998 11.8912 4.77998C16.054 4.77998 19.4398 8.19546 19.4398 12.3946ZM18.1809 12.3946C18.1809 8.89729 15.3581 6.04981 11.8911 6.04981C8.42414 6.04981 5.60138 8.89482 5.60138 12.3946C5.60138 15.8919 8.42169 18.7394 11.8911 18.7394C15.3581 18.7394 18.1809 15.8944 18.1809 12.3946ZM23.3887 12.3946C23.3887 13.4562 22.6314 14.2722 21.965 14.9891C21.5642 15.4207 21.1855 15.8274 21.0282 16.2119C20.8585 16.6261 20.8364 17.2041 20.8118 17.8167C20.7749 18.7815 20.7331 19.8754 20.0201 20.5947C19.307 21.314 18.2226 21.3562 17.2661 21.3934C16.6859 21.4157 16.0859 21.438 15.6728 21.6117C15.6704 21.6141 15.6655 21.6166 15.663 21.6166V30.159C15.663 30.402 15.5253 30.6253 15.3065 30.7319C15.0901 30.8361 14.8295 30.8063 14.6401 30.655L11.8887 28.4351L9.13721 30.655C9.02411 30.7468 8.88396 30.7939 8.7438 30.7939C8.65036 30.7939 8.55692 30.7741 8.47087 30.7319C8.25449 30.6253 8.11433 30.4045 8.11433 30.159V21.6166C8.11187 21.6141 8.10696 21.6117 8.1045 21.6117C7.69387 21.4405 7.12096 21.4182 6.51119 21.3934C5.55472 21.3562 4.47035 21.314 3.75729 20.5947C3.04423 19.8754 3.00243 18.7815 2.96554 17.8167C2.94096 17.204 2.92128 16.6261 2.74917 16.2094C2.5918 15.825 2.21314 15.4182 1.81234 14.9866C1.14598 14.2673 0.388672 13.4537 0.388672 12.3922C0.388672 11.3306 1.14598 10.517 1.81234 9.7977C2.21313 9.36611 2.5918 8.95934 2.74917 8.57486C2.91883 8.16064 2.94096 7.58271 2.96554 6.97008C3.00243 6.00523 3.04423 4.91136 3.75729 4.19206C4.47035 3.47276 5.55472 3.43059 6.51119 3.39338C7.09148 3.37106 7.69144 3.34874 8.1045 3.17511C8.48562 3.01636 8.88887 2.63439 9.31672 2.23007C10.0298 1.55789 10.8363 0.793945 11.8886 0.793945C12.941 0.793945 13.7475 1.55789 14.4606 2.23007C14.8884 2.63438 15.2917 3.01636 15.6728 3.17511C16.0834 3.34625 16.6563 3.36858 17.2661 3.39338C18.2226 3.43059 19.307 3.47276 20.02 4.19206C20.7331 4.91136 20.7749 6.00523 20.8118 6.97008C20.8339 7.55545 20.856 8.16066 21.0281 8.57733C21.1855 8.96179 21.5642 9.36858 21.965 9.80017C22.6313 10.5195 23.3887 11.3331 23.3887 12.3946ZM14.4062 28.8393V22.611C13.7079 23.2708 12.9161 23.9926 11.8908 23.9926C10.8655 23.9926 10.0737 23.2708 9.3754 22.611V28.8393L11.4974 27.1278C11.7285 26.9418 12.0531 26.9418 12.2842 27.1278L14.4062 28.8393ZM22.1297 12.3946C22.1297 11.8341 21.6035 11.2686 21.0478 10.6682C20.588 10.1722 20.1134 9.66124 19.8676 9.06347C19.6118 8.43841 19.5823 7.71662 19.5578 7.01961C19.5282 6.21598 19.4987 5.45947 19.1348 5.09232C18.7709 4.72523 18.0185 4.69546 17.2218 4.6657C16.5309 4.63841 15.8153 4.61113 15.1957 4.35317C14.6031 4.10513 14.0941 3.62396 13.6049 3.16011C13.0098 2.59954 12.4492 2.06871 11.8935 2.06871C11.3378 2.06871 10.7772 2.59951 10.1821 3.16011C9.69031 3.62394 9.18381 4.10514 8.59123 4.35317C7.9716 4.61112 7.25607 4.64089 6.56511 4.6657C5.76846 4.69546 5.01851 4.72522 4.65456 5.09232C4.2906 5.45942 4.26114 6.21839 4.23163 7.02208C4.20459 7.7191 4.17754 8.44087 3.92182 9.06595C3.67593 9.66372 3.19894 10.1772 2.74157 10.6707C2.18587 11.271 1.65965 11.8365 1.65965 12.3971C1.65965 12.9577 2.18584 13.5232 2.74157 14.1235C3.20137 14.6196 3.67595 15.1305 3.92182 15.7283C4.17754 16.3533 4.20704 17.0751 4.23163 17.7721C4.26114 18.5757 4.29064 19.3323 4.65456 19.6994C5.01846 20.0665 5.77085 20.0963 6.56756 20.126C7.25853 20.1533 7.97404 20.1806 8.59369 20.4385C9.18627 20.6866 9.69525 21.1678 10.1845 21.6316C10.7796 22.1922 11.3402 22.723 11.8959 22.723C12.4516 22.723 13.0122 22.1922 13.6073 21.6316C14.0991 21.1678 14.6056 20.689 15.1982 20.441C15.8178 20.1831 16.5333 20.1533 17.2243 20.1285C18.0209 20.0987 18.7709 20.069 19.1348 19.7019C19.4987 19.3348 19.5282 18.5758 19.5578 17.7721C19.5848 17.0751 19.6118 16.3533 19.8676 15.7282C20.1134 15.1305 20.5904 14.617 21.0478 14.1235C21.6035 13.5232 22.1297 12.9577 22.1297 12.3971V12.3946ZM14.5906 10.2441L11.0327 13.8332L9.19103 11.9754C8.94514 11.7274 8.54683 11.7274 8.3009 11.9754C8.05497 12.2234 8.05502 12.6252 8.3009 12.8733L10.5876 15.1801C10.7056 15.2991 10.8655 15.3661 11.0327 15.3661C11.1999 15.3661 11.3597 15.2991 11.4777 15.1801L15.4807 11.142C15.7266 10.894 15.7266 10.4922 15.4807 10.2441C15.2349 9.99605 14.8366 9.99611 14.5906 10.2441Z" fill="white"/>
</svg>
