<svg width="23" height="31" viewBox="0 0 23 31" fill="none" xmlns="http://www.w3.org/2000/svg">
<path fill-rule="evenodd" clip-rule="evenodd" d="M2.68261 0.793945C1.4228 0.793945 0.388672 1.81831 0.388672 3.07375V28.5141C0.388672 29.7696 1.4228 30.7939 2.68261 30.7939H20.6149C21.8747 30.7939 22.9089 29.7696 22.9089 28.5141V3.07375C22.9089 1.81831 21.8747 0.793945 20.6149 0.793945H2.68261ZM2.68261 1.82829H20.6149C21.3253 1.82829 21.8786 2.3792 21.8786 3.07375V28.5141C21.8786 29.2087 21.3253 29.7596 20.6149 29.7596H2.68261C1.97224 29.7596 1.42302 29.2087 1.42302 28.5141V3.07375C1.42302 2.3792 1.97224 1.82829 2.68261 1.82829ZM11.6503 4.44042C8.57785 4.44042 6.06948 6.92342 6.06948 9.97577C6.06948 13.0281 8.57785 15.5081 11.6503 15.5081C14.7227 15.5081 17.2281 13.0281 17.2281 9.97577C17.2281 6.92342 14.7227 4.44042 11.6503 4.44042ZM11.1311 5.50405V5.6081V10.0788L7.7715 12.003L7.6311 12.0829C7.29474 11.4546 7.10382 10.7379 7.10382 9.97578C7.10382 7.66126 8.85912 5.75855 11.1311 5.50405ZM12.1665 5.50405C14.4399 5.75676 16.1937 7.65988 16.1937 9.97577C16.1937 12.464 14.1688 14.4727 11.6503 14.4727C10.2798 14.4727 9.05436 13.8787 8.222 12.9354L8.28361 12.9L11.9068 10.8273C11.9854 10.7821 12.0508 10.7171 12.0964 10.6388C12.1419 10.5604 12.1661 10.4714 12.1664 10.3808V5.60808L12.1665 5.50405ZM5.38968 18.0616C5.25322 18.0622 5.1225 18.1166 5.026 18.2131C4.92951 18.3096 4.87506 18.4403 4.87453 18.5768C4.87426 18.6447 4.88738 18.712 4.91312 18.7748C4.93887 18.8377 4.97674 18.8949 5.02458 18.9431C5.07241 18.9913 5.12928 19.0296 5.19192 19.0558C5.25457 19.0821 5.32177 19.0957 5.38968 19.096H17.9079C17.9758 19.0957 18.043 19.0821 18.1056 19.0558C18.1683 19.0296 18.2251 18.9913 18.273 18.9431C18.3208 18.8949 18.3587 18.8377 18.3844 18.7748C18.4102 18.712 18.4233 18.6447 18.423 18.5768C18.4225 18.4403 18.368 18.3096 18.2715 18.2131C18.175 18.1166 18.0443 18.0622 17.9079 18.0616H5.38968ZM5.38968 22.0859C5.32177 22.0861 5.25457 22.0998 5.19192 22.126C5.12928 22.1522 5.07241 22.1906 5.02458 22.2388C4.97674 22.287 4.93887 22.3441 4.91313 22.407C4.88738 22.4698 4.87427 22.5371 4.87453 22.6051C4.87506 22.7415 4.92951 22.8722 5.026 22.9687C5.1225 23.0652 5.25322 23.1197 5.38968 23.1202H17.9079C18.0443 23.1197 18.175 23.0652 18.2715 22.9687C18.368 22.8722 18.4225 22.7415 18.423 22.6051C18.4233 22.5371 18.4102 22.4698 18.3844 22.407C18.3587 22.3441 18.3208 22.287 18.273 22.2388C18.2251 22.1906 18.1683 22.1522 18.1056 22.126C18.043 22.0998 17.9758 22.0861 17.9079 22.0859H5.38968ZM13.8493 26.1131C13.7814 26.1129 13.7141 26.126 13.6512 26.1517C13.5884 26.1775 13.5312 26.2153 13.483 26.2632C13.4348 26.311 13.3965 26.3679 13.3702 26.4305C13.344 26.4932 13.3303 26.5604 13.3301 26.6283C13.3298 26.6965 13.3431 26.7642 13.3691 26.8273C13.3951 26.8904 13.4333 26.9477 13.4816 26.996C13.5298 27.0443 13.5872 27.0825 13.6503 27.1085C13.7134 27.1345 13.781 27.1477 13.8493 27.1475H17.9079C17.9758 27.1472 18.043 27.1336 18.1056 27.1073C18.1683 27.0811 18.2251 27.0428 18.273 26.9946C18.3208 26.9464 18.3587 26.8892 18.3844 26.8264C18.4102 26.7635 18.4233 26.6962 18.423 26.6283C18.4225 26.4918 18.368 26.3611 18.2715 26.2646C18.175 26.1681 18.0443 26.1137 17.9079 26.1131H13.8493Z" fill="white"/>
</svg>
