<svg width="46" height="46" viewBox="0 0 46 46" fill="none" xmlns="http://www.w3.org/2000/svg">
<g clip-path="url(#clip0_95_10228)">
<mask id="mask0_95_10228" style="mask-type:luminance" maskUnits="userSpaceOnUse" x="0" y="0" width="46" height="46">
<path d="M0.0724792 0.910156H45.0725V45.9102H0.0724792V0.910156Z" fill="white"/>
</mask>
<g mask="url(#mask0_95_10228)">
<path d="M10.1426 34.1426C3.55296 27.5515 3.55296 16.8668 10.1426 10.2785C16.7323 3.68743 27.417 3.68743 34.0067 10.2785C35.576 11.8434 36.8206 13.703 37.6689 15.7505C38.5172 17.798 38.9525 19.9929 38.9497 22.2091C38.9497 22.5821 39.0978 22.9398 39.3616 23.2035C39.6253 23.4672 39.983 23.6154 40.3559 23.6154C40.7289 23.6154 41.0866 23.4672 41.3503 23.2035C41.614 22.9398 41.7622 22.5821 41.7622 22.2091C41.7652 19.6235 41.2575 17.0626 40.268 14.6737C39.2786 12.2849 37.827 10.115 35.9966 8.28868C28.3086 0.600713 15.8422 0.600713 8.1528 8.28868C0.466238 15.9767 0.466238 28.4431 8.1528 36.131C9.97925 37.9616 12.1494 39.4133 14.5385 40.4028C16.9277 41.3922 19.4888 41.8999 22.0747 41.8967C22.4476 41.8967 22.8053 41.7485 23.069 41.4848C23.3328 41.221 23.4809 40.8634 23.4809 40.4904C23.4809 40.1174 23.3328 39.7598 23.069 39.496C22.8053 39.2323 22.4476 39.0842 22.0747 39.0842C19.8583 39.0873 17.6632 38.6524 15.6154 37.8043C13.5677 36.9563 11.7078 35.7118 10.1426 34.1426Z" fill="black"/>
<path fill-rule="evenodd" clip-rule="evenodd" d="M23.5569 21.8844C23.3047 21.7912 23.0312 21.7722 22.7686 21.8296C22.506 21.8871 22.2654 22.0186 22.0752 22.2086C21.8851 22.3986 21.7534 22.6391 21.6957 22.9017C21.638 23.1642 21.6568 23.4378 21.7498 23.69L28.7108 42.583C28.8167 42.8705 29.0136 43.1155 29.2716 43.2808C29.5295 43.4461 29.8344 43.5227 30.1399 43.4988C30.4454 43.4749 30.7347 43.3519 30.9638 43.1485C31.1929 42.9452 31.3494 42.6725 31.4094 42.372L33.2136 33.3481L42.2389 31.5439C42.5399 31.4844 42.8132 31.3281 43.0171 31.0988C43.2209 30.8695 43.3442 30.5798 43.3681 30.2739C43.392 29.968 43.3152 29.6627 43.1494 29.4045C42.9836 29.1463 42.7379 28.9495 42.4498 28.8439L23.5569 21.8844ZM30.6401 31.8772L29.6276 36.9383L25.4426 25.5758L36.8037 29.7622L31.7426 30.7747C31.4706 30.8292 31.2208 30.963 31.0246 31.1592C30.8284 31.3553 30.6947 31.6052 30.6401 31.8772Z" fill="black"/>
<path d="M14.1209 14.2554C12.7664 15.6089 11.7798 17.2857 11.2545 19.1271C10.7293 20.9685 10.6827 22.9135 11.1192 24.7779C11.5558 26.6423 12.4609 28.3645 13.7491 29.7813C15.0372 31.1981 16.6657 32.2626 18.4803 32.8741C18.8221 33.0017 19.1009 33.2571 19.2579 33.5864C19.4149 33.9157 19.4377 34.2932 19.3217 34.639C19.2056 34.9849 18.9596 35.2721 18.6358 35.44C18.3119 35.6079 17.9355 35.6434 17.5859 35.539C15.53 34.8477 13.6627 33.6885 12.1311 32.1527C6.63966 26.6613 6.63966 17.7583 12.1311 12.2655C17.6239 6.77412 26.5268 6.77412 32.0197 12.2655C33.5549 13.7973 34.7136 15.6646 35.4045 17.7204C35.5233 18.0739 35.4968 18.4602 35.3307 18.7942C35.1647 19.1282 34.8728 19.3826 34.5193 19.5014C34.1657 19.6202 33.7794 19.5936 33.4454 19.4276C33.1114 19.2616 32.857 18.9697 32.7383 18.6162C32.1268 16.8017 31.0624 15.1734 29.6458 13.8853C28.2292 12.5972 26.5072 11.692 24.643 11.2553C22.7788 10.8187 20.834 10.865 18.9927 11.39C17.1514 11.915 15.4745 12.9012 14.1209 14.2554Z" fill="black"/>
<path d="M18.0978 26.1874C17.5432 25.6309 17.1113 24.9645 16.83 24.2309C16.5486 23.4974 16.4241 22.7131 16.4643 21.9285C16.5045 21.1439 16.7087 20.3764 17.0636 19.6755C17.4185 18.9746 17.9163 18.3558 18.5249 17.859C19.1335 17.3622 19.8395 16.9984 20.5973 16.791C21.355 16.5837 22.1478 16.5374 22.9246 16.6551C23.7014 16.7727 24.4449 17.0519 25.1072 17.4744C25.7696 17.8969 26.336 18.4535 26.7702 19.1083C26.8718 19.2632 27.003 19.3964 27.1562 19.5004C27.3095 19.6044 27.4818 19.6771 27.6632 19.7144C27.8447 19.7516 28.0317 19.7526 28.2135 19.7174C28.3954 19.6821 28.5684 19.6113 28.7228 19.5089C28.8772 19.4066 29.0099 19.2748 29.1131 19.121C29.2164 18.9673 29.2883 18.7946 29.3247 18.613C29.3611 18.4314 29.3612 18.2444 29.3251 18.0627C29.2891 17.8811 29.2174 17.7083 29.1144 17.5544C28.4236 16.5123 27.51 15.6367 26.4394 14.9909C25.3688 14.3451 24.1681 13.9454 22.9241 13.8205C21.6801 13.6956 20.4239 13.8488 19.2463 14.2689C18.0687 14.689 16.9992 15.3655 16.1152 16.2496C15.2311 17.1337 14.5546 18.2032 14.1345 19.3807C13.7144 20.5583 13.5612 21.8145 13.6861 23.0585C13.8109 24.3025 14.2107 25.5032 14.8565 26.5738C15.5022 27.6444 16.3779 28.5581 17.42 29.2488C17.5739 29.3519 17.7466 29.4235 17.9283 29.4596C18.11 29.4957 18.297 29.4955 18.4786 29.4591C18.6602 29.4228 18.8329 29.3509 18.9866 29.2476C19.1403 29.1443 19.2722 29.0116 19.3745 28.8573C19.4768 28.7029 19.5477 28.5298 19.5829 28.348C19.6182 28.1661 19.6172 27.9791 19.5799 27.7977C19.5427 27.6162 19.47 27.4439 19.366 27.2907C19.262 27.1374 19.1288 27.0062 18.9739 26.9046C18.6586 26.6954 18.3651 26.4552 18.0978 26.1874Z" fill="black"/>
</g>
</g>
<defs>
<clipPath id="clip0_95_10228">
<rect width="45" height="45" fill="white" transform="translate(0.0724792 0.910156)"/>
</clipPath>
</defs>
</svg>
