<svg width="28" height="30" viewBox="0 0 28 30" fill="none" xmlns="http://www.w3.org/2000/svg">
<path fill-rule="evenodd" clip-rule="evenodd" d="M2.21893 23.8354C2.21893 26.0264 4.0126 27.8058 6.22514 27.8058H21.6712C22.2819 27.8058 22.7806 28.2966 22.7806 28.9013C22.7806 29.5061 22.2818 30 21.6712 30H6.22514C2.78807 30 0 27.2391 0 23.8354V6.16462C0 2.76097 2.78803 0 6.22514 0H21.0061C24.4432 0 27.2313 2.76093 27.2313 6.16462V9.99256C27.2313 10.5973 26.7357 11.0881 26.1218 11.0881C25.5079 11.0881 25.0124 10.5973 25.0124 9.99256V6.16462C25.0124 3.97043 23.2187 2.19419 21.0062 2.19419H6.22519C4.01268 2.19419 2.21897 3.97043 2.21897 6.16462L2.21893 23.8354ZM16.6737 8.55213C12.0344 8.55213 8.25541 12.2439 8.25541 16.8189C8.25541 21.3939 12.0346 25.0829 16.6737 25.0829C18.509 25.0829 20.2099 24.5034 21.5942 23.5219L26.0575 28.5813C26.4604 29.0373 27.1606 29.0848 27.621 28.6858C28.0814 28.2869 28.1293 27.5935 27.7265 27.1344L23.212 22.0211C24.3854 20.6026 25.0888 18.7915 25.0888 16.819C25.0888 12.2438 21.3096 8.55213 16.6737 8.55213ZM10.4711 16.8189C10.4711 13.4754 13.2367 10.7491 16.6737 10.7491C20.1107 10.7491 22.8731 13.4752 22.8731 16.8189C22.8731 20.1626 20.1074 22.8887 16.6737 22.8887C13.24 22.8887 10.4711 20.1594 10.4711 16.8189Z" fill="white"/>
</svg>
