<svg width="55" height="55" viewBox="0 0 55 55" fill="none" xmlns="http://www.w3.org/2000/svg">
<g clip-path="url(#clip0_98_82)">
<g clip-path="url(#clip1_98_82)">
<g clip-path="url(#clip2_98_82)">
<path opacity="0.2" d="M27.5 55C42.6878 55 55 42.6878 55 27.5C55 12.3122 42.6878 0 27.5 0C12.3122 0 0 12.3122 0 27.5C0 42.6878 12.3122 55 27.5 55Z" fill="url(#paint0_linear_98_82)"/>
<g clip-path="url(#clip3_98_82)">
<path d="M16.4434 19.3868C16.4434 19.0217 16.7412 18.724 17.1064 18.724C17.4715 18.724 17.7692 19.0218 17.7692 19.3868C17.7692 19.7519 17.4715 20.0497 17.1064 20.0497C16.7412 20.0497 16.4434 19.7519 16.4434 19.3868ZM19.6509 20.0497C20.016 20.0497 20.3137 19.7519 20.3137 19.3868C20.3137 19.0217 20.016 18.724 19.6509 18.724C19.2857 18.724 18.988 19.0218 18.988 19.3868C18.9881 19.7519 19.2857 20.0497 19.6509 20.0497ZM22.1953 20.0497C22.5604 20.0497 22.8582 19.7519 22.8582 19.3868C22.8582 19.0217 22.5604 18.724 22.1953 18.724C21.8302 18.724 21.5324 19.0218 21.5324 19.3868C21.5324 19.7519 21.8301 20.0497 22.1953 20.0497ZM22.0881 28.6295H29.0131C29.1374 28.6295 29.2566 28.5801 29.3445 28.4922C29.4325 28.4043 29.4818 28.2851 29.4818 28.1608C29.4818 28.0364 29.4325 27.9172 29.3445 27.8293C29.2566 27.7414 29.1374 27.692 29.0131 27.692H22.0881C21.9638 27.692 21.8446 27.7414 21.7567 27.8293C21.6688 27.9172 21.6194 28.0364 21.6194 28.1608C21.6194 28.2851 21.6688 28.4043 21.7567 28.4922C21.8446 28.5801 21.9638 28.6295 22.0881 28.6295ZM16.166 31.8415H31.4263C31.5506 31.8415 31.6698 31.7921 31.7577 31.7042C31.8456 31.6162 31.895 31.497 31.895 31.3727C31.895 31.2484 31.8456 31.1292 31.7577 31.0412C31.6698 30.9533 31.5506 30.904 31.4263 30.904H16.166C16.0417 30.904 15.9224 30.9533 15.8345 31.0412C15.7466 31.1292 15.6972 31.2484 15.6972 31.3727C15.6972 31.497 15.7466 31.6162 15.8345 31.7042C15.9224 31.7921 16.0417 31.8415 16.166 31.8415ZM42.7655 21.9635C42.7653 21.964 42.765 21.9645 42.7647 21.9649L41.3352 24.4407V36.8556C41.3352 37.7394 40.6162 38.4586 39.7323 38.4586H14.6029C13.7191 38.4586 13 37.7395 13 36.8557V18.3643C13 17.4805 13.7191 16.7614 14.6029 16.7614H39.7323C40.6162 16.7614 41.3352 17.4804 41.3352 18.3643V19.1584C41.4545 19.1965 41.5694 19.2473 41.6779 19.3098L42.1234 19.567C42.9612 20.0507 43.2493 21.1258 42.7655 21.9635ZM13.9375 18.3643V21.0748H38.6331L39.2813 19.952C39.5326 19.5168 39.9435 19.2304 40.3978 19.123V18.3643C40.3978 17.9974 40.0993 17.6989 39.7324 17.6989H14.6029C14.236 17.6989 13.9375 17.9974 13.9375 18.3643ZM40.3978 26.0646L36.2341 33.2762C36.193 33.3474 36.1338 33.4066 36.0626 33.4477L33.3972 34.9866C33.3256 35.0297 33.2436 35.0528 33.16 35.0534H16.166C16.0417 35.0534 15.9224 35.004 15.8345 34.9161C15.7466 34.8282 15.6972 34.709 15.6972 34.5846C15.6972 34.4603 15.7466 34.3411 15.8345 34.2532C15.9224 34.1653 16.0417 34.1159 16.166 34.1159H32.6872V31.499C32.6872 31.4167 32.7089 31.3358 32.75 31.2646L38.0918 22.0123H13.9375V36.8557C13.9375 37.2226 14.236 37.5211 14.6029 37.5211H39.7323C40.0993 37.5211 40.3977 37.2226 40.3977 36.8557L40.3978 26.0646ZM33.6247 33.7728L34.8907 33.0418L33.6247 32.3108V33.7728ZM41.6546 20.3788L41.2092 20.1216C40.8191 19.8964 40.3185 20.0306 40.0932 20.4207L33.7963 31.3274L35.6566 32.4015L41.9533 21.4953L41.9536 21.4948C42.1789 21.1047 42.0447 20.6041 41.6546 20.3788ZM22.0881 25.4176H29.0131C29.1374 25.4176 29.2566 25.3682 29.3445 25.2803C29.4325 25.1924 29.4818 25.0732 29.4818 24.9488C29.4818 24.8245 29.4325 24.7053 29.3445 24.6174C29.2566 24.5295 29.1374 24.4801 29.0131 24.4801H22.0881C21.9638 24.4801 21.8446 24.5295 21.7567 24.6174C21.6688 24.7053 21.6194 24.8245 21.6194 24.9488C21.6194 25.0732 21.6688 25.1924 21.7567 25.2803C21.8446 25.3682 21.9638 25.4176 22.0881 25.4176ZM15.6972 28.1608V24.9488C15.6972 24.8245 15.7466 24.7053 15.8345 24.6174C15.9224 24.5295 16.0417 24.4801 16.166 24.4801H19.3779C19.5022 24.4801 19.6215 24.5295 19.7094 24.6174C19.7973 24.7053 19.8467 24.8245 19.8467 24.9488V28.1608C19.8467 28.2851 19.7973 28.4043 19.7094 28.4922C19.6215 28.5801 19.5022 28.6295 19.3779 28.6295H16.166C16.0417 28.6295 15.9224 28.5801 15.8345 28.4922C15.7466 28.4043 15.6972 28.2851 15.6972 28.1608ZM16.6347 27.692H18.9092V25.4176H16.6347V27.692Z" fill="white"/>
</g>
</g>
</g>
</g>
<defs>
<linearGradient id="paint0_linear_98_82" x1="0" y1="27.5" x2="55" y2="27.5" gradientUnits="userSpaceOnUse">
<stop stop-color="#6DFAD9"/>
<stop offset="1" stop-color="#2755EE"/>
</linearGradient>
<clipPath id="clip0_98_82">
<rect width="55" height="55" fill="white"/>
</clipPath>
<clipPath id="clip1_98_82">
<rect width="55" height="55" fill="white"/>
</clipPath>
<clipPath id="clip2_98_82">
<rect width="55" height="55" fill="white"/>
</clipPath>
<clipPath id="clip3_98_82">
<rect width="30" height="30" fill="white" transform="translate(13 12.61)"/>
</clipPath>
</defs>
</svg>
