<svg width="46" height="46" viewBox="0 0 46 46" fill="none" xmlns="http://www.w3.org/2000/svg">
<g clip-path="url(#clip0_95_10224)">
<g clip-path="url(#clip1_95_10224)">
<g clip-path="url(#clip2_95_10224)">
<path d="M11.3488 5.96106C9.97903 5.95918 8.66077 6.48004 7.66633 7.41609C6.67189 8.35214 6.07722 9.63189 6.00513 10.9911H4.88013C3.83275 10.9999 2.83129 11.4195 2.09382 12.1586C1.35635 12.8976 0.942589 13.8961 0.942627 14.9368V16.0211C0.943598 16.8426 1.20265 17.6434 1.68364 18.3117C2.16464 18.9799 2.84358 19.4824 3.62575 19.7488L17.8176 34.9617V40.7015C17.8176 40.998 17.9361 41.2823 18.1471 41.4919C18.3581 41.7015 18.6442 41.8193 18.9426 41.8193H27.9426C28.2409 41.8193 28.5271 41.7015 28.7381 41.4919C28.9491 41.2823 29.0676 40.998 29.0676 40.7015V34.9617L43.2594 19.7488C44.0416 19.4824 44.7206 18.9799 45.2015 18.3117C45.6825 17.6434 45.9416 16.8426 45.9426 16.0211V14.9536C45.9471 13.91 45.5353 12.9071 44.7973 12.1645C44.0594 11.4219 43.0554 10.9999 42.0051 10.9911H38.5232C38.2604 9.57903 37.5085 8.30296 36.3978 7.38419C35.2871 6.46542 33.8878 5.96193 32.4426 5.96106C32.0037 5.95964 31.5661 6.0065 31.1376 6.10078C30.918 5.16054 30.4967 4.27847 29.9025 3.51484C29.3084 2.7512 28.5553 2.124 27.6948 1.67606C26.8342 1.22813 25.8865 0.97003 24.9164 0.919392C23.9463 0.868755 22.9766 1.02677 22.0736 1.38265C21.1705 1.73853 20.3555 2.28389 19.684 2.98147C19.0126 3.67904 18.5006 4.51239 18.1831 5.4246C17.8655 6.3368 17.7499 7.30636 17.8441 8.26704C17.9383 9.22772 18.2401 10.1569 18.7288 10.9911H16.6926C16.6205 9.63189 16.0258 8.35214 15.0314 7.41609C14.0369 6.48004 12.7187 5.95918 11.3488 5.96106ZM11.3488 8.19661C12.1225 8.19471 12.8689 8.48036 13.4414 8.99745C14.0139 9.51453 14.371 10.2256 14.4426 10.9911H8.25512C8.32673 10.2256 8.68386 9.51453 9.25633 8.99745C9.8288 8.48036 10.5752 8.19471 11.3488 8.19661ZM27.4532 33.408H19.432L6.89388 19.9948H39.9913L27.4532 33.408ZM26.8176 39.5837H20.0676V35.6715H26.8176V39.5837ZM43.6926 14.9536V16.0211C43.6927 16.4689 43.5159 16.8989 43.2004 17.2187C42.8849 17.5384 42.4557 17.7225 42.0051 17.7313H4.90825C4.45272 17.7298 4.01636 17.5489 3.69478 17.2284C3.3732 16.9078 3.19263 16.4737 3.19263 16.0211V14.9536C3.1904 14.7281 3.23309 14.5043 3.31824 14.2953C3.4034 14.0862 3.52933 13.8959 3.68878 13.7354C3.84824 13.5749 4.03808 13.4473 4.24737 13.36C4.45666 13.2727 4.68126 13.2274 4.90825 13.2266H42.0051C42.4586 13.2354 42.8904 13.4218 43.2064 13.7452C43.5224 14.0686 43.6971 14.5029 43.6926 14.9536ZM20.0676 7.63772C20.0676 6.45191 20.5417 5.31467 21.3856 4.47618C22.2295 3.63769 23.3741 3.16663 24.5676 3.16663C25.7611 3.16663 26.9056 3.63769 27.7496 4.47618C28.5935 5.31467 29.0676 6.45191 29.0676 7.63772C29.0717 7.82993 29.1256 8.01784 29.2241 8.1833C29.3227 8.34875 29.4625 8.48616 29.6301 8.58224C29.7927 8.68204 29.9782 8.73903 30.1691 8.74783C30.3601 8.75663 30.5501 8.71695 30.7213 8.63254C31.2535 8.35717 31.8427 8.20797 32.4426 8.19661C33.2907 8.19639 34.1162 8.46827 34.7963 8.97177C35.4764 9.47528 35.9746 10.1835 36.2169 10.9911H21.592C21.1104 10.5736 20.725 10.0581 20.462 9.47945C20.1989 8.9008 20.0644 8.27265 20.0676 7.63772Z" fill="black"/>
</g>
</g>
</g>
<defs>
<clipPath id="clip0_95_10224">
<rect width="45" height="45" fill="white" transform="translate(0.942627 0.910156)"/>
</clipPath>
<clipPath id="clip1_95_10224">
<rect width="45" height="45" fill="white" transform="translate(0.942627 0.910156)"/>
</clipPath>
<clipPath id="clip2_95_10224">
<rect width="45" height="45" fill="white" transform="translate(0.942627 0.910156)"/>
</clipPath>
</defs>
</svg>
