<svg width="46" height="46" viewBox="0 0 46 46" fill="none" xmlns="http://www.w3.org/2000/svg">
<g clip-path="url(#clip0_95_10219)">
<path d="M45.2463 40.1442L41.3114 36.2093L42.9079 35.012C43.1165 34.8555 43.2741 34.6407 43.3606 34.3947C43.4472 34.1488 43.4588 33.8826 43.3941 33.63C43.3294 33.3774 43.1912 33.1497 42.997 32.9756C42.8029 32.8015 42.5615 32.689 42.3033 32.6521L34.3612 31.5175C36.9953 28.1948 38.4255 24.111 38.4255 19.8069C38.4255 9.36337 29.9739 0.9104 19.529 0.9104C9.08551 0.9104 0.632538 9.36196 0.632538 19.8069C0.632538 30.2504 9.0841 38.7034 19.529 38.7034C23.8331 38.7034 27.917 37.2731 31.2397 34.639L32.3742 42.5812C32.4111 42.8393 32.5237 43.0807 32.6978 43.2748C32.8719 43.469 33.0996 43.6071 33.3522 43.6718C33.6048 43.7366 33.8709 43.7251 34.1169 43.6385C34.3629 43.552 34.5777 43.3945 34.7341 43.1858L35.9314 41.5893L39.8664 45.5243C40.3812 46.0392 41.2159 46.0392 41.7308 45.5243L45.2464 42.0087C45.7613 41.4938 45.7613 40.659 45.2463 40.1442ZM3.26926 19.8069C3.26926 10.8412 10.5633 3.54712 19.529 3.54712C28.4947 3.54712 35.7888 10.8412 35.7888 19.8069C35.7888 28.7726 28.4947 36.0667 19.529 36.0667C10.5633 36.0667 3.26926 28.7726 3.26926 19.8069ZM40.7986 42.7276L36.721 38.65C36.1537 38.0828 35.215 38.15 34.7341 38.7912L34.5344 39.0574L33.8269 34.1046L38.7797 34.8121L38.5134 35.012C37.87 35.4946 37.8068 36.4336 38.3722 36.9988L42.4498 41.0764L40.7986 42.7276Z" fill="black"/>
<path d="M19.529 6.5354C12.2111 6.5354 6.25754 12.4889 6.25754 19.8069C6.25754 27.1248 12.2111 33.0784 19.529 33.0784C26.847 33.0784 32.8005 27.1248 32.8005 19.8069C32.8005 12.4889 26.847 6.5354 19.529 6.5354ZM19.529 30.4417C13.665 30.4417 8.89426 25.6709 8.89426 19.8069C8.89426 13.9428 13.665 9.17212 19.529 9.17212C25.3931 9.17212 30.1638 13.9428 30.1638 19.8069C30.1638 25.6709 25.3931 30.4417 19.529 30.4417Z" fill="black"/>
<path d="M19.8806 18.4885H19.1775C18.5475 18.4885 18.0349 17.9759 18.0349 17.3459C18.0349 16.7159 18.5475 16.2034 19.1775 16.2034H21.6384C22.3665 16.2034 22.9568 15.6131 22.9568 14.885C22.9568 14.1569 22.3665 13.5667 21.6384 13.5667H20.8474V12.7756C20.8474 12.0475 20.2571 11.4573 19.529 11.4573C18.8009 11.4573 18.2107 12.0475 18.2107 12.7756V13.6925C16.5937 14.1208 15.3982 15.5962 15.3982 17.3459C15.3982 19.4298 17.0936 21.1252 19.1775 21.1252H19.8806C20.5106 21.1252 21.0232 21.6378 21.0232 22.2678C21.0232 22.8978 20.5106 23.4104 19.8806 23.4104H17.4196C16.6916 23.4104 16.1013 24.0007 16.1013 24.7288C16.1013 25.4568 16.6916 26.0471 17.4196 26.0471H18.2107V26.8381C18.2107 27.5662 18.8009 28.1565 19.529 28.1565C20.2571 28.1565 20.8474 27.5662 20.8474 26.8381V25.9213C22.4643 25.493 23.6599 24.0175 23.6599 22.2678C23.6599 20.1839 21.9645 18.4885 19.8806 18.4885Z" fill="black"/>
</g>
<defs>
<clipPath id="clip0_95_10219">
<rect width="45" height="45" fill="white" transform="translate(0.632538 0.9104)"/>
</clipPath>
</defs>
</svg>
