<svg width="35" height="35" viewBox="0 0 35 35" fill="none" xmlns="http://www.w3.org/2000/svg">
<path opacity="0.3" d="M17.4999 16.0418C18.7186 15.1264 20.2334 14.584 21.8749 14.584C25.902 14.584 29.1666 17.8486 29.1666 21.8757C29.1666 25.9027 25.902 29.1673 21.8749 29.1673C20.2334 29.1673 18.7186 28.6249 17.4999 27.7095C16.2812 28.6249 14.7664 29.1673 13.1249 29.1673C9.09784 29.1673 5.83325 25.9027 5.83325 21.8757C5.83325 17.8486 9.09784 14.584 13.1249 14.584C14.7664 14.584 16.2812 15.1264 17.4999 16.0418ZM19.4448 18.2362C20.0629 19.3072 20.4166 20.5501 20.4166 21.8757C20.4166 23.2011 20.0629 24.444 19.4448 25.515C20.1525 25.9891 20.9909 26.2507 21.8749 26.2507C24.2912 26.2507 26.2499 24.2919 26.2499 21.8757C26.2499 19.4594 24.2912 17.5007 21.8749 17.5007C20.9898 17.5007 20.1506 17.7638 19.4448 18.2362Z" fill="#3699FF"/>
<path d="M17.4999 20.4173C21.527 20.4173 24.7916 17.1527 24.7916 13.1257C24.7916 9.09857 21.527 5.83398 17.4999 5.83398C13.4728 5.83398 10.2083 9.09857 10.2083 13.1257C10.2083 17.1527 13.4728 20.4173 17.4999 20.4173Z" fill="#3699FF"/>
</svg>
