<svg width="35" height="35" viewBox="0 0 35 35" fill="none" xmlns="http://www.w3.org/2000/svg">
<path opacity="0.3" d="M20.8438 24.3645C20.2743 23.795 20.2743 22.8717 20.8438 22.3021C21.4133 21.7326 22.3367 21.7326 22.9062 22.3021L28.7395 28.1355C29.309 28.705 29.309 29.6284 28.7395 30.1979C28.17 30.7674 27.2466 30.7674 26.6771 30.1979L20.8438 24.3645Z" fill="#3699FF"/>
<path d="M16.0416 23.334C20.0687 23.334 23.3333 20.0694 23.3333 16.0423C23.3333 12.0152 20.0687 8.75065 16.0416 8.75065C12.0145 8.75065 8.74992 12.0152 8.74992 16.0423C8.74992 20.0694 12.0145 23.334 16.0416 23.334ZM16.0416 26.2507C10.4037 26.2507 5.83325 21.6802 5.83325 16.0423C5.83325 10.4044 10.4037 5.83398 16.0416 5.83398C21.6795 5.83398 26.2499 10.4044 26.2499 16.0423C26.2499 21.6802 21.6795 26.2507 16.0416 26.2507Z" fill="#3699FF"/>
<path opacity="0.3" d="M18.2292 15.3125H13.8542C13.4515 15.3125 13.125 15.639 13.125 16.0417C13.125 16.4444 13.4515 16.7708 13.8542 16.7708H18.2292C18.6319 16.7708 18.9583 16.4444 18.9583 16.0417C18.9583 15.639 18.6319 15.3125 18.2292 15.3125Z" fill="#3699FF"/>
</svg>
