<svg width="35" height="35" viewBox="0 0 35 35" fill="none" xmlns="http://www.w3.org/2000/svg">
<path d="M7.29167 27.7083H29.1667C29.9721 27.7083 30.625 28.3613 30.625 29.1667C30.625 29.9721 29.9721 30.625 29.1667 30.625H5.83333C5.02792 30.625 4.375 29.9721 4.375 29.1667V5.83333C4.375 5.02792 5.02792 4.375 5.83333 4.375C6.63875 4.375 7.29167 5.02792 7.29167 5.83333V27.7083Z" fill="#3699FF"/>
<path opacity="0.3" d="M12.7305 21.4135C12.1796 22.0011 11.2568 22.0308 10.6692 21.48C10.0816 20.9291 10.0518 20.0062 10.6027 19.4187L16.0714 13.5853C16.6042 13.0171 17.4894 12.9678 18.082 13.4734L22.3983 17.1566L28.022 10.0333C28.521 9.4011 29.4381 9.29322 30.0702 9.79229C30.7024 10.2914 30.8103 11.2084 30.3112 11.8406L23.7487 20.1531C23.2361 20.8023 22.2867 20.8957 21.6575 20.3587L17.2474 16.5955L12.7305 21.4135Z" fill="#3699FF"/>
</svg>
