<svg width="35" height="35" viewBox="0 0 35 35" fill="none" xmlns="http://www.w3.org/2000/svg">
<path opacity="0.3" d="M21.875 32.0833C25.9021 32.0833 29.1667 28.8187 29.1667 24.7917C29.1667 20.7646 25.9021 17.5 21.875 17.5C17.8479 17.5 14.5833 20.7646 14.5833 24.7917C14.5833 28.8187 17.8479 32.0833 21.875 32.0833Z" fill="#0EC5DD"/>
<path opacity="0.3" d="M13.125 32.0833C17.1521 32.0833 20.4167 28.8187 20.4167 24.7917C20.4167 20.7646 17.1521 17.5 13.125 17.5C9.09793 17.5 5.83334 20.7646 5.83334 24.7917C5.83334 28.8187 9.09793 32.0833 13.125 32.0833Z" fill="#0EC5DD"/>
<path opacity="0.3" d="M10.2083 23.3333C14.2354 23.3333 17.5 20.0687 17.5 16.0417C17.5 12.0146 14.2354 8.75 10.2083 8.75C6.18125 8.75 2.91666 12.0146 2.91666 16.0417C2.91666 20.0687 6.18125 23.3333 10.2083 23.3333Z" fill="#0EC5DD"/>
<path opacity="0.3" d="M24.7917 23.3333C28.8187 23.3333 32.0833 20.0687 32.0833 16.0417C32.0833 12.0146 28.8187 8.75 24.7917 8.75C20.7646 8.75 17.5 12.0146 17.5 16.0417C17.5 20.0687 20.7646 23.3333 24.7917 23.3333Z" fill="#0EC5DD"/>
<path opacity="0.3" d="M17.4999 17.4993C21.527 17.4993 24.7916 14.2348 24.7916 10.2077C24.7916 6.18061 21.527 2.91602 17.4999 2.91602C13.4728 2.91602 10.2083 6.18061 10.2083 10.2077C10.2083 14.2348 13.4728 17.4993 17.4999 17.4993Z" fill="#0EC5DD"/>
</svg>
