<svg width="26" height="30" viewBox="0 0 26 30" fill="none" xmlns="http://www.w3.org/2000/svg">
<path d="M24.6961 7.20308H21.102C21.5701 6.26362 21.9207 5.22355 22.1401 4.10474H22.9271C23.0637 4.10474 23.1857 4.02085 23.2343 3.89422C23.2825 3.76759 23.2469 3.62424 23.1449 3.53457L20.8414 1.51004C20.7171 1.40076 20.5304 1.40076 20.406 1.51004L18.1026 3.53457C18.0003 3.62424 17.9647 3.76759 18.0132 3.89422C18.0615 4.02085 18.1838 4.10474 18.3204 4.10474H18.9746C18.7082 5.25955 18.3172 6.29704 17.8164 7.20308H15.2478C15.254 7.1883 15.2604 7.17383 15.2663 7.15937C15.4417 6.72322 15.2711 6.23694 14.8613 6.00296C14.581 5.8429 14.4071 5.54463 14.4071 5.22419C14.4071 4.90375 14.5813 4.60549 14.8613 4.44543C15.2711 4.21145 15.4417 3.72516 15.2663 3.28902C15.0785 2.82201 14.8234 2.38458 14.5085 1.98829C14.2158 1.6206 13.707 1.52418 13.2985 1.75881C13.0191 1.91951 12.6721 1.91983 12.3927 1.75977C12.1134 1.59971 11.9402 1.30081 11.9405 0.980043C11.9412 0.51015 11.6019 0.120607 11.1335 0.0537549C10.6324 -0.0179183 10.1242 -0.0179183 9.62278 0.0537549C9.15471 0.120929 8.81514 0.510471 8.81579 0.980043C8.81643 1.30081 8.64293 1.59939 8.36357 1.75977C8.08421 1.91983 7.7372 1.91951 7.45784 1.75881C7.04933 1.52418 6.54046 1.62028 6.24783 1.98829C5.93254 2.38426 5.67779 2.82201 5.49004 3.28869C5.31459 3.72484 5.48518 4.21113 5.89499 4.44511C6.17532 4.60517 6.34915 4.90343 6.34915 5.22387C6.34915 5.54431 6.175 5.84258 5.89499 6.00264C5.48486 6.23662 5.31459 6.72322 5.49004 7.15937C5.49587 7.17416 5.50267 7.18862 5.50849 7.20308H1.30453C0.585259 7.20308 0 7.78418 0 8.49834V24.0762C0 24.7903 0.585259 25.3714 1.30453 25.3714H10.7383V26.8361H8.24768C6.27341 26.8361 4.97697 27.8835 4.77918 29.6378C4.76882 29.73 4.79828 29.8223 4.86076 29.8914C4.92291 29.9605 5.01193 30 5.10548 30H20.8945C20.9881 30 21.0771 29.9605 21.1392 29.8914C21.2017 29.8223 21.2312 29.73 21.2208 29.6378C21.023 27.8835 19.7266 26.8361 17.7523 26.8361H15.2617V25.3714H24.6955C25.4147 25.3714 26 24.7903 26 24.0762V8.49834C26.0006 7.78418 25.4154 7.20308 24.6961 7.20308ZM19.634 3.57185C19.5715 3.49632 19.4783 3.45229 19.3799 3.45229H19.1863L20.6233 2.18949L22.0602 3.45229H21.8666C21.707 3.45229 21.5704 3.56639 21.5432 3.72259C21.0247 6.68498 19.5563 9.07912 17.4085 10.4644C16.2157 11.2338 14.8875 11.6398 13.4885 11.6722C14.7487 11.2769 15.8819 10.582 16.8353 9.61072C18.2382 8.18047 19.23 6.18584 19.7026 3.8428C19.7214 3.74702 19.6965 3.64738 19.634 3.57185ZM6.22194 6.56831C6.70523 6.29222 7.00563 5.77733 7.00563 5.22419C7.00563 4.67106 6.70523 4.15617 6.22194 3.88008C6.09796 3.80937 6.04649 3.66249 6.09958 3.53071C6.26369 3.12221 6.48705 2.73941 6.76285 2.39262C6.85122 2.28141 7.00498 2.25248 7.12831 2.32319C7.61063 2.60024 8.20949 2.60089 8.69148 2.32448C9.1738 2.04807 9.47291 1.53254 9.47194 0.979079C9.47161 0.837018 9.57423 0.719384 9.71569 0.699136C10.155 0.636462 10.6 0.636462 11.0393 0.699136C11.1808 0.719384 11.2834 0.837018 11.2831 0.978758C11.2821 1.53222 11.5812 2.04775 12.0635 2.32416C12.5455 2.60057 13.1447 2.59992 13.6267 2.32287C13.7503 2.25216 13.9038 2.28109 13.9922 2.3923C14.268 2.73909 14.4913 3.12188 14.6554 3.53039C14.7085 3.66217 14.657 3.80905 14.5331 3.87976C14.0498 4.15552 13.7494 4.67073 13.7494 5.22387C13.7494 5.77701 14.0498 6.2919 14.5331 6.56799C14.657 6.6387 14.7085 6.78558 14.6554 6.91735C14.4913 7.32586 14.268 7.70865 13.9922 8.05545C13.9038 8.16665 13.75 8.19558 13.6267 8.12487C13.1447 7.84782 12.5455 7.84718 12.0635 8.12359C11.5812 8.39999 11.2821 8.91553 11.2831 9.46899C11.2834 9.61105 11.1808 9.72868 11.0393 9.74893C10.6 9.8116 10.155 9.8116 9.71601 9.74893C9.57455 9.72868 9.47194 9.61105 9.47226 9.46931C9.47323 8.91585 9.17413 8.40032 8.69181 8.12391C8.45129 7.98602 8.18132 7.91692 7.91135 7.91692C7.64074 7.91692 7.3698 7.98635 7.12863 8.12519C7.0053 8.19622 6.85154 8.16698 6.76317 8.05577C6.48738 7.70929 6.26434 7.3265 6.0999 6.918C6.04649 6.7859 6.09796 6.63902 6.22194 6.56831ZM1.30453 7.85553H5.8322C5.95585 8.06573 6.0944 8.2679 6.24719 8.4601C6.53982 8.82778 7.04868 8.9242 7.4572 8.68958C7.73655 8.52888 8.08356 8.52856 8.36292 8.68862C8.64228 8.84867 8.81546 9.14758 8.81514 9.46834C8.81449 9.93791 9.15373 10.3275 9.62214 10.3946C9.87268 10.4303 10.1252 10.4483 10.3773 10.4483C10.6298 10.4483 10.882 10.4303 11.1329 10.3946C11.6009 10.3275 11.9405 9.93791 11.9399 9.46834C11.9392 9.14758 12.1127 8.849 12.3921 8.68862C12.6714 8.52856 13.0184 8.52888 13.2978 8.68958C13.706 8.9242 14.2152 8.82778 14.5078 8.4601C14.6606 8.2679 14.7992 8.06573 14.9228 7.85553H17.4215C15.9655 10.061 13.7798 11.3325 11.1387 11.4019C10.9746 11.4061 10.8389 11.5302 10.8208 11.6921C10.8027 11.8541 10.9079 12.0045 11.0672 12.0441C11.8259 12.2337 12.5756 12.3279 13.3091 12.3279C14.8995 12.3279 16.4119 11.885 17.7659 11.0117C18.9762 10.231 19.9843 9.15594 20.7482 7.85553H24.6958C25.0528 7.85553 25.3435 8.14383 25.3435 8.49866V21.9642H0.656798V8.49834C0.656798 8.14383 0.947485 7.85553 1.30453 7.85553ZM14.9338 27.4882H17.7526C19.2378 27.4882 20.2219 28.1603 20.5054 29.3479H5.49489C5.77846 28.1603 6.76252 27.4882 8.24768 27.4882H11.0665C11.2478 27.4882 11.3951 27.3423 11.3951 27.162V25.3711H14.6053V27.162C14.6056 27.342 14.7525 27.4882 14.9338 27.4882ZM24.6961 24.719H1.30453C0.947485 24.719 0.656798 24.4307 0.656798 24.0759V22.6157H25.3435V24.0759C25.3438 24.4307 25.0532 24.719 24.6961 24.719ZM10.3777 7.21722C11.4844 7.21722 12.385 6.32308 12.385 5.22419C12.385 4.12531 11.4844 3.23116 10.3777 3.23116C9.27092 3.23116 8.37037 4.12531 8.37037 5.22419C8.37037 6.32308 9.27059 7.21722 10.3777 7.21722ZM10.3777 3.88329C11.1225 3.88329 11.7282 4.48496 11.7282 5.22419C11.7282 5.96342 11.1222 6.56509 10.3777 6.56509C9.63314 6.56509 9.02717 5.96342 9.02717 5.22419C9.02717 4.48496 9.63282 3.88329 10.3777 3.88329ZM11.6404 20.5067H14.3602C14.5415 20.5067 14.6888 20.3607 14.6888 20.1804V15.6477C14.6888 15.4677 14.5418 15.3214 14.3602 15.3214H11.6404C11.4592 15.3214 11.3119 15.4674 11.3119 15.6477V20.1804C11.3119 20.3607 11.4592 20.5067 11.6404 20.5067ZM11.969 15.9739H14.032V19.8545H11.969V15.9739ZM16.643 20.5067H19.3627C19.544 20.5067 19.6913 20.3607 19.6913 20.1804V13.1883C19.6913 13.0083 19.5443 12.8621 19.3627 12.8621H16.643C16.4617 12.8621 16.3144 13.008 16.3144 13.1883V20.1804C16.3144 20.3607 16.4614 20.5067 16.643 20.5067ZM16.9712 13.5145H19.0342V19.8545H16.9712V13.5145ZM6.6379 20.5067H9.35767C9.53894 20.5067 9.68623 20.3607 9.68623 20.1804V17.6246C9.68623 17.4446 9.53927 17.2984 9.35767 17.2984H6.6379C6.45662 17.2984 6.30934 17.4443 6.30934 17.6246V20.1804C6.30966 20.3607 6.45662 20.5067 6.6379 20.5067ZM6.96646 17.9509H9.02943V19.8545H6.96646V17.9509Z" fill="white"/>
</svg>
