<svg width="36" height="30" viewBox="0 0 36 30" fill="none" xmlns="http://www.w3.org/2000/svg">
<path d="M24.2399 26.6297H6.93674C5.99086 26.6297 5.08372 26.254 4.41488 25.5851C3.74604 24.9163 3.37029 24.0091 3.37029 23.0633V6.03347C3.37029 5.58654 3.19275 5.15792 2.87672 4.8419C2.5607 4.52587 2.13207 4.34833 1.68515 4.34833C1.23822 4.34833 0.809594 4.52587 0.493568 4.8419C0.177542 5.15792 0 5.58654 0 6.03347V23.093C0.00155902 24.0021 0.182263 24.902 0.531784 25.7412C0.881305 26.5804 1.39279 27.3425 2.037 27.984C2.68122 28.6255 3.44553 29.1337 4.28626 29.4796C5.12698 29.8255 6.02763 30.0023 6.93674 30H24.234C24.6809 30 25.1096 29.8225 25.4256 29.5064C25.7416 29.1904 25.9191 28.7618 25.9191 28.3148C25.9191 27.8679 25.7416 27.4393 25.4256 27.1233C25.1096 26.8072 24.6809 26.6297 24.234 26.6297H24.2399Z" fill="white"/>
<path d="M31.9968 0.00614551C31.0916 0.00336907 30.2142 0.319017 29.5183 0.897853C28.8223 1.47669 28.352 2.28184 28.1898 3.17242C28.0275 4.06299 28.1836 4.98225 28.6308 5.76934C29.0779 6.55643 29.7876 7.16121 30.6357 7.47785C29.9144 9.82651 28.5143 11.9092 26.6115 13.4635C26.0111 12.9082 25.2498 12.5581 24.4374 12.4637C23.625 12.3692 22.8037 12.5355 22.0919 12.9383C21.3802 13.3411 20.8149 13.9598 20.4776 14.7048C20.1404 15.4499 20.0486 16.2829 20.2157 17.0835C18.3277 17.7541 16.3693 18.2068 14.3786 18.4328C14.135 17.5281 13.5709 16.7427 12.7914 16.2229C12.0119 15.703 11.07 15.4842 10.1412 15.607C9.21233 15.7299 8.35976 16.1861 7.7422 16.8907C7.12465 17.5954 6.78418 18.5004 6.78418 19.4373C6.78418 20.3743 7.12465 21.2793 7.7422 21.9839C8.35976 22.6885 9.21233 23.1448 10.1412 23.2676C11.07 23.3905 12.0119 23.1716 12.7914 22.6518C13.5709 22.132 14.135 21.3466 14.3786 20.4419C16.6781 20.1941 18.9381 19.663 21.1073 18.8608C21.6978 19.5087 22.4914 19.9363 23.3573 20.0729C24.2233 20.2096 25.11 20.0472 25.8713 19.6126C26.6327 19.1779 27.2232 18.4969 27.5458 17.6817C27.8683 16.8665 27.9036 15.9658 27.6458 15.1279C30.046 13.2285 31.7818 10.6166 32.6031 7.66806C33.5654 7.51589 34.4344 7.00528 35.0358 6.23879C35.6371 5.47229 35.9261 4.50668 35.8448 3.53586C35.7636 2.56505 35.318 1.66093 34.5976 1.00509C33.8772 0.34925 32.9353 -0.00974538 31.9612 0.000201299L31.9968 0.00614551ZM10.6576 20.9471C10.359 20.9471 10.0671 20.8586 9.81881 20.6927C9.57053 20.5268 9.37701 20.291 9.26274 20.0151C9.14847 19.7392 9.11857 19.4357 9.17683 19.1428C9.23508 18.8499 9.37888 18.5809 9.59003 18.3697C9.80117 18.1586 10.0702 18.0148 10.3631 17.9565C10.6559 17.8983 10.9595 17.9282 11.2354 18.0425C11.5113 18.1567 11.7471 18.3503 11.913 18.5985C12.0789 18.8468 12.1674 19.1387 12.1674 19.4373C12.1674 19.8378 12.0083 20.2218 11.7252 20.5049C11.4421 20.7881 11.058 20.9471 10.6576 20.9471ZM23.9961 17.7968C23.6987 17.7968 23.4079 17.7086 23.1606 17.5433C22.9133 17.3781 22.7206 17.1432 22.6067 16.8684C22.4929 16.5936 22.4631 16.2912 22.5212 15.9995C22.5792 15.7078 22.7224 15.4398 22.9327 15.2295C23.1431 15.0192 23.411 14.876 23.7027 14.818C23.9945 14.7599 24.2968 14.7897 24.5716 14.9035C24.8464 15.0174 25.0813 15.2101 25.2465 15.4574C25.4118 15.7047 25.5 15.9955 25.5 16.2929C25.5015 16.4914 25.4638 16.6882 25.3889 16.8721C25.3141 17.0559 25.2035 17.2231 25.0637 17.364C24.9239 17.5049 24.7576 17.6167 24.5744 17.6931C24.3911 17.7694 24.1946 17.8087 23.9961 17.8087V17.7968ZM32.9895 4.95756C32.7196 5.21038 32.3637 5.35107 31.9939 5.35107C31.6241 5.35107 31.2681 5.21038 30.9982 4.95756C30.7733 4.756 30.6148 4.4909 30.5438 4.19733C30.4727 3.90376 30.4925 3.59553 30.6004 3.31342C30.7083 3.0313 30.8993 2.78858 31.1481 2.61735C31.3969 2.44612 31.6918 2.35444 31.9939 2.35444C32.2959 2.35444 32.5909 2.44612 32.8397 2.61735C33.0885 2.78858 33.2795 3.0313 33.3874 3.31342C33.4953 3.59553 33.515 3.90376 33.444 4.19733C33.3729 4.4909 33.2145 4.756 32.9895 4.95756Z" fill="white"/>
</svg>
