<svg width="46" height="46" viewBox="0 0 46 46" fill="none" xmlns="http://www.w3.org/2000/svg">
<g clip-path="url(#clip0_95_13463)">
<mask id="path-1-outside-1_95_13463" maskUnits="userSpaceOnUse" x="-0.516113" y="-0.473145" width="47" height="47" fill="black">
<rect fill="white" x="-0.516113" y="-0.473145" width="47" height="47"/>
<path d="M43.2339 18.5201H41.6791L41.5704 17.0824C41.4483 16.1023 41.0185 15.1863 40.3428 14.4661C39.667 13.7458 38.7802 13.2586 37.8099 13.0744L37.2099 12.9536C37.7513 12.4495 38.1127 11.782 38.2389 11.0531L38.3401 10.4464C38.6772 10.3144 38.9667 10.0838 39.1707 9.78479C39.3748 9.48576 39.4839 9.13214 39.4839 8.77013V6.52013C39.4824 5.19053 39.0393 3.89909 38.2242 2.84863C37.4091 1.79818 36.2682 1.04822 34.9806 0.716542C33.6931 0.384865 32.3318 0.49026 31.1106 1.01617C29.8895 1.54209 28.8776 2.45873 28.2339 3.62213C27.715 2.68432 26.9544 1.90262 26.0311 1.35829C25.1079 0.813954 24.0557 0.526865 22.9839 0.526865C21.9121 0.526865 20.8599 0.813954 19.9366 1.35829C19.0134 1.90262 18.2528 2.68432 17.7339 3.62213C17.0902 2.45873 16.0783 1.54209 14.8571 1.01617C13.636 0.49026 12.2747 0.384865 10.9871 0.716542C9.69958 1.04822 8.55866 1.79818 7.74356 2.84863C6.92847 3.89909 6.48538 5.19053 6.48389 6.52013V8.77013C6.48392 9.13223 6.59316 9.48591 6.79734 9.78495C7.00152 10.084 7.29115 10.3145 7.62839 10.4464L7.72964 11.0531C7.85601 11.7822 8.21738 12.4499 8.75864 12.9544L8.16689 13.0729C7.18888 13.2587 6.29564 13.7516 5.61705 14.48C4.93845 15.2084 4.50988 16.1342 4.39364 17.1229L4.28864 18.5201H2.73389C2.13715 18.5201 1.56485 18.7572 1.1429 19.1791C0.72094 19.6011 0.483887 20.1734 0.483887 20.7701L0.483887 22.2701C0.486369 22.8146 0.686175 23.3396 1.04626 23.748C1.40635 24.1563 1.90229 24.4203 2.44214 24.4909L17.7339 36.1451V43.2701C17.7388 43.6107 17.8201 43.9458 17.9718 44.2508C18.1234 44.5558 18.3416 44.8229 18.6102 45.0323C18.8788 45.2418 19.191 45.3883 19.5238 45.461C19.8565 45.5338 20.2014 45.5309 20.5329 45.4526L26.5329 43.9526C27.0199 43.8319 27.4522 43.5511 27.7606 43.1554C28.069 42.7597 28.2357 42.2719 28.2339 41.7701V36.1451L43.5256 24.4909C44.0655 24.4203 44.5614 24.1563 44.9215 23.748C45.2816 23.3396 45.4814 22.8146 45.4839 22.2701V20.7701C45.4839 20.1734 45.2468 19.6011 44.8249 19.1791C44.4029 18.7572 43.8306 18.5201 43.2339 18.5201ZM40.0786 17.2339L40.1754 18.5201H31.1791L31.0704 17.0741C30.9464 16.0982 30.5187 15.1859 29.8479 14.4664L31.4424 14.1454C32.0454 14.5525 32.7563 14.7701 33.4839 14.7701C34.2115 14.7701 34.9224 14.5525 35.5254 14.1454L37.5226 14.5466C38.1772 14.6686 38.7767 14.9941 39.2356 15.4765C39.6945 15.959 39.9895 16.574 40.0786 17.2339ZM18.7839 8.47013C18.9828 8.47013 19.1736 8.39111 19.3142 8.25046C19.4549 8.10981 19.5339 7.91904 19.5339 7.72013C19.5339 7.38038 19.7146 7.12013 19.8766 7.09613C20.9703 6.9538 22.0257 6.5997 22.9839 6.05363C23.942 6.59981 24.9975 6.95391 26.0911 7.09613C26.2531 7.11863 26.4339 7.38038 26.4339 7.72013C26.4339 7.91904 26.5129 8.10981 26.6536 8.25046C26.7942 8.39111 26.985 8.47013 27.1839 8.47013C27.2635 8.47013 27.3398 8.50174 27.396 8.558C27.4523 8.61426 27.4839 8.69056 27.4839 8.77013C27.4839 8.84969 27.4523 8.926 27.396 8.98226C27.3398 9.03852 27.2635 9.07013 27.1839 9.07013C27.0063 9.07 26.8345 9.13287 26.699 9.24754C26.5634 9.36222 26.4729 9.52126 26.4436 9.69638L26.2584 10.8056C26.2164 11.0568 26.1239 11.2968 25.9864 11.5112C25.849 11.7256 25.6695 11.9098 25.4589 12.0529C25.3546 12.1234 25.2444 12.2029 25.1266 12.2839C24.5211 12.8104 23.7776 13.1526 22.9839 13.2701C22.1894 13.153 21.445 12.8107 20.8389 12.2839C20.7211 12.2014 20.6139 12.1234 20.5066 12.0529C20.2964 11.9096 20.1174 11.7252 19.9803 11.5109C19.8433 11.2965 19.7511 11.0566 19.7094 10.8056L19.5241 9.69638C19.4948 9.52126 19.4044 9.36222 19.2688 9.24754C19.1333 9.13287 18.9614 9.07 18.7839 9.07013C18.7043 9.07013 18.628 9.03852 18.5718 8.98226C18.5155 8.926 18.4839 8.84969 18.4839 8.77013C18.4839 8.69056 18.5155 8.61426 18.5718 8.558C18.628 8.50174 18.7043 8.47013 18.7839 8.47013ZM29.1759 13.0714C28.8523 13.1335 28.5365 13.2305 28.2339 13.3609C27.9358 13.2332 27.6251 13.1372 27.3069 13.0744L26.7069 12.9536C27.2483 12.4495 27.6097 11.782 27.7359 11.0531L27.8371 10.4464C27.9781 10.39 28.1114 10.3162 28.2339 10.2266C28.3557 10.316 28.4882 10.3899 28.6284 10.4464L28.7296 11.0531C28.856 11.7822 29.2174 12.4499 29.7586 12.9544L29.1759 13.0714ZM17.3394 10.4464C17.4795 10.3899 17.6121 10.316 17.7339 10.2266C17.8557 10.316 17.9882 10.3899 18.1284 10.4464L18.2296 11.0531C18.356 11.7822 18.7174 12.4499 19.2586 12.9544L18.6669 13.0729C18.3477 13.1369 18.0363 13.2344 17.7376 13.3639C17.4398 13.2339 17.1288 13.1368 16.8099 13.0744L16.2099 12.9536C16.7513 12.4495 17.1127 11.782 17.2389 11.0531L17.3394 10.4464ZM18.9541 14.5451L20.9424 14.1454C21.5559 14.53 22.2602 14.7456 22.9839 14.7701C23.7076 14.7456 24.4119 14.53 25.0254 14.1454L27.0264 14.5474C27.6796 14.668 28.278 14.9921 28.736 15.4732C29.194 15.9544 29.4881 16.568 29.5764 17.2264L29.6754 18.5201H16.2924L16.3854 17.2729C16.469 16.6046 16.763 15.9802 17.2247 15.4899C17.6864 14.9996 18.2921 14.6687 18.9541 14.5451ZM37.6839 9.07013C37.5063 9.07 37.3345 9.13287 37.199 9.24754C37.0634 9.36222 36.9729 9.52126 36.9436 9.69638L36.7584 10.8056C36.7164 11.0568 36.6239 11.2968 36.4864 11.5112C36.349 11.7256 36.1695 11.9098 35.9589 12.0529C35.8546 12.1234 35.7444 12.2029 35.6266 12.2839C35.0211 12.8104 34.2776 13.1526 33.4839 13.2701C32.6894 13.153 31.945 12.8107 31.3389 12.2839C31.2211 12.2014 31.1139 12.1234 31.0066 12.0529C30.7964 11.9096 30.6174 11.7252 30.4803 11.5109C30.3433 11.2965 30.2511 11.0566 30.2094 10.8056L30.0241 9.69638C29.9948 9.52126 29.9044 9.36222 29.7688 9.24754C29.6333 9.13287 29.4614 9.07 29.2839 9.07013C29.2043 9.07013 29.128 9.03852 29.0718 8.98226C29.0155 8.926 28.9839 8.84969 28.9839 8.77013C28.9839 8.69056 29.0155 8.61426 29.0718 8.558C29.128 8.50174 29.2043 8.47013 29.2839 8.47013C29.4828 8.47013 29.6736 8.39111 29.8142 8.25046C29.9549 8.10981 30.0339 7.91904 30.0339 7.72013C30.0339 7.38038 30.2146 7.12013 30.3766 7.09613C31.4703 6.9538 32.5257 6.5997 33.4839 6.05363C34.442 6.59981 35.4975 6.95391 36.5911 7.09613C36.7531 7.11863 36.9339 7.38038 36.9339 7.72013C36.9339 7.91904 37.0129 8.10981 37.1536 8.25046C37.2942 8.39111 37.485 8.47013 37.6839 8.47013C37.7635 8.47013 37.8398 8.50174 37.896 8.558C37.9523 8.61426 37.9839 8.69056 37.9839 8.77013C37.9839 8.84969 37.9523 8.926 37.896 8.98226C37.8398 9.03852 37.7635 9.07013 37.6839 9.07013ZM33.4839 2.02013C34.6431 2.02007 35.7575 2.46794 36.5942 3.27018C37.431 4.07241 37.9254 5.16695 37.9741 6.32513C37.6932 5.94206 37.2725 5.68523 36.8034 5.61038C35.8799 5.49519 34.9893 5.19359 34.1859 4.72388C33.9762 4.59048 33.7328 4.51964 33.4843 4.51964C33.2357 4.51964 32.9923 4.59048 32.7826 4.72388C31.9789 5.19349 31.0881 5.49508 30.1644 5.61038C29.6953 5.68539 29.2747 5.94218 28.9936 6.32513C29.0438 5.16746 29.5387 4.07378 30.3751 3.27184C31.2116 2.46991 32.3251 2.02155 33.4839 2.02013ZM19.8031 3.33938C20.4199 2.72135 21.2034 2.29637 22.0578 2.11639C22.9122 1.93641 23.8005 2.00923 24.6142 2.32593C25.4278 2.64264 26.1316 3.18952 26.6395 3.89974C27.1475 4.60996 27.4375 5.45275 27.4741 6.32513C27.1931 5.94218 26.7724 5.68539 26.3034 5.61038C25.3799 5.49519 24.4893 5.19359 23.6859 4.72388C23.4762 4.59048 23.2328 4.51964 22.9843 4.51964C22.7357 4.51964 22.4923 4.59048 22.2826 4.72388C21.4789 5.19349 20.5881 5.49508 19.6644 5.61038C19.1953 5.68523 18.7746 5.94206 18.4936 6.32513C18.5384 5.20044 19.0061 4.1341 19.8031 3.33938ZM9.30314 3.33938C9.91991 2.72135 10.7034 2.29637 11.5578 2.11639C12.4122 1.93641 13.3005 2.00923 14.1142 2.32593C14.9278 2.64264 15.6316 3.18952 16.1395 3.89974C16.6475 4.60996 16.9375 5.45275 16.9741 6.32513C16.6931 5.94218 16.2724 5.68539 15.8034 5.61038C14.8799 5.49519 13.9893 5.19359 13.1859 4.72388C12.9762 4.59048 12.7328 4.51964 12.4843 4.51964C12.2357 4.51964 11.9923 4.59048 11.7826 4.72388C10.9789 5.19349 10.0881 5.49508 9.16439 5.61038C8.69527 5.68523 8.27459 5.94206 7.99364 6.32513C8.03838 5.20044 8.50606 4.1341 9.30314 3.33938ZM8.28389 9.07013C8.20432 9.07013 8.12802 9.03852 8.07175 8.98226C8.01549 8.926 7.98389 8.84969 7.98389 8.77013C7.98389 8.69056 8.01549 8.61426 8.07175 8.558C8.12802 8.50174 8.20432 8.47013 8.28389 8.47013C8.4828 8.47013 8.67356 8.39111 8.81422 8.25046C8.95487 8.10981 9.03389 7.91904 9.03389 7.72013C9.03389 7.38038 9.21464 7.12013 9.37664 7.09613C10.4703 6.9538 11.5257 6.5997 12.4839 6.05363C13.442 6.59981 14.4975 6.95391 15.5911 7.09613C15.7531 7.11863 15.9339 7.38038 15.9339 7.72013C15.9339 7.91904 16.0129 8.10981 16.1536 8.25046C16.2942 8.39111 16.485 8.47013 16.6839 8.47013C16.7635 8.47013 16.8398 8.50174 16.896 8.558C16.9523 8.61426 16.9839 8.69056 16.9839 8.77013C16.9839 8.84969 16.9523 8.926 16.896 8.98226C16.8398 9.03852 16.7635 9.07013 16.6839 9.07013C16.5063 9.07 16.3345 9.13287 16.199 9.24754C16.0634 9.36222 15.9729 9.52126 15.9436 9.69638L15.7584 10.8056C15.7164 11.0568 15.6239 11.2968 15.4864 11.5112C15.349 11.7256 15.1695 11.9098 14.9589 12.0529C14.8546 12.1234 14.7444 12.2029 14.6266 12.2839C14.0211 12.8104 13.2776 13.1526 12.4839 13.2701C11.6894 13.153 10.945 12.8107 10.3389 12.2839C10.2211 12.2014 10.1139 12.1234 10.0066 12.0529C9.79639 11.9096 9.61735 11.7252 9.48033 11.5109C9.3433 11.2965 9.25114 11.0566 9.20939 10.8056L9.02414 9.69638C8.99484 9.52126 8.90437 9.36222 8.76882 9.24754C8.63327 9.13287 8.46144 9.07 8.28389 9.07013ZM5.88389 17.2729C5.96764 16.6044 6.26178 15.9798 6.7238 15.4895C7.18583 14.9992 7.7918 14.6684 8.45414 14.5451L10.4424 14.1454C11.0559 14.53 11.7602 14.7456 12.4839 14.7701C13.2076 14.7456 13.9119 14.53 14.5254 14.1454L16.1289 14.4671C15.4483 15.2 15.016 16.1288 14.8936 17.1214L14.7886 18.5201H5.79239L5.88389 17.2729ZM1.98389 20.7701C1.98389 20.5712 2.0629 20.3805 2.20356 20.2398C2.34421 20.0991 2.53497 20.0201 2.73389 20.0201H43.2339C43.4328 20.0201 43.6236 20.0991 43.7642 20.2398C43.9049 20.3805 43.9839 20.5712 43.9839 20.7701V22.2701C43.9839 22.469 43.9049 22.6598 43.7642 22.8005C43.6236 22.9411 43.4328 23.0201 43.2339 23.0201H2.73389C2.53497 23.0201 2.34421 22.9411 2.20356 22.8005C2.0629 22.6598 1.98389 22.469 1.98389 22.2701V20.7701ZM27.0294 35.1701C26.9371 35.2405 26.8623 35.3313 26.8111 35.4354C26.7598 35.5395 26.7334 35.6541 26.7339 35.7701V41.7701C26.7341 41.9368 26.6788 42.0988 26.5766 42.2306C26.4745 42.3623 26.3314 42.4563 26.1699 42.4976L20.1744 43.9976C20.0634 44.0245 19.9478 44.0261 19.8361 44.0023C19.7245 43.9785 19.6196 43.9298 19.5293 43.8599C19.439 43.7901 19.3655 43.7008 19.3144 43.5987C19.2632 43.4966 19.2357 43.3843 19.2339 43.2701V35.7701C19.2344 35.6541 19.208 35.5395 19.1567 35.4354C19.1054 35.3313 19.0307 35.2405 18.9384 35.1701L4.95614 24.5201H41.0116L27.0294 35.1701Z"/>
</mask>
<path d="M43.2339 18.5201H41.6791L41.5704 17.0824C41.4483 16.1023 41.0185 15.1863 40.3428 14.4661C39.667 13.7458 38.7802 13.2586 37.8099 13.0744L37.2099 12.9536C37.7513 12.4495 38.1127 11.782 38.2389 11.0531L38.3401 10.4464C38.6772 10.3144 38.9667 10.0838 39.1707 9.78479C39.3748 9.48576 39.4839 9.13214 39.4839 8.77013V6.52013C39.4824 5.19053 39.0393 3.89909 38.2242 2.84863C37.4091 1.79818 36.2682 1.04822 34.9806 0.716542C33.6931 0.384865 32.3318 0.49026 31.1106 1.01617C29.8895 1.54209 28.8776 2.45873 28.2339 3.62213C27.715 2.68432 26.9544 1.90262 26.0311 1.35829C25.1079 0.813954 24.0557 0.526865 22.9839 0.526865C21.9121 0.526865 20.8599 0.813954 19.9366 1.35829C19.0134 1.90262 18.2528 2.68432 17.7339 3.62213C17.0902 2.45873 16.0783 1.54209 14.8571 1.01617C13.636 0.49026 12.2747 0.384865 10.9871 0.716542C9.69958 1.04822 8.55866 1.79818 7.74356 2.84863C6.92847 3.89909 6.48538 5.19053 6.48389 6.52013V8.77013C6.48392 9.13223 6.59316 9.48591 6.79734 9.78495C7.00152 10.084 7.29115 10.3145 7.62839 10.4464L7.72964 11.0531C7.85601 11.7822 8.21738 12.4499 8.75864 12.9544L8.16689 13.0729C7.18888 13.2587 6.29564 13.7516 5.61705 14.48C4.93845 15.2084 4.50988 16.1342 4.39364 17.1229L4.28864 18.5201H2.73389C2.13715 18.5201 1.56485 18.7572 1.1429 19.1791C0.72094 19.6011 0.483887 20.1734 0.483887 20.7701L0.483887 22.2701C0.486369 22.8146 0.686175 23.3396 1.04626 23.748C1.40635 24.1563 1.90229 24.4203 2.44214 24.4909L17.7339 36.1451V43.2701C17.7388 43.6107 17.8201 43.9458 17.9718 44.2508C18.1234 44.5558 18.3416 44.8229 18.6102 45.0323C18.8788 45.2418 19.191 45.3883 19.5238 45.461C19.8565 45.5338 20.2014 45.5309 20.5329 45.4526L26.5329 43.9526C27.0199 43.8319 27.4522 43.5511 27.7606 43.1554C28.069 42.7597 28.2357 42.2719 28.2339 41.7701V36.1451L43.5256 24.4909C44.0655 24.4203 44.5614 24.1563 44.9215 23.748C45.2816 23.3396 45.4814 22.8146 45.4839 22.2701V20.7701C45.4839 20.1734 45.2468 19.6011 44.8249 19.1791C44.4029 18.7572 43.8306 18.5201 43.2339 18.5201ZM40.0786 17.2339L40.1754 18.5201H31.1791L31.0704 17.0741C30.9464 16.0982 30.5187 15.1859 29.8479 14.4664L31.4424 14.1454C32.0454 14.5525 32.7563 14.7701 33.4839 14.7701C34.2115 14.7701 34.9224 14.5525 35.5254 14.1454L37.5226 14.5466C38.1772 14.6686 38.7767 14.9941 39.2356 15.4765C39.6945 15.959 39.9895 16.574 40.0786 17.2339ZM18.7839 8.47013C18.9828 8.47013 19.1736 8.39111 19.3142 8.25046C19.4549 8.10981 19.5339 7.91904 19.5339 7.72013C19.5339 7.38038 19.7146 7.12013 19.8766 7.09613C20.9703 6.9538 22.0257 6.5997 22.9839 6.05363C23.942 6.59981 24.9975 6.95391 26.0911 7.09613C26.2531 7.11863 26.4339 7.38038 26.4339 7.72013C26.4339 7.91904 26.5129 8.10981 26.6536 8.25046C26.7942 8.39111 26.985 8.47013 27.1839 8.47013C27.2635 8.47013 27.3398 8.50174 27.396 8.558C27.4523 8.61426 27.4839 8.69056 27.4839 8.77013C27.4839 8.84969 27.4523 8.926 27.396 8.98226C27.3398 9.03852 27.2635 9.07013 27.1839 9.07013C27.0063 9.07 26.8345 9.13287 26.699 9.24754C26.5634 9.36222 26.4729 9.52126 26.4436 9.69638L26.2584 10.8056C26.2164 11.0568 26.1239 11.2968 25.9864 11.5112C25.849 11.7256 25.6695 11.9098 25.4589 12.0529C25.3546 12.1234 25.2444 12.2029 25.1266 12.2839C24.5211 12.8104 23.7776 13.1526 22.9839 13.2701C22.1894 13.153 21.445 12.8107 20.8389 12.2839C20.7211 12.2014 20.6139 12.1234 20.5066 12.0529C20.2964 11.9096 20.1174 11.7252 19.9803 11.5109C19.8433 11.2965 19.7511 11.0566 19.7094 10.8056L19.5241 9.69638C19.4948 9.52126 19.4044 9.36222 19.2688 9.24754C19.1333 9.13287 18.9614 9.07 18.7839 9.07013C18.7043 9.07013 18.628 9.03852 18.5718 8.98226C18.5155 8.926 18.4839 8.84969 18.4839 8.77013C18.4839 8.69056 18.5155 8.61426 18.5718 8.558C18.628 8.50174 18.7043 8.47013 18.7839 8.47013ZM29.1759 13.0714C28.8523 13.1335 28.5365 13.2305 28.2339 13.3609C27.9358 13.2332 27.6251 13.1372 27.3069 13.0744L26.7069 12.9536C27.2483 12.4495 27.6097 11.782 27.7359 11.0531L27.8371 10.4464C27.9781 10.39 28.1114 10.3162 28.2339 10.2266C28.3557 10.316 28.4882 10.3899 28.6284 10.4464L28.7296 11.0531C28.856 11.7822 29.2174 12.4499 29.7586 12.9544L29.1759 13.0714ZM17.3394 10.4464C17.4795 10.3899 17.6121 10.316 17.7339 10.2266C17.8557 10.316 17.9882 10.3899 18.1284 10.4464L18.2296 11.0531C18.356 11.7822 18.7174 12.4499 19.2586 12.9544L18.6669 13.0729C18.3477 13.1369 18.0363 13.2344 17.7376 13.3639C17.4398 13.2339 17.1288 13.1368 16.8099 13.0744L16.2099 12.9536C16.7513 12.4495 17.1127 11.782 17.2389 11.0531L17.3394 10.4464ZM18.9541 14.5451L20.9424 14.1454C21.5559 14.53 22.2602 14.7456 22.9839 14.7701C23.7076 14.7456 24.4119 14.53 25.0254 14.1454L27.0264 14.5474C27.6796 14.668 28.278 14.9921 28.736 15.4732C29.194 15.9544 29.4881 16.568 29.5764 17.2264L29.6754 18.5201H16.2924L16.3854 17.2729C16.469 16.6046 16.763 15.9802 17.2247 15.4899C17.6864 14.9996 18.2921 14.6687 18.9541 14.5451ZM37.6839 9.07013C37.5063 9.07 37.3345 9.13287 37.199 9.24754C37.0634 9.36222 36.9729 9.52126 36.9436 9.69638L36.7584 10.8056C36.7164 11.0568 36.6239 11.2968 36.4864 11.5112C36.349 11.7256 36.1695 11.9098 35.9589 12.0529C35.8546 12.1234 35.7444 12.2029 35.6266 12.2839C35.0211 12.8104 34.2776 13.1526 33.4839 13.2701C32.6894 13.153 31.945 12.8107 31.3389 12.2839C31.2211 12.2014 31.1139 12.1234 31.0066 12.0529C30.7964 11.9096 30.6174 11.7252 30.4803 11.5109C30.3433 11.2965 30.2511 11.0566 30.2094 10.8056L30.0241 9.69638C29.9948 9.52126 29.9044 9.36222 29.7688 9.24754C29.6333 9.13287 29.4614 9.07 29.2839 9.07013C29.2043 9.07013 29.128 9.03852 29.0718 8.98226C29.0155 8.926 28.9839 8.84969 28.9839 8.77013C28.9839 8.69056 29.0155 8.61426 29.0718 8.558C29.128 8.50174 29.2043 8.47013 29.2839 8.47013C29.4828 8.47013 29.6736 8.39111 29.8142 8.25046C29.9549 8.10981 30.0339 7.91904 30.0339 7.72013C30.0339 7.38038 30.2146 7.12013 30.3766 7.09613C31.4703 6.9538 32.5257 6.5997 33.4839 6.05363C34.442 6.59981 35.4975 6.95391 36.5911 7.09613C36.7531 7.11863 36.9339 7.38038 36.9339 7.72013C36.9339 7.91904 37.0129 8.10981 37.1536 8.25046C37.2942 8.39111 37.485 8.47013 37.6839 8.47013C37.7635 8.47013 37.8398 8.50174 37.896 8.558C37.9523 8.61426 37.9839 8.69056 37.9839 8.77013C37.9839 8.84969 37.9523 8.926 37.896 8.98226C37.8398 9.03852 37.7635 9.07013 37.6839 9.07013ZM33.4839 2.02013C34.6431 2.02007 35.7575 2.46794 36.5942 3.27018C37.431 4.07241 37.9254 5.16695 37.9741 6.32513C37.6932 5.94206 37.2725 5.68523 36.8034 5.61038C35.8799 5.49519 34.9893 5.19359 34.1859 4.72388C33.9762 4.59048 33.7328 4.51964 33.4843 4.51964C33.2357 4.51964 32.9923 4.59048 32.7826 4.72388C31.9789 5.19349 31.0881 5.49508 30.1644 5.61038C29.6953 5.68539 29.2747 5.94218 28.9936 6.32513C29.0438 5.16746 29.5387 4.07378 30.3751 3.27184C31.2116 2.46991 32.3251 2.02155 33.4839 2.02013ZM19.8031 3.33938C20.4199 2.72135 21.2034 2.29637 22.0578 2.11639C22.9122 1.93641 23.8005 2.00923 24.6142 2.32593C25.4278 2.64264 26.1316 3.18952 26.6395 3.89974C27.1475 4.60996 27.4375 5.45275 27.4741 6.32513C27.1931 5.94218 26.7724 5.68539 26.3034 5.61038C25.3799 5.49519 24.4893 5.19359 23.6859 4.72388C23.4762 4.59048 23.2328 4.51964 22.9843 4.51964C22.7357 4.51964 22.4923 4.59048 22.2826 4.72388C21.4789 5.19349 20.5881 5.49508 19.6644 5.61038C19.1953 5.68523 18.7746 5.94206 18.4936 6.32513C18.5384 5.20044 19.0061 4.1341 19.8031 3.33938ZM9.30314 3.33938C9.91991 2.72135 10.7034 2.29637 11.5578 2.11639C12.4122 1.93641 13.3005 2.00923 14.1142 2.32593C14.9278 2.64264 15.6316 3.18952 16.1395 3.89974C16.6475 4.60996 16.9375 5.45275 16.9741 6.32513C16.6931 5.94218 16.2724 5.68539 15.8034 5.61038C14.8799 5.49519 13.9893 5.19359 13.1859 4.72388C12.9762 4.59048 12.7328 4.51964 12.4843 4.51964C12.2357 4.51964 11.9923 4.59048 11.7826 4.72388C10.9789 5.19349 10.0881 5.49508 9.16439 5.61038C8.69527 5.68523 8.27459 5.94206 7.99364 6.32513C8.03838 5.20044 8.50606 4.1341 9.30314 3.33938ZM8.28389 9.07013C8.20432 9.07013 8.12802 9.03852 8.07175 8.98226C8.01549 8.926 7.98389 8.84969 7.98389 8.77013C7.98389 8.69056 8.01549 8.61426 8.07175 8.558C8.12802 8.50174 8.20432 8.47013 8.28389 8.47013C8.4828 8.47013 8.67356 8.39111 8.81422 8.25046C8.95487 8.10981 9.03389 7.91904 9.03389 7.72013C9.03389 7.38038 9.21464 7.12013 9.37664 7.09613C10.4703 6.9538 11.5257 6.5997 12.4839 6.05363C13.442 6.59981 14.4975 6.95391 15.5911 7.09613C15.7531 7.11863 15.9339 7.38038 15.9339 7.72013C15.9339 7.91904 16.0129 8.10981 16.1536 8.25046C16.2942 8.39111 16.485 8.47013 16.6839 8.47013C16.7635 8.47013 16.8398 8.50174 16.896 8.558C16.9523 8.61426 16.9839 8.69056 16.9839 8.77013C16.9839 8.84969 16.9523 8.926 16.896 8.98226C16.8398 9.03852 16.7635 9.07013 16.6839 9.07013C16.5063 9.07 16.3345 9.13287 16.199 9.24754C16.0634 9.36222 15.9729 9.52126 15.9436 9.69638L15.7584 10.8056C15.7164 11.0568 15.6239 11.2968 15.4864 11.5112C15.349 11.7256 15.1695 11.9098 14.9589 12.0529C14.8546 12.1234 14.7444 12.2029 14.6266 12.2839C14.0211 12.8104 13.2776 13.1526 12.4839 13.2701C11.6894 13.153 10.945 12.8107 10.3389 12.2839C10.2211 12.2014 10.1139 12.1234 10.0066 12.0529C9.79639 11.9096 9.61735 11.7252 9.48033 11.5109C9.3433 11.2965 9.25114 11.0566 9.20939 10.8056L9.02414 9.69638C8.99484 9.52126 8.90437 9.36222 8.76882 9.24754C8.63327 9.13287 8.46144 9.07 8.28389 9.07013ZM5.88389 17.2729C5.96764 16.6044 6.26178 15.9798 6.7238 15.4895C7.18583 14.9992 7.7918 14.6684 8.45414 14.5451L10.4424 14.1454C11.0559 14.53 11.7602 14.7456 12.4839 14.7701C13.2076 14.7456 13.9119 14.53 14.5254 14.1454L16.1289 14.4671C15.4483 15.2 15.016 16.1288 14.8936 17.1214L14.7886 18.5201H5.79239L5.88389 17.2729ZM1.98389 20.7701C1.98389 20.5712 2.0629 20.3805 2.20356 20.2398C2.34421 20.0991 2.53497 20.0201 2.73389 20.0201H43.2339C43.4328 20.0201 43.6236 20.0991 43.7642 20.2398C43.9049 20.3805 43.9839 20.5712 43.9839 20.7701V22.2701C43.9839 22.469 43.9049 22.6598 43.7642 22.8005C43.6236 22.9411 43.4328 23.0201 43.2339 23.0201H2.73389C2.53497 23.0201 2.34421 22.9411 2.20356 22.8005C2.0629 22.6598 1.98389 22.469 1.98389 22.2701V20.7701ZM27.0294 35.1701C26.9371 35.2405 26.8623 35.3313 26.8111 35.4354C26.7598 35.5395 26.7334 35.6541 26.7339 35.7701V41.7701C26.7341 41.9368 26.6788 42.0988 26.5766 42.2306C26.4745 42.3623 26.3314 42.4563 26.1699 42.4976L20.1744 43.9976C20.0634 44.0245 19.9478 44.0261 19.8361 44.0023C19.7245 43.9785 19.6196 43.9298 19.5293 43.8599C19.439 43.7901 19.3655 43.7008 19.3144 43.5987C19.2632 43.4966 19.2357 43.3843 19.2339 43.2701V35.7701C19.2344 35.6541 19.208 35.5395 19.1567 35.4354C19.1054 35.3313 19.0307 35.2405 18.9384 35.1701L4.95614 24.5201H41.0116L27.0294 35.1701Z" fill="black"/>
<path d="M43.2339 18.5201H41.6791L41.5704 17.0824C41.4483 16.1023 41.0185 15.1863 40.3428 14.4661C39.667 13.7458 38.7802 13.2586 37.8099 13.0744L37.2099 12.9536C37.7513 12.4495 38.1127 11.782 38.2389 11.0531L38.3401 10.4464C38.6772 10.3144 38.9667 10.0838 39.1707 9.78479C39.3748 9.48576 39.4839 9.13214 39.4839 8.77013V6.52013C39.4824 5.19053 39.0393 3.89909 38.2242 2.84863C37.4091 1.79818 36.2682 1.04822 34.9806 0.716542C33.6931 0.384865 32.3318 0.49026 31.1106 1.01617C29.8895 1.54209 28.8776 2.45873 28.2339 3.62213C27.715 2.68432 26.9544 1.90262 26.0311 1.35829C25.1079 0.813954 24.0557 0.526865 22.9839 0.526865C21.9121 0.526865 20.8599 0.813954 19.9366 1.35829C19.0134 1.90262 18.2528 2.68432 17.7339 3.62213C17.0902 2.45873 16.0783 1.54209 14.8571 1.01617C13.636 0.49026 12.2747 0.384865 10.9871 0.716542C9.69958 1.04822 8.55866 1.79818 7.74356 2.84863C6.92847 3.89909 6.48538 5.19053 6.48389 6.52013V8.77013C6.48392 9.13223 6.59316 9.48591 6.79734 9.78495C7.00152 10.084 7.29115 10.3145 7.62839 10.4464L7.72964 11.0531C7.85601 11.7822 8.21738 12.4499 8.75864 12.9544L8.16689 13.0729C7.18888 13.2587 6.29564 13.7516 5.61705 14.48C4.93845 15.2084 4.50988 16.1342 4.39364 17.1229L4.28864 18.5201H2.73389C2.13715 18.5201 1.56485 18.7572 1.1429 19.1791C0.72094 19.6011 0.483887 20.1734 0.483887 20.7701L0.483887 22.2701C0.486369 22.8146 0.686175 23.3396 1.04626 23.748C1.40635 24.1563 1.90229 24.4203 2.44214 24.4909L17.7339 36.1451V43.2701C17.7388 43.6107 17.8201 43.9458 17.9718 44.2508C18.1234 44.5558 18.3416 44.8229 18.6102 45.0323C18.8788 45.2418 19.191 45.3883 19.5238 45.461C19.8565 45.5338 20.2014 45.5309 20.5329 45.4526L26.5329 43.9526C27.0199 43.8319 27.4522 43.5511 27.7606 43.1554C28.069 42.7597 28.2357 42.2719 28.2339 41.7701V36.1451L43.5256 24.4909C44.0655 24.4203 44.5614 24.1563 44.9215 23.748C45.2816 23.3396 45.4814 22.8146 45.4839 22.2701V20.7701C45.4839 20.1734 45.2468 19.6011 44.8249 19.1791C44.4029 18.7572 43.8306 18.5201 43.2339 18.5201ZM40.0786 17.2339L40.1754 18.5201H31.1791L31.0704 17.0741C30.9464 16.0982 30.5187 15.1859 29.8479 14.4664L31.4424 14.1454C32.0454 14.5525 32.7563 14.7701 33.4839 14.7701C34.2115 14.7701 34.9224 14.5525 35.5254 14.1454L37.5226 14.5466C38.1772 14.6686 38.7767 14.9941 39.2356 15.4765C39.6945 15.959 39.9895 16.574 40.0786 17.2339ZM18.7839 8.47013C18.9828 8.47013 19.1736 8.39111 19.3142 8.25046C19.4549 8.10981 19.5339 7.91904 19.5339 7.72013C19.5339 7.38038 19.7146 7.12013 19.8766 7.09613C20.9703 6.9538 22.0257 6.5997 22.9839 6.05363C23.942 6.59981 24.9975 6.95391 26.0911 7.09613C26.2531 7.11863 26.4339 7.38038 26.4339 7.72013C26.4339 7.91904 26.5129 8.10981 26.6536 8.25046C26.7942 8.39111 26.985 8.47013 27.1839 8.47013C27.2635 8.47013 27.3398 8.50174 27.396 8.558C27.4523 8.61426 27.4839 8.69056 27.4839 8.77013C27.4839 8.84969 27.4523 8.926 27.396 8.98226C27.3398 9.03852 27.2635 9.07013 27.1839 9.07013C27.0063 9.07 26.8345 9.13287 26.699 9.24754C26.5634 9.36222 26.4729 9.52126 26.4436 9.69638L26.2584 10.8056C26.2164 11.0568 26.1239 11.2968 25.9864 11.5112C25.849 11.7256 25.6695 11.9098 25.4589 12.0529C25.3546 12.1234 25.2444 12.2029 25.1266 12.2839C24.5211 12.8104 23.7776 13.1526 22.9839 13.2701C22.1894 13.153 21.445 12.8107 20.8389 12.2839C20.7211 12.2014 20.6139 12.1234 20.5066 12.0529C20.2964 11.9096 20.1174 11.7252 19.9803 11.5109C19.8433 11.2965 19.7511 11.0566 19.7094 10.8056L19.5241 9.69638C19.4948 9.52126 19.4044 9.36222 19.2688 9.24754C19.1333 9.13287 18.9614 9.07 18.7839 9.07013C18.7043 9.07013 18.628 9.03852 18.5718 8.98226C18.5155 8.926 18.4839 8.84969 18.4839 8.77013C18.4839 8.69056 18.5155 8.61426 18.5718 8.558C18.628 8.50174 18.7043 8.47013 18.7839 8.47013ZM29.1759 13.0714C28.8523 13.1335 28.5365 13.2305 28.2339 13.3609C27.9358 13.2332 27.6251 13.1372 27.3069 13.0744L26.7069 12.9536C27.2483 12.4495 27.6097 11.782 27.7359 11.0531L27.8371 10.4464C27.9781 10.39 28.1114 10.3162 28.2339 10.2266C28.3557 10.316 28.4882 10.3899 28.6284 10.4464L28.7296 11.0531C28.856 11.7822 29.2174 12.4499 29.7586 12.9544L29.1759 13.0714ZM17.3394 10.4464C17.4795 10.3899 17.6121 10.316 17.7339 10.2266C17.8557 10.316 17.9882 10.3899 18.1284 10.4464L18.2296 11.0531C18.356 11.7822 18.7174 12.4499 19.2586 12.9544L18.6669 13.0729C18.3477 13.1369 18.0363 13.2344 17.7376 13.3639C17.4398 13.2339 17.1288 13.1368 16.8099 13.0744L16.2099 12.9536C16.7513 12.4495 17.1127 11.782 17.2389 11.0531L17.3394 10.4464ZM18.9541 14.5451L20.9424 14.1454C21.5559 14.53 22.2602 14.7456 22.9839 14.7701C23.7076 14.7456 24.4119 14.53 25.0254 14.1454L27.0264 14.5474C27.6796 14.668 28.278 14.9921 28.736 15.4732C29.194 15.9544 29.4881 16.568 29.5764 17.2264L29.6754 18.5201H16.2924L16.3854 17.2729C16.469 16.6046 16.763 15.9802 17.2247 15.4899C17.6864 14.9996 18.2921 14.6687 18.9541 14.5451ZM37.6839 9.07013C37.5063 9.07 37.3345 9.13287 37.199 9.24754C37.0634 9.36222 36.9729 9.52126 36.9436 9.69638L36.7584 10.8056C36.7164 11.0568 36.6239 11.2968 36.4864 11.5112C36.349 11.7256 36.1695 11.9098 35.9589 12.0529C35.8546 12.1234 35.7444 12.2029 35.6266 12.2839C35.0211 12.8104 34.2776 13.1526 33.4839 13.2701C32.6894 13.153 31.945 12.8107 31.3389 12.2839C31.2211 12.2014 31.1139 12.1234 31.0066 12.0529C30.7964 11.9096 30.6174 11.7252 30.4803 11.5109C30.3433 11.2965 30.2511 11.0566 30.2094 10.8056L30.0241 9.69638C29.9948 9.52126 29.9044 9.36222 29.7688 9.24754C29.6333 9.13287 29.4614 9.07 29.2839 9.07013C29.2043 9.07013 29.128 9.03852 29.0718 8.98226C29.0155 8.926 28.9839 8.84969 28.9839 8.77013C28.9839 8.69056 29.0155 8.61426 29.0718 8.558C29.128 8.50174 29.2043 8.47013 29.2839 8.47013C29.4828 8.47013 29.6736 8.39111 29.8142 8.25046C29.9549 8.10981 30.0339 7.91904 30.0339 7.72013C30.0339 7.38038 30.2146 7.12013 30.3766 7.09613C31.4703 6.9538 32.5257 6.5997 33.4839 6.05363C34.442 6.59981 35.4975 6.95391 36.5911 7.09613C36.7531 7.11863 36.9339 7.38038 36.9339 7.72013C36.9339 7.91904 37.0129 8.10981 37.1536 8.25046C37.2942 8.39111 37.485 8.47013 37.6839 8.47013C37.7635 8.47013 37.8398 8.50174 37.896 8.558C37.9523 8.61426 37.9839 8.69056 37.9839 8.77013C37.9839 8.84969 37.9523 8.926 37.896 8.98226C37.8398 9.03852 37.7635 9.07013 37.6839 9.07013ZM33.4839 2.02013C34.6431 2.02007 35.7575 2.46794 36.5942 3.27018C37.431 4.07241 37.9254 5.16695 37.9741 6.32513C37.6932 5.94206 37.2725 5.68523 36.8034 5.61038C35.8799 5.49519 34.9893 5.19359 34.1859 4.72388C33.9762 4.59048 33.7328 4.51964 33.4843 4.51964C33.2357 4.51964 32.9923 4.59048 32.7826 4.72388C31.9789 5.19349 31.0881 5.49508 30.1644 5.61038C29.6953 5.68539 29.2747 5.94218 28.9936 6.32513C29.0438 5.16746 29.5387 4.07378 30.3751 3.27184C31.2116 2.46991 32.3251 2.02155 33.4839 2.02013ZM19.8031 3.33938C20.4199 2.72135 21.2034 2.29637 22.0578 2.11639C22.9122 1.93641 23.8005 2.00923 24.6142 2.32593C25.4278 2.64264 26.1316 3.18952 26.6395 3.89974C27.1475 4.60996 27.4375 5.45275 27.4741 6.32513C27.1931 5.94218 26.7724 5.68539 26.3034 5.61038C25.3799 5.49519 24.4893 5.19359 23.6859 4.72388C23.4762 4.59048 23.2328 4.51964 22.9843 4.51964C22.7357 4.51964 22.4923 4.59048 22.2826 4.72388C21.4789 5.19349 20.5881 5.49508 19.6644 5.61038C19.1953 5.68523 18.7746 5.94206 18.4936 6.32513C18.5384 5.20044 19.0061 4.1341 19.8031 3.33938ZM9.30314 3.33938C9.91991 2.72135 10.7034 2.29637 11.5578 2.11639C12.4122 1.93641 13.3005 2.00923 14.1142 2.32593C14.9278 2.64264 15.6316 3.18952 16.1395 3.89974C16.6475 4.60996 16.9375 5.45275 16.9741 6.32513C16.6931 5.94218 16.2724 5.68539 15.8034 5.61038C14.8799 5.49519 13.9893 5.19359 13.1859 4.72388C12.9762 4.59048 12.7328 4.51964 12.4843 4.51964C12.2357 4.51964 11.9923 4.59048 11.7826 4.72388C10.9789 5.19349 10.0881 5.49508 9.16439 5.61038C8.69527 5.68523 8.27459 5.94206 7.99364 6.32513C8.03838 5.20044 8.50606 4.1341 9.30314 3.33938ZM8.28389 9.07013C8.20432 9.07013 8.12802 9.03852 8.07175 8.98226C8.01549 8.926 7.98389 8.84969 7.98389 8.77013C7.98389 8.69056 8.01549 8.61426 8.07175 8.558C8.12802 8.50174 8.20432 8.47013 8.28389 8.47013C8.4828 8.47013 8.67356 8.39111 8.81422 8.25046C8.95487 8.10981 9.03389 7.91904 9.03389 7.72013C9.03389 7.38038 9.21464 7.12013 9.37664 7.09613C10.4703 6.9538 11.5257 6.5997 12.4839 6.05363C13.442 6.59981 14.4975 6.95391 15.5911 7.09613C15.7531 7.11863 15.9339 7.38038 15.9339 7.72013C15.9339 7.91904 16.0129 8.10981 16.1536 8.25046C16.2942 8.39111 16.485 8.47013 16.6839 8.47013C16.7635 8.47013 16.8398 8.50174 16.896 8.558C16.9523 8.61426 16.9839 8.69056 16.9839 8.77013C16.9839 8.84969 16.9523 8.926 16.896 8.98226C16.8398 9.03852 16.7635 9.07013 16.6839 9.07013C16.5063 9.07 16.3345 9.13287 16.199 9.24754C16.0634 9.36222 15.9729 9.52126 15.9436 9.69638L15.7584 10.8056C15.7164 11.0568 15.6239 11.2968 15.4864 11.5112C15.349 11.7256 15.1695 11.9098 14.9589 12.0529C14.8546 12.1234 14.7444 12.2029 14.6266 12.2839C14.0211 12.8104 13.2776 13.1526 12.4839 13.2701C11.6894 13.153 10.945 12.8107 10.3389 12.2839C10.2211 12.2014 10.1139 12.1234 10.0066 12.0529C9.79639 11.9096 9.61735 11.7252 9.48033 11.5109C9.3433 11.2965 9.25114 11.0566 9.20939 10.8056L9.02414 9.69638C8.99484 9.52126 8.90437 9.36222 8.76882 9.24754C8.63327 9.13287 8.46144 9.07 8.28389 9.07013ZM5.88389 17.2729C5.96764 16.6044 6.26178 15.9798 6.7238 15.4895C7.18583 14.9992 7.7918 14.6684 8.45414 14.5451L10.4424 14.1454C11.0559 14.53 11.7602 14.7456 12.4839 14.7701C13.2076 14.7456 13.9119 14.53 14.5254 14.1454L16.1289 14.4671C15.4483 15.2 15.016 16.1288 14.8936 17.1214L14.7886 18.5201H5.79239L5.88389 17.2729ZM1.98389 20.7701C1.98389 20.5712 2.0629 20.3805 2.20356 20.2398C2.34421 20.0991 2.53497 20.0201 2.73389 20.0201H43.2339C43.4328 20.0201 43.6236 20.0991 43.7642 20.2398C43.9049 20.3805 43.9839 20.5712 43.9839 20.7701V22.2701C43.9839 22.469 43.9049 22.6598 43.7642 22.8005C43.6236 22.9411 43.4328 23.0201 43.2339 23.0201H2.73389C2.53497 23.0201 2.34421 22.9411 2.20356 22.8005C2.0629 22.6598 1.98389 22.469 1.98389 22.2701V20.7701ZM27.0294 35.1701C26.9371 35.2405 26.8623 35.3313 26.8111 35.4354C26.7598 35.5395 26.7334 35.6541 26.7339 35.7701V41.7701C26.7341 41.9368 26.6788 42.0988 26.5766 42.2306C26.4745 42.3623 26.3314 42.4563 26.1699 42.4976L20.1744 43.9976C20.0634 44.0245 19.9478 44.0261 19.8361 44.0023C19.7245 43.9785 19.6196 43.9298 19.5293 43.8599C19.439 43.7901 19.3655 43.7008 19.3144 43.5987C19.2632 43.4966 19.2357 43.3843 19.2339 43.2701V35.7701C19.2344 35.6541 19.208 35.5395 19.1567 35.4354C19.1054 35.3313 19.0307 35.2405 18.9384 35.1701L4.95614 24.5201H41.0116L27.0294 35.1701Z" stroke="black" stroke-width="0.2" mask="url(#path-1-outside-1_95_13463)"/>
</g>
<defs>
<clipPath id="clip0_95_13463">
<rect width="45" height="45" fill="white" transform="translate(0.483887 0.52002)"/>
</clipPath>
</defs>
</svg>
