<svg width="45" height="45" viewBox="0 0 45 45" fill="none" xmlns="http://www.w3.org/2000/svg">
<g clip-path="url(#clip0_98_144)">
<path d="M24.6094 17.5566C25.9408 17.5582 27.2177 18.0869 28.1592 19.0283C29.1006 19.9698 29.6293 21.2467 29.6309 22.5781V24.6865L29.627 24.7793C29.6173 24.8714 29.5913 24.9612 29.5508 25.0449V25.0469C29.3121 25.5233 28.1305 26.8965 22.5 26.8965C17.2203 26.8965 15.8561 25.6889 15.5098 25.1455L15.4531 25.0469C15.3976 24.9354 15.369 24.8121 15.3691 24.6875V22.5781L15.375 22.3291C15.4379 21.0884 15.9582 19.9109 16.8408 19.0283C17.7823 18.0869 19.0592 17.5582 20.3906 17.5566H24.6094ZM20.3906 19.1621C19.4851 19.1632 18.6169 19.5237 17.9766 20.1641C17.3362 20.8044 16.9757 21.6726 16.9746 22.5781V24.374C17.317 24.6057 18.6311 25.291 22.5 25.291C26.3176 25.291 27.6438 24.624 28.0254 24.3564V22.5781C28.0243 21.6726 27.6638 20.8044 27.0234 20.1641C26.4231 19.5637 25.6223 19.2098 24.7783 19.167L24.6094 19.1621H20.3906Z" fill="black" stroke="black" stroke-width="0.2"/>
<path d="M40.0781 17.5566C41.4095 17.5582 42.6865 18.0869 43.6279 19.0283C44.5694 19.9698 45.0981 21.2467 45.0996 22.5781V24.6865L45.0957 24.7793C45.086 24.8714 45.0601 24.9612 45.0195 25.0449V25.0469C44.7809 25.5233 43.5992 26.8955 37.9688 26.8955C36.9983 26.901 36.0281 26.8522 35.0635 26.7461L34.9639 26.7344L34.9756 26.6348L35.1387 25.2383L35.1504 25.1396L35.249 25.1504C36.1518 25.2492 37.0596 25.2965 37.9678 25.291H37.9688C41.7863 25.291 43.1125 24.624 43.4941 24.3564V22.5781C43.493 21.6726 43.1325 20.8044 42.4922 20.1641C41.8918 19.5637 41.0911 19.2098 40.2471 19.167L40.0781 19.1621H37.8691V17.5566H40.0781ZM21.6572 10.6084C22.4948 10.4418 23.3633 10.5268 24.1523 10.8535C24.9415 11.1804 25.6163 11.7342 26.0908 12.4443C26.5654 13.1546 26.8184 13.9896 26.8184 14.8438C26.8172 15.9888 26.3624 17.0868 25.5527 17.8965C24.7431 18.7061 23.645 19.161 22.5 19.1621C21.6458 19.1621 20.8108 18.9091 20.1006 18.4346C19.3904 17.96 18.8366 17.2852 18.5098 16.4961C18.183 15.7071 18.098 14.8386 18.2646 14.001C18.4313 13.1633 18.8424 12.394 19.4463 11.79C20.0502 11.1861 20.8196 10.7751 21.6572 10.6084ZM22.5 12.1309C21.9635 12.1309 21.4392 12.2908 20.9932 12.5889C20.5472 12.8869 20.1994 13.3101 19.9941 13.8057C19.7888 14.3013 19.7352 14.8469 19.8398 15.373C19.9445 15.8992 20.2027 16.3824 20.582 16.7617C20.9613 17.141 21.4446 17.3992 21.9707 17.5039C22.4969 17.6086 23.0424 17.5549 23.5381 17.3496C24.0336 17.1443 24.4569 16.7966 24.7549 16.3506C25.0529 15.9045 25.2129 15.3802 25.2129 14.8438C25.2129 14.1244 24.9267 13.4345 24.418 12.9258C23.9093 12.4171 23.2194 12.1309 22.5 12.1309Z" fill="black" stroke="black" stroke-width="0.2"/>
<path d="M7.13086 17.5566V19.1621H4.92188C4.01634 19.1632 3.14812 19.5238 2.50781 20.1641C1.8675 20.8044 1.50698 21.6726 1.50586 22.5781V24.374C1.84823 24.6057 3.16233 25.291 7.03125 25.291H7.03223C7.94042 25.2965 8.84815 25.2492 9.75098 25.1504L9.84961 25.1396L9.86133 25.2383L10.0244 26.6348L10.0361 26.7344L9.93652 26.7461C8.9719 26.8522 8.00168 26.901 7.03125 26.8955V26.8965C1.4041 26.8965 0.220321 25.5248 -0.015625 25.0469C-0.0711885 24.9354 -0.0997147 24.8121 -0.0996094 24.6875V22.5781L-0.09375 22.3291C-0.0308711 21.0884 0.489476 19.9109 1.37207 19.0283C2.3135 18.0869 3.59049 17.5582 4.92188 17.5566H7.13086ZM37.9688 10.5254C39.1141 10.5254 40.2125 10.9801 41.0225 11.79C41.8324 12.6 42.2871 13.6984 42.2871 14.8438C42.2871 15.9891 41.8324 17.0875 41.0225 17.8975C40.2125 18.7074 39.1142 19.1621 37.9688 19.1621H37.8691V17.5566H37.9688C38.6881 17.5566 39.378 17.2704 39.8867 16.7617C40.3954 16.253 40.6816 15.5631 40.6816 14.8438C40.6816 14.1244 40.3954 13.4345 39.8867 12.9258C39.4417 12.4808 38.8581 12.2063 38.2373 12.1445L37.9688 12.1309C37.3818 12.1288 36.8102 12.32 36.3418 12.6738L36.2617 12.7344L36.2012 12.6533L35.3574 11.5283L35.2979 11.4492L35.377 11.3887C36.1231 10.8251 37.0337 10.5223 37.9688 10.5254Z" fill="black" stroke="black" stroke-width="0.2"/>
<path d="M19.874 5.1582C22.4848 4.63888 25.1911 4.90615 27.6504 5.9248C30.1098 6.94351 32.2125 8.66845 33.6914 10.8818C35.1702 13.0952 35.959 15.6975 35.959 18.3594C35.955 21.9278 34.5359 25.3488 32.0127 27.8721C29.4894 30.3953 26.0684 31.8144 22.5 31.8184C19.8381 31.8184 17.2358 31.0296 15.0225 29.5508C12.8091 28.0718 11.0841 25.9691 10.0654 23.5098C9.04677 21.0504 8.77951 18.3442 9.29883 15.7334C9.81817 13.1226 11.1001 10.7241 12.9824 8.8418C14.8647 6.95949 17.2632 5.67755 19.874 5.1582ZM22.0615 6.51465C19.8709 6.59572 17.7425 7.28287 15.915 8.50391C13.9658 9.80634 12.446 11.6574 11.5488 13.8232C10.6517 15.9891 10.4176 18.3726 10.875 20.6719C11.3324 22.9711 12.4605 25.0836 14.1182 26.7412C15.7758 28.3989 17.8883 29.527 20.1875 29.9844C22.4868 30.4417 24.8703 30.2077 27.0361 29.3105C29.202 28.4134 31.053 26.8936 32.3555 24.9443C33.6578 22.9951 34.3535 20.7036 34.3535 18.3594C34.35 15.2168 33.1001 12.2036 30.8779 9.98145C28.6558 7.75932 25.6426 6.5094 22.5 6.50586L22.0615 6.51465ZM7.13086 19.1621H7.03125C5.88585 19.1621 4.78746 18.7074 3.97754 17.8975C3.16762 17.0875 2.71289 15.9892 2.71289 14.8438C2.71289 13.6983 3.16762 12.6 3.97754 11.79C4.78746 10.9801 5.88585 10.5254 7.03125 10.5254L7.37988 10.5381C8.19095 10.6017 8.97 10.8954 9.62305 11.3887L9.70215 11.4492L9.64258 11.5283L8.79883 12.6533L8.73828 12.7344L8.6582 12.6738C8.18982 12.32 7.61824 12.1288 7.03125 12.1309C6.31185 12.1309 5.62197 12.4171 5.11328 12.9258C4.60459 13.4345 4.31836 14.1244 4.31836 14.8438C4.31836 15.5631 4.60459 16.253 5.11328 16.7617C5.62197 17.2704 6.31185 17.5566 7.03125 17.5566H7.13086V19.1621Z" fill="black" stroke="black" stroke-width="0.2"/>
<path d="M32.2085 26.9333L35.021 29.7458L35.0923 29.8162L35.021 29.8865L34.0269 30.8806L33.9565 30.9519L33.8862 30.8806L31.0737 28.0681L31.0024 27.9978L31.0737 27.9275L32.0679 26.9333L32.1382 26.8621L32.2085 26.9333Z" fill="black" stroke="black" stroke-width="0.2"/>
<path d="M35.8594 28.1038C36.0721 28.1038 36.2762 28.1878 36.4268 28.3381L44.1611 36.0725C44.3117 36.2231 44.3965 36.4279 44.3965 36.6409C44.3964 36.8538 44.3117 37.0577 44.1611 37.2083L41.3486 40.0208C41.1981 40.1713 40.9942 40.256 40.7812 40.2561C40.5683 40.2561 40.3635 40.1714 40.2129 40.0208L32.4785 32.2864C32.3282 32.1358 32.2442 31.9317 32.2441 31.719C32.2441 31.506 32.328 31.3012 32.4785 31.1506L35.291 28.3381C35.4416 28.1876 35.6464 28.1038 35.8594 28.1038ZM34.1816 31.718L40.7803 38.3167L42.457 36.6399L35.8584 30.0413L34.1816 31.718Z" fill="black" stroke="black" stroke-width="0.2"/>
</g>
<defs>
<clipPath id="clip0_98_144">
<rect width="45" height="45" fill="white"/>
</clipPath>
</defs>
</svg>
