<svg width="55" height="55" viewBox="0 0 55 55" fill="none" xmlns="http://www.w3.org/2000/svg">
<g clip-path="url(#clip0_98_75)">
<g clip-path="url(#clip1_98_75)">
<g clip-path="url(#clip2_98_75)">
<path opacity="0.2" d="M27.5 55C42.6878 55 55 42.6878 55 27.5C55 12.3122 42.6878 0 27.5 0C12.3122 0 0 12.3122 0 27.5C0 42.6878 12.3122 55 27.5 55Z" fill="url(#paint0_linear_98_75)"/>
<g clip-path="url(#clip3_98_75)">
<path d="M25.5228 34.7358C24.8886 34.7358 24.373 34.2211 24.373 33.5869C24.373 32.9526 24.8886 32.4375 25.5228 32.4375C26.157 32.4375 26.6727 32.9526 26.6727 33.5869C26.6727 34.2211 26.157 34.7358 25.5228 34.7358ZM25.5228 33.4054C25.4747 33.4054 25.4285 33.4245 25.3944 33.4585C25.3603 33.4926 25.3411 33.5387 25.3409 33.5869C25.3409 33.787 25.7047 33.787 25.7047 33.5869C25.7046 33.5387 25.6853 33.4926 25.6513 33.4585C25.6172 33.4245 25.571 33.4054 25.5228 33.4054ZM29.8447 34.7358C29.2109 34.7358 28.6958 34.2211 28.6958 33.5869C28.6958 32.9526 29.2109 32.4375 29.8452 32.4375C30.4794 32.4375 30.9941 32.9526 30.9941 33.5869C30.9941 34.2211 30.4784 34.7358 29.8447 34.7358ZM29.8447 33.4054C29.7966 33.4054 29.7504 33.4246 29.7164 33.4586C29.6824 33.4926 29.6633 33.5387 29.6633 33.5869C29.6633 33.787 30.0266 33.787 30.0266 33.5869C30.0266 33.5387 30.0074 33.4926 29.9734 33.4586C29.9394 33.4246 29.8928 33.4054 29.8447 33.4054ZM33.4648 23.7C33.3601 23.5626 33.2249 23.4513 33.0698 23.3749C32.9148 23.2985 32.7442 23.2591 32.5714 23.2598H21.5764L21.2905 22.1887C21.2196 21.924 21.0634 21.69 20.846 21.523C20.6286 21.356 20.3622 21.2655 20.0881 21.2653H19.3667C19.2384 21.2653 19.1154 21.3163 19.0247 21.407C18.9339 21.4977 18.883 21.6207 18.883 21.749C18.883 21.8773 18.9339 22.0004 19.0247 22.0911C19.1154 22.1818 19.2384 22.2328 19.3667 22.2328H20.0881C20.2133 22.2328 20.3225 22.3172 20.3553 22.4386L22.6667 31.0804C22.7495 31.3887 22.9315 31.6612 23.1847 31.8555C23.4379 32.0499 23.7481 32.1554 24.0673 32.1558H31.8252C31.9535 32.1558 32.0766 32.1048 32.1674 32.014C32.2581 31.9232 32.3091 31.8001 32.3091 31.6718C32.3091 31.5434 32.2581 31.4203 32.1674 31.3295C32.0766 31.2388 31.9535 31.1878 31.8252 31.1878H24.0673C23.8494 31.1878 23.6577 31.0406 23.6014 30.8306L23.4252 30.1711H30.7086C31.1356 30.1705 31.5505 30.0293 31.8892 29.7693C32.2279 29.5092 32.4714 29.1449 32.5822 28.7325L33.6603 24.6764C33.7052 24.5096 33.7109 24.3347 33.677 24.1653C33.6431 23.9959 33.5705 23.8366 33.4648 23.7ZM32.6975 24.2897C32.7153 24.3131 32.7425 24.3614 32.7247 24.4279L32.2452 26.2317H30.5455L30.815 24.2278H32.5714C32.6398 24.2278 32.6792 24.2662 32.6975 24.2897ZM29.5695 26.2317H27.7911V24.2278H29.8395L29.5695 26.2317ZM26.8236 24.2278V26.2317H25.047L24.7752 24.2278H26.8236ZM23.7987 24.2278L24.0702 26.2317H22.3737L21.837 24.2278H23.7987ZM24.2014 27.1997L24.4728 29.2031H23.1697L22.633 27.1997H24.2014ZM25.1783 27.1997H26.8236V29.2031H25.4492L25.1783 27.1997ZM27.7911 29.2031V27.1997H29.4392L29.1692 29.2031H27.7911ZM30.7086 29.2031H30.1461L30.4156 27.1997H31.9883L31.647 28.4831C31.5917 28.6895 31.4698 28.8719 31.3004 29.002C31.1309 29.1322 30.9232 29.2029 30.7095 29.2031H30.7086ZM20.4027 15.9928C20.4027 15.8726 20.3549 15.7573 20.2699 15.6723C20.1849 15.5873 20.0696 15.5395 19.9494 15.5395H14.9712C14.851 15.5395 14.7357 15.5873 14.6507 15.6723C14.5657 15.7573 14.518 15.8726 14.518 15.9928C14.518 16.113 14.5657 16.2283 14.6507 16.3133C14.7357 16.3983 14.851 16.4461 14.9712 16.4461H19.9494C20.0696 16.4461 20.1849 16.3983 20.2699 16.3133C20.3549 16.2283 20.4027 16.113 20.4027 15.9928ZM34.0733 15.9928C34.0733 16.1211 34.0223 16.2441 33.9316 16.3349C33.8409 16.4256 33.7178 16.4765 33.5895 16.4765C33.4612 16.4765 33.3382 16.4256 33.2475 16.3349C33.1567 16.2441 33.1058 16.1211 33.1058 15.9928C33.1058 15.8645 33.1567 15.7414 33.2475 15.6507C33.3382 15.56 33.4612 15.509 33.5895 15.509C33.7178 15.509 33.8409 15.56 33.9316 15.6507C34.0223 15.7414 34.0733 15.8645 34.0733 15.9928ZM35.5859 15.509C35.4576 15.509 35.3345 15.56 35.2437 15.6508C35.1529 15.7416 35.102 15.8647 35.102 15.993C35.102 16.1214 35.1529 16.2445 35.2437 16.3353C35.3345 16.426 35.4576 16.477 35.5859 16.477C35.7143 16.477 35.8374 16.426 35.9282 16.3353C36.0189 16.2445 36.0699 16.1214 36.0699 15.993C36.0699 15.8647 36.0189 15.7416 35.9282 15.6508C35.8374 15.56 35.7143 15.509 35.5859 15.509ZM37.5823 15.509C37.454 15.509 37.3309 15.56 37.2401 15.6508C37.1493 15.7416 37.0984 15.8647 37.0984 15.993C37.0984 16.1214 37.1493 16.2445 37.2401 16.3353C37.3309 16.426 37.454 16.477 37.5823 16.477C37.7107 16.477 37.8338 16.426 37.9246 16.3353C38.0153 16.2445 38.0663 16.1214 38.0663 15.993C38.0663 15.8647 38.0153 15.7416 37.9246 15.6508C37.8338 15.56 37.7107 15.509 37.5823 15.509ZM41.8527 36.6544L40.3686 35.4033C40.3695 35.3737 40.3742 35.3442 40.3742 35.3142V16.4095C40.3742 14.9564 39.1883 13.7704 37.7352 13.7704H14.8461C13.393 13.7704 12.207 14.9564 12.207 16.4095V35.3142C12.207 36.7673 13.393 37.9533 14.8461 37.9533H35.1608L35.1612 39.7659C35.1612 40.1564 35.3806 40.5014 35.7341 40.6669C36.0847 40.83 36.492 40.7794 36.7916 40.5309L37.6981 39.7772L38.2025 40.8614C38.3586 41.1998 38.6384 41.4567 38.9881 41.5842C39.1602 41.6471 39.343 41.6755 39.5261 41.6677C39.7092 41.6599 39.8889 41.6161 40.055 41.5387C40.2213 41.4619 40.3707 41.3528 40.4946 41.2179C40.6185 41.083 40.7144 40.9249 40.7769 40.7526C40.8402 40.5808 40.8688 40.398 40.8609 40.2151C40.853 40.0321 40.8089 39.8525 40.7309 39.6867L40.227 38.6015L41.3867 38.3944C41.5732 38.3619 41.7464 38.2765 41.8857 38.1483C42.025 38.0201 42.1245 37.8547 42.1723 37.6715C42.2224 37.4892 42.2188 37.2963 42.1621 37.1159C42.1055 36.9355 41.998 36.7753 41.8527 36.6544ZM13.1727 16.4095C13.1727 15.4908 13.9227 14.7408 14.8461 14.7408H37.7352C38.6586 14.7408 39.4086 15.4908 39.4086 16.4095V17.2439H13.1727V16.4095ZM35.1594 33.149L35.1603 36.9834H14.8461C14.4031 36.9834 13.9781 36.8078 13.6644 36.4949C13.3508 36.1821 13.1739 35.7577 13.1727 35.3147V18.2147H39.4086V34.5942L36.7934 32.3892C36.6491 32.2663 36.4724 32.1876 36.2845 32.1627C36.0966 32.1378 35.9054 32.1676 35.7341 32.2486C35.5617 32.3273 35.4157 32.4542 35.3137 32.6139C35.2118 32.7737 35.1582 32.9595 35.1594 33.149ZM41.2156 37.4419L39.4381 37.7592C39.3652 37.7722 39.2962 37.8018 39.2365 37.8457C39.1768 37.8897 39.128 37.9467 39.0938 38.0125C39.0597 38.0783 39.0411 38.151 39.0395 38.2251C39.0379 38.2992 39.0534 38.3726 39.0847 38.4398L39.8534 40.0959C39.8772 40.1464 39.8908 40.2011 39.8933 40.2569C39.8958 40.3126 39.8872 40.3683 39.868 40.4208C39.8289 40.5268 39.7498 40.6134 39.6477 40.6617C39.5968 40.6853 39.5417 40.6987 39.4856 40.701C39.4296 40.7034 39.3736 40.6946 39.3209 40.6753C39.2679 40.6564 39.2193 40.6271 39.1778 40.5891C39.1363 40.5511 39.1029 40.5052 39.0795 40.454L38.3108 38.7998C38.2718 38.7164 38.2098 38.6458 38.1321 38.5963C38.0543 38.5468 37.9642 38.5205 37.872 38.5204C37.7605 38.5204 37.6508 38.5589 37.5627 38.632L36.1292 39.7659L36.1695 33.1284L41.2287 37.394L41.2156 37.4419Z" fill="white"/>
</g>
</g>
</g>
</g>
<defs>
<linearGradient id="paint0_linear_98_75" x1="0" y1="27.5" x2="55" y2="27.5" gradientUnits="userSpaceOnUse">
<stop stop-color="#6DFAD9"/>
<stop offset="1" stop-color="#2755EE"/>
</linearGradient>
<clipPath id="clip0_98_75">
<rect width="55" height="55" fill="white"/>
</clipPath>
<clipPath id="clip1_98_75">
<rect width="55" height="55" fill="white"/>
</clipPath>
<clipPath id="clip2_98_75">
<rect width="55" height="55" fill="white"/>
</clipPath>
<clipPath id="clip3_98_75">
<rect width="30" height="30" fill="white" transform="translate(12.207 12.72)"/>
</clipPath>
</defs>
</svg>
