<svg width="30" height="30" viewBox="0 0 30 30" fill="none" xmlns="http://www.w3.org/2000/svg">
<path d="M28.5166 0.987961V2.2716L16.7945 17.4856C16.4978 17.8472 16.4647 18.2764 16.4647 18.4075V26.1133L13.0403 28.5507V18.4077C13.0403 18.111 12.941 17.8156 12.7767 17.552C12.7767 17.5189 12.7436 17.5189 12.7436 17.4857L0.988248 2.2731V0.988183H28.5163M29.0436 0H0.494091C0.230488 0 0 0.230495 0 0.494092V2.43737C0 2.5367 0.0331089 2.66786 0.0993301 2.73408L11.9538 18.1123C12.02 18.2117 12.0531 18.3097 12.0531 18.4091L12.0519 29.5059C12.0519 29.8026 12.2824 30 12.546 30C12.6453 30 12.7433 29.9669 12.8427 29.9007L17.2551 26.7718C17.3863 26.6724 17.4525 26.5413 17.4525 26.377V18.4079C17.4525 18.3085 17.4856 18.1774 17.5519 18.1111L29.4063 2.73288C29.4726 2.63355 29.5057 2.5355 29.5057 2.43617L29.5044 0.49416C29.5375 0.230557 29.3072 0 29.0436 0Z" fill="white"/>
<path d="M3.4248 2.50293H25.5866V2.99702H3.4248V2.50293Z" fill="white"/>
<path d="M13.7646 17.9463H15.6748V18.4404H13.7646V17.9463Z" fill="white"/>
</svg>
