<svg width="29" height="30" viewBox="0 0 29 30" fill="none" xmlns="http://www.w3.org/2000/svg">
<path d="M23.6249 6.01717C24.0694 6.46823 24.7916 6.46823 25.2339 6.01717C25.4494 5.79841 25.5628 5.50972 25.5628 5.203C25.5628 4.89628 25.4428 4.6076 25.2339 4.38883C22.4871 1.60125 18.6692 0 14.767 0C14.6136 0 14.4536 2.40892e-07 14.3003 0.00676591C10.1691 0.139828 6.38684 1.95309 3.65563 5.10387C-1.15778 10.6585 -1.22462 19.087 3.49562 24.7114C6.31791 28.0718 10.431 30 14.776 30C18.7295 30 22.4449 28.4416 25.2387 25.6112C26.8209 24.0054 27.9987 22.1177 28.7321 20.0113C29.2321 18.5679 29.0277 17.0253 28.1565 15.7803C27.2965 14.5512 25.9542 13.8453 24.4697 13.8453H15.4474C14.8096 13.8453 14.2696 14.3008 14.2185 14.8849C14.1896 15.2142 14.2918 15.5322 14.5096 15.7803C14.7251 16.0238 15.034 16.1614 15.3518 16.1614H24.5231C25.2453 16.1614 25.9053 16.502 26.3275 17.1019C26.7431 17.6973 26.8564 18.4641 26.6186 19.1565C25.9986 20.981 24.9964 22.6093 23.6386 23.9894C21.2785 26.3845 18.1363 27.7016 14.7869 27.7016C11.4357 27.7016 8.29571 26.38 5.93523 23.9894C1.05499 19.0367 1.05499 10.9763 5.93523 6.02831C10.8155 1.08036 18.7579 1.07555 23.6334 6.02831L23.6249 6.01717Z" fill="white"/>
</svg>
