<svg width="31" height="31" viewBox="0 0 31 31" fill="none" xmlns="http://www.w3.org/2000/svg">
<path d="M21.18 11.5373C21.313 11.7595 21.5958 11.8251 21.8066 11.6906L27.3337 8.18572C27.4366 8.12051 27.51 8.01593 27.538 7.89496C27.5659 7.774 27.546 7.64658 27.4826 7.54072C27.4513 7.4883 27.4102 7.44276 27.3617 7.40669C27.3133 7.37062 27.2584 7.34473 27.2002 7.33049C27.0827 7.30175 26.9589 7.32223 26.8561 7.38744L21.3289 10.8923C21.278 10.9246 21.2338 10.9669 21.1987 11.0167C21.1637 11.0666 21.1385 11.1231 21.1247 11.183C21.1109 11.2429 21.1087 11.305 21.1182 11.3658C21.1276 11.4266 21.1487 11.4849 21.18 11.5373ZM20.1719 9.28588C20.2419 9.28606 20.311 9.26957 20.3738 9.23769C20.4366 9.20581 20.4914 9.15942 20.5339 9.10213L23.1836 5.53869C23.5429 5.05213 22.8257 4.48213 22.4605 4.96869L19.8108 8.53213C19.5772 8.82556 19.8085 9.29759 20.1719 9.28588ZM27.7276 12.7368L22.9004 13.4727C22.3093 13.574 22.4414 14.481 23.0338 14.4004L27.861 13.6645C28.4494 13.5646 28.3232 12.6581 27.7276 12.7368ZM21.4341 16.1826L16.5349 7.23228C16.2503 6.67634 15.5077 6.46119 14.9849 6.78416L14.5359 7.04338C13.8738 7.43525 13.8105 8.28041 14.2418 8.88697C12.4229 11.4835 10.1692 13.7258 7.58627 15.5085L4.12373 17.5176C2.84646 18.2231 2.36059 20.0137 3.09872 21.2981L3.66064 22.3242C4.34731 23.6385 6.08086 24.1392 7.33263 23.3793L8.79615 22.5304L10.1071 24.9252C10.1359 24.9799 10.175 25.0282 10.2221 25.0672C10.2692 25.1062 10.3234 25.1351 10.3814 25.1523C10.4395 25.1696 10.5003 25.1747 10.5604 25.1675C10.6204 25.1602 10.6784 25.1408 10.7311 25.1102C10.7837 25.0797 10.8299 25.0387 10.867 24.9895C10.9041 24.9404 10.9313 24.8842 10.9471 24.8241C10.9628 24.764 10.9668 24.7013 10.9588 24.6397C10.9508 24.578 10.9309 24.5186 10.9004 24.4649L9.58939 22.0701C10.7601 21.3313 12.1462 20.7224 13.4376 20.2813C12.888 23.6456 15.5286 26.8068 18.84 26.7759C24.5451 26.7051 26.3679 18.9642 21.4337 16.1821L21.4341 16.1826ZM14.9845 7.85947C15.2531 7.73384 15.5669 7.39728 15.7403 7.69025L20.1063 15.666C19.716 15.5695 19.3165 15.5178 18.9151 15.5118C17.6533 13.214 16.4653 11.0292 15.1689 8.67088C15.0473 8.39338 14.6985 8.04181 14.9845 7.85947ZM6.88593 22.5627C6.06037 23.0657 4.90786 22.7343 4.45432 21.8638C4.0823 21.1692 3.43478 20.2813 3.72803 19.4409C3.79055 19.2082 3.89728 18.9905 4.04203 18.8006C4.18679 18.6106 4.36669 18.4521 4.57135 18.3342L7.66823 16.5374L9.98327 20.766L6.88593 22.5627ZM10.7956 20.3409L8.44234 16.042C10.8544 14.3204 12.9791 12.2073 14.7336 9.78509L17.9119 15.5952C15.9671 15.9398 14.3734 17.3413 13.7076 19.2051C12.7168 19.5261 11.7442 19.9053 10.7956 20.3409ZM18.8404 25.8388C16.325 25.8388 14.2777 23.7318 14.2777 21.142C14.5286 14.9113 23.1531 14.9132 23.4026 21.142C23.4026 23.7318 21.3558 25.8384 18.84 25.8384L18.8404 25.8388Z" fill="white"/>
<path d="M19.9495 19.6744C19.9595 20.2904 20.8502 20.2904 20.8602 19.6744C20.8602 18.758 20.19 17.9916 19.2956 17.7929C19.3398 17.1001 18.3407 17.1005 18.3849 17.7929C17.4906 17.9921 16.8203 18.758 16.8203 19.6744C16.8271 20.9776 17.6814 21.2237 18.3849 21.4735V23.5163C18.0006 23.3593 17.731 23.0124 17.731 22.6083C17.721 21.9924 16.8303 21.9919 16.8203 22.6083C16.8203 23.5247 17.4906 24.2912 18.3849 24.4899C18.3407 25.1827 19.3398 25.1822 19.2956 24.4899C20.19 24.2907 20.8602 23.5247 20.8602 22.6083C20.8589 21.3352 19.9208 21.0216 19.2956 20.8083V18.7665C19.68 18.9235 19.9495 19.2704 19.9495 19.6744ZM17.7315 19.6744C17.7315 19.2704 18.0006 18.9235 18.3854 18.7665V20.4812C17.8849 20.2974 17.7315 20.1676 17.7315 19.6744ZM19.9495 22.6083C19.9495 23.0124 19.6804 23.3593 19.2956 23.5163V21.8021C19.7628 21.9826 19.9495 22.1513 19.9495 22.6083Z" fill="white"/>
</svg>
