<svg width="33" height="31" viewBox="0 0 33 31" fill="none" xmlns="http://www.w3.org/2000/svg">
<path d="M29.8237 27.8227H28.6721V10.658C28.6715 10.3553 28.5446 10.0651 28.3192 9.85113C28.0938 9.63715 27.7883 9.51685 27.4696 9.5166H25.0301C24.7116 9.5171 24.4063 9.63751 24.1811 9.85146C23.9559 10.0654 23.8292 10.3554 23.8286 10.658V27.8227H22.1727V18.8086C22.1723 18.506 22.0456 18.2158 21.8204 18.0018C21.5952 17.7877 21.2898 17.6673 20.9712 17.6668H18.5308C18.2121 17.6673 17.9067 17.7878 17.6814 18.0019C17.4562 18.2161 17.3296 18.5064 17.3293 18.8091V27.8232H15.6734V15.5133C15.673 15.2107 15.5463 14.9205 15.3211 14.7065C15.0958 14.4924 14.7905 14.3719 14.4719 14.3714H12.0309C11.7123 14.3719 11.4068 14.4925 11.1816 14.7066C10.9564 14.9208 10.8297 15.2111 10.8295 15.5138V27.8227H9.17403V22.425C9.17377 22.1223 9.04714 21.832 8.8219 21.6179C8.59666 21.4037 8.29122 21.2832 7.97255 21.2827H5.53259C5.21375 21.2829 4.90805 21.4034 4.6826 21.6176C4.45715 21.8317 4.33038 22.1221 4.33012 22.425V27.8227H3.17897C3.0481 27.8227 2.9226 27.8721 2.83007 27.96C2.73753 28.0479 2.68555 28.1671 2.68555 28.2914C2.68555 28.4158 2.73753 28.535 2.83007 28.6229C2.9226 28.7108 3.0481 28.7602 3.17897 28.7602C6.86482 28.7611 28.7658 28.7621 29.8237 28.7602C29.9546 28.7602 30.0801 28.7108 30.1726 28.6229C30.2651 28.535 30.3171 28.4158 30.3171 28.2914C30.3171 28.1671 30.2651 28.0479 30.1726 27.96C30.0801 27.8721 29.9546 27.8227 29.8237 27.8227ZM5.31745 27.8227V22.425C5.31758 22.3707 5.34034 22.3187 5.38075 22.2803C5.42116 22.2419 5.47593 22.2203 5.53308 22.2202H7.97255C8.02957 22.2204 8.08416 22.2421 8.12439 22.2805C8.16461 22.3189 8.18719 22.3709 8.18719 22.425V27.8227H5.31745ZM11.8168 27.8227V15.5143C11.8168 15.4601 11.8394 15.4081 11.8796 15.3697C11.9198 15.3314 11.9744 15.3097 12.0314 15.3094H14.4719C14.5289 15.3097 14.5835 15.3314 14.6237 15.3697C14.664 15.4081 14.6865 15.4601 14.6865 15.5143V27.8227H11.8168ZM18.3161 27.8227V18.8086C18.3163 18.7545 18.3389 18.7027 18.3791 18.6644C18.4193 18.6261 18.4738 18.6045 18.5308 18.6043H20.9712C21.0283 18.6045 21.0828 18.6262 21.1231 18.6646C21.1633 18.703 21.1859 18.7549 21.1859 18.8091V27.8232L18.3161 27.8227ZM24.8155 27.8227V10.658C24.8156 10.604 24.8383 10.5522 24.8785 10.514C24.9187 10.4757 24.9732 10.4542 25.0301 10.4541H27.4701C27.527 10.4542 27.5816 10.4757 27.6219 10.5139C27.6622 10.5521 27.685 10.6039 27.6852 10.658V27.8227H24.8155Z" fill="white"/>
<path d="M6.69194 14.5692C7.00942 14.5673 7.32112 14.4883 7.59751 14.3399C7.87391 14.1915 8.10585 13.9786 8.27138 13.7212C8.43691 13.4638 8.53054 13.1705 8.5434 12.8692C8.55627 12.5678 8.48795 12.2683 8.3449 11.9991L12.1975 8.66625C12.5709 8.88986 13.0159 8.97989 13.4528 8.92019C13.8896 8.8605 14.2899 8.65498 14.5817 8.34047L17.862 9.86812C17.8066 10.1436 17.8211 10.4276 17.9042 10.6967C17.9874 10.9658 18.1367 11.2123 18.34 11.4156C18.5433 11.619 18.7946 11.7735 19.0732 11.8662C19.3518 11.959 19.6497 11.9874 19.9421 11.9491C20.2346 11.9108 20.5132 11.8069 20.755 11.646C20.9968 11.4851 21.1947 11.2718 21.3325 11.0238C21.4703 10.7757 21.5439 10.5001 21.5473 10.2197C21.5507 9.93922 21.4837 9.66206 21.352 9.41109L25.3043 6.05718C25.6828 6.29058 26.1376 6.38562 26.5843 6.32467C27.0309 6.26371 27.4392 6.0509 27.7332 5.72572C28.0273 5.40054 28.1872 4.98506 28.1833 4.55638C28.1794 4.1277 28.0119 3.71492 27.712 3.39463C27.412 3.07433 27 2.86827 26.5522 2.81468C26.1045 2.76108 25.6515 2.86359 25.2773 3.10319C24.9031 3.34278 24.6331 3.7032 24.5174 4.11756C24.4017 4.53191 24.4481 4.97209 24.648 5.3564L20.6967 8.71031C20.323 8.48312 19.8761 8.39034 19.4368 8.4487C18.9974 8.50707 18.5944 8.71274 18.3007 9.02859L15.0194 7.50047C15.0749 7.22439 15.0602 6.93972 14.9766 6.67011C14.893 6.4005 14.7429 6.15374 14.5387 5.95033C14.3345 5.74693 14.0822 5.59275 13.8027 5.50061C13.5232 5.40847 13.2246 5.38103 12.9316 5.42056C12.6387 5.4601 12.36 5.56548 12.1185 5.72794C11.8771 5.8904 11.68 6.10525 11.5435 6.35463C11.4071 6.60402 11.3352 6.88074 11.334 7.1618C11.3327 7.44286 11.4021 7.72015 11.5364 7.97062L7.68175 11.3053C7.43756 11.1591 7.16092 11.0688 6.8737 11.0417C6.58648 11.0145 6.29654 11.0512 6.0268 11.1488C5.75706 11.2464 5.51492 11.4023 5.31951 11.6041C5.12409 11.8059 4.98077 12.0481 4.90086 12.3116C4.82096 12.5751 4.80666 12.8526 4.85909 13.1223C4.91153 13.3919 5.02927 13.6463 5.203 13.8653C5.37673 14.0843 5.60169 14.2619 5.8601 14.384C6.11852 14.5062 6.4033 14.5696 6.69194 14.5692ZM26.3099 3.73828C26.5387 3.74344 26.7564 3.83344 26.9164 3.98904C27.0763 4.14465 27.1659 4.35352 27.1659 4.57101C27.1659 4.78851 27.0763 4.99738 26.9164 5.15298C26.7564 5.30859 26.5387 5.39859 26.3099 5.40375C26.081 5.39859 25.8633 5.30859 25.7034 5.15298C25.5434 4.99738 25.4539 4.78851 25.4539 4.57101C25.4539 4.35352 25.5434 4.14465 25.7034 3.98904C25.8633 3.83344 26.081 3.74344 26.3099 3.73828ZM19.6911 9.36328C19.92 9.36844 20.1377 9.45844 20.2976 9.61404C20.4576 9.76965 20.5471 9.97852 20.5471 10.196C20.5471 10.4135 20.4576 10.6224 20.2976 10.778C20.1377 10.9336 19.92 11.0236 19.6911 11.0287C19.4622 11.0236 19.2446 10.9336 19.0846 10.778C18.9247 10.6224 18.8351 10.4135 18.8351 10.196C18.8351 9.97852 18.9247 9.76965 19.0846 9.61404C19.2446 9.45844 19.4622 9.36844 19.6911 9.36328ZM13.1918 6.34125C13.4207 6.34641 13.6383 6.43641 13.7983 6.59201C13.9582 6.74762 14.0478 6.95649 14.0478 7.17398C14.0478 7.39148 13.9582 7.60035 13.7983 7.75595C13.6383 7.91156 13.4207 8.00156 13.1918 8.00672C12.9629 8.00156 12.7452 7.91156 12.5853 7.75595C12.4253 7.60035 12.3358 7.39148 12.3358 7.17398C12.3358 6.95649 12.4253 6.74762 12.5853 6.59201C12.7452 6.43641 12.9629 6.34641 13.1918 6.34125ZM6.69244 11.9662C6.92131 11.9714 7.13899 12.0614 7.29895 12.217C7.4589 12.3726 7.54845 12.5815 7.54845 12.799C7.54845 13.0165 7.4589 13.2253 7.29895 13.381C7.13899 13.5366 6.92131 13.6266 6.69244 13.6317C6.46356 13.6266 6.24588 13.5366 6.08593 13.381C5.92597 13.2253 5.83643 13.0165 5.83643 12.799C5.83643 12.5815 5.92597 12.3726 6.08593 12.217C6.24588 12.0614 6.46356 11.9714 6.69244 11.9662Z" fill="white"/>
</svg>
