<svg width="34" height="28" viewBox="0 0 34 28" fill="none" xmlns="http://www.w3.org/2000/svg">
<path d="M0.503911 23.3903H17.6843C19.1473 26.1321 22.0252 28 25.3278 28C30.1087 28 34 24.0874 34 19.2757C34 14.466 30.1108 10.5533 25.3278 10.5533C22.7626 10.5533 20.4561 11.6795 18.8677 13.4659C17.5726 12.4756 16.0864 11.7728 14.5172 11.3902C16.4377 10.3825 17.754 8.36107 17.754 6.03511C17.754 2.70698 15.0634 0 11.755 0C8.44672 0 5.75591 2.70872 5.75591 6.03511C5.75591 8.35938 7.06838 10.3788 8.98698 11.3867C3.83534 12.643 1.22717e-05 17.3189 1.22717e-05 22.8818C-0.00191774 23.1634 0.224054 23.3903 0.503911 23.3903ZM25.3273 11.5692C29.5524 11.5692 32.99 15.0274 32.99 19.2779C32.99 23.5285 29.5525 26.9867 25.3273 26.9867C21.1022 26.9867 17.6645 23.5285 17.6645 19.2779C17.6665 15.0255 21.104 11.5692 25.3273 11.5692ZM6.76337 6.03511C6.76337 3.26813 9.0023 1.01554 11.7529 1.01554C14.5034 1.01554 16.7425 3.26794 16.7425 6.03511C16.7425 8.80228 14.5036 11.0547 11.7529 11.0547C9.0025 11.0566 6.76337 8.80422 6.76337 6.03511ZM11.7549 12.0722C14.0962 12.0722 16.3815 12.847 18.2402 14.2625C17.2442 15.6819 16.6575 17.4119 16.6575 19.278C16.6575 20.3693 16.8602 21.412 17.2249 22.3751H1.01942C1.28385 16.6487 5.99699 12.0722 11.7549 12.0722ZM21.8863 17.4333C21.8863 16.2041 22.8803 15.2061 24.1002 15.2061H24.878V13.8527C24.878 13.5731 25.1038 13.3459 25.3817 13.3459C25.6597 13.3459 25.8855 13.5731 25.8855 13.8527V15.2061H28.0164C28.2943 15.2061 28.5201 15.4333 28.5201 15.7129C28.5201 15.9924 28.2943 16.2196 28.0164 16.2196H24.0982C23.4342 16.2196 22.8938 16.7633 22.8938 17.4313C22.8938 18.0992 23.4342 18.6429 24.0982 18.6429H26.6633C27.8851 18.6429 28.8772 19.6429 28.8772 20.8701C28.8772 22.0993 27.8832 23.0973 26.6633 23.0973L25.8874 23.0992V24.4527C25.8874 24.7323 25.6616 24.9594 25.3837 24.9594C25.1057 24.9594 24.8799 24.7323 24.8799 24.4527V23.0992H22.749C22.4711 23.0992 22.2453 22.8721 22.2453 22.5925C22.2453 22.3129 22.4711 22.0857 22.749 22.0857H26.6672C27.3312 22.0857 27.8716 21.542 27.8716 20.874C27.8716 20.2061 27.3312 19.6624 26.6672 19.6624H24.1021C22.8784 19.6605 21.8863 18.6605 21.8863 17.4333Z" fill="white"/>
</svg>
