<svg width="45" height="45" viewBox="0 0 45 45" fill="none" xmlns="http://www.w3.org/2000/svg">
<path fill-rule="evenodd" clip-rule="evenodd" d="M13.3582 7.73438C11.1897 7.73438 9.1788 8.685 7.55247 9.84516C5.18505 11.5348 3.64872 13.6491 3.64872 13.6491C3.56127 13.7692 3.51416 13.9139 3.51416 14.0625C3.51416 14.2111 3.56127 14.3558 3.64872 14.4759C3.64872 14.4759 5.18505 16.5902 7.55247 18.2798C9.1788 19.44 11.1897 20.3906 13.3582 20.3906C15.5266 20.3906 17.5375 19.44 19.1632 18.2798C21.5306 16.5902 23.0676 14.4759 23.0676 14.4759C23.1551 14.3558 23.2022 14.2111 23.2022 14.0625C23.2022 13.9139 23.1551 13.7692 23.0676 13.6491C23.0676 13.6491 21.5306 11.5348 19.1632 9.84516C17.5375 8.685 15.5266 7.73438 13.3582 7.73438ZM21.6037 14.0625C21.0679 13.4093 19.9022 12.1008 18.3468 10.9898C16.9455 9.99 15.2257 9.14062 13.3582 9.14062C11.4907 9.14062 9.77013 9.99 8.3695 10.9898C6.81349 12.1008 5.64841 13.4093 5.11192 14.0625C5.64841 14.7157 6.81419 16.0242 8.3695 17.1352C9.77013 18.135 11.4893 18.9844 13.3582 18.9844C15.2271 18.9844 16.9462 18.135 18.3468 17.1352C19.9015 16.0242 21.0679 14.7157 21.6037 14.0625Z" fill="black"/>
<path fill-rule="evenodd" clip-rule="evenodd" d="M13.3594 10.5469C11.4188 10.5469 9.84375 12.1219 9.84375 14.0625C9.84375 16.0031 11.4188 17.5781 13.3594 17.5781C15.3 17.5781 16.875 16.0031 16.875 14.0625C16.875 12.1219 15.3 10.5469 13.3594 10.5469ZM13.3594 11.9531C14.523 11.9531 15.4688 12.8981 15.4688 14.0625C15.4688 15.2269 14.523 16.1719 13.3594 16.1719C12.1957 16.1719 11.25 15.2262 11.25 14.0625C11.25 12.8988 12.195 11.9531 13.3594 11.9531Z" fill="black"/>
<path fill-rule="evenodd" clip-rule="evenodd" d="M40.0781 16.1718V12.6555C40.0781 12.469 40.004 12.2902 39.8722 12.1583C39.7403 12.0265 39.5615 11.9524 39.375 11.9524H23.9062C23.7198 11.9524 23.5409 11.8783 23.4091 11.7465C23.2772 11.6146 23.2031 11.4357 23.2031 11.2493C23.2031 11.0628 23.2772 10.8839 23.4091 10.7521C23.5409 10.6202 23.7198 10.5461 23.9062 10.5461H39.375C39.9344 10.5461 40.471 10.7684 40.8666 11.164C41.2621 11.5595 41.4844 12.0961 41.4844 12.6555V35.1562C41.4844 35.7157 41.2621 36.2522 40.8666 36.6478C40.471 37.0434 39.9344 37.2656 39.375 37.2656H11.25C10.6906 37.2656 10.154 37.0434 9.75845 36.6478C9.36286 36.2522 9.14062 35.7157 9.14062 35.1562V21.7968C9.14062 21.6104 9.2147 21.4315 9.34657 21.2997C9.47843 21.1678 9.65727 21.0937 9.84375 21.0937C10.0302 21.0937 10.2091 21.1678 10.3409 21.2997C10.4728 21.4315 10.5469 21.6104 10.5469 21.7968V35.1562C10.5469 35.3427 10.621 35.5215 10.7528 35.6534C10.8847 35.7853 11.0635 35.8593 11.25 35.8593H39.375C39.5615 35.8593 39.7403 35.7853 39.8722 35.6534C40.004 35.5215 40.0781 35.3427 40.0781 35.1562V17.5781H23.9062C23.7198 17.5781 23.5409 17.504 23.4091 17.3722C23.2772 17.2403 23.2031 17.0615 23.2031 16.875C23.2031 16.6885 23.2772 16.5096 23.4091 16.3778C23.5409 16.2459 23.7198 16.1718 23.9062 16.1718H40.0781Z" fill="black"/>
<path fill-rule="evenodd" clip-rule="evenodd" d="M28.125 33.75C28.3115 33.75 28.4903 33.6759 28.6222 33.5441C28.754 33.4122 28.8281 33.2334 28.8281 33.0469V27.4219C28.8281 27.2354 28.754 27.0566 28.6222 26.9247C28.4903 26.7928 28.3115 26.7188 28.125 26.7188H22.5C22.3135 26.7188 22.1347 26.7928 22.0028 26.9247C21.871 27.0566 21.7969 27.2354 21.7969 27.4219V33.0469C21.7969 33.2334 21.871 33.4122 22.0028 33.5441C22.1347 33.6759 22.3135 33.75 22.5 33.75H28.125ZM23.2031 28.125V32.3438H27.4219V28.125H23.2031ZM36.5625 33.75C36.749 33.75 36.9278 33.6759 37.0597 33.5441C37.1915 33.4122 37.2656 33.2334 37.2656 33.0469V23.2031C37.2656 23.0166 37.1915 22.8378 37.0597 22.7059C36.9278 22.5741 36.749 22.5 36.5625 22.5H30.9375C30.751 22.5 30.5722 22.5741 30.4403 22.7059C30.3085 22.8378 30.2344 23.0166 30.2344 23.2031V33.0469C30.2344 33.2334 30.3085 33.4122 30.4403 33.5441C30.5722 33.6759 30.751 33.75 30.9375 33.75H36.5625ZM31.6406 23.9062V32.3438H35.8594V23.9062H31.6406ZM19.6875 33.75C19.874 33.75 20.0528 33.6759 20.1847 33.5441C20.3165 33.4122 20.3906 33.2334 20.3906 33.0469V30.2344C20.3906 30.0479 20.3165 29.8691 20.1847 29.7372C20.0528 29.6053 19.874 29.5312 19.6875 29.5312H14.0625C13.876 29.5312 13.6972 29.6053 13.5653 29.7372C13.4335 29.8691 13.3594 30.0479 13.3594 30.2344V33.0469C13.3594 33.2334 13.4335 33.4122 13.5653 33.5441C13.6972 33.6759 13.876 33.75 14.0625 33.75H19.6875ZM14.7656 30.9375V32.3438H18.9844V30.9375H14.7656Z" fill="black"/>
<path fill-rule="evenodd" clip-rule="evenodd" d="M38.6719 14.0625C38.6719 14.249 38.5978 14.4278 38.4659 14.5597C38.3341 14.6915 38.1552 14.7656 37.9688 14.7656C37.7823 14.7656 37.6034 14.6915 37.4716 14.5597C37.3397 14.4278 37.2656 14.249 37.2656 14.0625C37.2656 13.876 37.3397 13.6972 37.4716 13.5653C37.6034 13.4335 37.7823 13.3594 37.9688 13.3594C38.1552 13.3594 38.3341 13.4335 38.4659 13.5653C38.5978 13.6972 38.6719 13.876 38.6719 14.0625ZM35.8594 14.0625C35.8594 14.249 35.7853 14.4278 35.6534 14.5597C35.5216 14.6915 35.3427 14.7656 35.1562 14.7656C34.9698 14.7656 34.7909 14.6915 34.6591 14.5597C34.5272 14.4278 34.4531 14.249 34.4531 14.0625C34.4531 13.876 34.5272 13.6972 34.6591 13.5653C34.7909 13.4335 34.9698 13.3594 35.1562 13.3594C35.3427 13.3594 35.5216 13.4335 35.6534 13.5653C35.7853 13.6972 35.8594 13.876 35.8594 14.0625ZM33.0469 14.0625C33.0469 14.249 32.9728 14.4278 32.8409 14.5597C32.7091 14.6915 32.5302 14.7656 32.3438 14.7656C32.1573 14.7656 31.9784 14.6915 31.8466 14.5597C31.7147 14.4278 31.6406 14.249 31.6406 14.0625C31.6406 13.876 31.7147 13.6972 31.8466 13.5653C31.9784 13.4335 32.1573 13.3594 32.3438 13.3594C32.5302 13.3594 32.7091 13.4335 32.8409 13.5653C32.9728 13.6972 33.0469 13.876 33.0469 14.0625ZM30.2344 20.3906C30.2344 20.2041 30.3085 20.0253 30.4403 19.8934C30.5722 19.7616 30.751 19.6875 30.9375 19.6875C31.124 19.6875 31.3028 19.7616 31.4347 19.8934C31.5665 20.0253 31.6406 20.2041 31.6406 20.3906C31.6406 20.5771 31.5665 20.7559 31.4347 20.8878C31.3028 21.0197 31.124 21.0938 30.9375 21.0938C30.751 21.0938 30.5722 21.0197 30.4403 20.8878C30.3085 20.7559 30.2344 20.5771 30.2344 20.3906Z" fill="black"/>
<path fill-rule="evenodd" clip-rule="evenodd" d="M36.5625 19.6882H33.75C33.5635 19.6882 33.3847 19.7623 33.2528 19.8942C33.121 20.026 33.0469 20.2049 33.0469 20.3914C33.0469 20.5778 33.121 20.7567 33.2528 20.8885C33.3847 21.0204 33.5635 21.0945 33.75 21.0945H36.5625C36.749 21.0945 36.9278 21.0204 37.0597 20.8885C37.1915 20.7567 37.2656 20.5778 37.2656 20.3914C37.2656 20.2049 37.1915 20.026 37.0597 19.8942C36.9278 19.7623 36.749 19.6882 36.5625 19.6882Z" fill="black"/>
</svg>
