<svg width="30" height="30" viewBox="0 0 30 30" fill="none" xmlns="http://www.w3.org/2000/svg">
<path d="M25.5001 0.000976562H4.49989C2.01861 0.000976562 0 2.01975 0 4.50086V25.5011C0 27.9824 2.01877 30.001 4.49989 30.001H25.5001C27.9814 30.001 30 27.9822 30 25.5011V4.50086C30 2.01959 27.9812 0.000976562 25.5001 0.000976562ZM29.0003 25.5014C29.0003 27.4314 27.4303 29.0016 25.5001 29.0016H4.49989C2.56988 29.0016 0.999691 27.4316 0.999691 25.5014V4.50118C0.999691 2.57118 2.56969 1.00099 4.49989 1.00099H25.5001C27.4301 1.00099 29.0003 2.57099 29.0003 4.50118V25.5014ZM15.0002 6.00104C10.0375 6.00104 6.00006 10.0385 6.00006 15.0011C6.00006 19.9638 10.0375 24.0012 15.0002 24.0012C19.9628 24.0012 24.0003 19.9638 24.0003 15.0011C24.0003 10.0385 19.9628 6.00104 15.0002 6.00104ZM15.0002 23.0012C10.5889 23.0012 7.00007 19.4124 7.00007 15.0011C7.00007 10.5899 10.5889 7.00105 15.0002 7.00105C19.4114 7.00105 23.0002 10.5899 23.0002 15.0011C23.0002 19.4124 19.4114 23.0012 15.0002 23.0012ZM25.5001 5.50088C25.5001 6.05215 25.0514 6.50089 24.5001 6.50089C23.9488 6.50089 23.5001 6.05215 23.5001 5.50088C23.5001 4.94961 23.9488 4.50086 24.5001 4.50086C25.0514 4.50086 25.5001 4.94961 25.5001 5.50088Z" fill="white"/>
</svg>
