<svg width="42" height="30" viewBox="0 0 42 30" fill="none" xmlns="http://www.w3.org/2000/svg">
<path d="M20.8229 30C16.7021 30 12.839 28.8763 9.34154 26.6601C6.0779 24.5919 3.21073 21.6258 0.819318 17.8439C-0.273106 16.1167 -0.273106 13.8838 0.819318 12.1566C3.21073 8.37475 6.0779 5.40859 9.34154 3.3404C12.839 1.12374 16.7021 0 20.8229 0C24.9633 0 28.8425 1.13434 32.3532 3.37121C35.6279 5.45808 38.5011 8.44949 40.8936 12.2626C41.9133 13.8879 41.9683 15.9444 41.037 17.6293C39.5542 20.3121 38.1274 22.4692 35.984 24.2742L34.3572 22.3429C36.2102 20.7818 37.441 18.9146 38.8269 16.4076C39.3143 15.5263 39.2865 14.452 38.7547 13.6045C35.584 8.5505 29.8991 2.52525 20.8229 2.52525C11.792 2.52525 6.12083 8.49646 2.95366 13.5061C2.37992 14.4136 2.37992 15.5869 2.95366 16.4944C6.12083 21.5035 11.792 27.4747 20.8229 27.4747C24.6713 27.4747 28.3431 26.3934 31.736 24.2606L33.0799 26.3985C31.233 27.5596 29.2703 28.4545 27.2461 29.0596C25.1577 29.6833 22.9966 30 20.8229 30Z" fill="white"/>
<path d="M20.8229 24.3434C15.6709 24.3434 11.4795 20.152 11.4795 15C11.4795 9.84797 15.6709 5.65656 20.8229 5.65656C25.9749 5.65656 30.1664 9.84797 30.1664 15C30.1664 20.152 25.9749 24.3434 20.8229 24.3434ZM20.8229 8.18181C17.0633 8.18181 14.0047 11.2404 14.0047 15C14.0047 18.7596 17.0633 21.8182 20.8229 21.8182C24.5825 21.8182 27.6411 18.7596 27.6411 15C27.6411 11.2404 24.5825 8.18181 20.8229 8.18181Z" fill="white"/>
</svg>
