<svg width="47" height="48" viewBox="0 0 47 48" fill="none" xmlns="http://www.w3.org/2000/svg">
<mask id="path-1-outside-1_301_4804" maskUnits="userSpaceOnUse" x="0" y="0" width="47" height="48" fill="black">
<rect fill="white" width="47" height="48"/>
<path d="M23.6532 1.00001C23.4471 1.00082 23.2496 1.08367 23.1038 1.23052C22.9581 1.37736 22.8758 1.5763 22.875 1.78397V4.67233C12.9953 5.07426 5.04397 13.0841 4.64533 23.037H1.77973C1.57332 23.0374 1.37546 23.1201 1.22936 23.267C1.08327 23.4139 1.00081 23.6131 1.00001 23.821C0.999605 23.9245 1.01947 24.027 1.05845 24.1228C1.09744 24.2185 1.15478 24.3056 1.22721 24.379C1.29963 24.4524 1.38571 24.5106 1.48052 24.5505C1.57533 24.5903 1.677 24.6109 1.77973 24.6111H4.64533C5.0473 34.561 12.9975 42.5678 22.875 42.9697V45.858C22.8746 45.9614 22.8944 46.0638 22.9333 46.1595C22.9722 46.2551 23.0294 46.3421 23.1017 46.4155C23.1739 46.4888 23.2598 46.5471 23.3545 46.5871C23.4491 46.627 23.5506 46.6478 23.6532 46.6482C23.7563 46.6486 23.8585 46.6284 23.9538 46.5888C24.0492 46.5493 24.1358 46.4911 24.2087 46.4176C24.2816 46.3442 24.3394 46.2569 24.3786 46.1609C24.4179 46.0648 24.4379 45.9619 24.4375 45.858V42.9697C34.3125 42.5651 42.2607 34.5591 42.6626 24.6111H45.5343C45.6369 24.6107 45.7384 24.59 45.833 24.55C45.9277 24.5101 46.0136 24.4518 46.0858 24.3784C46.1581 24.3051 46.2153 24.2181 46.2542 24.1224C46.2931 24.0268 46.3129 23.9244 46.3125 23.821C46.3117 23.6133 46.2295 23.4144 46.0837 23.2676C45.9379 23.1207 45.7405 23.0379 45.5343 23.037H42.6626C42.264 13.0859 34.3147 5.077 24.4375 4.67233V1.78397C24.4371 1.68061 24.4165 1.57835 24.3769 1.48302C24.3372 1.38768 24.2794 1.30115 24.2065 1.22835C24.1337 1.15555 24.0473 1.09792 23.9524 1.05874C23.8575 1.01956 23.7558 0.999602 23.6532 1.00001ZM22.875 6.24641V9.09942C22.8746 9.20277 22.8944 9.30519 22.9333 9.40084C22.9722 9.49648 23.0294 9.58347 23.1017 9.65684C23.1739 9.73021 23.2598 9.78852 23.3545 9.82844C23.4491 9.86837 23.5506 9.88912 23.6532 9.88953C23.7563 9.88993 23.8585 9.86977 23.9538 9.83021C24.0492 9.79065 24.1358 9.73246 24.2087 9.65901C24.2816 9.58557 24.3394 9.4983 24.3786 9.40226C24.4179 9.30621 24.4379 9.20329 24.4375 9.09942V6.24641C33.4692 6.64711 40.7097 13.9379 41.1047 23.037H38.2681C38.0617 23.0374 37.8638 23.1201 37.7177 23.267C37.5716 23.4139 37.4892 23.6131 37.4883 23.821C37.4879 23.9245 37.5078 24.027 37.5468 24.1228C37.5858 24.2185 37.6431 24.3056 37.7155 24.379C37.788 24.4524 37.8741 24.5106 37.9689 24.5505C38.0637 24.5903 38.1653 24.6109 38.2681 24.6111H41.1047C40.7062 33.7068 33.4668 40.9935 24.4375 41.3941V38.5426C24.4371 38.4392 24.4165 38.337 24.3769 38.2416C24.3372 38.1463 24.2794 38.0598 24.2065 37.987C24.1337 37.9142 24.0473 37.8565 23.9524 37.8174C23.8575 37.7782 23.7558 37.7582 23.6532 37.7586C23.4471 37.7594 23.2496 37.8423 23.1038 37.9891C22.9581 38.136 22.8758 38.3349 22.875 38.5426V41.3941C13.8439 40.9957 6.60765 33.7084 6.20936 24.6111H9.03986C9.14297 24.6115 9.24514 24.5914 9.34048 24.5518C9.43582 24.5122 9.52244 24.4541 9.59535 24.3806C9.66826 24.3072 9.72601 24.2199 9.76528 24.1238C9.80456 24.0278 9.82457 23.9249 9.82416 23.821C9.82376 23.7176 9.80316 23.6154 9.76353 23.5201C9.7239 23.4247 9.66601 23.3382 9.59318 23.2654C9.52036 23.1926 9.43401 23.135 9.33907 23.0958C9.24413 23.0566 9.14246 23.0366 9.03986 23.037H6.20936C6.60411 13.9364 13.8415 6.64486 22.875 6.24641ZM23.6532 11.9217C17.1391 11.9217 11.8429 17.2586 11.8429 23.821C11.8429 27.2347 13.2766 30.3161 15.5691 32.4876C15.5804 32.4993 15.5921 32.5105 15.6042 32.5215C17.7149 34.5046 20.5451 35.7188 23.6532 35.7188C26.7388 35.7188 29.5523 34.5223 31.6595 32.5645C31.7084 32.5283 31.7529 32.4865 31.7922 32.44C34.0565 30.2712 35.4711 27.2094 35.4711 23.821C35.4711 17.2586 30.1673 11.9217 23.6532 11.9217ZM23.6532 13.4973C29.3229 13.4973 33.9071 18.1093 33.9071 23.821C33.9071 26.2461 33.0811 28.4746 31.6961 30.2357C30.9957 27.6799 29.1274 25.6156 26.7065 24.6572C28.0241 23.7 28.8839 22.1414 28.8839 20.3869C28.8839 17.487 26.5318 15.1175 23.6532 15.1175C20.7746 15.1175 18.4286 17.487 18.4286 20.3869C18.4286 22.141 19.2876 23.6984 20.603 24.6557C18.1825 25.6137 16.3162 27.6792 15.6164 30.2357C14.2323 28.4745 13.4054 26.2464 13.4054 23.821C13.4054 18.1093 17.9835 13.4973 23.6532 13.4973ZM23.6532 16.6916C25.6874 16.6916 27.3214 18.3377 27.3214 20.3869C27.3214 22.4362 25.6874 24.0762 23.6532 24.0762C21.619 24.0762 19.9911 22.4362 19.9911 20.3869C19.9911 18.3377 21.619 16.6916 23.6532 16.6916ZM23.6532 25.6503C27.133 25.6503 29.966 28.2395 30.3823 31.6207C28.5825 33.1973 26.2297 34.1509 23.6532 34.1509C21.0779 34.1509 18.7284 33.1975 16.9302 31.6222C17.3455 28.2403 20.1728 25.6503 23.6532 25.6503Z"/>
</mask>
<path d="M23.6532 1.00001C23.4471 1.00082 23.2496 1.08367 23.1038 1.23052C22.9581 1.37736 22.8758 1.5763 22.875 1.78397V4.67233C12.9953 5.07426 5.04397 13.0841 4.64533 23.037H1.77973C1.57332 23.0374 1.37546 23.1201 1.22936 23.267C1.08327 23.4139 1.00081 23.6131 1.00001 23.821C0.999605 23.9245 1.01947 24.027 1.05845 24.1228C1.09744 24.2185 1.15478 24.3056 1.22721 24.379C1.29963 24.4524 1.38571 24.5106 1.48052 24.5505C1.57533 24.5903 1.677 24.6109 1.77973 24.6111H4.64533C5.0473 34.561 12.9975 42.5678 22.875 42.9697V45.858C22.8746 45.9614 22.8944 46.0638 22.9333 46.1595C22.9722 46.2551 23.0294 46.3421 23.1017 46.4155C23.1739 46.4888 23.2598 46.5471 23.3545 46.5871C23.4491 46.627 23.5506 46.6478 23.6532 46.6482C23.7563 46.6486 23.8585 46.6284 23.9538 46.5888C24.0492 46.5493 24.1358 46.4911 24.2087 46.4176C24.2816 46.3442 24.3394 46.2569 24.3786 46.1609C24.4179 46.0648 24.4379 45.9619 24.4375 45.858V42.9697C34.3125 42.5651 42.2607 34.5591 42.6626 24.6111H45.5343C45.6369 24.6107 45.7384 24.59 45.833 24.55C45.9277 24.5101 46.0136 24.4518 46.0858 24.3784C46.1581 24.3051 46.2153 24.2181 46.2542 24.1224C46.2931 24.0268 46.3129 23.9244 46.3125 23.821C46.3117 23.6133 46.2295 23.4144 46.0837 23.2676C45.9379 23.1207 45.7405 23.0379 45.5343 23.037H42.6626C42.264 13.0859 34.3147 5.077 24.4375 4.67233V1.78397C24.4371 1.68061 24.4165 1.57835 24.3769 1.48302C24.3372 1.38768 24.2794 1.30115 24.2065 1.22835C24.1337 1.15555 24.0473 1.09792 23.9524 1.05874C23.8575 1.01956 23.7558 0.999602 23.6532 1.00001ZM22.875 6.24641V9.09942C22.8746 9.20277 22.8944 9.30519 22.9333 9.40084C22.9722 9.49648 23.0294 9.58347 23.1017 9.65684C23.1739 9.73021 23.2598 9.78852 23.3545 9.82844C23.4491 9.86837 23.5506 9.88912 23.6532 9.88953C23.7563 9.88993 23.8585 9.86977 23.9538 9.83021C24.0492 9.79065 24.1358 9.73246 24.2087 9.65901C24.2816 9.58557 24.3394 9.4983 24.3786 9.40226C24.4179 9.30621 24.4379 9.20329 24.4375 9.09942V6.24641C33.4692 6.64711 40.7097 13.9379 41.1047 23.037H38.2681C38.0617 23.0374 37.8638 23.1201 37.7177 23.267C37.5716 23.4139 37.4892 23.6131 37.4883 23.821C37.4879 23.9245 37.5078 24.027 37.5468 24.1228C37.5858 24.2185 37.6431 24.3056 37.7155 24.379C37.788 24.4524 37.8741 24.5106 37.9689 24.5505C38.0637 24.5903 38.1653 24.6109 38.2681 24.6111H41.1047C40.7062 33.7068 33.4668 40.9935 24.4375 41.3941V38.5426C24.4371 38.4392 24.4165 38.337 24.3769 38.2416C24.3372 38.1463 24.2794 38.0598 24.2065 37.987C24.1337 37.9142 24.0473 37.8565 23.9524 37.8174C23.8575 37.7782 23.7558 37.7582 23.6532 37.7586C23.4471 37.7594 23.2496 37.8423 23.1038 37.9891C22.9581 38.136 22.8758 38.3349 22.875 38.5426V41.3941C13.8439 40.9957 6.60765 33.7084 6.20936 24.6111H9.03986C9.14297 24.6115 9.24514 24.5914 9.34048 24.5518C9.43582 24.5122 9.52244 24.4541 9.59535 24.3806C9.66826 24.3072 9.72601 24.2199 9.76528 24.1238C9.80456 24.0278 9.82457 23.9249 9.82416 23.821C9.82376 23.7176 9.80316 23.6154 9.76353 23.5201C9.7239 23.4247 9.66601 23.3382 9.59318 23.2654C9.52036 23.1926 9.43401 23.135 9.33907 23.0958C9.24413 23.0566 9.14246 23.0366 9.03986 23.037H6.20936C6.60411 13.9364 13.8415 6.64486 22.875 6.24641ZM23.6532 11.9217C17.1391 11.9217 11.8429 17.2586 11.8429 23.821C11.8429 27.2347 13.2766 30.3161 15.5691 32.4876C15.5804 32.4993 15.5921 32.5105 15.6042 32.5215C17.7149 34.5046 20.5451 35.7188 23.6532 35.7188C26.7388 35.7188 29.5523 34.5223 31.6595 32.5645C31.7084 32.5283 31.7529 32.4865 31.7922 32.44C34.0565 30.2712 35.4711 27.2094 35.4711 23.821C35.4711 17.2586 30.1673 11.9217 23.6532 11.9217ZM23.6532 13.4973C29.3229 13.4973 33.9071 18.1093 33.9071 23.821C33.9071 26.2461 33.0811 28.4746 31.6961 30.2357C30.9957 27.6799 29.1274 25.6156 26.7065 24.6572C28.0241 23.7 28.8839 22.1414 28.8839 20.3869C28.8839 17.487 26.5318 15.1175 23.6532 15.1175C20.7746 15.1175 18.4286 17.487 18.4286 20.3869C18.4286 22.141 19.2876 23.6984 20.603 24.6557C18.1825 25.6137 16.3162 27.6792 15.6164 30.2357C14.2323 28.4745 13.4054 26.2464 13.4054 23.821C13.4054 18.1093 17.9835 13.4973 23.6532 13.4973ZM23.6532 16.6916C25.6874 16.6916 27.3214 18.3377 27.3214 20.3869C27.3214 22.4362 25.6874 24.0762 23.6532 24.0762C21.619 24.0762 19.9911 22.4362 19.9911 20.3869C19.9911 18.3377 21.619 16.6916 23.6532 16.6916ZM23.6532 25.6503C27.133 25.6503 29.966 28.2395 30.3823 31.6207C28.5825 33.1973 26.2297 34.1509 23.6532 34.1509C21.0779 34.1509 18.7284 33.1975 16.9302 31.6222C17.3455 28.2403 20.1728 25.6503 23.6532 25.6503Z" fill="black"/>
<path d="M23.6532 1.00001C23.4471 1.00082 23.2496 1.08367 23.1038 1.23052C22.9581 1.37736 22.8758 1.5763 22.875 1.78397V4.67233C12.9953 5.07426 5.04397 13.0841 4.64533 23.037H1.77973C1.57332 23.0374 1.37546 23.1201 1.22936 23.267C1.08327 23.4139 1.00081 23.6131 1.00001 23.821C0.999605 23.9245 1.01947 24.027 1.05845 24.1228C1.09744 24.2185 1.15478 24.3056 1.22721 24.379C1.29963 24.4524 1.38571 24.5106 1.48052 24.5505C1.57533 24.5903 1.677 24.6109 1.77973 24.6111H4.64533C5.0473 34.561 12.9975 42.5678 22.875 42.9697V45.858C22.8746 45.9614 22.8944 46.0638 22.9333 46.1595C22.9722 46.2551 23.0294 46.3421 23.1017 46.4155C23.1739 46.4888 23.2598 46.5471 23.3545 46.5871C23.4491 46.627 23.5506 46.6478 23.6532 46.6482C23.7563 46.6486 23.8585 46.6284 23.9538 46.5888C24.0492 46.5493 24.1358 46.4911 24.2087 46.4176C24.2816 46.3442 24.3394 46.2569 24.3786 46.1609C24.4179 46.0648 24.4379 45.9619 24.4375 45.858V42.9697C34.3125 42.5651 42.2607 34.5591 42.6626 24.6111H45.5343C45.6369 24.6107 45.7384 24.59 45.833 24.55C45.9277 24.5101 46.0136 24.4518 46.0858 24.3784C46.1581 24.3051 46.2153 24.2181 46.2542 24.1224C46.2931 24.0268 46.3129 23.9244 46.3125 23.821C46.3117 23.6133 46.2295 23.4144 46.0837 23.2676C45.9379 23.1207 45.7405 23.0379 45.5343 23.037H42.6626C42.264 13.0859 34.3147 5.077 24.4375 4.67233V1.78397C24.4371 1.68061 24.4165 1.57835 24.3769 1.48302C24.3372 1.38768 24.2794 1.30115 24.2065 1.22835C24.1337 1.15555 24.0473 1.09792 23.9524 1.05874C23.8575 1.01956 23.7558 0.999602 23.6532 1.00001ZM22.875 6.24641V9.09942C22.8746 9.20277 22.8944 9.30519 22.9333 9.40084C22.9722 9.49648 23.0294 9.58347 23.1017 9.65684C23.1739 9.73021 23.2598 9.78852 23.3545 9.82844C23.4491 9.86837 23.5506 9.88912 23.6532 9.88953C23.7563 9.88993 23.8585 9.86977 23.9538 9.83021C24.0492 9.79065 24.1358 9.73246 24.2087 9.65901C24.2816 9.58557 24.3394 9.4983 24.3786 9.40226C24.4179 9.30621 24.4379 9.20329 24.4375 9.09942V6.24641C33.4692 6.64711 40.7097 13.9379 41.1047 23.037H38.2681C38.0617 23.0374 37.8638 23.1201 37.7177 23.267C37.5716 23.4139 37.4892 23.6131 37.4883 23.821C37.4879 23.9245 37.5078 24.027 37.5468 24.1228C37.5858 24.2185 37.6431 24.3056 37.7155 24.379C37.788 24.4524 37.8741 24.5106 37.9689 24.5505C38.0637 24.5903 38.1653 24.6109 38.2681 24.6111H41.1047C40.7062 33.7068 33.4668 40.9935 24.4375 41.3941V38.5426C24.4371 38.4392 24.4165 38.337 24.3769 38.2416C24.3372 38.1463 24.2794 38.0598 24.2065 37.987C24.1337 37.9142 24.0473 37.8565 23.9524 37.8174C23.8575 37.7782 23.7558 37.7582 23.6532 37.7586C23.4471 37.7594 23.2496 37.8423 23.1038 37.9891C22.9581 38.136 22.8758 38.3349 22.875 38.5426V41.3941C13.8439 40.9957 6.60765 33.7084 6.20936 24.6111H9.03986C9.14297 24.6115 9.24514 24.5914 9.34048 24.5518C9.43582 24.5122 9.52244 24.4541 9.59535 24.3806C9.66826 24.3072 9.72601 24.2199 9.76528 24.1238C9.80456 24.0278 9.82457 23.9249 9.82416 23.821C9.82376 23.7176 9.80316 23.6154 9.76353 23.5201C9.7239 23.4247 9.66601 23.3382 9.59318 23.2654C9.52036 23.1926 9.43401 23.135 9.33907 23.0958C9.24413 23.0566 9.14246 23.0366 9.03986 23.037H6.20936C6.60411 13.9364 13.8415 6.64486 22.875 6.24641ZM23.6532 11.9217C17.1391 11.9217 11.8429 17.2586 11.8429 23.821C11.8429 27.2347 13.2766 30.3161 15.5691 32.4876C15.5804 32.4993 15.5921 32.5105 15.6042 32.5215C17.7149 34.5046 20.5451 35.7188 23.6532 35.7188C26.7388 35.7188 29.5523 34.5223 31.6595 32.5645C31.7084 32.5283 31.7529 32.4865 31.7922 32.44C34.0565 30.2712 35.4711 27.2094 35.4711 23.821C35.4711 17.2586 30.1673 11.9217 23.6532 11.9217ZM23.6532 13.4973C29.3229 13.4973 33.9071 18.1093 33.9071 23.821C33.9071 26.2461 33.0811 28.4746 31.6961 30.2357C30.9957 27.6799 29.1274 25.6156 26.7065 24.6572C28.0241 23.7 28.8839 22.1414 28.8839 20.3869C28.8839 17.487 26.5318 15.1175 23.6532 15.1175C20.7746 15.1175 18.4286 17.487 18.4286 20.3869C18.4286 22.141 19.2876 23.6984 20.603 24.6557C18.1825 25.6137 16.3162 27.6792 15.6164 30.2357C14.2323 28.4745 13.4054 26.2464 13.4054 23.821C13.4054 18.1093 17.9835 13.4973 23.6532 13.4973ZM23.6532 16.6916C25.6874 16.6916 27.3214 18.3377 27.3214 20.3869C27.3214 22.4362 25.6874 24.0762 23.6532 24.0762C21.619 24.0762 19.9911 22.4362 19.9911 20.3869C19.9911 18.3377 21.619 16.6916 23.6532 16.6916ZM23.6532 25.6503C27.133 25.6503 29.966 28.2395 30.3823 31.6207C28.5825 33.1973 26.2297 34.1509 23.6532 34.1509C21.0779 34.1509 18.7284 33.1975 16.9302 31.6222C17.3455 28.2403 20.1728 25.6503 23.6532 25.6503Z" stroke="black" mask="url(#path-1-outside-1_301_4804)"/>
</svg>
