<svg width="45" height="45" viewBox="0 0 45 45" fill="none" xmlns="http://www.w3.org/2000/svg">
<path d="M37.9688 2.8125H7.03125C5.91237 2.8125 4.83931 3.25697 4.04814 4.04814C3.25697 4.83931 2.8125 5.91237 2.8125 7.03125V37.9688C2.8125 39.0876 3.25697 40.1607 4.04814 40.9519C4.83931 41.743 5.91237 42.1875 7.03125 42.1875H37.9688C39.0876 42.1875 40.1607 41.743 40.9519 40.9519C41.743 40.1607 42.1875 39.0876 42.1875 37.9688V7.03125C42.1875 5.91237 41.743 4.83931 40.9519 4.04814C40.1607 3.25697 39.0876 2.8125 37.9688 2.8125ZM7.03125 5.625H37.9688C38.3417 5.625 38.6994 5.77316 38.9631 6.03688C39.2268 6.3006 39.375 6.65829 39.375 7.03125V14.0625H5.625V7.03125C5.625 6.65829 5.77316 6.3006 6.03688 6.03688C6.3006 5.77316 6.65829 5.625 7.03125 5.625ZM37.9688 39.375H7.03125C6.65829 39.375 6.3006 39.2268 6.03688 38.9631C5.77316 38.6994 5.625 38.3417 5.625 37.9688V16.875H39.375V37.9688C39.375 38.3417 39.2268 38.6994 38.9631 38.9631C38.6994 39.2268 38.3417 39.375 37.9688 39.375Z" fill="black"/>
<path d="M9.84375 11.25H11.25C11.623 11.25 11.9806 11.1018 12.2444 10.8381C12.5081 10.5744 12.6562 10.2167 12.6562 9.84375C12.6562 9.47079 12.5081 9.1131 12.2444 8.84938C11.9806 8.58566 11.623 8.4375 11.25 8.4375H9.84375C9.47079 8.4375 9.1131 8.58566 8.84938 8.84938C8.58566 9.1131 8.4375 9.47079 8.4375 9.84375C8.4375 10.2167 8.58566 10.5744 8.84938 10.8381C9.1131 11.1018 9.47079 11.25 9.84375 11.25ZM16.875 11.25H18.2812C18.6542 11.25 19.0119 11.1018 19.2756 10.8381C19.5393 10.5744 19.6875 10.2167 19.6875 9.84375C19.6875 9.47079 19.5393 9.1131 19.2756 8.84938C19.0119 8.58566 18.6542 8.4375 18.2812 8.4375H16.875C16.502 8.4375 16.1444 8.58566 15.8806 8.84938C15.6169 9.1131 15.4688 9.47079 15.4688 9.84375C15.4688 10.2167 15.6169 10.5744 15.8806 10.8381C16.1444 11.1018 16.502 11.25 16.875 11.25ZM35.1169 23.6123C35.1098 23.5786 35.1 23.5491 35.0902 23.5153C35.0495 23.3612 34.9819 23.2155 34.8905 23.085L34.8792 23.0723V23.0625C34.8792 23.0527 34.8623 23.0498 34.8553 23.0414C34.7564 22.9162 34.6365 22.8092 34.5009 22.725C34.4784 22.7109 34.4602 22.6955 34.4363 22.6828C34.2985 22.6064 34.1487 22.5541 33.9933 22.5281C33.9623 22.5281 33.9328 22.5281 33.9005 22.5169C33.8681 22.5056 33.7992 22.5 33.75 22.5H29.5312C29.1583 22.5 28.8006 22.6482 28.5369 22.9119C28.2732 23.1756 28.125 23.5333 28.125 23.9062C28.125 24.2792 28.2732 24.6369 28.5369 24.9006C28.8006 25.1643 29.1583 25.3125 29.5312 25.3125L22.5 30.5859L12.0938 22.7813C11.7954 22.5575 11.4203 22.4614 11.0511 22.5141C10.6819 22.5669 10.3488 22.7641 10.125 23.0625C9.90122 23.3609 9.80514 23.7359 9.85788 24.1051C9.91063 24.4743 10.1079 24.8075 10.4063 25.0312L21.6562 33.4687C21.8997 33.6513 22.1957 33.75 22.5 33.75C22.8043 33.75 23.1003 33.6513 23.3438 33.4687L31.0036 27.7228C30.9271 28.0663 30.9821 28.4259 31.1578 28.7308C31.3336 29.0357 31.6172 29.2636 31.9527 29.3695C32.2883 29.4755 32.6514 29.4518 32.9703 29.3032C33.2892 29.1545 33.5408 28.8917 33.6755 28.5666L35.0817 24.3478C35.0997 24.2847 35.1128 24.2203 35.1211 24.1552C35.1211 24.127 35.1352 24.1017 35.138 24.0736C35.1567 23.9197 35.1496 23.7638 35.1169 23.6123Z" fill="black"/>
</svg>
