<svg width="46" height="46" viewBox="0 0 46 46" fill="none" xmlns="http://www.w3.org/2000/svg">
<g clip-path="url(#clip0_2_182)">
<g clip-path="url(#clip1_2_182)">
<path d="M29.1211 9.33947C30.4607 10.469 31.7725 11.6744 33.0488 12.9483C44.1609 24.0636 49.2758 37.2147 43.7453 42.748C40.4989 45.9921 34.6468 45.6249 27.9028 42.3302C27.1 41.9376 26.7658 40.9652 27.1583 40.1623C27.5508 39.357 28.5232 39.0253 29.326 39.4178C34.9655 42.1732 39.4527 42.4543 41.4533 40.4562C45.2037 36.703 40.7417 25.226 30.7567 15.2426C29.5463 14.032 28.3004 12.8874 27.0317 11.8187C26.348 11.2438 26.2619 10.2207 26.8367 9.53693C27.4141 8.85062 28.4375 8.76461 29.1211 9.33947ZM36.4622 25.8689C37.146 26.4488 37.2295 27.472 36.6496 28.1532C35.5481 29.4523 34.3452 30.754 33.0486 32.0507C21.9339 43.1634 8.78368 48.2786 3.25324 42.7478C0.00933355 39.5037 0.373987 33.6565 3.66601 26.9147C4.05852 26.1119 5.02842 25.7776 5.83112 26.1702C6.63641 26.5627 6.97066 27.5327 6.57813 28.338C3.82548 33.9728 3.54692 38.4576 5.54491 40.4557C9.29531 44.2063 20.7716 39.744 30.757 29.7585C31.9927 28.5227 33.1349 27.2868 34.1781 26.056C34.758 25.3748 35.7785 25.2915 36.4622 25.8689ZM19.0826 2.66378C19.8854 3.05631 20.2196 4.0288 19.8271 4.83161C19.4346 5.63695 18.4647 5.97122 17.6594 5.57866C12.025 2.82585 7.54303 2.54727 5.5444 4.54538C1.79147 8.29601 6.25601 19.773 16.2409 29.759C17.4464 30.967 18.6897 32.1066 19.9559 33.1728C20.6396 33.7502 20.7257 34.7733 20.1509 35.457C19.5735 36.1408 18.5504 36.2294 17.8667 35.652C16.5297 34.5276 15.2205 33.3221 13.9467 32.0508C2.83459 20.9355 -2.2803 7.78441 3.25273 2.25364C6.49411 -0.990463 12.3418 -0.62591 19.0826 2.66378ZM23.5851 16.8735C23.9168 16.9596 24.17 17.218 24.251 17.5497L24.9221 20.3506C25.0386 20.8343 25.4083 21.2193 25.8895 21.3535L28.361 22.0474C28.8143 22.174 29.0777 22.6425 28.9511 23.0959C28.8675 23.3922 28.6295 23.6226 28.3307 23.6935L25.9882 24.2557C25.4742 24.3798 25.0792 24.785 24.9652 25.3017L24.2688 28.4951C24.165 28.9814 23.6839 29.2904 23.1977 29.184C22.8533 29.108 22.5849 28.8396 22.5114 28.4951L21.815 25.3067C21.7036 24.7876 21.301 24.3824 20.7869 24.2608L18.361 23.6885C17.9001 23.5821 17.6165 23.1212 17.7253 22.6603C17.7962 22.3564 18.0267 22.1158 18.3255 22.0322L20.7641 21.3485C21.2351 21.2168 21.6023 20.8445 21.7239 20.3709L22.4633 17.532C22.5899 17.0407 23.0938 16.7444 23.5851 16.8735ZM43.7451 2.25339C46.9916 5.50002 46.6269 11.368 43.3298 18.1196C42.9373 18.9249 41.9649 19.2567 41.1621 18.8641C40.3568 18.4716 40.0226 17.5016 40.4176 16.6963C43.1754 11.0489 43.4564 6.54887 41.4534 4.54558C37.7005 0.792416 26.2241 5.25723 16.2413 15.2428C15.0258 16.4558 13.8761 17.7069 12.8049 18.9807C12.2276 19.667 11.2071 19.7531 10.5208 19.1782C9.83707 18.6008 9.74845 17.5803 10.3258 16.894C11.4552 15.5492 12.6682 14.2298 13.947 12.9484C25.0617 1.83561 38.2121 -3.27997 43.7451 2.25339Z" fill="black"/>
</g>
</g>
<defs>
<clipPath id="clip0_2_182">
<rect width="45" height="45" fill="white" transform="translate(0.799805 0.630859)"/>
</clipPath>
<clipPath id="clip1_2_182">
<rect width="45" height="45" fill="white" transform="translate(0.799805 0.630859)"/>
</clipPath>
</defs>
</svg>
