<svg width="45" height="45" viewBox="0 0 45 45" fill="none" xmlns="http://www.w3.org/2000/svg">
<path fill-rule="evenodd" clip-rule="evenodd" d="M10.9697 32.4378C4.83489 26.3016 4.83489 16.3544 10.9697 10.2208C17.1059 4.08466 27.0518 4.08466 33.1867 10.2208C34.648 11.6776 35.8069 13.4088 36.5968 15.315C37.3868 17.2211 37.7922 19.2646 37.7898 21.328C37.7898 21.6752 37.9277 22.0082 38.1733 22.2537C38.4188 22.4993 38.7518 22.6372 39.099 22.6372C39.4462 22.6372 39.7792 22.4993 40.0247 22.2537C40.2703 22.0082 40.4082 21.6752 40.4082 21.328C40.411 18.9205 39.9382 16.5361 39.0168 14.3118C38.0955 12.0876 36.7437 10.0673 35.0392 8.36702C27.8819 1.21099 16.2759 1.21099 9.11855 8.36702C1.96121 15.5257 1.96121 27.1316 9.11855 34.289C10.8189 35.9932 12.8393 37.3448 15.0635 38.2659C17.2878 39.1871 19.6721 39.6597 22.0795 39.6567C22.4268 39.6567 22.7597 39.5187 23.0053 39.2732C23.2508 39.0277 23.3887 38.6947 23.3887 38.3475C23.3887 38.0003 23.2508 37.6673 23.0053 37.4217C22.7597 37.1762 22.4268 37.0383 22.0795 37.0383C20.0159 37.0415 17.972 36.6367 16.0654 35.8471C14.1587 35.0576 12.427 33.899 10.9697 32.4378ZM23.4568 21.0256C23.2221 20.9392 22.9676 20.9217 22.7234 20.9754C22.4792 21.029 22.2554 21.1515 22.0786 21.3284C21.9017 21.5052 21.7793 21.7289 21.7256 21.9732C21.672 22.2174 21.6894 22.4719 21.7758 22.7066L28.2563 40.2956C28.3549 40.5632 28.5382 40.7913 28.7784 40.9452C29.0185 41.0991 29.3024 41.1704 29.5868 41.1482C29.8711 41.1259 30.1405 41.0114 30.3538 40.8221C30.5671 40.6327 30.7128 40.3789 30.7686 40.0992L32.4483 31.6981L40.8507 30.0184C41.1304 29.9626 41.3843 29.8169 41.5736 29.6036C41.763 29.3903 41.8774 29.1209 41.8997 28.8366C41.9219 28.5522 41.8506 28.2683 41.6967 28.0282C41.5429 27.788 41.3147 27.6047 41.0471 27.5061L23.4568 21.0256ZM30.0525 30.3287L29.1099 35.0405L25.2137 24.4622L35.7907 28.3597L31.0789 29.3023C30.8256 29.353 30.5931 29.4776 30.4104 29.6602C30.2278 29.8428 30.1033 30.0754 30.0525 30.3287ZM14.6734 13.9232C13.4125 15.1834 12.494 16.7446 12.0051 18.459C11.5161 20.1733 11.4729 21.9841 11.8794 23.7199C12.286 25.4557 13.1288 27.0589 14.3282 28.3778C15.5276 29.6968 17.0438 30.6878 18.7332 31.2569C18.9007 31.308 19.0562 31.3921 19.1905 31.5043C19.3249 31.6165 19.4354 31.7545 19.5155 31.9101C19.5956 32.0658 19.6437 32.2359 19.6569 32.4104C19.6701 32.585 19.6481 32.7604 19.5924 32.9263C19.5366 33.0922 19.4481 33.2453 19.3321 33.3764C19.2162 33.5075 19.0751 33.6141 18.9173 33.6898C18.7594 33.7654 18.588 33.8086 18.4131 33.8169C18.2383 33.8252 18.0636 33.7983 17.8993 33.7378C15.9853 33.0942 14.2469 32.0151 12.8209 30.5853C7.70856 25.4729 7.70856 17.1844 12.8209 12.0707C17.9346 6.95834 26.2231 6.95834 31.3368 12.0707C32.7661 13.4968 33.8448 15.2352 34.488 17.1491C34.5986 17.4782 34.5739 17.8378 34.4194 18.1488C34.2648 18.4598 33.9931 18.6966 33.6639 18.8072C33.3347 18.9178 32.9751 18.8931 32.6642 18.7385C32.3532 18.5839 32.1164 18.3122 32.0058 17.983C31.4366 16.2938 30.4456 14.7779 29.1268 13.5787C27.8079 12.3795 26.2049 11.5368 24.4693 11.1302C22.7338 10.7237 20.9232 10.7669 19.209 11.2556C17.4947 11.7444 15.9336 12.6626 14.6734 13.9232ZM18.3758 25.0317C17.8595 24.5137 17.4574 23.8932 17.1955 23.2103C16.9336 22.5274 16.8176 21.7972 16.8551 21.0667C16.8925 20.3363 17.0826 19.6218 17.413 18.9693C17.7434 18.3167 18.2069 17.7407 18.7735 17.2781C19.3401 16.8156 19.9973 16.4769 20.7028 16.2839C21.4082 16.0908 22.1463 16.0477 22.8695 16.1573C23.5926 16.2669 24.2848 16.5267 24.9015 16.9201C25.5181 17.3135 26.0454 17.8316 26.4496 18.4412C26.6422 18.7289 26.9409 18.9285 27.2803 18.9965C27.6197 19.0645 27.9723 18.9953 28.2608 18.8041C28.5493 18.6128 28.7504 18.3151 28.8199 17.976C28.8895 17.6369 28.8219 17.284 28.632 16.9946C27.989 16.0244 27.1384 15.2092 26.1417 14.608C25.145 14.0068 24.0271 13.6346 22.869 13.5184C21.7109 13.4021 20.5413 13.5447 19.4451 13.9358C18.3488 14.3269 17.3531 14.9568 16.53 15.7798C15.707 16.6029 15.0771 17.5985 14.686 18.6948C14.2949 19.7911 14.1524 20.9606 14.2686 22.1188C14.3849 23.2769 14.757 24.3948 15.3582 25.3915C15.9594 26.3881 16.7746 27.2388 17.7448 27.8818C18.0342 28.0717 18.3871 28.1393 18.7262 28.0697C19.0653 28.0002 19.363 27.7991 19.5543 27.5106C19.7456 27.222 19.8148 26.8695 19.7468 26.5301C19.6788 26.1907 19.4791 25.892 19.1915 25.6994C18.898 25.5046 18.6247 25.281 18.3758 25.0317Z" fill="black"/>
</svg>
