<svg width="45" height="45" viewBox="0 0 45 45" fill="none" xmlns="http://www.w3.org/2000/svg">
<path d="M24.2822 20.3985C24.2822 22.1265 22.9917 23.5838 21.2452 24.0099V24.7336C21.2452 25.316 20.7729 25.7882 20.1905 25.7882C19.608 25.7882 19.1358 25.316 19.1358 24.7336V24.0086C18.1243 23.7605 17.2339 23.1632 16.6841 22.3294C16.3634 21.8431 16.4977 21.1889 16.9839 20.8683C17.4703 20.5478 18.1243 20.6819 18.445 21.1682C18.7943 21.6979 19.4631 22.027 20.1904 22.027C21.2835 22.027 22.1728 21.2964 22.1728 20.3984C22.1728 19.3264 21.7279 19.116 19.9746 18.7475L19.9731 18.7426L19.9721 18.747C18.4269 18.4202 16.0987 17.9278 16.0987 15.0295C16.0987 13.3015 17.3891 11.8441 19.1357 11.418V10.6944C19.1357 10.1119 19.6079 9.63967 20.1904 9.63967C20.7728 9.63967 21.2451 10.1119 21.2451 10.6944V11.4193C22.2566 11.6674 23.1471 12.2648 23.6969 13.0985C24.0174 13.5848 23.8832 14.239 23.3969 14.5596C22.9108 14.8802 22.2566 14.746 21.9358 14.2596C21.5865 13.7299 20.9177 13.4009 20.1904 13.4009C19.0973 13.4009 18.2081 14.1314 18.2081 15.0294C18.2081 16.101 18.6526 16.3119 20.404 16.6823L20.4025 16.6895L20.4073 16.6829C21.9509 17.0074 24.282 17.4973 24.282 20.3983L24.2822 20.3985ZM41.8192 29.5594V36.6075C41.8192 40.8474 38.3686 44.2968 34.1274 44.2968H30.3056C27.4835 44.2968 25.0557 42.895 23.6446 40.4509L20.3377 34.724C20.2891 34.7243 20.2407 34.7248 20.1905 34.7248C10.8113 34.7248 3.18091 27.0943 3.18091 17.7151C3.18091 8.33599 10.8113 0.703125 20.1905 0.703125C29.5696 0.703125 37.2001 8.33475 37.2001 17.7152C37.2001 20.6797 36.4511 23.5236 35.0187 26.0566C35.2003 26.0205 35.3878 26.0009 35.5799 26.0009C36.5031 26.0009 37.3262 26.4378 37.8533 27.1157C38.2344 26.9228 38.6557 26.8225 39.0828 26.823C40.5916 26.823 41.8192 28.0506 41.8192 29.5594ZM19.137 32.5778C18.9897 32.1716 18.9694 31.7295 19.084 31.3014C19.2248 30.776 19.553 30.3355 20.0094 30.0488C13.2906 29.9515 7.85476 24.4568 7.85476 17.7153C7.85476 10.912 13.3885 5.37715 20.1906 5.37715C26.9926 5.37715 32.5264 10.9121 32.5264 17.7153C32.5264 19.6716 32.0577 21.609 31.171 23.3378V26.1047C31.6152 25.9819 32.0824 25.9677 32.5332 26.0634C34.2086 23.5967 35.0908 20.7272 35.0908 17.7152C35.0908 9.49781 28.4066 2.8125 20.1906 2.8125C11.9745 2.8125 5.29028 9.49781 5.29028 17.7152C5.29028 25.577 11.4108 32.0354 19.137 32.5778ZM25.4193 28.8896C24.7503 29.2035 24.0543 29.4563 23.3398 29.6447C24.205 29.9301 24.9351 30.5109 25.4193 31.3036V28.8895V28.8896ZM28.2951 19.005C29.0316 19.005 29.7042 19.2836 30.2135 19.7407C30.3483 19.074 30.4165 18.3955 30.417 17.7153C30.417 12.0751 25.8294 7.48652 20.1906 7.48652C14.5517 7.48652 9.96413 12.0751 9.96413 17.7153C9.96413 23.3555 14.5517 27.9417 20.1906 27.9417C22.0439 27.9417 23.8397 27.445 25.4193 26.5033V21.881C25.4193 20.2952 26.7094 19.005 28.2951 19.005ZM39.7099 29.5595C39.7099 29.2196 39.4228 28.9324 39.0829 28.9324C38.743 28.9324 38.4584 29.2196 38.4584 29.5595V31.9686C38.4584 32.5511 37.9862 33.0233 37.4038 33.0233C36.8213 33.0233 36.3491 32.5511 36.3491 31.9686V28.8793C36.3491 28.4552 36.0041 28.1102 35.58 28.1102C35.156 28.1102 34.8134 28.4552 34.8134 28.8793V31.9686C34.8134 32.5511 34.3412 33.0233 33.7588 33.0233C33.1763 33.0233 32.7041 32.5511 32.7041 31.9686V28.8793C32.7041 28.4552 32.3602 28.1102 31.9376 28.1102C31.5149 28.1102 31.171 28.4552 31.171 28.8793V31.9686C31.171 32.5511 30.6988 33.0233 30.1163 33.0233C29.5339 33.0233 29.0616 32.5511 29.0616 31.9686V21.8809C29.0616 21.4653 28.7106 21.1143 28.295 21.1143C27.8724 21.1143 27.5285 21.4582 27.5285 21.8809V35.2348C27.5286 35.467 27.452 35.6927 27.3107 35.8769C27.1694 36.0611 26.9713 36.1935 26.747 36.2537C26.5228 36.3138 26.285 36.2983 26.0704 36.2095C25.8559 36.1207 25.6767 35.9635 25.5606 35.7625L23.6447 32.4465C23.3383 31.9152 22.8986 31.7033 22.5837 31.6189C22.4321 31.5784 22.2758 31.5579 22.1188 31.558C21.7837 31.558 21.4458 31.6502 21.1348 31.8301C21.1314 31.8317 21.1284 31.8341 21.1261 31.8371C21.1238 31.8401 21.1223 31.8436 21.1216 31.8473C21.1187 31.8583 21.1216 31.8632 21.1229 31.8656L25.4714 39.3963C26.4955 41.1702 28.2575 42.1875 30.3057 42.1875H34.1275C37.2056 42.1875 39.7099 39.6844 39.7099 36.6076V29.5595Z" fill="black"/>
</svg>
