<svg width="45" height="45" viewBox="0 0 45 45" fill="none" xmlns="http://www.w3.org/2000/svg">
<path d="M10.4062 5.0509C9.0364 5.04902 7.71814 5.56988 6.7237 6.50593C5.72926 7.44198 5.13459 8.72173 5.0625 10.0809H3.9375C2.89012 10.0897 1.88866 10.5093 1.15119 11.2484C0.413724 11.9874 -3.78235e-05 12.9859 2.59331e-09 14.0266V15.1109C0.000970631 15.9324 0.260023 16.7332 0.741017 17.4015C1.22201 18.0697 1.90095 18.5722 2.68312 18.8386L16.875 34.0515V39.7913C16.875 40.0878 16.9935 40.3721 17.2045 40.5817C17.4155 40.7913 17.7016 40.9091 18 40.9091H27C27.2983 40.9091 27.5845 40.7913 27.7955 40.5817C28.0065 40.3721 28.125 40.0878 28.125 39.7913V34.0515L42.3168 18.8386C43.099 18.5722 43.778 18.0697 44.2589 17.4015C44.7399 16.7332 44.999 15.9324 45 15.1109V14.0434C45.0045 12.9998 44.5927 11.9969 43.8547 11.2543C43.1168 10.5117 42.1128 10.0897 41.0625 10.0809H37.5806C37.3178 8.66887 36.5659 7.3928 35.4552 6.47403C34.3445 5.55526 32.9452 5.05177 31.5 5.0509C31.0611 5.04948 30.6235 5.09634 30.195 5.19062C29.9754 4.25038 29.5541 3.36831 28.9599 2.60468C28.3658 1.84104 27.6127 1.21384 26.7522 0.765906C25.8916 0.317974 24.9439 0.0598738 23.9738 0.00923612C23.0037 -0.0414016 22.034 0.116617 21.131 0.472497C20.2279 0.828377 19.4129 1.37373 18.7414 2.07131C18.07 2.76888 17.558 3.60223 17.2405 4.51444C16.9229 5.42664 16.8073 6.3962 16.9015 7.35688C16.9957 8.31756 17.2975 9.24672 17.7862 10.0809H15.75C15.6779 8.72173 15.0832 7.44198 14.0888 6.50593C13.0943 5.56988 11.7761 5.04902 10.4062 5.0509ZM10.4062 7.28645C11.1799 7.28455 11.9263 7.5702 12.4988 8.08729C13.0713 8.60437 13.4284 9.31549 13.5 10.0809H7.31249C7.3841 9.31549 7.74123 8.60437 8.3137 8.08729C8.88617 7.5702 9.63258 7.28455 10.4062 7.28645ZM26.5106 32.4978H18.4894L5.95125 19.0846H39.0487L26.5106 32.4978ZM25.875 38.6735H19.125V34.7613H25.875V38.6735ZM42.75 14.0434V15.1109C42.7501 15.5587 42.5733 15.9887 42.2578 16.3085C41.9423 16.6282 41.5131 16.8123 41.0625 16.8211H3.96562C3.51009 16.8196 3.07373 16.6387 2.75215 16.3182C2.43057 15.9976 2.25 15.5635 2.25 15.1109V14.0434C2.24777 13.8179 2.29046 13.5941 2.37561 13.3851C2.46077 13.176 2.5867 12.9857 2.74615 12.8252C2.90561 12.6647 3.09545 12.5371 3.30474 12.4498C3.51403 12.3625 3.73863 12.3172 3.96562 12.3164H41.0625C41.516 12.3252 41.9478 12.5116 42.2638 12.835C42.5798 13.1584 42.7545 13.5927 42.75 14.0434ZM19.125 6.72756C19.125 5.54175 19.5991 4.40451 20.443 3.56602C21.2869 2.72753 22.4315 2.25647 23.625 2.25647C24.8185 2.25647 25.963 2.72753 26.807 3.56602C27.6509 4.40451 28.125 5.54175 28.125 6.72756C28.1291 6.91977 28.183 7.10768 28.2815 7.27314C28.3801 7.43859 28.5199 7.576 28.6875 7.67208C28.8501 7.77188 29.0356 7.82887 29.2265 7.83767C29.4175 7.84647 29.6075 7.80679 29.7787 7.72238C30.3109 7.44701 30.9001 7.29781 31.5 7.28645C32.3481 7.28623 33.1736 7.55811 33.8537 8.06161C34.5338 8.56512 35.032 9.27334 35.2743 10.0809H20.6494C20.1678 9.66349 19.7824 9.14793 19.5194 8.56929C19.2563 7.99064 19.1218 7.36249 19.125 6.72756Z" fill="black"/>
</svg>
