<svg width="46" height="46" viewBox="0 0 46 46" fill="none" xmlns="http://www.w3.org/2000/svg">
<g clip-path="url(#clip0_2_197)">
<path d="M24.4421 21.0294C24.4421 22.7574 23.1516 24.2147 21.4051 24.6408V25.3645C21.4051 25.9469 20.9328 26.4191 20.3504 26.4191C19.7679 26.4191 19.2957 25.9469 19.2957 25.3645V24.6395C18.2842 24.3914 17.3938 23.7941 16.844 22.9603C16.5233 22.474 16.6576 21.8198 17.1438 21.4992C17.6302 21.1787 18.2842 21.3128 18.6049 21.7991C18.9542 22.3288 19.623 22.6579 20.3503 22.6579C21.4434 22.6579 22.3327 21.9273 22.3327 21.0293C22.3327 19.9573 21.8878 19.7469 20.1345 19.3784L20.133 19.3735L20.132 19.3779C18.5868 19.0511 16.2586 18.5587 16.2586 15.6604C16.2586 13.9324 17.549 12.475 19.2956 12.0489V11.3253C19.2956 10.7428 19.7678 10.2705 20.3503 10.2705C20.9327 10.2705 21.405 10.7428 21.405 11.3253V12.0502C22.4165 12.2983 23.307 12.8957 23.8568 13.7294C24.1773 14.2157 24.0431 14.8699 23.5568 15.1905C23.0707 15.5111 22.4165 15.3769 22.0957 14.8905C21.7464 14.3608 21.0776 14.0318 20.3503 14.0318C19.2572 14.0318 18.368 14.7623 18.368 15.6603C18.368 16.7319 18.8125 16.9428 20.5639 17.3132L20.5624 17.3204L20.5672 17.3138C22.1108 17.6383 24.4421 18.1284 24.4421 21.0294ZM41.9791 30.1903V37.2384C41.9791 41.4783 38.5285 44.9277 34.2873 44.9277H30.4655C27.6434 44.9277 25.2156 43.5259 23.8045 41.0818L20.4976 35.3549C20.449 35.3552 20.4006 35.3557 20.3504 35.3557C10.9712 35.3557 3.34082 27.7252 3.34082 18.346C3.34082 8.96685 10.9712 1.33398 20.3504 1.33398C29.7295 1.33398 37.36 8.96561 37.36 18.3461C37.36 21.3106 36.611 24.1545 35.1786 26.6875C35.3602 26.6514 35.5477 26.6318 35.7398 26.6318C36.663 26.6318 37.4861 27.0687 38.0132 27.7466C38.3943 27.5537 38.8156 27.4534 39.2427 27.4539C40.7515 27.4539 41.9791 28.6815 41.9791 30.1903ZM19.2969 33.2087C19.1496 32.8025 19.1293 32.3604 19.2439 31.9323C19.3847 31.4069 19.7129 30.9664 20.1693 30.6797C13.4505 30.5824 8.01467 25.0877 8.01467 18.3462C8.01467 11.5429 13.5484 6.00801 20.3505 6.00801C27.1525 6.00801 32.6863 11.543 32.6863 18.3462C32.6863 20.3025 32.2176 22.2399 31.3309 23.9687V26.7356C31.7751 26.6128 32.2423 26.5986 32.6931 26.6943C34.3685 24.2276 35.2507 21.3581 35.2507 18.3461C35.2507 10.1287 28.5665 3.44336 20.3505 3.44336C12.1344 3.44336 5.45019 10.1287 5.45019 18.3461C5.45019 26.2079 11.5707 32.6663 19.2969 33.2087ZM25.5792 29.5205C24.9102 29.8344 24.2142 30.0872 23.4997 30.2756C24.3649 30.561 25.095 31.1418 25.5792 31.9345V29.5205ZM28.455 19.6359C29.1915 19.6359 29.8641 19.9145 30.3734 20.3716C30.5082 19.7049 30.5764 19.0264 30.5769 18.3462C30.5769 12.706 25.9893 8.11738 20.3505 8.11738C14.7116 8.11738 10.124 12.706 10.124 18.3462C10.124 23.9864 14.7116 28.5726 20.3505 28.5726C22.2038 28.5726 23.9996 28.0759 25.5792 27.1342V22.5119C25.5792 20.9261 26.8693 19.6359 28.455 19.6359ZM39.8698 30.1904C39.8698 29.8505 39.5827 29.5633 39.2428 29.5633C38.9029 29.5633 38.6183 29.8505 38.6183 30.1904V32.5995C38.6183 33.182 38.1461 33.6542 37.5637 33.6542C36.9812 33.6542 36.509 33.182 36.509 32.5995V29.5102C36.509 29.0861 36.164 28.7411 35.7399 28.7411C35.3159 28.7411 34.9733 29.0861 34.9733 29.5102V32.5995C34.9733 33.182 34.5011 33.6542 33.9187 33.6542C33.3362 33.6542 32.864 33.182 32.864 32.5995V29.5102C32.864 29.0861 32.5201 28.7411 32.0975 28.7411C31.6748 28.7411 31.3309 29.0861 31.3309 29.5102V32.5995C31.3309 33.182 30.8587 33.6542 30.2762 33.6542C29.6938 33.6542 29.2215 33.182 29.2215 32.5995V22.5118C29.2215 22.0962 28.8705 21.7452 28.4549 21.7452C28.0323 21.7452 27.6884 22.0891 27.6884 22.5118V35.8657C27.6885 36.0979 27.6119 36.3236 27.4706 36.5078C27.3293 36.692 27.1312 36.8244 26.9069 36.8846C26.6827 36.9447 26.4449 36.9292 26.2303 36.8404C26.0158 36.7516 25.8366 36.5944 25.7205 36.3934L23.8046 33.0774C23.4982 32.5461 23.0585 32.3342 22.7436 32.2498C22.592 32.2093 22.4357 32.1888 22.2787 32.1889C21.9436 32.1889 21.6057 32.2811 21.2947 32.461C21.2913 32.4626 21.2883 32.465 21.286 32.468C21.2837 32.471 21.2822 32.4745 21.2815 32.4782C21.2786 32.4892 21.2815 32.4941 21.2828 32.4965L25.6313 40.0272C26.6554 41.8011 28.4174 42.8184 30.4656 42.8184H34.2874C37.3655 42.8184 39.8698 40.3153 39.8698 37.2385V30.1904Z" fill="black"/>
</g>
<defs>
<clipPath id="clip0_2_197">
<rect width="45" height="45" fill="white" transform="translate(0.160156 0.630859)"/>
</clipPath>
</defs>
</svg>
