<svg width="46" height="46" viewBox="0 0 46 46" fill="none" xmlns="http://www.w3.org/2000/svg">
<g clip-path="url(#clip0_2_189)">
<g clip-path="url(#clip1_2_189)">
<path d="M38.5489 3.44336H7.61133C6.49245 3.44336 5.41939 3.88783 4.62822 4.679C3.83705 5.47017 3.39258 6.54323 3.39258 7.66211V38.5997C3.39258 39.7185 3.83705 40.7916 4.62822 41.5828C5.41939 42.3739 6.49245 42.8184 7.61133 42.8184H38.5489C39.6677 42.8184 40.7408 42.3739 41.532 41.5828C42.3231 40.7916 42.7676 39.7185 42.7676 38.5997V7.66211C42.7676 6.54323 42.3231 5.47017 41.532 4.679C40.7408 3.88783 39.6677 3.44336 38.5489 3.44336ZM7.61133 6.25586H38.5489C38.9218 6.25586 39.2795 6.40402 39.5432 6.66774C39.8069 6.93146 39.9551 7.28915 39.9551 7.66211V14.6934H6.20508V7.66211C6.20508 7.28915 6.35324 6.93146 6.61696 6.66774C6.88068 6.40402 7.23837 6.25586 7.61133 6.25586ZM38.5489 40.0059H7.61133C7.23837 40.0059 6.88068 39.8577 6.61696 39.594C6.35324 39.3303 6.20508 38.9726 6.20508 38.5997V17.5059H39.9551V38.5997C39.9551 38.9726 39.8069 39.3303 39.5432 39.594C39.2795 39.8577 38.9218 40.0059 38.5489 40.0059Z" fill="black"/>
<path d="M10.4238 11.8809H11.8301C12.2031 11.8809 12.5607 11.7327 12.8245 11.469C13.0882 11.2053 13.2363 10.8476 13.2363 10.4746C13.2363 10.1016 13.0882 9.74396 12.8245 9.48024C12.5607 9.21652 12.2031 9.06836 11.8301 9.06836H10.4238C10.0509 9.06836 9.69318 9.21652 9.42946 9.48024C9.16574 9.74396 9.01758 10.1016 9.01758 10.4746C9.01758 10.8476 9.16574 11.2053 9.42946 11.469C9.69318 11.7327 10.0509 11.8809 10.4238 11.8809ZM17.4551 11.8809H18.8613C19.2343 11.8809 19.592 11.7327 19.8557 11.469C20.1194 11.2053 20.2676 10.8476 20.2676 10.4746C20.2676 10.1016 20.1194 9.74396 19.8557 9.48024C19.592 9.21652 19.2343 9.06836 18.8613 9.06836H17.4551C17.0821 9.06836 16.7245 9.21652 16.4607 9.48024C16.197 9.74396 16.0489 10.1016 16.0489 10.4746C16.0489 10.8476 16.197 11.2053 16.4607 11.469C16.7245 11.7327 17.0821 11.8809 17.4551 11.8809ZM35.697 24.2432C35.6899 24.2095 35.6801 24.18 35.6703 24.1462C35.6296 23.9921 35.562 23.8464 35.4706 23.7159L35.4593 23.7032V23.6934C35.4593 23.6836 35.4424 23.6807 35.4354 23.6723C35.3365 23.5471 35.2166 23.4401 35.081 23.3559C35.0585 23.3418 35.0403 23.3264 35.0164 23.3137C34.8786 23.2373 34.7288 23.185 34.5734 23.159C34.5424 23.159 34.5129 23.159 34.4806 23.1478C34.4482 23.1365 34.3793 23.1309 34.3301 23.1309H30.1113C29.7384 23.1309 29.3807 23.2791 29.117 23.5428C28.8533 23.8065 28.7051 24.1642 28.7051 24.5371C28.7051 24.9101 28.8533 25.2678 29.117 25.5315C29.3807 25.7952 29.7384 25.9434 30.1113 25.9434L23.0801 31.2168L12.6739 23.4122C12.3755 23.1884 12.0004 23.0923 11.6312 23.145C11.262 23.1978 10.9289 23.395 10.7051 23.6934C10.4813 23.9918 10.3852 24.3668 10.438 24.736C10.4907 25.1052 10.688 25.4384 10.9864 25.6621L22.2363 34.0996C22.4798 34.2822 22.7758 34.3809 23.0801 34.3809C23.3844 34.3809 23.6804 34.2822 23.9239 34.0996L31.5837 28.3537C31.5072 28.6972 31.5622 29.0568 31.7379 29.3617C31.9137 29.6666 32.1973 29.8945 32.5328 30.0004C32.8684 30.1064 33.2315 30.0827 33.5504 29.9341C33.8693 29.7854 34.1209 29.5226 34.2556 29.1975L35.6618 24.9787C35.6798 24.9156 35.6929 24.8512 35.7012 24.7861C35.7012 24.7579 35.7153 24.7326 35.7181 24.7045C35.7368 24.5506 35.7297 24.3947 35.697 24.2432Z" fill="black"/>
</g>
</g>
<defs>
<clipPath id="clip0_2_189">
<rect width="45" height="45" fill="white" transform="translate(0.580078 0.630859)"/>
</clipPath>
<clipPath id="clip1_2_189">
<rect width="45" height="45" fill="white" transform="translate(0.580078 0.630859)"/>
</clipPath>
</defs>
</svg>
