<svg width="30" height="30" viewBox="0 0 30 30" fill="none" xmlns="http://www.w3.org/2000/svg">
<path fill-rule="evenodd" clip-rule="evenodd" d="M26.0128 14.5377C25.8902 14.5584 25.7809 14.6269 25.7088 14.7281C25.6367 14.8294 25.6078 14.9552 25.6284 15.0777C25.7297 15.6777 25.7812 16.2824 25.7812 16.8749C25.7812 20.1787 24.3094 23.1609 21.9356 25.1465C21.7378 23.8466 21.1764 22.6293 20.3163 21.6348C19.4562 20.6403 18.3324 19.9093 17.0747 19.5262C17.5895 19.1845 18.0119 18.7209 18.3042 18.1766C18.5965 17.6322 18.7496 17.024 18.75 16.4062C18.75 14.338 17.0681 12.6562 15 12.6562C12.9319 12.6562 11.25 14.338 11.25 16.4062C11.25 17.7074 11.9166 18.853 12.9253 19.5262C11.6676 19.9093 10.5438 20.6403 9.68371 21.6348C8.82362 22.6293 8.26224 23.8466 8.06438 25.1465C6.85613 24.134 5.88533 22.8682 5.22075 21.4388C4.55618 20.0094 4.2141 18.4513 4.21875 16.8749C4.21875 16.2824 4.27031 15.6787 4.37156 15.0777C4.38285 15.0166 4.38186 14.9538 4.36865 14.8931C4.35544 14.8323 4.33027 14.7748 4.29461 14.7238C4.25896 14.6729 4.21352 14.6296 4.16095 14.5963C4.10839 14.5631 4.04974 14.5407 3.98842 14.5304C3.92711 14.5201 3.86435 14.5221 3.80381 14.5362C3.74326 14.5504 3.68614 14.5765 3.63577 14.6129C3.5854 14.6494 3.54279 14.6955 3.51041 14.7486C3.47804 14.8016 3.45654 14.8606 3.44719 14.9221C3.3377 15.5673 3.2822 16.2205 3.28125 16.8749C3.28125 22.6312 7.39313 27.4902 13.0575 28.4277C13.178 28.4433 13.2998 28.4115 13.3973 28.3391C13.4948 28.2666 13.5603 28.1592 13.5801 28.0393C13.5999 27.9195 13.5725 27.7966 13.5035 27.6966C13.4345 27.5967 13.3294 27.5274 13.2103 27.5034C11.6787 27.2504 10.2202 26.6682 8.93531 25.7971C9.15938 22.6162 11.775 20.1562 15 20.1562C18.225 20.1562 20.8397 22.6162 21.0656 25.7971C19.7805 26.6684 18.3216 27.2505 16.7897 27.5034C16.7273 27.5114 16.6671 27.532 16.6128 27.5638C16.5585 27.5957 16.5112 27.6381 16.4736 27.6886C16.4361 27.7391 16.4091 27.7967 16.3943 27.8579C16.3794 27.9191 16.3771 27.9826 16.3874 28.0447C16.3976 28.1068 16.4203 28.1662 16.454 28.2193C16.4877 28.2725 16.5318 28.3183 16.5836 28.354C16.6354 28.3898 16.6939 28.4147 16.7556 28.4274C16.8172 28.4401 16.8808 28.4402 16.9425 28.4277C22.6069 27.4902 26.7188 22.6321 26.7188 16.8749C26.7188 16.2299 26.6625 15.5727 26.5528 14.9221C26.5428 14.8613 26.5209 14.8031 26.4883 14.7508C26.4557 14.6985 26.4131 14.6532 26.3629 14.6175C26.3127 14.5817 26.2559 14.5563 26.1958 14.5426C26.1357 14.5289 26.0735 14.5273 26.0128 14.5377ZM12.1875 16.4062C12.1875 14.8555 13.4494 13.5937 15 13.5937C16.5506 13.5937 17.8125 14.8555 17.8125 16.4062C17.8125 17.9568 16.5506 19.2187 15 19.2187C13.4494 19.2187 12.1875 17.9568 12.1875 16.4062ZM20.1337 5.13648C20.1068 5.05313 20.057 4.97899 19.9901 4.92249C19.9231 4.86598 19.8417 4.82937 19.755 4.8168L16.7597 4.3818L15.42 1.6668C15.2625 1.34805 14.7375 1.34805 14.58 1.6668L13.2403 4.3818L10.245 4.8168C10.1584 4.82937 10.0771 4.86592 10.0102 4.92231C9.94332 4.97871 9.89355 5.05269 9.86653 5.1359C9.83951 5.21911 9.83632 5.30822 9.85731 5.39315C9.8783 5.47808 9.92264 5.55544 9.98531 5.61648L12.1528 7.72867L11.6409 10.7118C11.6261 10.7981 11.6357 10.8868 11.6687 10.9678C11.7017 11.0489 11.7567 11.1192 11.8275 11.1706C11.8984 11.222 11.9822 11.2526 12.0695 11.2588C12.1568 11.265 12.2441 11.2467 12.3216 11.2059L15 9.7968L17.6784 11.2059C17.7557 11.2473 17.8432 11.266 17.9306 11.2597C18.0181 11.2533 18.102 11.2223 18.1725 11.1702C18.2434 11.1188 18.2985 11.0484 18.3315 10.9672C18.3645 10.886 18.374 10.7972 18.3591 10.7109L17.8472 7.72961L20.0156 5.61555C20.0782 5.55459 20.1226 5.47734 20.1436 5.39253C20.1646 5.30771 20.1616 5.2187 20.1347 5.13555L20.1337 5.13648ZM17.0156 7.22805C16.9612 7.28117 16.9204 7.34672 16.8969 7.41906C16.8734 7.4914 16.8678 7.56838 16.8806 7.64336L17.2744 9.93367L15.2175 8.8518C15.1501 8.81664 15.0751 8.79827 14.9991 8.79827C14.923 8.79827 14.8481 8.81664 14.7806 8.8518L12.7247 9.93367L13.1175 7.64336C13.1303 7.56838 13.1247 7.4914 13.1012 7.41906C13.0777 7.34672 13.037 7.28117 12.9825 7.22805L11.3194 5.60711L13.6181 5.27336C13.6932 5.26234 13.7645 5.2333 13.8258 5.18873C13.8872 5.14416 13.9369 5.08538 13.9706 5.01742L15 2.9343L16.0284 5.01836C16.0622 5.08632 16.1118 5.14509 16.1732 5.18967C16.2346 5.23424 16.3059 5.26327 16.3809 5.2743L18.6797 5.60805L17.0166 7.22898L17.0156 7.22805Z" fill="white"/>
<path fill-rule="evenodd" clip-rule="evenodd" d="M3.78379 12.6777C3.76874 12.7641 3.77821 12.8529 3.8111 12.9341C3.84399 13.0154 3.899 13.0857 3.96988 13.1373C4.04075 13.1888 4.12466 13.2195 4.21208 13.2258C4.29949 13.232 4.38691 13.2136 4.46441 13.1727L6.56348 12.0684L8.66348 13.1727C8.74064 13.214 8.82792 13.2325 8.91519 13.2262C9.00246 13.2199 9.08617 13.189 9.1566 13.1371C9.22753 13.0856 9.28261 13.0153 9.31559 12.9341C9.34857 12.8529 9.35812 12.7641 9.34316 12.6777L8.94191 10.3405L10.6407 8.68586C10.7036 8.62486 10.7482 8.54743 10.7693 8.46236C10.7905 8.37729 10.7874 8.288 10.7603 8.20462C10.7333 8.12123 10.6834 8.04711 10.6163 7.99065C10.5493 7.9342 10.4677 7.89768 10.381 7.88523L8.03348 7.54492L6.98348 5.4168C6.82598 5.09805 6.30098 5.09805 6.14348 5.4168L5.09348 7.54492L2.74598 7.88523C2.65921 7.89768 2.57766 7.9342 2.5106 7.99065C2.44355 8.04711 2.39366 8.12123 2.36662 8.20462C2.33957 8.288 2.33645 8.37729 2.3576 8.46236C2.37876 8.54743 2.42334 8.62486 2.48629 8.68586L4.18504 10.3405L3.78379 12.6777ZM3.82129 8.67742L5.47129 8.43742C5.54651 8.42654 5.61797 8.39757 5.67953 8.35299C5.7411 8.30841 5.79092 8.24956 5.82473 8.18148L6.56348 6.6843L7.30223 8.18148C7.33595 8.24944 7.38562 8.30822 7.44701 8.35279C7.5084 8.39736 7.57967 8.4264 7.65473 8.43742L9.30566 8.67742L8.11129 9.84086C8.05684 9.89398 8.0161 9.95953 7.99259 10.0319C7.96907 10.1042 7.96348 10.1812 7.97629 10.2562L8.25848 11.9005L6.78191 11.1243C6.71447 11.0891 6.63953 11.0708 6.56348 11.0708C6.48742 11.0708 6.41248 11.0891 6.34504 11.1243L4.86848 11.9005L5.14973 10.2562C5.16266 10.1813 5.15721 10.1043 5.13386 10.032C5.11051 9.95966 5.06995 9.89407 5.01566 9.84086L3.82129 8.67742ZM27.256 7.88523L24.9085 7.54492L23.8585 5.4168C23.701 5.09805 23.176 5.09805 23.0185 5.4168L21.9685 7.54492L19.621 7.88523C19.5342 7.89768 19.4527 7.9342 19.3856 7.99065C19.3185 8.04711 19.2687 8.12123 19.2416 8.20462C19.2146 8.288 19.2115 8.37729 19.2326 8.46236C19.2538 8.54743 19.2983 8.62486 19.3613 8.68586L21.06 10.3405L20.6588 12.6777C20.6437 12.7641 20.6532 12.8529 20.6861 12.9341C20.719 13.0154 20.774 13.0857 20.8449 13.1373C20.9158 13.1888 20.9997 13.2195 21.0871 13.2258C21.1745 13.232 21.2619 13.2136 21.3394 13.1727L23.4385 12.0684L25.5385 13.1727C25.6156 13.214 25.7029 13.2325 25.7902 13.2262C25.8775 13.2199 25.9612 13.189 26.0316 13.1371C26.1025 13.0856 26.1576 13.0153 26.1906 12.9341C26.2236 12.8529 26.2331 12.7641 26.2182 12.6777L25.8169 10.3405L27.5157 8.68586C27.5786 8.62486 27.6232 8.54743 27.6443 8.46236C27.6655 8.37729 27.6624 8.288 27.6353 8.20462C27.6083 8.12123 27.5584 8.04711 27.4913 7.99065C27.4243 7.9342 27.3427 7.89768 27.256 7.88523ZM24.9863 9.84086C24.9318 9.89398 24.8911 9.95953 24.8676 10.0319C24.8441 10.1042 24.8385 10.1812 24.8513 10.2562L25.1335 11.9005L23.6569 11.1243C23.5895 11.0891 23.5145 11.0708 23.4385 11.0708C23.3624 11.0708 23.2875 11.0891 23.22 11.1243L21.7435 11.9005L22.0247 10.2562C22.0377 10.1813 22.0322 10.1043 22.0089 10.032C21.9855 9.95966 21.945 9.89407 21.8907 9.84086L20.6963 8.67742L22.3463 8.43742C22.4215 8.42654 22.493 8.39757 22.5545 8.35299C22.6161 8.30841 22.6659 8.24956 22.6997 8.18148L23.4385 6.6843L24.1772 8.18148C24.2109 8.24944 24.2606 8.30822 24.322 8.35279C24.3834 8.39736 24.4547 8.4264 24.5297 8.43742L26.1807 8.67742L24.9863 9.84086Z" fill="white"/>
<path d="M15 28.5938C15.2589 28.5938 15.4688 28.3839 15.4688 28.125C15.4688 27.8661 15.2589 27.6562 15 27.6562C14.7411 27.6562 14.5312 27.8661 14.5312 28.125C14.5312 28.3839 14.7411 28.5938 15 28.5938Z" fill="white"/>
</svg>
