<svg width="32" height="32" viewBox="0 0 32 32" fill="none" xmlns="http://www.w3.org/2000/svg">
<path d="M30.9828 4.73736C30.9437 4.6219 30.8405 4.53892 30.7194 4.52448L28.2565 4.22863C28.1604 4.2142 28.0643 4.25027 27.9931 4.32243L27.3489 4.97548L27.0784 4.70128L27.7261 4.04101C27.7938 3.97246 27.8294 3.87504 27.8151 3.77402L27.5161 1.2845C27.5019 1.16182 27.42 1.0608 27.3062 1.0175C27.1923 0.977817 27.0641 1.00668 26.9787 1.09327L21.6079 6.53414C21.5402 6.60269 21.5046 6.70372 21.5189 6.80113L21.5972 7.44696C21.4406 7.42171 21.2804 7.41088 21.1167 7.41088H4.16058C2.41657 7.41088 1 8.84687 1 10.6148V27.7961C1 29.564 2.41657 31 4.16058 31H21.1167C22.8607 31 24.2773 29.5604 24.2773 27.7961V10.6148C24.2773 10.5679 24.2666 10.5282 24.2666 10.4849L25.2774 10.6076C25.2881 10.6076 25.3023 10.6112 25.313 10.6112C25.3984 10.6112 25.4767 10.5787 25.5372 10.5174L30.9045 5.06929C30.9935 4.9827 31.022 4.85281 30.9828 4.73736ZM26.9645 2.01692L27.1673 3.69825L26.4591 4.41985C26.4377 4.43428 26.4199 4.44872 26.4021 4.46676L22.7326 8.1866C22.7219 8.19743 22.7112 8.20825 22.7041 8.22268L22.3695 8.55823L22.2805 7.8222C22.2805 7.8222 22.2805 7.8222 22.2805 7.81859L22.1666 6.8769L26.9645 2.01692ZM12.3646 19.8837C12.4002 19.9198 12.4464 19.9451 12.4927 19.9595C12.5069 19.9631 12.5176 19.9631 12.5319 19.9667C12.5497 19.9703 12.571 19.9776 12.5888 19.9776C12.6173 19.9776 12.6422 19.9739 12.6707 19.9667L14.7848 19.3931V21.078C14.7848 21.244 14.6496 21.3811 14.4787 21.3811H10.795C10.6277 21.3811 10.4889 21.244 10.4889 21.078V17.3329C10.4889 17.1669 10.6241 17.0298 10.795 17.0298H12.9518L12.2827 19.5735C12.2542 19.6853 12.2863 19.8044 12.3646 19.8837ZM10.795 16.3876C10.2753 16.3876 9.85533 16.8133 9.85533 17.3329V21.078C9.85533 21.6012 10.2753 22.0233 10.795 22.0233H14.4823C15.002 22.0233 15.4219 21.5975 15.4219 21.078V19.2235L17.4151 18.6823V23.0732C17.4151 23.6072 16.9809 24.0438 16.4506 24.0438H8.82671C8.29283 24.0438 7.86216 23.6072 7.86216 23.0732V15.3377C7.86216 14.7965 8.29639 14.3599 8.82671 14.3599H16.4506C16.5111 14.3599 16.5716 14.3635 16.6285 14.3743L15.2404 15.7814L14.0872 14.6125C14.0089 14.5295 13.8915 14.497 13.7811 14.5295C13.6708 14.5583 13.5854 14.6449 13.5569 14.7568L13.1262 16.384H10.795V16.3876ZM16.4506 13.7177H8.82671C7.94403 13.7177 7.22863 14.4465 7.22863 15.3377V23.0732C7.22863 23.9644 7.94759 24.6896 8.82671 24.6896H16.4506C17.3332 24.6896 18.0522 23.9644 18.0522 23.0732V15.3377C18.0522 15.3304 18.0522 15.3196 18.0522 15.3124L20.3657 12.9708C20.3692 13.0141 20.3692 13.0574 20.3692 13.1007V25.3138C20.3692 26.2663 19.604 27.0384 18.6608 27.0384H6.60932C5.66969 27.0384 4.90802 26.2663 4.90802 25.3138V13.1007C4.90802 12.1482 5.66969 11.3761 6.60932 11.3761H18.6573C18.9206 11.3761 19.1769 11.4374 19.4118 11.5529L17.1268 13.8692C16.9132 13.7718 16.6855 13.7177 16.4506 13.7177ZM16.4078 16.9721L17.4115 15.9546V17.9932L16.4078 16.9721ZM20.323 12.1013C20.3194 12.1049 20.3159 12.1049 20.3123 12.1085L17.5005 14.9588L15.7351 16.7484C15.6106 16.8747 15.6106 17.0767 15.7351 17.203L16.7246 18.206L15.0269 18.6679H15.0233L13.0408 19.2054L14.0267 15.4676L15.0162 16.4706C15.1408 16.5969 15.3401 16.5969 15.4646 16.4706L26.6335 5.15949L26.9004 5.43009L23.3875 8.99119C23.3768 9.00201 23.3661 9.01645 23.3554 9.03088L22.6329 9.7633L20.323 12.1013ZM23.6402 27.7961C23.6402 29.2104 22.5083 30.3578 21.1131 30.3578H4.16058C2.76893 30.3578 1.63354 29.2104 1.63354 27.7961V10.6148C1.63354 9.20406 2.76537 8.05311 4.16058 8.05311H21.1167C21.3053 8.05311 21.4904 8.07476 21.6755 8.11444L21.7965 9.11386L21.8001 9.13912L19.8781 11.0838C19.5115 10.8565 19.0915 10.7302 18.6608 10.7302H6.60932C5.32089 10.7302 4.27448 11.791 4.27448 13.0971V25.3102C4.27448 26.6163 5.32089 27.677 6.60932 27.677H18.6573C19.9493 27.677 20.9992 26.6163 20.9992 25.3102V13.1007C20.9992 12.8698 20.9565 12.6497 20.8925 12.4332L22.9675 10.3334L23.633 10.4127C23.6366 10.4777 23.6402 10.5462 23.6402 10.6184V27.7961ZM25.1955 9.95092L23.5903 9.75609L23.5405 9.74887L23.8359 9.45301C23.8466 9.44219 23.8573 9.42776 23.868 9.41333L27.5731 5.6574L28.3348 4.88528L29.9969 5.08372L25.1955 9.95092Z" fill="white" stroke="white" stroke-width="0.5"/>
</svg>
