<svg width="55" height="55" viewBox="0 0 55 55" fill="none" xmlns="http://www.w3.org/2000/svg">
<g clip-path="url(#clip0_98_67)">
<g clip-path="url(#clip1_98_67)">
<g clip-path="url(#clip2_98_67)">
<path opacity="0.2" d="M27.5 55C42.6878 55 55 42.6878 55 27.5C55 12.3122 42.6878 0 27.5 0C12.3122 0 0 12.3122 0 27.5C0 42.6878 12.3122 55 27.5 55Z" fill="url(#paint0_linear_98_67)"/>
<path d="M37.707 14.4H16.707C15.057 14.4 13.707 15.75 13.707 17.4V34.8C13.707 36.45 15.057 37.8 16.707 37.8H25.107V38.4C25.107 38.61 25.227 38.79 25.407 38.91C25.587 39.03 25.797 39.03 25.977 38.94L27.867 38.01L29.217 40.71C29.277 40.86 29.427 40.95 29.577 41.01C29.637 41.04 29.697 41.04 29.757 41.04C29.847 41.04 29.937 41.01 30.027 40.98L32.697 39.63C32.997 39.48 33.117 39.12 32.967 38.82L32.457 37.8H37.707C39.357 37.8 40.707 36.45 40.707 34.8V17.4C40.707 15.75 39.357 14.4 37.707 14.4ZM29.997 39.63L28.647 36.96C28.527 36.75 28.317 36.63 28.107 36.63C28.017 36.63 27.927 36.66 27.837 36.69L26.307 37.44V30.24L32.067 34.56L30.507 35.34C30.207 35.49 30.087 35.85 30.237 36.15L31.587 38.85L29.997 39.63ZM39.507 34.8C39.507 35.79 38.697 36.6 37.707 36.6H31.857L31.617 36.12L33.507 35.19C33.687 35.1 33.807 34.92 33.837 34.71C33.867 34.5 33.777 34.29 33.597 34.17L26.097 28.53C25.917 28.38 25.677 28.38 25.467 28.47C25.257 28.56 25.137 28.77 25.137 29.01V36.6H16.707C15.717 36.6 14.907 35.79 14.907 34.8V21.6H39.507V34.8ZM39.507 20.4H14.907V17.4C14.907 16.41 15.717 15.6 16.707 15.6H37.707C38.697 15.6 39.507 16.41 39.507 17.4V20.4ZM17.907 18C17.907 18.33 17.637 18.6 17.307 18.6C16.977 18.6 16.707 18.33 16.707 18C16.707 17.67 16.977 17.4 17.307 17.4C17.637 17.4 17.907 17.67 17.907 18ZM20.907 18C20.907 18.33 20.637 18.6 20.307 18.6C19.977 18.6 19.707 18.33 19.707 18C19.707 17.67 19.977 17.4 20.307 17.4C20.637 17.4 20.907 17.67 20.907 18ZM23.907 18C23.907 18.33 23.637 18.6 23.307 18.6C22.977 18.6 22.707 18.33 22.707 18C22.707 17.67 22.977 17.4 23.307 17.4C23.637 17.4 23.907 17.67 23.907 18ZM23.307 25.53C23.157 25.23 23.277 24.87 23.577 24.72C23.877 24.57 24.237 24.69 24.387 24.99L24.927 26.07C25.077 26.37 24.957 26.73 24.657 26.88C24.567 26.91 24.477 26.94 24.387 26.94C24.177 26.94 23.967 26.82 23.847 26.61L23.307 25.53ZM29.247 28.41C29.097 28.11 29.217 27.75 29.517 27.6L30.597 27.06C30.897 26.91 31.257 27.03 31.407 27.33C31.557 27.63 31.437 27.99 31.137 28.14L30.057 28.68C29.967 28.71 29.877 28.74 29.787 28.74C29.577 28.77 29.367 28.62 29.247 28.41ZM23.097 31.5C23.247 31.8 23.127 32.16 22.827 32.31L21.747 32.85C21.657 32.88 21.567 32.91 21.477 32.91C21.267 32.91 21.057 32.79 20.937 32.58C20.787 32.28 20.907 31.92 21.207 31.77L22.287 31.23C22.587 31.08 22.947 31.2 23.097 31.5ZM26.877 25.92L27.267 24.78C27.357 24.45 27.717 24.3 28.017 24.39C28.317 24.48 28.497 24.84 28.407 25.14L28.017 26.28C27.927 26.52 27.687 26.7 27.447 26.7C27.387 26.7 27.327 26.7 27.267 26.67C26.967 26.58 26.787 26.25 26.877 25.92ZM20.637 28.11C20.727 27.78 21.087 27.63 21.387 27.72L22.527 28.11C22.827 28.2 23.007 28.56 22.917 28.86C22.827 29.1 22.587 29.28 22.347 29.28C22.287 29.28 22.227 29.28 22.167 29.25L21.027 28.86C20.697 28.77 20.517 28.44 20.637 28.11Z" fill="white"/>
</g>
</g>
</g>
<defs>
<linearGradient id="paint0_linear_98_67" x1="0" y1="27.5" x2="55" y2="27.5" gradientUnits="userSpaceOnUse">
<stop stop-color="#6DFAD9"/>
<stop offset="1" stop-color="#2755EE"/>
</linearGradient>
<clipPath id="clip0_98_67">
<rect width="55" height="55" fill="white"/>
</clipPath>
<clipPath id="clip1_98_67">
<rect width="55" height="55" fill="white"/>
</clipPath>
<clipPath id="clip2_98_67">
<rect width="55" height="55" fill="white"/>
</clipPath>
</defs>
</svg>
