<svg width="27" height="27" viewBox="0 0 27 27" fill="none" xmlns="http://www.w3.org/2000/svg">
<path d="M3.65773 10.9673H9.28227C9.57398 10.9665 9.85819 10.8747 10.0953 10.7049C10.3325 10.535 10.5108 10.2955 10.6055 10.0195C10.6337 10.0209 10.6599 10.0303 10.6885 10.0303H16.3126C16.3407 10.0303 16.3679 10.0209 16.3955 10.0195C16.4903 10.2955 16.6687 10.5351 16.9059 10.705C17.1432 10.8749 17.4275 10.9666 17.7193 10.9673H23.3438C23.7167 10.967 24.0741 10.8187 24.3378 10.5551C24.6014 10.2914 24.7497 9.93394 24.7501 9.56109C24.7489 8.72157 24.4975 7.90145 24.028 7.20546C23.5585 6.50947 22.8923 5.96919 22.1143 5.65359C22.4611 5.33487 22.7036 4.91886 22.8101 4.46002C22.9166 4.00118 22.882 3.52088 22.711 3.082C22.5399 2.64312 22.2404 2.2661 21.8515 2.00029C21.4627 1.73449 21.0026 1.59228 20.5316 1.59228C20.0605 1.59228 19.6005 1.73449 19.2116 2.00029C18.8227 2.2661 18.5232 2.64312 18.3521 3.082C18.1811 3.52088 18.1466 4.00118 18.253 4.46002C18.3595 4.91886 18.602 5.33487 18.9488 5.65359C18.3166 5.91111 17.756 6.31765 17.3148 6.83859C16.8697 5.87248 16.0726 5.11265 15.0863 4.71422C15.4325 4.39518 15.6743 3.97913 15.7801 3.52046C15.886 3.06179 15.851 2.58184 15.6798 2.14337C15.5085 1.70489 15.209 1.32829 14.8202 1.0628C14.4315 0.797304 13.9717 0.655273 13.501 0.655273C13.0303 0.655273 12.5705 0.797304 12.1818 1.0628C11.7931 1.32829 11.4935 1.70489 11.3222 2.14337C11.151 2.58184 11.116 3.06179 11.2219 3.52046C11.3278 3.97913 11.5696 4.39518 11.9157 4.71422C10.9294 5.11261 10.1323 5.87245 9.68727 6.83859C9.24604 6.31767 8.68544 5.91112 8.0532 5.65359C8.40158 5.33462 8.64544 4.91783 8.75284 4.45786C8.86023 3.99789 8.82614 3.5162 8.65503 3.07594C8.48392 2.63568 8.18378 2.2574 7.79396 1.99067C7.40413 1.72394 6.94281 1.58123 6.47047 1.58123C5.99813 1.58123 5.53681 1.72394 5.14698 1.99067C4.75716 2.2574 4.45702 2.63568 4.28591 3.07594C4.1148 3.5162 4.08071 3.99789 4.1881 4.45786C4.2955 4.91783 4.53936 5.33462 4.88773 5.65359C4.10987 5.96926 3.44372 6.50957 2.97433 7.20556C2.50494 7.90154 2.25361 8.72162 2.25242 9.56109C2.25279 9.93394 2.40107 10.2914 2.66471 10.5551C2.92836 10.8187 3.28583 10.967 3.65867 10.9673H3.65773ZM19.1255 3.9375C19.1255 3.56454 19.2737 3.20685 19.5374 2.94313C19.8012 2.67941 20.1588 2.53125 20.5318 2.53125C20.9048 2.53125 21.2624 2.67941 21.5262 2.94313C21.7899 3.20685 21.938 3.56454 21.938 3.9375C21.938 4.31046 21.7899 4.66815 21.5262 4.93187C21.2624 5.19559 20.9048 5.34375 20.5318 5.34375C20.1588 5.34375 19.8012 5.19559 19.5374 4.93187C19.2737 4.66815 19.1255 4.31046 19.1255 3.9375ZM20.5318 6.28125C21.4013 6.28249 22.2348 6.62844 22.8496 7.24326C23.4645 7.85809 23.8104 8.69161 23.8116 9.56109C23.8115 9.68538 23.7621 9.80453 23.6742 9.89241C23.5863 9.98029 23.4672 10.0297 23.3429 10.0298H17.7188C17.5945 10.0297 17.4754 9.98029 17.3875 9.89241C17.2996 9.80453 17.2502 9.68538 17.2501 9.56109C17.2509 8.69112 17.5969 7.85702 18.2121 7.24186C18.8273 6.62669 19.6614 6.28071 20.5313 6.27984L20.5318 6.28125ZM12.0943 2.99953C12.0943 2.62657 12.2425 2.26889 12.5062 2.00516C12.7699 1.74144 13.1276 1.59328 13.5005 1.59328C13.8735 1.59328 14.2312 1.74144 14.4949 2.00516C14.7586 2.26889 14.9068 2.62657 14.9068 2.99953C14.9068 3.37249 14.7586 3.73018 14.4949 3.9939C14.2312 4.25762 13.8735 4.40578 13.5005 4.40578C13.1276 4.40578 12.7699 4.25762 12.5062 3.9939C12.2425 3.73018 12.0943 3.37249 12.0943 2.99953ZM11.1779 6.30375C12.8963 4.50281 16.1579 5.39906 16.6829 7.84219C16.5208 8.24663 16.3968 8.66532 16.3126 9.09281H10.689C10.6049 8.66527 10.481 8.24656 10.3187 7.84219C10.4594 7.2605 10.7562 6.72846 11.1779 6.30375ZM5.06398 3.93703C5.06398 3.56407 5.21214 3.20639 5.47587 2.94266C5.73959 2.67894 6.09727 2.53078 6.47023 2.53078C6.8432 2.53078 7.20088 2.67894 7.4646 2.94266C7.72833 3.20639 7.87648 3.56407 7.87648 3.93703C7.87648 4.30999 7.72833 4.66768 7.4646 4.9314C7.20088 5.19512 6.8432 5.34328 6.47023 5.34328C6.09727 5.34328 5.73959 5.19512 5.47587 4.9314C5.21214 4.66768 5.06398 4.30999 5.06398 3.93703ZM6.47023 6.28078C7.33988 6.2819 8.1736 6.62786 8.78853 7.2428C9.40347 7.85773 9.74943 8.69144 9.75055 9.56109C9.75042 9.68538 9.701 9.80453 9.61312 9.89241C9.52524 9.98029 9.40608 10.0297 9.2818 10.0298H3.65773C3.53345 10.0297 3.4143 9.98029 3.32642 9.89241C3.23853 9.80453 3.18911 9.68538 3.18898 9.56109C3.18985 8.69112 3.53583 7.85702 4.151 7.24186C4.76617 6.62669 5.60026 6.28071 6.47023 6.27984V6.28078ZM26.6241 12.3736C26.6241 12.2493 26.5748 12.13 26.4868 12.0421C26.3989 11.9542 26.2797 11.9048 26.1554 11.9048H0.845703C0.721383 11.9048 0.602155 11.9542 0.514247 12.0421C0.426339 12.13 0.376953 12.2493 0.376953 12.3736V15.1861C0.383412 15.2309 0.392332 15.2754 0.403672 15.3192C0.436371 15.418 0.496925 15.5053 0.578047 15.5705L11.1568 22.9298V25.9655C11.1584 26.1163 11.1961 26.2646 11.2668 26.3979C11.3375 26.5311 11.4391 26.6456 11.563 26.7315C11.687 26.8175 11.8298 26.8725 11.9794 26.892C12.129 26.9114 12.281 26.8948 12.4229 26.8434L15.2354 25.7887C15.4138 25.7213 15.5675 25.6013 15.6762 25.4446C15.7849 25.2879 15.8435 25.102 15.8443 24.9112V22.9298L26.424 15.5705C26.5048 15.5052 26.565 15.4179 26.5974 15.3192C26.609 15.2754 26.6181 15.2309 26.6246 15.1861L26.6241 12.3736ZM1.31445 12.8423H25.6866V14.7173H1.31445V12.8423ZM15.1074 22.3003C15.0454 22.3435 14.9948 22.4011 14.9599 22.4681C14.925 22.5351 14.9067 22.6096 14.9068 22.6852V24.9112L12.0943 25.9659V22.6852C12.0943 22.6097 12.076 22.5353 12.0411 22.4684C12.0062 22.4015 11.9556 22.344 11.8937 22.3008L2.34055 15.6548H24.661L15.1074 22.3003Z" fill="white"/>
</svg>
