<svg width="24" height="34" viewBox="0 0 24 34" fill="none" xmlns="http://www.w3.org/2000/svg">
<path d="M9.65224 9.79464C9.65224 10.7319 10.7053 11.4946 11.9998 11.4946C13.785 11.4946 15.2375 12.6533 15.2375 14.0775C15.2375 15.3812 14.0203 16.4617 12.4449 16.6354V17.269C12.4449 17.5126 12.2458 17.7106 11.9998 17.7106C11.7539 17.7106 11.5547 17.513 11.5547 17.269V16.6354C9.97966 16.4617 8.76209 15.3812 8.76209 14.0775C8.76209 13.8338 8.96121 13.6359 9.20716 13.6359C9.45273 13.6359 9.65224 13.8335 9.65224 14.0775C9.65224 15.0148 10.7053 15.7775 11.9998 15.7775C13.2943 15.7775 14.3474 15.0152 14.3474 14.0775C14.3474 13.1402 13.2943 12.3775 11.9998 12.3775C10.2146 12.3775 8.76209 11.2189 8.76209 9.79464C8.76209 8.49093 9.97928 7.41049 11.5547 7.23671V6.45244C11.5547 6.20878 11.7539 6.01082 11.9998 6.01082C12.2458 6.01082 12.4449 6.2084 12.4449 6.45244V7.23671C14.0203 7.41049 15.2375 8.49093 15.2375 9.79464C15.2375 10.0383 15.0384 10.2363 14.7925 10.2363C14.5465 10.2363 14.3474 10.0387 14.3474 9.79464C14.3474 8.85738 13.2943 8.09464 11.9998 8.09464C10.7053 8.09464 9.65224 8.85738 9.65224 9.79464ZM11.9998 20.363C7.27496 20.363 3.43075 16.5489 3.43075 11.8607C3.43075 7.17249 7.27458 3.35807 11.9998 3.35807C16.725 3.35807 20.5689 7.17211 20.5689 11.8607C20.5685 16.5489 16.7247 20.363 11.9998 20.363ZM19.6787 11.8607C19.6787 7.65944 16.2339 4.24131 11.9998 4.24131C7.76572 4.24131 4.32089 7.65944 4.32089 11.8607C4.32089 16.062 7.76572 19.4801 11.9998 19.4801C16.2339 19.4801 19.6787 16.062 19.6787 11.8607ZM15.6601 23.2496V27.3579H17.5402C17.7184 27.3579 17.8794 27.4633 17.9495 27.6258C18.0195 27.7882 17.9852 27.9763 17.8623 28.1044L12.3215 33.8632C12.2378 33.9505 12.1213 34 11.9998 34C11.8784 34 11.7619 33.9505 11.6781 33.8632L6.13735 28.1044C6.01437 27.9767 5.98011 27.7882 6.05016 27.6258C6.12021 27.4633 6.28126 27.3579 6.45944 27.3579H8.33948V23.2496C6.02008 22.5118 3.94054 21.0558 2.45456 19.1239C0.848644 17.0359 2.0193e-08 14.5403 2.0193e-08 11.9068C-0.000380709 5.3414 5.38312 0 11.9998 0C18.6165 0 24 5.3414 24 11.9072C24 14.5403 23.1514 17.0359 21.5454 19.1242C20.0591 21.0562 17.9795 22.5118 15.6601 23.2496ZM14.77 27.7995V22.9228C14.77 22.7264 14.901 22.5533 15.0913 22.4986C19.8124 21.1442 23.1095 16.7888 23.1095 11.9072C23.1095 5.82873 18.1257 0.883244 11.9994 0.883244C5.8735 0.883244 0.889383 5.82836 0.889383 11.9072C0.889383 16.7888 4.18649 21.1442 8.90753 22.4986C9.09789 22.553 9.22886 22.726 9.22886 22.9228V27.7995C9.22886 28.0436 9.02974 28.2412 8.78379 28.2412H7.49845L11.9998 32.9188L16.5004 28.2408H15.2151C14.9695 28.2412 14.77 28.0432 14.77 27.7995Z" fill="white"/>
</svg>
