<svg width="30" height="30" viewBox="0 0 30 30" fill="none" xmlns="http://www.w3.org/2000/svg">
<path d="M12.286 24.5606C15.2922 24.5606 18.2972 23.4641 20.648 21.2776L22.2261 22.8545L20.6546 24.4274C20.5693 24.5129 20.5216 24.6285 20.5216 24.7491C20.5216 24.8696 20.5696 24.9853 20.655 25.0705L22.5625 26.9762L22.563 26.9769L22.5638 26.9774L24.6371 29.0488C25.2513 29.6626 26.0394 30 26.8572 30C26.8612 30 26.8654 30 26.8696 30C27.6754 29.9967 28.444 29.6697 29.0336 29.0796C29.6232 28.4894 29.9495 27.7206 29.9522 26.9148C29.9548 26.0925 29.6163 25.3 28.9987 24.6831L25.0164 20.7049C24.8393 20.5277 24.5512 20.5275 24.3736 20.7051L22.8689 22.2111L21.2908 20.6343C25.7603 15.8204 25.6544 8.26931 20.9702 3.58879C16.1773 -1.19908 8.38277 -1.19597 3.59468 3.59634C1.27511 5.91791 -0.00155248 9.00379 1.41683e-06 12.2857C0.00155536 15.5674 1.28088 18.6521 3.60223 20.9717C5.99727 23.3645 9.14131 24.5606 12.286 24.5606ZM29.0429 26.9119C29.0409 27.476 28.8091 28.0176 28.3902 28.437C27.9714 28.8561 27.4299 29.0885 26.8658 29.0907C26.286 29.0992 25.7244 28.8499 25.2795 28.4055L23.5273 26.655L26.6038 23.5758L28.3561 25.3265C28.8009 25.7707 29.0447 26.3338 29.0429 26.9119ZM24.6955 21.6694L25.9603 22.933L22.8839 26.0122L21.6191 24.7486L23.1904 23.1759L23.1908 23.1756L23.1911 23.1752L24.6955 21.6694ZM4.238 4.23922C6.45635 2.01889 9.37107 0.908715 12.2862 0.908715C15.1979 0.908715 18.1099 2.01644 20.3274 4.23212C24.7652 8.66614 24.768 15.8837 20.3342 20.3213C18.1865 22.471 15.3299 23.6558 12.2911 23.6571C12.2893 23.6571 12.2878 23.6571 12.286 23.6571C9.2492 23.6571 6.39352 22.475 4.24511 20.3284C2.09536 18.1806 0.910603 15.324 0.909271 12.2852C0.907939 9.24642 2.09003 6.38875 4.238 4.23922Z" fill="white"/>
<path d="M4.28441 17.1879C4.66745 17.8099 5.11676 18.3964 5.64654 18.9258C7.42068 20.6984 9.77821 21.6743 12.2858 21.6743C12.2871 21.6743 12.2889 21.6743 12.2902 21.6743C14.7994 21.6731 17.1582 20.6951 18.9317 18.92C19.4598 18.3914 19.9078 17.8061 20.2897 17.1854C20.3044 17.1668 20.3138 17.1464 20.3253 17.126C21.2029 15.6758 21.6812 14.0146 21.6804 12.2761C21.6782 7.09731 17.4646 2.88617 12.2862 2.88617C12.2851 2.88617 12.2834 2.88617 12.282 2.88617C9.77288 2.88728 7.41424 3.86537 5.64054 5.64039C3.86707 7.41564 2.89098 9.77517 2.89209 12.2843C2.89287 14.0165 3.36931 15.6717 4.24212 17.1175C4.25525 17.142 4.26679 17.166 4.28441 17.1879ZM18.2884 18.2774C16.6865 19.8806 14.5563 20.7641 12.2898 20.765C12.2885 20.765 12.2874 20.765 12.2858 20.765C10.0211 20.765 7.89152 19.8835 6.2892 18.2825C5.86553 17.8591 5.49578 17.397 5.17561 16.9071C6.66478 14.6043 9.11351 13.1901 11.8422 13.0527C11.9877 13.0717 12.135 13.0848 12.2856 13.0848C12.4365 13.0848 12.5841 13.0716 12.7299 13.0525C15.4574 13.1886 17.9064 14.6028 19.3965 16.9082C19.0778 17.3957 18.7097 17.8557 18.2884 18.2774ZM9.7802 9.67017C9.7802 8.28873 10.9041 7.1648 12.2856 7.1648C13.6672 7.1648 14.7912 8.28873 14.7912 9.67017C14.7912 10.9176 13.8737 11.9521 12.6786 12.1416C12.5515 12.1366 12.4249 12.1294 12.2969 12.1294C12.2914 12.1294 12.2858 12.1294 12.2803 12.1294C12.1506 12.1294 12.0223 12.1366 11.8936 12.1417C10.6981 11.9526 9.7802 10.9179 9.7802 9.67017ZM6.28387 6.28305C7.88575 4.67984 10.0162 3.79633 12.2825 3.79544C12.2838 3.79544 12.2849 3.79544 12.2862 3.79544C16.9629 3.79544 20.7691 7.59945 20.7711 12.2765C20.7717 13.5991 20.4634 14.8718 19.895 16.0243C18.5451 14.144 16.5922 12.8604 14.3774 12.3633C15.1808 11.7379 15.7004 10.7647 15.7004 9.67017C15.7004 7.78725 14.1685 6.25553 12.2856 6.25553C10.4027 6.25553 8.87094 7.78725 8.87094 9.67017C8.87094 10.7651 9.39097 11.7387 10.1947 12.364C7.97923 12.8616 6.02622 14.1449 4.67708 16.0233C4.11018 14.8733 3.802 13.6035 3.80136 12.2839C3.80025 10.0176 4.68199 7.88648 6.28387 6.28305Z" fill="white"/>
</svg>
