<svg width="30" height="30" viewBox="0 0 30 30" fill="none" xmlns="http://www.w3.org/2000/svg">
<path d="M15 0C6.72933 0 0 6.72933 0 14.999C0 23.2707 6.72933 30 15 30C23.2707 30 30 23.2707 30 14.999C30 6.72933 23.2707 0 15 0ZM15 27.9773C7.844 27.9773 2.02267 22.1547 2.02267 14.999C2.02267 7.84333 7.844 2.02267 15 2.02267C22.156 2.02267 27.9773 7.84333 27.9773 14.999C27.9773 22.1547 22.156 27.9773 15 27.9773Z" fill="white"/>
<path d="M15.3582 14.195C12.9949 13.731 11.8819 13.3814 11.8819 12.198C11.8819 11.3427 12.2522 10.7484 13.0136 10.379C14.3369 9.73903 16.5332 9.98803 17.7132 10.9164C18.1536 11.264 18.7886 11.187 19.1332 10.7464C19.4789 10.308 19.4029 9.67203 18.9632 9.32836C18.1552 8.69303 17.1042 8.28836 16.0106 8.10903V6.31236C16.0106 5.75336 15.5582 5.30103 14.9992 5.30103C14.4402 5.30103 13.9879 5.75336 13.9879 6.31236V8.05069C13.3259 8.12636 12.6899 8.28836 12.1302 8.56003C10.6656 9.27103 9.85889 10.5627 9.85889 12.198C9.85889 15.1744 12.8116 15.7554 14.9666 16.1797C17.2922 16.636 18.1179 16.95 18.1179 17.7994C18.1179 18.631 17.7672 19.2174 17.0466 19.5887C15.7766 20.2484 13.6522 20.0527 12.4039 19.168C11.9476 18.848 11.3166 18.9527 10.9946 19.409C10.6716 19.8654 10.7782 20.4954 11.2346 20.8194C12.0099 21.369 12.9816 21.7224 13.9879 21.8857V24.3037C13.9879 24.8627 14.4402 25.315 14.9992 25.315C15.5582 25.315 16.0106 24.8627 16.0106 24.3037V21.9127C16.7159 21.8334 17.3979 21.685 17.9759 21.3864C19.3712 20.6654 20.1406 19.3914 20.1406 17.7997C20.1412 15.1354 17.4896 14.614 15.3582 14.195Z" fill="white"/>
</svg>
