<svg width="46" height="46" viewBox="0 0 46 46" fill="none" xmlns="http://www.w3.org/2000/svg">
<g clip-path="url(#clip0_95_13469)">
<path d="M14.1561 24.557C15.4693 24.557 16.7529 24.1676 17.8447 23.4381C18.9366 22.7086 19.7876 21.6717 20.2901 20.4585C20.7926 19.2453 20.9241 17.9104 20.6679 16.6224C20.4117 15.3345 19.7794 14.1515 18.8509 13.223C17.9224 12.2945 16.7393 11.6621 15.4514 11.4059C14.1635 11.1497 12.8286 11.2812 11.6154 11.7837C10.4022 12.2862 9.3653 13.1372 8.63575 14.229C7.9062 15.3208 7.51679 16.6045 7.51678 17.9176C7.51875 19.6779 8.21889 21.3655 9.46357 22.6102C10.7083 23.8549 12.3959 24.555 14.1561 24.557ZM14.1561 14.0908C14.913 14.0908 15.6529 14.3152 16.2822 14.7357C16.9115 15.1562 17.402 15.7539 17.6917 16.4531C17.9813 17.1524 18.0571 17.9218 17.9094 18.6642C17.7618 19.4065 17.3973 20.0884 16.8621 20.6236C16.3269 21.1588 15.645 21.5233 14.9027 21.6709C14.1604 21.8186 13.3909 21.7428 12.6917 21.4531C11.9924 21.1635 11.3947 20.673 10.9742 20.0437C10.5537 19.4144 10.3293 18.6745 10.3293 17.9176C10.3304 16.903 10.734 15.9303 11.4514 15.2129C12.1688 14.4955 13.1415 14.0919 14.1561 14.0908ZM32.2716 16.9498C33.5848 16.9498 34.8684 16.5604 35.9602 15.8309C37.052 15.1013 37.903 14.0644 38.4055 12.8512C38.908 11.638 39.0395 10.303 38.7833 9.01513C38.5271 7.72723 37.8947 6.54422 36.9662 5.6157C36.0376 4.68719 34.8546 4.05487 33.5667 3.7987C32.2788 3.54254 30.9438 3.67404 29.7307 4.17657C28.5175 4.6791 27.4806 5.5301 26.7511 6.62194C26.0215 7.71379 25.6322 8.99744 25.6322 10.3106C25.6342 12.0708 26.3344 13.7584 27.5791 15.0031C28.8238 16.2477 30.5114 16.9479 32.2716 16.9498ZM32.2716 6.48365C33.0285 6.48366 33.7684 6.70812 34.3977 7.12863C35.027 7.54914 35.5175 8.14682 35.8071 8.84608C36.0967 9.54535 36.1725 10.3148 36.0248 11.0571C35.8772 11.7995 35.5127 12.4813 34.9775 13.0165C34.4423 13.5517 33.7604 13.9162 33.0181 14.0638C32.2757 14.2115 31.5063 14.1357 30.807 13.846C30.1078 13.5564 29.5101 13.0659 29.0896 12.4366C28.6691 11.8072 28.4447 11.0674 28.4447 10.3105C28.4458 9.29588 28.8494 8.32316 29.5668 7.60573C30.2843 6.8883 31.257 6.48476 32.2716 6.48365ZM35.3365 18.9413H29.2067C26.9069 18.9482 24.674 19.7161 22.8564 21.1251C21.0388 22.5342 19.7386 24.5052 19.1587 26.7307C18.5199 26.6094 17.8712 26.5484 17.221 26.5485H11.0912C8.33992 26.5516 5.70221 27.6459 3.75676 29.5914C1.81131 31.5368 0.716984 34.1745 0.713867 36.9258L0.713867 40.9628C0.713867 41.3357 0.862025 41.6934 1.12575 41.9572C1.38947 42.2209 1.74716 42.369 2.12012 42.369H26.1922C26.5652 42.369 26.9229 42.2209 27.1866 41.9572C27.4503 41.6934 27.5985 41.3357 27.5985 40.9628V36.9258C27.5986 36.1985 27.5223 35.4732 27.3708 34.7619H44.3076C44.6806 34.7619 45.0383 34.6138 45.302 34.35C45.5657 34.0863 45.7139 33.7286 45.7139 33.3557V29.3187C45.7108 26.5674 44.6164 23.9297 42.671 21.9842C40.7255 20.0388 38.0878 18.9445 35.3365 18.9414V18.9413ZM24.786 39.5566H3.52637V36.9259C3.52865 34.9203 4.32639 32.9974 5.74457 31.5793C7.16276 30.1611 9.08558 29.3633 11.0912 29.361H17.221C19.2267 29.3633 21.1495 30.161 22.5677 31.5792C23.9859 32.9974 24.7837 34.9202 24.786 36.9259V39.5566ZM42.9014 31.9494H26.3251C25.3021 30.0876 23.7359 28.5817 21.8353 27.6327C22.6146 24.2665 25.677 21.7539 29.2067 21.7539H35.3365C37.3422 21.7561 39.265 22.5539 40.6832 23.9721C42.1013 25.3902 42.8991 27.3131 42.9014 29.3187V31.9494Z" fill="black"/>
</g>
<defs>
<clipPath id="clip0_95_13469">
<rect width="45" height="45" fill="white" transform="translate(0.713867 0.52002)"/>
</clipPath>
</defs>
</svg>
