<svg width="45" height="45" viewBox="0 0 45 45" fill="none" xmlns="http://www.w3.org/2000/svg">
<path d="M39.9617 10.5553C39.8753 10.5877 39.796 10.6368 39.7285 10.6998C39.661 10.7628 39.6065 10.8385 39.5683 10.9225C39.53 11.0065 39.5087 11.0973 39.5055 11.1896C39.5023 11.2819 39.5173 11.3739 39.5497 11.4603C39.6314 11.6785 39.6732 11.9095 39.6729 12.1425V30.4975C39.6729 31.5809 38.7915 32.4623 37.7081 32.4623H8.33826C7.25483 32.4623 6.37338 31.5809 6.37338 30.4975V27.4116C6.37338 27.2251 6.2993 27.0463 6.16743 26.9144C6.03557 26.7826 5.85673 26.7085 5.67025 26.7085C5.48377 26.7085 5.30493 26.7826 5.17307 26.9144C5.0412 27.0463 4.96712 27.2251 4.96712 27.4116V30.4975C4.96712 32.3563 6.47946 33.8686 8.33826 33.8686H16.8662V36.7012H13.5082C11.8658 36.7012 10.5297 37.8321 10.5297 39.2223V41.0403C10.5297 41.2268 10.6038 41.4056 10.7357 41.5375C10.8675 41.6693 11.0464 41.7434 11.2328 41.7434H34.8133C34.9998 41.7434 35.1786 41.6693 35.3105 41.5375C35.4423 41.4056 35.5164 41.2268 35.5164 41.0403V39.2223C35.5164 37.8322 34.1803 36.7012 32.538 36.7012H29.1799V33.8686H37.708C39.5668 33.8686 41.0791 32.3563 41.0791 30.4975V12.1424C41.0791 11.7393 41.0076 11.344 40.8666 10.9673C40.8342 10.8808 40.7852 10.8016 40.7222 10.7341C40.6592 10.6665 40.5835 10.6121 40.4995 10.5739C40.4155 10.5356 40.3247 10.5143 40.2325 10.5111C40.1402 10.5079 40.0482 10.523 39.9617 10.5553ZM34.1103 39.2223V40.3372H11.9361V39.2223C11.9361 38.618 12.656 38.1075 13.5082 38.1075H32.5382C33.3903 38.1075 34.1103 38.618 34.1103 39.2223ZM27.7738 36.7012H18.2724V33.8686H27.7738V36.7012ZM4.96712 13.4589V12.1424C4.96712 10.2836 6.47946 8.77125 8.33826 8.77125H36.6409C36.8274 8.77125 37.0062 8.84533 37.1381 8.97719C37.2699 9.10905 37.344 9.28789 37.344 9.47437C37.344 9.66085 37.2699 9.8397 37.1381 9.97156C37.0062 10.1034 36.8274 10.1775 36.6409 10.1775H8.33826C7.25483 10.1775 6.37338 11.059 6.37338 12.1424V13.4589C6.37338 13.6454 6.2993 13.8242 6.16743 13.9561C6.03557 14.0879 5.85673 14.162 5.67025 14.162C5.48377 14.162 5.30493 14.0879 5.17307 13.9561C5.0412 13.8242 4.96712 13.6454 4.96712 13.4589ZM34.8346 11.0024C35.021 11.0024 35.1999 11.0764 35.3317 11.2083C35.4636 11.3402 35.5377 11.519 35.5377 11.7055C35.5377 11.892 35.4636 12.0708 35.3317 12.2027C35.1999 12.3345 35.021 12.4086 34.8346 12.4086H8.60439V13.482C8.60439 13.6685 8.53031 13.8473 8.39845 13.9792C8.26659 14.1111 8.08775 14.1851 7.90127 14.1851C7.71479 14.1851 7.53594 14.1111 7.40408 13.9792C7.27222 13.8473 7.19814 13.6685 7.19814 13.482V12.0755C7.19814 11.4838 7.67961 11.0024 8.27129 11.0024H34.8346ZM8.60439 27.4114V27.9681H37.4417V13.7622C37.4417 13.5757 37.5158 13.3969 37.6477 13.265C37.7795 13.1332 37.9584 13.0591 38.1449 13.0591C38.3313 13.0591 38.5102 13.1332 38.6421 13.265C38.7739 13.3969 38.848 13.5757 38.848 13.7622V28.6712C38.848 28.8577 38.7739 29.0365 38.6421 29.1684C38.5102 29.3002 38.3313 29.3743 38.1449 29.3743H7.90127C7.71479 29.3743 7.53594 29.3002 7.40408 29.1684C7.27222 29.0365 7.19814 28.8577 7.19814 28.6712V27.4114C7.19814 27.225 7.27222 27.0461 7.40408 26.9143C7.53594 26.7824 7.71479 26.7083 7.90127 26.7083C8.08775 26.7083 8.26659 26.7824 8.39845 26.9143C8.53031 27.0461 8.60439 27.225 8.60439 27.4114ZM12.5937 25.9479C12.6596 25.8745 12.7094 25.7881 12.7397 25.6942C12.7701 25.6004 12.7803 25.5011 12.7698 25.4031C12.5277 23.1407 11.0693 21.2875 9.08427 20.4582C9.74178 19.8354 10.1533 18.9552 10.1533 17.9803C10.1533 16.0974 8.62144 14.5654 6.73856 14.5654C4.85568 14.5654 3.32375 16.0974 3.32375 17.9803C3.32375 18.9552 3.73516 19.8354 4.39276 20.4582C2.40766 21.2874 0.949293 23.1407 0.707154 25.4031C0.696605 25.5011 0.706827 25.6004 0.737155 25.6942C0.767483 25.7881 0.817238 25.8746 0.883182 25.9479C0.949126 26.0213 1.02978 26.08 1.1199 26.1201C1.21002 26.1603 1.30758 26.181 1.40624 26.181H12.0707C12.1694 26.181 12.2669 26.1603 12.357 26.1201C12.4471 26.08 12.5277 26.0213 12.5937 25.9479ZM6.73856 15.9718C7.84607 15.9718 8.74704 16.8728 8.74704 17.9803C8.74704 19.0878 7.84607 19.9889 6.73856 19.9889C5.63105 19.9889 4.73 19.0878 4.73 17.9803C4.73 16.8728 5.63105 15.9718 6.73856 15.9718ZM2.25561 24.7748C2.81337 22.8022 4.62013 21.3951 6.73847 21.3951C8.85681 21.3951 10.6636 22.8022 11.2213 24.7748H2.25561ZM44.2807 4.10953L43.7571 6.50938C43.6744 6.88881 43.2991 7.12928 42.9203 7.04648C42.7969 7.0196 42.6831 6.95999 42.5907 6.87391C42.4983 6.78783 42.4308 6.67846 42.3953 6.55728L29.1642 22.8992C29.0983 22.9806 29.015 23.0463 28.9205 23.0914C28.8259 23.1365 28.7225 23.1599 28.6177 23.1599L28.6065 23.1598C28.4998 23.1581 28.395 23.1322 28.2999 23.084C28.2047 23.0358 28.1218 22.9665 28.0574 22.8816L22.7688 15.9052L13.9305 22.8113C13.7834 22.9241 13.5977 22.9743 13.4138 22.9509C13.2299 22.9274 13.0627 22.8324 12.9486 22.6863C12.8345 22.5402 12.7826 22.355 12.8044 22.1709C12.8261 21.9868 12.9196 21.8188 13.0647 21.7033L22.4652 14.3579C22.5386 14.3005 22.6227 14.2583 22.7126 14.2337C22.8025 14.2091 22.8964 14.2027 22.9889 14.2147C23.0813 14.2267 23.1704 14.257 23.251 14.3038C23.3316 14.3506 23.4021 14.4129 23.4584 14.4872L28.6359 21.317L41.5684 5.34386L41.4674 5.37603C41.0974 5.49451 40.7019 5.2899 40.5838 4.91997C40.4658 4.55004 40.67 4.15444 41.0399 4.0364L43.38 3.28986C43.4976 3.25235 43.623 3.24644 43.7435 3.27274C43.8641 3.29904 43.9757 3.35662 44.067 3.43969C44.1582 3.52276 44.226 3.62839 44.2636 3.74597C44.3011 3.86356 44.307 3.98894 44.2807 4.10953Z" fill="black"/>
</svg>
