<svg width="32" height="32" viewBox="0 0 32 32" fill="none" xmlns="http://www.w3.org/2000/svg">
<path d="M16.1934 0.855469C19.455 0.941884 22.5963 2.14459 25.1211 4.27344C27.5692 6.3377 29.3006 9.15933 30.0684 12.3154L30.9844 12.2246L31.2402 12.1992L31.1357 12.4346L29.8311 15.3906L29.7227 15.6357L29.5703 15.415L27.7412 12.7725L27.5957 12.5625L27.8496 12.5371L28.6006 12.4619C27.8828 9.7021 26.3445 7.23975 24.1943 5.42676C21.9197 3.5089 19.0921 2.42549 16.1562 2.34766C13.2203 2.26987 10.3417 3.20126 7.97461 4.99609C5.6076 6.79094 3.88612 9.34774 3.08203 12.2637L3.04199 12.4111L2.89551 12.3682L1.78223 12.042L1.64062 12L1.67969 11.8584C2.57116 8.62522 4.48083 5.78828 7.1084 3.7959C9.7359 1.80365 12.9319 0.769144 16.1934 0.855469Z" fill="black" stroke="black" stroke-width="0.3"/>
<path d="M4.14941 19.5117L4.32617 19.6934L4.08203 19.7607L3.16406 20.0137C3.9872 22.7756 5.63848 25.2009 7.88574 26.9355C10.2379 28.751 13.1085 29.7073 16.0449 29.6553C18.9814 29.6032 21.818 28.5453 24.1084 26.6475C26.3989 24.7495 28.0132 22.1189 28.6953 19.1699L28.7295 19.0225L28.877 19.0586L30.0029 19.335L30.1465 19.3701L30.1133 19.5146C29.357 22.784 27.5674 25.702 25.0254 27.8086C22.4832 29.9152 19.3325 31.0906 16.0703 31.1484C12.808 31.2062 9.61987 30.1433 7.00879 28.1279C4.5015 26.1926 2.66465 23.4842 1.75684 20.4023L1.04004 20.6006L0.789062 20.6699L0.854492 20.4189L1.66992 17.2812L1.7373 17.0234L4.14941 19.5117Z" fill="black" stroke="black" stroke-width="0.3"/>
<path d="M15.8174 4.59961C18.5825 4.59961 20.8164 6.91011 20.8164 9.75C20.8164 12.5899 18.5825 14.9004 15.8174 14.9004C13.0524 14.9003 10.8184 12.5898 10.8184 9.75C10.8184 6.91018 13.0524 4.59972 15.8174 4.59961ZM15.8174 6.15039C13.8962 6.1505 12.3311 7.75745 12.3311 9.75C12.3311 11.7426 13.8962 13.3495 15.8174 13.3496C17.7387 13.3496 19.3037 11.7426 19.3037 9.75C19.3037 7.75739 17.7387 6.15039 15.8174 6.15039Z" fill="black" stroke="black" stroke-width="0.3"/>
<path d="M18.8486 15.4326C21.725 15.4328 24.0486 17.8363 24.0488 20.791V25.7334H22.5371V20.583C22.5371 18.5904 20.9711 16.9834 19.0498 16.9834H12.585C10.6638 16.9835 9.09865 18.5905 9.09863 20.583V25.7334H7.58594V20.791C7.58613 17.8362 9.9106 15.4327 12.7871 15.4326H18.8486Z" fill="black" stroke="black" stroke-width="0.3"/>
</svg>
