<svg width="55" height="56" viewBox="0 0 55 56" fill="none" xmlns="http://www.w3.org/2000/svg">
<g clip-path="url(#clip0_24_70)">
<g clip-path="url(#clip1_24_70)">
<g clip-path="url(#clip2_24_70)">
<path opacity="0.2" d="M27.5 55.39C42.6878 55.39 55 43.0778 55 27.89C55 12.7022 42.6878 0.390015 27.5 0.390015C12.3122 0.390015 0 12.7022 0 27.89C0 43.0778 12.3122 55.39 27.5 55.39Z" fill="url(#paint0_linear_24_70)"/>
<g clip-path="url(#clip3_24_70)">
<path fill-rule="evenodd" clip-rule="evenodd" d="M21.4725 28.2326V15.9896C21.4725 14.664 22.5847 13.5806 23.9672 13.5806H38.4484C39.8309 13.5806 40.9431 14.664 40.9431 15.9896V28.2326C40.9431 28.8736 40.6789 29.4889 40.2063 29.942C39.74 30.3892 39.108 30.6416 38.4484 30.6416H23.9672C23.3077 30.6416 22.6757 30.3892 22.2093 29.942C21.7367 29.4889 21.4725 28.8736 21.4725 28.2326ZM40.1196 16.9261V15.9896C40.1192 15.5713 39.9444 15.1707 39.6359 14.8749C39.3211 14.573 38.8937 14.4044 38.4484 14.4041H23.9672C23.5219 14.4044 23.0946 14.573 22.7797 14.8749C22.4712 15.1707 22.2964 15.5713 22.296 15.9896V16.9261H40.1196ZM22.296 17.7496V28.2326C22.296 28.651 22.4707 29.0517 22.7793 29.3476C23.0942 29.6496 23.5218 29.8181 23.9672 29.8181H38.4484C38.8938 29.8181 39.3214 29.6496 39.6363 29.3476C39.9449 29.0517 40.1196 28.651 40.1196 28.2326V17.7496H22.296ZM35.848 25.0755C35.2364 25.0755 34.9294 25.8166 35.3619 26.2491C35.6498 26.5369 35.6498 27.0052 35.3619 27.293L34.6598 27.9952C34.3719 28.283 33.9037 28.283 33.6159 27.9952C33.1833 27.5627 32.4423 27.8697 32.4423 28.4813C32.4423 28.89 32.1118 29.2192 31.7043 29.2192H30.7113C30.3038 29.2192 29.9733 28.89 29.9733 28.4813C29.9733 27.869 29.2327 27.5623 28.7998 27.9952C28.5117 28.2833 28.0444 28.2833 27.7565 27.9953L27.0537 27.293C26.7658 27.0052 26.7658 26.5369 27.0537 26.2491C27.4862 25.8166 27.1795 25.0755 26.5676 25.0755C26.1602 25.0755 25.8297 24.745 25.8297 24.3376V23.3445C25.8297 22.9371 26.1602 22.6066 26.5676 22.6066C27.1795 22.6066 27.4862 21.8656 27.0537 21.433C26.7656 21.145 26.7656 20.6777 27.0537 20.3897L27.7564 19.6869C28.0444 19.3989 28.5117 19.3989 28.7998 19.6869C29.2323 20.1194 29.9733 19.8127 29.9733 19.2009C29.9733 18.7934 30.3038 18.4629 30.7113 18.4629H31.7043C32.1118 18.4629 32.4423 18.7934 32.4423 19.2009C32.4423 19.8127 33.1833 20.1194 33.6159 19.6869C33.9037 19.3991 34.3719 19.3991 34.6598 19.6869L35.3619 20.3897C35.65 20.6777 35.65 21.145 35.3619 21.433C34.9294 21.8656 35.2364 22.6066 35.848 22.6066C36.2568 22.6066 36.5859 22.9371 36.5859 23.3445V24.3376C36.5859 24.745 36.2568 25.0755 35.848 25.0755ZM26.6532 23.4279V24.2542C27.9126 24.3201 28.5386 25.8328 27.6948 26.7695L28.2796 27.3539C29.217 26.5096 30.7289 27.1356 30.7947 28.3956H31.621C31.6869 27.137 33.1996 26.5103 34.1363 27.3541L34.7209 26.7695C33.877 25.8329 34.5038 24.3202 35.7624 24.2542V23.4279C34.5039 23.362 33.8772 21.8496 34.7206 20.9129L34.1362 20.328C33.1996 21.1719 31.6868 20.5458 31.621 19.2864H30.7947C30.7288 20.5457 29.2164 21.1717 28.2797 20.3283L27.695 20.9129C28.5384 21.8496 27.9124 23.362 26.6532 23.4279ZM31.2081 26.8116C29.5718 26.8116 28.2378 25.4769 28.2378 23.8413C28.2378 22.205 29.5718 20.871 31.2081 20.871C32.8437 20.871 34.1784 22.205 34.1784 23.8413C34.1784 25.4769 32.8437 26.8116 31.2081 26.8116ZM31.2081 25.9881C32.3902 25.9881 33.3549 25.0234 33.3549 23.8413C33.3549 22.6587 32.3902 21.6946 31.2081 21.6946C30.0255 21.6946 29.0613 22.6587 29.0613 23.8413C29.0613 25.0234 30.0255 25.9881 31.2081 25.9881ZM35.4475 15.1682C35.7219 15.1682 35.9447 15.3909 35.9447 15.6651C35.9447 15.9394 35.7219 16.162 35.4475 16.162C35.173 16.162 34.9503 15.9394 34.9503 15.6651C34.9503 15.3909 35.173 15.1682 35.4475 15.1682ZM37.135 15.1682C37.4094 15.1682 37.6323 15.3909 37.6323 15.6651C37.6323 15.9394 37.4094 16.162 37.135 16.162C36.8606 16.162 36.6377 15.9394 36.6377 15.6651C36.6377 15.3909 36.8606 15.1682 37.135 15.1682ZM38.8225 15.1682C39.097 15.1682 39.3197 15.3909 39.3197 15.6651C39.3197 15.9394 39.097 16.162 38.8225 16.162C38.548 16.162 38.3253 15.9394 38.3253 15.6651C38.3253 15.3909 38.548 15.1682 38.8225 15.1682ZM20.6092 39.7217L20.8074 40.1981L20.8076 40.1985C20.9342 40.5047 20.9344 40.8132 20.8094 41.1212L20.8087 41.1229C20.6821 41.4267 20.4639 41.6457 20.1567 41.7751L20.1556 41.7756L18.295 42.5469C17.6824 42.8026 16.9732 42.5092 16.7192 41.8972C15.6695 39.3749 14.6183 36.8525 13.5686 34.3302C13.4393 34.0246 13.4389 33.7143 13.5663 33.4065C13.6933 33.0993 13.9127 32.8801 14.2178 32.753L16.0803 31.98C16.6924 31.7259 17.3994 32.0166 17.656 32.6292L17.6562 32.6296L17.8283 33.0431C18.7455 32.6095 19.6614 32.1731 20.5731 31.7272C21.8023 31.1258 22.7712 30.7262 23.8997 30.8787C24.6367 30.9783 25.4484 31.314 26.447 32.0135L29.8863 32.9347C30.4712 33.0914 30.931 33.4892 31.1873 33.9926L36.0085 32.5783C38.0703 31.9734 39.2107 32.4111 39.7119 33.0886C40.0446 33.5382 40.1309 34.1206 40.0064 34.6962C39.8308 35.5077 39.2318 36.2956 38.415 36.6107L31.1494 39.4104C29.9316 39.8791 28.3047 40.536 26.9977 40.1565L23.127 39.0336L23.1264 39.0335C22.6655 38.8989 22.2233 38.9363 21.791 39.1468L20.6092 39.7217ZM20.0464 40.5135C19.9312 40.2363 17.0082 33.2164 16.896 32.9468C16.8145 32.7526 16.5904 32.6601 16.3962 32.7407L14.5342 33.5135C14.4374 33.5539 14.3678 33.6236 14.3274 33.7212C14.2876 33.8175 14.287 33.9145 14.3281 34.0114L14.3286 34.0127C15.3784 36.5354 16.4298 39.058 17.4797 41.5809L17.4798 41.581C17.5602 41.7747 17.7844 41.8677 17.9787 41.7863L19.8388 41.0152L19.8394 41.0149C19.9367 40.9736 20.0069 40.9043 20.0482 40.8063C20.0869 40.7089 20.0867 40.6109 20.0464 40.5135ZM20.292 38.96L21.4304 38.4063C22.0541 38.1025 22.6922 38.0486 23.3565 38.2426L27.2273 39.3654C27.7732 39.5239 28.3842 39.4473 28.9862 39.293C29.6463 39.1238 30.2958 38.8564 30.8534 38.6418L38.1185 35.8423C38.6787 35.6261 39.0809 35.0786 39.2013 34.522C39.2741 34.1854 39.2443 33.8414 39.0497 33.5785C38.8844 33.355 38.6044 33.2009 38.2029 33.1392C37.7138 33.0639 37.0689 33.1256 36.2404 33.3687L31.4079 34.7863C31.4236 35.0118 31.4017 35.2384 31.343 35.4567C31.0501 36.5505 29.9143 37.2066 28.8211 36.9119L24.1562 35.6627C24.0507 35.6344 23.9608 35.5654 23.9062 35.4709C23.8515 35.3763 23.8367 35.2639 23.8649 35.1584C23.8932 35.0529 23.9622 34.963 24.0568 34.9083C24.1514 34.8537 24.2638 34.8389 24.3693 34.8671L29.0342 36.1162L29.0349 36.1164C29.6908 36.2932 30.3717 35.8995 30.5474 35.2436C30.7231 34.5874 30.3293 33.9062 29.6732 33.7304L26.163 32.7901C26.1158 32.7774 26.0711 32.7565 26.0312 32.7282C25.1457 32.0996 24.438 31.7827 23.7894 31.695C22.8174 31.5637 21.9937 31.9492 20.9351 32.4671C20.0084 32.9203 19.0774 33.3638 18.1452 33.8044C18.8606 35.5229 19.5765 37.2414 20.292 38.96Z" fill="white"/>
</g>
</g>
</g>
</g>
<defs>
<linearGradient id="paint0_linear_24_70" x1="0" y1="27.89" x2="55" y2="27.89" gradientUnits="userSpaceOnUse">
<stop stop-color="#6DFAD9"/>
<stop offset="1" stop-color="#2755EE"/>
</linearGradient>
<clipPath id="clip0_24_70">
<rect width="55" height="55" fill="white" transform="translate(0 0.390015)"/>
</clipPath>
<clipPath id="clip1_24_70">
<rect width="55" height="55" fill="white" transform="translate(0 0.390015)"/>
</clipPath>
<clipPath id="clip2_24_70">
<rect width="55" height="55" fill="white" transform="translate(0 0.390015)"/>
</clipPath>
<clipPath id="clip3_24_70">
<rect width="30" height="30" fill="white" transform="translate(12.207 13.11)"/>
</clipPath>
</defs>
</svg>
