<svg width="55" height="56" viewBox="0 0 55 56" fill="none" xmlns="http://www.w3.org/2000/svg">
<g clip-path="url(#clip0_9_56)">
<g clip-path="url(#clip1_9_56)">
<path opacity="0.2" d="M27.5 55.28C42.6878 55.28 55 42.9679 55 27.78C55 12.5922 42.6878 0.280029 27.5 0.280029C12.3122 0.280029 0 12.5922 0 27.78C0 42.9679 12.3122 55.28 27.5 55.28Z" fill="url(#paint0_linear_9_56)"/>
<path fill-rule="evenodd" clip-rule="evenodd" d="M34.656 38.8327H31.4892C31.3759 38.8327 31.2672 38.7882 31.187 38.7089C31.1069 38.6297 31.0618 38.5222 31.0618 38.4101V30.129C31.0618 30.017 31.1069 29.9095 31.187 29.8302C31.2672 29.751 31.3759 29.7064 31.4892 29.7064H34.656C34.7693 29.7064 34.878 29.751 34.9582 29.8302C35.0383 29.9095 35.0833 30.017 35.0833 30.129V38.4101C35.0833 38.5222 35.0383 38.6297 34.9582 38.7089C34.878 38.7882 34.7693 38.8327 34.656 38.8327ZM31.9165 37.9875H34.2285V30.5516H31.9165V37.9875ZM18.4263 38.8327H15.2596C15.1462 38.8327 15.0375 38.7882 14.9574 38.7089C14.8772 38.6297 14.8322 38.5222 14.8322 38.4101V29.5495C14.8322 29.4374 14.8772 29.3299 14.9574 29.2507C15.0375 29.1714 15.1462 29.1269 15.2596 29.1269H18.4263C18.5397 29.1269 18.6484 29.1714 18.7285 29.2507C18.8087 29.3299 18.8537 29.4374 18.8537 29.5495V38.4101C18.8537 38.5222 18.8087 38.6297 18.7285 38.7089C18.6484 38.7882 18.5397 38.8327 18.4263 38.8327ZM15.687 37.9875H17.999V29.9721H15.687V37.9875ZM23.8362 38.8327H20.6695C20.5561 38.8327 20.4474 38.7882 20.3673 38.7089C20.2871 38.6297 20.2421 38.5222 20.2421 38.4101V32.0959C20.2421 31.9838 20.2871 31.8763 20.3673 31.7971C20.4474 31.7178 20.5561 31.6733 20.6695 31.6733H23.8362C23.9496 31.6733 24.0583 31.7178 24.1384 31.7971C24.2186 31.8763 24.2636 31.9838 24.2636 32.0959V38.4101C24.2636 38.5222 24.2186 38.6297 24.1384 38.7089C24.0583 38.7882 23.9496 38.8327 23.8362 38.8327ZM21.0969 37.9875H23.4089V32.5185H21.0969V37.9875ZM29.2461 38.8327H26.0793C25.966 38.8327 25.8573 38.7882 25.7771 38.7089C25.697 38.6297 25.6519 38.5222 25.6519 38.4101V28.1484C25.6519 28.0363 25.697 27.9288 25.7771 27.8495C25.8573 27.7703 25.966 27.7258 26.0793 27.7258H29.2461C29.3594 27.7258 29.4681 27.7703 29.5483 27.8495C29.6284 27.9288 29.6734 28.0363 29.6734 28.1484V38.4101C29.6734 38.5222 29.6284 38.6297 29.5483 38.7089C29.4681 38.7882 29.3594 38.8327 29.2461 38.8327ZM26.5067 37.9875H28.8187V28.571H26.5067V37.9875ZM40.0658 38.8327H36.899C36.7857 38.8327 36.677 38.7882 36.5968 38.7089C36.5167 38.6297 36.4717 38.5222 36.4717 38.4101V25.7818C36.4717 25.6697 36.5167 25.5622 36.5968 25.483C36.677 25.4037 36.7857 25.3592 36.899 25.3592H40.0658C40.1791 25.3592 40.2878 25.4037 40.368 25.483C40.4481 25.5622 40.4932 25.6697 40.4932 25.7818V38.4102C40.4932 38.5223 40.4481 38.6297 40.368 38.709C40.2878 38.7882 40.1791 38.8327 40.0658 38.8327ZM37.3264 37.9875H39.6384V26.2044H37.3264V37.9875ZM33.4416 25.3156C33.3437 25.3156 33.2489 25.2824 33.1728 25.2216L30.7064 23.249C30.6627 23.2141 30.6265 23.171 30.5996 23.1222C30.5728 23.0735 30.556 23.02 30.5501 22.9648C30.5442 22.9096 30.5494 22.8538 30.5653 22.8006C30.5812 22.7474 30.6075 22.6978 30.6428 22.6546C30.6781 22.6115 30.7217 22.5756 30.771 22.5491C30.8203 22.5226 30.8744 22.506 30.9302 22.5001C30.986 22.4943 31.0425 22.4994 31.0963 22.5151C31.1501 22.5309 31.2003 22.5569 31.2439 22.5918L33.3076 24.2423L36.3498 18.5864C36.3862 18.5187 36.4405 18.4621 36.507 18.4226C36.5734 18.3831 36.6495 18.3622 36.727 18.3622H40.9114C41.0248 18.3622 41.1335 18.4068 41.2136 18.486C41.2938 18.5653 41.3388 18.6728 41.3388 18.7848C41.3388 18.8969 41.2938 19.0044 41.2136 19.0837C41.1335 19.1629 41.0248 19.2074 40.9114 19.2074H36.9838L33.8189 25.0915C33.7824 25.1592 33.7281 25.2158 33.6616 25.2552C33.5952 25.2947 33.5191 25.3156 33.4416 25.3156ZM21.884 26.988C21.8248 26.988 21.7662 26.9758 21.712 26.9522C21.6578 26.9287 21.6091 26.8942 21.5691 26.851L18.4105 23.4446H14.414C14.3006 23.4446 14.1919 23.4001 14.1117 23.3209C14.0316 23.2416 13.9866 23.1341 13.9866 23.022C13.9866 22.91 14.0316 22.8025 14.1117 22.7232C14.1919 22.644 14.3006 22.5994 14.414 22.5994H18.5983C18.6576 22.5994 18.7162 22.6116 18.7704 22.6352C18.8246 22.6588 18.8733 22.6932 18.9134 22.7364L21.8825 25.9384L24.3435 23.2581C24.4201 23.1769 24.526 23.1288 24.6383 23.1242C24.7505 23.1196 24.86 23.1589 24.9432 23.2336C25.0264 23.3082 25.0765 23.4123 25.0827 23.5232C25.0889 23.6341 25.0507 23.7429 24.9764 23.8262L22.2006 26.8495C22.1606 26.893 22.1119 26.9278 22.0576 26.9516C22.0034 26.9755 21.9446 26.9879 21.8852 26.988H21.884Z" fill="white"/>
<path fill-rule="evenodd" clip-rule="evenodd" d="M39.6971 20.2938C39.6107 20.2939 39.5263 20.268 39.4551 20.2197C39.3839 20.1714 39.3291 20.1029 39.2981 20.0232C39.267 19.9435 39.2611 19.8564 39.2811 19.7733C39.3011 19.6902 39.3462 19.6151 39.4102 19.5578L40.2743 18.7848L39.4102 18.0119C39.3682 17.9747 39.334 17.9298 39.3096 17.8795C39.2852 17.8293 39.2711 17.7748 39.2681 17.7191C39.2651 17.6635 39.2732 17.6078 39.2921 17.5553C39.3109 17.5028 39.3401 17.4545 39.3779 17.4131C39.4157 17.3718 39.4614 17.3383 39.5124 17.3145C39.5633 17.2907 39.6186 17.2771 39.6749 17.2745C39.7312 17.2719 39.7874 17.2803 39.8404 17.2993C39.8934 17.3183 39.9421 17.3474 39.9836 17.3851L41.1981 18.4715C41.2424 18.5111 41.2777 18.5595 41.302 18.6134C41.3262 18.6674 41.3387 18.7258 41.3387 18.7848C41.3387 18.8439 41.3262 18.9023 41.302 18.9563C41.2777 19.0102 41.2424 19.0586 41.1981 19.0982L39.9836 20.1846C39.9052 20.255 39.803 20.294 39.6971 20.2938ZM15.6282 24.5309C15.5223 24.531 15.4201 24.4921 15.3417 24.4217L14.1272 23.3353C14.0829 23.2957 14.0475 23.2474 14.0233 23.1934C13.9991 23.1394 13.9866 23.081 13.9866 23.022C13.9866 22.9629 13.9991 22.9045 14.0233 22.8506C14.0475 22.7966 14.0829 22.7482 14.1272 22.7086L15.3417 21.6222C15.4257 21.547 15.5365 21.5079 15.6498 21.5135C15.763 21.5191 15.8693 21.569 15.9453 21.6521C16.0214 21.7352 16.0609 21.8448 16.0553 21.9567C16.0496 22.0687 15.9992 22.1738 15.9151 22.249L15.051 23.022L15.9151 23.795C15.9792 23.8523 16.0242 23.9274 16.0441 24.0105C16.0641 24.0935 16.0582 24.1806 16.0272 24.2603C15.9961 24.34 15.9413 24.4085 15.8701 24.4568C15.7989 24.5051 15.7146 24.5309 15.6282 24.5309Z" fill="white"/>
<path fill-rule="evenodd" clip-rule="evenodd" d="M27.6622 23.6628C27.1632 23.6628 26.7087 23.4196 26.4761 23.0281C26.4472 22.9803 26.4282 22.9272 26.4201 22.8721C26.412 22.8169 26.415 22.7607 26.429 22.7067C26.443 22.6526 26.4676 22.6019 26.5015 22.5574C26.5354 22.5128 26.5779 22.4753 26.6265 22.4471C26.6751 22.4188 26.7289 22.4004 26.7848 22.3928C26.8406 22.3852 26.8975 22.3886 26.952 22.4028C27.0065 22.417 27.0576 22.4418 27.1024 22.4756C27.1472 22.5094 27.1848 22.5517 27.2131 22.6C27.2916 22.7322 27.4679 22.8176 27.6622 22.8176C27.926 22.8176 28.1489 22.6578 28.1489 22.4686C28.1489 22.2794 27.926 22.1196 27.6622 22.1196C26.9225 22.1196 26.3207 21.5838 26.3207 20.9254C26.3207 20.2669 26.9225 19.7312 27.6622 19.7312C28.1804 19.7312 28.6572 20.0002 28.8767 20.4166C28.9027 20.4658 28.9186 20.5196 28.9235 20.5749C28.9284 20.6301 28.9223 20.6858 28.9054 20.7388C28.8886 20.7917 28.8614 20.8408 28.8253 20.8834C28.7892 20.9259 28.7451 20.961 28.6953 20.9866C28.5948 21.0384 28.4776 21.0487 28.3695 21.015C28.2614 20.9814 28.1712 20.9066 28.1188 20.8073C28.0582 20.6923 27.8935 20.5763 27.6622 20.5763C27.3983 20.5763 27.1754 20.7361 27.1754 20.9253C27.1754 21.1145 27.3983 21.2743 27.6622 21.2743C28.4018 21.2743 29.0037 21.81 29.0037 22.4685C29.0037 23.127 28.4018 23.6628 27.6622 23.6628Z" fill="white"/>
<path fill-rule="evenodd" clip-rule="evenodd" d="M27.6637 24.069C27.5504 24.069 27.4417 24.0245 27.3615 23.9453C27.2814 23.866 27.2363 23.7585 27.2363 23.6465V23.2401C27.2363 23.128 27.2814 23.0205 27.3615 22.9413C27.4417 22.862 27.5504 22.8175 27.6637 22.8175C27.7771 22.8175 27.8858 22.862 27.9659 22.9413C28.0461 23.0205 28.0911 23.128 28.0911 23.2401V23.6465C28.0911 23.7585 28.0461 23.866 27.9659 23.9453C27.8858 24.0245 27.7771 24.069 27.6637 24.069ZM27.6637 20.5764C27.5504 20.5764 27.4417 20.5318 27.3615 20.4526C27.2814 20.3733 27.2363 20.2658 27.2363 20.1538V19.7475C27.2363 19.6355 27.2814 19.528 27.3615 19.4487C27.4417 19.3695 27.5504 19.325 27.6637 19.325C27.7771 19.325 27.8858 19.3695 27.9659 19.4487C28.0461 19.528 28.0911 19.6355 28.0911 19.7475V20.1538C28.0911 20.2658 28.0461 20.3733 27.9659 20.4526C27.8858 20.5318 27.7771 20.5764 27.6637 20.5764Z" fill="white"/>
<path fill-rule="evenodd" clip-rule="evenodd" d="M27.6617 25.6149C26.6033 25.6149 25.6083 25.2074 24.8599 24.4674C24.1114 23.7274 23.6993 22.7435 23.6993 21.697C23.6993 20.6505 24.1115 19.6666 24.8599 18.9266C25.6083 18.1866 26.6033 17.7791 27.6617 17.7791C28.7201 17.7791 29.7151 18.1867 30.4635 18.9266C31.2119 19.6667 31.624 20.6505 31.624 21.697C31.624 22.7436 31.2119 23.7274 30.4635 24.4674C29.7151 25.2074 28.7201 25.6149 27.6617 25.6149ZM27.6617 18.6242C25.9482 18.6242 24.5541 20.0026 24.5541 21.697C24.5541 23.3913 25.9481 24.7698 27.6617 24.7698C29.3753 24.7698 30.7693 23.3913 30.7693 21.697C30.7693 20.0026 29.3752 18.6242 27.6617 18.6242Z" fill="white"/>
</g>
</g>
<defs>
<linearGradient id="paint0_linear_9_56" x1="0" y1="27.78" x2="55" y2="27.78" gradientUnits="userSpaceOnUse">
<stop stop-color="#6DFAD9"/>
<stop offset="1" stop-color="#2755EE"/>
</linearGradient>
<clipPath id="clip0_9_56">
<rect width="55" height="55" fill="white" transform="translate(0 0.280029)"/>
</clipPath>
<clipPath id="clip1_9_56">
<rect width="55" height="55" fill="white" transform="translate(0 0.280029)"/>
</clipPath>
</defs>
</svg>
