<svg width="55" height="56" viewBox="0 0 55 56" fill="none" xmlns="http://www.w3.org/2000/svg">
<g clip-path="url(#clip0_24_57)">
<g clip-path="url(#clip1_24_57)">
<g clip-path="url(#clip2_24_57)">
<path opacity="0.2" d="M27.5 55.39C42.6878 55.39 55 43.0778 55 27.89C55 12.7022 42.6878 0.390015 27.5 0.390015C12.3122 0.390015 0 12.7022 0 27.89C0 43.0778 12.3122 55.39 27.5 55.39Z" fill="url(#paint0_linear_24_57)"/>
<g clip-path="url(#clip3_24_57)">
<path d="M21.207 29.1725H27.707V30.1725H21.207V29.1725ZM21.207 26.6725H26.707V27.6725H21.207V26.6725Z" fill="white"/>
<path d="M40.707 15.6725H35.207V13.6725C35.207 13.5399 35.1544 13.4127 35.0606 13.3189C34.9668 13.2252 34.8396 13.1725 34.707 13.1725H19.707C19.5744 13.1725 19.4472 13.2252 19.3535 13.3189C19.2597 13.4127 19.207 13.5399 19.207 13.6725V15.6725H13.707C12.8787 15.6725 12.207 16.3441 12.207 17.1725V32.1725C12.207 33.0009 12.8787 33.6725 13.707 33.6725H24.707V36.6725H20.207C20.0744 36.6725 19.9472 36.7252 19.8535 36.8189C19.7597 36.9127 19.707 37.0399 19.707 37.1725V39.6725H18.707V40.6725H35.707V39.6725H34.707V37.1725C34.707 37.0399 34.6544 36.9127 34.5606 36.8189C34.4668 36.7252 34.3396 36.6725 34.207 36.6725H29.707V33.6725H40.707C41.5354 33.6725 42.207 33.0009 42.207 32.1725V17.1725C42.207 16.3441 41.5354 15.6725 40.707 15.6725ZM40.707 16.6725C40.8396 16.6725 40.9668 16.7252 41.0606 16.8189C41.1544 16.9127 41.207 17.0399 41.207 17.1725V29.6725H35.207V24.0375L37.6311 21.149C38.238 20.423 38.253 19.3709 37.667 18.6278C37.081 17.8849 36.0547 17.6542 35.207 18.075V16.6725H40.707ZM31.4016 27.017L29.8697 25.7315L34.3697 20.3695L35.9016 21.6549L31.4016 27.017ZM29.52 26.7435L30.4656 27.537L29.332 27.9281L29.52 26.7435ZM36.865 20.506L36.5435 20.8885L35.0115 19.6029L35.333 19.2201C35.6882 18.797 36.3191 18.7418 36.742 19.097C37.1651 19.452 37.2202 20.0829 36.865 20.506H36.865ZM20.207 14.1725H34.207V19.0065L28.782 25.4725C28.7238 25.5418 28.6855 25.6256 28.6712 25.7149L28.2132 28.5945C28.1998 28.6797 28.2086 28.767 28.2389 28.8477C28.2692 28.9285 28.3199 29 28.386 29.0553C28.4522 29.1107 28.5315 29.148 28.6163 29.1636C28.7012 29.1792 28.7886 29.1726 28.8701 29.1444L31.626 28.1944C31.7116 28.1654 31.7877 28.1136 31.846 28.0445L34.207 25.2294V31.1725H20.207V14.1725ZM13.707 16.6725H19.207V29.6725H13.207V17.1725C13.207 17.0399 13.2597 16.9127 13.3535 16.8189C13.4472 16.7252 13.5744 16.6725 13.707 16.6725ZM33.707 39.6725H20.707V37.6725H33.707V39.6725ZM28.707 36.6725H25.707V33.6725H28.707V36.6725ZM40.707 32.6725H13.707C13.5744 32.6725 13.4472 32.6198 13.3535 32.526C13.2597 32.4323 13.207 32.3051 13.207 32.1725V30.6725H19.207V31.6725C19.207 31.8051 19.2597 31.9323 19.3535 32.026C19.4472 32.1198 19.5744 32.1725 19.707 32.1725H34.707C34.8396 32.1725 34.9668 32.1198 35.0606 32.026C35.1544 31.9323 35.207 31.8051 35.207 31.6725V30.6725H41.207V32.1725C41.207 32.3051 41.1544 32.4323 41.0606 32.526C40.9668 32.6198 40.8396 32.6725 40.707 32.6725Z" fill="white"/>
<path d="M39.207 31.1725H40.207V32.1725H39.207V31.1725ZM21.207 15.1725H23.207V16.1725H21.207V15.1725ZM24.207 15.1725H32.707V16.1725H24.207V15.1725ZM21.207 17.6725H32.707V18.6725H21.207V17.6725ZM21.207 20.1725H22.207V21.1725H21.207V20.1725ZM23.207 20.1725H24.207V21.1725H23.207V20.1725ZM25.207 20.1725H30.707V21.1725H25.207V20.1725ZM21.207 22.6725H24.207V23.6725H21.207V22.6725ZM25.207 22.6725H28.707V23.6725H25.207V22.6725Z" fill="white"/>
</g>
</g>
</g>
</g>
<defs>
<linearGradient id="paint0_linear_24_57" x1="0" y1="27.89" x2="55" y2="27.89" gradientUnits="userSpaceOnUse">
<stop stop-color="#6DFAD9"/>
<stop offset="1" stop-color="#2755EE"/>
</linearGradient>
<clipPath id="clip0_24_57">
<rect width="55" height="55" fill="white" transform="translate(0 0.390015)"/>
</clipPath>
<clipPath id="clip1_24_57">
<rect width="55" height="55" fill="white" transform="translate(0 0.390015)"/>
</clipPath>
<clipPath id="clip2_24_57">
<rect width="55" height="55" fill="white" transform="translate(0 0.390015)"/>
</clipPath>
<clipPath id="clip3_24_57">
<rect width="30" height="30" fill="white" transform="translate(12.207 13.11)"/>
</clipPath>
</defs>
</svg>
