<svg width="31" height="31" viewBox="0 0 31 31" fill="none" xmlns="http://www.w3.org/2000/svg">
<path fill-rule="evenodd" clip-rule="evenodd" d="M8.07136 18.5879C8.31049 18.9828 8.44164 19.4877 8.44164 20.1104C8.44164 20.9729 8.18991 21.6095 7.74814 22.0408C7.30637 22.472 6.65422 22.7178 5.77063 22.7178C4.88703 22.7178 4.23488 22.472 3.79311 22.0408C3.35135 21.6095 3.09961 20.9729 3.09961 20.1104C3.09961 19.2478 3.35135 18.6112 3.79311 18.1799C4.23488 17.7487 4.88703 17.5029 5.77063 17.5029C6.33772 17.5029 6.8095 17.6041 7.19149 17.7907L10.4589 14.2924C10.2031 13.8914 10.0623 13.3727 10.0623 12.7275C10.0623 11.865 10.314 11.2284 10.7558 10.7971C11.1975 10.3659 11.8497 10.1201 12.7333 10.1201C13.6169 10.1201 14.269 10.3659 14.7108 10.7971C15.1526 11.2284 15.4043 11.865 15.4043 12.7275C15.4043 13.511 15.1966 14.1081 14.8274 14.5342L17.1639 17.6585C17.4784 17.5568 17.8415 17.5029 18.2554 17.5029C18.8414 17.5029 19.3257 17.611 19.7142 17.8096C20.3681 17.1719 22.1775 15.2799 23.0168 14.3995C22.7148 13.9853 22.547 13.4317 22.547 12.7275C22.547 11.865 22.7988 11.2284 23.2405 10.7971C23.6823 10.3659 24.3344 10.1201 25.218 10.1201C26.1016 10.1201 26.7538 10.3659 27.1955 10.7971C27.6373 11.2284 27.8891 11.865 27.8891 12.7275C27.8891 13.5901 27.6373 14.2267 27.1955 14.658C26.7538 15.0892 26.1016 15.335 25.218 15.335C24.7314 15.335 24.315 15.2604 23.9653 15.1214C23.1877 15.9304 21.3821 17.8042 20.5684 18.6085C20.7998 19.0004 20.9264 19.4985 20.9264 20.1104C20.9264 20.9729 20.6747 21.6095 20.2329 22.0408C19.7911 22.472 19.139 22.7178 18.2554 22.7178C17.3718 22.7178 16.7196 22.472 16.2779 22.0408C15.8361 21.6095 15.5844 20.9729 15.5844 20.1104C15.5844 19.3273 15.7918 18.7305 16.1606 18.3044L13.8238 15.1797C13.5096 15.2812 13.1468 15.335 12.7333 15.335C12.1886 15.335 11.7319 15.2416 11.3582 15.0689L8.07136 18.5879ZM4.30007 20.1104C4.30007 20.5957 4.39334 20.9695 4.64196 21.2121C4.89057 21.4548 5.2734 21.5459 5.77063 21.5459C6.26786 21.5459 6.65068 21.4548 6.8993 21.2121C7.14791 20.9695 7.24119 20.5957 7.24119 20.1104C7.24119 19.625 7.14791 19.2512 6.8993 19.0086C6.65068 18.7659 6.26786 18.6748 5.77063 18.6748C5.2734 18.6748 4.89057 18.7659 4.64196 19.0086C4.39334 19.2512 4.30007 19.625 4.30007 20.1104ZM11.2627 12.7275C11.2627 13.2129 11.356 13.5866 11.6046 13.8293C11.8532 14.072 12.2361 14.1631 12.7333 14.1631C13.2305 14.1631 13.6133 14.072 13.8619 13.8293C14.1106 13.5866 14.2038 13.2129 14.2038 12.7275C14.2038 12.2421 14.1106 11.8684 13.8619 11.6257C13.6133 11.383 13.2305 11.292 12.7333 11.292C12.2361 11.292 11.8532 11.383 11.6046 11.6257C11.356 11.8684 11.2627 12.2421 11.2627 12.7275ZM16.7848 20.1104C16.7848 20.5957 16.8781 20.9695 17.1267 21.2121C17.3753 21.4548 17.7582 21.5459 18.2554 21.5459C18.7526 21.5459 19.1354 21.4548 19.3841 21.2121C19.6327 20.9695 19.7259 20.5957 19.7259 20.1104C19.7259 19.625 19.6327 19.2512 19.3841 19.0086C19.1354 18.7659 18.7526 18.6748 18.2554 18.6748C17.7582 18.6748 17.3753 18.7659 17.1267 19.0086C16.8781 19.2512 16.7848 19.625 16.7848 20.1104ZM23.7475 12.7275C23.7475 13.2129 23.8407 13.5866 24.0894 13.8293C24.338 14.072 24.7208 14.1631 25.218 14.1631C25.7153 14.1631 26.0981 14.072 26.3467 13.8293C26.5953 13.5866 26.6886 13.2129 26.6886 12.7275C26.6886 12.2421 26.5953 11.8684 26.3467 11.6257C26.0981 11.383 25.7153 11.292 25.218 11.292C24.7208 11.292 24.338 11.383 24.0894 11.6257C23.8407 11.8684 23.7475 12.2421 23.7475 12.7275ZM5.89019 24.439C5.6989 24.175 5.76312 23.809 6.03353 23.6222C6.30399 23.4355 6.67889 23.4982 6.87025 23.7621C7.36033 24.4384 8.16164 24.7354 9.40759 24.9045C10.8456 25.0996 12.8197 25.0967 15.5297 25.0967C18.4602 25.0967 20.5303 25.1278 21.9925 24.9199C22.8416 24.7991 23.463 24.6071 23.9068 24.2363C24.4586 23.7753 24.7089 23.052 24.8585 21.9651C25.0309 20.7128 25.0422 19.0239 25.0432 16.7468C25.0434 16.4234 25.3125 16.161 25.6438 16.1611C25.975 16.1613 26.2439 16.424 26.2437 16.7474C26.2423 19.5782 26.2149 21.5311 25.9144 22.8786C25.6844 23.9094 25.2921 24.6213 24.6874 25.1266C24.0987 25.6185 23.2921 25.9193 22.1655 26.0795C20.6641 26.293 18.5388 26.2686 15.5297 26.2686C12.1694 26.2686 9.90452 26.2599 8.37748 25.9115C7.20793 25.6446 6.4274 25.1802 5.89019 24.439ZM6.01612 16.5713C6.01612 16.8947 5.74716 17.1572 5.41589 17.1572C5.08463 17.1572 4.81566 16.8947 4.81566 16.5713V15.8096C4.81566 12.7992 4.82107 10.6922 5.09861 9.21713C5.30749 8.10695 5.67549 7.32273 6.25567 6.75631C6.83591 6.18994 7.63926 5.8307 8.77651 5.6268C10.2876 5.35586 12.446 5.35059 15.5297 5.35059C18.96 5.35059 21.2496 5.36037 22.7785 5.73033C24.5267 6.15338 25.4035 7.00047 25.8443 8.69248C25.9259 9.0059 25.7315 9.32506 25.4105 9.4048C25.0895 9.48449 24.7625 9.29471 24.6808 8.98135C24.3661 7.77297 23.7381 7.16986 22.4896 6.86781C21.0219 6.51262 18.8228 6.52246 15.5297 6.52246C12.5452 6.52246 10.4558 6.51719 8.99337 6.77939C8.14825 6.93092 7.53572 7.16406 7.10458 7.585C6.67337 8.00588 6.43454 8.60383 6.27932 9.42883C6.01072 10.8564 6.01612 12.8961 6.01612 15.8096V16.5713Z" fill="white"/>
</svg>
