<svg width="55" height="56" viewBox="0 0 55 56" fill="none" xmlns="http://www.w3.org/2000/svg">
<g clip-path="url(#clip0_24_47)">
<g clip-path="url(#clip1_24_47)">
<g clip-path="url(#clip2_24_47)">
<path opacity="0.2" d="M27.5 55.39C42.6878 55.39 55 43.0778 55 27.89C55 12.7022 42.6878 0.390015 27.5 0.390015C12.3122 0.390015 0 12.7022 0 27.89C0 43.0778 12.3122 55.39 27.5 55.39Z" fill="url(#paint0_linear_24_47)"/>
<g clip-path="url(#clip3_24_47)">
<path d="M25.5228 35.1258C24.8886 35.1258 24.373 34.6111 24.373 33.9769C24.373 33.3426 24.8886 32.8275 25.5228 32.8275C26.157 32.8275 26.6727 33.3426 26.6727 33.9769C26.6727 34.6111 26.157 35.1258 25.5228 35.1258ZM25.5228 33.7955C25.4747 33.7955 25.4285 33.8146 25.3944 33.8486C25.3603 33.8826 25.3411 33.9287 25.3409 33.9769C25.3409 34.177 25.7047 34.177 25.7047 33.9769C25.7046 33.9287 25.6853 33.8826 25.6513 33.8486C25.6172 33.8146 25.571 33.7955 25.5228 33.7955ZM29.8447 35.1258C29.2109 35.1258 28.6958 34.6111 28.6958 33.9769C28.6958 33.3426 29.2109 32.8275 29.8452 32.8275C30.4794 32.8275 30.9941 33.3426 30.9941 33.9769C30.9941 34.6111 30.4784 35.1258 29.8447 35.1258ZM29.8447 33.7955C29.7966 33.7955 29.7504 33.8146 29.7164 33.8486C29.6824 33.8826 29.6633 33.9288 29.6633 33.9769C29.6633 34.177 30.0266 34.177 30.0266 33.9769C30.0266 33.9288 30.0074 33.8826 29.9734 33.8486C29.9394 33.8146 29.8928 33.7955 29.8447 33.7955ZM33.4648 24.09C33.3601 23.9526 33.2249 23.8413 33.0698 23.7649C32.9148 23.6886 32.7442 23.6492 32.5714 23.6498H21.5764L21.2905 22.5787C21.2196 22.314 21.0634 22.08 20.846 21.913C20.6286 21.7461 20.3622 21.6555 20.0881 21.6553H19.3667C19.2384 21.6553 19.1154 21.7063 19.0247 21.797C18.9339 21.8877 18.883 22.0108 18.883 22.1391C18.883 22.2674 18.9339 22.3904 19.0247 22.4811C19.1154 22.5718 19.2384 22.6228 19.3667 22.6228H20.0881C20.2133 22.6228 20.3225 22.7072 20.3553 22.8286L22.6667 31.4705C22.7495 31.7787 22.9316 32.0512 23.1847 32.2456C23.4379 32.4399 23.7481 32.5455 24.0673 32.5458H31.8252C31.9535 32.5458 32.0766 32.4948 32.1674 32.404C32.2581 32.3133 32.3091 32.1901 32.3091 32.0618C32.3091 31.9334 32.2581 31.8103 32.1674 31.7196C32.0766 31.6288 31.9535 31.5778 31.8252 31.5778H24.0673C23.8494 31.5778 23.6577 31.4306 23.6014 31.2206L23.4252 30.5611H30.7086C31.1356 30.5606 31.5505 30.4193 31.8892 30.1593C32.2279 29.8993 32.4714 29.5349 32.5822 29.1225L33.6603 25.0664C33.7052 24.8996 33.7109 24.7247 33.677 24.5553C33.6431 24.3859 33.5705 24.2267 33.4648 24.09ZM32.6975 24.6797C32.7153 24.7031 32.7425 24.7514 32.7247 24.818L32.2452 26.6217H30.5455L30.815 24.6178H32.5714C32.6398 24.6178 32.6792 24.6562 32.6975 24.6797ZM29.5695 26.6217H27.7911V24.6178H29.8395L29.5695 26.6217ZM26.8236 24.6178V26.6217H25.047L24.7752 24.6178H26.8236ZM23.7987 24.6178L24.0702 26.6217H22.3737L21.837 24.6178H23.7987ZM24.2014 27.5897L24.4728 29.5931H23.1697L22.633 27.5897H24.2014ZM25.1783 27.5897H26.8236V29.5931H25.4492L25.1783 27.5897ZM27.7911 29.5931V27.5897H29.4392L29.1692 29.5931H27.7911ZM30.7086 29.5931H30.1461L30.4156 27.5897H31.9883L31.647 28.8731C31.5917 29.0795 31.4698 29.2619 31.3004 29.3921C31.1309 29.5222 30.9232 29.5929 30.7095 29.5931H30.7086ZM20.4027 16.3828C20.4027 16.2626 20.3549 16.1473 20.2699 16.0623C20.1849 15.9773 20.0696 15.9295 19.9494 15.9295H14.9712C14.851 15.9295 14.7357 15.9773 14.6507 16.0623C14.5657 16.1473 14.518 16.2626 14.518 16.3828C14.518 16.503 14.5657 16.6183 14.6507 16.7033C14.7357 16.7883 14.851 16.8361 14.9712 16.8361H19.9494C20.0696 16.8361 20.1849 16.7883 20.2699 16.7033C20.3549 16.6183 20.4027 16.503 20.4027 16.3828ZM34.0733 16.3828C34.0733 16.5111 34.0223 16.6341 33.9316 16.7249C33.8409 16.8156 33.7178 16.8666 33.5895 16.8666C33.4612 16.8666 33.3382 16.8156 33.2475 16.7249C33.1567 16.6341 33.1058 16.5111 33.1058 16.3828C33.1058 16.2545 33.1567 16.1315 33.2475 16.0407C33.3382 15.95 33.4612 15.8991 33.5895 15.8991C33.7178 15.8991 33.8409 15.95 33.9316 16.0407C34.0223 16.1315 34.0733 16.2545 34.0733 16.3828ZM35.5859 15.8991C35.4576 15.8991 35.3345 15.95 35.2437 16.0408C35.1529 16.1316 35.102 16.2547 35.102 16.383C35.102 16.5114 35.1529 16.6345 35.2437 16.7253C35.3345 16.816 35.4576 16.867 35.5859 16.867C35.7143 16.867 35.8374 16.816 35.9282 16.7253C36.0189 16.6345 36.0699 16.5114 36.0699 16.383C36.0699 16.2547 36.0189 16.1316 35.9282 16.0408C35.8374 15.95 35.7143 15.8991 35.5859 15.8991ZM37.5823 15.8991C37.454 15.8991 37.3309 15.95 37.2401 16.0408C37.1493 16.1316 37.0984 16.2547 37.0984 16.383C37.0984 16.5114 37.1493 16.6345 37.2401 16.7253C37.3309 16.816 37.454 16.867 37.5823 16.867C37.7107 16.867 37.8338 16.816 37.9246 16.7253C38.0153 16.6345 38.0663 16.5114 38.0663 16.383C38.0663 16.2547 38.0153 16.1316 37.9246 16.0408C37.8338 15.95 37.7107 15.8991 37.5823 15.8991ZM41.8527 37.0444L40.3686 35.7933C40.3695 35.7637 40.3742 35.7342 40.3742 35.7042V16.7995C40.3742 15.3464 39.1883 14.1605 37.7352 14.1605H14.8461C13.393 14.1605 12.207 15.3464 12.207 16.7995V35.7042C12.207 37.1573 13.393 38.3433 14.8461 38.3433H35.1608L35.1612 40.1559C35.1612 40.5464 35.3806 40.8914 35.7341 41.0569C36.0847 41.22 36.492 41.1694 36.7916 40.9209L37.6981 40.1672L38.2025 41.2514C38.3586 41.5898 38.6384 41.8467 38.9881 41.9742C39.1602 42.0371 39.343 42.0655 39.5261 42.0577C39.7092 42.0499 39.8889 42.0061 40.055 41.9287C40.2213 41.8519 40.3707 41.7429 40.4946 41.6079C40.6185 41.473 40.7144 41.3149 40.7769 41.1426C40.8402 40.9708 40.8688 40.7881 40.8609 40.6051C40.853 40.4221 40.8089 40.2425 40.7309 40.0767L40.227 38.9916L41.3867 38.7844C41.5732 38.7519 41.7464 38.6665 41.8857 38.5383C42.025 38.4102 42.1245 38.2447 42.1723 38.0616C42.2224 37.8792 42.2188 37.6863 42.1621 37.5059C42.1055 37.3255 41.998 37.1653 41.8527 37.0444ZM13.1727 16.7995C13.1727 15.8808 13.9227 15.1308 14.8461 15.1308H37.7352C38.6586 15.1308 39.4086 15.8808 39.4086 16.7995V17.6339H13.1727V16.7995ZM35.1594 33.5391L35.1603 37.3734H14.8461C14.4031 37.3734 13.9781 37.1978 13.6644 36.8849C13.3508 36.5721 13.1739 36.1477 13.1727 35.7047V18.6047H39.4086V34.9842L36.7934 32.7792C36.6491 32.6563 36.4724 32.5777 36.2845 32.5527C36.0966 32.5278 35.9054 32.5576 35.7341 32.6386C35.5617 32.7173 35.4157 32.8442 35.3137 33.0039C35.2118 33.1637 35.1582 33.3495 35.1594 33.5391ZM41.2156 37.8319L39.4381 38.1492C39.3652 38.1622 39.2962 38.1918 39.2365 38.2358C39.1768 38.2797 39.128 38.3367 39.0938 38.4025C39.0597 38.4683 39.0411 38.541 39.0395 38.6151C39.0379 38.6892 39.0534 38.7627 39.0847 38.8298L39.8534 40.4859C39.8772 40.5364 39.8908 40.5911 39.8933 40.6469C39.8958 40.7027 39.8872 40.7584 39.868 40.8108C39.8289 40.9169 39.7498 41.0034 39.6477 41.0517C39.5968 41.0754 39.5417 41.0887 39.4856 41.0911C39.4296 41.0934 39.3736 41.0846 39.3209 41.0653C39.2679 41.0464 39.2193 41.0171 39.1778 40.9791C39.1363 40.9411 39.1029 40.8952 39.0795 40.8441L38.3108 39.1898C38.2718 39.1064 38.2098 39.0358 38.1321 38.9863C38.0543 38.9368 37.9642 38.9105 37.872 38.9105C37.7605 38.9105 37.6508 38.9489 37.5627 39.022L36.1292 40.1559L36.1695 33.5184L41.2287 37.7841L41.2156 37.8319Z" fill="white"/>
</g>
</g>
</g>
</g>
<defs>
<linearGradient id="paint0_linear_24_47" x1="0" y1="27.89" x2="55" y2="27.89" gradientUnits="userSpaceOnUse">
<stop stop-color="#6DFAD9"/>
<stop offset="1" stop-color="#2755EE"/>
</linearGradient>
<clipPath id="clip0_24_47">
<rect width="55" height="55" fill="white" transform="translate(0 0.390015)"/>
</clipPath>
<clipPath id="clip1_24_47">
<rect width="55" height="55" fill="white" transform="translate(0 0.390015)"/>
</clipPath>
<clipPath id="clip2_24_47">
<rect width="55" height="55" fill="white" transform="translate(0 0.390015)"/>
</clipPath>
<clipPath id="clip3_24_47">
<rect width="30" height="30" fill="white" transform="translate(12.207 13.11)"/>
</clipPath>
</defs>
</svg>
