<svg width="31" height="31" viewBox="0 0 31 31" fill="none" xmlns="http://www.w3.org/2000/svg">
<path d="M11.457 18.2344H1.45703C1.12551 18.2344 0.807568 18.3661 0.573148 18.6005C0.338727 18.8349 0.207031 19.1529 0.207031 19.4844L0.207031 26.3594C0.207031 26.6909 0.338727 27.0088 0.573148 27.2433C0.807568 27.4777 1.12551 27.6094 1.45703 27.6094H4.58203V28.8594H3.95703C3.79127 28.8594 3.6323 28.9252 3.51509 29.0424C3.39788 29.1596 3.33203 29.3186 3.33203 29.4844C3.33203 29.6501 3.39788 29.8091 3.51509 29.9263C3.6323 30.0435 3.79127 30.1094 3.95703 30.1094H8.95703C9.12279 30.1094 9.28176 30.0435 9.39897 29.9263C9.51618 29.8091 9.58203 29.6501 9.58203 29.4844C9.58203 29.3186 9.51618 29.1596 9.39897 29.0424C9.28176 28.9252 9.12279 28.8594 8.95703 28.8594H8.33203V27.6094H11.457C11.7886 27.6094 12.1065 27.4777 12.3409 27.2433C12.5753 27.0088 12.707 26.6909 12.707 26.3594V19.4844C12.707 19.1529 12.5753 18.8349 12.3409 18.6005C12.1065 18.3661 11.7886 18.2344 11.457 18.2344ZM7.08203 28.8594H5.83203V27.6094H7.08203V28.8594ZM1.45703 26.3594V19.4844H11.457V26.3594H1.45703ZM28.957 18.2344H18.957C18.6255 18.2344 18.3076 18.3661 18.0731 18.6005C17.8387 18.8349 17.707 19.1529 17.707 19.4844V26.3594C17.707 26.6909 17.8387 27.0088 18.0731 27.2433C18.3076 27.4777 18.6255 27.6094 18.957 27.6094H22.082V28.8594H21.457C21.2913 28.8594 21.1323 28.9252 21.0151 29.0424C20.8979 29.1596 20.832 29.3186 20.832 29.4844C20.832 29.6501 20.8979 29.8091 21.0151 29.9263C21.1323 30.0435 21.2913 30.1094 21.457 30.1094H26.457C26.6228 30.1094 26.7818 30.0435 26.899 29.9263C27.0162 29.8091 27.082 29.6501 27.082 29.4844C27.082 29.3186 27.0162 29.1596 26.899 29.0424C26.7818 28.9252 26.6228 28.8594 26.457 28.8594H25.832V27.6094H28.957C29.2886 27.6094 29.6065 27.4777 29.8409 27.2433C30.0753 27.0088 30.207 26.6909 30.207 26.3594V19.4844C30.207 19.1529 30.0753 18.8349 29.8409 18.6005C29.6065 18.3661 29.2886 18.2344 28.957 18.2344ZM24.582 28.8594H23.332V27.6094H24.582V28.8594ZM18.957 26.3594V19.4844H28.957V26.3594H18.957ZM10.207 9.48438H13.332V10.7344H12.707C12.5413 10.7344 12.3823 10.8002 12.2651 10.9174C12.1479 11.0346 12.082 11.1936 12.082 11.3594C12.082 11.5251 12.1479 11.6841 12.2651 11.8013C12.3823 11.9185 12.5413 11.9844 12.707 11.9844H17.707C17.8728 11.9844 18.0318 11.9185 18.149 11.8013C18.2662 11.6841 18.332 11.5251 18.332 11.3594C18.332 11.1936 18.2662 11.0346 18.149 10.9174C18.0318 10.8002 17.8728 10.7344 17.707 10.7344H17.082V9.48438H20.207C20.5386 9.48438 20.8565 9.35268 21.0909 9.11826C21.3253 8.88384 21.457 8.5659 21.457 8.23438V1.35938C21.457 1.02785 21.3253 0.709912 21.0909 0.475492C20.8565 0.241071 20.5386 0.109375 20.207 0.109375L10.207 0.109375C9.87551 0.109375 9.55757 0.241071 9.32315 0.475492C9.08873 0.709912 8.95703 1.02785 8.95703 1.35938V8.23438C8.95703 8.5659 9.08873 8.88384 9.32315 9.11826C9.55757 9.35268 9.87551 9.48438 10.207 9.48438ZM15.832 10.7344H14.582V9.48438H15.832V10.7344ZM10.207 1.35938H20.207V8.23438H10.207V1.35938ZM23.332 16.3594C23.332 16.5251 23.3979 16.6841 23.5151 16.8013C23.6323 16.9185 23.7913 16.9844 23.957 16.9844C24.1228 16.9844 24.2818 16.9185 24.399 16.8013C24.5162 16.6841 24.582 16.5251 24.582 16.3594V15.1094C24.582 14.9436 24.5162 14.7846 24.399 14.6674C24.2818 14.5502 24.1228 14.4844 23.957 14.4844H15.832V13.8594C15.832 13.6936 15.7662 13.5346 15.649 13.4174C15.5318 13.3002 15.3728 13.2344 15.207 13.2344C15.0413 13.2344 14.8823 13.3002 14.7651 13.4174C14.6479 13.5346 14.582 13.6936 14.582 13.8594V14.4844H6.45703C6.29127 14.4844 6.1323 14.5502 6.01509 14.6674C5.89788 14.7846 5.83203 14.9436 5.83203 15.1094V16.3594C5.83203 16.5251 5.89788 16.6841 6.01509 16.8013C6.1323 16.9185 6.29127 16.9844 6.45703 16.9844C6.62279 16.9844 6.78176 16.9185 6.89897 16.8013C7.01618 16.6841 7.08203 16.5251 7.08203 16.3594V15.7344H23.332V16.3594Z" fill="white"/>
</svg>
