<svg width="55" height="56" viewBox="0 0 55 56" fill="none" xmlns="http://www.w3.org/2000/svg">
<g clip-path="url(#clip0_24_36)">
<g clip-path="url(#clip1_24_36)">
<g clip-path="url(#clip2_24_36)">
<path opacity="0.2" d="M27.5 55.39C42.6878 55.39 55 43.0778 55 27.89C55 12.7022 42.6878 0.390015 27.5 0.390015C12.3122 0.390015 0 12.7022 0 27.89C0 43.0778 12.3122 55.39 27.5 55.39Z" fill="url(#paint0_linear_24_36)"/>
<g clip-path="url(#clip3_24_36)">
<path d="M23.457 31.235H13.457C13.1255 31.235 12.8076 31.3667 12.5731 31.6011C12.3387 31.8355 12.207 32.1535 12.207 32.485V39.36C12.207 39.6915 12.3387 40.0094 12.5731 40.2439C12.8076 40.4783 13.1255 40.61 13.457 40.61H16.582V41.86H15.957C15.7913 41.86 15.6323 41.9258 15.5151 42.043C15.3979 42.1603 15.332 42.3192 15.332 42.485C15.332 42.6507 15.3979 42.8097 15.5151 42.9269C15.6323 43.0441 15.7913 43.11 15.957 43.11H20.957C21.1228 43.11 21.2818 43.0441 21.399 42.9269C21.5162 42.8097 21.582 42.6507 21.582 42.485C21.582 42.3192 21.5162 42.1603 21.399 42.043C21.2818 41.9258 21.1228 41.86 20.957 41.86H20.332V40.61H23.457C23.7886 40.61 24.1065 40.4783 24.3409 40.2439C24.5753 40.0094 24.707 39.6915 24.707 39.36V32.485C24.707 32.1535 24.5753 31.8355 24.3409 31.6011C24.1065 31.3667 23.7886 31.235 23.457 31.235ZM19.082 41.86H17.832V40.61H19.082V41.86ZM13.457 39.36V32.485H23.457V39.36H13.457ZM40.957 31.235H30.957C30.6255 31.235 30.3076 31.3667 30.0731 31.6011C29.8387 31.8355 29.707 32.1535 29.707 32.485V39.36C29.707 39.6915 29.8387 40.0094 30.0731 40.2439C30.3076 40.4783 30.6255 40.61 30.957 40.61H34.082V41.86H33.457C33.2913 41.86 33.1323 41.9258 33.0151 42.043C32.8979 42.1603 32.832 42.3192 32.832 42.485C32.832 42.6507 32.8979 42.8097 33.0151 42.9269C33.1323 43.0441 33.2913 43.11 33.457 43.11H38.457C38.6228 43.11 38.7818 43.0441 38.899 42.9269C39.0162 42.8097 39.082 42.6507 39.082 42.485C39.082 42.3192 39.0162 42.1603 38.899 42.043C38.7818 41.9258 38.6228 41.86 38.457 41.86H37.832V40.61H40.957C41.2886 40.61 41.6065 40.4783 41.8409 40.2439C42.0753 40.0094 42.207 39.6915 42.207 39.36V32.485C42.207 32.1535 42.0753 31.8355 41.8409 31.6011C41.6065 31.3667 41.2886 31.235 40.957 31.235ZM36.582 41.86H35.332V40.61H36.582V41.86ZM30.957 39.36V32.485H40.957V39.36H30.957ZM22.207 22.485H25.332V23.735H24.707C24.5413 23.735 24.3823 23.8008 24.2651 23.918C24.1479 24.0353 24.082 24.1942 24.082 24.36C24.082 24.5257 24.1479 24.6847 24.2651 24.8019C24.3823 24.9191 24.5413 24.985 24.707 24.985H29.707C29.8728 24.985 30.0318 24.9191 30.149 24.8019C30.2662 24.6847 30.332 24.5257 30.332 24.36C30.332 24.1942 30.2662 24.0353 30.149 23.918C30.0318 23.8008 29.8728 23.735 29.707 23.735H29.082V22.485H32.207C32.5386 22.485 32.8565 22.3533 33.0909 22.1189C33.3253 21.8844 33.457 21.5665 33.457 21.235V14.36C33.457 14.0285 33.3253 13.7105 33.0909 13.4761C32.8565 13.2417 32.5386 13.11 32.207 13.11H22.207C21.8755 13.11 21.5576 13.2417 21.3231 13.4761C21.0887 13.7105 20.957 14.0285 20.957 14.36V21.235C20.957 21.5665 21.0887 21.8844 21.3231 22.1189C21.5576 22.3533 21.8755 22.485 22.207 22.485ZM27.832 23.735H26.582V22.485H27.832V23.735ZM22.207 14.36H32.207V21.235H22.207V14.36ZM35.332 29.36C35.332 29.5257 35.3979 29.6847 35.5151 29.8019C35.6323 29.9191 35.7913 29.985 35.957 29.985C36.1228 29.985 36.2818 29.9191 36.399 29.8019C36.5162 29.6847 36.582 29.5257 36.582 29.36V28.11C36.582 27.9442 36.5162 27.7853 36.399 27.668C36.2818 27.5508 36.1228 27.485 35.957 27.485H27.832V26.86C27.832 26.6942 27.7662 26.5353 27.649 26.418C27.5318 26.3008 27.3728 26.235 27.207 26.235C27.0413 26.235 26.8823 26.3008 26.7651 26.418C26.6479 26.5353 26.582 26.6942 26.582 26.86V27.485H18.457C18.2913 27.485 18.1323 27.5508 18.0151 27.668C17.8979 27.7853 17.832 27.9442 17.832 28.11V29.36C17.832 29.5257 17.8979 29.6847 18.0151 29.8019C18.1323 29.9191 18.2913 29.985 18.457 29.985C18.6228 29.985 18.7818 29.9191 18.899 29.8019C19.0162 29.6847 19.082 29.5257 19.082 29.36V28.735H35.332V29.36Z" fill="white"/>
</g>
</g>
</g>
</g>
<defs>
<linearGradient id="paint0_linear_24_36" x1="0" y1="27.89" x2="55" y2="27.89" gradientUnits="userSpaceOnUse">
<stop stop-color="#6DFAD9"/>
<stop offset="1" stop-color="#2755EE"/>
</linearGradient>
<clipPath id="clip0_24_36">
<rect width="55" height="55" fill="white" transform="translate(0 0.390015)"/>
</clipPath>
<clipPath id="clip1_24_36">
<rect width="55" height="55" fill="white" transform="translate(0 0.390015)"/>
</clipPath>
<clipPath id="clip2_24_36">
<rect width="55" height="55" fill="white" transform="translate(0 0.390015)"/>
</clipPath>
<clipPath id="clip3_24_36">
<rect width="30" height="30" fill="white" transform="translate(12.207 13.11)"/>
</clipPath>
</defs>
</svg>
