<svg width="31" height="31" viewBox="0 0 31 31" fill="none" xmlns="http://www.w3.org/2000/svg">
<g clip-path="url(#clip0_355_8224)">
<path d="M13.5228 22.1255C12.8886 22.1255 12.373 21.6108 12.373 20.9766C12.373 20.3423 12.8886 19.8272 13.5228 19.8272C14.157 19.8272 14.6727 20.3423 14.6727 20.9766C14.6727 21.6108 14.157 22.1255 13.5228 22.1255ZM13.5228 20.7952C13.4747 20.7952 13.4285 20.8143 13.3944 20.8483C13.3603 20.8823 13.3411 20.9284 13.3409 20.9766C13.3409 21.1767 13.7047 21.1767 13.7047 20.9766C13.7046 20.9284 13.6853 20.8823 13.6513 20.8483C13.6172 20.8143 13.571 20.7952 13.5228 20.7952ZM17.8447 22.1255C17.2109 22.1255 16.6958 21.6108 16.6958 20.9766C16.6958 20.3423 17.2109 19.8272 17.8452 19.8272C18.4794 19.8272 18.9941 20.3423 18.9941 20.9766C18.9941 21.6108 18.4784 22.1255 17.8447 22.1255ZM17.8447 20.7952C17.7966 20.7952 17.7504 20.8143 17.7164 20.8483C17.6824 20.8823 17.6633 20.9284 17.6633 20.9766C17.6633 21.1767 18.0266 21.1767 18.0266 20.9766C18.0266 20.9284 18.0074 20.8823 17.9734 20.8483C17.9394 20.8143 17.8928 20.7952 17.8447 20.7952ZM21.4648 11.0897C21.3601 10.9523 21.2249 10.841 21.0698 10.7646C20.9148 10.6882 20.7442 10.6489 20.5714 10.6495H9.57641L9.29047 9.57844C9.2196 9.31366 9.06336 9.07966 8.84598 8.91271C8.6286 8.74575 8.36222 8.65517 8.08812 8.655H7.36672C7.23842 8.655 7.11538 8.70597 7.02466 8.79669C6.93393 8.88741 6.88297 9.01045 6.88297 9.13875C6.88297 9.26705 6.93393 9.39009 7.02466 9.48081C7.11538 9.57153 7.23842 9.6225 7.36672 9.6225H8.08812C8.21328 9.6225 8.3225 9.70687 8.35531 9.82828L10.6667 18.4702C10.7495 18.7784 10.9316 19.0509 11.1847 19.2452C11.4379 19.4396 11.7481 19.5451 12.0673 19.5455H19.8252C19.9535 19.5455 20.0766 19.4945 20.1674 19.4037C20.2581 19.3129 20.3091 19.1898 20.3091 19.0615C20.3091 18.9331 20.2581 18.81 20.1674 18.7193C20.0766 18.6285 19.9535 18.5775 19.8252 18.5775H12.0673C11.8494 18.5775 11.6577 18.4303 11.6014 18.2203L11.4252 17.5608H18.7086C19.1356 17.5602 19.5505 17.419 19.8892 17.159C20.2279 16.899 20.4714 16.5346 20.5822 16.1222L21.6603 12.0661C21.7052 11.8993 21.7109 11.7244 21.677 11.555C21.6431 11.3856 21.5705 11.2264 21.4648 11.0897ZM20.6975 11.6794C20.7153 11.7028 20.7425 11.7511 20.7247 11.8177L20.2452 13.6214H18.5455L18.815 11.6175H20.5714C20.6398 11.6175 20.6792 11.6559 20.6975 11.6794ZM17.5695 13.6214H15.7911V11.6175H17.8395L17.5695 13.6214ZM14.8236 11.6175V13.6214H13.047L12.7752 11.6175H14.8236ZM11.7987 11.6175L12.0702 13.6214H10.3737L9.83703 11.6175H11.7987ZM12.2014 14.5894L12.4728 16.5928H11.1697L10.633 14.5894H12.2014ZM13.1783 14.5894H14.8236V16.5928H13.4492L13.1783 14.5894ZM15.7911 16.5928V14.5894H17.4392L17.1692 16.5928H15.7911ZM18.7086 16.5928H18.1461L18.4156 14.5894H19.9883L19.647 15.8728C19.5917 16.0792 19.4698 16.2616 19.3004 16.3918C19.1309 16.5219 18.9232 16.5926 18.7095 16.5928H18.7086ZM8.40266 3.3825C8.40266 3.26228 8.3549 3.14699 8.26989 3.06198C8.18489 2.97698 8.06959 2.92922 7.94937 2.92922H2.97125C2.85103 2.92922 2.73574 2.97698 2.65073 3.06198C2.56572 3.14699 2.51797 3.26228 2.51797 3.3825C2.51797 3.50272 2.56572 3.61801 2.65073 3.70302C2.73574 3.78802 2.85103 3.83578 2.97125 3.83578H7.94937C8.06959 3.83578 8.18489 3.78802 8.26989 3.70302C8.3549 3.61801 8.40266 3.50272 8.40266 3.3825ZM22.0733 3.3825C22.0733 3.5108 22.0223 3.63384 21.9316 3.72456C21.8409 3.81528 21.7178 3.86625 21.5895 3.86625C21.4612 3.86625 21.3382 3.81528 21.2475 3.72456C21.1567 3.63384 21.1058 3.5108 21.1058 3.3825C21.1058 3.2542 21.1567 3.13116 21.2475 3.04044C21.3382 2.94972 21.4612 2.89875 21.5895 2.89875C21.7178 2.89875 21.8409 2.94972 21.9316 3.04044C22.0223 3.13116 22.0733 3.2542 22.0733 3.3825ZM23.5859 2.89875C23.4576 2.89875 23.3345 2.94974 23.2437 3.04051C23.1529 3.13127 23.102 3.25437 23.102 3.38273C23.102 3.51109 23.1529 3.6342 23.2437 3.72496C23.3345 3.81573 23.4576 3.86672 23.5859 3.86672C23.7143 3.86672 23.8374 3.81573 23.9282 3.72496C24.0189 3.6342 24.0699 3.51109 24.0699 3.38273C24.0699 3.25437 24.0189 3.13127 23.9282 3.04051C23.8374 2.94974 23.7143 2.89875 23.5859 2.89875ZM25.5823 2.89875C25.454 2.89875 25.3309 2.94974 25.2401 3.04051C25.1493 3.13127 25.0984 3.25437 25.0984 3.38273C25.0984 3.51109 25.1493 3.6342 25.2401 3.72496C25.3309 3.81573 25.454 3.86672 25.5823 3.86672C25.7107 3.86672 25.8338 3.81573 25.9246 3.72496C26.0153 3.6342 26.0663 3.51109 26.0663 3.38273C26.0663 3.25437 26.0153 3.13127 25.9246 3.04051C25.8338 2.94974 25.7107 2.89875 25.5823 2.89875ZM29.8527 24.0441L28.3686 22.793C28.3695 22.7634 28.3742 22.7339 28.3742 22.7039V3.79922C28.3742 2.34609 27.1883 1.16016 25.7352 1.16016H2.84609C1.39297 1.16016 0.207031 2.34609 0.207031 3.79922V22.7039C0.207031 24.157 1.39297 25.343 2.84609 25.343H23.1608L23.1612 27.1556C23.1612 27.5461 23.3806 27.8911 23.7341 28.0566C24.0847 28.2197 24.492 28.1691 24.7916 27.9206L25.6981 27.1669L26.2025 28.2511C26.3586 28.5895 26.6384 28.8464 26.9881 28.9739C27.1602 29.0368 27.343 29.0652 27.5261 29.0574C27.7092 29.0496 27.8889 29.0058 28.055 28.9284C28.2213 28.8516 28.3707 28.7425 28.4946 28.6076C28.6185 28.4727 28.7144 28.3146 28.7769 28.1423C28.8402 27.9705 28.8688 27.7878 28.8609 27.6048C28.853 27.4218 28.8089 27.2422 28.7309 27.0764L28.227 25.9912L29.3867 25.7841C29.5732 25.7516 29.7464 25.6662 29.8857 25.538C30.025 25.4099 30.1245 25.2444 30.1723 25.0612C30.2224 24.8789 30.2188 24.686 30.1621 24.5056C30.1055 24.3252 29.998 24.165 29.8527 24.0441ZM1.17266 3.79922C1.17266 2.88047 1.92266 2.13047 2.84609 2.13047H25.7352C26.6586 2.13047 27.4086 2.88047 27.4086 3.79922V4.63359H1.17266V3.79922ZM23.1594 20.5387L23.1603 24.3731H2.84609C2.40308 24.3731 1.97814 24.1975 1.66445 23.8846C1.35075 23.5718 1.1739 23.1474 1.17266 22.7044V5.60437H27.4086V21.9839L24.7934 19.7789C24.6491 19.656 24.4724 19.5774 24.2845 19.5524C24.0966 19.5275 23.9054 19.5573 23.7341 19.6383C23.5617 19.717 23.4157 19.8439 23.3137 20.0036C23.2118 20.1634 23.1582 20.3492 23.1594 20.5387ZM29.2156 24.8316L27.4381 25.1489C27.3652 25.1619 27.2962 25.1915 27.2365 25.2355C27.1768 25.2794 27.128 25.3364 27.0938 25.4022C27.0597 25.468 27.0411 25.5407 27.0395 25.6148C27.0379 25.6889 27.0534 25.7624 27.0847 25.8295L27.8534 27.4856C27.8772 27.5361 27.8908 27.5908 27.8933 27.6466C27.8958 27.7023 27.8872 27.7581 27.868 27.8105C27.8289 27.9165 27.7498 28.0031 27.6477 28.0514C27.5968 28.075 27.5417 28.0884 27.4856 28.0908C27.4296 28.0931 27.3736 28.0843 27.3209 28.065C27.2679 28.0461 27.2193 28.0168 27.1778 27.9788C27.1363 27.9408 27.1029 27.8949 27.0795 27.8437L26.3108 26.1895C26.2718 26.1061 26.2098 26.0355 26.1321 25.986C26.0543 25.9365 25.9642 25.9102 25.872 25.9102C25.7605 25.9102 25.6508 25.9486 25.5627 26.0217L24.1292 27.1556L24.1695 20.5181L29.2287 24.7837L29.2156 24.8316Z" fill="white"/>
</g>
<defs>
<clipPath id="clip0_355_8224">
<rect width="30" height="30" fill="white" transform="translate(0.207031 0.109375)"/>
</clipPath>
</defs>
</svg>
