<svg width="55" height="55" viewBox="0 0 55 55" fill="none" xmlns="http://www.w3.org/2000/svg">
<g clip-path="url(#clip0_98_89)">
<g clip-path="url(#clip1_98_89)">
<g clip-path="url(#clip2_98_89)">
<path opacity="0.2" d="M27.5 55C42.6878 55 55 42.6878 55 27.5C55 12.3122 42.6878 0 27.5 0C12.3122 0 0 12.3122 0 27.5C0 42.6878 12.3122 55 27.5 55Z" fill="url(#paint0_linear_98_89)"/>
<g clip-path="url(#clip3_98_89)">
<path fill-rule="evenodd" clip-rule="evenodd" d="M21.4725 27.8426V15.5996C21.4725 14.274 22.5847 13.1906 23.9672 13.1906H38.4484C39.8309 13.1906 40.9431 14.274 40.9431 15.5996V27.8426C40.9431 28.4836 40.6789 29.0988 40.2063 29.552C39.74 29.9992 39.108 30.2516 38.4484 30.2516H23.9672C23.3077 30.2516 22.6757 29.9992 22.2093 29.552C21.7367 29.0988 21.4725 28.4836 21.4725 27.8426ZM40.1196 16.5361V15.5996C40.1192 15.1813 39.9444 14.7807 39.6359 14.4849C39.3211 14.183 38.8937 14.0144 38.4484 14.0141H23.9672C23.5219 14.0144 23.0946 14.183 22.7797 14.4849C22.4712 14.7807 22.2964 15.1813 22.296 15.5996V16.5361H40.1196ZM22.296 17.3596V27.8426C22.296 28.261 22.4707 28.6617 22.7793 28.9576C23.0942 29.2596 23.5218 29.4281 23.9672 29.4281H38.4484C38.8938 29.4281 39.3214 29.2596 39.6363 28.9576C39.9449 28.6617 40.1196 28.261 40.1196 27.8426V17.3596H22.296ZM35.848 24.6855C35.2364 24.6855 34.9294 25.4266 35.3619 25.8591C35.6498 26.1469 35.6498 26.6152 35.3619 26.903L34.6598 27.6052C34.3719 27.893 33.9037 27.893 33.6159 27.6052C33.1833 27.1727 32.4423 27.4797 32.4423 28.0913C32.4423 28.5 32.1118 28.8291 31.7043 28.8291H30.7113C30.3038 28.8291 29.9733 28.5 29.9733 28.0913C29.9733 27.479 29.2327 27.1723 28.7998 27.6052C28.5117 27.8933 28.0444 27.8933 27.7565 27.6053L27.0537 26.903C26.7658 26.6152 26.7658 26.1469 27.0537 25.8591C27.4862 25.4266 27.1795 24.6855 26.5676 24.6855C26.1602 24.6855 25.8297 24.355 25.8297 23.9476V22.9545C25.8297 22.5471 26.1602 22.2166 26.5676 22.2166C27.1795 22.2166 27.4862 21.4756 27.0537 21.043C26.7656 20.755 26.7656 20.2877 27.0537 19.9997L27.7564 19.2969C28.0444 19.0088 28.5117 19.0088 28.7998 19.2969C29.2323 19.7294 29.9733 19.4227 29.9733 18.8108C29.9733 18.4034 30.3038 18.0729 30.7113 18.0729H31.7043C32.1118 18.0729 32.4423 18.4034 32.4423 18.8108C32.4423 19.4227 33.1833 19.7294 33.6159 19.2969C33.9037 19.0091 34.3719 19.0091 34.6598 19.2969L35.3619 19.9997C35.65 20.2877 35.65 20.755 35.3619 21.043C34.9294 21.4756 35.2364 22.2166 35.848 22.2166C36.2568 22.2166 36.5859 22.5471 36.5859 22.9545V23.9476C36.5859 24.355 36.2568 24.6855 35.848 24.6855ZM26.6532 23.0379V23.8642C27.9126 23.9301 28.5386 25.4428 27.6948 26.3795L28.2796 26.9638C29.217 26.1196 30.7289 26.7456 30.7947 28.0056H31.621C31.6869 26.747 33.1996 26.1203 34.1363 26.9641L34.7209 26.3795C33.877 25.4428 34.5038 23.9301 35.7624 23.8642V23.0379C34.5039 22.972 33.8772 21.4596 34.7206 20.5229L34.1362 19.938C33.1996 20.7818 31.6868 20.1558 31.621 18.8964H30.7947C30.7288 20.1557 29.2164 20.7817 28.2797 19.9383L27.695 20.5229C28.5384 21.4596 27.9124 22.972 26.6532 23.0379ZM31.2081 26.4216C29.5718 26.4216 28.2378 25.0869 28.2378 23.4513C28.2378 21.815 29.5718 20.481 31.2081 20.481C32.8437 20.481 34.1784 21.815 34.1784 23.4513C34.1784 25.0869 32.8437 26.4216 31.2081 26.4216ZM31.2081 25.5981C32.3902 25.5981 33.3549 24.6334 33.3549 23.4513C33.3549 22.2687 32.3902 21.3046 31.2081 21.3046C30.0255 21.3046 29.0613 22.2687 29.0613 23.4513C29.0613 24.6334 30.0255 25.5981 31.2081 25.5981ZM35.4475 14.7781C35.7219 14.7781 35.9447 15.0008 35.9447 15.2751C35.9447 15.5494 35.7219 15.772 35.4475 15.772C35.173 15.772 34.9503 15.5494 34.9503 15.2751C34.9503 15.0008 35.173 14.7781 35.4475 14.7781ZM37.135 14.7781C37.4094 14.7781 37.6323 15.0008 37.6323 15.2751C37.6323 15.5494 37.4094 15.772 37.135 15.772C36.8606 15.772 36.6377 15.5494 36.6377 15.2751C36.6377 15.0008 36.8606 14.7781 37.135 14.7781ZM38.8225 14.7781C39.097 14.7781 39.3197 15.0008 39.3197 15.2751C39.3197 15.5494 39.097 15.772 38.8225 15.772C38.548 15.772 38.3253 15.5494 38.3253 15.2751C38.3253 15.0008 38.548 14.7781 38.8225 14.7781ZM20.6092 39.3317L20.8074 39.8081L20.8076 39.8085C20.9342 40.1147 20.9344 40.4232 20.8094 40.7311L20.8087 40.7329C20.6821 41.0367 20.4639 41.2557 20.1567 41.3851L20.1556 41.3856L18.295 42.1568C17.6824 42.4126 16.9732 42.1192 16.7192 41.5072C15.6695 38.9848 14.6183 36.4625 13.5686 33.9401C13.4393 33.6346 13.4389 33.3243 13.5663 33.0164C13.6933 32.7093 13.9127 32.4901 14.2178 32.363L16.0803 31.59C16.6924 31.3358 17.3994 31.6266 17.656 32.2392L17.6562 32.2396L17.8283 32.6531C18.7455 32.2195 19.6614 31.7831 20.5731 31.3371C21.8023 30.7358 22.7712 30.3362 23.8997 30.4887C24.6367 30.5883 25.4484 30.924 26.447 31.6234L29.8863 32.5447C30.4712 32.7014 30.931 33.0991 31.1873 33.6026L36.0085 32.1883C38.0703 31.5834 39.2107 32.0211 39.7119 32.6986C40.0446 33.1482 40.1309 33.7306 40.0064 34.3061C39.8308 35.1177 39.2318 35.9056 38.415 36.2207L31.1494 39.0204C29.9316 39.4891 28.3047 40.146 26.9977 39.7665L23.127 38.6436L23.1264 38.6434C22.6655 38.5089 22.2233 38.5463 21.791 38.7568L20.6092 39.3317ZM20.0464 40.1234C19.9312 39.8463 17.0082 32.8264 16.896 32.5568C16.8145 32.3626 16.5904 32.2701 16.3961 32.3507L14.5342 33.1234C14.4374 33.1638 14.3678 33.2336 14.3274 33.3312C14.2876 33.4275 14.287 33.5245 14.3281 33.6214L14.3286 33.6227C15.3784 36.1454 16.4298 38.668 17.4797 41.1908L17.4798 41.191C17.5602 41.3847 17.7844 41.4777 17.9787 41.3963L19.8388 40.6252L19.8394 40.6249C19.9367 40.5836 20.0069 40.5143 20.0482 40.4163C20.0869 40.3189 20.0867 40.2208 20.0464 40.1234ZM20.292 38.57L21.4304 38.0163C22.0541 37.7125 22.6922 37.6586 23.3565 37.8526L27.2273 38.9754C27.7732 39.1339 28.3842 39.0573 28.9862 38.903C29.6463 38.7338 30.2958 38.4664 30.8534 38.2518L38.1185 35.4523C38.6787 35.2361 39.0809 34.6886 39.2013 34.132C39.2741 33.7954 39.2443 33.4514 39.0497 33.1885C38.8844 32.965 38.6044 32.8109 38.2029 32.7491C37.7138 32.6739 37.0689 32.7356 36.2404 32.9787L31.4079 34.3963C31.4236 34.6218 31.4017 34.8484 31.343 35.0667C31.0501 36.1604 29.9143 36.8166 28.8212 36.5219L24.1562 35.2727C24.0507 35.2444 23.9608 35.1754 23.9062 35.0808C23.8515 34.9863 23.8367 34.8739 23.8649 34.7684C23.8932 34.6629 23.9622 34.5729 24.0568 34.5183C24.1514 34.4637 24.2638 34.4489 24.3693 34.4771L29.0342 35.7262L29.0349 35.7264C29.6908 35.9032 30.3717 35.5095 30.5474 34.8536C30.7231 34.1974 30.3293 33.5161 29.6732 33.3404L26.163 32.4001C26.1158 32.3874 26.0711 32.3664 26.0312 32.3381C25.1457 31.7096 24.438 31.3927 23.7894 31.305C22.8174 31.1737 21.9937 31.5591 20.9351 32.0771C20.0084 32.5303 19.0774 32.9738 18.1452 33.4144C18.8606 35.1328 19.5765 36.8514 20.292 38.57Z" fill="white"/>
</g>
</g>
</g>
</g>
<defs>
<linearGradient id="paint0_linear_98_89" x1="0" y1="27.5" x2="55" y2="27.5" gradientUnits="userSpaceOnUse">
<stop stop-color="#6DFAD9"/>
<stop offset="1" stop-color="#2755EE"/>
</linearGradient>
<clipPath id="clip0_98_89">
<rect width="55" height="55" fill="white"/>
</clipPath>
<clipPath id="clip1_98_89">
<rect width="55" height="55" fill="white"/>
</clipPath>
<clipPath id="clip2_98_89">
<rect width="55" height="55" fill="white"/>
</clipPath>
<clipPath id="clip3_98_89">
<rect width="30" height="30" fill="white" transform="translate(12.207 12.72)"/>
</clipPath>
</defs>
</svg>
