<svg width="31" height="31" viewBox="0 0 31 31" fill="none" xmlns="http://www.w3.org/2000/svg">
<path d="M27.2188 1.71777H3.78125C2.4875 1.71777 1.4375 2.76777 1.4375 4.06152V23.749C1.4375 25.0428 2.4875 26.0928 3.78125 26.0928H20.0187C20.2766 26.0928 20.4875 25.8818 20.4875 25.624C20.4875 25.3662 20.2766 25.1553 20.0187 25.1553H3.78125C3.00781 25.1553 2.375 24.5225 2.375 23.749V5.46777H28.625V23.749C28.625 24.0303 28.5406 24.3021 28.3859 24.5318C28.2406 24.7475 28.2969 25.0381 28.5125 25.1834C28.7281 25.3287 29.0188 25.2725 29.1641 25.0568C29.4266 24.6678 29.5625 24.2178 29.5625 23.749V4.06152C29.5625 2.76777 28.5125 1.71777 27.2188 1.71777ZM2.375 4.06152C2.375 3.28809 3.00781 2.65527 3.78125 2.65527H21.125V4.53027H2.375V4.06152ZM22.0625 4.53027V2.65527H27.2188C27.9922 2.65527 28.625 3.28809 28.625 4.06152V4.53027H22.0625Z" fill="white"/>
<path d="M24.2758 22.7973C23.6477 22.2629 22.7523 22.2113 22.0633 22.6145L20.7836 21.3348C21.8664 20.0973 22.5273 18.4848 22.5273 16.7129C22.5273 16.0098 22.4242 15.3207 22.2227 14.6598C22.1758 14.4488 21.9883 14.2941 21.7633 14.2941C21.5055 14.2941 21.2945 14.5051 21.2945 14.7676C21.2945 14.8145 21.3039 14.8613 21.318 14.9082C21.5008 15.4895 21.5898 16.0941 21.5898 16.7129C21.5898 20.0738 18.857 22.8066 15.4961 22.8066C12.1352 22.8066 9.40234 20.0738 9.40234 16.7129C9.40234 13.352 12.1352 10.6191 15.4961 10.6191C16.8977 10.6191 18.2148 11.0832 19.3023 11.9598C19.3504 11.9985 19.4055 12.0275 19.4647 12.0449C19.5239 12.0624 19.586 12.068 19.6474 12.0615C19.7087 12.055 19.7682 12.0364 19.8224 12.0069C19.8766 11.9774 19.9245 11.9375 19.9633 11.8895C20.0021 11.8414 20.031 11.7863 20.0485 11.7271C20.0659 11.6679 20.0715 11.6058 20.065 11.5444C20.0585 11.483 20.0399 11.4236 20.0104 11.3694C19.9809 11.3152 19.941 11.2673 19.893 11.2285C18.632 10.216 17.1133 9.68164 15.4961 9.68164C11.6195 9.68164 8.46484 12.8363 8.46484 16.7129C8.46484 20.5895 11.6195 23.7441 15.4961 23.7441C17.268 23.7441 18.8805 23.0832 20.118 21.9957L21.393 23.2707C20.9898 23.9551 21.0367 24.8504 21.5758 25.4832L24.7164 29.1676C25.0633 29.5707 25.5648 29.8145 26.0945 29.8379H26.1695C26.6758 29.8379 27.1633 29.6363 27.5195 29.2801L28.0586 28.741C28.4336 28.366 28.6352 27.8457 28.6164 27.316C28.5977 26.7863 28.3539 26.2848 27.9461 25.9379L24.2617 22.7973H24.2758ZM27.407 28.0801L26.868 28.6191C26.6758 28.8113 26.418 28.9145 26.1414 28.9051C25.8695 28.8957 25.6211 28.7738 25.443 28.5629L22.3023 24.8785C21.9742 24.4941 21.9977 23.9176 22.3539 23.5613C22.5414 23.3738 22.7898 23.2801 23.0383 23.2801C23.2633 23.2801 23.4883 23.3551 23.6664 23.5098L27.3508 26.6504C27.5617 26.8285 27.6789 27.077 27.693 27.3488C27.7023 27.6207 27.6039 27.8785 27.4117 28.0754L27.407 28.0801Z" fill="white"/>
<path d="M14.8952 14.51C14.8518 14.4665 14.8003 14.432 14.7436 14.4085C14.6869 14.385 14.6261 14.3729 14.5647 14.3729C14.5034 14.3729 14.4426 14.385 14.3859 14.4085C14.3292 14.432 14.2776 14.4665 14.2343 14.51L11.4218 17.3225C11.3564 17.3879 11.3119 17.4713 11.294 17.5621C11.2761 17.6529 11.2856 17.747 11.3212 17.8324C11.3569 17.9178 11.4171 17.9907 11.4943 18.0417C11.5714 18.0928 11.662 18.1198 11.7546 18.1193C11.8765 18.1193 11.9937 18.0725 12.0874 17.9834L14.5671 15.5037L16.578 17.5146C16.6671 17.6037 16.7937 17.6459 16.9155 17.6506C17.0421 17.6506 17.164 17.5943 17.2483 17.5053L24.4062 9.92559V11.5615C24.4062 11.8193 24.6171 12.0303 24.8749 12.0303C25.1327 12.0303 25.3437 11.8193 25.3437 11.5615V8.74902C25.3437 8.49121 25.1327 8.28027 24.8749 8.28027H22.0624C21.8046 8.28027 21.5937 8.49121 21.5937 8.74902C21.5937 9.00684 21.8046 9.21777 22.0624 9.21777H23.7874L16.8968 16.5162L14.8952 14.5146V14.51Z" fill="white"/>
</svg>
