<svg width="28" height="28" viewBox="0 0 28 28" fill="none" xmlns="http://www.w3.org/2000/svg">
<circle cx="13.8926" cy="13.9705" r="13.432" fill="white" fill-opacity="0.45"/>
<g clip-path="url(#clip0_43_220)">
<path d="M14.6298 18.8853L19.1375 14.3543L14.6298 9.82319C14.5891 9.76973 14.5374 9.72564 14.4782 9.69391C14.4189 9.66217 14.3536 9.64354 14.2865 9.63926C14.2195 9.63498 14.1523 9.64516 14.0895 9.66911C14.0267 9.69306 13.9698 9.73021 13.9226 9.77807C13.8755 9.82592 13.8391 9.88335 13.8161 9.94647C13.793 10.0096 13.7838 10.0769 13.789 10.1439C13.7943 10.2109 13.8138 10.276 13.8464 10.3348C13.879 10.3935 13.9238 10.4446 13.9779 10.4846L17.3504 13.8852L8.37734 13.8852C8.25294 13.8852 8.13363 13.9346 8.04567 14.0226C7.9577 14.1105 7.90828 14.2299 7.90828 14.3543C7.90828 14.4787 7.9577 14.598 8.04567 14.6859C8.13363 14.7739 8.25294 14.8233 8.37734 14.8233L17.3504 14.8233L13.9779 18.224C13.8901 18.3123 13.8411 18.4318 13.8416 18.5563C13.842 18.6808 13.8919 18.8 13.9802 18.8877C14.0685 18.9754 14.1881 19.0244 14.3125 19.024C14.437 19.0235 14.5562 18.9736 14.6439 18.8853L14.6298 18.8853Z" fill="white"/>
</g>
<defs>
<clipPath id="clip0_43_220">
<rect width="16.886" height="16.886" fill="white" transform="translate(21.9518 5.91125) rotate(90)"/>
</clipPath>
</defs>
</svg>
