<svg width="31" height="31" viewBox="0 0 31 31" fill="none" xmlns="http://www.w3.org/2000/svg">
<g clip-path="url(#clip0_355_8244)">
<path fill-rule="evenodd" clip-rule="evenodd" d="M9.47202 15.2321V2.98914C9.47202 1.66355 10.5843 0.580078 11.9667 0.580078H26.448C27.8304 0.580078 28.9426 1.66355 28.9426 2.98914V15.2321C28.9426 15.8731 28.6784 16.4884 28.2058 16.9415C27.7395 17.3887 27.1075 17.6411 26.448 17.6411H11.9667C11.3072 17.6411 10.6752 17.3887 10.2088 16.9415C9.73619 16.4884 9.47202 15.8731 9.47202 15.2321ZM28.1191 3.92561V2.98914C28.1187 2.57078 27.944 2.17025 27.6354 1.87443C27.3206 1.57249 26.8932 1.40396 26.448 1.40361H11.9667C11.5214 1.40396 11.0941 1.57249 10.7792 1.87443C10.4707 2.17025 10.2959 2.57078 10.2955 2.98914V3.92561H28.1191ZM10.2955 4.74914V15.2321C10.2955 15.6506 10.4703 16.0513 10.7788 16.3471C11.0937 16.6491 11.5213 16.8176 11.9667 16.8176H26.448C26.8933 16.8176 27.3209 16.6491 27.6358 16.3471C27.9444 16.0513 28.1191 15.6506 28.1191 15.2321V4.74914H10.2955ZM23.8475 12.075C23.236 12.075 22.929 12.8161 23.3614 13.2486C23.6493 13.5364 23.6493 14.0047 23.3614 14.2925L22.6593 14.9947C22.3714 15.2825 21.9032 15.2825 21.6154 14.9947C21.1828 14.5622 20.4418 14.8693 20.4418 15.4808C20.4418 15.8896 20.1113 16.2187 19.7038 16.2187H18.7108C18.3033 16.2187 17.9728 15.8896 17.9728 15.4808C17.9728 14.8685 17.2322 14.5618 16.7993 14.9947C16.5113 15.2828 16.044 15.2828 15.756 14.9948L15.0532 14.2925C14.7653 14.0047 14.7653 13.5364 15.0532 13.2486C15.4857 12.8161 15.179 12.075 14.5671 12.075C14.1597 12.075 13.8292 11.7445 13.8292 11.3371V10.344C13.8292 9.93661 14.1597 9.60614 14.5671 9.60614C15.179 9.60614 15.4857 8.86508 15.0532 8.43255C14.7651 8.14449 14.7651 7.67725 15.0532 7.3892L15.7559 6.68643C16.044 6.39837 16.5113 6.39837 16.7993 6.68643C17.2318 7.11896 17.9728 6.81225 17.9728 6.20037C17.9728 5.7929 18.3033 5.46243 18.7108 5.46243H19.7038C20.1113 5.46243 20.4418 5.7929 20.4418 6.20037C20.4418 6.81225 21.1828 7.11896 21.6154 6.68643C21.9032 6.39861 22.3714 6.39861 22.6593 6.68643L23.3614 7.3892C23.6495 7.67725 23.6495 8.14449 23.3614 8.43255C22.929 8.86508 23.236 9.60614 23.8475 9.60614C24.2563 9.60614 24.5854 9.93661 24.5854 10.344V11.3371C24.5854 11.7445 24.2563 12.075 23.8475 12.075ZM14.6527 10.4274V11.2537C15.9121 11.3196 16.5381 12.8323 15.6943 13.769L16.2791 14.3534C17.2165 13.5091 18.7284 14.1351 18.7942 15.3951H19.6205C19.6864 14.1365 21.1991 13.5098 22.1358 14.3536L22.7204 13.769C21.8765 12.8324 22.5033 11.3197 23.7619 11.2537V10.4274C22.5034 10.3615 21.8767 8.84908 22.7201 7.91243L22.1357 7.32755C21.1991 8.17137 19.6863 7.54531 19.6205 6.28596H18.7942C18.7283 7.5452 17.2159 8.1712 16.2792 7.32778L15.6945 7.91243C16.538 8.84914 15.912 10.3615 14.6527 10.4274ZM19.2076 13.8111C17.5713 13.8111 16.2373 12.4764 16.2373 10.8408C16.2373 9.20455 17.5713 7.87055 19.2076 7.87055C20.8432 7.87055 22.1779 9.20455 22.1779 10.8408C22.1779 12.4764 20.8432 13.8111 19.2076 13.8111ZM19.2076 12.9876C20.3897 12.9876 21.3544 12.023 21.3544 10.8408C21.3544 9.65826 20.3897 8.69408 19.2076 8.69408C18.025 8.69408 17.0608 9.65826 17.0608 10.8408C17.0608 12.023 18.025 12.9876 19.2076 12.9876ZM23.447 2.16767C23.7214 2.16767 23.9443 2.39037 23.9443 2.66461C23.9443 2.9389 23.7214 3.16155 23.447 3.16155C23.1725 3.16155 22.9498 2.9389 22.9498 2.66461C22.9498 2.39037 23.1725 2.16767 23.447 2.16767ZM25.1345 2.16767C25.409 2.16767 25.6318 2.39037 25.6318 2.66461C25.6318 2.9389 25.409 3.16155 25.1345 3.16155C24.8601 3.16155 24.6373 2.9389 24.6373 2.66461C24.6373 2.39037 24.8601 2.16767 25.1345 2.16767ZM26.822 2.16767C27.0965 2.16767 27.3193 2.39037 27.3193 2.66461C27.3193 2.9389 27.0965 3.16155 26.822 3.16155C26.5475 3.16155 26.3248 2.9389 26.3248 2.66461C26.3248 2.39037 26.5475 2.16767 26.822 2.16767ZM8.60866 26.7213L8.8069 27.1976L8.80707 27.198C8.93372 27.5042 8.93396 27.8127 8.8089 28.1207L8.80819 28.1224C8.6816 28.4262 8.46337 28.6453 8.15619 28.7746L8.15513 28.7751L6.29449 29.5464C5.68196 29.8021 4.97272 29.5087 4.71872 28.8967C3.66901 26.3744 2.61778 23.852 1.56807 21.3297C1.43884 21.0241 1.43843 20.7138 1.56578 20.406C1.69278 20.0988 1.91225 19.8796 2.21731 19.7525L4.07984 18.9795C4.69196 18.7254 5.3989 19.0161 5.65549 19.6287L5.65566 19.6291L5.82778 20.0426C6.74502 19.609 7.6609 19.1726 8.5726 18.7267C9.80178 18.1253 10.7707 17.7257 11.8993 17.8783C12.6363 17.9778 13.4479 18.3136 14.4465 19.013L17.8858 19.9343C18.4707 20.0909 18.9305 20.4887 19.1868 20.9921L24.008 19.5778C26.0698 18.973 27.2102 19.4106 27.7114 20.0881C28.0441 20.5377 28.1304 21.1201 28.0059 21.6957C27.8303 22.5072 27.2313 23.2951 26.4145 23.6103L19.1489 26.41C17.9311 26.8786 16.3043 27.5355 14.9973 27.156L11.1265 26.0331L11.1259 26.033C10.665 25.8984 10.2228 25.9358 9.79054 26.1463L8.60866 26.7213ZM8.04596 27.513C7.93066 27.2358 5.00766 20.2159 4.89549 19.9463C4.81401 19.7521 4.5899 19.6596 4.39566 19.7403L2.53372 20.513C2.4369 20.5534 2.36731 20.6231 2.32696 20.7207C2.28713 20.817 2.28649 20.914 2.3276 21.0109L2.32813 21.0122C3.37796 23.5349 4.42931 26.0576 5.47925 28.5804L5.47931 28.5806C5.55966 28.7742 5.7839 28.8673 5.97819 28.7858L7.83831 28.0147L7.83896 28.0144C7.93625 27.9731 8.00643 27.9038 8.04772 27.8058C8.08637 27.7084 8.08619 27.6104 8.04596 27.513ZM8.29154 25.9595L9.4299 25.4058C10.0536 25.102 10.6917 25.0481 11.356 25.2421L15.2268 26.365C15.7727 26.5234 16.3837 26.4468 16.9857 26.2925C17.6458 26.1233 18.2953 25.8559 18.8529 25.6413L26.118 22.8418C26.6782 22.6256 27.0804 22.0781 27.2008 21.5215C27.2736 21.185 27.2438 20.8409 27.0493 20.578C26.8839 20.3545 26.604 20.2004 26.2024 20.1387C25.7133 20.0634 25.0684 20.1251 24.2399 20.3682L19.4074 21.7858C19.4231 22.0113 19.4012 22.2379 19.3425 22.4562C19.0496 23.55 17.9138 24.2061 16.8207 23.9114L12.1557 22.6623C12.0502 22.634 11.9603 22.5649 11.9057 22.4704C11.8511 22.3758 11.8362 22.2634 11.8644 22.1579C11.8927 22.0524 11.9617 21.9625 12.0563 21.9079C12.1509 21.8532 12.2633 21.8384 12.3688 21.8666L17.0337 23.1157L17.0344 23.1159C17.6903 23.2927 18.3712 22.899 18.5469 22.2431C18.7226 21.5869 18.3288 20.9057 17.6727 20.7299L14.1625 19.7896C14.1153 19.777 14.0706 19.756 14.0307 19.7277C13.1452 19.0991 12.4375 18.7822 11.789 18.6946C10.8169 18.5632 9.99325 18.9487 8.9346 19.4666C8.0079 19.9198 7.07696 20.3633 6.14466 20.8039C6.86007 22.5224 7.57601 24.2409 8.29154 25.9595Z" fill="white"/>
</g>
<defs>
<clipPath id="clip0_355_8244">
<rect width="30" height="30" fill="white" transform="translate(0.207031 0.109375)"/>
</clipPath>
</defs>
</svg>
