<svg width="30" height="30" viewBox="0 0 30 30" fill="none" xmlns="http://www.w3.org/2000/svg">
<g clip-path="url(#clip0_355_8234)">
<path d="M3.44344 6.77684C3.44344 6.41174 3.74121 6.11402 4.10637 6.11402C4.47147 6.11402 4.76924 6.4118 4.76924 6.77684C4.76924 7.14193 4.47147 7.43971 4.10637 7.43971C3.74121 7.43971 3.44344 7.14193 3.44344 6.77684ZM6.65086 7.43971C7.01596 7.43971 7.31367 7.14193 7.31367 6.77684C7.31367 6.41174 7.01602 6.11402 6.65086 6.11402C6.2857 6.11402 5.98805 6.4118 5.98805 6.77684C5.98811 7.14193 6.2857 7.43971 6.65086 7.43971ZM9.19529 7.43971C9.56045 7.43971 9.85822 7.14193 9.85822 6.77684C9.85822 6.41174 9.56045 6.11402 9.19529 6.11402C8.8302 6.11402 8.53242 6.4118 8.53242 6.77684C8.53236 7.14193 8.83014 7.43971 9.19529 7.43971ZM9.08813 16.0195H16.0131C16.1374 16.0195 16.2566 15.9701 16.3445 15.8822C16.4325 15.7943 16.4818 15.6751 16.4818 15.5508C16.4818 15.4265 16.4325 15.3072 16.3445 15.2193C16.2566 15.1314 16.1374 15.082 16.0131 15.082H9.08813C8.96381 15.082 8.84458 15.1314 8.75667 15.2193C8.66876 15.3072 8.61938 15.4265 8.61938 15.5508C8.61938 15.6751 8.66876 15.7943 8.75667 15.8822C8.84458 15.9701 8.96381 16.0195 9.08813 16.0195ZM3.166 19.2315H18.4263C18.5506 19.2315 18.6698 19.1821 18.7577 19.0942C18.8456 19.0063 18.895 18.887 18.895 18.7627C18.895 18.6384 18.8456 18.5192 18.7577 18.4313C18.6698 18.3434 18.5506 18.294 18.4263 18.294H3.166C3.04168 18.294 2.92245 18.3434 2.83454 18.4313C2.74663 18.5192 2.69725 18.6384 2.69725 18.7627C2.69725 18.887 2.74663 19.0063 2.83454 19.0942C2.92245 19.1821 3.04168 19.2315 3.166 19.2315ZM29.7655 9.35355C29.7653 9.35402 29.765 9.35447 29.7647 9.3549L28.3352 11.8307V24.2456C28.3352 25.1295 27.6162 25.8486 26.7323 25.8486H1.60289C0.719063 25.8486 0 25.1295 0 24.2457V5.75432C0 4.87049 0.719063 4.15137 1.60289 4.15137H26.7323C27.6162 4.15137 28.3352 4.87043 28.3352 5.75432V6.54838C28.4545 6.5865 28.5694 6.63728 28.6779 6.69984L29.1234 6.95701C29.9612 7.4407 30.2493 8.51578 29.7655 9.35355ZM0.9375 5.75432V8.46486H25.6331L26.2813 7.34197C26.5326 6.9068 26.9435 6.62039 27.3978 6.51299V5.75432C27.3978 5.3874 27.0993 5.08887 26.7324 5.08887H1.60289C1.23604 5.08887 0.9375 5.3874 0.9375 5.75432ZM27.3978 13.4546L23.2341 20.6662C23.193 20.7374 23.1338 20.7966 23.0626 20.8378L20.3972 22.3766C20.3256 22.4197 20.2436 22.4428 20.16 22.4434H3.166C3.04168 22.4434 2.92245 22.394 2.83454 22.3061C2.74663 22.2182 2.69725 22.099 2.69725 21.9746C2.69725 21.8503 2.74663 21.7311 2.83454 21.6432C2.92245 21.5553 3.04168 21.5059 3.166 21.5059H19.6872V18.889C19.6872 18.8067 19.7089 18.7259 19.75 18.6546L25.0918 9.40236H0.9375V24.2457C0.9375 24.6126 1.23604 24.9111 1.60289 24.9111H26.7323C27.0993 24.9111 27.3977 24.6126 27.3977 24.2457L27.3978 13.4546ZM20.6247 21.1628L21.8907 20.4318L20.6247 19.7009V21.1628ZM28.6546 7.76883L28.2092 7.51166C27.8191 7.28643 27.3185 7.42061 27.0932 7.81072L20.7963 18.7174L22.6566 19.7915L28.9533 8.88527L28.9536 8.88486C29.1789 8.49475 29.0447 7.99412 28.6546 7.76883ZM9.08813 12.8076H16.0131C16.1374 12.8076 16.2566 12.7582 16.3445 12.6703C16.4325 12.5824 16.4818 12.4632 16.4818 12.3388C16.4818 12.2145 16.4325 12.0953 16.3445 12.0074C16.2566 11.9195 16.1374 11.8701 16.0131 11.8701H9.08813C8.96381 11.8701 8.84458 11.9195 8.75667 12.0074C8.66876 12.0953 8.61938 12.2145 8.61938 12.3388C8.61938 12.4632 8.66876 12.5824 8.75667 12.6703C8.84458 12.7582 8.96381 12.8076 9.08813 12.8076ZM2.69725 15.5508V12.3388C2.69725 12.2145 2.74663 12.0953 2.83454 12.0074C2.92245 11.9195 3.04168 11.8701 3.166 11.8701H6.37793C6.50225 11.8701 6.62148 11.9195 6.70939 12.0074C6.79729 12.0953 6.84668 12.2145 6.84668 12.3388V15.5508C6.84668 15.6751 6.79729 15.7943 6.70939 15.8822C6.62148 15.9701 6.50225 16.0195 6.37793 16.0195H3.166C3.04168 16.0195 2.92245 15.9701 2.83454 15.8822C2.74663 15.7943 2.69725 15.6751 2.69725 15.5508ZM3.63475 15.082H5.90918V12.8076H3.63475V15.082Z" fill="white"/>
</g>
<defs>
<clipPath id="clip0_355_8234">
<rect width="30" height="30" fill="white"/>
</clipPath>
</defs>
</svg>
