<svg width="31" height="31" viewBox="0 0 31 31" fill="none" xmlns="http://www.w3.org/2000/svg">
<path d="M27.2188 1.71777H3.78125C2.4875 1.71777 1.4375 2.76777 1.4375 4.06152V23.749C1.4375 25.0428 2.4875 26.0928 3.78125 26.0928H8.46875C8.72656 26.0928 8.9375 25.8818 8.9375 25.624C8.9375 25.3662 8.72656 25.1553 8.46875 25.1553H3.78125C3.00781 25.1553 2.375 24.5225 2.375 23.749V5.46777H28.625V23.749C28.625 24.5225 27.9922 25.1553 27.2188 25.1553H22.5312C22.2734 25.1553 22.0625 25.3662 22.0625 25.624C22.0625 25.8818 22.2734 26.0928 22.5312 26.0928H27.2188C28.5125 26.0928 29.5625 25.0428 29.5625 23.749V4.06152C29.5625 2.76777 28.5125 1.71777 27.2188 1.71777ZM2.375 4.06152C2.375 3.28809 3.00781 2.65527 3.78125 2.65527H21.125V4.53027H2.375V4.06152ZM22.0625 4.53027V2.65527H27.2188C27.9922 2.65527 28.625 3.28809 28.625 4.06152V4.53027H22.0625Z" fill="white"/>
<path d="M22.8363 20.1119L20.5535 18.1572C21.402 10.9525 15.7863 7.90098 15.716 7.86816C15.5801 7.79785 15.416 7.79785 15.2801 7.86816C15.2098 7.90566 9.59415 10.9525 10.4426 18.1572L8.15977 20.1119C8.00508 20.2432 7.95352 20.4635 8.03321 20.651L9.43946 23.9322C9.49571 24.0635 9.60821 24.1619 9.74415 24.1994C9.78633 24.2088 9.82852 24.2182 9.87071 24.2182C9.96915 24.2182 10.0629 24.19 10.1426 24.1291L11.8066 22.9432C11.877 23.1072 11.9473 23.2713 12.0223 23.44C12.027 23.4541 12.0316 23.4682 12.041 23.4822C12.0973 23.6041 12.2051 23.6979 12.3316 23.7307C12.3738 23.7447 12.416 23.7494 12.4629 23.7494H18.5191C18.6076 23.7497 18.6943 23.7247 18.7691 23.6774C18.8438 23.6301 18.9035 23.5623 18.941 23.4822C18.9457 23.4682 18.9504 23.4541 18.9598 23.44C19.0395 23.2713 19.1051 23.1072 19.1754 22.9432L20.8395 24.1291C20.9191 24.1854 21.0129 24.2182 21.1113 24.2182C21.1535 24.2182 21.1957 24.2135 21.2379 24.1994C21.3738 24.1619 21.4863 24.0635 21.5426 23.9322L22.9488 20.651C23.0285 20.4635 22.977 20.2432 22.8223 20.1119H22.8363ZM15.5004 8.81973C16.6207 9.5041 21.3973 12.9354 19.1145 20.4682H11.8863C9.60352 12.94 14.3801 9.5041 15.5004 8.81973ZM10.077 23.0275L9.03633 20.5994L10.6207 19.24C10.7332 19.8166 10.8926 20.4166 11.0895 21.0447V21.0822C11.1129 21.1525 11.141 21.2182 11.1645 21.2885C11.2395 21.5135 11.3285 21.7479 11.4176 21.9822C11.427 22.0057 11.4363 22.0291 11.441 22.0525L10.0723 23.0275H10.077ZM12.7723 22.8119C12.6571 22.5544 12.5461 22.295 12.4395 22.0338L12.327 21.7385C12.2848 21.626 12.2426 21.5182 12.2004 21.4057H18.8004C18.7582 21.5182 18.7207 21.626 18.6738 21.7385L18.5613 22.0338C18.4582 22.2916 18.3504 22.5494 18.2285 22.8119H12.7723ZM20.9238 23.0275L19.5551 22.0525C19.5551 22.0525 19.5738 22.0057 19.5785 21.9822C19.6676 21.7479 19.752 21.5182 19.8316 21.2885C19.8551 21.2182 19.8832 21.1525 19.9066 21.0822V21.0447C20.1082 20.4213 20.2629 19.8166 20.3754 19.24L21.9598 20.5994L20.9191 23.0275H20.9238ZM15.5004 24.6869C15.2426 24.6869 15.0316 24.8979 15.0316 25.1557V29.3744C15.0316 29.6322 15.2426 29.8432 15.5004 29.8432C15.7582 29.8432 15.9691 29.6322 15.9691 29.3744V25.1557C15.9691 24.8979 15.7582 24.6869 15.5004 24.6869ZM17.8441 24.6869C17.5863 24.6869 17.3754 24.8979 17.3754 25.1557V27.4994C17.3754 27.7572 17.5863 27.9682 17.8441 27.9682C18.102 27.9682 18.3129 27.7572 18.3129 27.4994V25.1557C18.3129 24.8979 18.102 24.6869 17.8441 24.6869ZM13.1566 24.6869C12.8988 24.6869 12.6879 24.8979 12.6879 25.1557V27.4994C12.6879 27.7572 12.8988 27.9682 13.1566 27.9682C13.4145 27.9682 13.6254 27.7572 13.6254 27.4994V25.1557C13.6254 24.8979 13.4145 24.6869 13.1566 24.6869Z" fill="white"/>
<path d="M15.5 16.7178C16.7938 16.7178 17.8438 15.6678 17.8438 14.374C17.8438 13.0803 16.7938 12.0303 15.5 12.0303C14.2062 12.0303 13.1562 13.0803 13.1562 14.374C13.1562 15.6678 14.2062 16.7178 15.5 16.7178ZM15.5 12.9678C16.2734 12.9678 16.9062 13.6006 16.9062 14.374C16.9062 15.1475 16.2734 15.7803 15.5 15.7803C14.7266 15.7803 14.0938 15.1475 14.0938 14.374C14.0938 13.6006 14.7266 12.9678 15.5 12.9678Z" fill="white"/>
</svg>
