<svg width="31" height="30" viewBox="0 0 31 30" fill="none" xmlns="http://www.w3.org/2000/svg">
<g clip-path="url(#clip0_355_4214)">
<path d="M14.2971 17.7296H12.6273M12.699 14.9991H11.4696C9.91563 14.9991 8.42527 15.6164 7.32641 16.7153L0.732266 23.3094C0.705057 23.3366 0.683477 23.3689 0.668759 23.4045C0.65404 23.44 0.646471 23.4781 0.646484 23.5166V29.2668C0.646484 29.3445 0.677351 29.419 0.732293 29.4739C0.787235 29.5289 0.861753 29.5597 0.939453 29.5597L4.40656 29.5599C4.4515 29.5599 4.49584 29.5496 4.53614 29.5297C4.57645 29.5098 4.61164 29.4809 4.639 29.4453L8.90498 23.8858C9.25772 23.4261 9.73886 23.0813 10.2876 22.8951C10.8362 22.7088 11.4278 22.6895 11.9875 22.8394L17.7485 24.3831C18.0962 24.4762 18.4623 24.4762 18.8101 24.3831L29.3331 21.5633C29.6456 21.4796 29.8312 21.1583 29.7474 20.8458L29.5861 20.2433C29.3769 19.4623 28.5736 18.9982 27.792 19.2074L19.4581 21.4406C19.1104 21.5337 18.7443 21.5337 18.3965 21.4406C18.0488 21.3474 17.7317 21.1643 17.4772 20.9098L14.2971 17.7296H17.2081C17.5849 17.7296 17.9265 17.5767 18.1737 17.33C18.4245 17.0787 18.5784 16.7305 18.5732 16.3457C18.5632 15.594 17.9292 14.9992 17.1774 14.9992H14.7496M18.9765 19.3261L17.0746 20.4242M19.9656 11.2414L22.2143 12.4236C22.7154 12.687 23.3011 12.2615 23.2054 11.7035L22.7759 9.19957C22.7572 9.09042 22.7653 8.97835 22.7995 8.87303C22.8338 8.76771 22.8931 8.67229 22.9724 8.595L24.7916 6.82172C25.197 6.42656 24.9733 5.73809 24.4131 5.6567L21.899 5.29137C21.7894 5.27545 21.6854 5.23312 21.5958 5.16802C21.5062 5.10293 21.4338 5.01702 21.3847 4.91771L20.2604 2.63953C20.0098 2.13187 19.2859 2.13187 19.0354 2.63953L17.9111 4.91771C17.8621 5.01702 17.7896 5.10291 17.7 5.168C17.6105 5.2331 17.5064 5.27543 17.3968 5.29137L14.8827 5.6567C14.3225 5.73809 14.0988 6.42656 14.5042 6.82172L16.3234 8.595C16.4027 8.6723 16.462 8.76772 16.4962 8.87304C16.5305 8.97836 16.5386 9.09042 16.5199 9.19957L16.0904 11.7035C15.9948 12.2615 16.5804 12.687 17.0815 12.4236L19.3302 11.2414C19.4282 11.1899 19.5372 11.163 19.6479 11.163C19.7586 11.163 19.8676 11.1899 19.9656 11.2414ZM22.5604 1.94924C22.999 2.27085 23.3859 2.65753 23.7078 3.09592C23.7792 3.19318 23.9255 3.19318 23.997 3.09592C24.3189 2.65756 24.7058 2.27088 25.1443 1.94924C25.2417 1.87781 25.2418 1.73145 25.1444 1.65996C24.7059 1.33785 24.319 0.950905 23.9969 0.512402C23.9255 0.415137 23.7792 0.415137 23.7077 0.512402C23.3856 0.950905 22.9987 1.33785 22.5602 1.65996C22.4629 1.73145 22.463 1.87787 22.5604 1.94924ZM25.3149 10.6421C25.8996 11.071 26.4155 11.5866 26.8447 12.171C26.94 12.3008 27.135 12.3008 27.2303 12.171C27.6595 11.5866 28.1754 11.071 28.7601 10.6421C28.89 10.5469 28.8901 10.3518 28.7603 10.2564C28.1757 9.82693 27.6598 9.31101 27.2303 8.72637C27.135 8.59664 26.94 8.59664 26.8447 8.72637C26.4152 9.31103 25.8993 9.82695 25.3147 10.2564C25.1849 10.3518 25.185 10.547 25.3149 10.6421ZM11.6394 10.1392C12.078 10.461 12.465 10.8477 12.787 11.2862C12.8585 11.3835 13.0048 11.3835 13.0763 11.2862C13.3982 10.8477 13.7852 10.461 14.2239 10.1392C14.3213 10.0678 14.3214 9.92139 14.224 9.84984C13.7854 9.52764 13.3984 9.14059 13.0762 8.70199C13.0047 8.60467 12.8584 8.60467 12.7869 8.70199C12.4648 9.14062 12.0778 9.52767 11.6391 9.84984C11.5419 9.92139 11.5419 10.0678 11.6394 10.1392Z" stroke="white" stroke-width="1.03501" stroke-miterlimit="10" stroke-linecap="round" stroke-linejoin="round"/>
<path d="M25.128 17.8089L24.9797 17.552C24.5751 16.8514 23.6793 16.6113 22.9786 17.0158L20.8244 18.2596M27.9812 19.1107L27.4659 18.2182C27.0614 17.5175 26.1655 17.2775 25.4649 17.682L18.9355 21.4516" stroke="white" stroke-width="1.03501" stroke-miterlimit="10" stroke-linecap="round" stroke-linejoin="round"/>
</g>
<defs>
<clipPath id="clip0_355_4214">
<rect width="30" height="30" fill="white" transform="translate(0.207031)"/>
</clipPath>
</defs>
</svg>
