<svg width="55" height="56" viewBox="0 0 55 56" fill="none" xmlns="http://www.w3.org/2000/svg">
<g clip-path="url(#clip0_275_1027)">
<g clip-path="url(#clip1_275_1027)">
<mask id="mask0_275_1027" style="mask-type:luminance" maskUnits="userSpaceOnUse" x="0" y="0" width="55" height="56">
<path d="M55 0.389648H0V55.3896H55V0.389648Z" fill="white"/>
</mask>
<g mask="url(#mask0_275_1027)">
<mask id="mask1_275_1027" style="mask-type:luminance" maskUnits="userSpaceOnUse" x="0" y="0" width="55" height="56">
<path d="M55 0.389648H0V55.3896H55V0.389648Z" fill="white"/>
</mask>
<g mask="url(#mask1_275_1027)">
<mask id="mask2_275_1027" style="mask-type:luminance" maskUnits="userSpaceOnUse" x="0" y="0" width="55" height="56">
<path d="M55 0.389648H0V55.3896H55V0.389648Z" fill="white"/>
</mask>
<g mask="url(#mask2_275_1027)">
<path opacity="0.2" d="M27.5 55.3896C42.6878 55.3896 55 43.0774 55 27.8896C55 12.7018 42.6878 0.389648 27.5 0.389648C12.3122 0.389648 0 12.7018 0 27.8896C0 43.0774 12.3122 55.3896 27.5 55.3896Z" fill="url(#paint0_linear_275_1027)"/>
</g>
</g>
</g>
<path d="M24.1214 42.7201C22.8172 42.7201 21.7539 41.6568 21.7539 40.347C21.7539 39.0372 22.8172 37.9795 24.1214 37.9795C25.4257 37.9795 26.4945 39.0427 26.4945 40.347C26.4945 41.6513 25.4313 42.7201 24.1214 42.7201ZM24.1214 38.9876C23.3708 38.9876 22.7621 39.5978 22.7621 40.347C22.7621 41.0976 23.3722 41.7119 24.1214 41.7119C24.8721 41.7119 25.4863 41.1018 25.4863 40.347C25.4863 39.5909 24.8762 38.9876 24.1214 38.9876Z" fill="white"/>
<path d="M34.0941 42.7201C32.7898 42.7201 31.7266 41.6568 31.7266 40.347C31.7266 39.0372 32.7898 37.9795 34.0941 37.9795C35.3984 37.9795 36.4672 39.0427 36.4672 40.347C36.4672 41.6513 35.4039 42.7201 34.0941 42.7201ZM34.0941 38.9876C33.3435 38.9876 32.7347 39.5978 32.7347 40.347C32.7347 41.0976 33.3449 41.7119 34.0941 41.7119C34.8447 41.7119 35.459 41.1018 35.459 40.347C35.459 39.5909 34.8488 38.9876 34.0941 38.9876Z" fill="white"/>
<path d="M14.5158 23.1813C14.3244 23.1813 14.1385 23.0711 14.0572 22.8838L13.3011 21.1966C12.7667 20.008 11.5836 19.2367 10.2793 19.2367H7.50409C7.22726 19.2367 7 19.0094 7 18.7326C7 18.4558 7.22725 18.2285 7.50409 18.2285H10.2793C11.9816 18.2285 13.5283 19.2312 14.2184 20.782L14.9745 22.4692C15.0902 22.7212 14.9745 23.0229 14.7225 23.1344C14.6564 23.1647 14.5861 23.1799 14.5159 23.1799L14.5158 23.1813Z" fill="white"/>
<path d="M37.188 35.9147H21.8505C20.6619 35.9147 19.5794 35.215 19.0905 34.127L14.0538 22.8841C13.9836 22.7285 13.9987 22.5467 14.0896 22.4062C14.1805 22.2657 14.3416 22.1748 14.5124 22.1748H18.2544C18.5312 22.1748 18.7585 22.4021 18.7585 22.6789C18.7585 22.9557 18.5312 23.183 18.2544 23.183H15.2877L20.0078 33.7207C20.3301 34.4465 21.0559 34.9148 21.8464 34.9148H37.1839C37.6921 34.9148 38.1356 34.5567 38.2416 34.0581L40.2965 24.5024C40.3668 24.1801 40.2869 23.8481 40.0803 23.5906C39.8737 23.3331 39.5666 23.1871 39.2347 23.1871H37.0833C36.8065 23.1871 36.5792 22.9598 36.5792 22.683C36.5792 22.4061 36.8065 22.1789 37.0833 22.1789H39.2347C39.8696 22.1789 40.4632 22.4612 40.8612 22.9543C41.2593 23.4474 41.4149 24.0878 41.2799 24.7117L39.225 34.2675C39.0184 35.2247 38.1618 35.9202 37.1798 35.9202L37.188 35.9147Z" fill="white"/>
<path d="M27.6707 28.899C23.2084 28.899 19.582 25.2726 19.582 20.8103C19.582 16.348 23.214 12.7217 27.6707 12.7217C32.1291 12.7217 35.7593 16.3537 35.7593 20.8103C35.7593 25.2688 32.133 28.899 27.6707 28.899ZM27.6707 13.7283C23.7676 13.7283 20.5887 16.9071 20.5887 20.8103C20.5887 24.7134 23.7674 27.8923 27.6707 27.8923C31.5738 27.8923 34.7527 24.7136 34.7527 20.8103C34.7527 16.9072 31.5739 13.7283 27.6707 13.7283Z" fill="white"/>
<path d="M27.671 28.899C25.1974 28.899 23.2637 25.3484 23.2637 20.8103C23.2637 16.2722 25.1974 12.7217 27.671 12.7217C30.1446 12.7217 32.0783 16.2722 32.0783 20.8103C32.0783 25.3484 30.1446 28.899 27.671 28.899ZM27.671 13.7283C25.8268 13.7283 24.2705 16.9718 24.2705 20.8103C24.2705 24.6489 25.8268 27.8923 27.671 27.8923C29.5152 27.8923 31.0715 24.6488 31.0715 20.8103C31.0715 16.9717 29.5151 13.7283 27.671 13.7283Z" fill="white"/>
<path d="M34.7078 18.9301H20.6291C20.3523 18.9301 20.125 18.7028 20.125 18.426C20.125 18.1491 20.3523 17.9219 20.6291 17.9219H34.7078C34.9846 17.9219 35.2119 18.1491 35.2119 18.426C35.2119 18.7028 34.9846 18.9301 34.7078 18.9301Z" fill="white"/>
<path d="M34.7078 23.6898H20.6291C20.3523 23.6898 20.125 23.4626 20.125 23.1857C20.125 22.9089 20.3523 22.6816 20.6291 22.6816H34.7078C34.9846 22.6816 35.2119 22.9089 35.2119 23.1857C35.2119 23.4626 34.9846 23.6898 34.7078 23.6898Z" fill="white"/>
<path d="M27.6721 28.8986C27.3952 28.8986 27.168 28.6713 27.168 28.3945L27.1693 13.2238C27.1693 12.947 27.3966 12.7197 27.6734 12.7197C27.9503 12.7197 28.1775 12.947 28.1775 13.2238V28.3945C28.1775 28.6713 27.9503 28.8986 27.6734 28.8986H27.6721Z" fill="white"/>
</g>
</g>
<defs>
<linearGradient id="paint0_linear_275_1027" x1="0" y1="27.8896" x2="55" y2="27.8896" gradientUnits="userSpaceOnUse">
<stop stop-color="#6DFAD9"/>
<stop offset="1" stop-color="#2755EE"/>
</linearGradient>
<clipPath id="clip0_275_1027">
<rect width="55" height="56" fill="white"/>
</clipPath>
<clipPath id="clip1_275_1027">
<rect width="55" height="56" fill="white"/>
</clipPath>
</defs>
</svg>
