<svg width="55" height="56" viewBox="0 0 55 56" fill="none" xmlns="http://www.w3.org/2000/svg">
<g clip-path="url(#clip0_9_69)">
<g clip-path="url(#clip1_9_69)">
<path opacity="0.2" d="M27.5 55.28C42.6878 55.28 55 42.9679 55 27.78C55 12.5922 42.6878 0.280029 27.5 0.280029C12.3122 0.280029 0 12.5922 0 27.78C0 42.9679 12.3122 55.28 27.5 55.28Z" fill="url(#paint0_linear_9_69)"/>
<path fill-rule="evenodd" clip-rule="evenodd" d="M39.0128 27.5378C38.8902 27.5584 38.7809 27.6269 38.7088 27.7282C38.6367 27.8295 38.6078 27.9552 38.6284 28.0778C38.7297 28.6778 38.7812 29.2825 38.7812 29.875C38.7812 33.1787 37.3094 36.1609 34.9356 38.1465C34.7378 36.8467 34.1764 35.6293 33.3163 34.6349C32.4562 33.6404 31.3324 32.9094 30.0747 32.5262C30.5895 32.1846 31.0119 31.721 31.3042 31.1766C31.5965 30.6323 31.7496 30.0241 31.75 29.4062C31.75 27.3381 30.0681 25.6562 28 25.6562C25.9319 25.6562 24.25 27.3381 24.25 29.4062C24.25 30.7075 24.9166 31.8531 25.9253 32.5262C24.6676 32.9094 23.5438 33.6404 22.6837 34.6349C21.8236 35.6293 21.2622 36.8467 21.0644 38.1465C19.8561 37.1341 18.8853 35.8683 18.2208 34.4389C17.5562 33.0094 17.2141 31.4513 17.2188 29.875C17.2188 29.2825 17.2703 28.6787 17.3716 28.0778C17.3828 28.0167 17.3819 27.9539 17.3686 27.8931C17.3554 27.8324 17.3303 27.7748 17.2946 27.7239C17.259 27.673 17.2135 27.6296 17.161 27.5964C17.1084 27.5632 17.0497 27.5408 16.9884 27.5305C16.9271 27.5201 16.8644 27.5221 16.8038 27.5363C16.7433 27.5504 16.6861 27.5765 16.6358 27.613C16.5854 27.6494 16.5428 27.6955 16.5104 27.7486C16.478 27.8017 16.4565 27.8607 16.4472 27.9222C16.3377 28.5674 16.2822 29.2206 16.2812 29.875C16.2812 35.6312 20.3931 40.4903 26.0575 41.4278C26.178 41.4434 26.2998 41.4116 26.3973 41.3391C26.4948 41.2667 26.5603 41.1592 26.5801 41.0394C26.5999 40.9195 26.5725 40.7967 26.5035 40.6967C26.4345 40.5967 26.3294 40.5274 26.2103 40.5034C24.6787 40.2504 23.2202 39.6683 21.9353 38.7972C22.1594 35.6162 24.775 33.1562 28 33.1562C31.225 33.1562 33.8397 35.6162 34.0656 38.7972C32.7805 39.6684 31.3216 40.2505 29.7897 40.5034C29.7273 40.5115 29.6671 40.5321 29.6128 40.5639C29.5585 40.5957 29.5112 40.6382 29.4736 40.6887C29.4361 40.7392 29.4091 40.7968 29.3943 40.8579C29.3794 40.9191 29.3771 40.9826 29.3874 41.0447C29.3976 41.1068 29.4203 41.1662 29.454 41.2194C29.4877 41.2725 29.5318 41.3184 29.5836 41.3541C29.6354 41.3899 29.6939 41.4148 29.7556 41.4275C29.8172 41.4401 29.8808 41.4402 29.9425 41.4278C35.6069 40.4903 39.7188 35.6322 39.7188 29.875C39.7188 29.23 39.6625 28.5728 39.5528 27.9222C39.5428 27.8614 39.5209 27.8031 39.4883 27.7509C39.4557 27.6986 39.4131 27.6533 39.3629 27.6175C39.3127 27.5818 39.2559 27.5564 39.1958 27.5427C39.1357 27.529 39.0735 27.5273 39.0128 27.5378ZM25.1875 29.4062C25.1875 27.8556 26.4494 26.5937 28 26.5937C29.5506 26.5937 30.8125 27.8556 30.8125 29.4062C30.8125 30.9569 29.5506 32.2187 28 32.2187C26.4494 32.2187 25.1875 30.9569 25.1875 29.4062ZM33.1337 18.1365C33.1068 18.0532 33.057 17.9791 32.9901 17.9225C32.9231 17.866 32.8417 17.8294 32.755 17.8169L29.7597 17.3819L28.42 14.6669C28.2625 14.3481 27.7375 14.3481 27.58 14.6669L26.2403 17.3819L23.245 17.8169C23.1584 17.8294 23.0771 17.866 23.0102 17.9224C22.9433 17.9788 22.8936 18.0528 22.8665 18.136C22.8395 18.2192 22.8363 18.3083 22.8573 18.3932C22.8783 18.4781 22.9226 18.5555 22.9853 18.6165L25.1528 20.7287L24.6409 23.7119C24.6261 23.7981 24.6357 23.8868 24.6687 23.9679C24.7017 24.049 24.7567 24.1192 24.8275 24.1706C24.8984 24.2221 24.9822 24.2526 25.0695 24.2589C25.1568 24.2651 25.2441 24.2468 25.3216 24.2059L28 22.7969L30.6784 24.2059C30.7557 24.2474 30.8432 24.266 30.9306 24.2597C31.0181 24.2534 31.102 24.2224 31.1725 24.1703C31.2434 24.1188 31.2985 24.0485 31.3315 23.9673C31.3645 23.8861 31.374 23.7973 31.3591 23.7109L30.8472 20.7297L33.0156 18.6156C33.0782 18.5547 33.1226 18.4774 33.1436 18.3926C33.1646 18.3078 33.1616 18.2188 33.1347 18.1356L33.1337 18.1365ZM30.0156 20.2281C29.9612 20.2812 29.9204 20.3468 29.8969 20.4191C29.8734 20.4915 29.8678 20.5684 29.8806 20.6434L30.2744 22.9337L28.2175 21.8519C28.1501 21.8167 28.0751 21.7983 27.9991 21.7983C27.923 21.7983 27.8481 21.8167 27.7806 21.8519L25.7247 22.9337L26.1175 20.6434C26.1303 20.5684 26.1247 20.4915 26.1012 20.4191C26.0777 20.3468 26.037 20.2812 25.9825 20.2281L24.3194 18.6072L26.6181 18.2734C26.6932 18.2624 26.7645 18.2334 26.8258 18.1888C26.8872 18.1442 26.9369 18.0854 26.9706 18.0175L28 15.9344L29.0284 18.0184C29.0622 18.0864 29.1118 18.1452 29.1732 18.1897C29.2346 18.2343 29.3059 18.2633 29.3809 18.2744L31.6797 18.6081L30.0166 20.229L30.0156 20.2281Z" fill="white"/>
<path fill-rule="evenodd" clip-rule="evenodd" d="M16.7828 25.6778C16.7678 25.7641 16.7772 25.853 16.8101 25.9342C16.843 26.0154 16.898 26.0858 16.9689 26.1374C17.0398 26.1889 17.1237 26.2195 17.2111 26.2258C17.2985 26.2321 17.3859 26.2137 17.4634 26.1728L19.5625 25.0684L21.6625 26.1728C21.7397 26.214 21.8269 26.2326 21.9142 26.2263C22.0015 26.22 22.0852 26.1891 22.1556 26.1372C22.2266 26.0857 22.2816 26.0154 22.3146 25.9342C22.3476 25.853 22.3571 25.7642 22.3422 25.6778L21.9409 23.3406L23.6397 21.6859C23.7026 21.6249 23.7472 21.5475 23.7684 21.4624C23.7895 21.3774 23.7864 21.2881 23.7594 21.2047C23.7323 21.1213 23.6824 21.0472 23.6154 20.9907C23.5483 20.9343 23.4668 20.8977 23.38 20.8853L21.0325 20.545L19.9825 18.4169C19.825 18.0981 19.3 18.0981 19.1425 18.4169L18.0925 20.545L15.745 20.8853C15.6582 20.8977 15.5767 20.9343 15.5096 20.9907C15.4426 21.0472 15.3927 21.1213 15.3656 21.2047C15.3386 21.2881 15.3355 21.3774 15.3566 21.4624C15.3778 21.5475 15.4224 21.6249 15.4853 21.6859L17.1841 23.3406L16.7828 25.6778ZM16.8203 21.6775L18.4703 21.4375C18.5455 21.4266 18.617 21.3976 18.6786 21.3531C18.7401 21.3085 18.7899 21.2496 18.8237 21.1815L19.5625 19.6844L20.3012 21.1815C20.335 21.2495 20.3846 21.3083 20.446 21.3529C20.5074 21.3974 20.5787 21.4265 20.6537 21.4375L22.3047 21.6775L21.1103 22.8409C21.0559 22.894 21.0151 22.9596 20.9916 23.0319C20.9681 23.1043 20.9625 23.1812 20.9753 23.2562L21.2575 24.9006L19.7809 24.1244C19.7135 24.0892 19.6386 24.0708 19.5625 24.0708C19.4864 24.0708 19.4115 24.0892 19.3441 24.1244L17.8675 24.9006L18.1487 23.2562C18.1617 23.1813 18.1562 23.1044 18.1329 23.0321C18.1095 22.9597 18.069 22.8941 18.0147 22.8409L16.8203 21.6775ZM40.255 20.8853L37.9075 20.545L36.8575 18.4169C36.7 18.0981 36.175 18.0981 36.0175 18.4169L34.9675 20.545L32.62 20.8853C32.5332 20.8977 32.4517 20.9343 32.3846 20.9907C32.3176 21.0472 32.2677 21.1213 32.2406 21.2047C32.2136 21.2881 32.2105 21.3774 32.2316 21.4624C32.2528 21.5475 32.2974 21.6249 32.3603 21.6859L34.0591 23.3406L33.6578 25.6778C33.6428 25.7641 33.6522 25.853 33.6851 25.9342C33.718 26.0154 33.773 26.0858 33.8439 26.1374C33.9148 26.1889 33.9987 26.2195 34.0861 26.2258C34.1735 26.2321 34.2609 26.2137 34.3384 26.1728L36.4375 25.0684L38.5375 26.1728C38.6147 26.214 38.7019 26.2326 38.7892 26.2263C38.8765 26.22 38.9602 26.1891 39.0306 26.1372C39.1016 26.0857 39.1566 26.0154 39.1896 25.9342C39.2226 25.853 39.2321 25.7642 39.2172 25.6778L38.8159 23.3406L40.5147 21.6859C40.5776 21.6249 40.6222 21.5475 40.6434 21.4624C40.6645 21.3774 40.6614 21.2881 40.6344 21.2047C40.6073 21.1213 40.5574 21.0472 40.4904 20.9907C40.4233 20.9343 40.3418 20.8977 40.255 20.8853ZM37.9853 22.8409C37.9309 22.894 37.8901 22.9596 37.8666 23.0319C37.8431 23.1043 37.8375 23.1812 37.8503 23.2562L38.1325 24.9006L36.6559 24.1244C36.5885 24.0892 36.5136 24.0708 36.4375 24.0708C36.3614 24.0708 36.2865 24.0892 36.2191 24.1244L34.7425 24.9006L35.0238 23.2562C35.0367 23.1813 35.0312 23.1044 35.0079 23.0321C34.9845 22.9597 34.944 22.8941 34.8897 22.8409L33.6953 21.6775L35.3453 21.4375C35.4205 21.4266 35.492 21.3976 35.5536 21.3531C35.6151 21.3085 35.6649 21.2496 35.6987 21.1815L36.4375 19.6844L37.1763 21.1815C37.21 21.2495 37.2596 21.3083 37.321 21.3529C37.3824 21.3974 37.4537 21.4265 37.5287 21.4375L39.1797 21.6775L37.9853 22.8409Z" fill="white"/>
<path d="M28 41.5938C28.2589 41.5938 28.4688 41.3839 28.4688 41.125C28.4688 40.8661 28.2589 40.6562 28 40.6562C27.7411 40.6562 27.5312 40.8661 27.5312 41.125C27.5312 41.3839 27.7411 41.5938 28 41.5938Z" fill="white"/>
</g>
</g>
<defs>
<linearGradient id="paint0_linear_9_69" x1="0" y1="27.78" x2="55" y2="27.78" gradientUnits="userSpaceOnUse">
<stop stop-color="#6DFAD9"/>
<stop offset="1" stop-color="#2755EE"/>
</linearGradient>
<clipPath id="clip0_9_69">
<rect width="55" height="55" fill="white" transform="translate(0 0.280029)"/>
</clipPath>
<clipPath id="clip1_9_69">
<rect width="55" height="55" fill="white" transform="translate(0 0.280029)"/>
</clipPath>
</defs>
</svg>
