<svg width="40" height="50" viewBox="0 0 40 50" fill="none" xmlns="http://www.w3.org/2000/svg">
<path d="M22.5796 14.0123C22.4077 13.927 22.3352 13.71 22.4176 13.532C22.5014 13.3526 22.7088 13.2774 22.8821 13.3642C23.1321 13.4886 23.392 13.545 23.6264 13.5233C23.831 13.506 24.0156 13.4264 24.152 13.2861L26.8281 10.5054L25.2983 10.2739C25.1392 10.2493 25.0228 10.1177 25.0043 9.96141L24.7642 8.26726L22.0412 11.0957C21.9049 11.236 21.831 11.427 21.8125 11.6397C21.7941 11.8842 21.8452 12.1533 21.9673 12.4151C22.0497 12.5945 21.9773 12.8101 21.8054 12.8955C21.6321 12.9837 21.4247 12.9071 21.3409 12.7291C21.1648 12.3486 21.0895 11.9507 21.1208 11.5818C21.152 11.2013 21.2927 10.8526 21.5498 10.5835L21.608 10.5242C21.5185 10.5459 21.4205 10.5315 21.3353 10.4736C20.358 9.79941 19.2841 9.26845 18.1364 8.90819C17.027 8.56096 15.8509 8.37433 14.6307 8.37433C11.2856 8.37433 8.25581 9.78204 6.06272 12.0592C3.86956 14.3364 2.51301 17.4818 2.51301 20.9566C2.51301 24.4303 3.87098 27.577 6.06272 29.8529C8.25589 32.1301 11.2856 33.5393 14.6307 33.5393C14.7671 33.5393 14.8679 33.5393 14.939 33.5378C15.0313 33.5349 15.1336 33.5306 15.2444 33.5262C15.4361 33.5161 15.5981 33.6695 15.608 33.8677C15.6165 34.0673 15.4688 34.2366 15.277 34.2453C15.1776 34.2511 15.0696 34.2554 14.9546 34.2568C14.8154 34.2597 14.706 34.2641 14.6307 34.2641C11.0924 34.2641 7.88927 32.7739 5.57109 30.3667C3.2529 27.9578 1.81836 24.6319 1.81836 20.9585C1.81836 17.2837 3.25301 13.9563 5.57109 11.5504C7.88927 9.14152 11.094 7.65297 14.6307 7.65297C15.9177 7.65297 17.1605 7.85117 18.334 8.21719C19.5485 8.59767 20.6848 9.15904 21.7189 9.87374C21.8425 9.9591 21.8979 10.1139 21.8652 10.2586L24.763 7.24934C24.8141 7.19725 24.8823 7.15964 24.9576 7.14806C25.1494 7.12057 25.3241 7.25657 25.3539 7.45333L25.655 9.60033L27.5996 9.89691C27.6778 9.90415 27.753 9.93887 27.8113 10.0011C27.9476 10.1414 27.9476 10.3715 27.8113 10.5118L24.9547 13.4791C25.0925 13.4444 25.2431 13.5008 25.3255 13.6295C25.9547 14.6191 26.4604 15.6998 26.8212 16.8486C27.1692 17.9626 27.3795 19.1417 27.432 20.3642C27.4391 20.5639 27.2914 20.7302 27.0996 20.7404C26.9079 20.749 26.7459 20.5942 26.7374 20.396C26.6877 19.2415 26.4874 18.1261 26.1593 17.0714C25.8184 15.9834 25.3411 14.962 24.7445 14.0274C24.6891 13.942 24.6749 13.8393 24.6962 13.7467L24.6423 13.8017C24.3837 14.0708 24.0485 14.2154 23.6835 14.2487C23.3284 14.2791 22.9434 14.1995 22.5769 14.0172L22.5796 14.0123ZM15.1123 20.9568C14.9773 21.0971 14.7572 21.0971 14.6208 20.9568C14.4844 20.8164 14.4844 20.5879 14.6194 20.4475L22.1521 12.619C22.2885 12.4772 22.5072 12.4772 22.6436 12.6176C22.78 12.7579 22.7814 12.9865 22.645 13.1283L15.1123 20.9568ZM34.7287 22.3167C34.5795 22.1923 34.5568 21.9637 34.6775 21.8104C34.7997 21.6556 35.0184 21.6339 35.1662 21.7597C35.6378 22.1576 36.0653 22.6104 36.4389 23.1038C36.811 23.5971 37.1306 24.1338 37.3934 24.7053C37.6505 25.2652 37.848 25.8584 37.9829 26.4776C38.1136 27.0809 38.1832 27.7059 38.1832 28.3425C38.1832 28.9791 38.1136 29.6041 37.9829 30.2074C37.848 30.8281 37.6506 31.4212 37.3934 31.9797C37.1321 32.5541 36.811 33.0908 36.4389 33.5813C36.0653 34.076 35.6378 34.5274 35.1662 34.9267C35.0184 35.0526 34.7997 35.028 34.6775 34.8747C34.5568 34.7198 34.5795 34.4942 34.7287 34.3683C35.1576 34.0051 35.5468 33.5914 35.892 33.1371C36.2329 32.6842 36.5269 32.1952 36.7656 31.6744C37.0014 31.1608 37.1846 30.6168 37.3068 30.0512C37.4261 29.5057 37.4872 28.9343 37.4872 28.344C37.4872 27.7552 37.4247 27.1837 37.3068 26.6368C37.1846 26.0726 37.0014 25.53 36.7656 25.0164C36.5283 24.4956 36.2329 24.0037 35.892 23.5538C35.5468 23.098 35.1576 22.6842 34.7287 22.3211V22.3167ZM32.2272 25.5025C32.0795 25.3767 32.0568 25.1495 32.1775 24.9961C32.2983 24.8413 32.517 24.8196 32.6662 24.9441C32.7784 25.0381 32.8835 25.1394 32.9829 25.2421C33.0852 25.3477 33.179 25.4562 33.2684 25.5705C33.5795 25.9669 33.8139 26.4067 33.973 26.8683C34.1363 27.3457 34.2173 27.8448 34.2173 28.3425C34.2173 28.8402 34.1363 29.3393 33.973 29.8168C33.8139 30.2783 33.581 30.7181 33.2684 31.1145C33.179 31.2288 33.0838 31.3388 32.9829 31.4444C32.8835 31.5457 32.7784 31.6455 32.6662 31.741C32.517 31.8668 32.2969 31.8451 32.1775 31.6903C32.0568 31.5355 32.0795 31.3084 32.2272 31.1811C32.3196 31.1044 32.4076 31.019 32.4929 30.9322C32.5795 30.844 32.6576 30.7528 32.7329 30.6602C32.9914 30.3304 33.1875 29.9615 33.3182 29.5766C33.4545 29.1802 33.5227 28.7621 33.5227 28.344C33.5227 27.9259 33.4531 27.5092 33.3182 27.1113C33.1875 26.725 32.9915 26.359 32.7329 26.0292C32.6591 25.9351 32.5795 25.8425 32.4957 25.7557C32.4119 25.6675 32.3224 25.585 32.2287 25.5069L32.2272 25.5025ZM18.6051 32.7247C18.6051 32.5251 18.7613 32.3645 18.9531 32.3645C19.1448 32.3645 19.2997 32.5236 19.2997 32.7247L19.2982 34.9961C19.571 35.0077 19.8153 35.1278 19.9957 35.3159C20.1832 35.5126 20.3011 35.7832 20.3011 36.0827L20.2997 36.6585C20.2997 36.8379 20.2301 36.9985 20.1164 37.1157C20.0042 37.2314 19.8494 37.3037 19.6789 37.3037L16.9247 37.3008C16.7528 37.3008 16.598 37.2271 16.4858 37.1113C16.3736 36.9956 16.3054 36.8335 16.3054 36.6556L16.3082 32.4804C16.3082 32.2822 16.4645 32.1201 16.6562 32.1201C16.848 32.1201 17.0028 32.2822 17.0028 32.4804L17 36.5804L19.6079 36.5833V36.0827C19.6079 35.9829 19.5682 35.8917 19.5042 35.8252C19.4403 35.7586 19.3523 35.7181 19.2585 35.7181H19.2571L19.2244 35.7167C19.054 35.7167 18.8991 35.6443 18.7869 35.5271C18.6747 35.4114 18.6037 35.2494 18.6037 35.0728H18.6051L18.6065 32.7248L18.6051 32.7247ZM16.1292 24.3725L18.8408 24.3754L25.5241 21.4124C25.7926 21.2909 26.0724 21.2562 26.3451 21.2953C26.6235 21.3343 26.8948 21.4472 27.1377 21.6237C27.3778 21.7987 27.5639 22.0186 27.6889 22.2689C27.8153 22.5192 27.8806 22.8042 27.8806 23.108L27.8707 33.3699C27.8707 33.6723 27.8039 33.9558 27.6761 34.209C27.5497 34.4622 27.365 34.6792 27.125 34.8528C26.8821 35.0279 26.6122 35.1422 26.3309 35.1798C26.0568 35.216 25.7784 35.1812 25.5099 35.0626L18.8339 32.0837L16.1251 32.0808C15.7757 32.0808 15.4546 31.9347 15.2203 31.7018C15.064 31.5441 14.9433 31.3459 14.8751 31.1231H14.4618V31.1245H14.4603V31.1231C14.172 31.1231 13.9106 31.0001 13.7231 30.8033C13.5342 30.6066 13.4163 30.3361 13.4177 30.038H13.4163V30.0366H13.4177L13.4206 26.4139C13.4206 26.1159 13.537 25.8439 13.7274 25.6471C13.9163 25.4504 14.1791 25.3303 14.466 25.3303L14.8808 25.3317C14.9475 25.1089 15.0669 24.9107 15.2259 24.7545C15.4617 24.5201 15.7827 24.3754 16.1308 24.3754L16.1292 24.3725ZM18.9133 25.0973L16.1292 25.0944C15.9673 25.0944 15.8181 25.1624 15.7059 25.2738C15.5951 25.3838 15.5226 25.5357 15.517 25.7035C15.5099 25.896 15.3565 26.0508 15.1704 26.0508L14.4658 26.0493C14.3692 26.0493 14.2812 26.0913 14.2173 26.1564C14.1533 26.2229 14.1121 26.3141 14.1121 26.4125L14.1093 30.0351H14.1107V30.0366H14.1093C14.1093 30.1349 14.1491 30.2261 14.2144 30.2926C14.2769 30.3592 14.3636 30.3997 14.4587 30.3997V30.3983H14.4602V30.3997L15.1505 30.4012C15.3422 30.3939 15.5042 30.5487 15.5099 30.7469C15.517 30.9147 15.588 31.0681 15.6988 31.181C15.8096 31.2895 15.9587 31.3575 16.1207 31.3575L18.8763 31.3604C18.9317 31.3575 18.9886 31.3661 19.0411 31.3878L25.7811 34.3942C25.9331 34.4622 26.0894 34.4839 26.2413 34.4622C26.4061 34.4391 26.5723 34.3696 26.7243 34.2582C26.8706 34.1526 26.9842 34.021 27.0581 33.8719C27.1334 33.7215 27.1731 33.5507 27.1731 33.367L27.1831 23.1051C27.1831 22.9214 27.1433 22.7507 27.068 22.6002C26.9942 22.4498 26.8819 22.3181 26.7371 22.2125C26.5836 22.1025 26.4203 22.0302 26.2527 22.007C26.0993 21.9853 25.9445 22.007 25.7911 22.0736L19.0452 25.0669C19.004 25.0843 18.9572 25.0944 18.9089 25.0944L18.9133 25.0973ZM28.3165 30.3014C28.1248 30.3014 27.97 30.1394 27.97 29.9412C27.97 29.743 28.1248 29.5809 28.3165 29.5809C28.6518 29.5809 28.9572 29.4391 29.1773 29.2105C29.3975 28.982 29.5339 28.6665 29.5339 28.3194H29.5325L29.5339 28.3179C29.5339 27.9707 29.3975 27.6524 29.1773 27.4252C28.9586 27.1952 28.656 27.0549 28.3194 27.0549C28.1262 27.0549 27.9714 26.8928 27.9714 26.6932C27.9714 26.4935 28.1262 26.3315 28.3194 26.3315V26.3329C28.8464 26.3329 29.3251 26.5557 29.6702 26.916C30.0168 27.2733 30.2285 27.771 30.2285 28.3179H30.2299L30.2285 28.3194C30.2285 28.8662 30.0126 29.3639 29.6674 29.7213C29.3208 30.0815 28.8435 30.3014 28.3165 30.3V30.3014ZM17.9045 29.1816C18.0977 29.1816 18.2526 29.3437 18.2526 29.5433C18.2526 29.7415 18.0977 29.9036 17.9045 29.9036L16.1063 29.9021C15.9145 29.9021 15.7597 29.7401 15.7597 29.5404C15.7597 29.3422 15.9145 29.1802 16.1063 29.1802L17.9045 29.1816ZM17.9074 26.6585C18.0991 26.6585 18.254 26.8205 18.254 27.0187C18.254 27.2184 18.0991 27.3804 17.9074 27.3804L16.1091 27.3775C15.9173 27.3775 15.7625 27.2155 15.7625 27.0173C15.7625 26.8176 15.9173 26.6556 16.1091 26.6556L17.9074 26.6585ZM15.8023 21.3707C15.8648 21.1812 16.0608 21.0799 16.2426 21.145C16.423 21.2087 16.521 21.4141 16.4599 21.6022C16.3292 22.0044 16.0792 22.3473 15.7554 22.5889C15.4386 22.8233 15.0494 22.965 14.6304 22.965C14.0977 22.965 13.6147 22.7393 13.2639 22.3777C12.9144 22.0145 12.6985 21.5125 12.6985 20.9584C12.6985 20.5099 12.842 20.0918 13.0849 19.7562C13.3335 19.4118 13.6843 19.1543 14.0906 19.0313C14.2752 18.9764 14.4684 19.0863 14.521 19.2773C14.5749 19.4683 14.467 19.6679 14.2838 19.7243C14.0238 19.8039 13.7994 19.9688 13.6389 20.1873C13.4855 20.4014 13.3946 20.6676 13.3946 20.957C13.3946 21.3114 13.5324 21.6326 13.7568 21.8641C13.9812 22.0955 14.2894 22.2402 14.6303 22.2402C14.8988 22.2402 15.1474 22.152 15.3491 22.0015C15.5579 21.8467 15.7184 21.6254 15.8022 21.3722L15.8023 21.3707ZM12.5395 25.7514C12.7156 25.8339 12.7923 26.048 12.7128 26.2289C12.6346 26.4112 12.4287 26.4922 12.2525 26.4097C11.2383 25.9323 10.3818 25.1583 9.78235 24.1962C9.20137 23.2616 8.86617 22.1505 8.86617 20.9569C8.86617 19.3047 9.51246 17.8073 10.5537 16.725C11.5977 15.6414 13.038 14.9701 14.6289 14.9701C15.1474 14.9701 15.6502 15.0424 16.1289 15.1755C16.6233 15.3144 17.0906 15.5199 17.5224 15.7803C17.69 15.8801 17.7468 16.1 17.6502 16.2736C17.5536 16.4458 17.342 16.5051 17.1744 16.4053C16.7951 16.1752 16.3832 15.9944 15.9499 15.8743C15.5295 15.7571 15.0863 15.6949 14.6289 15.6949C13.2298 15.6949 11.9627 16.2823 11.0465 17.2357C10.1303 18.1877 9.56357 19.5042 9.56357 20.9568C9.56357 22.0057 9.85761 22.9852 10.3675 23.8041C10.8931 24.6519 11.6474 25.3318 12.538 25.7514L12.5395 25.7514ZM19.0296 18.3426C18.9345 18.1689 18.9913 17.9476 19.1589 17.8492C19.3265 17.7494 19.5382 17.8087 19.6348 17.9823C19.8791 18.4265 20.0722 18.9068 20.2015 19.4175C20.3294 19.9108 20.3961 20.4259 20.3961 20.9554C20.3961 21.291 20.3691 21.6224 20.3152 21.9464C20.264 22.2734 20.1845 22.596 20.0794 22.9085C20.0169 23.0966 19.8194 23.1965 19.639 23.1313C19.4586 23.0662 19.362 22.8608 19.426 22.6742C19.5155 22.4051 19.5851 22.1229 19.6305 21.8293C19.676 21.5486 19.7001 21.2578 19.7001 20.9569C19.7001 20.4867 19.6419 20.0324 19.5311 19.6012C19.4174 19.1571 19.2484 18.7346 19.0311 18.344L19.0296 18.3426ZM12.4573 29.6463C12.6419 29.6969 12.7542 29.8937 12.7059 30.0861C12.6576 30.2785 12.4686 30.3942 12.284 30.3436C10.2499 29.7967 8.48578 28.5583 7.23851 26.8815C6.01833 25.2409 5.29247 23.185 5.29247 20.9556C5.29247 18.2762 6.33793 15.8515 8.02825 14.0978C9.71858 12.3414 12.0537 11.2578 14.6319 11.2578C15.6418 11.2578 16.6148 11.4242 17.5268 11.7338C18.4728 12.0535 19.3506 12.5266 20.1361 13.1227C20.291 13.2399 20.3251 13.467 20.2114 13.6262C20.0978 13.7882 19.8805 13.8229 19.7256 13.7028C18.9984 13.1516 18.1859 12.7147 17.3123 12.4181C16.47 12.1345 15.568 11.9797 14.6305 11.9797C12.2441 11.9797 10.0836 12.9852 8.51957 14.6085C6.95565 16.2332 5.98692 18.477 5.98692 20.9555C5.98692 23.0215 6.65881 24.9241 7.78663 26.4415C8.94288 27.9924 10.575 29.1397 12.4557 29.6446L12.4573 29.6463ZM21.6333 15.6922C21.5211 15.5301 21.5552 15.3059 21.7114 15.1887C21.8662 15.0715 22.085 15.1077 22.1972 15.2697C22.7639 16.0814 23.2128 16.9914 23.5182 17.9679C23.8122 18.9112 23.9727 19.9167 23.9727 20.9569C23.9727 21.1566 23.8165 21.3186 23.6233 21.3186C23.4316 21.3186 23.2753 21.1566 23.2753 20.9569C23.2753 19.9891 23.129 19.0574 22.8563 18.1878C22.575 17.2865 22.1602 16.4459 21.6333 15.6907L21.6333 15.6922Z" fill="white"/>
</svg>
