<svg width="32" height="30" viewBox="0 0 32 30" fill="none" xmlns="http://www.w3.org/2000/svg">
<path d="M29.5923 0.000107152H17.1668C15.839 0.000107152 14.7595 1.07793 14.7595 2.40359V8.54194H2.86639C1.28592 8.54194 0 9.82579 0 11.4037V24.4929C0 25.0243 0.282601 25.4872 0.761087 25.723C0.964441 25.823 1.17377 25.8723 1.3846 25.8723C1.67169 25.8723 1.95878 25.7812 2.20399 25.5976L5.54886 23.1135H16.0635V26.453C16.0635 27.489 16.9098 28.334 17.9475 28.334H25.4807L27.4559 29.8015C27.6324 29.9313 27.8342 30 28.0421 30C28.1916 30 28.3441 29.9657 28.4906 29.8925C28.8316 29.7208 29.0349 29.3924 29.0349 29.0102L29.0334 21.1193C29.0334 20.0833 28.1871 19.2383 27.1494 19.2383H20.995V12.0115H27.3871L30.089 14.0179C30.3028 14.1791 30.5481 14.2583 30.8008 14.2583C30.9847 14.2583 31.1686 14.2165 31.3406 14.1284C31.7533 13.9224 31.9985 13.5208 31.9985 13.0625L32 2.40348C32 1.07782 30.9201 0.000107152 29.5923 0.000107152ZM28.2481 21.1194V29.0103C28.2481 29.0939 28.2092 29.1596 28.133 29.194C28.0597 29.2328 27.9835 29.2238 27.9147 29.1746L25.8363 27.6309C25.7675 27.5817 25.6868 27.5548 25.603 27.5548H17.9428C17.3342 27.5548 16.8408 27.0622 16.8408 26.4546V21.1192C16.8408 20.5116 17.3342 20.019 17.9428 20.019H27.1445C27.7546 20.0175 28.2481 20.5118 28.2481 21.1194ZM17.9428 19.2384C16.9051 19.2384 16.0588 20.0833 16.0588 21.1194V22.339H5.41707C5.33333 22.339 5.25259 22.3659 5.18381 22.4152L1.73428 24.9754C1.54738 25.1172 1.31713 25.1366 1.10629 25.0291C0.895452 24.9216 0.777332 24.7276 0.777332 24.4947L0.778828 11.404C0.778828 10.253 1.71634 9.32147 2.86469 9.32147H18.1266C19.2794 9.32147 20.2125 10.2575 20.2125 11.404V19.2384L17.9428 19.2384ZM31.2193 13.0626C31.2193 13.2268 31.1385 13.3612 30.989 13.4328C30.8395 13.506 30.687 13.494 30.5524 13.394L27.7473 11.307C27.6786 11.2578 27.5978 11.2309 27.5141 11.2309L20.9872 11.2324C20.899 9.73356 19.652 8.54228 18.1283 8.54228H15.54V2.40392C15.54 1.50973 16.2712 0.779717 17.1669 0.779717H29.5924C30.488 0.779717 31.2192 1.50973 31.2192 2.40392L31.2193 13.0626ZM25.2322 2.38868C24.3365 2.38868 23.8012 2.72905 23.3796 3.2784C22.9579 2.72755 22.4226 2.38868 21.527 2.38868C20.8616 2.38868 20.2605 2.68277 19.8344 3.21871C19.3559 3.81436 19.1764 4.62199 19.3484 5.36989C19.6355 6.61193 20.8108 7.58974 22.1699 8.72576C22.4795 8.98552 22.8009 9.25273 23.1224 9.53191C23.1957 9.59759 23.2869 9.62745 23.3796 9.62745C23.4708 9.62745 23.5635 9.59759 23.6368 9.53191C23.9538 9.25274 24.2768 8.98552 24.5893 8.72576C25.9485 7.59421 27.1237 6.6164 27.4108 5.36989C27.5828 4.6205 27.4033 3.81883 26.9249 3.21871C26.4987 2.6828 25.8976 2.38868 25.2322 2.38868ZM26.6482 5.19371C26.4224 6.18344 25.3383 7.08214 24.0868 8.12565C23.8535 8.31673 23.6158 8.51527 23.378 8.72129C23.1373 8.51528 22.8996 8.31971 22.6693 8.12565C21.4178 7.08214 20.3337 6.18497 20.1079 5.19371C19.9898 4.68168 20.1199 4.1129 20.4444 3.70387C20.7195 3.36052 21.1023 3.16945 21.5269 3.16945C22.2312 3.16945 22.599 3.41726 23.0386 4.18158C23.1074 4.30399 23.2375 4.37714 23.375 4.37714C23.5171 4.37714 23.6427 4.30101 23.7115 4.18158C24.151 3.41277 24.5189 3.16945 25.2231 3.16945C25.6448 3.16945 26.0306 3.36053 26.3057 3.70387C26.6406 4.1129 26.7663 4.68168 26.6482 5.19371ZM15.9379 13.5865H13.9283L14.628 11.801C14.7043 11.6025 14.6086 11.3726 14.4068 11.2964C14.2079 11.2203 13.9776 11.3159 13.9014 11.5174L13.0894 13.5865H9.65634L10.3561 11.801C10.4324 11.6025 10.3367 11.3726 10.1348 11.2964C9.93594 11.2203 9.70567 11.3159 9.62942 11.5174L8.8175 13.585H6.50136C6.28754 13.585 6.11111 13.7611 6.11111 13.9746C6.11111 14.1881 6.28755 14.3642 6.50136 14.3642H8.51097L7.3671 17.2932H5.05096C4.83714 17.2932 4.66071 17.4693 4.66071 17.6828C4.66071 17.8963 4.83715 18.0724 5.05096 18.0724H7.06057L6.3608 19.8579C6.28454 20.0564 6.38024 20.2863 6.5821 20.3624C6.62845 20.3818 6.6778 20.3893 6.72415 20.3893C6.88115 20.3893 7.02619 20.2938 7.08749 20.1415L7.89941 18.0739H11.3325L10.6328 19.8593C10.5565 20.0579 10.6522 20.2878 10.854 20.3639C10.9004 20.3833 10.9497 20.3908 10.9961 20.3908C11.1531 20.3908 11.2981 20.2952 11.3594 20.143L12.1714 18.0724H14.4875C14.7013 18.0724 14.8777 17.8962 14.8777 17.6828C14.8777 17.4693 14.7013 17.2932 14.4875 17.2932H12.4779L13.6218 14.3657H15.9379C16.1517 14.3657 16.3282 14.1895 16.3282 13.9761C16.3282 13.7626 16.1517 13.5865 15.9379 13.5865ZM11.6392 17.2932H8.20614L9.35001 14.3657H12.7831L11.6392 17.2932ZM18.4681 22.5747C18.4681 22.3612 18.6445 22.1851 18.8583 22.1851H26.2315C26.4453 22.1851 26.6217 22.3612 26.6217 22.5747C26.6217 22.7882 26.4453 22.9643 26.2315 22.9643H18.8583C18.6445 22.9643 18.4681 22.7882 18.4681 22.5747ZM18.4681 25.0021C18.4681 24.7886 18.6445 24.6124 18.8583 24.6124H23.9842C24.198 24.6124 24.3744 24.7886 24.3744 25.0021C24.3744 25.2155 24.198 25.3917 23.9842 25.3917H18.8583C18.6445 25.3917 18.4681 25.2155 18.4681 25.0021Z" fill="white"/>
</svg>
