<svg width="31" height="38" viewBox="0 0 31 38" fill="none" xmlns="http://www.w3.org/2000/svg">
<path d="M15.1995 3.51855C7.9613 3.51855 2.07227 9.51664 2.07227 16.8889C2.07227 24.2612 7.9613 30.2593 15.1995 30.2593C22.4378 30.2593 28.3268 24.2612 28.3268 16.8889C28.3268 9.51664 22.4378 3.51855 15.1995 3.51855ZM15.1995 27.903C9.23727 27.903 4.38571 22.9616 4.38571 16.8889C4.38571 10.8162 9.23727 5.87484 15.1995 5.87484C21.1618 5.87484 26.0134 10.8151 26.0134 16.8889C26.0134 22.9616 21.1629 27.903 15.1995 27.903Z" fill="white"/>
<path d="M19.6486 12.5143L13.8309 18.6464L10.7508 15.3939C10.3071 14.9254 9.57522 14.9112 9.11532 15.3642C8.65542 15.8161 8.64249 16.5616 9.08617 17.0311L12.9984 21.1621C13.2164 21.3919 13.5166 21.5227 13.8307 21.5227H13.8318C14.1459 21.5227 14.4461 21.393 14.6641 21.1632L21.314 14.1537C21.7577 13.6864 21.7458 12.9399 21.2859 12.4868C20.826 12.0349 20.0941 12.0481 19.6493 12.5154L19.6486 12.5143Z" fill="white"/>
</svg>
