<svg width="27" height="23" viewBox="0 0 27 23" fill="none" xmlns="http://www.w3.org/2000/svg">
<path d="M15.8285 2.34705C15.6898 2.01426 15.4733 1.71965 15.197 1.48805C14.9207 1.25645 14.5928 1.09462 14.2409 1.01621C13.889 0.937794 13.5234 0.945084 13.175 1.03747C12.8265 1.12985 12.5053 1.30461 12.2385 1.54705L4.47848 8.54704L1.53848 9.78705C0.928036 10.0414 0.443236 10.5272 0.190217 11.1382C-0.0628024 11.7492 -0.0634271 12.4356 0.18848 13.047L1.32848 15.847C1.51998 16.3041 1.84248 16.6942 2.25534 16.9683C2.6682 17.2423 3.15294 17.388 3.64848 17.387C3.99136 17.3935 4.33187 17.3288 4.64848 17.197L4.72848 17.147L6.52848 21.477C6.59534 21.6461 6.69542 21.8 6.8228 21.9297C6.95018 22.0594 7.10226 22.1623 7.27007 22.2322C7.43788 22.3021 7.61801 22.3377 7.7998 22.3368C7.98159 22.3359 8.16136 22.2986 8.32848 22.227L9.94848 21.557C10.2866 21.4142 10.5556 21.1451 10.6985 20.807C10.7675 20.6406 10.8031 20.4622 10.8031 20.282C10.8031 20.1019 10.7675 19.9235 10.6985 19.757L9.09848 15.907L17.9985 15.457C18.3626 15.4467 18.7186 15.3477 19.0358 15.1686C19.353 14.9896 19.6217 14.7359 19.8188 14.4296C20.0158 14.1232 20.1351 13.7734 20.1664 13.4105C20.1977 13.0477 20.1401 12.6826 19.9985 12.347L15.8285 2.34705ZM2.26848 15.457L1.10848 12.667C1.02675 12.483 0.982913 12.2844 0.979578 12.0831C0.976243 11.8817 1.01348 11.6818 1.08907 11.4952C1.16466 11.3085 1.27705 11.139 1.41954 10.9967C1.56204 10.8545 1.73172 10.7423 1.91848 10.667L4.47848 9.64705L5.62848 12.427L6.77848 15.217L4.77848 16.027L4.19848 16.277C3.83342 16.4196 3.42708 16.4136 3.06639 16.2603C2.7057 16.1071 2.4193 15.8188 2.26848 15.457ZM8.08848 16.087L9.76848 20.087C9.78801 20.1329 9.79808 20.1822 9.79808 20.232C9.79808 20.2819 9.78801 20.3312 9.76848 20.377C9.75037 20.4222 9.72332 20.4631 9.68894 20.4975C9.65457 20.5319 9.61359 20.5589 9.56848 20.577L7.94848 21.257C7.85418 21.2937 7.7493 21.2924 7.65601 21.2532C7.56271 21.214 7.48829 21.1401 7.44848 21.047L5.65848 16.767L7.54848 15.977H8.06848C8.06864 16.0146 8.07541 16.0518 8.08848 16.087ZM18.9485 13.877C18.8421 14.0483 18.6952 14.1907 18.5209 14.2918C18.3465 14.393 18.1499 14.4497 17.9485 14.457L7.75848 14.967L6.54848 12.047L5.32848 9.14705L12.8985 2.30705C13.0471 2.1703 13.2265 2.07158 13.4216 2.01933C13.6166 1.96708 13.8214 1.96287 14.0185 2.00705C14.2154 2.05036 14.3986 2.14141 14.5521 2.2722C14.7056 2.40298 14.8245 2.56948 14.8985 2.75705L19.0385 12.757C19.1127 12.9376 19.1433 13.1332 19.1276 13.3278C19.112 13.5224 19.0506 13.7106 18.9485 13.877ZM21.8285 6.61705C21.6959 6.64357 21.5582 6.61632 21.4456 6.54131C21.3331 6.4663 21.255 6.34965 21.2285 6.21705C21.202 6.08444 21.2292 5.94672 21.3042 5.8342C21.3792 5.72168 21.4959 5.64357 21.6285 5.61705L25.3285 4.14705C25.4518 4.09665 25.5901 4.09732 25.7129 4.14889C25.8358 4.20046 25.9331 4.29872 25.9835 4.42205C26.0339 4.54537 26.0332 4.68366 25.9816 4.8065C25.9301 4.92934 25.8318 5.02665 25.7085 5.07705L22.0185 6.60705C21.9559 6.61877 21.892 6.62213 21.8285 6.61705ZM26.6585 9.74705C26.6533 9.87616 26.5984 9.99825 26.5051 10.0877C26.4119 10.1772 26.2877 10.2271 26.1585 10.227L22.1585 10.057C22.025 10.0493 21.8998 9.98939 21.81 9.89026C21.7203 9.79112 21.673 9.66068 21.6785 9.52705C21.6796 9.46135 21.6942 9.39658 21.7214 9.33676C21.7486 9.27693 21.7878 9.22333 21.8365 9.17927C21.8853 9.13521 21.9426 9.10162 22.0048 9.0806C22.0671 9.05958 22.133 9.05156 22.1985 9.05704L26.1985 9.22705C26.2629 9.23087 26.3259 9.24736 26.3839 9.27559C26.4419 9.30381 26.4937 9.34321 26.5365 9.39152C26.5792 9.43984 26.612 9.49611 26.6329 9.55712C26.6539 9.61813 26.6625 9.68267 26.6585 9.74705ZM19.2185 3.64705C19.1262 3.5519 19.0746 3.42457 19.0746 3.29205C19.0746 3.15952 19.1262 3.0322 19.2185 2.93705L22.0485 0.147046C22.0951 0.100426 22.1504 0.0634458 22.2114 0.0382156C22.2723 0.0129855 22.3376 1.70161e-09 22.4035 0C22.4694 -1.70161e-09 22.5347 0.0129855 22.5956 0.0382156C22.6565 0.0634458 22.7119 0.100426 22.7585 0.147046C22.8051 0.193665 22.8421 0.24901 22.8673 0.309921C22.8925 0.370832 22.9055 0.436116 22.9055 0.502046C22.9055 0.567975 22.8925 0.633259 22.8673 0.69417C22.8421 0.755081 22.8051 0.810426 22.7585 0.857046L19.9285 3.64705C19.8322 3.73703 19.7053 3.78708 19.5735 3.78708C19.4417 3.78708 19.3148 3.73703 19.2185 3.64705Z" fill="white"/>
</svg>
