<svg width="29" height="31" viewBox="0 0 29 31" fill="none" xmlns="http://www.w3.org/2000/svg">
<path d="M24.5836 14.4909C24.5836 8.78038 19.9681 4.13184 14.294 4.13184C12.8305 4.13184 11.4162 4.43643 10.0906 5.03403C6.3963 6.70062 4.00879 10.4137 4.00879 14.4912C4.00879 18.9949 6.83141 22.9168 11.0564 24.3267V25.2434H10.192C9.99471 25.2434 9.83951 25.4029 9.83951 25.5958V27.9645C9.83951 28.1617 9.99906 28.3169 10.192 28.3169H11.1275C11.435 29.75 12.7013 30.7943 14.1952 30.7943C15.6878 30.7943 16.9584 29.7514 17.263 28.3169H18.1956C18.3929 28.3169 18.5481 28.1574 18.5481 27.9645L18.5452 25.5973C18.5452 25.4 18.3856 25.2448 18.1927 25.2448H17.3311V24.3876C21.6128 23.0575 24.5834 19.0254 24.5834 14.4912L24.5836 14.4909ZM14.1896 30.0908C13.0829 30.0908 12.1401 29.3525 11.85 28.3198H16.532C16.239 29.3525 15.2964 30.0908 14.1896 30.0908ZM17.8361 27.6105H10.543V25.9511H17.8387L17.8402 27.6105H17.8361ZM13.3847 23.0314L12.0735 22.0102V20.4611C12.307 20.5496 12.5449 20.6323 12.7901 20.6917L13.1802 21.8129C13.2281 21.9536 13.3615 22.0508 13.5138 22.0508H15.0586C15.2066 22.0508 15.3415 21.9536 15.3922 21.8129L15.7853 20.6917C16.0304 20.6279 16.2712 20.551 16.5062 20.4611V22.0102L15.195 23.0314C15.1094 23.0981 15.0572 23.2025 15.0572 23.3098V25.2448H13.5124V23.3098C13.5226 23.1996 13.4703 23.0995 13.3847 23.0314ZM9.70053 17.6632C9.34081 17.1106 9.09134 16.5014 8.95354 15.8588C8.92743 15.737 8.84186 15.6398 8.72292 15.5992L7.65682 15.2235V14.1763L8.72292 13.805C8.83751 13.7643 8.92744 13.6643 8.95354 13.5453C9.09134 12.9028 9.33938 12.2936 9.70053 11.7409C9.76725 11.6365 9.7745 11.5074 9.72228 11.3957L9.23203 10.3746L9.96743 9.63919L10.9842 10.1294C11.0959 10.1817 11.225 10.1744 11.3294 10.1077C11.8821 9.75087 12.4884 9.49851 13.1338 9.35781C13.2528 9.3317 13.3528 9.24613 13.3935 9.12719L13.7648 8.0582H14.8077L15.1833 9.12719C15.2239 9.24177 15.3211 9.3317 15.443 9.35781C16.0884 9.4956 16.6947 9.74799 17.2445 10.1048C17.3489 10.1715 17.4823 10.1788 17.5897 10.1266L18.6065 9.6363L19.3447 10.3717L18.8545 11.3928C18.8023 11.5045 18.8095 11.6336 18.8763 11.738C19.236 12.2907 19.4883 12.897 19.6232 13.5424C19.6493 13.6643 19.7349 13.7614 19.8539 13.8021L20.92 14.1734V15.2206L19.851 15.5963C19.7364 15.6369 19.6464 15.737 19.6203 15.8559C19.4825 16.4985 19.2345 17.1077 18.8734 17.6603C18.8066 17.7647 18.7994 17.8938 18.8516 18.0055L19.3419 19.0223L18.6036 19.7606L17.5868 19.2703C17.4751 19.2181 17.346 19.2254 17.2416 19.2921C17.0849 19.3922 16.9254 19.4821 16.7629 19.5662C16.7252 19.5778 16.6918 19.5923 16.6585 19.6141C16.2726 19.8041 15.8636 19.9477 15.4372 20.0376C15.3182 20.0637 15.2181 20.1493 15.1775 20.2682L14.8019 21.3372H13.759L13.3876 20.2711C13.347 20.1566 13.2499 20.0666 13.128 20.0405C12.7045 19.9477 12.2969 19.8026 11.9096 19.617C11.8763 19.5952 11.8429 19.5793 11.8052 19.5691C11.6413 19.4835 11.4817 19.3951 11.3265 19.295C11.2221 19.2283 11.093 19.221 10.9813 19.2732L9.96453 19.7635L9.22914 19.0252L9.71939 18.0084C9.77451 17.8967 9.76725 17.7662 9.70053 17.6632ZM15.7723 25.2448V23.481L17.0836 22.4599C17.1691 22.3932 17.2213 22.2887 17.2213 22.1814V20.1319C17.3026 20.0869 17.3882 20.0434 17.4665 19.9941L18.5355 20.5105C18.6733 20.5772 18.8328 20.5482 18.9401 20.4437L20.0352 19.3487C20.1426 19.2413 20.1687 19.0818 20.1063 18.944L19.5943 17.875C19.9105 17.3514 20.1397 16.79 20.2891 16.1997L21.4103 15.8066C21.551 15.7588 21.6481 15.6253 21.6481 15.473V13.9239C21.6481 13.7716 21.551 13.6382 21.4103 13.5903L20.292 13.2001C20.1469 12.6098 19.9134 12.0456 19.5972 11.5249L20.1135 10.4559C20.1803 10.3224 20.1513 10.1585 20.0425 10.0512L18.9474 8.959C18.84 8.85167 18.6805 8.82556 18.5427 8.89228L17.4737 9.40863C16.9545 9.09243 16.3931 8.86324 15.7984 8.71386L15.4054 7.59266C15.3575 7.45197 15.224 7.35479 15.0717 7.35479H13.527C13.3747 7.35479 13.2412 7.45197 13.1934 7.59266L12.8032 8.71386C12.2129 8.86181 11.6515 9.09242 11.1279 9.40863L10.0589 8.89228C9.92547 8.82556 9.76157 8.85457 9.65425 8.959L8.56205 10.0512C8.45472 10.1585 8.4286 10.3181 8.49098 10.4559L9.00733 11.5249C8.69113 12.0485 8.45759 12.6098 8.31256 13.2001L7.19425 13.5903C7.05356 13.6382 6.95638 13.7716 6.95638 13.9239V15.473C6.95638 15.621 7.05356 15.7559 7.19425 15.8066L8.31545 16.1997C8.4605 16.79 8.69401 17.3514 9.01023 17.875L8.49822 18.944C8.43439 19.0774 8.46051 19.2413 8.56494 19.3487L9.65714 20.4437C9.76447 20.5511 9.92402 20.5772 10.0618 20.5148L11.1308 19.9985C11.212 20.0463 11.2976 20.0913 11.3803 20.1363V22.1858C11.3803 22.2931 11.4281 22.3975 11.5181 22.4642L12.8293 23.4854V25.2491H11.7748V24.0714C11.7748 23.9147 11.6747 23.7784 11.5253 23.7334C7.45974 22.4889 4.7298 18.7755 4.7298 14.4953C4.7298 10.6967 6.95337 7.23568 10.3969 5.68394C11.6298 5.12696 12.9483 4.84412 14.3072 4.84412C19.5911 4.84412 23.8906 9.17371 23.8906 14.494C23.8906 18.8046 21.0173 22.6251 16.8994 23.7844C16.7471 23.8293 16.6398 23.9657 16.6398 24.1267V25.2479L15.7724 25.2493L15.7723 25.2448Z" fill="white"/>
<path d="M14.2945 18.4937C15.4897 18.4937 16.5935 17.9439 17.3173 16.9895C17.8221 16.3252 18.086 15.5333 18.086 14.6978C18.086 12.6077 16.3861 10.9062 14.2945 10.9062C12.2044 10.9062 10.5029 12.6062 10.5029 14.6978C10.5029 15.5333 10.7698 16.3238 11.2717 16.9895C11.9926 17.9439 13.095 18.4937 14.2945 18.4937ZM14.2945 11.6168C15.9945 11.6168 17.3768 13.0021 17.3768 14.702C17.3768 15.3808 17.1621 16.0234 16.7487 16.5629C16.1627 17.3389 15.2634 17.7842 14.2902 17.7842C13.3169 17.7842 12.4191 17.3389 11.8316 16.5629C11.4226 16.0248 11.2079 15.3779 11.2079 14.702C11.2094 12.9977 12.5946 11.6168 14.2945 11.6168Z" fill="white"/>
<path d="M2.50491 14.703C2.50491 14.5058 2.34536 14.3506 2.15245 14.3506H0.741136C0.543872 14.3506 0.388672 14.5101 0.388672 14.703C0.388672 14.896 0.548224 15.0555 0.741136 15.0555H2.15245C2.34536 15.057 2.50491 14.896 2.50491 14.703Z" fill="white"/>
<path d="M27.8478 14.3477H26.4365C26.2392 14.3477 26.084 14.5072 26.084 14.7001C26.084 14.893 26.2435 15.0526 26.4365 15.0526H27.8478C28.045 15.0526 28.2002 14.893 28.2002 14.7001C28.2002 14.5072 28.045 14.3477 27.8478 14.3477Z" fill="white"/>
<path d="M14.2939 2.91018C14.4911 2.91018 14.6463 2.75063 14.6463 2.55772V1.14641C14.6463 0.949145 14.4868 0.793945 14.2939 0.793945C14.101 0.793945 13.9414 0.953497 13.9414 1.14641V2.55772C13.9414 2.75353 14.0966 2.91018 14.2939 2.91018Z" fill="white"/>
<path d="M3.61441 20.4951L2.39604 21.2044C2.22488 21.3016 2.16976 21.5206 2.26549 21.6874C2.33222 21.7991 2.45115 21.8615 2.57009 21.8615C2.62956 21.8615 2.69193 21.847 2.7485 21.8136L3.96687 21.1043C4.13803 21.0071 4.19315 20.7881 4.09742 20.6213C4.00169 20.4545 3.78267 20.395 3.61441 20.4951Z" fill="white"/>
<path d="M24.7957 8.95457C24.8552 8.95457 24.9175 8.94006 24.9741 8.9067L26.1925 8.19741C26.3636 8.10022 26.4187 7.88121 26.323 7.71439C26.2229 7.54324 26.0068 7.48812 25.84 7.58385L24.6216 8.29315C24.4505 8.39033 24.3953 8.60935 24.4911 8.77616C24.5578 8.8922 24.6724 8.95457 24.7957 8.95457Z" fill="white"/>
<path d="M26.1912 21.2049L24.9728 20.4956C24.8016 20.3984 24.5869 20.455 24.4898 20.6262C24.3926 20.7973 24.4492 21.012 24.6203 21.1092L25.8387 21.8185C25.8938 21.8518 25.9533 21.8663 26.0171 21.8663C26.1389 21.8663 26.2579 21.8025 26.3217 21.6923C26.4174 21.5168 26.3623 21.3006 26.1912 21.2049Z" fill="white"/>
<path d="M2.39811 8.20151L3.61648 8.9108C3.6716 8.94417 3.73107 8.95867 3.79489 8.95867C3.91673 8.95867 4.03567 8.89485 4.10239 8.78462C4.19957 8.61346 4.143 8.39878 3.97185 8.3016L2.75347 7.59231C2.58232 7.49513 2.36763 7.55169 2.27046 7.72285C2.17182 7.8853 2.22695 8.1014 2.39811 8.20151Z" fill="white"/>
<path d="M20.1901 4.49162C20.2452 4.52498 20.3047 4.53949 20.3685 4.53949C20.4904 4.53949 20.6093 4.47567 20.676 4.36108L21.3809 3.13977C21.4781 2.96862 21.4215 2.75394 21.2504 2.65676C21.0792 2.55958 20.8646 2.61615 20.7674 2.7873L20.0625 4.00861C19.9638 4.17687 20.0233 4.3959 20.1901 4.49162Z" fill="white"/>
<path d="M7.91478 4.36239C7.9815 4.47698 8.10044 4.5408 8.22228 4.5408C8.28175 4.5408 8.34412 4.52629 8.40069 4.49293C8.57184 4.39575 8.62696 4.17673 8.53123 4.00992L7.82631 2.78861C7.72913 2.61746 7.51011 2.56234 7.3433 2.65807C7.17214 2.75525 7.11703 2.97427 7.21276 3.14108L7.91478 4.36239Z" fill="white"/>
</svg>
