<svg width="46" height="46" viewBox="0 0 46 46" fill="none" xmlns="http://www.w3.org/2000/svg">
<g clip-path="url(#clip0_95_10216)">
<mask id="path-1-outside-1_95_10216" maskUnits="userSpaceOnUse" x="-0.867462" y="-0.0830078" width="47" height="47" fill="black">
<rect fill="white" x="-0.867462" y="-0.0830078" width="47" height="47"/>
<path d="M42.8825 18.9103H41.3278L41.219 17.4725C41.097 16.4925 40.6672 15.5764 39.9914 14.8562C39.3157 14.136 38.4288 13.6487 37.4585 13.4645L36.8585 13.3438C37.3999 12.8397 37.7613 12.1722 37.8875 11.4433L37.9888 10.8365C38.3259 10.7045 38.6154 10.474 38.8194 10.1749C39.0234 9.87589 39.1326 9.52228 39.1325 9.16027V6.91026C39.131 5.58067 38.688 4.28922 37.8729 3.23877C37.0578 2.18831 35.9168 1.43836 34.6293 1.10668C33.3417 0.775002 31.9804 0.880397 30.7593 1.40631C29.5381 1.93222 28.5262 2.84886 27.8825 4.01226C27.3637 3.07446 26.6031 2.29275 25.6798 1.74842C24.7565 1.20409 23.7043 0.917002 22.6325 0.917002C21.5608 0.917002 20.5085 1.20409 19.5853 1.74842C18.662 2.29275 17.9014 3.07446 17.3825 4.01226C16.7388 2.84886 15.727 1.93222 14.5058 1.40631C13.2846 0.880397 11.9234 0.775002 10.6358 1.10668C9.34823 1.43836 8.20731 2.18831 7.39221 3.23877C6.57712 4.28922 6.13403 5.58067 6.13254 6.91026V9.16027C6.13257 9.52237 6.24181 9.87604 6.44599 10.1751C6.65017 10.4741 6.9398 10.7046 7.27704 10.8365L7.37829 11.4433C7.50466 12.1723 7.86603 12.84 8.40729 13.3445L7.81554 13.463C6.83754 13.6488 5.9443 14.1418 5.2657 14.8701C4.5871 15.5985 4.15853 16.5243 4.04229 17.513L3.93729 18.9103H2.38254C1.7858 18.9103 1.2135 19.1473 0.791548 19.5693C0.369591 19.9912 0.132538 20.5635 0.132538 21.1603L0.132538 22.6603C0.13502 23.2047 0.334827 23.7298 0.694914 24.1381C1.055 24.5465 1.55094 24.8104 2.09079 24.881L17.3825 36.5353V43.6603C17.3875 44.0008 17.4687 44.336 17.6204 44.641C17.7721 44.946 17.9903 45.213 18.2589 45.4225C18.5275 45.6319 18.8397 45.7784 19.1724 45.8511C19.5052 45.9239 19.85 45.921 20.1815 45.8428L26.1815 44.3428C26.6685 44.222 27.1009 43.9413 27.4093 43.5455C27.7177 43.1498 27.8844 42.662 27.8825 42.1603V36.5353L43.1743 24.881C43.7141 24.8104 44.2101 24.5465 44.5702 24.1381C44.9302 23.7298 45.1301 23.2047 45.1325 22.6603V21.1603C45.1325 20.5635 44.8955 19.9912 44.4735 19.5693C44.0516 19.1473 43.4793 18.9103 42.8825 18.9103ZM39.7273 17.624L39.824 18.9103H30.8278L30.719 17.4643C30.595 16.4883 30.1674 15.5761 29.4965 14.8565L31.091 14.5355C31.694 14.9427 32.405 15.1602 33.1325 15.1602C33.8601 15.1602 34.5711 14.9427 35.174 14.5355L37.1713 14.9368C37.8259 15.0588 38.4253 15.3842 38.8842 15.8667C39.3432 16.3492 39.6382 16.9641 39.7273 17.624ZM18.4325 8.86027C18.6314 8.86027 18.8222 8.78125 18.9629 8.6406C19.1035 8.49994 19.1825 8.30918 19.1825 8.11027C19.1825 7.77052 19.3633 7.51026 19.5253 7.48626C20.6189 7.34394 21.6744 6.98984 22.6325 6.44376C23.5907 6.98994 24.6461 7.34405 25.7398 7.48626C25.9018 7.50876 26.0825 7.77052 26.0825 8.11027C26.0825 8.30918 26.1616 8.49994 26.3022 8.6406C26.4429 8.78125 26.6336 8.86027 26.8325 8.86027C26.9121 8.86027 26.9884 8.89187 27.0447 8.94813C27.1009 9.00439 27.1325 9.0807 27.1325 9.16027C27.1325 9.23983 27.1009 9.31614 27.0447 9.3724C26.9884 9.42866 26.9121 9.46026 26.8325 9.46026C26.655 9.46014 26.4832 9.52301 26.3476 9.63768C26.2121 9.75236 26.1216 9.9114 26.0923 10.0865L25.907 11.1958C25.865 11.4469 25.7725 11.6869 25.6351 11.9013C25.4977 12.1157 25.3182 12.3 25.1075 12.443C25.0033 12.5135 24.893 12.593 24.7753 12.674C24.1698 13.2005 23.4263 13.5427 22.6325 13.6603C21.838 13.5431 21.0937 13.2009 20.4875 12.674C20.3698 12.5915 20.2625 12.5135 20.1553 12.443C19.945 12.2998 19.766 12.1154 19.629 11.901C19.492 11.6866 19.3998 11.4467 19.358 11.1958L19.1728 10.0865C19.1435 9.9114 19.053 9.75236 18.9175 9.63768C18.7819 9.52301 18.6101 9.46014 18.4325 9.46026C18.353 9.46026 18.2767 9.42866 18.2204 9.3724C18.1641 9.31614 18.1325 9.23983 18.1325 9.16027C18.1325 9.0807 18.1641 9.00439 18.2204 8.94813C18.2767 8.89187 18.353 8.86027 18.4325 8.86027ZM28.8245 13.4615C28.501 13.5236 28.1851 13.6207 27.8825 13.751C27.5844 13.6233 27.2737 13.5273 26.9555 13.4645L26.3555 13.3438C26.8969 12.8397 27.2583 12.1722 27.3845 11.4433L27.4858 10.8365C27.6267 10.7802 27.76 10.7063 27.8825 10.6168C28.0044 10.7062 28.1369 10.78 28.277 10.8365L28.3783 11.4433C28.5047 12.1723 28.866 12.84 29.4073 13.3445L28.8245 13.4615ZM16.988 10.8365C17.1282 10.78 17.2607 10.7062 17.3825 10.6168C17.5044 10.7062 17.6369 10.78 17.777 10.8365L17.8783 11.4433C18.0047 12.1723 18.366 12.84 18.9073 13.3445L18.3155 13.463C17.9964 13.527 17.6849 13.6245 17.3863 13.754C17.0885 13.624 16.7774 13.5269 16.4585 13.4645L15.8585 13.3438C16.3999 12.8397 16.7613 12.1722 16.8875 11.4433L16.988 10.8365ZM18.6028 14.9353L20.591 14.5355C21.2045 14.9202 21.9089 15.1357 22.6325 15.1603C23.3562 15.1357 24.0605 14.9202 24.674 14.5355L26.675 14.9375C27.3283 15.0582 27.9266 15.3822 28.3846 15.8634C28.8426 16.3445 29.1368 16.9581 29.225 17.6165L29.324 18.9103H15.941L16.034 17.663C16.1177 16.9947 16.4116 16.3703 16.8734 15.88C17.3351 15.3897 17.9407 15.0589 18.6028 14.9353ZM37.3325 9.46026C37.155 9.46014 36.9832 9.52301 36.8476 9.63768C36.7121 9.75236 36.6216 9.9114 36.5923 10.0865L36.407 11.1958C36.365 11.4469 36.2725 11.6869 36.1351 11.9013C35.9977 12.1157 35.8182 12.3 35.6075 12.443C35.5033 12.5135 35.393 12.593 35.2753 12.674C34.6698 13.2005 33.9263 13.5427 33.1325 13.6603C32.338 13.5431 31.5937 13.2009 30.9875 12.674C30.8698 12.5915 30.7625 12.5135 30.6553 12.443C30.445 12.2998 30.266 12.1154 30.129 11.901C29.992 11.6866 29.8998 11.4467 29.858 11.1958L29.6728 10.0865C29.6435 9.9114 29.553 9.75236 29.4175 9.63768C29.2819 9.52301 29.1101 9.46014 28.9325 9.46026C28.853 9.46026 28.7767 9.42866 28.7204 9.3724C28.6641 9.31614 28.6325 9.23983 28.6325 9.16027C28.6325 9.0807 28.6641 9.00439 28.7204 8.94813C28.7767 8.89187 28.853 8.86027 28.9325 8.86027C29.1315 8.86027 29.3222 8.78125 29.4629 8.6406C29.6035 8.49994 29.6825 8.30918 29.6825 8.11027C29.6825 7.77052 29.8633 7.51026 30.0253 7.48626C31.1189 7.34394 32.1744 6.98984 33.1325 6.44376C34.0907 6.98994 35.1461 7.34405 36.2398 7.48626C36.4018 7.50876 36.5825 7.77052 36.5825 8.11027C36.5825 8.30918 36.6616 8.49994 36.8022 8.6406C36.9429 8.78125 37.1336 8.86027 37.3325 8.86027C37.4121 8.86027 37.4884 8.89187 37.5447 8.94813C37.6009 9.00439 37.6325 9.0807 37.6325 9.16027C37.6325 9.23983 37.6009 9.31614 37.5447 9.3724C37.4884 9.42866 37.4121 9.46026 37.3325 9.46026ZM33.1325 2.41026C34.2917 2.41021 35.4061 2.85808 36.2429 3.66032C37.0796 4.46255 37.574 5.55709 37.6228 6.71526C37.3418 6.3322 36.9212 6.07537 36.452 6.00052C35.5285 5.88532 34.638 5.58373 33.8345 5.11401C33.6248 4.98062 33.3814 4.90977 33.1329 4.90977C32.8844 4.90977 32.641 4.98062 32.4313 5.11401C31.6275 5.58363 30.7368 5.88522 29.813 6.00052C29.344 6.07553 28.9234 6.33232 28.6423 6.71526C28.6925 5.55759 29.1874 4.46391 30.0238 3.66198C30.8602 2.86005 31.9738 2.41169 33.1325 2.41026ZM19.4518 3.72951C20.0686 3.11148 20.852 2.68651 21.7064 2.50653C22.5608 2.32655 23.4491 2.39936 24.2628 2.71607C25.0765 3.03277 25.7803 3.57966 26.2882 4.28988C26.7961 5.0001 27.0861 5.84289 27.1228 6.71526C26.8417 6.33232 26.4211 6.07553 25.952 6.00052C25.0285 5.88532 24.138 5.58373 23.3345 5.11401C23.1248 4.98062 22.8814 4.90977 22.6329 4.90977C22.3844 4.90977 22.141 4.98062 21.9313 5.11401C21.1275 5.58363 20.2368 5.88522 19.313 6.00052C18.8439 6.07537 18.4232 6.3322 18.1423 6.71526C18.187 5.59058 18.6547 4.52424 19.4518 3.72951ZM8.95179 3.72951C9.56857 3.11148 10.352 2.68651 11.2064 2.50653C12.0608 2.32655 12.9491 2.39936 13.7628 2.71607C14.5765 3.03277 15.2803 3.57966 15.7882 4.28988C16.2961 5.0001 16.5861 5.84289 16.6228 6.71526C16.3417 6.33232 15.9211 6.07553 15.452 6.00052C14.5285 5.88532 13.638 5.58373 12.8345 5.11401C12.6248 4.98062 12.3814 4.90977 12.1329 4.90977C11.8844 4.90977 11.641 4.98062 11.4313 5.11401C10.6275 5.58363 9.73678 5.88522 8.81304 6.00052C8.34392 6.07537 7.92324 6.3322 7.64229 6.71526C7.68703 5.59058 8.15471 4.52424 8.95179 3.72951ZM7.93254 9.46026C7.85297 9.46026 7.77667 9.42866 7.72041 9.3724C7.66414 9.31614 7.63254 9.23983 7.63254 9.16027C7.63254 9.0807 7.66414 9.00439 7.72041 8.94813C7.77667 8.89187 7.85297 8.86027 7.93254 8.86027C8.13145 8.86027 8.32222 8.78125 8.46287 8.6406C8.60352 8.49994 8.68254 8.30918 8.68254 8.11027C8.68254 7.77052 8.86329 7.51026 9.02529 7.48626C10.1189 7.34394 11.1744 6.98984 12.1325 6.44376C13.0907 6.98994 14.1461 7.34405 15.2398 7.48626C15.4018 7.50876 15.5825 7.77052 15.5825 8.11027C15.5825 8.30918 15.6616 8.49994 15.8022 8.6406C15.9429 8.78125 16.1336 8.86027 16.3325 8.86027C16.4121 8.86027 16.4884 8.89187 16.5447 8.94813C16.6009 9.00439 16.6325 9.0807 16.6325 9.16027C16.6325 9.23983 16.6009 9.31614 16.5447 9.3724C16.4884 9.42866 16.4121 9.46026 16.3325 9.46026C16.155 9.46014 15.9832 9.52301 15.8476 9.63768C15.7121 9.75236 15.6216 9.9114 15.5923 10.0865L15.407 11.1958C15.365 11.4469 15.2725 11.6869 15.1351 11.9013C14.9977 12.1157 14.8182 12.3 14.6075 12.443C14.5033 12.5135 14.393 12.593 14.2753 12.674C13.6698 13.2005 12.9263 13.5427 12.1325 13.6603C11.338 13.5431 10.5937 13.2009 9.98754 12.674C9.86979 12.5915 9.76254 12.5135 9.65529 12.443C9.44504 12.2998 9.266 12.1154 9.12898 11.901C8.99196 11.6866 8.89979 11.4467 8.85804 11.1958L8.67279 10.0865C8.64349 9.9114 8.55302 9.75236 8.41747 9.63768C8.28192 9.52301 8.11009 9.46014 7.93254 9.46026ZM5.53254 17.663C5.61629 16.9945 5.91043 16.37 6.37246 15.8796C6.83448 15.3893 7.44045 15.0586 8.10279 14.9353L10.091 14.5355C10.7045 14.9202 11.4089 15.1357 12.1325 15.1603C12.8562 15.1357 13.5605 14.9202 14.174 14.5355L15.7775 14.8573C15.0969 15.5901 14.6647 16.5189 14.5423 17.5115L14.4373 18.9103H5.44104L5.53254 17.663ZM1.63254 21.1603C1.63254 20.9614 1.71156 20.7706 1.85221 20.6299C1.99286 20.4893 2.18363 20.4103 2.38254 20.4103H42.8825C43.0815 20.4103 43.2722 20.4893 43.4129 20.6299C43.5535 20.7706 43.6325 20.9614 43.6325 21.1603V22.6603C43.6325 22.8592 43.5535 23.0499 43.4129 23.1906C43.2722 23.3312 43.0815 23.4103 42.8825 23.4103H2.38254C2.18363 23.4103 1.99286 23.3312 1.85221 23.1906C1.71156 23.0499 1.63254 22.8592 1.63254 22.6603V21.1603ZM26.678 35.5603C26.5857 35.6306 26.511 35.7214 26.4597 35.8255C26.4084 35.9296 26.382 36.0442 26.3825 36.1603V42.1603C26.3827 42.327 26.3274 42.489 26.2253 42.6207C26.1231 42.7525 25.98 42.8464 25.8185 42.8878L19.823 44.3878C19.7121 44.4147 19.5965 44.4163 19.4848 44.3924C19.3731 44.3686 19.2682 44.3199 19.1779 44.2501C19.0876 44.1802 19.0142 44.0909 18.963 43.9888C18.9119 43.8867 18.8844 43.7744 18.8825 43.6603V36.1603C18.8831 36.0442 18.8566 35.9296 18.8054 35.8255C18.7541 35.7214 18.6794 35.6306 18.587 35.5603L4.60479 24.9103H40.6603L26.678 35.5603Z"/>
</mask>
<path d="M42.8825 18.9103H41.3278L41.219 17.4725C41.097 16.4925 40.6672 15.5764 39.9914 14.8562C39.3157 14.136 38.4288 13.6487 37.4585 13.4645L36.8585 13.3438C37.3999 12.8397 37.7613 12.1722 37.8875 11.4433L37.9888 10.8365C38.3259 10.7045 38.6154 10.474 38.8194 10.1749C39.0234 9.87589 39.1326 9.52228 39.1325 9.16027V6.91026C39.131 5.58067 38.688 4.28922 37.8729 3.23877C37.0578 2.18831 35.9168 1.43836 34.6293 1.10668C33.3417 0.775002 31.9804 0.880397 30.7593 1.40631C29.5381 1.93222 28.5262 2.84886 27.8825 4.01226C27.3637 3.07446 26.6031 2.29275 25.6798 1.74842C24.7565 1.20409 23.7043 0.917002 22.6325 0.917002C21.5608 0.917002 20.5085 1.20409 19.5853 1.74842C18.662 2.29275 17.9014 3.07446 17.3825 4.01226C16.7388 2.84886 15.727 1.93222 14.5058 1.40631C13.2846 0.880397 11.9234 0.775002 10.6358 1.10668C9.34823 1.43836 8.20731 2.18831 7.39221 3.23877C6.57712 4.28922 6.13403 5.58067 6.13254 6.91026V9.16027C6.13257 9.52237 6.24181 9.87604 6.44599 10.1751C6.65017 10.4741 6.9398 10.7046 7.27704 10.8365L7.37829 11.4433C7.50466 12.1723 7.86603 12.84 8.40729 13.3445L7.81554 13.463C6.83754 13.6488 5.9443 14.1418 5.2657 14.8701C4.5871 15.5985 4.15853 16.5243 4.04229 17.513L3.93729 18.9103H2.38254C1.7858 18.9103 1.2135 19.1473 0.791548 19.5693C0.369591 19.9912 0.132538 20.5635 0.132538 21.1603L0.132538 22.6603C0.13502 23.2047 0.334827 23.7298 0.694914 24.1381C1.055 24.5465 1.55094 24.8104 2.09079 24.881L17.3825 36.5353V43.6603C17.3875 44.0008 17.4687 44.336 17.6204 44.641C17.7721 44.946 17.9903 45.213 18.2589 45.4225C18.5275 45.6319 18.8397 45.7784 19.1724 45.8511C19.5052 45.9239 19.85 45.921 20.1815 45.8428L26.1815 44.3428C26.6685 44.222 27.1009 43.9413 27.4093 43.5455C27.7177 43.1498 27.8844 42.662 27.8825 42.1603V36.5353L43.1743 24.881C43.7141 24.8104 44.2101 24.5465 44.5702 24.1381C44.9302 23.7298 45.1301 23.2047 45.1325 22.6603V21.1603C45.1325 20.5635 44.8955 19.9912 44.4735 19.5693C44.0516 19.1473 43.4793 18.9103 42.8825 18.9103ZM39.7273 17.624L39.824 18.9103H30.8278L30.719 17.4643C30.595 16.4883 30.1674 15.5761 29.4965 14.8565L31.091 14.5355C31.694 14.9427 32.405 15.1602 33.1325 15.1602C33.8601 15.1602 34.5711 14.9427 35.174 14.5355L37.1713 14.9368C37.8259 15.0588 38.4253 15.3842 38.8842 15.8667C39.3432 16.3492 39.6382 16.9641 39.7273 17.624ZM18.4325 8.86027C18.6314 8.86027 18.8222 8.78125 18.9629 8.6406C19.1035 8.49994 19.1825 8.30918 19.1825 8.11027C19.1825 7.77052 19.3633 7.51026 19.5253 7.48626C20.6189 7.34394 21.6744 6.98984 22.6325 6.44376C23.5907 6.98994 24.6461 7.34405 25.7398 7.48626C25.9018 7.50876 26.0825 7.77052 26.0825 8.11027C26.0825 8.30918 26.1616 8.49994 26.3022 8.6406C26.4429 8.78125 26.6336 8.86027 26.8325 8.86027C26.9121 8.86027 26.9884 8.89187 27.0447 8.94813C27.1009 9.00439 27.1325 9.0807 27.1325 9.16027C27.1325 9.23983 27.1009 9.31614 27.0447 9.3724C26.9884 9.42866 26.9121 9.46026 26.8325 9.46026C26.655 9.46014 26.4832 9.52301 26.3476 9.63768C26.2121 9.75236 26.1216 9.9114 26.0923 10.0865L25.907 11.1958C25.865 11.4469 25.7725 11.6869 25.6351 11.9013C25.4977 12.1157 25.3182 12.3 25.1075 12.443C25.0033 12.5135 24.893 12.593 24.7753 12.674C24.1698 13.2005 23.4263 13.5427 22.6325 13.6603C21.838 13.5431 21.0937 13.2009 20.4875 12.674C20.3698 12.5915 20.2625 12.5135 20.1553 12.443C19.945 12.2998 19.766 12.1154 19.629 11.901C19.492 11.6866 19.3998 11.4467 19.358 11.1958L19.1728 10.0865C19.1435 9.9114 19.053 9.75236 18.9175 9.63768C18.7819 9.52301 18.6101 9.46014 18.4325 9.46026C18.353 9.46026 18.2767 9.42866 18.2204 9.3724C18.1641 9.31614 18.1325 9.23983 18.1325 9.16027C18.1325 9.0807 18.1641 9.00439 18.2204 8.94813C18.2767 8.89187 18.353 8.86027 18.4325 8.86027ZM28.8245 13.4615C28.501 13.5236 28.1851 13.6207 27.8825 13.751C27.5844 13.6233 27.2737 13.5273 26.9555 13.4645L26.3555 13.3438C26.8969 12.8397 27.2583 12.1722 27.3845 11.4433L27.4858 10.8365C27.6267 10.7802 27.76 10.7063 27.8825 10.6168C28.0044 10.7062 28.1369 10.78 28.277 10.8365L28.3783 11.4433C28.5047 12.1723 28.866 12.84 29.4073 13.3445L28.8245 13.4615ZM16.988 10.8365C17.1282 10.78 17.2607 10.7062 17.3825 10.6168C17.5044 10.7062 17.6369 10.78 17.777 10.8365L17.8783 11.4433C18.0047 12.1723 18.366 12.84 18.9073 13.3445L18.3155 13.463C17.9964 13.527 17.6849 13.6245 17.3863 13.754C17.0885 13.624 16.7774 13.5269 16.4585 13.4645L15.8585 13.3438C16.3999 12.8397 16.7613 12.1722 16.8875 11.4433L16.988 10.8365ZM18.6028 14.9353L20.591 14.5355C21.2045 14.9202 21.9089 15.1357 22.6325 15.1603C23.3562 15.1357 24.0605 14.9202 24.674 14.5355L26.675 14.9375C27.3283 15.0582 27.9266 15.3822 28.3846 15.8634C28.8426 16.3445 29.1368 16.9581 29.225 17.6165L29.324 18.9103H15.941L16.034 17.663C16.1177 16.9947 16.4116 16.3703 16.8734 15.88C17.3351 15.3897 17.9407 15.0589 18.6028 14.9353ZM37.3325 9.46026C37.155 9.46014 36.9832 9.52301 36.8476 9.63768C36.7121 9.75236 36.6216 9.9114 36.5923 10.0865L36.407 11.1958C36.365 11.4469 36.2725 11.6869 36.1351 11.9013C35.9977 12.1157 35.8182 12.3 35.6075 12.443C35.5033 12.5135 35.393 12.593 35.2753 12.674C34.6698 13.2005 33.9263 13.5427 33.1325 13.6603C32.338 13.5431 31.5937 13.2009 30.9875 12.674C30.8698 12.5915 30.7625 12.5135 30.6553 12.443C30.445 12.2998 30.266 12.1154 30.129 11.901C29.992 11.6866 29.8998 11.4467 29.858 11.1958L29.6728 10.0865C29.6435 9.9114 29.553 9.75236 29.4175 9.63768C29.2819 9.52301 29.1101 9.46014 28.9325 9.46026C28.853 9.46026 28.7767 9.42866 28.7204 9.3724C28.6641 9.31614 28.6325 9.23983 28.6325 9.16027C28.6325 9.0807 28.6641 9.00439 28.7204 8.94813C28.7767 8.89187 28.853 8.86027 28.9325 8.86027C29.1315 8.86027 29.3222 8.78125 29.4629 8.6406C29.6035 8.49994 29.6825 8.30918 29.6825 8.11027C29.6825 7.77052 29.8633 7.51026 30.0253 7.48626C31.1189 7.34394 32.1744 6.98984 33.1325 6.44376C34.0907 6.98994 35.1461 7.34405 36.2398 7.48626C36.4018 7.50876 36.5825 7.77052 36.5825 8.11027C36.5825 8.30918 36.6616 8.49994 36.8022 8.6406C36.9429 8.78125 37.1336 8.86027 37.3325 8.86027C37.4121 8.86027 37.4884 8.89187 37.5447 8.94813C37.6009 9.00439 37.6325 9.0807 37.6325 9.16027C37.6325 9.23983 37.6009 9.31614 37.5447 9.3724C37.4884 9.42866 37.4121 9.46026 37.3325 9.46026ZM33.1325 2.41026C34.2917 2.41021 35.4061 2.85808 36.2429 3.66032C37.0796 4.46255 37.574 5.55709 37.6228 6.71526C37.3418 6.3322 36.9212 6.07537 36.452 6.00052C35.5285 5.88532 34.638 5.58373 33.8345 5.11401C33.6248 4.98062 33.3814 4.90977 33.1329 4.90977C32.8844 4.90977 32.641 4.98062 32.4313 5.11401C31.6275 5.58363 30.7368 5.88522 29.813 6.00052C29.344 6.07553 28.9234 6.33232 28.6423 6.71526C28.6925 5.55759 29.1874 4.46391 30.0238 3.66198C30.8602 2.86005 31.9738 2.41169 33.1325 2.41026ZM19.4518 3.72951C20.0686 3.11148 20.852 2.68651 21.7064 2.50653C22.5608 2.32655 23.4491 2.39936 24.2628 2.71607C25.0765 3.03277 25.7803 3.57966 26.2882 4.28988C26.7961 5.0001 27.0861 5.84289 27.1228 6.71526C26.8417 6.33232 26.4211 6.07553 25.952 6.00052C25.0285 5.88532 24.138 5.58373 23.3345 5.11401C23.1248 4.98062 22.8814 4.90977 22.6329 4.90977C22.3844 4.90977 22.141 4.98062 21.9313 5.11401C21.1275 5.58363 20.2368 5.88522 19.313 6.00052C18.8439 6.07537 18.4232 6.3322 18.1423 6.71526C18.187 5.59058 18.6547 4.52424 19.4518 3.72951ZM8.95179 3.72951C9.56857 3.11148 10.352 2.68651 11.2064 2.50653C12.0608 2.32655 12.9491 2.39936 13.7628 2.71607C14.5765 3.03277 15.2803 3.57966 15.7882 4.28988C16.2961 5.0001 16.5861 5.84289 16.6228 6.71526C16.3417 6.33232 15.9211 6.07553 15.452 6.00052C14.5285 5.88532 13.638 5.58373 12.8345 5.11401C12.6248 4.98062 12.3814 4.90977 12.1329 4.90977C11.8844 4.90977 11.641 4.98062 11.4313 5.11401C10.6275 5.58363 9.73678 5.88522 8.81304 6.00052C8.34392 6.07537 7.92324 6.3322 7.64229 6.71526C7.68703 5.59058 8.15471 4.52424 8.95179 3.72951ZM7.93254 9.46026C7.85297 9.46026 7.77667 9.42866 7.72041 9.3724C7.66414 9.31614 7.63254 9.23983 7.63254 9.16027C7.63254 9.0807 7.66414 9.00439 7.72041 8.94813C7.77667 8.89187 7.85297 8.86027 7.93254 8.86027C8.13145 8.86027 8.32222 8.78125 8.46287 8.6406C8.60352 8.49994 8.68254 8.30918 8.68254 8.11027C8.68254 7.77052 8.86329 7.51026 9.02529 7.48626C10.1189 7.34394 11.1744 6.98984 12.1325 6.44376C13.0907 6.98994 14.1461 7.34405 15.2398 7.48626C15.4018 7.50876 15.5825 7.77052 15.5825 8.11027C15.5825 8.30918 15.6616 8.49994 15.8022 8.6406C15.9429 8.78125 16.1336 8.86027 16.3325 8.86027C16.4121 8.86027 16.4884 8.89187 16.5447 8.94813C16.6009 9.00439 16.6325 9.0807 16.6325 9.16027C16.6325 9.23983 16.6009 9.31614 16.5447 9.3724C16.4884 9.42866 16.4121 9.46026 16.3325 9.46026C16.155 9.46014 15.9832 9.52301 15.8476 9.63768C15.7121 9.75236 15.6216 9.9114 15.5923 10.0865L15.407 11.1958C15.365 11.4469 15.2725 11.6869 15.1351 11.9013C14.9977 12.1157 14.8182 12.3 14.6075 12.443C14.5033 12.5135 14.393 12.593 14.2753 12.674C13.6698 13.2005 12.9263 13.5427 12.1325 13.6603C11.338 13.5431 10.5937 13.2009 9.98754 12.674C9.86979 12.5915 9.76254 12.5135 9.65529 12.443C9.44504 12.2998 9.266 12.1154 9.12898 11.901C8.99196 11.6866 8.89979 11.4467 8.85804 11.1958L8.67279 10.0865C8.64349 9.9114 8.55302 9.75236 8.41747 9.63768C8.28192 9.52301 8.11009 9.46014 7.93254 9.46026ZM5.53254 17.663C5.61629 16.9945 5.91043 16.37 6.37246 15.8796C6.83448 15.3893 7.44045 15.0586 8.10279 14.9353L10.091 14.5355C10.7045 14.9202 11.4089 15.1357 12.1325 15.1603C12.8562 15.1357 13.5605 14.9202 14.174 14.5355L15.7775 14.8573C15.0969 15.5901 14.6647 16.5189 14.5423 17.5115L14.4373 18.9103H5.44104L5.53254 17.663ZM1.63254 21.1603C1.63254 20.9614 1.71156 20.7706 1.85221 20.6299C1.99286 20.4893 2.18363 20.4103 2.38254 20.4103H42.8825C43.0815 20.4103 43.2722 20.4893 43.4129 20.6299C43.5535 20.7706 43.6325 20.9614 43.6325 21.1603V22.6603C43.6325 22.8592 43.5535 23.0499 43.4129 23.1906C43.2722 23.3312 43.0815 23.4103 42.8825 23.4103H2.38254C2.18363 23.4103 1.99286 23.3312 1.85221 23.1906C1.71156 23.0499 1.63254 22.8592 1.63254 22.6603V21.1603ZM26.678 35.5603C26.5857 35.6306 26.511 35.7214 26.4597 35.8255C26.4084 35.9296 26.382 36.0442 26.3825 36.1603V42.1603C26.3827 42.327 26.3274 42.489 26.2253 42.6207C26.1231 42.7525 25.98 42.8464 25.8185 42.8878L19.823 44.3878C19.7121 44.4147 19.5965 44.4163 19.4848 44.3924C19.3731 44.3686 19.2682 44.3199 19.1779 44.2501C19.0876 44.1802 19.0142 44.0909 18.963 43.9888C18.9119 43.8867 18.8844 43.7744 18.8825 43.6603V36.1603C18.8831 36.0442 18.8566 35.9296 18.8054 35.8255C18.7541 35.7214 18.6794 35.6306 18.587 35.5603L4.60479 24.9103H40.6603L26.678 35.5603Z" fill="black"/>
<path d="M42.8825 18.9103H41.3278L41.219 17.4725C41.097 16.4925 40.6672 15.5764 39.9914 14.8562C39.3157 14.136 38.4288 13.6487 37.4585 13.4645L36.8585 13.3438C37.3999 12.8397 37.7613 12.1722 37.8875 11.4433L37.9888 10.8365C38.3259 10.7045 38.6154 10.474 38.8194 10.1749C39.0234 9.87589 39.1326 9.52228 39.1325 9.16027V6.91026C39.131 5.58067 38.688 4.28922 37.8729 3.23877C37.0578 2.18831 35.9168 1.43836 34.6293 1.10668C33.3417 0.775002 31.9804 0.880397 30.7593 1.40631C29.5381 1.93222 28.5262 2.84886 27.8825 4.01226C27.3637 3.07446 26.6031 2.29275 25.6798 1.74842C24.7565 1.20409 23.7043 0.917002 22.6325 0.917002C21.5608 0.917002 20.5085 1.20409 19.5853 1.74842C18.662 2.29275 17.9014 3.07446 17.3825 4.01226C16.7388 2.84886 15.727 1.93222 14.5058 1.40631C13.2846 0.880397 11.9234 0.775002 10.6358 1.10668C9.34823 1.43836 8.20731 2.18831 7.39221 3.23877C6.57712 4.28922 6.13403 5.58067 6.13254 6.91026V9.16027C6.13257 9.52237 6.24181 9.87604 6.44599 10.1751C6.65017 10.4741 6.9398 10.7046 7.27704 10.8365L7.37829 11.4433C7.50466 12.1723 7.86603 12.84 8.40729 13.3445L7.81554 13.463C6.83754 13.6488 5.9443 14.1418 5.2657 14.8701C4.5871 15.5985 4.15853 16.5243 4.04229 17.513L3.93729 18.9103H2.38254C1.7858 18.9103 1.2135 19.1473 0.791548 19.5693C0.369591 19.9912 0.132538 20.5635 0.132538 21.1603L0.132538 22.6603C0.13502 23.2047 0.334827 23.7298 0.694914 24.1381C1.055 24.5465 1.55094 24.8104 2.09079 24.881L17.3825 36.5353V43.6603C17.3875 44.0008 17.4687 44.336 17.6204 44.641C17.7721 44.946 17.9903 45.213 18.2589 45.4225C18.5275 45.6319 18.8397 45.7784 19.1724 45.8511C19.5052 45.9239 19.85 45.921 20.1815 45.8428L26.1815 44.3428C26.6685 44.222 27.1009 43.9413 27.4093 43.5455C27.7177 43.1498 27.8844 42.662 27.8825 42.1603V36.5353L43.1743 24.881C43.7141 24.8104 44.2101 24.5465 44.5702 24.1381C44.9302 23.7298 45.1301 23.2047 45.1325 22.6603V21.1603C45.1325 20.5635 44.8955 19.9912 44.4735 19.5693C44.0516 19.1473 43.4793 18.9103 42.8825 18.9103ZM39.7273 17.624L39.824 18.9103H30.8278L30.719 17.4643C30.595 16.4883 30.1674 15.5761 29.4965 14.8565L31.091 14.5355C31.694 14.9427 32.405 15.1602 33.1325 15.1602C33.8601 15.1602 34.5711 14.9427 35.174 14.5355L37.1713 14.9368C37.8259 15.0588 38.4253 15.3842 38.8842 15.8667C39.3432 16.3492 39.6382 16.9641 39.7273 17.624ZM18.4325 8.86027C18.6314 8.86027 18.8222 8.78125 18.9629 8.6406C19.1035 8.49994 19.1825 8.30918 19.1825 8.11027C19.1825 7.77052 19.3633 7.51026 19.5253 7.48626C20.6189 7.34394 21.6744 6.98984 22.6325 6.44376C23.5907 6.98994 24.6461 7.34405 25.7398 7.48626C25.9018 7.50876 26.0825 7.77052 26.0825 8.11027C26.0825 8.30918 26.1616 8.49994 26.3022 8.6406C26.4429 8.78125 26.6336 8.86027 26.8325 8.86027C26.9121 8.86027 26.9884 8.89187 27.0447 8.94813C27.1009 9.00439 27.1325 9.0807 27.1325 9.16027C27.1325 9.23983 27.1009 9.31614 27.0447 9.3724C26.9884 9.42866 26.9121 9.46026 26.8325 9.46026C26.655 9.46014 26.4832 9.52301 26.3476 9.63768C26.2121 9.75236 26.1216 9.9114 26.0923 10.0865L25.907 11.1958C25.865 11.4469 25.7725 11.6869 25.6351 11.9013C25.4977 12.1157 25.3182 12.3 25.1075 12.443C25.0033 12.5135 24.893 12.593 24.7753 12.674C24.1698 13.2005 23.4263 13.5427 22.6325 13.6603C21.838 13.5431 21.0937 13.2009 20.4875 12.674C20.3698 12.5915 20.2625 12.5135 20.1553 12.443C19.945 12.2998 19.766 12.1154 19.629 11.901C19.492 11.6866 19.3998 11.4467 19.358 11.1958L19.1728 10.0865C19.1435 9.9114 19.053 9.75236 18.9175 9.63768C18.7819 9.52301 18.6101 9.46014 18.4325 9.46026C18.353 9.46026 18.2767 9.42866 18.2204 9.3724C18.1641 9.31614 18.1325 9.23983 18.1325 9.16027C18.1325 9.0807 18.1641 9.00439 18.2204 8.94813C18.2767 8.89187 18.353 8.86027 18.4325 8.86027ZM28.8245 13.4615C28.501 13.5236 28.1851 13.6207 27.8825 13.751C27.5844 13.6233 27.2737 13.5273 26.9555 13.4645L26.3555 13.3438C26.8969 12.8397 27.2583 12.1722 27.3845 11.4433L27.4858 10.8365C27.6267 10.7802 27.76 10.7063 27.8825 10.6168C28.0044 10.7062 28.1369 10.78 28.277 10.8365L28.3783 11.4433C28.5047 12.1723 28.866 12.84 29.4073 13.3445L28.8245 13.4615ZM16.988 10.8365C17.1282 10.78 17.2607 10.7062 17.3825 10.6168C17.5044 10.7062 17.6369 10.78 17.777 10.8365L17.8783 11.4433C18.0047 12.1723 18.366 12.84 18.9073 13.3445L18.3155 13.463C17.9964 13.527 17.6849 13.6245 17.3863 13.754C17.0885 13.624 16.7774 13.5269 16.4585 13.4645L15.8585 13.3438C16.3999 12.8397 16.7613 12.1722 16.8875 11.4433L16.988 10.8365ZM18.6028 14.9353L20.591 14.5355C21.2045 14.9202 21.9089 15.1357 22.6325 15.1603C23.3562 15.1357 24.0605 14.9202 24.674 14.5355L26.675 14.9375C27.3283 15.0582 27.9266 15.3822 28.3846 15.8634C28.8426 16.3445 29.1368 16.9581 29.225 17.6165L29.324 18.9103H15.941L16.034 17.663C16.1177 16.9947 16.4116 16.3703 16.8734 15.88C17.3351 15.3897 17.9407 15.0589 18.6028 14.9353ZM37.3325 9.46026C37.155 9.46014 36.9832 9.52301 36.8476 9.63768C36.7121 9.75236 36.6216 9.9114 36.5923 10.0865L36.407 11.1958C36.365 11.4469 36.2725 11.6869 36.1351 11.9013C35.9977 12.1157 35.8182 12.3 35.6075 12.443C35.5033 12.5135 35.393 12.593 35.2753 12.674C34.6698 13.2005 33.9263 13.5427 33.1325 13.6603C32.338 13.5431 31.5937 13.2009 30.9875 12.674C30.8698 12.5915 30.7625 12.5135 30.6553 12.443C30.445 12.2998 30.266 12.1154 30.129 11.901C29.992 11.6866 29.8998 11.4467 29.858 11.1958L29.6728 10.0865C29.6435 9.9114 29.553 9.75236 29.4175 9.63768C29.2819 9.52301 29.1101 9.46014 28.9325 9.46026C28.853 9.46026 28.7767 9.42866 28.7204 9.3724C28.6641 9.31614 28.6325 9.23983 28.6325 9.16027C28.6325 9.0807 28.6641 9.00439 28.7204 8.94813C28.7767 8.89187 28.853 8.86027 28.9325 8.86027C29.1315 8.86027 29.3222 8.78125 29.4629 8.6406C29.6035 8.49994 29.6825 8.30918 29.6825 8.11027C29.6825 7.77052 29.8633 7.51026 30.0253 7.48626C31.1189 7.34394 32.1744 6.98984 33.1325 6.44376C34.0907 6.98994 35.1461 7.34405 36.2398 7.48626C36.4018 7.50876 36.5825 7.77052 36.5825 8.11027C36.5825 8.30918 36.6616 8.49994 36.8022 8.6406C36.9429 8.78125 37.1336 8.86027 37.3325 8.86027C37.4121 8.86027 37.4884 8.89187 37.5447 8.94813C37.6009 9.00439 37.6325 9.0807 37.6325 9.16027C37.6325 9.23983 37.6009 9.31614 37.5447 9.3724C37.4884 9.42866 37.4121 9.46026 37.3325 9.46026ZM33.1325 2.41026C34.2917 2.41021 35.4061 2.85808 36.2429 3.66032C37.0796 4.46255 37.574 5.55709 37.6228 6.71526C37.3418 6.3322 36.9212 6.07537 36.452 6.00052C35.5285 5.88532 34.638 5.58373 33.8345 5.11401C33.6248 4.98062 33.3814 4.90977 33.1329 4.90977C32.8844 4.90977 32.641 4.98062 32.4313 5.11401C31.6275 5.58363 30.7368 5.88522 29.813 6.00052C29.344 6.07553 28.9234 6.33232 28.6423 6.71526C28.6925 5.55759 29.1874 4.46391 30.0238 3.66198C30.8602 2.86005 31.9738 2.41169 33.1325 2.41026ZM19.4518 3.72951C20.0686 3.11148 20.852 2.68651 21.7064 2.50653C22.5608 2.32655 23.4491 2.39936 24.2628 2.71607C25.0765 3.03277 25.7803 3.57966 26.2882 4.28988C26.7961 5.0001 27.0861 5.84289 27.1228 6.71526C26.8417 6.33232 26.4211 6.07553 25.952 6.00052C25.0285 5.88532 24.138 5.58373 23.3345 5.11401C23.1248 4.98062 22.8814 4.90977 22.6329 4.90977C22.3844 4.90977 22.141 4.98062 21.9313 5.11401C21.1275 5.58363 20.2368 5.88522 19.313 6.00052C18.8439 6.07537 18.4232 6.3322 18.1423 6.71526C18.187 5.59058 18.6547 4.52424 19.4518 3.72951ZM8.95179 3.72951C9.56857 3.11148 10.352 2.68651 11.2064 2.50653C12.0608 2.32655 12.9491 2.39936 13.7628 2.71607C14.5765 3.03277 15.2803 3.57966 15.7882 4.28988C16.2961 5.0001 16.5861 5.84289 16.6228 6.71526C16.3417 6.33232 15.9211 6.07553 15.452 6.00052C14.5285 5.88532 13.638 5.58373 12.8345 5.11401C12.6248 4.98062 12.3814 4.90977 12.1329 4.90977C11.8844 4.90977 11.641 4.98062 11.4313 5.11401C10.6275 5.58363 9.73678 5.88522 8.81304 6.00052C8.34392 6.07537 7.92324 6.3322 7.64229 6.71526C7.68703 5.59058 8.15471 4.52424 8.95179 3.72951ZM7.93254 9.46026C7.85297 9.46026 7.77667 9.42866 7.72041 9.3724C7.66414 9.31614 7.63254 9.23983 7.63254 9.16027C7.63254 9.0807 7.66414 9.00439 7.72041 8.94813C7.77667 8.89187 7.85297 8.86027 7.93254 8.86027C8.13145 8.86027 8.32222 8.78125 8.46287 8.6406C8.60352 8.49994 8.68254 8.30918 8.68254 8.11027C8.68254 7.77052 8.86329 7.51026 9.02529 7.48626C10.1189 7.34394 11.1744 6.98984 12.1325 6.44376C13.0907 6.98994 14.1461 7.34405 15.2398 7.48626C15.4018 7.50876 15.5825 7.77052 15.5825 8.11027C15.5825 8.30918 15.6616 8.49994 15.8022 8.6406C15.9429 8.78125 16.1336 8.86027 16.3325 8.86027C16.4121 8.86027 16.4884 8.89187 16.5447 8.94813C16.6009 9.00439 16.6325 9.0807 16.6325 9.16027C16.6325 9.23983 16.6009 9.31614 16.5447 9.3724C16.4884 9.42866 16.4121 9.46026 16.3325 9.46026C16.155 9.46014 15.9832 9.52301 15.8476 9.63768C15.7121 9.75236 15.6216 9.9114 15.5923 10.0865L15.407 11.1958C15.365 11.4469 15.2725 11.6869 15.1351 11.9013C14.9977 12.1157 14.8182 12.3 14.6075 12.443C14.5033 12.5135 14.393 12.593 14.2753 12.674C13.6698 13.2005 12.9263 13.5427 12.1325 13.6603C11.338 13.5431 10.5937 13.2009 9.98754 12.674C9.86979 12.5915 9.76254 12.5135 9.65529 12.443C9.44504 12.2998 9.266 12.1154 9.12898 11.901C8.99196 11.6866 8.89979 11.4467 8.85804 11.1958L8.67279 10.0865C8.64349 9.9114 8.55302 9.75236 8.41747 9.63768C8.28192 9.52301 8.11009 9.46014 7.93254 9.46026ZM5.53254 17.663C5.61629 16.9945 5.91043 16.37 6.37246 15.8796C6.83448 15.3893 7.44045 15.0586 8.10279 14.9353L10.091 14.5355C10.7045 14.9202 11.4089 15.1357 12.1325 15.1603C12.8562 15.1357 13.5605 14.9202 14.174 14.5355L15.7775 14.8573C15.0969 15.5901 14.6647 16.5189 14.5423 17.5115L14.4373 18.9103H5.44104L5.53254 17.663ZM1.63254 21.1603C1.63254 20.9614 1.71156 20.7706 1.85221 20.6299C1.99286 20.4893 2.18363 20.4103 2.38254 20.4103H42.8825C43.0815 20.4103 43.2722 20.4893 43.4129 20.6299C43.5535 20.7706 43.6325 20.9614 43.6325 21.1603V22.6603C43.6325 22.8592 43.5535 23.0499 43.4129 23.1906C43.2722 23.3312 43.0815 23.4103 42.8825 23.4103H2.38254C2.18363 23.4103 1.99286 23.3312 1.85221 23.1906C1.71156 23.0499 1.63254 22.8592 1.63254 22.6603V21.1603ZM26.678 35.5603C26.5857 35.6306 26.511 35.7214 26.4597 35.8255C26.4084 35.9296 26.382 36.0442 26.3825 36.1603V42.1603C26.3827 42.327 26.3274 42.489 26.2253 42.6207C26.1231 42.7525 25.98 42.8464 25.8185 42.8878L19.823 44.3878C19.7121 44.4147 19.5965 44.4163 19.4848 44.3924C19.3731 44.3686 19.2682 44.3199 19.1779 44.2501C19.0876 44.1802 19.0142 44.0909 18.963 43.9888C18.9119 43.8867 18.8844 43.7744 18.8825 43.6603V36.1603C18.8831 36.0442 18.8566 35.9296 18.8054 35.8255C18.7541 35.7214 18.6794 35.6306 18.587 35.5603L4.60479 24.9103H40.6603L26.678 35.5603Z" stroke="black" stroke-width="0.2" mask="url(#path-1-outside-1_95_10216)"/>
</g>
<defs>
<clipPath id="clip0_95_10216">
<rect width="45" height="45" fill="white" transform="translate(0.132538 0.910156)"/>
</clipPath>
</defs>
</svg>
