<svg width="45" height="45" viewBox="0 0 45 45" fill="none" xmlns="http://www.w3.org/2000/svg">
<path d="M30.1287 31.7408C31.2981 30.8115 32.0557 29.3592 32.0557 27.7258C32.0557 24.927 29.8409 22.6495 27.1188 22.6495C24.3968 22.6495 22.1819 24.9269 22.1819 27.7258C22.1819 29.359 22.9396 30.8113 24.1089 31.7408C21.7584 32.3742 20.0177 34.5702 20.0177 37.1833V41.6337C20.0177 41.9788 20.2907 42.2595 20.6263 42.2595H33.6112C33.9467 42.2595 34.2197 41.9788 34.2197 41.6337V37.1833C34.2197 34.5701 32.4794 32.3741 30.1287 31.7408ZM23.3992 27.7258C23.3992 25.6171 25.0682 23.901 27.119 23.901C29.1697 23.901 30.8387 25.6171 30.8387 27.7258C30.8387 29.8344 29.1697 31.5505 27.119 31.5505C25.0682 31.5505 23.3992 29.8344 23.3992 27.7258ZM33.0027 41.0079H21.2351V37.1832C21.2351 34.7679 23.1456 32.8019 25.4962 32.8019H28.7431C31.0922 32.8019 33.0042 34.7664 33.0042 37.1832V41.0079H33.0027ZM23.8524 9.00851L23.7271 10.5958C23.6869 11.108 23.9046 11.5926 24.3073 11.8947C24.7115 12.1968 25.2276 12.2597 25.6884 12.0619L27.1173 11.4484L28.5461 12.0619C28.7236 12.1385 28.91 12.1753 29.095 12.1753C29.3888 12.1753 29.6796 12.0803 29.9272 11.8947C30.3314 11.5926 30.5492 11.1064 30.5074 10.5958L30.3821 9.00851L31.3903 7.80007C31.7155 7.41055 31.8169 6.88608 31.6633 6.3984C31.5082 5.90919 31.1264 5.54726 30.6401 5.42917L29.1337 5.06111L28.3283 3.70239C28.0688 3.26378 27.6154 3.00153 27.1157 3.00153C26.6161 3.00153 26.1627 3.26377 25.9032 3.70239L25.0978 5.06111L23.5914 5.42917C23.1052 5.54879 22.7233 5.91072 22.5697 6.3984C22.4161 6.88761 22.5175 7.41054 22.8426 7.80007L23.8509 9.00851H23.8524ZM23.7286 6.78483C23.7421 6.74342 23.7779 6.66981 23.8748 6.64527L25.6273 6.21743C25.7854 6.17909 25.9211 6.07634 26.0061 5.93371L26.9442 4.3511C27.0471 4.17627 27.1873 4.17627 27.2902 4.3511L28.2284 5.93371C28.3134 6.07634 28.4491 6.17909 28.6072 6.21743L30.3597 6.64527C30.4566 6.66828 30.4939 6.74342 30.5058 6.78483C30.5193 6.82623 30.5312 6.90751 30.4671 6.98573L29.2933 8.39199C29.1874 8.51928 29.1352 8.68337 29.1486 8.85054L29.2948 10.6969C29.3022 10.7982 29.2456 10.8564 29.2112 10.8825C29.1769 10.9086 29.1054 10.9454 29.0144 10.9055L27.3514 10.1924C27.2768 10.1602 27.1963 10.1449 27.1172 10.1449C27.0382 10.1449 26.9576 10.1602 26.883 10.1924L25.22 10.9055C25.1276 10.9438 25.0575 10.907 25.0232 10.8825C24.9889 10.8564 24.9322 10.7982 24.9396 10.6969L25.0858 8.85054C25.0992 8.68491 25.047 8.51929 24.9411 8.39199L23.7673 6.98573C23.7032 6.90751 23.7152 6.82623 23.7286 6.78483ZM35.3531 9.00851L35.2278 10.5958C35.1875 11.108 35.4053 11.5926 35.808 11.8947C36.2122 12.1968 36.7282 12.2597 37.1891 12.0619L38.6179 11.4484L40.0468 12.0619C40.2243 12.1385 40.4107 12.1753 40.5956 12.1753C40.8895 12.1753 41.1803 12.0803 41.4279 11.8947C41.8321 11.5926 42.0498 11.1064 42.0081 10.5958L41.8828 9.00851L42.891 7.80007C43.2161 7.41055 43.3176 6.88608 43.1639 6.3984C43.0088 5.90919 42.627 5.54726 42.1408 5.42917L40.6344 5.06111L39.829 3.70239C39.5695 3.26378 39.1161 3.00153 38.6164 3.00153C38.1168 3.00153 37.6634 3.26377 37.4038 3.70239L36.5984 5.06111L35.092 5.42917C34.6073 5.54725 34.224 5.91072 34.0704 6.3984C33.9167 6.88761 34.0182 7.41054 34.3433 7.8016L35.3515 9.01004L35.3531 9.00851ZM35.2293 6.78483C35.2427 6.74342 35.2785 6.66981 35.3755 6.64527L37.1295 6.21743C37.2875 6.17909 37.4233 6.07634 37.5083 5.93371L38.4464 4.3511C38.5493 4.1778 38.688 4.17474 38.7924 4.3511L39.7306 5.93371C39.8156 6.07634 39.9513 6.17909 40.1094 6.21743L41.8619 6.64527C41.9588 6.66828 41.9961 6.74342 42.008 6.78483C42.0215 6.82623 42.0334 6.90751 41.9693 6.98573L40.7955 8.39199C40.6896 8.51928 40.6374 8.68337 40.6508 8.85054L40.797 10.6969C40.8044 10.7982 40.7477 10.8564 40.7134 10.8825C40.6791 10.9086 40.6075 10.9454 40.5166 10.9055L38.8536 10.1924C38.779 10.1602 38.6984 10.1449 38.6194 10.1449C38.5403 10.1449 38.4598 10.1602 38.3852 10.1924L36.7222 10.9055C36.6297 10.9438 36.5597 10.907 36.5254 10.8825C36.491 10.8564 36.4344 10.7982 36.4418 10.6969L36.5865 8.85054C36.5999 8.68338 36.5477 8.51929 36.4418 8.39199L35.268 6.98573C35.2039 6.90751 35.2159 6.82623 35.2293 6.78483ZM12.3515 9.00851L12.2262 10.5958C12.186 11.108 12.4037 11.5926 12.8064 11.8947C13.2106 12.1968 13.7267 12.2597 14.1875 12.0619L15.6164 11.4484L17.0452 12.0619C17.2227 12.1385 17.4091 12.1753 17.5941 12.1753C17.8879 12.1753 18.1787 12.0803 18.4263 11.8947C18.8305 11.5926 19.0482 11.1064 19.0065 10.5958L18.8812 9.00851L19.8894 7.80007C20.2146 7.41055 20.316 6.88608 20.1624 6.39687C20.0087 5.90919 19.6255 5.54573 19.1407 5.42764L17.6343 5.05958L16.8289 3.70086C16.5694 3.26225 16.116 3 15.6163 3C15.1167 3 14.6633 3.26224 14.4037 3.70086L13.5983 5.05958L12.0919 5.42764C11.6057 5.54725 11.2239 5.90919 11.0703 6.39687C10.9167 6.88608 11.0181 7.40901 11.3432 7.79854L12.3514 9.00698L12.3515 9.00851ZM12.2277 6.78483C12.2411 6.74342 12.2769 6.66981 12.3739 6.64527L14.1279 6.21743C14.286 6.17909 14.4217 6.07634 14.5067 5.93371L15.4448 4.3511C15.497 4.26368 15.5746 4.25141 15.6178 4.25141C15.6611 4.25141 15.7401 4.26368 15.7909 4.3511L16.729 5.93371C16.814 6.07634 16.9497 6.17909 17.1078 6.21743L18.8603 6.64527C18.9572 6.66828 18.993 6.74189 19.0065 6.78483C19.0199 6.82623 19.0318 6.90751 18.9677 6.98573L17.7939 8.39199C17.688 8.51928 17.6358 8.68337 17.6492 8.85054L17.7939 10.6969C17.8013 10.7982 17.7447 10.8564 17.7104 10.8825C17.6761 10.9086 17.6045 10.9454 17.5135 10.9055L15.8505 10.1924C15.7013 10.128 15.5313 10.128 15.3821 10.1924L13.7191 10.9055C13.6267 10.9438 13.5566 10.907 13.5223 10.8825C13.488 10.8564 13.4313 10.7982 13.4387 10.6969L13.5849 8.85054C13.5983 8.68491 13.5461 8.51929 13.4402 8.39199L12.2664 6.98573C12.2023 6.90751 12.2143 6.82623 12.2277 6.78483ZM41.7278 15.138H35.6649C35.122 14.6243 34.4046 14.3038 33.6111 14.3038C32.8176 14.3038 32.1002 14.6243 31.5573 15.138H12.5096C11.7265 15.138 11.0897 15.7929 11.0897 16.598V18.2665C11.0897 19.0716 11.7265 19.7265 12.5096 19.7265H31.5573C32.1002 20.2402 32.8176 20.5607 33.6111 20.5607C34.4046 20.5607 35.122 20.2402 35.6649 19.7265H41.7278C42.5108 19.7265 43.1477 19.0716 43.1477 18.2665V16.598C43.1477 15.7929 42.5108 15.138 41.7278 15.138ZM12.3068 18.268V16.5995C12.3068 16.486 12.3992 16.391 12.5096 16.391H30.7548C30.6414 16.7191 30.5683 17.0673 30.5683 17.4338C30.5683 17.8018 30.6414 18.1484 30.7548 18.4766H12.5096C12.3992 18.4766 12.3068 18.3815 12.3068 18.268ZM31.7856 17.4338C31.7856 16.3986 32.6044 15.5567 33.6111 15.5567C34.6179 15.5567 35.4367 16.3986 35.4367 17.4338C35.4367 18.4689 34.6179 19.3108 33.6111 19.3108C32.6044 19.3108 31.7856 18.4689 31.7856 17.4338ZM41.9305 18.268C41.9305 18.3815 41.838 18.4766 41.7277 18.4766H36.4689C36.5822 18.1484 36.6553 17.8003 36.6553 17.4338C36.6553 17.0657 36.5822 16.7192 36.4689 16.391H41.7277C41.838 16.391 41.9305 16.4861 41.9305 16.5996V18.268Z" fill="black"/>
</svg>
