<svg width="30" height="30" viewBox="0 0 30 30" fill="none" xmlns="http://www.w3.org/2000/svg">
<path d="M20.401 15.4222C19.6778 14.699 18.5138 14.699 17.7905 15.4222L16.7065 16.547C14.5385 15.5838 13.4137 13.615 13.0121 12.8118L14.0961 11.7278C14.8193 11.0046 14.8193 9.84056 14.0961 9.11735L12.0881 7.10932C11.7272 6.7485 11.2849 6.58691 10.8032 6.58691C10.3216 6.58691 9.84004 6.78772 9.51843 7.10932L8.71522 7.91253C8.07201 8.59494 7.63121 9.43895 7.59041 10.363C7.46961 11.9286 7.67041 15.0224 10.4016 17.9935L10.9632 18.5959C13.7337 21.4871 16.6656 22.0503 18.5138 22.0503C18.7554 22.0503 18.9954 22.0503 19.1962 22.0095C20.1203 21.9295 21.0035 21.5279 21.6859 20.8847L22.4891 20.0815C22.8499 19.7207 23.0115 19.2783 23.0115 18.7967C23.0115 18.3151 22.8107 17.8335 22.4891 17.5119L20.401 15.4222ZM21.2842 18.9159L20.481 19.7191C20.0794 20.1207 19.557 20.3623 19.0346 20.4015C17.5881 20.5223 14.7378 20.2807 12.0864 17.4695L11.5248 16.9079C9.23594 14.3774 9.03514 11.8079 9.15594 10.5231C9.19673 10.0007 9.43675 9.47831 9.83835 9.07671L10.6416 8.2735C10.6823 8.23271 10.7624 8.19349 10.8016 8.19349C10.8424 8.19349 10.9224 8.19349 10.9616 8.2735L12.9696 10.2815C13.0496 10.3615 13.0496 10.5231 12.9696 10.6031L11.8856 11.6871C11.404 12.1687 11.2832 12.9328 11.564 13.5352C12.1664 14.74 13.492 16.908 16.0616 18.0327C16.664 18.3135 17.3872 18.1535 17.8688 17.7111L18.9936 16.5863C19.0736 16.5063 19.2352 16.5063 19.3152 16.5863L21.3233 18.5944C21.364 18.6351 21.4033 18.7151 21.4033 18.7544C21.4048 18.7952 21.3658 18.8359 21.2842 18.9159Z" fill="white"/>
<path d="M15.1012 0.00145876C11.1259 0.00145876 7.4297 1.52788 4.61846 4.3392C-0.200802 9.15846 -1.1249 16.5082 2.32963 22.3705L0 30.001L7.2289 27.3905C13.0522 31.0458 20.7236 30.2018 25.5819 25.3025C28.3931 22.4913 29.9196 18.7969 29.9196 14.8198C29.9196 10.8446 28.3932 7.14835 25.5819 4.33711C22.7722 1.52587 19.0763 0.000976562 15.1008 0.000976562L15.1012 0.00145876ZM24.459 24.1777C20.0003 28.6363 13.0132 29.3186 7.79235 25.8249L7.47075 25.5833L2.49165 27.3906L4.09807 22.1287L3.89727 21.8071C0.604424 16.5453 1.36683 9.83889 5.74529 5.46219C8.23493 2.97256 11.5686 1.60614 15.1031 1.60614C18.6375 1.60614 21.9714 2.97095 24.4609 5.46219C26.9505 7.95182 28.317 11.2855 28.317 14.82C28.3138 18.3544 26.9486 21.6881 24.459 24.1777Z" fill="white"/>
</svg>
