<svg width="77" height="80" viewBox="0 0 77 80" fill="none" xmlns="http://www.w3.org/2000/svg">
<g clip-path="url(#clip0_1132_1825)">
<mask id="mask0_1132_1825" style="mask-type:luminance" maskUnits="userSpaceOnUse" x="0" y="0" width="77" height="81">
<path d="M0 0.000976562H76.6197V80.001H0V0.000976562Z" fill="white"/>
</mask>
<g mask="url(#mask0_1132_1825)">
<path d="M38.1908 0.102539L0.253906 13.3183L6.2494 62.5172L38.2325 79.9166L70.3801 62.2817L76.3733 13.0851L38.1908 0.102539Z" fill="#B3B3B3"/>
<path d="M72.5872 15.9267L38.1016 4.28613V75.7588L67.0018 59.9267L72.5872 15.9267Z" fill="#A6120D"/>
<path d="M4.51172 16.1364L9.64862 60.1376L38.1027 75.759V4.28516L4.51172 16.1364Z" fill="#DD1B16"/>
<path d="M47.5944 42.3342L38.1014 46.7286H28.0958L23.3927 58.3725L14.6445 58.5325L38.1003 6.88184L47.5944 42.3342ZM46.6772 40.1224L38.1657 23.443L31.1831 39.8362H38.1014L46.6772 40.1224Z" fill="#F2F2F2"/>
<path d="M38.1016 6.88086L38.1647 23.442L46.0869 39.8476H38.1196L38.1016 46.7175L49.119 46.7276L54.2683 58.5338L62.639 58.6871L38.1016 6.88086Z" fill="#B3B3B3"/>
</g>
</g>
<defs>
<clipPath id="clip0_1132_1825">
<rect width="76.6197" height="80" fill="white"/>
</clipPath>
</defs>
</svg>
