<svg width="80" height="80" viewBox="0 0 80 80" fill="none" xmlns="http://www.w3.org/2000/svg">
<g clip-path="url(#clip0_1091_1680)">
<path d="M54.0767 0.378383C52.8223 1.11901 50.7342 3.21588 48.2529 6.25776L50.5354 10.5721C52.1417 8.28088 53.7711 6.21151 55.4148 4.44713C54.8823 5.03026 53.2667 6.91963 50.8317 10.6603C53.1786 10.5446 56.7804 10.0628 59.7204 9.56276C60.5998 4.66026 58.8642 2.41963 58.8642 2.41963C58.8642 2.41963 56.6598 -1.14412 54.0767 0.378383Z" fill="url(#paint0_linear_1091_1680)"/>
<path d="M46.3966 36.6221C46.1048 36.6727 45.8091 36.7283 45.4985 36.7796C45.4985 36.7796 45.4941 36.7796 45.4941 36.7839L45.9566 36.7146C46.1004 36.6821 46.2485 36.6546 46.3966 36.6221Z" fill="#BD202E"/>
<path opacity="0.35" d="M46.3966 36.6221C46.1048 36.6727 45.8091 36.7283 45.4985 36.7796C45.4985 36.7796 45.4941 36.7796 45.4941 36.7839L45.9566 36.7146C46.1004 36.6821 46.2485 36.6546 46.3966 36.6221Z" fill="#BD202E"/>
<path d="M47.1597 32.8496C47.1553 32.8496 47.1553 32.8496 47.1553 32.854C47.2015 32.8496 47.2522 32.8402 47.299 32.8309C47.4928 32.8034 47.6828 32.7709 47.8678 32.7246C47.6365 32.7665 47.4053 32.8077 47.1597 32.8496Z" fill="#BD202E"/>
<path opacity="0.35" d="M47.1597 32.8496C47.1553 32.8496 47.1553 32.8496 47.1553 32.854C47.2015 32.8496 47.2522 32.8402 47.299 32.8309C47.4928 32.8034 47.6828 32.7709 47.8678 32.7246C47.6365 32.7665 47.4053 32.8077 47.1597 32.8496Z" fill="#BD202E"/>
<path d="M43.7945 21.7252C44.4765 20.4473 45.1786 19.1803 45.9007 17.9246C46.6223 16.6658 47.3693 15.4218 48.1413 14.1933C48.1832 14.1233 48.2338 14.0496 48.2757 13.9802C49.0014 12.8292 49.7531 11.6947 50.5301 10.5777L48.2482 6.2627C48.0733 6.47567 47.9004 6.69026 47.7295 6.90645C47.0324 7.77601 46.3502 8.65739 45.6832 9.55019C44.8545 10.6601 44.0442 11.7835 43.2526 12.9202C42.465 14.0509 41.6934 15.1926 40.9382 16.3452C40.265 17.3732 39.606 18.4104 38.9613 19.4564C38.9382 19.4939 38.9151 19.5352 38.8926 19.5771L41.8688 25.4564C42.4911 24.2027 43.1331 22.9588 43.7945 21.7252Z" fill="url(#paint1_linear_1091_1680)"/>
<path d="M30.2394 54.8345C29.8371 55.9351 29.442 57.0385 29.0544 58.1445C29.0494 58.1582 29.045 58.177 29.0357 58.1907C28.98 58.3482 28.92 58.5101 28.8694 58.6676C28.6007 59.427 28.3694 60.112 27.8369 61.6632C28.7119 62.0613 29.4157 63.1163 30.0819 64.3107C30.0205 63.0494 29.461 61.8641 28.5263 61.0151C32.8457 61.2088 36.5682 60.117 38.4938 56.9595C38.665 56.677 38.8225 56.3851 38.9657 56.0657C38.0907 57.177 37.0032 57.6445 34.9613 57.5332C37.9707 56.1863 39.475 54.8945 40.8132 52.7557C41.1282 52.247 41.4382 51.6957 41.7532 51.0801C39.1232 53.7788 36.0819 54.5476 32.8738 53.9645L30.4663 54.2282C30.3875 54.432 30.3182 54.6307 30.2394 54.8345Z" fill="url(#paint2_linear_1091_1680)"/>
<path d="M31.3648 49.4499C31.8836 48.108 32.4204 46.7468 32.9667 45.3768C33.4966 44.0515 34.0369 42.7305 34.5873 41.4136C35.1457 40.0794 35.7103 38.7477 36.2811 37.4186C36.8648 36.0624 37.4667 34.7105 38.0823 33.363C38.6834 32.0361 39.2976 30.7152 39.9248 29.4005C40.1467 28.928 40.3786 28.4561 40.6054 27.988C40.9992 27.178 41.3967 26.3724 41.7992 25.5761C41.8229 25.5349 41.8411 25.4886 41.8642 25.4468L38.8879 19.5674C38.8413 19.6478 38.7919 19.7266 38.7398 19.8036C38.0362 20.9508 37.3494 22.1082 36.6798 23.2755C35.9889 24.4807 35.3174 25.6969 34.6654 26.9236C34.1118 27.9682 33.5701 29.0191 33.0404 30.0761C32.9342 30.2886 32.8323 30.5068 32.7261 30.7199C32.1078 31.9944 31.5197 33.2833 30.9623 34.5855C30.3933 35.9088 29.8639 37.2488 29.3748 38.6036C29.0686 39.4411 28.7954 40.2474 28.5411 41.0249C28.3329 41.6868 28.1379 42.3536 27.9436 43.0155C27.5024 44.5525 27.1209 46.1059 26.7998 47.6724L29.7911 53.5749C30.1848 52.5199 30.5917 51.4455 31.0086 50.3624C31.1336 50.0524 31.2448 49.7468 31.3648 49.4499Z" fill="url(#paint3_linear_1091_1680)"/>
<path d="M26.7675 47.8722C26.3925 49.761 26.1238 51.641 25.9894 53.511L25.9756 53.7047C25.0406 52.2097 22.5456 50.7516 22.55 50.7654C24.3419 53.3579 25.6981 55.9322 25.8969 58.4591C24.9388 58.6541 23.6281 58.3716 22.115 57.816C23.6938 59.2697 24.8788 59.6678 25.3463 59.7785C23.8925 59.8716 22.3838 60.8672 20.86 62.0154C23.0869 61.1079 24.8881 60.7466 26.175 61.0385C24.1288 66.8247 22.0825 73.2135 20.0312 80.0004C20.6613 79.8153 21.0363 79.3891 21.2444 78.8197C21.61 77.5929 24.0319 69.5285 27.8319 58.941C27.9431 58.6404 28.05 58.3347 28.1606 58.0335C28.1888 57.946 28.2213 57.8622 28.2538 57.7835C28.6519 56.6729 29.0725 55.5385 29.4988 54.381C29.5963 54.1172 29.6931 53.8535 29.795 53.5897C29.795 53.5847 29.8 53.5804 29.8 53.5754L26.8044 47.6729C26.7935 47.7396 26.7816 47.8061 26.7675 47.8722Z" fill="url(#paint4_linear_1091_1680)"/>
<path d="M42.3264 25.9378C42.2389 26.114 42.1552 26.2896 42.0671 26.4659C41.8083 26.9978 41.5483 27.5396 41.2802 28.0953C40.9927 28.6971 40.7064 29.3078 40.4146 29.9378C40.2664 30.2528 40.1183 30.5721 39.9702 30.8959C39.5132 31.893 39.0626 32.893 38.6183 33.8959C38.0341 35.2087 37.4616 36.5267 36.9008 37.8496C36.3502 39.1546 35.7802 40.5021 35.2158 41.8997C34.6739 43.2246 34.1283 44.5946 33.5721 46.0015C33.0633 47.2908 32.565 48.5842 32.0771 49.8815C32.0539 49.9415 32.0308 50.0109 32.0077 50.0709C31.5077 51.3903 31.0027 52.7471 30.4983 54.1359C30.4889 54.1678 30.4752 54.1959 30.4658 54.2328L32.8733 53.969C32.8271 53.9596 32.7758 53.9553 32.7296 53.9459C35.6046 53.5897 39.4333 51.4365 41.9008 48.784C43.0396 47.5621 44.0721 46.1178 45.0258 44.4278C45.7339 43.1734 46.4052 41.7753 47.0439 40.234C47.6334 38.7918 48.1678 37.3276 48.6458 35.8447C47.9833 36.1922 47.2289 36.4509 46.3958 36.6271C46.2477 36.6596 46.0996 36.6871 45.9471 36.7146C45.7939 36.7428 45.6408 36.7659 45.4839 36.7846C45.4839 36.7846 45.4883 36.7846 45.4883 36.7803C48.1733 35.7478 49.8633 33.7571 51.0902 31.3178C50.3864 31.799 49.2383 32.4284 47.8633 32.729C47.6274 32.7806 47.3898 32.824 47.1508 32.859H47.1596C48.0946 32.4703 48.8771 32.0303 49.5577 31.5165C49.7058 31.4053 49.8496 31.294 49.9789 31.174C50.1871 30.9928 50.3821 30.8034 50.5764 30.609C50.6964 30.4796 50.8121 30.3496 50.9283 30.2153C51.1971 29.8965 51.4471 29.5534 51.6783 29.1834C51.7471 29.0671 51.8221 28.9565 51.8864 28.8359C51.9789 28.6646 52.0621 28.4934 52.1458 28.3315C52.477 27.6729 52.7812 27.0011 53.0577 26.3178C53.1777 26.0215 53.2796 25.7528 53.3721 25.4934C53.4096 25.3915 53.4414 25.2946 53.4739 25.1971C53.5714 24.9146 53.6452 24.6646 53.7052 24.4428C53.7983 24.109 53.8539 23.8453 53.8814 23.6553C53.7889 23.7253 53.6877 23.799 53.5664 23.8684C52.7564 24.3546 51.3677 24.7896 50.2477 24.9984C50.2333 25.0028 50.2152 25.0028 50.1964 25.0071C50.0808 25.0259 49.9746 25.0446 49.8589 25.0584L49.9139 25.0303L42.3546 25.859C42.3501 25.8868 42.3405 25.9135 42.3264 25.9378Z" fill="url(#paint5_linear_1091_1680)"/>
<path d="M50.8352 10.6605C50.0808 11.8243 49.3478 13.0018 48.6364 14.1923C47.8512 15.5142 47.0857 16.8477 46.3402 18.1923C45.639 19.4661 44.9538 20.7485 44.2845 22.0392C43.631 23.3057 42.9906 24.5789 42.3633 25.8586L49.9233 25.0298C52.127 24.0161 53.1083 23.1042 54.062 21.7755C54.312 21.4098 54.5714 21.0305 54.8214 20.6317C55.6218 19.376 56.3618 18.0829 57.0389 16.7567C57.6958 15.4755 58.2745 14.2067 58.7189 13.0586C58.978 12.4048 59.2006 11.7371 59.3858 11.0586C59.5245 10.5355 59.6314 10.0355 59.7145 9.55859C56.7839 10.063 53.1777 10.5448 50.8352 10.6605Z" fill="url(#paint6_linear_1091_1680)"/>
<path d="M45.9475 36.7061C45.7944 36.7336 45.6412 36.7567 45.4844 36.7754C45.6419 36.7617 45.7994 36.7336 45.9475 36.7061Z" fill="#BD202E"/>
<path opacity="0.35" d="M45.9475 36.7061C45.7944 36.7336 45.6412 36.7567 45.4844 36.7754C45.6419 36.7617 45.7994 36.7336 45.9475 36.7061Z" fill="#BD202E"/>
<path d="M45.9475 36.7061C45.7944 36.7336 45.6412 36.7567 45.4844 36.7754C45.6419 36.7617 45.7994 36.7336 45.9475 36.7061Z" fill="url(#paint7_linear_1091_1680)"/>
<path d="M47.1553 32.8542C47.2015 32.8498 47.2522 32.8404 47.299 32.8311C47.2522 32.8361 47.2059 32.8498 47.1553 32.8542Z" fill="#BD202E"/>
<path opacity="0.35" d="M47.1553 32.8542C47.2015 32.8498 47.2522 32.8404 47.299 32.8311C47.2522 32.8361 47.2059 32.8498 47.1553 32.8542Z" fill="#BD202E"/>
<path d="M47.1553 32.8542C47.2015 32.8498 47.2522 32.8404 47.299 32.8311C47.2522 32.8361 47.2059 32.8498 47.1553 32.8542Z" fill="url(#paint8_linear_1091_1680)"/>
</g>
<defs>
<linearGradient id="paint0_linear_1091_1680" x1="50.1736" y1="6.79401" x2="66.9242" y2="2.13713" gradientUnits="userSpaceOnUse">
<stop stop-color="#F59723"/>
<stop offset="0.312" stop-color="#F69822"/>
<stop offset="0.838" stop-color="#E87726"/>
</linearGradient>
<linearGradient id="paint1_linear_1091_1680" x1="13.507" y1="81.9727" x2="47.5776" y2="8.9077" gradientUnits="userSpaceOnUse">
<stop offset="0.323" stop-color="#9C2063"/>
<stop offset="0.63" stop-color="#C82037"/>
<stop offset="0.751" stop-color="#CC2135"/>
<stop offset="1" stop-color="#E87726"/>
</linearGradient>
<linearGradient id="paint2_linear_1091_1680" x1="24.9394" y1="76.5657" x2="45.2419" y2="33.0257" gradientUnits="userSpaceOnUse">
<stop stop-color="#282661"/>
<stop offset="0.095" stop-color="#662E8C"/>
<stop offset="0.788" stop-color="#9E2064"/>
<stop offset="0.949" stop-color="#CC2032"/>
</linearGradient>
<linearGradient id="paint3_linear_1091_1680" x1="14.7354" y1="77.5486" x2="48.8061" y2="4.48364" gradientUnits="userSpaceOnUse">
<stop offset="0.323" stop-color="#9C2063"/>
<stop offset="0.63" stop-color="#C82037"/>
<stop offset="0.751" stop-color="#CC2135"/>
<stop offset="1" stop-color="#E87726"/>
</linearGradient>
<linearGradient id="paint4_linear_1091_1680" x1="18.2112" y1="72.6829" x2="36.1162" y2="34.2847" gradientUnits="userSpaceOnUse">
<stop stop-color="#282661"/>
<stop offset="0.095" stop-color="#662E8C"/>
<stop offset="0.788" stop-color="#9E2064"/>
<stop offset="0.949" stop-color="#CC2032"/>
</linearGradient>
<linearGradient id="paint5_linear_1091_1680" x1="22.2996" y1="81.0765" x2="56.3696" y2="8.01153" gradientUnits="userSpaceOnUse">
<stop offset="0.323" stop-color="#9C2063"/>
<stop offset="0.63" stop-color="#C82037"/>
<stop offset="0.751" stop-color="#CC2135"/>
<stop offset="1" stop-color="#E87726"/>
</linearGradient>
<linearGradient id="paint6_linear_1091_1680" x1="19.807" y1="85.4323" x2="53.8777" y2="12.3673" gradientUnits="userSpaceOnUse">
<stop offset="0.323" stop-color="#9C2063"/>
<stop offset="0.63" stop-color="#C82037"/>
<stop offset="0.751" stop-color="#CC2135"/>
<stop offset="1" stop-color="#E87726"/>
</linearGradient>
<linearGradient id="paint7_linear_1091_1680" x1="24.5451" y1="82.1236" x2="58.6152" y2="9.05865" gradientUnits="userSpaceOnUse">
<stop offset="0.323" stop-color="#9C2063"/>
<stop offset="0.63" stop-color="#C82037"/>
<stop offset="0.751" stop-color="#CC2135"/>
<stop offset="1" stop-color="#E87726"/>
</linearGradient>
<linearGradient id="paint8_linear_1091_1680" x1="24.2899" y1="82.0088" x2="58.3641" y2="8.93958" gradientUnits="userSpaceOnUse">
<stop offset="0.323" stop-color="#9C2063"/>
<stop offset="0.63" stop-color="#C82037"/>
<stop offset="0.751" stop-color="#CC2135"/>
<stop offset="1" stop-color="#E87726"/>
</linearGradient>
<clipPath id="clip0_1091_1680">
<rect width="80" height="80" fill="white"/>
</clipPath>
</defs>
</svg>
