<svg width="60" height="60" viewBox="0 0 60 60" fill="none" xmlns="http://www.w3.org/2000/svg">
<path fill-rule="evenodd" clip-rule="evenodd" d="M16.209 31.5426H18.1461L19.2418 28.3269H23.8261L24.9147 31.5412H26.8518L22.5318 19.6455H20.5361L16.209 31.5426ZM21.5176 21.6169H21.5504L23.3218 26.8427H19.7361L21.5176 21.6169ZM28.1704 31.5426H30.0176V27.4784H32.5976C34.9304 27.4784 36.5461 25.8869 36.5461 23.5612V23.5455C36.5461 21.2127 34.9318 19.6455 32.5976 19.6455H28.1704V31.5426ZM32.1361 21.2041C33.7433 21.2041 34.6661 22.0698 34.6661 23.5541V23.5698C34.6661 25.0627 33.7433 25.9269 32.1361 25.9269H30.0176V21.2041H32.1361Z" fill="white"/>
<path d="M40.0093 31.5426H38.1621V19.6455H40.0093V31.5426Z" fill="white"/>
<path fill-rule="evenodd" clip-rule="evenodd" d="M45.5952 38.1426H38.1381V42.6269H44.338C44.6222 42.6269 44.8947 42.7398 45.0957 42.9407C45.2966 43.1416 45.4095 43.4141 45.4095 43.6983V47.774C46.0239 47.9379 46.5924 48.2409 47.0709 48.6596C47.5495 49.0784 47.9253 49.6016 48.1693 50.1888C48.4133 50.776 48.519 51.4114 48.4782 52.046C48.4373 52.6806 48.2511 53.2972 47.9338 53.8483C47.5935 54.4384 47.1129 54.9355 46.5347 55.2956C45.9564 55.6556 45.2983 55.8676 44.6186 55.9126C43.9389 55.9576 43.2586 55.8343 42.6379 55.5537C42.0172 55.273 41.4753 54.8436 41.0602 54.3035C40.6451 53.7634 40.3695 53.1293 40.2579 52.4573C40.1464 51.7854 40.2022 51.0962 40.4205 50.451C40.6389 49.8057 41.0129 49.2242 41.5096 48.7581C42.0063 48.2919 42.6103 47.9554 43.268 47.7783V44.7712H37.0666C36.7825 44.7712 36.5099 44.6583 36.309 44.4574C36.1081 44.2564 35.9952 43.9839 35.9952 43.6997V38.1426H30.8395V47.774C31.8088 48.0354 32.6502 48.6398 33.2073 49.475C33.7645 50.3101 33.9994 51.3191 33.8684 52.3145C33.7374 53.3098 33.2495 54.2237 32.4953 54.8864C31.7411 55.549 30.772 55.9152 29.768 55.9169C28.7641 55.9152 27.795 55.549 27.0408 54.8864C26.2866 54.2237 25.7987 53.3098 25.6677 52.3145C25.5367 51.3191 25.7716 50.3101 26.3288 49.475C26.8859 48.6398 27.7273 48.0354 28.6966 47.774V38.1426H23.5423V43.6697C23.5423 43.9539 23.4295 44.2264 23.2285 44.4273C23.0276 44.6283 22.7551 44.7412 22.4709 44.7412H16.2695V47.7769C17.2394 48.0394 18.0807 48.6456 18.6368 49.4825C19.1929 50.3194 19.4257 51.3299 19.292 52.3257C19.1582 53.3216 18.667 54.2348 17.9098 54.8953C17.1526 55.5558 16.1811 55.9185 15.1763 55.9159C14.1716 55.9132 13.202 55.5453 12.4484 54.8808C11.6947 54.2162 11.2084 53.3004 11.0799 52.3038C10.9515 51.3073 11.1897 50.298 11.7503 49.4641C12.3108 48.6302 13.1554 48.0285 14.1266 47.7712V43.6712C14.1266 43.387 14.2395 43.1145 14.4404 42.9135C14.6414 42.7126 14.9139 42.5997 15.198 42.5997H21.398V38.1426H13.6838C11.2394 38.1073 8.8952 37.1659 7.10536 35.5008C5.31551 33.8358 4.20749 31.5655 3.996 29.1301C3.78451 26.6947 4.48461 24.2675 5.96064 22.3188C7.43667 20.3701 9.58352 19.0387 11.9852 18.5826C11.6234 15.6286 12.2911 12.6402 13.8759 10.1211C15.4606 7.60202 17.8653 5.70634 20.6848 4.7536C23.5042 3.80086 26.566 3.84933 29.3539 4.89083C32.1417 5.93234 34.4853 7.90319 35.9895 10.4712C38.2458 10.0271 40.5866 10.4445 42.5504 11.6411C44.5141 12.8377 45.9583 14.7266 46.598 16.9354C49.277 17.2456 51.7383 18.5615 53.4841 20.617C55.2299 22.6725 56.1301 25.3143 56.0025 28.0082C55.8749 30.702 54.7292 33.2469 52.7969 35.1282C50.8646 37.0096 48.2915 38.087 45.5952 38.1426ZM45.4666 35.9997H45.558C47.7163 35.9632 49.7798 35.1065 51.3292 33.6036C52.8787 32.1007 53.798 30.0644 53.9004 27.9082C54.0028 25.7521 53.2806 23.6378 51.8805 21.9948C50.4804 20.3519 48.5074 19.3035 46.3623 19.0626L44.9395 18.904L44.5409 17.5283C44.05 15.8339 42.942 14.385 41.4354 13.4673C39.9289 12.5497 38.1331 12.2299 36.4023 12.5712L34.9138 12.864L34.1438 11.5554C32.8888 9.41233 30.9332 7.76752 28.6067 6.89836C26.2803 6.02919 23.7252 5.98884 21.3725 6.78411C19.0197 7.57938 17.0132 9.16162 15.6912 11.264C14.3692 13.3665 13.8125 15.8604 14.1152 18.3254L14.3538 20.3169L12.3823 20.6883C10.4988 21.0415 8.81388 22.0823 7.65497 23.6085C6.49606 25.1347 5.94598 27.0373 6.11162 28.9464C6.27727 30.8556 7.1468 32.635 8.55125 33.9388C9.95569 35.2426 11.7947 35.9777 13.7109 36.0012H13.7738L45.4666 35.9997ZM27.7709 51.7783C27.7607 52.0471 27.8049 52.3152 27.9008 52.5666C27.9966 52.8179 28.1422 53.0473 28.3288 53.2411C28.5154 53.4349 28.7391 53.589 28.9867 53.6943C29.2342 53.7996 29.5005 53.8539 29.7695 53.8539C30.0385 53.8539 30.3047 53.7996 30.5523 53.6943C30.7998 53.589 31.0236 53.4349 31.2102 53.2411C31.3968 53.0473 31.5423 52.8179 31.6382 52.5666C31.734 52.3152 31.7782 52.0471 31.768 51.7783C31.7485 51.2613 31.5294 50.772 31.1567 50.4132C30.784 50.0544 30.2868 49.8539 29.7695 49.8539C29.2521 49.8539 28.7549 50.0544 28.3822 50.4132C28.0096 50.772 27.7905 51.2613 27.7709 51.7783ZM46.0795 52.7783C45.9532 53.0151 45.7805 53.2241 45.5718 53.3928C45.3631 53.5614 45.1225 53.6864 44.8645 53.7602C44.6065 53.8339 44.3362 53.855 44.0699 53.8222C43.8035 53.7893 43.5465 53.7032 43.3141 53.5689C43.0818 53.4347 42.8788 53.255 42.7173 53.0407C42.5558 52.8263 42.4391 52.5817 42.3742 52.3213C42.3092 52.0609 42.2974 51.7901 42.3392 51.525C42.3811 51.2599 42.476 51.006 42.618 50.7783C42.8927 50.3383 43.3274 50.0222 43.8307 49.8967C44.3339 49.7711 44.8662 49.846 45.3153 50.1055C45.7644 50.365 46.0951 50.7888 46.2377 51.2874C46.3802 51.7861 46.3235 52.3207 46.0795 52.7783ZM13.4595 52.7783C13.5874 53.0122 13.7608 53.2181 13.9694 53.384C14.178 53.5499 14.4177 53.6724 14.6744 53.7443C14.9311 53.8162 15.1995 53.8361 15.464 53.8028C15.7284 53.7695 15.9836 53.6837 16.2144 53.5504C16.4452 53.4171 16.6471 53.239 16.8081 53.0266C16.9691 52.8141 17.086 52.5717 17.1519 52.3134C17.2179 52.0551 17.2316 51.7863 17.1921 51.5227C17.1527 51.259 17.061 51.006 16.9223 50.7783C16.6506 50.3321 16.2152 50.01 15.709 49.8807C15.2029 49.7514 14.6662 49.8253 14.2139 50.0866C13.7615 50.3479 13.4293 50.7758 13.2883 51.2788C13.1474 51.7818 13.2088 52.32 13.4595 52.7783Z" fill="white"/>
<path fill-rule="evenodd" clip-rule="evenodd" d="M44.8288 19.0356L44.4046 17.567C43.9226 15.908 42.8368 14.4897 41.361 13.5915C39.8853 12.6932 38.1267 12.3802 36.4317 12.7141L34.8431 13.0256L34.0217 11.6299C32.7836 9.51489 30.854 7.89157 28.5584 7.03362C26.2627 6.17568 23.7415 6.1356 21.4197 6.92014C19.098 7.70469 17.1178 9.26586 15.813 11.3404C14.5083 13.415 13.9589 15.876 14.2574 18.3084L14.5131 20.4327L12.4088 20.8284C10.5612 21.1762 8.90867 22.1983 7.77228 23.6961C6.63589 25.1939 6.09671 27.0606 6.25944 28.9337C6.42218 30.8068 7.27522 32.5525 8.6529 33.8319C10.0306 35.1113 11.8346 35.8331 13.7146 35.857H45.5574C47.6801 35.8219 49.7097 34.9799 51.2338 33.5021C52.758 32.0243 53.6622 30.0217 53.7628 27.9011C53.8634 25.7805 53.1528 23.7013 51.7754 22.0858C50.398 20.4704 48.4572 19.44 46.3474 19.2041L44.8288 19.0356ZM45.4688 36.0013L45.5588 35.9999C47.7171 35.9633 49.7806 35.1066 51.33 33.6037C52.8795 32.1008 53.7988 30.0645 53.9012 27.9083C54.0036 25.7522 53.2814 23.6379 51.8813 21.995C50.4812 20.352 48.5082 19.3036 46.3631 19.0627L44.9403 18.9041L44.5417 17.5284C44.0508 15.834 42.9428 14.3851 41.4362 13.4675C39.9296 12.5498 38.1339 12.2301 36.4031 12.5713L34.9146 12.8641L34.1446 11.5556C32.8896 9.41246 30.934 7.76765 28.6075 6.89849C26.2811 6.02932 23.726 5.98897 21.3733 6.78424C19.0205 7.57951 17.014 9.16175 15.692 11.2642C14.3699 13.3666 13.8133 15.8606 14.116 18.3256L14.3546 20.317L12.3831 20.6884C10.4996 21.0416 8.81466 22.0824 7.65576 23.6086C6.49685 25.1348 5.94677 27.0374 6.11241 28.9466C6.27805 30.8557 7.14759 32.6351 8.55203 33.9389C9.95648 35.2427 11.7955 35.9778 13.7117 36.0013H13.7746H45.4688ZM13.6831 38.1441C11.2364 38.112 8.88889 37.1719 7.09633 35.5063C5.30376 33.8407 4.19402 31.5684 3.98254 29.1307C3.77105 26.6929 4.47291 24.2635 5.95186 22.3141C7.43081 20.3647 9.58134 19.0343 11.986 18.5813C11.6242 15.6273 12.2919 12.6389 13.8766 10.1198C15.4614 7.60072 17.8661 5.70504 20.6856 4.7523C23.505 3.79956 26.5668 3.84803 29.3546 4.88954C32.1425 5.93104 34.4861 7.90189 35.9903 10.4699C38.2466 10.0258 40.5874 10.4432 42.5512 11.6398C44.5149 12.8364 45.9591 14.7253 46.5988 16.9341C49.2778 17.2443 51.7391 18.5602 53.4849 20.6157C55.2307 22.6712 56.1309 25.313 56.0033 28.0069C55.8757 30.7007 54.73 33.2456 52.7977 35.1269C50.8654 37.0083 48.2909 38.0857 45.5946 38.1413V38.1441H38.1374V42.627H44.3374C44.6216 42.627 44.8941 42.7399 45.095 42.9408C45.296 43.1418 45.4088 43.4143 45.4088 43.6984V47.7742C46.0232 47.938 46.5917 48.2411 47.0703 48.6598C47.5488 49.0785 47.9247 49.6017 48.1687 50.1889C48.4127 50.7761 48.5184 51.4116 48.4775 52.0461C48.4367 52.6807 48.2504 53.2974 47.9331 53.8484C47.5928 54.4385 47.1123 54.9356 46.534 55.2957C45.9558 55.6558 45.2977 55.8677 44.618 55.9127C43.9383 55.9577 43.258 55.8344 42.6373 55.5538C42.0166 55.2731 41.4747 54.8437 41.0596 54.3036C40.6444 53.7636 40.3689 53.1295 40.2573 52.4575C40.1457 51.7855 40.2016 51.0963 40.4199 50.4511C40.6382 49.8058 41.0123 49.2244 41.509 48.7582C42.0057 48.292 42.6096 47.9555 43.2674 47.7784V44.7713H37.066C36.7818 44.7713 36.5093 44.6584 36.3084 44.4575C36.1074 44.2565 35.9946 43.984 35.9946 43.6999V38.1427H30.8388V47.7742C31.8081 48.0355 32.6496 48.6399 33.2067 49.4751C33.7638 50.3102 33.9987 51.3193 33.8678 52.3146C33.7368 53.3099 33.2489 54.2239 32.4947 54.8865C31.7405 55.5491 30.7713 55.9153 29.7674 55.917C28.7635 55.9153 27.7943 55.5491 27.0402 54.8865C26.286 54.2239 25.798 53.3099 25.6671 52.3146C25.5361 51.3193 25.771 50.3102 26.3281 49.4751C26.8853 48.6399 27.7267 48.0355 28.696 47.7742V38.1427H23.5431V43.6699C23.5431 43.954 23.4302 44.2265 23.2293 44.4275C23.0284 44.6284 22.7559 44.7413 22.4717 44.7413H16.2703V47.777C17.2401 48.0395 18.0815 48.6457 18.6376 49.4826C19.1936 50.3195 19.4265 51.33 19.2927 52.3258C19.159 53.3217 18.6678 54.2349 17.9106 54.8955C17.1534 55.556 16.1819 55.9187 15.1771 55.916C14.1723 55.9133 13.2028 55.5454 12.4492 54.8809C11.6955 54.2164 11.2092 53.3005 11.0807 52.3039C10.9523 51.3074 11.1905 50.2982 11.751 49.4643C12.3116 48.6303 13.1561 48.0286 14.1274 47.7713V43.6713C14.1274 43.3871 14.2403 43.1146 14.4412 42.9137C14.6422 42.7127 14.9147 42.5999 15.1988 42.5999H21.3988V38.1427L13.6831 38.1441ZM21.2574 38.287H13.6803C11.2102 38.2533 8.83991 37.3076 7.02519 35.6316C5.21047 33.9556 4.07956 31.6678 3.84998 29.2082C3.62041 26.7487 4.30839 24.2911 5.78159 22.3082C7.25478 20.3253 9.40915 18.9572 11.8303 18.467C11.497 15.4968 12.1911 12.5021 13.7968 9.98134C15.4026 7.46054 17.8232 5.56569 20.6559 4.61219C23.4885 3.65869 26.5622 3.70404 29.3655 4.7407C32.1687 5.77735 34.5324 7.74279 36.0631 10.3099C38.3258 9.88982 40.664 10.3201 42.6289 11.5181C44.5939 12.7161 46.0473 14.5975 46.7103 16.8013C49.4064 17.1322 51.8783 18.4684 53.6319 20.543C55.3855 22.6175 56.2914 25.2774 56.1687 27.991C56.046 30.7046 54.9036 33.2719 52.97 35.1797C51.0363 37.0875 48.4538 38.1951 45.7388 38.2813V38.287H38.2817V42.4841H44.3388C45.0103 42.4841 45.5531 43.027 45.5531 43.6984V47.6656C46.5419 47.9552 47.3933 48.5913 47.9513 49.4575C48.5093 50.3237 48.7366 51.3619 48.5915 52.382C48.4464 53.4021 47.9387 54.3358 47.1613 55.012C46.3839 55.6882 45.3889 56.0618 44.3586 56.0642C43.3282 56.0666 42.3315 55.6978 41.5509 55.0252C40.7704 54.3526 40.2583 53.4213 40.1084 52.402C39.9585 51.3826 40.1809 50.3433 40.7348 49.4745C41.2887 48.6057 42.1371 47.9655 43.1246 47.6713V44.9127H37.0674C36.7454 44.9127 36.4365 44.7848 36.2088 44.5571C35.9811 44.3293 35.8531 44.0205 35.8531 43.6984V38.2856H30.9831V47.6656C31.9713 47.9575 32.8211 48.5957 33.3771 49.4632C33.9331 50.3306 34.1579 51.3694 34.0104 52.3891C33.8629 53.4089 33.353 54.3413 32.574 55.0158C31.7951 55.6902 30.7992 56.0614 29.7688 56.0614C28.7385 56.0614 27.7426 55.6902 26.9636 55.0158C26.1847 54.3413 25.6747 53.4089 25.5273 52.3891C25.3798 51.3694 25.6046 50.3306 26.1606 49.4632C26.7165 48.5957 27.5664 47.9575 28.5546 47.6656V38.2856H23.686V43.6699C23.686 44.3399 23.1431 44.8841 22.4717 44.8841H16.4131V47.6699C17.4006 47.9641 18.2489 48.6043 18.8029 49.4731C19.3568 50.3419 19.5792 51.3811 19.4293 52.4005C19.2794 53.4199 18.7673 54.3512 17.9867 55.0238C17.2062 55.6964 16.2094 56.0652 15.1791 56.0628C14.1487 56.0604 13.1537 55.6868 12.3764 55.0106C11.599 54.3343 11.0912 53.4007 10.9462 52.3806C10.8011 51.3605 11.0283 50.3223 11.5863 49.4561C12.1444 48.5899 12.9957 47.9538 13.9846 47.6642V43.6713C13.9846 42.9999 14.5274 42.457 15.1988 42.457H21.256L21.2574 38.287ZM16.0046 31.6856L20.436 19.5027H22.6317L27.0546 31.6856H24.8117L23.7231 28.4699H19.3446L18.2474 31.6841L16.0046 31.6856ZM19.2417 28.327H23.826L24.9146 31.5413H26.8517L22.5317 19.6456H20.536L16.2074 31.5427H18.146L19.2417 28.327ZM28.0274 31.6841V19.5027H32.5974C33.7974 19.5027 34.8217 19.907 35.5474 20.6184C36.2731 21.3327 36.6903 22.3456 36.6903 23.5456V23.5613C36.6903 24.7584 36.2731 25.7756 35.5474 26.4927C34.8217 27.2113 33.7974 27.6213 32.5974 27.6213H30.1603V31.6856L28.0274 31.6841ZM30.0174 31.5413H28.1703V19.6456H32.5974C34.9303 19.6456 36.546 21.2127 36.546 23.5456V23.5613C36.546 25.887 34.9317 27.4784 32.5974 27.4784H30.0174V31.5413ZM40.1517 31.6841H38.0188V19.5027H40.1517V31.6841ZM27.9131 51.777C27.9062 52.0251 27.9492 52.2721 28.0394 52.5034C28.1296 52.7346 28.2652 52.9454 28.4383 53.1234C28.6113 53.3013 28.8183 53.4427 29.047 53.5393C29.2756 53.6359 29.5213 53.6856 29.7696 53.6856C30.0178 53.6856 30.2635 53.6359 30.4921 53.5393C30.7208 53.4427 30.9278 53.3013 31.1008 53.1234C31.2739 52.9454 31.4095 52.7346 31.4997 52.5034C31.5899 52.2721 31.6329 52.0251 31.626 51.777C31.6126 51.2936 31.4111 50.8344 31.0644 50.4972C30.7177 50.16 30.2532 49.9714 29.7696 49.9714C29.2859 49.9714 28.8214 50.16 28.4747 50.4972C28.128 50.8344 27.9265 51.2936 27.9131 51.777ZM43.4203 53.3841C43.6317 53.5159 43.8674 53.6037 44.1135 53.6425C44.3595 53.6812 44.6109 53.6701 44.8525 53.6097C45.0942 53.5493 45.3213 53.441 45.5202 53.291C45.7191 53.1411 45.8858 52.9527 46.0104 52.737C46.1351 52.5214 46.215 52.2828 46.2455 52.0356C46.2761 51.7884 46.2566 51.5376 46.1882 51.298C46.1198 51.0585 46.0039 50.8352 45.8474 50.6414C45.691 50.4476 45.4971 50.2872 45.2774 50.1699C44.8524 49.9428 44.3558 49.8899 43.8925 50.0222C43.4292 50.1545 43.0354 50.4617 42.7944 50.8789C42.5533 51.2961 42.4839 51.7906 42.6006 52.2581C42.7174 52.7256 43.0113 53.1293 43.4203 53.3841ZM13.5831 52.7056C13.7005 52.9253 13.8608 53.1191 14.0547 53.2756C14.2485 53.4321 14.4718 53.5479 14.7113 53.6163C14.9508 53.6847 15.2017 53.7042 15.4489 53.6737C15.6961 53.6432 15.9346 53.5632 16.1503 53.4386C16.366 53.314 16.5544 53.1473 16.7043 52.9483C16.8542 52.7494 16.9626 52.5224 17.023 52.2807C17.0834 52.039 17.0945 51.7877 17.0557 51.5416C17.017 51.2956 16.9291 51.0598 16.7974 50.8484C16.5426 50.4395 16.1388 50.1456 15.6714 50.0288C15.2039 49.912 14.7093 49.9815 14.2921 50.2225C13.8749 50.4636 13.5677 50.8573 13.4354 51.3207C13.3031 51.784 13.3561 52.2806 13.5831 52.7056ZM23.3231 26.8427H19.7374L21.5174 21.617H21.5503L23.3231 26.8427ZM21.5331 22.0113L19.936 26.6999H23.1231L21.5331 22.0113ZM33.906 21.927C33.5088 21.5556 32.9146 21.347 32.1346 21.347H30.1603V25.7856H32.136C32.9146 25.7856 33.5074 25.5756 33.9074 25.2041C34.3031 24.8341 34.5231 24.2856 34.5231 23.5699V23.5541C34.5231 22.8427 34.3031 22.297 33.906 21.927ZM29.7688 53.777C29.5018 53.7841 29.236 53.7377 28.9872 53.6404C28.7384 53.5432 28.5116 53.3971 28.3202 53.2107C28.1288 53.0243 27.9767 52.8015 27.8728 52.5554C27.7689 52.3093 27.7154 52.0449 27.7154 51.7777C27.7154 51.5106 27.7689 51.2461 27.8728 51C27.9767 50.7539 28.1288 50.5311 28.3202 50.3447C28.5116 50.1584 28.7384 50.0122 28.9872 49.915C29.236 49.8177 29.5018 49.7713 29.7688 49.7784C30.2898 49.7924 30.7848 50.0091 31.1484 50.3825C31.5119 50.7559 31.7154 51.2565 31.7154 51.7777C31.7154 52.2989 31.5119 52.7995 31.1484 53.1729C30.7848 53.5463 30.2898 53.7631 29.7688 53.777ZM43.3488 53.5084C43.5765 53.6505 43.8304 53.7453 44.0955 53.7872C44.3606 53.8291 44.6314 53.8172 44.8918 53.7523C45.1522 53.6873 45.3968 53.5706 45.6112 53.4092C45.8255 53.2477 46.0052 53.0447 46.1395 52.8123C46.2737 52.58 46.3598 52.3229 46.3927 52.0566C46.4256 51.7902 46.4045 51.52 46.3307 51.262C46.2569 51.0039 46.132 50.7634 45.9633 50.5547C45.7946 50.3459 45.5856 50.1733 45.3488 50.047C44.8912 49.803 44.3566 49.7462 43.858 49.8888C43.3593 50.0314 42.9355 50.3621 42.676 50.8112C42.4165 51.2603 42.3417 51.7926 42.4672 52.2958C42.5927 52.799 42.9088 53.2338 43.3488 53.5084ZM16.1903 53.5084C15.9626 53.6505 15.7087 53.7453 15.4436 53.7872C15.1785 53.8291 14.9077 53.8172 14.6473 53.7523C14.3869 53.6873 14.1423 53.5706 13.9279 53.4092C13.7136 53.2477 13.5339 53.0447 13.3996 52.8123C13.2654 52.58 13.1793 52.3229 13.1464 52.0566C13.1136 51.7902 13.1346 51.52 13.2084 51.262C13.2822 51.0039 13.4071 50.7634 13.5758 50.5547C13.7445 50.3459 13.9535 50.1733 14.1903 50.047C14.6479 49.803 15.1825 49.7462 15.6811 49.8888C16.1798 50.0314 16.6036 50.3621 16.8631 50.8112C17.1226 51.2603 17.1974 51.7926 17.0719 52.2958C16.9464 52.799 16.6303 53.2338 16.1903 53.5084ZM34.666 23.5541C34.666 22.0684 33.7431 21.2041 32.136 21.2041H30.0174V25.9284H32.136C33.7431 25.9284 34.666 25.0627 34.666 23.5713V23.5541ZM38.1617 31.5427V19.6456H40.0088V31.5427H38.1617Z" fill="white"/>
</svg>
