<svg width="80" height="80" viewBox="0 0 80 80" fill="none" xmlns="http://www.w3.org/2000/svg">
<g clip-path="url(#clip0_1142_1755)">
<path d="M39.2275 18.2887L41.536 18.2904C51.528 18.3202 59.1502 18.6365 64.0017 18.9309L64.5424 18.9643C69.6736 19.2826 73.9298 22.8625 75.1231 27.8744L75.3025 28.6399C76.2593 32.7473 77.5101 38.5378 78.3702 44.3303L78.539 45.4754C79.1232 49.5262 79.6022 54.2706 79.9759 59.5766C80.1747 62.719 79.1405 65.7421 77.0324 68.0889C74.9242 70.4357 72.0205 71.7882 68.8781 71.9473L66.8738 72.0368C60.0941 72.3311 50.5729 72.6538 40.4471 72.663L38.6611 72.6614C28.8694 72.6348 19.7065 72.3224 13.1262 72.0368L11.1219 71.9473C7.93976 71.8279 5.07582 70.4357 2.96764 68.0889C0.859459 65.7421 -0.174742 62.719 0.0241428 59.5766L0.0996763 58.5255C0.456698 53.6573 0.878435 49.3087 1.41818 45.5064L1.53567 44.7C2.45054 38.4153 3.84273 32.0907 4.83716 27.8744C6.01763 22.9164 10.1954 19.3208 15.2911 18.9745L16.9527 18.8748C21.9558 18.5901 29.4997 18.3032 39.2275 18.2887ZM40.8013 23.7382H39.2756C28.6404 23.7542 20.6721 24.103 15.8156 24.4138C13.071 24.6127 10.8435 26.4822 10.207 29.1472L9.96194 30.1691C8.99929 34.2302 7.7902 39.8966 6.98511 45.4956L6.86764 46.2726C6.28948 50.2017 5.84898 54.7885 5.51336 59.9346C5.39403 61.6053 5.95091 63.1963 7.06467 64.4294C8.17842 65.6625 9.68995 66.3785 11.3606 66.458L13.9893 66.5752C20.6704 66.8616 29.8121 67.1647 39.5501 67.1738L41.347 67.1722C52.0912 67.1423 62.0333 66.7635 68.6394 66.458C70.3101 66.3785 71.8216 65.6625 72.9353 64.4294C74.0093 63.1963 74.5662 61.6053 74.5662 59.9346L74.4907 58.9129C74.1083 53.8418 73.6538 49.3365 73.0944 45.4956C72.1796 39.4097 70.8272 33.2443 69.8725 29.1472C69.2361 26.4822 66.9688 24.5729 64.264 24.4138L62.7912 24.3243C57.8589 24.0396 50.3917 23.7527 40.8013 23.7382ZM48.8703 50.9848C48.8703 55.8774 44.8926 59.8551 40 59.8551C35.117 59.8551 31.1696 55.9175 31.0911 51.1301L31.09 50.9848H48.8703ZM20.1115 39.9666C23.1324 39.9666 25.5341 42.3657 25.5994 45.3319L25.6007 45.4558H14.6223C14.6223 42.4328 17.0885 39.9666 20.1115 39.9666ZM59.8885 39.9666C62.9094 39.9666 65.3111 42.3657 65.3764 45.3319L65.3777 45.4558H54.3993C54.3993 42.4328 56.8654 39.9666 59.8885 39.9666ZM40 7.03125C41.9093 7.03125 43.4208 8.58255 43.4208 10.4521C43.4208 12.3216 41.8695 13.8331 40 13.8331C38.1305 13.8331 36.5792 12.2818 36.5792 10.4521C36.5792 8.54277 38.1305 7.03125 40 7.03125Z" fill="#683D87"/>
</g>
<defs>
<clipPath id="clip0_1142_1755">
<rect width="80" height="80" fill="white"/>
</clipPath>
</defs>
</svg>
