<svg width="80" height="80" viewBox="0 0 80 80" fill="none" xmlns="http://www.w3.org/2000/svg">
<g clip-path="url(#clip0_28_11794)">
<path d="M8.82565 16.5099C8.67542 12.1873 12.0525 8.2002 16.6166 8.2002H63.3898C67.9539 8.2002 71.3309 12.1873 71.1807 16.5099C71.0347 20.6636 71.223 26.0437 72.5815 30.4296C73.9399 34.8156 76.2399 37.6058 80 37.9689V42.0213C76.2399 42.378 73.942 45.1599 72.5815 49.5606C71.2209 53.9613 71.0368 59.3266 71.1807 63.4909C71.3309 67.8135 67.9539 71.8005 63.3898 71.8005H16.6166C12.0525 71.8005 8.67542 67.8135 8.82565 63.4909C8.96953 59.3371 8.78121 53.9571 7.42488 49.5606C6.06856 45.1641 3.76217 42.3844 0 42.0213V37.9689C3.76005 37.6122 6.06221 34.8303 7.42488 30.4296C8.78756 26.0289 8.96953 20.6636 8.82565 16.5099Z" fill="url(#paint0_linear_28_11794)"/>
<path d="M41.7347 56.8987C49.1257 56.8987 53.584 53.2895 53.584 47.3353C53.584 42.8354 50.4101 39.5766 45.6894 39.0616V38.8737C49.1553 38.3102 51.8764 35.0999 51.8764 31.5139C51.8764 26.404 47.8329 23.0713 41.6691 23.0713H27.7969V56.8987H41.7347ZM33.1883 27.3665H40.3614C44.2611 27.3665 46.4765 29.1014 46.4765 32.2421C46.4765 35.5938 43.9014 37.468 39.2315 37.468H33.1883V27.3665ZM33.1883 52.6099V41.4719H40.3127C45.4164 41.4719 48.0635 43.3462 48.0635 47.004C48.0635 50.6617 45.4905 52.6099 40.6344 52.6099H33.1883Z" fill="url(#paint1_linear_28_11794)" stroke="white"/>
</g>
<defs>
<linearGradient id="paint0_linear_28_11794" x1="8.05544" y1="14.6989" x2="77.8267" y2="70.2213" gradientUnits="userSpaceOnUse">
<stop stop-color="#9013FE"/>
<stop offset="1" stop-color="#6610F2"/>
</linearGradient>
<linearGradient id="paint1_linear_28_11794" x1="29.5531" y1="25.7054" x2="45.1214" y2="52.0995" gradientUnits="userSpaceOnUse">
<stop stop-color="white"/>
<stop offset="1" stop-color="#F1E5FC"/>
</linearGradient>
<clipPath id="clip0_28_11794">
<rect width="80" height="80" fill="white"/>
</clipPath>
</defs>
</svg>
