<svg width="60" height="60" viewBox="0 0 60 60" fill="none" xmlns="http://www.w3.org/2000/svg">
<g clip-path="url(#clip0_1203_2327)">
<path d="M44.5732 57.9697V40.6859L47.1214 31.7015C47.326 30.9791 47.4883 30.2453 47.6072 29.5039C47.64 29.2972 47.5895 29.0858 47.4666 28.9163C47.3437 28.7468 47.1586 28.633 46.9519 28.5999C46.7451 28.567 46.5337 28.6175 46.3641 28.7404C46.1945 28.8633 46.0807 29.0485 46.0475 29.2552C45.9385 29.9354 45.7897 30.6086 45.6019 31.2713L42.994 40.4664V57.9698C42.994 58.4058 43.3472 58.7594 43.7836 58.7594C44.2196 58.7594 44.5732 58.4058 44.5732 57.9698V57.9697ZM37.5973 42.0414C37.4379 41.9055 37.2311 41.8385 37.0223 41.8551C36.8135 41.8717 36.6199 41.9705 36.484 42.1298L31.699 47.7418H26.0099C26.0057 47.7418 26.002 47.7414 25.9986 47.7414C25.9944 47.7414 25.9908 47.7418 25.9867 47.7418H15.7325C14.4438 47.7418 13.395 46.6927 13.395 45.4033V36.525L10.1441 35.7534C9.97592 35.7143 9.81961 35.6353 9.68837 35.5231C9.55712 35.4109 9.4548 35.2688 9.39004 35.1087C9.32346 34.9497 9.29616 34.7769 9.31045 34.6051C9.32475 34.4333 9.38021 34.2675 9.47216 34.1217L12.1581 29.7964C12.2686 29.6184 12.3038 29.4039 12.2561 29.2C12.2084 28.9961 12.0817 28.8195 11.9037 28.7091C11.7258 28.5986 11.5112 28.5633 11.3073 28.6109C11.1033 28.6585 10.9265 28.7852 10.8159 28.9631L8.13049 33.2884C7.67252 34.0251 7.59948 34.9077 7.92954 35.7097C8.25959 36.5121 8.93299 37.0878 9.77813 37.29L11.8158 37.7736V45.4034C11.8158 47.5635 13.573 49.3211 15.7325 49.3211H25.2088V57.9702C25.2088 58.4062 25.5619 58.7598 25.9984 58.7598C26.4343 58.7598 26.788 58.4062 26.788 57.9702V49.321H32.4272L37.6856 43.1549C37.8214 42.9954 37.8884 42.7886 37.8718 42.5798C37.8552 42.3711 37.7564 42.1774 37.5972 42.0414H37.5973ZM9.52585 17.7277C9.37682 18.722 9.29967 19.7259 9.29503 20.7313C9.294 20.8472 9.31606 20.9621 9.35992 21.0693C9.40378 21.1765 9.46855 21.274 9.55046 21.3559C9.63205 21.4383 9.7292 21.5036 9.83626 21.5481C9.94333 21.5926 10.0582 21.6154 10.1741 21.6151H23.1624C23.5983 21.6151 23.952 21.2619 23.952 20.8255C23.952 17.4912 26.6647 14.778 29.9995 14.778C33.3337 14.778 36.0469 17.4912 36.0469 20.8254C36.0469 21.2619 36.4007 21.615 36.8365 21.615H49.8243C50.0603 21.615 50.2819 21.5229 50.448 21.3559C50.53 21.2741 50.5949 21.1768 50.6388 21.0697C50.6828 20.9625 50.7049 20.8477 50.7039 20.7318C50.6998 19.7266 50.6232 18.7229 50.4747 17.7287C50.4516 17.5708 50.3858 17.4221 50.2845 17.2989C50.1831 17.1756 50.05 17.0823 49.8995 17.0291L46.3139 15.7542C46.0051 14.7614 45.606 13.799 45.1217 12.879L46.7543 9.44249C46.8229 9.29872 46.8511 9.13901 46.8359 8.98046C46.8207 8.8219 46.7627 8.67046 46.668 8.54234C45.4337 6.86944 43.955 5.39147 42.2815 4.15794C42.1535 4.06358 42.0024 4.00575 41.8441 3.99061C41.6859 3.97548 41.5265 4.00361 41.3829 4.072L37.9468 5.70477C37.0272 5.22024 36.0652 4.821 35.0727 4.51207L33.7969 0.925431C33.7437 0.775674 33.6508 0.643193 33.5281 0.542136C33.4054 0.441079 33.2576 0.375241 33.1004 0.351653C31.0683 0.0448918 28.935 0.0448918 26.9008 0.351653C26.7434 0.375428 26.5953 0.441507 26.4725 0.542837C26.3496 0.644168 26.2566 0.776949 26.2033 0.927011L24.9284 4.51207C23.9354 4.82125 22.9728 5.22065 22.0526 5.7053L18.6172 4.07253C18.4735 4.00372 18.3137 3.9754 18.1551 3.99064C17.9965 4.00587 17.8451 4.06408 17.7171 4.15899C16.0448 5.39184 14.5674 6.86897 13.3341 8.54089C13.2389 8.66899 13.1804 8.82062 13.1649 8.97948C13.1494 9.13834 13.1775 9.29841 13.2462 9.44249L14.8794 12.879C14.3953 13.7993 13.9958 14.7616 13.6857 15.7542L10.1012 17.0291C9.95084 17.0822 9.81781 17.1753 9.71644 17.2984C9.61508 17.4215 9.54909 17.5699 9.52585 17.7277ZM29.9994 13.1988C26.0605 13.1988 22.8096 16.1999 22.4132 20.0358H20.9019C21.3599 15.4247 25.2829 11.7959 29.9988 11.7959C34.7159 11.7959 38.6397 15.4247 39.0977 20.0358H37.5853C37.1891 16.1999 33.9382 13.1988 29.9994 13.1988ZM11.0304 18.3744L14.5487 17.1231C14.6801 17.0762 14.7985 16.9987 14.8942 16.8971C14.9899 16.7955 15.0602 16.6727 15.0991 16.5387C15.4222 15.4203 15.8698 14.3417 16.4336 13.3231C16.5008 13.2011 16.5381 13.0649 16.5423 12.9256C16.5466 12.7863 16.5176 12.6481 16.4579 12.5222L14.8545 9.14744C15.8568 7.84789 17.0222 6.68269 18.3219 5.68056L21.6961 7.28398C21.8223 7.34381 21.9609 7.37272 22.1004 7.36833C22.24 7.36393 22.3765 7.32636 22.4986 7.25871C23.5167 6.69482 24.5949 6.24741 25.7131 5.92494C25.847 5.88625 25.9698 5.8163 26.0713 5.72084C26.1728 5.62538 26.2502 5.50715 26.297 5.3759L27.5493 1.85558C29.177 1.64893 30.8243 1.64893 32.452 1.85558L33.7048 5.37787C33.752 5.50863 33.8294 5.62636 33.9308 5.72145C34.0322 5.81653 34.1547 5.88626 34.2882 5.92494C35.4068 6.24775 36.4873 6.69651 37.4995 7.25832C37.6218 7.32605 37.7585 7.36372 37.8982 7.36821C38.0379 7.37269 38.1767 7.34387 38.3031 7.28411L41.6779 5.68016C42.9777 6.68274 44.1433 7.84807 45.1463 9.14757L43.5424 12.5227C43.4828 12.6487 43.454 12.787 43.4584 12.9262C43.4627 13.0655 43.5001 13.2017 43.5675 13.3237C44.1309 14.3414 44.5778 15.4193 44.9 16.5371C44.9384 16.6714 45.0083 16.7946 45.1038 16.8964C45.1994 16.9983 45.3179 17.0759 45.4495 17.1227L48.9704 18.3744C49.0406 18.9259 49.0871 19.4803 49.1097 20.0358H40.6836C40.4724 17.4928 39.3754 15.1301 37.5427 13.3169C35.522 11.3179 32.8432 10.2162 29.9994 10.2162C27.1565 10.2162 24.4783 11.3178 22.4575 13.3169C20.6249 15.1307 19.5284 17.4926 19.3165 20.0358H10.8907C10.9128 19.4822 10.96 18.9264 11.0304 18.3744Z" fill="#008080"/>
<path d="M5.43682 30.0661C5.56087 30.1621 5.70946 30.2213 5.86557 30.2367C6.02168 30.2522 6.17899 30.2233 6.31946 30.1535C6.46043 30.0847 6.57915 29.9775 6.66197 29.8443C6.74479 29.7111 6.78837 29.5572 6.7877 29.4003V27.7909H28.0201C28.2427 27.7906 28.4561 27.702 28.6134 27.5446C28.7708 27.3872 28.8593 27.1738 28.8596 26.9513V20.8252C28.8596 20.3894 28.5059 20.0356 28.07 20.0356C27.6341 20.0356 27.2804 20.3894 27.2804 20.8252V26.2117H6.04797C5.82537 26.2118 5.61192 26.3003 5.45452 26.4577C5.29712 26.6151 5.20863 26.8285 5.20849 27.0511V27.9004L2.05468 25.4796L5.20849 23.0594V23.9338C5.20849 24.397 5.58487 24.7734 6.04797 24.7734H24.047C24.4828 24.7734 24.8366 24.4197 24.8366 23.9838C24.8366 23.5479 24.4828 23.1942 24.047 23.1942H6.7877V21.5593C6.7877 21.237 6.60832 20.9487 6.31946 20.8063C6.17911 20.7364 6.02189 20.7074 5.86584 20.7228C5.70979 20.7381 5.56123 20.7972 5.43721 20.8932L0.329001 24.8134C0.122915 24.9713 0 25.22 0 25.4796C0 25.7391 0.122915 25.9886 0.328475 26.1459L5.43682 30.0661ZM59.6717 24.8139L54.5633 20.8935C54.4393 20.7975 54.2907 20.7383 54.1346 20.7228C53.9785 20.7073 53.8212 20.736 53.6807 20.8058C53.5398 20.8746 53.4211 20.9818 53.3383 21.115C53.2555 21.2481 53.2118 21.402 53.2124 21.5588V23.1941H35.9531C35.5168 23.1941 35.1635 23.5473 35.1635 23.9837C35.1635 24.4197 35.5168 24.7733 35.9531 24.7733H53.9522C54.1747 24.773 54.3881 24.6844 54.5454 24.527C54.7028 24.3697 54.7913 24.1563 54.7916 23.9338V23.0594L57.9453 25.4796L54.7916 27.8998V27.051C54.7914 26.8284 54.7028 26.6151 54.5454 26.4577C54.388 26.3004 54.1746 26.2119 53.952 26.2117H32.7196V20.8252C32.7196 20.3889 32.366 20.0356 31.93 20.0356C31.494 20.0356 31.1404 20.3889 31.1404 20.8252V26.9513C31.1406 27.1739 31.2291 27.3873 31.3865 27.5447C31.5439 27.7021 31.7574 27.7907 31.98 27.7909H53.2124V29.4003C53.2118 29.5571 53.2554 29.7109 53.3382 29.8441C53.4211 29.9772 53.5397 30.0843 53.6807 30.1531C53.7964 30.2104 53.9237 30.2403 54.0528 30.2403C54.2338 30.2403 54.4128 30.1811 54.5628 30.0661L59.6727 26.1448C59.8772 25.9869 60.0001 25.7382 60.0001 25.4796C60.0001 25.221 59.8772 24.9722 59.6717 24.8139Z" fill="#008080"/>
</g>
<defs>
<clipPath id="clip0_1203_2327">
<rect width="60" height="60" fill="white"/>
</clipPath>
</defs>
</svg>
