<svg width="60" height="60" viewBox="0 0 60 60" fill="none" xmlns="http://www.w3.org/2000/svg">
<path fill-rule="evenodd" clip-rule="evenodd" d="M51.2122 47.625H50.6872C58.8322 38.0512 59.4003 23.8387 51.7503 13.6875C51.6006 13.4888 51.3782 13.3577 51.1319 13.3231C50.8855 13.2885 50.6356 13.3531 50.4369 13.5028C50.2382 13.6525 50.1072 13.8749 50.0725 14.1213C50.0379 14.3676 50.1025 14.6176 50.2522 14.8162C57.7053 24.705 56.7772 38.7356 48.1522 47.6231H44.1959V43.6181C51.5835 35.9193 51.4991 23.6568 43.9222 16.0781C36.7597 8.91559 25.4028 8.44309 17.6797 14.6512V11.4375C17.6797 11.1888 17.5809 10.9504 17.4051 10.7746C17.2293 10.5987 16.9908 10.5 16.7422 10.5H13.8603C22.7666 3.13497 35.8353 2.69809 45.1878 9.74622C45.3871 9.87908 45.6296 9.93066 45.8656 9.89039C46.1017 9.85012 46.3134 9.72104 46.4573 9.52964C46.6012 9.33825 46.6664 9.09903 46.6395 8.86108C46.6127 8.62312 46.4958 8.40447 46.3128 8.24997C35.6872 0.24372 20.616 1.23934 11.0741 10.5H8.78658C8.53794 10.5 8.29948 10.5987 8.12366 10.7746C7.94785 10.9504 7.84908 11.1888 7.84908 11.4375C7.84908 11.6861 7.94785 11.9246 8.12366 12.1004C8.29948 12.2762 8.53794 12.375 8.78658 12.375H9.32658C0.221576 23.0475 0.688451 39.1406 10.7741 49.2281C13.2976 51.7536 16.2951 53.7558 19.5945 55.1198C22.8938 56.4838 26.4301 57.1826 30.0003 57.1762C36.8366 57.1762 43.6616 54.6056 48.9247 49.4981H51.2122C51.4608 49.4981 51.6993 49.3993 51.8751 49.2235C52.0509 49.0477 52.1497 48.8092 52.1497 48.5606C52.1497 48.312 52.0509 48.0735 51.8751 47.8977C51.6993 47.7219 51.4608 47.625 51.2122 47.625ZM30.0003 12.1931C34.5622 12.1931 39.1222 13.9312 42.5966 17.4018C48.9491 23.7581 49.4722 33.7518 44.1959 40.7268V40.605C44.1959 40.3563 44.0972 40.1179 43.9214 39.9421C43.7455 39.7662 43.5071 39.6675 43.2584 39.6675C43.0098 39.6675 42.7714 39.7662 42.5955 39.9421C42.4197 40.1179 42.3209 40.3563 42.3209 40.605V42.8419C40.1802 44.9014 37.555 46.3885 34.6878 47.1656V39.9656C36.38 39.102 37.8008 37.7878 38.7934 36.1679C39.786 34.548 40.3118 32.6854 40.3128 30.7856C40.3083 28.7791 39.7216 26.8169 38.624 25.1372C37.5264 23.4575 35.9649 22.1323 34.1291 21.3225C33.9864 21.2595 33.8303 21.233 33.6749 21.2456C33.5194 21.2582 33.3695 21.3093 33.2389 21.3944C33.1082 21.4795 33.0007 21.5958 32.9264 21.7329C32.852 21.8699 32.8129 22.0234 32.8128 22.1793V31.7231H27.1878V22.1793C27.1877 22.0234 27.1487 21.8699 27.0743 21.7329C26.9999 21.5958 26.8925 21.4795 26.7618 21.3944C26.6311 21.3093 26.4812 21.2582 26.3258 21.2456C26.1704 21.233 26.0142 21.2595 25.8716 21.3225C24.0354 22.1325 22.4738 23.4579 21.3762 25.138C20.2785 26.8181 19.692 28.7806 19.6878 30.7875C19.6889 32.6873 20.2147 34.5499 21.2073 36.1698C22.1998 37.7897 23.6206 39.1039 25.3128 39.9675V47.1675C22.3218 46.3625 19.5946 44.7862 17.4041 42.5962C11.0478 36.24 10.5285 26.2462 15.8047 19.2712V19.3931C15.8047 19.6417 15.9035 19.8802 16.0793 20.056C16.2551 20.2318 16.4936 20.3306 16.7422 20.3306C16.9908 20.3306 17.2293 20.2318 17.4051 20.056C17.5809 19.8802 17.6797 19.6417 17.6797 19.3931V17.1562C20.9903 13.9712 25.4064 12.193 30.0003 12.195V12.1931ZM26.6253 38.5143C25.1213 37.8579 23.8414 36.7772 22.9422 35.4045C22.043 34.0317 21.5637 32.4266 21.5628 30.7856C21.5628 27.9468 22.9972 25.3256 25.3128 23.7656V32.6606C25.3128 32.9092 25.4116 33.1477 25.5874 33.3235C25.7632 33.4993 26.0017 33.5981 26.2503 33.5981H33.7503C33.999 33.5981 34.2374 33.4993 34.4132 33.3235C34.5891 33.1477 34.6878 32.9092 34.6878 32.6606V23.7656C37.0035 25.3256 38.4378 27.9468 38.4378 30.7856C38.437 32.4266 37.9576 34.0317 37.0585 35.4045C36.1593 36.7772 34.8793 37.8579 33.3753 38.5143C33.0322 38.6643 32.8128 39.0018 32.8128 39.3731V47.5631C30.9495 47.8591 29.0511 47.8591 27.1878 47.5631V39.375C27.188 39.1926 27.1348 39.0141 27.0349 38.8616C26.9349 38.709 26.7926 38.5871 26.6253 38.5143ZM12.0997 47.8987C2.3197 38.1168 2.24658 22.2656 11.8503 12.375H15.8066V16.38C8.41908 24.0787 8.50345 36.3412 16.0803 43.92C17.907 45.7492 20.0771 47.1995 22.4659 48.1876C24.8547 49.1758 27.4152 49.6823 30.0003 49.6781C34.3691 49.6781 38.736 48.2325 42.3209 45.3487V48.5625C42.3209 48.8111 42.4197 49.0496 42.5955 49.2254C42.7714 49.4012 43.0098 49.5 43.2584 49.5H46.131C36.1935 57.7293 21.3997 57.1987 12.0997 47.9025V47.8987Z" fill="#008080"/>
<path d="M48.5625 12.375C49.0803 12.375 49.5 11.9553 49.5 11.4375C49.5 10.9197 49.0803 10.5 48.5625 10.5C48.0447 10.5 47.625 10.9197 47.625 11.4375C47.625 11.9553 48.0447 12.375 48.5625 12.375Z" fill="#008080"/>
</svg>
