<svg width="60" height="60" viewBox="0 0 60 60" fill="none" xmlns="http://www.w3.org/2000/svg">
<path d="M46.3894 54.6859C46.1052 54.6859 45.8327 54.573 45.6318 54.3721C45.4308 54.1711 45.318 53.8986 45.318 53.6145L45.319 42.927C45.319 40.6823 45.9715 38.548 47.2058 36.7534C49.3523 33.6364 50.4982 29.9394 50.4908 26.1548C50.4908 15.8445 42.0597 7.45624 31.6958 7.45624C28.9401 7.45624 26.2637 8.05945 23.7405 9.24874C17.809 12.0934 13.7387 17.8652 13.1237 24.3087C13.0517 25.0561 13.0234 25.807 13.039 26.5577C13.0797 28.5077 12.6683 30.5187 11.8165 32.5373L9.53759 37.933C9.51763 37.9804 9.50806 38.0316 9.50953 38.083C9.51101 38.1344 9.52348 38.1849 9.54613 38.2311C9.56877 38.2773 9.60105 38.3181 9.64079 38.3508C9.68053 38.3835 9.72682 38.4073 9.77652 38.4205L12.4894 39.1737C12.965 39.3053 13.391 39.5745 13.714 39.9476C14.0369 40.3207 14.2424 40.781 14.3044 41.2705L15.4733 48.5584C15.4819 48.6141 15.4872 48.6698 15.4872 48.7255C15.4892 49.2397 15.6946 49.7322 16.0586 50.0954C16.4226 50.4586 16.9156 50.6629 17.4297 50.6637H24.228C25.4827 50.6623 26.6856 50.1633 27.5728 49.2761C28.46 48.3889 28.959 47.1859 28.9605 45.9312C28.9605 45.6471 29.0733 45.3746 29.2743 45.1736C29.4752 44.9727 29.7477 44.8598 30.0319 44.8598C30.316 44.8598 30.5886 44.9727 30.7895 45.1736C30.9904 45.3746 31.1033 45.6471 31.1033 45.9312C31.1013 47.7541 30.3763 49.5017 29.0874 50.7907C27.7984 52.0796 26.0508 52.8046 24.228 52.8066H17.4297C16.364 52.8047 15.3411 52.3873 14.5784 51.643C13.8157 50.8987 13.3733 49.8862 13.3454 48.8209L12.184 41.5759C12.1604 41.397 12.0565 41.278 11.9162 41.2384L9.20331 40.4873C8.85995 40.3924 8.54081 40.2253 8.26721 39.9972C7.99362 39.7691 7.77187 39.4852 7.6168 39.1645C7.46172 38.8438 7.37689 38.4937 7.36797 38.1375C7.35906 37.7814 7.42626 37.4275 7.56509 37.0995L9.84295 31.7048C10.5779 29.9659 10.9326 28.2505 10.8972 26.6048C10.8801 25.7787 10.9112 24.9377 10.9904 24.1052C11.6772 16.918 16.2104 10.4852 22.8212 7.31481C25.5943 5.99667 28.6264 5.31331 31.6969 5.31445C43.2415 5.31445 52.6347 14.6637 52.6347 26.1559C52.6424 30.3743 51.365 34.495 48.9726 37.9695C47.9847 39.4052 47.463 41.1184 47.463 42.928L47.4619 53.6155C47.4613 53.8996 47.3481 54.1718 47.147 54.3725C46.9459 54.5732 46.6735 54.6859 46.3894 54.6859Z" fill="#008080"/>
<path d="M42.2484 25.6554C42.0574 25.6551 41.87 25.6038 41.7055 25.5067C41.541 25.4096 41.4055 25.2703 41.313 25.1032C41.2204 24.9361 41.1742 24.7473 41.1791 24.5564C41.184 24.3655 41.2399 24.1793 41.3409 24.0172C41.7796 23.3136 42.012 22.501 42.0117 21.6719C42.0109 21.0319 41.8719 20.3996 41.6041 19.8184C41.3363 19.2371 40.9461 18.7206 40.4601 18.3041C39.9742 17.8876 39.404 17.5811 38.7886 17.4055C38.1732 17.2298 37.5271 17.1893 36.8945 17.2865C36.662 17.3233 36.4239 17.282 36.2173 17.1692C36.0107 17.0564 35.8472 16.8784 35.7524 16.6629C34.8877 14.7194 32.9934 13.4637 30.9256 13.4637C30.1763 13.4645 29.4357 13.6246 28.753 13.9335C28.0703 14.2423 27.461 14.6928 26.9657 15.255C26.4703 15.8172 26.1001 16.4784 25.8798 17.1945C25.6594 17.9107 25.5938 18.6656 25.6874 19.409C25.7076 19.5499 25.6997 19.6933 25.6639 19.831C25.6281 19.9688 25.5653 20.098 25.479 20.2112C25.3928 20.3243 25.2848 20.4192 25.1615 20.4902C25.0382 20.5612 24.902 20.6069 24.7608 20.6247C24.6196 20.6425 24.4763 20.632 24.3393 20.5938C24.2022 20.5556 24.0741 20.4905 23.9625 20.4023C23.8509 20.314 23.7579 20.2044 23.6891 20.0799C23.6203 19.9553 23.577 19.8183 23.5617 19.6769C23.4306 18.6318 23.5232 17.5708 23.8333 16.5643C24.1434 15.5577 24.6639 14.6286 25.3603 13.8384C26.0567 13.0483 26.9132 12.4152 27.8728 11.9812C28.8325 11.5471 29.8734 11.322 30.9267 11.3208C33.5827 11.3208 36.0309 12.779 37.3584 15.0954C38.2401 15.0673 39.1184 15.2166 39.9413 15.5343C40.7641 15.8521 41.5148 16.3318 42.1488 16.9452C42.7827 17.5586 43.287 18.293 43.6317 19.1049C43.9765 19.9169 44.1546 20.7898 44.1556 21.6719C44.1565 22.9022 43.8116 24.1081 43.1602 25.1519C42.9556 25.4776 42.6063 25.6554 42.2484 25.6554Z" fill="#008080"/>
<path d="M23.8277 29.7903C20.1998 29.7903 17.248 26.8385 17.248 23.2107C17.2491 22.3185 17.4314 21.4359 17.7838 20.6163C18.1363 19.7967 18.6515 19.0572 19.2984 18.4427C19.9452 17.8283 20.7101 17.3516 21.5467 17.0417C22.3833 16.7317 23.2741 16.5949 24.1652 16.6396C24.3057 16.6465 24.4435 16.681 24.5707 16.7411C24.6979 16.8013 24.8119 16.886 24.9064 16.9902C25.0008 17.0945 25.0738 17.2164 25.121 17.3489C25.1683 17.4814 25.189 17.622 25.182 17.7625C25.1761 17.9033 25.1423 18.0416 25.0824 18.1693C25.0226 18.2969 24.938 18.4114 24.8335 18.506C24.729 18.6006 24.6067 18.6735 24.4737 18.7204C24.3408 18.7673 24.1999 18.7873 24.0591 18.7793C23.458 18.7488 22.857 18.8408 22.2925 19.0496C21.7281 19.2585 21.2119 19.5799 20.7754 19.9943C20.339 20.4088 19.9913 20.9076 19.7535 21.4605C19.5156 22.0134 19.3927 22.6088 19.392 23.2107C19.3931 24.3871 19.8609 25.5149 20.6927 26.3467C21.5245 27.1785 22.6524 27.6463 23.8288 27.6475C24.1129 27.6476 24.3854 27.7606 24.5862 27.9617C24.787 28.1627 24.8998 28.4353 24.8997 28.7194C24.8995 29.0036 24.7865 29.2761 24.5855 29.4769C24.3844 29.6777 24.1118 29.7905 23.8277 29.7903ZM40.8977 32.8171C37.7905 32.8171 35.2609 30.2885 35.2609 27.1803C35.2609 26.8962 35.3738 26.6237 35.5747 26.4227C35.7756 26.2218 36.0482 26.1089 36.3323 26.1089C36.6165 26.1089 36.889 26.2218 37.0899 26.4227C37.2909 26.6237 37.4038 26.8962 37.4038 27.1803C37.4038 29.1068 38.9713 30.6743 40.8977 30.6743C42.8241 30.6743 44.3916 29.1068 44.3916 27.1803C44.3898 26.5741 44.2312 25.9786 43.9311 25.4518C43.6311 24.925 43.1999 24.4848 42.6795 24.1739C42.4352 24.0286 42.2587 23.7921 42.1888 23.5167C42.1189 23.2412 42.1613 22.9492 42.3066 22.705C42.452 22.4607 42.6884 22.2842 42.9639 22.2143C43.2393 22.1444 43.5313 22.1868 43.7755 22.3321C44.6141 22.8338 45.3086 23.5437 45.7919 24.393C46.2751 25.2423 46.5305 26.2021 46.5334 27.1793C46.5323 28.6738 45.9382 30.1068 44.8816 31.1638C43.825 32.2208 42.3922 32.8154 40.8977 32.8171Z" fill="#008080"/>
<path d="M35.2245 28.1253C34.5634 28.1265 33.9113 27.9721 33.3209 27.6747C32.7305 27.3773 32.2184 26.9451 31.8259 26.4131C31.7385 26.3002 31.6745 26.171 31.6378 26.033C31.601 25.895 31.5922 25.7511 31.6119 25.6096C31.6316 25.4682 31.6793 25.3321 31.7523 25.2094C31.8253 25.0867 31.9221 24.9798 32.037 24.895C32.1519 24.8103 32.2826 24.7493 32.4214 24.7158C32.5602 24.6823 32.7043 24.6768 32.8453 24.6997C32.9862 24.7227 33.1211 24.7736 33.2421 24.8494C33.3631 24.9252 33.4677 25.0245 33.5498 25.1413C33.8763 25.583 34.3646 25.8773 34.9076 25.9596C35.4507 26.042 36.0042 25.9057 36.447 25.5806C37.0909 25.1071 37.4005 24.3238 37.257 23.5385C37.2288 23.399 37.2287 23.2552 37.2567 23.1157C37.2848 22.9761 37.3403 22.8436 37.4201 22.7257C37.4999 22.6079 37.6024 22.5071 37.7216 22.4293C37.8408 22.3515 37.9743 22.2982 38.1143 22.2726C38.2543 22.247 38.398 22.2495 38.5371 22.2801C38.6761 22.3106 38.8076 22.3685 38.924 22.4505C39.0404 22.5324 39.1393 22.6367 39.2149 22.7573C39.2905 22.8779 39.3414 23.0123 39.3645 23.1528C39.5102 23.9295 39.433 24.7316 39.142 25.4663C38.851 26.201 38.3579 26.8383 37.7198 27.3046C36.9973 27.8381 36.1226 28.1258 35.2245 28.1253ZM34.347 23.2535C34.1926 23.2535 34.0401 23.2202 33.8999 23.1559C33.7596 23.0916 33.6349 22.9977 33.5343 22.8807C33.4337 22.7637 33.3595 22.6263 33.3169 22.478C33.2742 22.3297 33.2642 22.1739 33.2873 22.0213C33.3286 21.7523 33.3163 21.4777 33.251 21.2135C33.1858 20.9493 33.0688 20.7005 32.907 20.4817C32.746 20.262 32.543 20.0765 32.3098 19.9358C32.0766 19.7951 31.8178 19.702 31.5484 19.6621C31.1645 19.602 30.7714 19.6519 30.4147 19.8061C30.058 19.9602 29.7523 20.2123 29.533 20.5331C29.4542 20.6515 29.3525 20.7531 29.234 20.8318C29.1155 20.9105 28.9825 20.9648 28.8428 20.9916C28.7031 21.0184 28.5594 21.0171 28.4202 20.9877C28.281 20.9584 28.149 20.9016 28.032 20.8207C27.915 20.7398 27.8152 20.6364 27.7386 20.5166C27.6619 20.3967 27.6099 20.2628 27.5856 20.1226C27.5612 19.9825 27.565 19.8388 27.5968 19.7002C27.6286 19.5615 27.6876 19.4305 27.7705 19.3149C28.2176 18.6635 28.8396 18.1516 29.5648 17.8381C30.29 17.5246 31.089 17.4222 31.8698 17.5428C32.4177 17.624 32.944 17.8131 33.4183 18.0991C33.8926 18.3851 34.3054 18.7623 34.633 19.2088C35.3005 20.1153 35.5759 21.2274 35.4066 22.3406C35.368 22.5942 35.2399 22.8256 35.0456 22.993C34.8513 23.1604 34.6035 23.2528 34.347 23.2535ZM34.1402 40.1178C33.856 40.1178 33.5835 40.0049 33.3826 39.804C33.1816 39.603 33.0687 39.3305 33.0687 39.0463V35.9928C33.0679 35.2971 32.7912 34.6302 32.2993 34.1383C31.8074 33.6464 31.1405 33.3697 30.4448 33.3688H28.123C25.5752 33.3688 23.502 31.2956 23.502 28.7478C23.502 26.1999 25.5752 24.1267 28.123 24.1267C28.4072 24.1267 28.6797 24.2396 28.8806 24.4405C29.0816 24.6414 29.1945 24.914 29.1945 25.1981C29.1945 25.4823 29.0816 25.7548 28.8806 25.9557C28.6797 26.1567 28.4072 26.2696 28.123 26.2696C26.757 26.2696 25.6448 27.3817 25.6448 28.7478C25.6448 30.1138 26.757 31.226 28.123 31.226H30.4448C31.7086 31.2274 32.9202 31.7301 33.8139 32.6237C34.7075 33.5173 35.2102 34.729 35.2116 35.9928V39.0463C35.2116 39.3305 35.0987 39.603 34.8978 39.804C34.6968 40.0049 34.4243 40.1178 34.1402 40.1178Z" fill="#008080"/>
</svg>
