<svg width="60" height="60" viewBox="0 0 60 60" fill="none" xmlns="http://www.w3.org/2000/svg">
<g clip-path="url(#clip0_1123_1645)">
<path d="M49.0547 25.4074L44.1996 24.6633C44.0817 24.3508 43.9528 24.0406 43.8129 23.7328L46.7262 19.7649C46.9799 19.4224 47.1015 18.9999 47.0688 18.575C47.0361 18.1501 46.8512 17.7512 46.5481 17.4516L42.5391 13.4531C42.239 13.1519 41.8405 12.9686 41.4165 12.9368C40.9924 12.9049 40.5711 13.0266 40.2293 13.2797L36.2672 16.1895C35.9625 16.0512 35.6532 15.9223 35.3403 15.8051L34.5961 10.9465C34.5336 10.5255 34.3215 10.1411 33.9987 9.86369C33.6759 9.58629 33.2639 9.43444 32.8383 9.43596L27.1735 9.42542C26.7477 9.42341 26.3355 9.57508 26.0126 9.85257C25.6897 10.1301 25.4777 10.5147 25.4157 10.936L24.668 15.8051C24.3563 15.9223 24.0457 16.05 23.7411 16.1895L19.7789 13.2797C19.4367 13.0239 19.0135 12.9006 18.5875 12.9325C18.1614 12.9643 17.7613 13.1493 17.461 13.4531L13.4532 17.4516C13.1492 17.7507 12.9637 18.1495 12.9307 18.5747C12.8977 18.9998 13.0196 19.4225 13.2739 19.7649L16.1871 23.7328C16.0453 24.0446 15.9129 24.3621 15.7922 24.6844L10.9418 25.4098C10.5194 25.4703 10.1332 25.6817 9.8545 26.0048C9.57578 26.3279 9.42337 26.7409 9.42543 27.1676L9.43597 32.8266C9.43466 33.2531 9.58733 33.6657 9.86592 33.9887C10.1445 34.3116 10.5303 34.5232 10.9524 34.5844L15.7852 35.3086C15.9094 35.6391 16.045 35.9656 16.1918 36.2883L13.2774 40.2258C13.0214 40.5682 12.8981 40.9918 12.9302 41.4181C12.9623 41.8444 13.1476 42.2447 13.452 42.5449L17.461 46.5422C17.7612 46.8447 18.1606 47.0286 18.5856 47.06C19.0107 47.0915 19.4328 46.9683 19.7743 46.7133L23.7012 43.8094C24.0262 43.9571 24.3555 44.0938 24.6891 44.2196L25.4121 49.0477C25.4734 49.4698 25.6849 49.8556 26.0079 50.1341C26.3308 50.4127 26.7435 50.5654 27.17 50.5641L32.8289 50.5746C33.2556 50.5767 33.6687 50.4243 33.9918 50.1456C34.3149 49.8668 34.5262 49.4806 34.5868 49.0582L35.311 44.2184C35.6438 44.0942 35.9719 43.9571 36.2953 43.8094L40.2223 46.7133C40.5641 46.9691 40.9869 47.0926 41.4127 47.0612C41.8385 47.0297 42.2385 46.8454 42.5391 46.5422L46.5481 42.5485C46.8524 42.2482 47.0378 41.8479 47.0699 41.4216C47.102 40.9953 46.9787 40.5718 46.7227 40.2293L43.8094 36.2918C43.9524 35.9778 44.0848 35.6578 44.2055 35.3344L49.0653 34.5891C49.4862 34.5265 49.8704 34.3144 50.1476 33.9916C50.4249 33.6687 50.5764 33.2568 50.5746 32.8313L50.5641 27.1664C50.5657 26.7408 50.4141 26.3289 50.1369 26.0059C49.8598 25.6829 49.4756 25.4705 49.0547 25.4074ZM42.8004 33.6539L42.62 34.1977C42.4174 34.8076 42.171 35.4021 41.8828 35.9766L41.6227 36.4922L45.1664 41.2805L41.2735 45.1559L36.4957 41.6227L35.9766 41.8828C35.3947 42.1765 34.7919 42.4268 34.1731 42.6317L33.6328 42.8121L32.7528 48.6985L27.2578 48.6891L26.3778 42.8133L25.8305 42.6328C25.2106 42.4275 24.6066 42.1768 24.0235 41.8828L23.509 41.6227L18.7266 45.1559L14.8348 41.2793L18.3774 36.4899L18.1184 35.9742C17.8259 35.3935 17.5767 34.7918 17.3731 34.1742L17.1926 33.6328L11.311 32.7516L11.3004 27.2578L17.1973 26.3672L17.3789 25.8199C17.5802 25.2127 17.8254 24.6209 18.1125 24.0492L18.3703 23.536L14.8348 18.7196L18.7301 14.8371L23.5418 18.3692L24.0539 18.1125C24.6184 17.8298 25.2023 17.5878 25.8012 17.3883L26.345 17.2067L27.2508 11.2992L32.7516 11.3086L33.6563 17.2067L34.1989 17.3883C34.798 17.5872 35.382 17.8292 35.9461 18.1125L36.4582 18.3692L41.27 14.8371L45.1664 18.7196L41.6297 23.536L41.8875 24.0492C42.1718 24.6146 42.415 25.1997 42.6153 25.8L42.7957 26.3426L48.6891 27.2461L48.6996 32.7469L42.8004 33.6539ZM30 20.1563C28.0531 20.1563 26.1499 20.7336 24.5311 21.8152C22.9123 22.8969 21.6506 24.4343 20.9056 26.233C20.1605 28.0317 19.9656 30.0109 20.3454 31.9204C20.7253 33.8299 21.6628 35.5839 23.0395 36.9606C24.4161 38.3373 26.1701 39.2748 28.0796 39.6546C29.9891 40.0345 31.9684 39.8395 33.7671 39.0945C35.5658 38.3494 37.1032 37.0877 38.1848 35.4689C39.2665 33.8501 39.8438 31.9469 39.8438 30C39.8401 27.3904 38.8018 24.8888 36.9565 23.0436C35.1113 21.1983 32.6096 20.16 30 20.1563ZM30 37.9688C28.424 37.9688 26.8833 37.5014 25.5728 36.6258C24.2624 35.7502 23.241 34.5056 22.6379 33.0495C22.0347 31.5934 21.8769 29.9912 22.1844 28.4454C22.4919 26.8996 23.2508 25.4797 24.3653 24.3653C25.4797 23.2508 26.8996 22.4919 28.4454 22.1844C29.9912 21.8769 31.5934 22.0347 33.0495 22.6379C34.5056 23.241 35.7502 24.2624 36.6258 25.5728C37.5014 26.8833 37.9688 28.424 37.9688 30C37.9651 32.1123 37.1243 34.1371 35.6307 35.6307C34.1371 37.1243 32.1123 37.9651 30 37.9688ZM7.23988 14.8465V19.4836C7.23988 19.7323 7.14111 19.9707 6.96529 20.1465C6.78948 20.3223 6.55102 20.4211 6.30238 20.4211C6.05374 20.4211 5.81528 20.3223 5.63947 20.1465C5.46365 19.9707 5.36488 19.7323 5.36488 19.4836V18.4864C3.42725 22.64 2.56956 27.2155 2.87131 31.7889C3.17306 36.3623 4.62449 40.7854 7.09105 44.6485C7.15738 44.7524 7.20258 44.8684 7.22408 44.9898C7.24558 45.1113 7.24295 45.2357 7.21634 45.3561C7.18974 45.4766 7.13967 45.5905 7.06902 45.6916C6.99836 45.7927 6.90848 45.8788 6.80453 45.9451C6.70057 46.0115 6.58457 46.0567 6.46315 46.0782C6.34173 46.0997 6.21726 46.097 6.09685 46.0704C5.97644 46.0438 5.86245 45.9938 5.76139 45.9231C5.66033 45.8524 5.57418 45.7626 5.50785 45.6586C2.83794 41.4765 1.28168 36.6812 0.986941 31.7283C0.692203 26.7754 1.66877 21.8294 3.82386 17.3602L2.75512 17.9766C2.54037 18.0932 2.28858 18.1214 2.05338 18.055C1.81818 17.9887 1.61816 17.8332 1.49594 17.6216C1.37371 17.41 1.33894 17.1591 1.39902 16.9222C1.45911 16.6853 1.6093 16.4813 1.81762 16.3535L5.83363 14.0344C5.97616 13.9521 6.13785 13.9088 6.30243 13.9088C6.46702 13.9088 6.6287 13.9521 6.77122 14.0345C6.91375 14.1168 7.03209 14.2351 7.11436 14.3777C7.19663 14.5202 7.23992 14.6819 7.23988 14.8465ZM45.9375 53.1926C46.0699 53.4013 46.1144 53.6538 46.0615 53.8952C46.0087 54.1366 45.8626 54.3474 45.6551 54.4817C41.4846 57.1451 36.7037 58.7011 31.7644 59.0025C26.8251 59.304 21.8905 58.3409 17.427 56.2043L18.0129 57.1981C18.1308 57.4106 18.1615 57.6607 18.0985 57.8954C18.0356 58.1302 17.8839 58.3313 17.6755 58.4564C17.4671 58.5815 17.2183 58.6208 16.9815 58.566C16.7447 58.5111 16.5385 58.3665 16.4063 58.1625L14.0368 54.1782C13.9526 54.0367 13.9072 53.8756 13.905 53.7111C13.9028 53.5465 13.944 53.3843 14.0244 53.2407C14.1048 53.0971 14.2216 52.9772 14.3631 52.8931C14.5045 52.809 14.6656 52.7635 14.8301 52.7614L19.4661 52.7016H19.4789C19.7276 52.7 19.9667 52.7973 20.1436 52.972C20.3205 53.1467 20.4207 53.3846 20.4223 53.6332C20.4239 53.8819 20.3266 54.1209 20.1519 54.2979C19.9771 54.4748 19.7393 54.575 19.4907 54.5766L18.3844 54.5906C22.5475 56.5531 27.1401 57.4282 31.7331 57.1341C36.3262 56.84 40.7697 55.3864 44.6485 52.909C44.8573 52.7768 45.11 52.7324 45.3514 52.7855C45.5928 52.8386 45.8035 52.9849 45.9375 53.1926ZM58.4578 42.2614C58.5219 42.3667 58.5646 42.4836 58.5834 42.6054C58.6022 42.7272 58.5968 42.8515 58.5676 42.9713C58.5383 43.091 58.4857 43.2038 58.4128 43.3031C58.3398 43.4025 58.248 43.4866 58.1426 43.5504L54.1793 45.9563C54.0386 46.0417 53.8778 46.0886 53.7132 46.0922C53.5486 46.0958 53.386 46.056 53.2416 45.9767C53.0973 45.8975 52.9764 45.7816 52.8911 45.6408C52.8057 45.5 52.759 45.3392 52.7555 45.1746L52.6547 40.5399C52.6519 40.4167 52.6734 40.2943 52.7179 40.1795C52.7625 40.0646 52.8292 39.9597 52.9143 39.8707C52.9994 39.7817 53.1012 39.7103 53.2139 39.6606C53.3266 39.611 53.448 39.584 53.5711 39.5813H53.5922C53.8374 39.5812 54.0729 39.6772 54.2482 39.8488C54.4234 40.0203 54.5245 40.2537 54.5297 40.4989L54.5555 41.6766C56.5341 37.5086 57.421 32.9062 57.133 28.3014C56.845 23.6966 55.3915 19.2406 52.909 15.3516C52.7751 15.1416 52.73 14.8871 52.7837 14.6439C52.8375 14.4007 52.9856 14.1889 53.1955 14.0549C53.4055 13.921 53.66 13.8759 53.9032 13.9296C54.1464 13.9834 54.3583 14.1315 54.4922 14.3414C57.1505 18.5036 58.7057 23.2739 59.0114 28.2031C59.317 33.1322 58.3631 38.0581 56.2395 42.5168L57.177 41.9461C57.3894 41.8179 57.6439 41.779 57.8849 41.8381C58.1259 41.8972 58.3336 42.0494 58.4625 42.2614H58.4578ZM14.0625 6.80862C13.995 6.70502 13.9487 6.5891 13.9261 6.46751C13.9036 6.34593 13.9054 6.22109 13.9313 6.10018C13.9572 5.97928 14.0068 5.8647 14.0772 5.76304C14.1476 5.66138 14.2374 5.57464 14.3414 5.50784C18.4909 2.85876 23.2446 1.30568 28.1577 0.993952C33.0708 0.682221 37.9826 1.62202 42.4336 3.72542L41.8981 2.87112C41.8327 2.76678 41.7885 2.65058 41.768 2.52915C41.7475 2.40773 41.7511 2.28345 41.7786 2.16343C41.8062 2.0434 41.8571 1.92997 41.9284 1.82961C41.9998 1.72926 42.0902 1.64394 42.1946 1.57854C42.2989 1.51314 42.4151 1.46892 42.5365 1.44843C42.658 1.42793 42.7822 1.43155 42.9023 1.45908C43.0223 1.48661 43.1357 1.53751 43.2361 1.60888C43.3364 1.68025 43.4217 1.77069 43.4871 1.87502L45.9481 5.80432C46.0354 5.94377 46.0845 6.10373 46.0904 6.26815C46.0963 6.43256 46.0588 6.59564 45.9817 6.74099C45.9047 6.88634 45.7907 7.00885 45.6513 7.09622C45.5119 7.18358 45.3519 7.23272 45.1875 7.2387L40.5539 7.40627H40.5188C40.3957 7.40843 40.2733 7.38631 40.1588 7.34119C40.0442 7.29607 39.9396 7.22882 39.8511 7.14329C39.7625 7.05776 39.6916 6.95562 39.6425 6.8427C39.5934 6.72978 39.567 6.60829 39.5649 6.48518C39.5627 6.36207 39.5848 6.23973 39.63 6.12517C39.6751 6.0106 39.7423 5.90604 39.8279 5.81746C39.9134 5.72888 40.0155 5.65802 40.1285 5.60892C40.2414 5.55981 40.3629 5.53343 40.486 5.53127L41.7692 5.4844C37.5926 3.48311 32.9746 2.58045 28.3518 2.86179C23.7291 3.14314 19.2546 4.59919 15.3516 7.09221C15.1427 7.22443 14.8901 7.26882 14.6487 7.2157C14.4073 7.16259 14.1966 7.01628 14.0625 6.80862Z" fill="white"/>
</g>
<defs>
<clipPath id="clip0_1123_1645">
<rect width="60" height="60" fill="white"/>
</clipPath>
</defs>
</svg>
