<svg width="71" height="80" viewBox="0 0 71 80" fill="none" xmlns="http://www.w3.org/2000/svg">
<g clip-path="url(#clip0_1203_2872)">
<path d="M70.0189 23.459C70.0184 22.1173 69.7353 20.9318 69.163 19.9143C68.6008 18.9137 67.7589 18.0751 66.6296 17.412C57.3077 11.9623 47.9767 6.52927 38.6578 1.07399C36.1455 -0.396562 33.7096 -0.342951 31.2159 1.14872C27.5055 3.36733 8.92877 14.1582 3.39315 17.409C1.11342 18.747 0.00410959 20.7948 0.00356164 23.4565C0 34.4162 0.00356164 45.3757 0 56.3357C0 57.6479 0.271507 58.8104 0.81863 59.8126C1.3811 60.8434 2.23479 61.7051 3.39014 62.3832C8.92603 65.634 27.5052 76.424 31.2148 78.6432C33.7096 80.1357 36.1455 80.189 38.6586 78.7179C47.9778 73.2623 57.3093 67.8296 66.6326 62.3798C67.7879 61.7021 68.6416 60.8398 69.2041 59.8098C69.7504 58.8076 70.0225 57.6451 70.0225 56.3326C70.0225 56.3326 70.0225 34.419 70.0189 23.459Z" fill="#A179DC"/>
<path d="M35.12 39.7891L0.820312 59.8124C1.38278 60.8432 2.23648 61.7049 3.39182 62.383C8.92771 65.6338 27.5069 76.4238 31.2165 78.643C33.7113 80.1355 36.1472 80.1888 38.6603 78.7177C47.9795 73.2621 57.311 67.8293 66.6343 62.3796C67.7896 61.7018 68.6433 60.8396 69.2058 59.8096L35.12 39.7891Z" fill="#280068"/>
<path d="M70.0177 23.4588C70.0172 22.1171 69.7342 20.9316 69.1618 19.9141L35.1172 39.7891L69.2029 59.8096C69.7492 58.8074 70.0207 57.6449 70.0213 56.3324C70.0213 56.3324 70.0213 34.4188 70.0177 23.4588Z" fill="#390091"/>
<path d="M55.3145 32.3037V36.0464H59.0059V32.3037H60.8516V36.0464H64.543V37.9177H60.8516V41.6604H64.543V43.5318H60.8516V47.2745H59.0059V43.5318H55.3145V47.2745H53.4688V43.5318H49.7773V41.6604H53.4688V37.9177H49.7773V36.0464H53.4688V32.3037H55.3145ZM59.0059 37.9177H55.3145V41.6604H59.0059V37.9177Z" fill="white"/>
<path d="M35.1955 13.5068C44.824 13.5068 53.2304 18.8086 57.733 26.6891L57.6891 26.6132L46.3607 33.2266C44.1287 29.3951 40.037 26.8094 35.3434 26.7561L35.1955 26.7553C28.0378 26.7553 22.2349 32.6385 22.2349 39.8956C22.2349 42.2688 22.859 44.4934 23.9443 46.4149C26.1783 50.3691 30.3779 53.0361 35.1955 53.0361C40.0429 53.0361 44.2664 50.3352 46.4891 46.3387L46.4351 46.4346L57.7465 53.0785C53.2932 60.8923 45.002 66.1777 35.4854 66.283L35.1955 66.2846C25.5367 66.2846 17.1064 60.9502 12.6151 53.0281C10.4225 49.1606 9.16797 44.6768 9.16797 39.8956C9.16797 25.3217 20.8206 13.5068 35.1955 13.5068Z" fill="white"/>
</g>
<defs>
<clipPath id="clip0_1203_2872">
<rect width="70.137" height="80" fill="white"/>
</clipPath>
</defs>
</svg>
