<svg width="72" height="80" viewBox="0 0 72 80" fill="none" xmlns="http://www.w3.org/2000/svg">
<g clip-path="url(#clip0_1203_2884)">
<path d="M70.1877 59.9998C70.7455 59.0335 71.0921 57.9449 71.0921 56.9673V23.0323C71.0921 22.0547 70.7459 20.9662 70.1879 20L35.5469 39.9999L70.1877 59.9998Z" fill="#00599C"/>
<path d="M38.6253 79.2666L68.014 62.2992C68.8606 61.8104 69.63 60.9663 70.1879 59.9999L35.5471 40L0.90625 60.0001C1.46405 60.9663 2.23374 61.8106 3.08008 62.2992L32.4688 79.2666C34.1617 80.2442 36.9324 80.2442 38.6253 79.2666Z" fill="#004482"/>
<path d="M70.1863 19.9999C69.6282 19.0334 68.8585 18.1894 68.0122 17.7006L38.6235 0.733208C36.9306 -0.244403 34.1599 -0.244403 32.467 0.733208L3.07826 17.7006C1.3851 18.678 0 21.0774 0 23.0324V56.9674C0 57.945 0.346392 59.0337 0.904429 59.9999L35.5452 40L70.1863 19.9999Z" fill="#659AD2"/>
<path d="M35.5445 63.6964C22.478 63.6964 11.8477 53.066 11.8477 39.9996C11.8477 26.9331 22.478 16.3027 35.5445 16.3027C43.9759 16.3027 51.8393 20.84 56.0657 28.1437L45.8103 34.0781C43.695 30.4223 39.7611 28.1511 35.5445 28.1511C29.0111 28.1511 23.6961 33.4662 23.6961 39.9996C23.6961 46.5327 29.0111 51.848 35.5445 51.848C39.7616 51.848 43.6955 49.5768 45.811 45.9203L56.0664 51.8545C51.84 59.1589 43.9764 63.6964 35.5445 63.6964Z" fill="white"/>
<path d="M59.2427 38.6837H56.6096V36.0508H53.9769V38.6837H51.3438V41.3166H53.9769V43.9497H56.6096V41.3166H59.2427V38.6837Z" fill="white"/>
<path d="M69.1138 38.6837H66.4806V36.0508H63.848V38.6837H61.2148V41.3166H63.848V43.9497H66.4806V41.3166H69.1138V38.6837Z" fill="white"/>
</g>
<defs>
<clipPath id="clip0_1203_2884">
<rect width="71.0905" height="80" fill="white"/>
</clipPath>
</defs>
</svg>
