<svg width="80" height="80" viewBox="0 0 80 80" fill="none" xmlns="http://www.w3.org/2000/svg">
<path d="M40 75C59.33 75 75 59.33 75 40C75 20.67 59.33 5 40 5C20.67 5 5 20.67 5 40C5 59.33 20.67 75 40 75Z" fill="#65D1FF"/>
<mask id="mask0_1091_1645" style="mask-type:luminance" maskUnits="userSpaceOnUse" x="5" y="5" width="70" height="70">
<path d="M40 75C59.33 75 75 59.33 75 40C75 20.67 59.33 5 40 5C20.67 5 5 20.67 5 40C5 59.33 20.67 75 40 75Z" fill="white"/>
</mask>
<g mask="url(#mask0_1091_1645)">
<path d="M39.9994 18.1748C15.7244 18.1748 16.2244 37.2998 16.2244 37.2998V53.5748L26.0494 53.3248V37.2998C26.0494 27.3998 39.5244 27.4748 39.9744 27.4748C40.4244 27.4748 53.8994 27.3748 53.8994 37.2998V53.3248L63.7244 53.5748V37.2998C63.7494 37.2998 64.2744 18.1748 39.9994 18.1748Z" fill="url(#paint0_linear_1091_1645)"/>
<path d="M64.65 54.4998L53.025 54.1998V37.2998C53.025 35.1248 52.3 33.3248 50.9 31.9248C47.575 28.6248 41.425 28.3998 40.225 28.3748H40.2H39.975C39.475 28.3748 32.675 28.3748 29.1 31.9248C27.675 33.3248 26.975 35.1248 26.975 37.2998V54.1998L15.35 54.4998V37.2998C15.35 37.0248 15.2 29.7248 20.825 23.9748C25.125 19.5498 31.575 17.2998 40 17.2998H40.025C48.45 17.2998 54.9 19.5498 59.2 23.9748C64.8 29.7248 64.675 37.0248 64.675 37.3248L64.65 54.4998ZM39.975 19.0748C32.1 19.0748 26.075 21.1248 22.125 25.1998C17.05 30.3998 17.15 37.1998 17.15 37.2748V52.6498L25.15 52.4498V37.3248C25.15 34.6498 26.05 32.4248 27.825 30.6748C31.9 26.6498 39.375 26.5998 39.975 26.6248H40H40.025C40.525 26.6248 48.075 26.6248 52.175 30.6748C53.95 32.4248 54.85 34.6748 54.85 37.3248V52.4498L62.85 52.6498V37.2998C62.85 37.1998 62.95 30.3998 57.875 25.1998C53.925 21.1498 47.9 19.0748 40 19.0748H39.975Z" fill="url(#paint1_linear_1091_1645)"/>
<path d="M17.7999 51.6994V37.2744C17.7999 37.2744 17.6249 23.6744 31.8999 20.6494C31.8999 20.6494 21.3999 26.1744 21.3999 37.2744V52.2494L17.7999 51.6994Z" fill="url(#paint2_linear_1091_1645)"/>
<path d="M60.1494 32.8994H56.0244V51.2494H60.1494V32.8994Z" fill="url(#paint3_linear_1091_1645)"/>
<path d="M57.45 94.4998H22.825C15.15 94.4998 8.875 88.2248 8.875 80.5498V63.7498C8.875 56.0748 15.15 49.7998 22.825 49.7998H57.45C65.125 49.7998 71.4 56.0748 71.4 63.7498V80.5498C71.375 88.2248 65.1 94.4998 57.45 94.4998Z" fill="#0CCC06"/>
<path d="M58.7996 95.3998H21.4496C14.0246 95.3998 7.97461 89.3498 7.97461 81.9248V62.3998C7.97461 54.9748 14.0246 48.9248 21.4496 48.9248H58.7996C66.2246 48.9248 72.2746 54.9748 72.2746 62.3998V81.9248C72.2996 89.3498 66.2496 95.3998 58.7996 95.3998ZM21.4496 50.7248C15.0246 50.7248 9.77461 55.9498 9.77461 62.3998V81.9248C9.77461 88.3498 14.9996 93.5998 21.4496 93.5998H58.7996C65.2246 93.5998 70.4746 88.3748 70.4746 81.9248V62.3998C70.4746 55.9748 65.2496 50.7248 58.7996 50.7248H21.4496Z" fill="#337C00"/>
<path d="M14.95 67.6748H12.875V60.1998C13 57.8248 14.575 53.2248 19.75 52.6748H19.85H56V54.7498H19.925C17.975 54.9748 16.575 55.9498 15.7 57.6748C15.075 58.9248 14.975 60.1248 14.95 60.2998V67.6748Z" fill="url(#paint4_linear_1091_1645)"/>
</g>
<defs>
<linearGradient id="paint0_linear_1091_1645" x1="16.2407" y1="35.8671" x2="63.7582" y2="35.8671" gradientUnits="userSpaceOnUse">
<stop stop-color="#B7B7B7"/>
<stop offset="0.5" stop-color="white"/>
<stop offset="1" stop-color="#B2B2B2"/>
</linearGradient>
<linearGradient id="paint1_linear_1091_1645" x1="20.8727" y1="30.6701" x2="48.6695" y2="44.0743" gradientUnits="userSpaceOnUse">
<stop offset="0.1" stop-color="#323232"/>
<stop offset="0.5" stop-color="#636363"/>
<stop offset="1" stop-color="#272727"/>
</linearGradient>
<linearGradient id="paint2_linear_1091_1645" x1="17.7979" y1="36.4692" x2="31.9079" y2="36.4692" gradientUnits="userSpaceOnUse">
<stop offset="0.1" stop-color="white"/>
<stop offset="1" stop-color="white" stop-opacity="0.4"/>
</linearGradient>
<linearGradient id="paint3_linear_1091_1645" x1="58.3079" y1="51.1537" x2="57.8844" y2="34.2219" gradientUnits="userSpaceOnUse">
<stop offset="0.1" stop-color="white"/>
<stop offset="1" stop-color="white" stop-opacity="0"/>
</linearGradient>
<linearGradient id="paint4_linear_1091_1645" x1="13.5095" y1="60.2108" x2="56.0515" y2="59.7103" gradientUnits="userSpaceOnUse">
<stop offset="0.1" stop-color="white"/>
<stop offset="1" stop-color="white" stop-opacity="0"/>
</linearGradient>
</defs>
</svg>
