<svg width="80" height="80" viewBox="0 0 80 80" fill="none" xmlns="http://www.w3.org/2000/svg">
<g clip-path="url(#clip0_1142_1751)">
<path d="M29.8816 40C29.8816 34.7188 34.1609 30.4813 39.4003 30.4813C44.6422 30.4813 48.9216 34.7606 48.9216 40C48.9216 45.2394 44.6422 49.5188 39.4009 49.5188C34.1616 49.5188 29.8822 45.2394 29.8822 40H29.8816ZM39.4003 0C20.7209 0 5.08219 12.8 0.640312 30.0806C0.601562 30.2 0.601562 30.32 0.601562 30.4806C0.601563 30.9895 0.803716 31.4776 1.16355 31.8374C1.52339 32.1972 2.01143 32.3994 2.52031 32.3994H18.6409C19.4003 32.3994 20.0816 31.9606 20.3597 31.2794C23.6803 24.0794 30.9603 19.0406 39.4003 19.0406C50.9603 19.0406 60.3597 28.44 60.3597 40C60.3597 51.56 50.9603 60.9594 39.4003 60.9594C30.9603 60.9594 23.6803 55.9594 20.3597 48.7206C20.0403 48.0813 19.4003 47.6 18.6409 47.6H2.52031C2.01143 47.6 1.52339 47.8022 1.16355 48.162C0.803716 48.5218 0.601563 49.0099 0.601562 49.5188C0.601563 49.6413 0.640312 49.7606 0.640312 49.9194C5.04031 67.2 20.7216 80 39.4009 80C61.4809 80 79.4009 62.08 79.4009 40C79.4009 17.92 61.4803 0 39.4003 0Z" fill="#343434"/>
</g>
<defs>
<clipPath id="clip0_1142_1751">
<rect width="80" height="80" fill="white"/>
</clipPath>
</defs>
</svg>
