<svg width="60" height="60" viewBox="0 0 60 60" fill="none" xmlns="http://www.w3.org/2000/svg">
<g clip-path="url(#clip0_1148_2453)">
<path d="M42.1585 20.3721L44.4006 22.6142L40.5096 28.4887L38.9486 28.4112L34.3254 33.0344L31.7383 30.4472L36.3614 25.8241V24.263L42.1585 20.3721Z" stroke="#008080" stroke-width="2" stroke-miterlimit="10"/>
<path d="M31.9858 35.3743L34.3257 33.0344L31.7385 30.4473L29.3986 32.7871L26.7977 33.0035L18.811 40.9902C17.438 42.3631 17.438 44.5891 18.811 45.962C20.1839 47.3349 22.4099 47.3349 23.7828 45.962L31.7695 37.9753L31.9858 35.3743Z" stroke="#008080" stroke-width="2" stroke-miterlimit="10"/>
<path d="M33.308 34.0522L41.7877 42.5319C43.4341 44.1702 42.2341 47.0061 39.9396 46.9921C39.2716 46.9921 38.6013 46.7366 38.0927 46.2268L30.806 38.9401M25.8337 33.9679L23.7548 31.8889C18.942 33.6151 14.238 28.9077 15.963 24.0983L19.2396 27.3749L22.4808 26.7032L22.9357 23.68L19.658 20.4034C24.4709 18.6772 29.1748 23.3858 27.4498 28.1952L30.7205 31.4659M50.5805 6.5625H59.1211V13.5938H0.878906V6.5625H48.8227" stroke="#008080" stroke-width="2" stroke-miterlimit="10"/>
<path d="M11.7797 53.4375H55.6055C57.5473 53.4375 59.1211 51.8637 59.1211 49.9219V13.5938H0.878906V49.9219C0.878906 51.8637 2.45273 53.4375 4.39453 53.4375H10.0219" stroke="#008080" stroke-width="2" stroke-miterlimit="10"/>
<path d="M11.9665 22.9688C9.68602 22.9688 9.00914 24.8175 9.00914 27.098V30.5036L6.15223 33.3605L9.00914 36.2164V39.9333C9.00914 42.2138 9.68602 44.0625 11.9665 44.0625M48.0333 44.0625C50.3137 44.0625 50.9906 42.2138 50.9906 39.9333V36.2164L53.8474 33.3605L50.9906 30.5036V27.098C50.9906 24.8175 50.3137 22.9688 48.0333 22.9688M4.64941 10.0781H6.40723M8.16504 10.0781H9.92285" stroke="#008080" stroke-width="2" stroke-miterlimit="10"/>
</g>
<defs>
<clipPath id="clip0_1148_2453">
<rect width="60" height="60" fill="white"/>
</clipPath>
</defs>
</svg>
