<svg width="60" height="60" viewBox="0 0 60 60" fill="none" xmlns="http://www.w3.org/2000/svg">
<path d="M9.94203 31.507L9.99172 31.5244L10.2491 31.6139C10.5383 31.7138 10.8364 31.8173 10.9466 31.8755C11.008 31.9842 11.1191 32.2781 11.2278 32.5631L11.3253 32.8209C11.4931 33.2625 11.6309 33.5709 11.7162 33.7622L11.7416 33.8184C11.8018 33.9625 11.8901 34.093 12.0014 34.2024C12.1128 34.3118 12.2449 34.3979 12.3899 34.4556C12.535 34.5132 12.6901 34.5413 12.8461 34.5382C13.0022 34.5351 13.1561 34.5009 13.2987 34.4375C13.4414 34.3741 13.5699 34.2828 13.6768 34.1691C13.7837 34.0553 13.8668 33.9214 13.9212 33.7751C13.9756 33.6288 14.0002 33.4731 13.9936 33.3171C13.9871 33.1611 13.9494 33.0081 13.8828 32.8669L13.8561 32.8059C13.7342 32.5369 13.6209 32.2641 13.5163 31.988L13.4225 31.7358C12.8431 30.1997 12.5736 29.9377 11.0197 29.3991L10.7689 29.3119L10.3822 30.4181L10.7183 29.2931C10.1267 29.1304 9.55792 28.8942 9.02516 28.59C8.91332 27.9865 8.87757 27.3714 8.91875 26.7591V24.592C8.87756 23.9798 8.91331 23.3649 9.02516 22.7616C9.55767 22.4572 10.1264 22.2209 10.7178 22.0584L11.0127 21.9553C12.5736 21.4148 12.845 21.1514 13.4295 19.6083L13.5233 19.3598C13.6367 19.0636 13.7575 18.7712 13.8856 18.4828L13.9958 18.2367C14.6675 16.7419 14.6619 16.3669 13.9461 14.8912L13.8294 14.6508L13.8064 14.6039C13.5031 14.0702 13.2683 13.5004 13.1075 12.908C13.4545 12.4018 13.864 11.9414 14.3262 11.5378L15.8577 10.0059C16.2615 9.54375 16.722 9.13428 17.2283 8.78719C17.8194 8.95073 18.3885 9.18525 18.9233 9.48562L18.9659 9.50625L18.9828 9.51422L19.2041 9.62109C20.6862 10.3406 21.0631 10.3467 22.5631 9.67312L22.8069 9.56391C23.0953 9.43641 23.387 9.31594 23.682 9.2025L23.9356 9.10875C25.4741 8.52609 25.7361 8.25562 26.2761 6.69844L26.3633 6.44672L26.3787 6.39984C26.5411 5.80805 26.7774 5.23904 27.0819 4.70625C27.6722 4.59292 28.2745 4.55512 28.8744 4.59375H31.0775C31.6897 4.55682 32.3042 4.5927 32.908 4.70062C33.2124 5.23348 33.4486 5.80247 33.6111 6.39422L33.7138 6.68906C34.2542 8.24953 34.5177 8.52 36.0598 9.10453L36.3092 9.19828C36.6045 9.31172 36.8956 9.43219 37.1825 9.55969L37.43 9.67031C38.9272 10.3425 39.305 10.3373 40.782 9.61922L41.0666 9.48141C41.5997 9.17735 42.1694 8.94264 42.762 8.78297C43.2684 9.12993 43.7289 9.53942 44.1327 10.0017L45.6327 11.5017L45.6655 11.535C46.1275 11.9388 46.537 12.3992 46.8842 12.9052C46.7237 13.4975 46.489 14.0671 46.1858 14.6006L46.1652 14.6437L46.16 14.6545L46.0498 14.8819C45.3303 16.3636 45.3247 16.7405 45.9987 18.2423L46.108 18.4866C46.2358 18.7734 46.3561 19.0644 46.4689 19.3594L46.5627 19.6116C47.1458 21.1509 47.4162 21.4134 48.9725 21.9525L49.2139 22.0364L49.227 22.0411L49.2739 22.057C49.8655 22.2195 50.4344 22.4557 50.967 22.7602C51.0794 23.3634 51.1153 23.9784 51.0739 24.5906V26.7572C51.1153 27.3694 51.0794 27.9844 50.967 28.5877C50.4201 28.8997 49.8362 29.1419 49.2289 29.3086L49.2144 29.3137L48.98 29.3953C47.4186 29.9363 47.1477 30.1992 46.5636 31.7414L46.4698 31.9913C46.3564 32.2859 46.2358 32.577 46.108 32.8645L45.9973 33.1125C45.3252 34.6097 45.3312 34.9875 46.0494 36.4645L46.16 36.6928C46.2881 36.971 46.52 37.188 46.8061 37.2973C47.0922 37.4066 47.4097 37.3996 47.6907 37.2777C47.9717 37.1559 48.1938 36.9288 48.3095 36.6453C48.4252 36.3617 48.4252 36.0441 48.3097 35.7605C48.2994 35.7358 48.2885 35.7114 48.2769 35.6873L48.1573 35.4408C48.0233 35.1642 47.8845 34.8783 47.848 34.7592C47.8808 34.6397 48.0102 34.3514 48.1353 34.072L48.2492 33.818C48.3939 33.4927 48.5305 33.1625 48.6589 32.8275L48.7564 32.5716C48.8397 32.3347 48.935 32.1022 49.0419 31.875C49.2729 31.7748 49.5088 31.6863 49.7487 31.6097L50.0037 31.5206C50.0183 31.5155 50.0333 31.5103 50.0483 31.5042C53.1041 30.4359 53.4191 29.9925 53.4191 26.7558V24.5925C53.4191 21.3558 53.1041 20.9119 50.0483 19.8441L50.0164 19.8328L50.0019 19.8277L49.7431 19.7377C49.5045 19.6618 49.2698 19.5738 49.04 19.4742C48.9345 19.2482 48.8406 19.017 48.7587 18.7814L48.6603 18.5227C48.5319 18.1873 48.3953 17.857 48.2506 17.5317L48.1391 17.2828C48.013 17.0016 47.8822 16.71 47.8498 16.5905C47.9418 16.3571 48.0455 16.1285 48.1606 15.9056L48.2783 15.6623L48.2844 15.6502L48.2998 15.6178C49.7061 12.7027 49.6123 12.1664 47.2916 9.84469L45.7916 8.34469C43.5022 6.05531 42.9655 5.96484 40.0508 7.37016L39.7602 7.51078C39.5387 7.62525 39.3115 7.72835 39.0795 7.81969C38.8456 7.73552 38.6161 7.63961 38.3919 7.53234L38.1373 7.41844C37.812 7.27375 37.4822 7.13734 37.1478 7.00922L36.8923 6.91266C36.6027 6.8025 36.3036 6.68906 36.1958 6.62766C36.0953 6.39664 36.0064 6.16071 35.9295 5.92078L35.8466 5.68078L35.8255 5.62031C34.7586 2.56641 34.3152 2.25 31.0775 2.25H28.9109C25.6766 2.25 25.2317 2.56547 24.1484 5.66484C24.1455 5.67398 24.1424 5.68304 24.1391 5.69203L24.058 5.92641C23.9819 6.16503 23.894 6.3997 23.7945 6.62953C23.6863 6.69094 23.3895 6.80344 23.1027 6.91078L22.842 7.00969C22.508 7.1375 22.1778 7.27406 21.8516 7.41937L21.6012 7.53094C21.3758 7.63881 21.145 7.73518 20.9098 7.81969C20.7908 7.78359 20.5034 7.64438 20.2245 7.50938L19.9827 7.39172L19.9639 7.38281L19.9386 7.37063C17.022 5.96438 16.4862 6.05812 14.1978 8.34516L12.6659 9.87703C10.3775 12.1655 10.2861 12.7017 11.6923 15.6178L11.833 15.9117C11.9467 16.1322 12.0493 16.3583 12.1405 16.5891C12.0565 16.8218 11.9609 17.0503 11.8541 17.2734L11.7406 17.5266C11.5953 17.8534 11.4584 18.1847 11.33 18.5203L11.233 18.7753C11.1496 19.0123 11.0543 19.2449 10.9475 19.4723C10.7167 19.5729 10.4809 19.6616 10.2411 19.7381L9.93969 19.8427C6.88484 20.9109 6.57031 21.3544 6.57031 24.5911V26.7572C6.57172 29.9953 6.88625 30.4387 9.94203 31.507Z" fill="#008080"/>
<path d="M33.1922 36.4463C33.3179 36.4461 33.4428 36.4257 33.562 36.3858C35.9614 35.5875 38.0231 34.0065 39.4167 31.8966C40.8104 29.7866 41.4551 27.2698 41.2477 24.7496C41.0402 22.2295 39.9925 19.852 38.2726 17.9983C36.5527 16.1446 34.2601 14.9222 31.7625 14.5269C29.265 14.1317 26.707 14.5865 24.4987 15.8186C22.2905 17.0506 20.5599 18.9884 19.5844 21.3213C18.6089 23.6543 18.4451 26.2472 19.1191 28.6844C19.7931 31.1216 21.266 33.2619 23.3016 34.7621C23.5517 34.9466 23.8649 35.0243 24.1723 34.9779C24.4796 34.9315 24.756 34.7649 24.9405 34.5148C25.1251 34.2647 25.2027 33.9515 25.1564 33.6441C25.11 33.3367 24.9434 33.0604 24.6933 32.8758C23.0814 31.6875 21.9153 29.9924 21.3817 28.0623C20.8482 26.1321 20.9781 24.0787 21.7508 22.2313C22.5234 20.3838 23.894 18.8492 25.6428 17.8736C27.3916 16.898 29.4173 16.5378 31.3952 16.8507C33.3731 17.1637 35.1887 18.1317 36.5508 19.5996C37.913 21.0674 38.7429 22.9502 38.9074 24.9459C39.0719 26.9417 38.5616 28.9349 37.4582 30.606C36.3548 32.2772 34.7223 33.5294 32.8223 34.1621C32.558 34.2497 32.3335 34.4287 32.189 34.6668C32.0446 34.905 31.9898 35.1868 32.0343 35.4617C32.0788 35.7367 32.2198 35.9868 32.432 36.1672C32.6442 36.3476 32.9137 36.4466 33.1922 36.4463ZM55.0266 40.9876C54.3787 39.8369 53.3078 38.9841 52.0413 38.6103C50.7748 38.2366 49.4125 38.3714 48.2437 38.986L37.6312 44.5172C37.5047 43.7462 37.167 43.0253 36.6557 42.4345C36.1443 41.8437 35.4793 41.4062 34.7344 41.1704L27.1312 38.7797L24.6047 37.9876L20.0484 36.5485C17.3578 35.6954 17.0531 35.7235 14.5547 37.036L7.48593 40.7204C3.99843 42.5391 3.66093 43.6126 5.47968 47.1047L9.42656 54.6797C11.1937 58.0688 12.1172 58.3829 15.5906 56.7938L16.8187 56.2313L29.85 57.4969L30.7687 57.586C31.7156 57.6844 32.3953 57.7454 32.9625 57.7454C34.2656 57.7454 34.9641 57.4126 36.8953 56.3954L52.9547 48.0188C53.5617 47.7028 54.0988 47.2677 54.5337 46.7393C54.9687 46.2109 55.2925 45.6003 55.486 44.9438C55.6794 44.2874 55.7384 43.5986 55.6595 42.9189C55.5805 42.2391 55.3653 41.5822 55.0266 40.9876ZM53.2359 44.2829C53.1332 44.6376 52.9593 44.9677 52.7247 45.253C52.4902 45.5383 52.2 45.7728 51.8719 45.9422L36.6328 53.8876L35.8031 54.3235C33.5484 55.5094 33.5484 55.5094 31.0078 55.2563L16.7344 53.8688C16.6969 53.8688 16.6594 53.8641 16.6219 53.8641C16.4535 53.8641 16.2871 53.9009 16.1344 53.9719L14.6156 54.6657C14.1047 54.9001 12.9 55.4532 12.6328 55.3782C12.3797 55.2704 11.7656 54.0985 11.5078 53.5969L7.55625 46.0219C7.33125 45.586 6.64218 44.2641 6.72187 43.9876C6.81093 43.7157 8.13281 43.0266 8.56875 42.8016L15.6469 39.1079C16.1996 38.7567 16.8015 38.4898 17.4328 38.3157C17.7797 38.2876 18.3281 38.4657 19.3359 38.7844L23.9016 40.2188L25.95 40.8657L29.0625 41.8407L34.0312 43.4063C34.2661 43.4804 34.4841 43.6001 34.6727 43.7585C34.8613 43.9169 35.0168 44.1109 35.1304 44.3294C35.2441 44.5479 35.3135 44.7867 35.3348 45.0321C35.3561 45.2774 35.3289 45.5246 35.2547 45.7594V45.7641C35.1045 46.2384 34.7727 46.6338 34.3317 46.864C33.8907 47.0942 33.3765 47.1403 32.9016 46.9922L31.5375 46.5657L31.4109 46.5235L28.2984 45.5438L22.7719 43.8047C22.4754 43.7115 22.154 43.7399 21.8784 43.8836C21.6028 44.0273 21.3956 44.2746 21.3023 44.5711C21.2091 44.8676 21.2375 45.189 21.3812 45.4646C21.5249 45.7402 21.7722 45.9474 22.0687 46.0407L30.1828 48.5907L32.1984 49.2235L32.6531 49.3688C32.8199 49.42 32.9958 49.4343 33.1687 49.411C33.2672 49.4157 33.3656 49.4204 33.4641 49.4204C34.1714 49.4199 34.8672 49.2419 35.488 48.9029C36.1087 48.5639 36.6345 48.0746 37.0172 47.4797L49.3266 41.0626C49.8056 40.8142 50.347 40.712 50.8836 40.7687C51.4202 40.8254 51.9283 41.0386 52.3448 41.3816C52.7612 41.7247 53.0677 42.1826 53.2262 42.6984C53.3846 43.2142 53.388 43.7652 53.2359 44.2829Z" fill="#008080"/>
<path d="M34.9681 21.8812C34.7483 21.6615 34.4503 21.5381 34.1396 21.5381C33.8288 21.5381 33.5308 21.6615 33.311 21.8812L28.7234 26.4684L26.6749 24.4199C26.5668 24.308 26.4375 24.2187 26.2946 24.1573C26.1516 24.0959 25.9978 24.0636 25.8422 24.0622C25.6866 24.0609 25.5323 24.0905 25.3883 24.1495C25.2443 24.2084 25.1134 24.2954 25.0034 24.4054C24.8934 24.5155 24.8063 24.6463 24.7474 24.7903C24.6885 24.9343 24.6588 25.0886 24.6602 25.2442C24.6616 25.3998 24.6939 25.5536 24.7553 25.6966C24.8167 25.8396 24.906 25.9689 25.0179 26.077L27.8951 28.9542C28.1149 29.1739 28.4129 29.2973 28.7236 29.2973C29.0344 29.2973 29.3324 29.1739 29.5521 28.9542L34.9681 23.5382C35.1878 23.3185 35.3112 23.0204 35.3112 22.7097C35.3112 22.399 35.1878 22.101 34.9681 21.8812Z" fill="#008080"/>
</svg>
