<svg width="60" height="60" viewBox="0 0 60 60" fill="none" xmlns="http://www.w3.org/2000/svg">
<path d="M56.558 25.9001L54.1989 25.2817L53.5542 22.8758L55.291 21.1576C55.5676 20.8838 55.7457 20.5262 55.7975 20.1405C55.8492 19.7548 55.7716 19.3628 55.5769 19.0259L53.1759 14.8751C52.9812 14.5388 52.6806 14.2764 52.3211 14.1288C51.9616 13.9813 51.5634 13.9568 51.1885 14.0593L48.836 14.7035L47.0746 12.942L47.7187 10.5895C47.8212 10.2146 47.7968 9.8164 47.6492 9.45691C47.5016 9.09743 47.2392 8.7969 46.9029 8.6022L42.752 6.20126C42.4151 6.00651 42.0232 5.92891 41.6375 5.98061C41.2518 6.0323 40.8942 6.21037 40.6205 6.48697L38.9023 8.22392L36.4963 7.57916L35.878 5.22017C35.7793 4.84404 35.5588 4.51118 35.2509 4.2736C34.9431 4.03603 34.5652 3.9071 34.1763 3.90697H29.3801C28.9912 3.90714 28.6133 4.03608 28.3055 4.27365C27.9976 4.51123 27.7771 4.84406 27.6784 5.22017L27.6377 5.37521L23.2212 0.95853C22.4108 0.14853 21.0929 0.148648 20.2828 0.95853L18.5471 2.69431C17.8903 3.35115 17.7663 4.34197 18.1747 5.12525C17.0517 6.19037 16.0147 6.47044 14.8216 6.79013C13.4807 7.14931 11.9606 7.55654 10.3626 9.15451L3.92378 15.5935C3.44366 16.0735 3.17929 16.7133 3.17929 17.3953C3.17929 18.0772 3.44366 18.717 3.92378 19.1971C4.08445 19.358 4.266 19.4967 4.46355 19.6093L2.91175 21.1611C1.86796 22.2049 1.86796 23.9033 2.91175 24.9472C3.10555 25.1412 3.32808 25.3043 3.57151 25.4306C2.63812 26.4979 2.68007 28.1265 3.6969 29.1435C4.63241 30.079 6.0853 30.1892 7.14292 29.4746C7.27194 29.7337 7.44225 29.9702 7.64718 30.1747C8.16913 30.6966 8.85468 30.9576 9.54023 30.9576C10.2258 30.9576 10.9113 30.6966 11.4333 30.1747L18.1029 23.5051C18.8024 22.8056 19.2818 22.49 19.5407 22.3661C19.5558 22.4622 19.5682 22.598 19.5682 22.7851V24.8457C19.5682 27.134 21.5286 28.7287 23.2878 28.7287C23.8161 28.7287 24.2807 28.5719 24.6313 28.2749C25.0365 27.9318 25.2598 27.4212 25.2598 26.8373V18.9308C25.2598 17.441 25.7003 16.169 26.5998 15.0619C28.2609 14.4858 30.0016 14.1932 31.7781 14.1932C40.494 14.1932 47.585 21.2841 47.585 30.0001C47.585 38.3848 41.0224 45.2644 32.7641 45.7754L34.1327 44.4067C35.1262 43.4131 35.1262 41.7966 34.1327 40.803C33.972 40.6421 33.7905 40.5033 33.5931 40.3905L35.1446 38.839C36.1884 37.7952 36.1884 36.0969 35.1446 35.0528C34.9508 34.8588 34.7283 34.6958 34.4849 34.5695C34.9176 34.0749 35.154 33.4463 35.154 32.7801C35.154 32.052 34.8718 31.3689 34.3595 30.8567C33.8471 30.3442 33.1641 30.062 32.436 30.062C31.8845 30.062 31.3587 30.224 30.9134 30.5254C30.7844 30.2663 30.6141 30.03 30.4092 29.8256C29.9048 29.3212 29.2326 29.0435 28.5162 29.0435C27.7997 29.0435 27.1274 29.3212 26.6231 29.8256L19.9535 36.4952C19.254 37.1947 18.7746 37.5104 18.5157 37.6342C18.5006 37.5381 18.4882 37.4023 18.4882 37.2153V35.1547C18.4882 32.8665 16.5278 31.2717 14.7685 31.2717C14.2403 31.2717 13.7757 31.4286 13.4252 31.7254C13.0199 32.0685 12.7966 32.579 12.7966 33.1631V41.0696C12.7966 42.8075 12.1992 44.2496 10.9704 45.4784L10.7162 45.7327C9.94007 45.351 8.97397 45.4806 8.32886 46.1255L6.59319 47.8612C5.78319 48.6713 5.78319 49.9894 6.59319 50.7995L6.78421 50.9906L14.6094 58.8158L14.8353 59.0417C15.2403 59.4467 15.7724 59.6492 16.3044 59.6492C16.8364 59.6492 17.3686 59.4466 17.7737 59.0416L19.5094 57.3059C20.1662 56.649 20.2902 55.6581 19.8818 54.875C21.0048 53.8099 22.0418 53.5297 23.2349 53.2101C24.1012 52.9781 25.0423 52.7254 26.0307 52.1453L27.06 52.4211L27.6783 54.7804C27.7771 55.1565 27.9976 55.4892 28.3055 55.7267C28.6133 55.9642 28.9911 56.0931 29.38 56.0933H34.1762C34.5651 56.0932 34.9429 55.9643 35.2508 55.7267C35.5587 55.4891 35.7792 55.1563 35.8779 54.7802L36.4962 52.4211L38.9021 51.7764L40.6205 53.5135C40.8942 53.79 41.2518 53.968 41.6375 54.0197C42.0231 54.0714 42.415 53.9938 42.7519 53.7992L46.9025 51.3983C47.2389 51.2036 47.5014 50.903 47.649 50.5435C47.7966 50.1839 47.8211 49.7857 47.7186 49.4108L47.0744 47.0583L48.8359 45.2969L51.1885 45.9411C51.5634 46.0435 51.9616 46.0191 52.3211 45.8715C52.6806 45.7239 52.9811 45.4615 53.1758 45.1252L55.5769 40.9741C55.7715 40.6372 55.8491 40.2453 55.7973 39.8597C55.7456 39.4741 55.5676 39.1165 55.291 38.8428L53.5541 37.1246L54.1987 34.7186L56.5578 34.1002C56.934 34.0015 57.2668 33.781 57.5044 33.4731C57.7419 33.1653 57.8708 32.7874 57.8709 32.3985V27.6023C57.8708 27.2134 57.7419 26.8355 57.5044 26.5277C57.2668 26.2198 56.934 25.9993 56.5578 25.9006L56.558 25.9001ZM19.8729 4.02017L21.6084 2.28451C21.6473 2.2456 21.6996 2.22615 21.752 2.22615C21.8044 2.22615 21.8565 2.2456 21.8953 2.28439L30.1373 10.5265C30.1853 10.5745 30.1953 10.6311 30.1953 10.67C30.1953 10.7089 30.1853 10.7654 30.1373 10.8134L28.4018 12.549C28.3241 12.6267 28.1927 12.6269 28.115 12.549L19.873 4.30693C19.8356 4.26855 19.8147 4.21711 19.8147 4.16355C19.8147 4.10999 19.8356 4.05855 19.873 4.02017H19.8729ZM23.3848 18.9305V26.8472C23.2437 26.871 22.8871 26.8443 22.4482 26.5735C22.1461 26.387 21.4433 25.8455 21.4433 24.8454V22.7848C21.4433 21.5974 21.0746 20.8426 20.3475 20.5414C19.415 20.1553 18.2807 20.6757 16.777 22.1791L10.1074 28.8487C9.95688 28.9989 9.75289 29.0833 9.54023 29.0833C9.32756 29.0833 9.12357 28.9989 8.97304 28.8487C8.82281 28.6981 8.73844 28.4941 8.73844 28.2814C8.73844 28.0688 8.82281 27.8648 8.97304 27.7142L14.1845 22.5028C14.2724 22.4159 14.3423 22.3125 14.3901 22.1985C14.4379 22.0846 14.4627 21.9623 14.4631 21.8387C14.4634 21.7151 14.4394 21.5926 14.3922 21.4784C14.3451 21.3641 14.2759 21.2603 14.1885 21.1729C14.1011 21.0855 13.9972 21.0163 13.883 20.9692C13.7687 20.922 13.6463 20.898 13.5227 20.8984C13.3991 20.8987 13.2768 20.9236 13.1628 20.9714C13.0489 21.0192 12.9455 21.0891 12.8586 21.177L6.93269 27.1029L6.93245 27.1033L6.21831 27.8176C5.88866 28.1471 5.35241 28.1472 5.023 27.8176C4.69347 27.488 4.69347 26.9518 5.023 26.6221L6.57269 25.0723L11.5474 20.0977C11.6353 20.0108 11.7052 19.9075 11.753 19.7935C11.8008 19.6795 11.8256 19.5572 11.826 19.4336C11.8264 19.31 11.8023 19.1876 11.7552 19.0733C11.708 18.9591 11.6388 18.8553 11.5514 18.7679C11.464 18.6805 11.3602 18.6112 11.2459 18.5641C11.1317 18.517 11.0092 18.4929 10.8856 18.4933C10.762 18.4937 10.6397 18.5185 10.5258 18.5663C10.4118 18.6142 10.3084 18.684 10.2216 18.772L5.37233 23.6212L5.37022 23.6233C5.05733 23.934 4.54991 23.9334 4.23796 23.6212C4.08773 23.4706 4.00336 23.2666 4.00336 23.0539C4.00336 22.8413 4.08773 22.6373 4.23796 22.4867L6.99983 19.7248L7.00042 19.7242L7.52776 19.1969L10.6297 16.0949C10.7176 16.0081 10.7875 15.9047 10.8353 15.7907C10.8831 15.6767 10.9079 15.5544 10.9083 15.4308C10.9087 15.3073 10.8846 15.1848 10.8375 15.0706C10.7903 14.9563 10.7211 14.8525 10.6337 14.7651C10.5463 14.6777 10.4425 14.6085 10.3282 14.5613C10.214 14.5142 10.0915 14.4902 9.96793 14.4905C9.84433 14.4909 9.72203 14.5157 9.60807 14.5636C9.4941 14.6114 9.39071 14.6813 9.30386 14.7692L6.20155 17.8715C6.07517 17.9974 5.90402 18.0681 5.72561 18.0681C5.54719 18.068 5.37608 17.9973 5.24976 17.8713C5.18736 17.8088 5.13798 17.7345 5.10447 17.6528C5.07096 17.5711 5.05398 17.4836 5.05452 17.3953C5.05452 17.2142 5.1239 17.0452 5.24976 16.9192L11.6887 10.4802C12.9314 9.23759 14.0323 8.94263 15.307 8.60126C16.56 8.26564 17.9728 7.88455 19.4316 6.51697L25.9355 13.0209L25.7605 13.196C24.1843 14.772 23.385 16.7015 23.385 18.9305H23.3848ZM18.1833 55.9798L16.4477 57.7155C16.37 57.7929 16.2387 57.7934 16.161 57.7155L15.9351 57.4897L8.10995 49.6644L7.91893 49.4733C7.88158 49.435 7.86068 49.3836 7.86068 49.33C7.86068 49.2765 7.88158 49.2251 7.91893 49.1867L9.65448 47.451C9.69339 47.4121 9.74565 47.3928 9.79804 47.3928C9.85042 47.3928 9.90257 47.4121 9.94136 47.451L18.1834 55.6932C18.2207 55.7315 18.2416 55.783 18.2416 55.8365C18.2416 55.89 18.2207 55.9415 18.1834 55.9798H18.1833ZM22.7496 51.3986C21.4965 51.7342 20.0837 52.1153 18.6248 53.4829L12.1209 46.979L12.2959 46.804C13.8721 45.228 14.6714 43.2986 14.6714 41.0694V33.1526C14.8121 33.1292 15.1691 33.1554 15.608 33.4264C15.9101 33.6128 16.6128 34.1545 16.6128 35.1544V37.2151C16.6128 38.4025 16.9815 39.1573 17.7087 39.4586C18.6411 39.8447 19.7757 39.3243 21.2791 37.8209L27.9487 31.1512C28.0989 31.001 28.3003 30.9183 28.5159 30.9183C28.7316 30.9183 28.933 31.0011 29.0831 31.1512C29.2333 31.3014 29.316 31.5028 29.316 31.7184C29.316 31.934 29.2337 32.1344 29.0842 32.2845L23.8718 37.497C23.7847 37.5841 23.7157 37.6874 23.6686 37.8012C23.6214 37.9149 23.5972 38.0368 23.5972 38.1599C23.5972 38.2831 23.6214 38.405 23.6686 38.5187C23.7157 38.6325 23.7847 38.7358 23.8718 38.8229C23.9588 38.9099 24.0622 38.979 24.1759 39.0261C24.2897 39.0732 24.4116 39.0975 24.5347 39.0975C24.6578 39.0975 24.7797 39.0732 24.8935 39.0261C25.0072 38.979 25.1106 38.9099 25.1976 38.8229L30.9893 33.0311L30.9899 33.0304L31.8382 32.1822C31.9965 32.0239 32.2086 31.9368 32.4357 31.9368C32.6628 31.9368 32.8751 32.0239 33.0335 32.1823C33.1919 32.3408 33.2789 32.5527 33.2789 32.78C33.2789 33.0072 33.1918 33.2193 33.0334 33.3776L32.0088 34.4022L31.3583 35.0527L26.509 39.902C26.4219 39.9891 26.3529 40.0925 26.3057 40.2062C26.2586 40.3199 26.2344 40.4419 26.2344 40.565C26.2344 40.6881 26.2586 40.81 26.3057 40.9238C26.3529 41.0375 26.4219 41.1409 26.509 41.2279C26.596 41.315 26.6994 41.384 26.8131 41.4311C26.9269 41.4783 27.0488 41.5025 27.1719 41.5025C27.295 41.5025 27.4169 41.4783 27.5307 41.4311C27.6444 41.384 27.7478 41.315 27.8348 41.2279L32.6842 36.3786C32.8347 36.2283 33.0387 36.1439 33.2514 36.1439C33.464 36.1439 33.668 36.2283 33.8185 36.3786C33.9687 36.5287 34.0514 36.7301 34.0514 36.9458C34.0514 37.1614 33.9687 37.3628 33.8185 37.5131L30.9528 40.3789L30.9506 40.3809L27.4267 43.9048C27.2509 44.0806 27.1521 44.3191 27.1521 44.5678C27.1521 44.8164 27.2509 45.0549 27.4267 45.2307C27.6025 45.4065 27.841 45.5053 28.0896 45.5053C28.3382 45.5053 28.5767 45.4065 28.7525 45.2307L31.8547 42.1285L31.8567 42.1265C31.9191 42.0647 31.9931 42.0158 32.0745 41.9827C32.1558 41.9495 32.2429 41.9327 32.3307 41.9333C32.5118 41.9333 32.6808 42.0026 32.8067 42.1286C33.0648 42.3865 33.0648 42.8226 32.8067 43.0805L26.3679 49.5195C25.1252 50.7622 24.0244 51.0571 22.7496 51.3986ZM55.996 32.3088L53.1966 33.0426C53.0365 33.0845 52.8904 33.1681 52.7732 33.2847C52.6559 33.4014 52.5715 33.547 52.5287 33.7068L51.6021 37.1651C51.5593 37.3249 51.5596 37.4932 51.6028 37.6529C51.6461 37.8125 51.7308 37.9579 51.8484 38.0743L53.9092 40.1127L51.5978 44.1088L48.806 43.3444C48.6464 43.3007 48.4781 43.3 48.3182 43.3424C48.1582 43.3848 48.0124 43.4687 47.8953 43.5857L45.3636 46.1174C45.2467 46.2345 45.1628 46.3804 45.1204 46.5403C45.078 46.7002 45.0787 46.8685 45.1223 47.0281L45.8867 49.8197L41.8905 52.1313L39.8521 50.0705C39.7357 49.9529 39.5904 49.8681 39.4307 49.8248C39.271 49.7816 39.1027 49.7814 38.9429 49.8242L35.4847 50.7508C35.3249 50.7936 35.1793 50.878 35.0626 50.9953C34.946 51.1125 34.8624 51.2586 34.8205 51.4186L34.0867 54.2181H29.469L28.7352 51.4186C28.6932 51.2586 28.6097 51.1125 28.493 50.9953C28.3764 50.878 28.2308 50.7936 28.071 50.7508L27.8481 50.6911L30.8823 47.6569C31.181 47.6718 31.4804 47.6821 31.7777 47.6821C41.5275 47.6821 49.4597 39.7499 49.4597 30.0002C49.4597 20.2504 41.5275 12.3183 31.7777 12.3183C31.6101 12.3183 31.4429 12.3215 31.2759 12.3262L31.4626 12.1395C31.8542 11.748 32.0699 11.2263 32.0699 10.6702C32.0699 10.1142 31.8542 9.59255 31.4627 9.20103L29.1729 6.91119L29.4688 5.7822H34.0864L34.8203 8.58158C34.8622 8.7416 34.9458 8.88768 35.0624 9.00498C35.1791 9.12227 35.3247 9.20661 35.4845 9.24943L38.9427 10.1761C39.1025 10.2189 39.2707 10.2187 39.4304 10.1754C39.5901 10.1322 39.7355 10.0475 39.8518 9.92994L41.8903 7.86931L45.8865 10.1807L45.1221 12.9724C45.0784 13.1319 45.0777 13.3002 45.1201 13.4601C45.1625 13.62 45.2464 13.7659 45.3634 13.8829L47.8951 16.4146C48.0121 16.5316 48.158 16.6155 48.3179 16.6579C48.4778 16.7002 48.6461 16.6996 48.8057 16.6559L51.5974 15.8915L53.9089 19.8876L51.8482 21.9261C51.7306 22.0424 51.6459 22.1878 51.6026 22.3475C51.5593 22.5071 51.5591 22.6754 51.6019 22.8352L52.5285 26.2933C52.5713 26.4531 52.6556 26.5987 52.7729 26.7154C52.8902 26.832 53.0363 26.9156 53.1963 26.9575L55.9958 27.6913V32.309L55.996 32.3088Z" fill="#008080"/>
</svg>
