<svg width="60" height="60" viewBox="0 0 60 60" fill="none" xmlns="http://www.w3.org/2000/svg">
<path d="M52.65 33.1098C52.4014 33.1098 52.1629 33.2086 51.9871 33.3844C51.8113 33.5602 51.7125 33.7987 51.7125 34.0473V41.9683C51.7125 42.2169 51.6137 42.4554 51.4379 42.6312C51.2621 42.807 51.0236 42.9058 50.775 42.9058H6.5625C6.31386 42.9058 6.0754 42.807 5.89959 42.6312C5.72377 42.4554 5.625 42.2169 5.625 41.9683V13.7495C5.625 13.5009 5.72377 13.2624 5.89959 13.0866C6.0754 12.9108 6.31386 12.812 6.5625 12.812H26.1844C26.433 12.812 26.6715 12.7132 26.8473 12.5374C27.0231 12.3616 27.1219 12.1232 27.1219 11.8745C27.1219 11.6259 27.0231 11.3874 26.8473 11.2116C26.6715 11.0358 26.433 10.937 26.1844 10.937H6.5625C5.81681 10.9378 5.10187 11.2343 4.57458 11.7616C4.0473 12.2889 3.75074 13.0038 3.75 13.7495V41.9683C3.75074 42.714 4.0473 43.4289 4.57458 43.9562C5.10187 44.4835 5.81681 44.78 6.5625 44.7808H24.7331V47.6523C24.731 48.4066 24.6333 49.1576 24.4425 49.8873C14.4113 50.4873 10.7869 53.102 10.62 53.2276C10.426 53.378 10.2988 53.5985 10.2656 53.8417C10.2324 54.0849 10.2959 54.3314 10.4425 54.5283C10.589 54.7252 10.8069 54.8567 11.0494 54.8947C11.2919 54.9327 11.5396 54.8741 11.7394 54.7314C11.7816 54.7005 16.1419 51.6358 28.6678 51.6358C42.0675 51.7014 44.9653 54.7014 46.1522 54.9151C46.3471 54.9114 46.5361 54.8474 46.6932 54.7319C46.8502 54.6164 46.9677 54.4552 47.0295 54.2702C47.0912 54.0853 47.0942 53.8858 47.038 53.6991C46.9818 53.5125 46.8692 53.3478 46.7156 53.2276C46.5488 53.102 42.9244 50.4873 32.8931 49.8873C32.5996 48.202 32.5021 46.4885 32.6025 44.7808H50.775C51.5207 44.78 52.2356 44.4835 52.7629 43.9562C53.2902 43.4289 53.5868 42.714 53.5875 41.9683V34.0464C53.5875 33.7977 53.4887 33.5593 53.3129 33.3835C53.1371 33.2077 52.8986 33.1098 52.65 33.1098ZM26.3813 49.7973C26.5285 49.0917 26.6045 48.3731 26.6081 47.6523V44.7808H30.7275C30.6474 46.4561 30.7233 48.1352 30.9544 49.7964C29.4304 49.7494 27.9053 49.7503 26.3813 49.7973Z" fill="#008080"/>
<path d="M54.4016 17.1002C54.375 17.0991 54.3493 17.0903 54.3277 17.0748C54.306 17.0593 54.2894 17.0378 54.2797 17.013C53.9722 15.378 53.1575 14.2661 52.7178 13.0324C53.0451 12.6461 53.2145 12.1506 53.1923 11.6448C53.17 11.1391 52.9577 10.6603 52.5978 10.3043L51.0228 8.72926C50.6671 8.36871 50.1882 8.15605 49.6822 8.13397C49.1761 8.11188 48.6805 8.28201 48.2947 8.6102C47.0213 7.96382 45.689 7.44081 44.316 7.04832C44.2904 7.03825 44.2683 7.02089 44.2525 6.9984C44.2366 6.9759 44.2277 6.94926 44.2269 6.92176C44.1847 6.41754 43.9539 5.94777 43.5807 5.60615C43.2074 5.26453 42.7191 5.07617 42.2132 5.07864H39.9866C39.4863 5.07621 39.0031 5.26051 38.6316 5.59549C38.26 5.93048 38.0268 6.39204 37.9775 6.88989C37.9775 6.95551 37.9447 7.03426 37.8847 7.04739C36.5337 7.37276 35.2418 7.90734 34.056 8.63176C34.0316 8.64421 34.004 8.64874 33.9769 8.6447C33.9498 8.64067 33.9247 8.62828 33.905 8.60926C33.5187 8.28223 33.0232 8.11295 32.5175 8.13519C32.0118 8.15743 31.5331 8.36957 31.1769 8.72926L29.6028 10.3043C29.2431 10.6604 29.031 11.1391 29.0088 11.6448C28.9865 12.1505 29.1558 12.646 29.4828 13.0324C29.046 14.2605 28.2257 15.3874 27.92 17.013C27.9104 17.0384 27.8933 17.0604 27.8711 17.0761C27.8489 17.0918 27.8225 17.1005 27.7953 17.1011C27.2914 17.1434 26.8218 17.374 26.4804 17.7471C26.1389 18.1201 25.9507 18.6082 25.9532 19.1139V21.3405C25.9505 21.8471 26.1393 22.3361 26.4818 22.7095C26.8242 23.0829 27.2951 23.3131 27.8 23.3543C27.8265 23.3554 27.852 23.3644 27.8734 23.3801C27.8947 23.3958 27.911 23.4175 27.92 23.4424C28.2294 25.0793 29.0469 26.1949 29.4828 27.4221C29.1556 27.8083 28.9862 28.3039 29.0084 28.8096C29.0307 29.3154 29.243 29.7941 29.6028 30.1502L31.1778 31.7261C31.5342 32.0853 32.0128 32.2969 32.5183 32.3188C33.0238 32.3407 33.5189 32.1713 33.905 31.8443C33.9251 31.8259 33.9502 31.814 33.9772 31.8101C34.0041 31.8063 34.0316 31.8107 34.056 31.8227C35.2421 32.5479 36.5347 33.0825 37.8866 33.4071C37.9447 33.4183 37.9775 33.5018 37.9785 33.5664C38.0279 34.0639 38.2612 34.525 38.6325 34.8596C39.0039 35.1942 39.4867 35.3783 39.9866 35.3758H42.2132C42.7197 35.3782 43.2085 35.1893 43.5819 34.8469C43.9552 34.5045 44.1856 34.0338 44.2269 33.5289C44.2279 33.5021 44.2369 33.4761 44.2528 33.4544C44.2687 33.4327 44.2907 33.4162 44.316 33.4071C45.6891 33.0139 47.0214 32.4903 48.2947 31.8433C48.6805 32.1714 49.176 32.3416 49.682 32.3197C50.1879 32.2978 50.6669 32.0854 51.0228 31.7252L52.5978 30.1502C52.9574 29.7939 53.1694 29.3151 53.1914 28.8094C53.2135 28.3037 53.0441 27.8083 52.7169 27.4221C53.1557 26.193 53.975 25.0689 54.2797 23.4414C54.2895 23.416 54.3067 23.3941 54.3291 23.3785C54.3515 23.363 54.3781 23.3545 54.4053 23.3543C54.9096 23.3123 55.3795 23.0816 55.7212 22.7083C56.0629 22.335 56.2512 21.8465 56.2485 21.3405V19.1139C56.2508 18.6075 56.0619 18.1188 55.7195 17.7456C55.3771 17.3724 54.9064 17.1413 54.4016 17.1002ZM54.3735 21.3414C54.3735 21.3786 54.3594 21.4143 54.3339 21.4413C54.3085 21.4683 54.2736 21.4846 54.2366 21.4868C53.8182 21.5215 53.4212 21.6869 53.1018 21.9594C52.7824 22.2319 52.5566 22.5978 52.4563 23.0055C52.1781 24.1663 51.719 25.2761 51.096 26.2943C50.878 26.6536 50.7786 27.0723 50.8117 27.4912C50.8449 27.9102 51.0089 28.3081 51.2807 28.6286C51.3044 28.6564 51.3168 28.6922 51.3152 28.7287C51.3137 28.7653 51.2983 28.7999 51.2722 28.8255L49.6972 30.4005C49.6711 30.4259 49.6366 30.4407 49.6002 30.4421C49.5639 30.4434 49.5283 30.4313 49.5003 30.408C49.1797 30.1369 48.782 29.9732 48.3633 29.9401C47.9447 29.907 47.5262 30.006 47.1669 30.2233C46.1489 30.8462 45.0395 31.3055 43.8791 31.5846C43.4707 31.6847 43.1042 31.9108 42.8314 32.2308C42.5587 32.5509 42.3935 32.9486 42.3594 33.3677C42.3566 33.4044 42.3399 33.4387 42.3127 33.4636C42.2856 33.4885 42.25 33.5021 42.2132 33.5018H39.9866C39.9653 33.5007 39.9444 33.4954 39.9253 33.486C39.9061 33.4767 39.8891 33.4636 39.8751 33.4474C39.8612 33.4313 39.8507 33.4125 39.8442 33.3922C39.8377 33.3719 39.8355 33.3505 39.8375 33.3293C39.7967 32.9177 39.6293 32.5289 39.3583 32.2164C39.0873 31.9039 38.7261 31.6832 38.3244 31.5846C37.163 31.306 36.0526 30.8466 35.0338 30.2233C34.6741 30.0062 34.2555 29.9073 33.8367 29.9406C33.418 29.9739 33.0202 30.1377 32.6994 30.4089C32.6716 30.4327 32.6358 30.4451 32.5993 30.4435C32.5628 30.442 32.5282 30.4266 32.5025 30.4005L30.9285 28.8255C30.9024 28.7999 30.887 28.7653 30.8854 28.7287C30.8839 28.6922 30.8962 28.6564 30.92 28.6286C31.1918 28.3081 31.3558 27.9102 31.3889 27.4912C31.4221 27.0723 31.3226 26.6536 31.1047 26.2943C30.4816 25.276 30.0222 24.1663 29.7435 23.0055C29.6435 22.5971 29.4175 22.2305 29.0974 21.9579C28.7773 21.6853 28.3795 21.5204 27.9603 21.4868C27.9241 21.4835 27.8904 21.4667 27.866 21.4398C27.8415 21.4129 27.828 21.3778 27.8282 21.3414V19.1149C27.8281 19.0779 27.8421 19.0423 27.8673 19.0153C27.8926 18.9883 27.9272 18.972 27.9641 18.9696C28.3822 18.9351 28.779 18.7702 29.0983 18.498C29.4176 18.2258 29.6433 17.8601 29.7435 17.4527C30.0223 16.2914 30.4817 15.181 31.1047 14.1621C31.3228 13.8028 31.4223 13.384 31.3891 12.9651C31.356 12.5461 31.1919 12.1482 30.92 11.8277C30.8964 11.7998 30.8842 11.764 30.8859 11.7274C30.8876 11.6909 30.9032 11.6563 30.9294 11.6308L32.5035 10.0558C32.5289 10.0299 32.5633 10.0145 32.5996 10.0128C32.6359 10.011 32.6716 10.023 32.6994 10.0464C33.0198 10.3184 33.4177 10.4827 33.8366 10.5161C34.2556 10.5494 34.6744 10.45 35.0338 10.2321C36.0529 9.6093 37.1632 9.14999 38.3244 8.87082C38.7262 8.77215 39.0875 8.55126 39.3585 8.23862C39.6295 7.92597 39.7969 7.53695 39.8375 7.1252C39.8355 7.10396 39.8378 7.08252 39.8443 7.0622C39.8508 7.04188 39.8614 7.02311 39.8755 7.00704C39.8895 6.99097 39.9067 6.97795 39.926 6.96876C39.9453 6.95958 39.9662 6.95443 39.9875 6.95364H42.2132C42.2506 6.95335 42.2867 6.96751 42.3139 6.99319C42.3412 7.01886 42.3575 7.05406 42.3594 7.09145C42.3943 7.50959 42.5596 7.90623 42.8319 8.22546C43.1042 8.5447 43.4698 8.77042 43.8772 8.87082C45.0378 9.14925 46.1475 9.60795 47.166 10.2302C47.525 10.4487 47.9438 10.5485 48.3628 10.5155C48.7819 10.4825 49.1799 10.3184 49.5003 10.0464C49.5282 10.0229 49.5639 10.0106 49.6004 10.0122C49.6369 10.0138 49.6715 10.029 49.6972 10.0549L51.2722 11.6299C51.2984 11.6554 51.314 11.6899 51.3157 11.7265C51.3175 11.763 51.3053 11.7989 51.2816 11.8268C51.0095 12.147 50.8452 12.5447 50.8119 12.9635C50.7786 13.3823 50.878 13.801 51.096 14.1602C51.7192 15.1797 52.1786 16.2907 52.4572 17.4527C52.558 17.8604 52.7844 18.2261 53.1044 18.4981C53.4244 18.7701 53.8217 18.9347 54.2403 18.9686C54.2767 18.9717 54.3106 18.9883 54.3353 19.0153C54.36 19.0422 54.3736 19.0774 54.3735 19.1139V21.3414Z" fill="#008080"/>
<path d="M41.1003 11.3486C39.3443 11.3486 37.6278 11.8693 36.1678 12.8449C34.7078 13.8204 33.5699 15.207 32.8979 16.8292C32.226 18.4515 32.0502 20.2366 32.3927 21.9588C32.7353 23.681 33.5809 25.2629 34.8225 26.5045C36.0641 27.7462 37.646 28.5917 39.3682 28.9343C41.0904 29.2769 42.8755 29.101 44.4978 28.4291C46.12 27.7571 47.5066 26.6192 48.4822 25.1592C49.4577 23.6992 49.9784 21.9827 49.9784 20.2268C49.9754 17.873 49.0391 15.6166 47.3748 13.9523C45.7104 12.2879 43.454 11.3516 41.1003 11.3486ZM41.1003 27.2308C39.7152 27.2308 38.3612 26.8201 37.2095 26.0506C36.0579 25.2811 35.1603 24.1873 34.6302 22.9077C34.1002 21.628 33.9615 20.2199 34.2317 18.8615C34.5019 17.503 35.1689 16.2551 36.1483 15.2757C37.1277 14.2963 38.3756 13.6294 39.734 13.3591C41.0925 13.0889 42.5006 13.2276 43.7802 13.7577C45.0599 14.2877 46.1536 15.1853 46.9232 16.337C47.6927 17.4886 48.1034 18.8426 48.1034 20.2277C48.1009 22.0843 47.3623 23.8641 46.0495 25.1769C44.7367 26.4897 42.9568 27.2283 41.1003 27.2308ZM13.4028 30.8561C13.227 30.6804 12.9885 30.5816 12.74 30.5816C12.4914 30.5816 12.253 30.6804 12.0771 30.8561L8.91121 34.0221C8.73545 34.1979 8.63672 34.4363 8.63672 34.6849C8.63672 34.9335 8.73545 35.1719 8.91121 35.3477L12.0771 38.5136C12.1636 38.6032 12.2671 38.6746 12.3815 38.7237C12.4958 38.7729 12.6188 38.7987 12.7433 38.7998C12.8678 38.8009 12.9913 38.7772 13.1065 38.73C13.2217 38.6829 13.3264 38.6133 13.4144 38.5253C13.5024 38.4372 13.572 38.3326 13.6192 38.2173C13.6663 38.1021 13.69 37.9787 13.6889 37.8542C13.6879 37.7297 13.662 37.6067 13.6129 37.4923C13.5637 37.3779 13.4923 37.2745 13.4028 37.188L10.8996 34.6849L13.4028 32.1818C13.5785 32.006 13.6773 31.7675 13.6773 31.5189C13.6773 31.2704 13.5785 31.0319 13.4028 30.8561ZM23.1565 37.1871C23.067 37.2736 22.9956 37.377 22.9464 37.4914C22.8973 37.6058 22.8714 37.7288 22.8703 37.8533C22.8693 37.9777 22.893 38.1012 22.9401 38.2164C22.9873 38.3316 23.0569 38.4363 23.1449 38.5243C23.2329 38.6123 23.3376 38.682 23.4528 38.7291C23.568 38.7762 23.6915 38.8 23.816 38.7989C23.9404 38.7978 24.0635 38.7719 24.1778 38.7228C24.2922 38.6737 24.3957 38.6022 24.4821 38.5127L27.6481 35.3468C27.8238 35.171 27.9226 34.9325 27.9226 34.6839C27.9226 34.4354 27.8238 34.1969 27.6481 34.0211L24.4821 30.8552C24.3053 30.6844 24.0685 30.5899 23.8227 30.5921C23.5769 30.5942 23.3418 30.6928 23.1679 30.8666C22.9941 31.0404 22.8955 31.2756 22.8934 31.5214C22.8913 31.7672 22.9857 32.004 23.1565 32.1808L25.6596 34.6839L23.1565 37.1871ZM18.1615 31.2911L16.579 37.623C16.5468 37.7432 16.5388 37.8687 16.5555 37.992C16.5722 38.1153 16.6134 38.2341 16.6765 38.3414C16.7396 38.4486 16.8235 38.5423 16.9232 38.6168C17.0228 38.6913 17.1364 38.7453 17.2571 38.7755C17.3779 38.8056 17.5034 38.8115 17.6265 38.7926C17.7495 38.7738 17.8675 38.7306 17.9737 38.6657C18.0799 38.6007 18.1721 38.5153 18.2449 38.4143C18.3177 38.3134 18.3697 38.1989 18.3978 38.0777L19.9793 31.7458C20.0299 31.5083 19.9862 31.2604 19.8576 31.0543C19.729 30.8483 19.5254 30.7003 19.2898 30.6413C19.0542 30.5824 18.8049 30.6172 18.5945 30.7384C18.384 30.8596 18.2288 31.0578 18.1615 31.2911Z" fill="#008080"/>
</svg>
