<svg width="60" height="60" viewBox="0 0 60 60" fill="none" xmlns="http://www.w3.org/2000/svg">
<path d="M51.5625 7.5H8.4375C7.19475 7.50149 6.00334 7.99583 5.12458 8.87458C4.24583 9.75334 3.75149 10.9448 3.75 12.1875V47.8125C3.75149 49.0552 4.24583 50.2467 5.12458 51.1254C6.00334 52.0042 7.19475 52.4985 8.4375 52.5H51.5625C52.8052 52.4985 53.9967 52.0042 54.8754 51.1254C55.7542 50.2467 56.2485 49.0552 56.25 47.8125V12.1875C56.2485 10.9448 55.7542 9.75334 54.8754 8.87458C53.9967 7.99583 52.8052 7.50149 51.5625 7.5ZM34.7925 50.625H25.2075C20.5528 46.3988 23.7094 38.3944 30 38.4656C36.2887 38.3944 39.4481 46.3988 34.7925 50.625ZM40.6519 49.2094C40.5 49.7016 40.2619 50.1506 40.0791 50.625H37.2666C41.4591 44.8903 37.1138 36.4969 30 36.5906C22.8872 36.4959 18.54 44.8931 22.7325 50.625H19.92C19.4569 49.6369 19.2197 48.1894 17.9738 47.8875L16.05 47.3222C16.0175 47.3107 15.9893 47.2895 15.9692 47.2616C15.9491 47.2336 15.938 47.2001 15.9375 47.1656V43.8281C15.9375 43.7034 16.2056 43.6181 16.2591 43.6022L17.97 43.0969C18.2881 43.0024 18.579 42.8334 18.8186 42.6038C19.0581 42.3742 19.2394 42.0907 19.3472 41.7769C19.6847 40.8 20.4394 39.7069 19.8066 38.6803L18.8438 36.9281C18.8277 36.8957 18.8223 36.859 18.8284 36.8233C18.8344 36.7876 18.8516 36.7547 18.8775 36.7294L21.2306 34.3762C21.2562 34.3483 21.2901 34.3295 21.3273 34.3225C21.3645 34.3156 21.403 34.321 21.4369 34.3378L23.2041 35.31C24.2503 35.9259 25.2834 35.1928 26.2809 34.8347C26.5968 34.7321 26.8829 34.554 27.1144 34.3158C27.3459 34.0776 27.5158 33.7865 27.6094 33.4678L28.1616 31.5591C28.1728 31.5231 28.1952 31.4917 28.2256 31.4694C28.256 31.4472 28.2927 31.4352 28.3303 31.4353H31.6678C31.7916 31.4353 31.8722 31.6753 31.8928 31.7409C32.2275 32.8041 32.4075 34.4916 33.7022 34.8291C34.7241 35.1966 35.7413 35.9259 36.8081 35.3034L38.5566 34.3397C38.5908 34.3215 38.6301 34.3152 38.6683 34.3218C38.7065 34.3284 38.7414 34.3476 38.7675 34.3762L41.1206 36.7294C41.1477 36.7561 41.1652 36.791 41.1703 36.8286C41.1753 36.8663 41.1678 36.9046 41.1488 36.9375L40.1925 38.6841C39.555 39.7134 40.3219 40.8103 40.6556 41.7891C40.7636 42.1021 40.9445 42.385 41.1835 42.6142C41.4225 42.8434 41.7127 43.0124 42.03 43.1072L43.9331 43.6584C43.9699 43.6694 44.0023 43.6919 44.0254 43.7226C44.0485 43.7533 44.0612 43.7906 44.0616 43.8291V47.1666C44.0616 47.2884 43.7831 47.3709 43.74 47.3831C42.6666 47.73 41.0137 47.9119 40.6519 49.2094ZM54.375 47.8125C54.3743 48.5582 54.0777 49.2731 53.5504 49.8004C53.0231 50.3277 52.3082 50.6243 51.5625 50.625H42.0938C42.2644 50.3503 42.3122 49.8628 42.5559 49.6866L44.2613 49.1831C44.7274 49.0855 45.1467 48.8329 45.4511 48.4666C45.7554 48.1003 45.9269 47.6418 45.9375 47.1656V43.8281C45.9388 43.3845 45.7957 42.9524 45.5299 42.5973C45.264 42.2421 44.8898 41.9831 44.4638 41.8594L42.5513 41.3063C42.2887 40.8055 42.0545 40.2903 41.85 39.7631C41.8348 39.7357 41.8258 39.7053 41.8237 39.674C41.8216 39.6427 41.8264 39.6114 41.8378 39.5822L42.7875 37.8497C43.0054 37.4605 43.0901 37.0108 43.0287 36.569C42.9672 36.1273 42.763 35.7177 42.4472 35.4028L40.0941 33.0497C39.7819 32.7334 39.3751 32.5276 38.9354 32.4634C38.4956 32.3993 38.047 32.4804 37.6575 32.6944L35.9175 33.6525C35.8877 33.6653 35.8553 33.6713 35.8229 33.67C35.7905 33.6687 35.7587 33.6602 35.73 33.645C35.2772 33.3703 34.6313 33.2709 34.1916 32.9475L33.6928 31.2141C33.5879 30.7522 33.3318 30.3386 32.9651 30.0389C32.5985 29.7391 32.1422 29.5704 31.6687 29.5594H28.3312C27.8883 29.5611 27.4578 29.7053 27.1032 29.9707C26.7486 30.2361 26.4889 30.6087 26.3625 31.0331L25.8094 32.9456C25.7944 32.9953 25.7494 33.0347 25.6594 33.0656C25.1091 33.2109 24.6187 33.5831 24.0966 33.66L22.3387 32.6925C21.9497 32.4791 21.5017 32.3984 21.0626 32.4627C20.6236 32.527 20.2175 32.7327 19.9059 33.0487L17.5528 35.4019C17.2381 35.7152 17.0341 36.1225 16.9715 36.5621C16.9089 37.0017 16.9912 37.4498 17.2059 37.8384L18.1603 39.5794C18.1725 39.6096 18.1776 39.6422 18.1754 39.6746C18.1731 39.7071 18.1635 39.7387 18.1472 39.7669C17.8566 40.2356 17.7525 40.9894 17.4441 41.2978L15.7284 41.8041C15.2648 41.9074 14.8491 42.1627 14.5472 42.5294C14.2454 42.8962 14.0747 43.3533 14.0625 43.8281V47.1656C14.0621 47.6074 14.2052 48.0374 14.4703 48.3908C14.7354 48.7442 15.1082 49.0019 15.5325 49.125L17.4487 49.6875C17.7066 49.9162 17.7131 50.3344 17.8828 50.625H8.4375C7.69181 50.6243 6.97687 50.3277 6.44958 49.8004C5.9223 49.2731 5.62574 48.5582 5.625 47.8125V22.1653H29.0625C29.2461 22.1653 29.4257 22.1116 29.5791 22.0106L33.0947 19.6875H54.375V47.8125ZM54.375 17.8125H32.8125C32.6285 17.8126 32.4486 17.8667 32.295 17.9681L28.7812 20.2903H5.625V12.1875C5.62574 11.4418 5.9223 10.7269 6.44958 10.1996C6.97687 9.6723 7.69181 9.37574 8.4375 9.375H51.5625C52.3082 9.37574 53.0231 9.6723 53.5504 10.1996C54.0777 10.7269 54.3743 11.4418 54.375 12.1875V17.8125Z" fill="white"/>
<path d="M17.8125 12.1875C17.0666 12.1875 16.3512 12.4838 15.8238 13.0113C15.2963 13.5387 15 14.2541 15 15C15 15.7459 15.2963 16.4613 15.8238 16.9887C16.3512 17.5162 17.0666 17.8125 17.8125 17.8125C18.5584 17.8125 19.2738 17.5162 19.8012 16.9887C20.3287 16.4613 20.625 15.7459 20.625 15C20.625 14.2541 20.3287 13.5387 19.8012 13.0113C19.2738 12.4838 18.5584 12.1875 17.8125 12.1875ZM17.8125 15.9375C17.5639 15.9375 17.3254 15.8387 17.1496 15.6629C16.9738 15.4871 16.875 15.2486 16.875 15C16.875 14.7514 16.9738 14.5129 17.1496 14.3371C17.3254 14.1613 17.5639 14.0625 17.8125 14.0625C18.0611 14.0625 18.2996 14.1613 18.4754 14.3371C18.6512 14.5129 18.75 14.7514 18.75 15C18.75 15.2486 18.6512 15.4871 18.4754 15.6629C18.2996 15.8387 18.0611 15.9375 17.8125 15.9375ZM25.3125 12.1875C24.5666 12.1875 23.8512 12.4838 23.3238 13.0113C22.7963 13.5387 22.5 14.2541 22.5 15C22.5 15.7459 22.7963 16.4613 23.3238 16.9887C23.8512 17.5162 24.5666 17.8125 25.3125 17.8125C26.0584 17.8125 26.7738 17.5162 27.3012 16.9887C27.8287 16.4613 28.125 15.7459 28.125 15C28.125 14.2541 27.8287 13.5387 27.3012 13.0113C26.7738 12.4838 26.0584 12.1875 25.3125 12.1875ZM25.3125 15.9375C25.0639 15.9375 24.8254 15.8387 24.6496 15.6629C24.4738 15.4871 24.375 15.2486 24.375 15C24.375 14.7514 24.4738 14.5129 24.6496 14.3371C24.8254 14.1613 25.0639 14.0625 25.3125 14.0625C25.5611 14.0625 25.7996 14.1613 25.9754 14.3371C26.1512 14.5129 26.25 14.7514 26.25 15C26.25 15.2486 26.1512 15.4871 25.9754 15.6629C25.7996 15.8387 25.5611 15.9375 25.3125 15.9375ZM10.3125 12.1875C9.56658 12.1875 8.85121 12.4838 8.32376 13.0113C7.79632 13.5387 7.5 14.2541 7.5 15C7.5 15.7459 7.79632 16.4613 8.32376 16.9887C8.85121 17.5162 9.56658 17.8125 10.3125 17.8125C11.0584 17.8125 11.7738 17.5162 12.3012 16.9887C12.8287 16.4613 13.125 15.7459 13.125 15C13.125 14.2541 12.8287 13.5387 12.3012 13.0113C11.7738 12.4838 11.0584 12.1875 10.3125 12.1875ZM10.3125 15.9375C10.0639 15.9375 9.8254 15.8387 9.64959 15.6629C9.47377 15.4871 9.375 15.2486 9.375 15C9.375 14.7514 9.47377 14.5129 9.64959 14.3371C9.8254 14.1613 10.0639 14.0625 10.3125 14.0625C10.5611 14.0625 10.7996 14.1613 10.9754 14.3371C11.1512 14.5129 11.25 14.7514 11.25 15C11.25 15.2486 11.1512 15.4871 10.9754 15.6629C10.7996 15.8387 10.5611 15.9375 10.3125 15.9375Z" fill="white"/>
</svg>
