<svg width="60" height="60" viewBox="0 0 60 60" fill="none" xmlns="http://www.w3.org/2000/svg">
<g clip-path="url(#clip0_1135_2803)">
<path d="M44.5742 57.9697V40.6859L47.1224 31.7015C47.327 30.9791 47.4892 30.2453 47.6082 29.5039C47.641 29.2972 47.5904 29.0858 47.4676 28.9163C47.3447 28.7468 47.1596 28.633 46.9529 28.5998C46.746 28.567 46.5346 28.6175 46.3651 28.7404C46.1955 28.8633 46.0816 29.0485 46.0485 29.2552C45.9394 29.9354 45.7906 30.6086 45.6029 31.2713L42.995 40.4664V57.9698C42.995 58.4058 43.3482 58.7594 43.7846 58.7594C44.2206 58.7594 44.5742 58.4058 44.5742 57.9698V57.9697ZM37.5983 42.0414C37.4389 41.9055 37.2321 41.8385 37.0233 41.8551C36.8145 41.8717 36.6209 41.9705 36.4849 42.1298L31.6999 47.7418H26.0109C26.0066 47.7418 26.003 47.7414 25.9995 47.7414C25.9953 47.7414 25.9918 47.7418 25.9877 47.7418H15.7335C14.4447 47.7418 13.396 46.6927 13.396 45.4033V36.525L10.1451 35.7534C9.9769 35.7143 9.82059 35.6353 9.68934 35.5231C9.5581 35.4109 9.45578 35.2688 9.39102 35.1087C9.32443 34.9497 9.29713 34.7769 9.31143 34.6051C9.32572 34.4333 9.38119 34.2675 9.47314 34.1217L12.1591 29.7964C12.2695 29.6184 12.3048 29.4039 12.2571 29.2C12.2094 28.9961 12.0826 28.8195 11.9047 28.7091C11.7268 28.5986 11.5122 28.5633 11.3082 28.6109C11.1042 28.6585 10.9275 28.7852 10.8169 28.9631L8.13147 33.2884C7.6735 34.0251 7.60046 34.9077 7.93051 35.7097C8.26057 36.5121 8.93397 37.0878 9.77911 37.29L11.8168 37.7736V45.4034C11.8168 47.5635 13.5739 49.3211 15.7335 49.3211H25.2098V57.9702C25.2098 58.4062 25.5629 58.7598 25.9994 58.7598C26.4353 58.7598 26.789 58.4062 26.789 57.9702V49.321H32.4282L37.6866 43.1549C37.8224 42.9954 37.8893 42.7886 37.8727 42.5798C37.8562 42.3711 37.7574 42.1774 37.5982 42.0414H37.5983ZM9.52683 17.7277C9.37779 18.722 9.30065 19.7259 9.296 20.7313C9.29498 20.8472 9.31704 20.9621 9.3609 21.0693C9.40475 21.1765 9.46953 21.274 9.55144 21.3559C9.63303 21.4383 9.73018 21.5036 9.83724 21.5481C9.9443 21.5926 10.0591 21.6154 10.1751 21.6151H23.1634C23.5993 21.6151 23.953 21.2619 23.953 20.8255C23.953 17.4912 26.6657 14.778 30.0005 14.778C33.3347 14.778 36.0479 17.4912 36.0479 20.8254C36.0479 21.2619 36.4016 21.615 36.8375 21.615H49.8253C50.0613 21.615 50.2829 21.5229 50.449 21.3559C50.531 21.2741 50.5959 21.1768 50.6398 21.0697C50.6838 20.9625 50.7059 20.8477 50.7049 20.7318C50.7008 19.7266 50.6242 18.7229 50.4757 17.7287C50.4526 17.5708 50.3868 17.4221 50.2854 17.2989C50.1841 17.1756 50.0509 17.0823 49.9004 17.0291L46.3149 15.7542C46.006 14.7614 45.607 13.799 45.1227 12.879L46.7553 9.44249C46.8239 9.29872 46.8521 9.13901 46.8369 8.98046C46.8217 8.8219 46.7636 8.67046 46.669 8.54234C45.4347 6.86944 43.956 5.39147 42.2825 4.15794C42.1545 4.06358 42.0033 4.00575 41.8451 3.99061C41.6868 3.97548 41.5274 4.00361 41.3839 4.072L37.9478 5.70477C37.0282 5.22024 36.0661 4.821 35.0737 4.51207L33.7979 0.925431C33.7447 0.775674 33.6517 0.643193 33.5291 0.542136C33.4064 0.441079 33.2585 0.375241 33.1014 0.351653C31.0693 0.0448918 28.9359 0.0448918 26.9018 0.351653C26.7443 0.375428 26.5963 0.441507 26.4735 0.542837C26.3506 0.644168 26.2576 0.776949 26.2043 0.92701L24.9294 4.51207C23.9364 4.82125 22.9738 5.22065 22.0536 5.7053L18.6182 4.07253C18.4745 4.00372 18.3147 3.9754 18.1561 3.99064C17.9975 4.00587 17.846 4.06408 17.718 4.15899C16.0458 5.39184 14.5683 6.86897 13.3351 8.54089C13.2399 8.66899 13.1814 8.82062 13.1659 8.97948C13.1504 9.13834 13.1785 9.29841 13.2472 9.44249L14.8803 12.879C14.3963 13.7993 13.9968 14.7616 13.6867 15.7542L10.1022 17.0291C9.95182 17.0822 9.81878 17.1753 9.71742 17.2984C9.61605 17.4215 9.55007 17.5699 9.52683 17.7277ZM30.0003 13.1988C26.0615 13.1988 22.8106 16.1999 22.4142 20.0358H20.9029C21.3609 15.4247 25.2839 11.7959 29.9998 11.7959C34.7169 11.7959 38.6407 15.4247 39.0987 20.0358H37.5863C37.1901 16.1999 33.9391 13.1988 30.0003 13.1988ZM11.0314 18.3744L14.5496 17.1231C14.6811 17.0762 14.7995 16.9987 14.8952 16.8971C14.9909 16.7955 15.0611 16.6727 15.1001 16.5387C15.4232 15.4203 15.8708 14.3417 16.4345 13.3231C16.5018 13.2011 16.5391 13.0649 16.5433 12.9256C16.5475 12.7863 16.5186 12.6481 16.4589 12.5222L14.8555 9.14744C15.8578 7.84789 17.0232 6.68269 18.3229 5.68056L21.6971 7.28398C21.8233 7.34381 21.9619 7.37272 22.1014 7.36833C22.241 7.36393 22.3775 7.32636 22.4996 7.25871C23.5176 6.69482 24.5959 6.24741 25.7141 5.92494C25.848 5.88625 25.9707 5.8163 26.0723 5.72084C26.1738 5.62538 26.2512 5.50715 26.298 5.3759L27.5503 1.85558C29.178 1.64893 30.8253 1.64893 32.453 1.85558L33.7058 5.37787C33.753 5.50863 33.8304 5.62636 33.9318 5.72145C34.0332 5.81653 34.1557 5.88626 34.2892 5.92494C35.4078 6.24775 36.4882 6.69651 37.5005 7.25832C37.6228 7.32605 37.7594 7.36372 37.8992 7.36821C38.0389 7.37269 38.1777 7.34387 38.3041 7.28411L41.6788 5.68016C42.9786 6.68274 44.1443 7.84807 45.1473 9.14757L43.5433 12.5227C43.4838 12.6487 43.455 12.787 43.4594 12.9262C43.4637 13.0655 43.5011 13.2017 43.5685 13.3237C44.1319 14.3414 44.5788 15.4193 44.9009 16.5371C44.9393 16.6714 45.0092 16.7946 45.1048 16.8964C45.2004 16.9983 45.3189 17.0759 45.4505 17.1227L48.9713 18.3744C49.0415 18.9259 49.088 19.4803 49.1107 20.0358H40.6846C40.4734 17.4928 39.3763 15.1301 37.5437 13.3169C35.5229 11.3179 32.8442 10.2162 30.0003 10.2162C27.1575 10.2162 24.4793 11.3178 22.4584 13.3169C20.6259 15.1307 19.5294 17.4926 19.3175 20.0358H10.8917C10.9138 19.4822 10.961 18.9264 11.0314 18.3744Z" fill="#008080"/>
<path d="M5.43682 30.0661C5.56087 30.1621 5.70947 30.2213 5.86557 30.2367C6.02168 30.2522 6.17899 30.2233 6.31946 30.1535C6.46043 30.0847 6.57915 29.9775 6.66197 29.8443C6.74479 29.7111 6.78837 29.5572 6.78769 29.4003V27.7909H28.0201C28.2427 27.7906 28.4561 27.702 28.6134 27.5446C28.7708 27.3872 28.8593 27.1738 28.8596 26.9513V20.8252C28.8596 20.3894 28.5059 20.0356 28.07 20.0356C27.6341 20.0356 27.2804 20.3894 27.2804 20.8252V26.2117H6.04797C5.82537 26.2118 5.61192 26.3003 5.45452 26.4577C5.29712 26.6151 5.20863 26.8285 5.20849 27.0511V27.9004L2.05468 25.4796L5.20849 23.0594V23.9338C5.20849 24.397 5.58487 24.7734 6.04797 24.7734H24.047C24.4828 24.7734 24.8366 24.4197 24.8366 23.9838C24.8366 23.5479 24.4828 23.1942 24.047 23.1942H6.78769V21.5593C6.78769 21.237 6.60832 20.9487 6.31946 20.8063C6.17911 20.7364 6.02189 20.7074 5.86584 20.7228C5.70979 20.7381 5.56123 20.7972 5.43721 20.8932L0.329001 24.8134C0.122915 24.9713 0 25.22 0 25.4796C0 25.7391 0.122915 25.9886 0.328475 26.1459L5.43682 30.0661ZM59.6717 24.8139L54.5633 20.8935C54.4393 20.7975 54.2907 20.7383 54.1346 20.7228C53.9785 20.7073 53.8212 20.736 53.6807 20.8058C53.5398 20.8746 53.4211 20.9818 53.3383 21.115C53.2555 21.2481 53.2118 21.402 53.2124 21.5588V23.1941H35.9532C35.5168 23.1941 35.1635 23.5473 35.1635 23.9837C35.1635 24.4197 35.5168 24.7733 35.9532 24.7733H53.9522C54.1747 24.773 54.3881 24.6844 54.5454 24.527C54.7028 24.3697 54.7913 24.1563 54.7916 23.9338V23.0594L57.9453 25.4796L54.7916 27.8998V27.051C54.7914 26.8284 54.7028 26.6151 54.5454 26.4577C54.388 26.3004 54.1746 26.2119 53.952 26.2117H32.7196V20.8252C32.7196 20.3889 32.366 20.0356 31.93 20.0356C31.494 20.0356 31.1404 20.3889 31.1404 20.8252V26.9513C31.1406 27.1739 31.2291 27.3873 31.3865 27.5447C31.5439 27.7021 31.7574 27.7907 31.98 27.7909H53.2124V29.4003C53.2118 29.5571 53.2554 29.7109 53.3382 29.8441C53.4211 29.9772 53.5397 30.0843 53.6807 30.1531C53.7964 30.2104 53.9237 30.2403 54.0528 30.2403C54.2338 30.2403 54.4128 30.1811 54.5628 30.0661L59.6727 26.1448C59.8772 25.9869 60.0001 25.7382 60.0001 25.4796C60.0001 25.221 59.8772 24.9722 59.6717 24.8139Z" fill="#008080"/>
</g>
<defs>
<clipPath id="clip0_1135_2803">
<rect width="60" height="60" fill="white"/>
</clipPath>
</defs>
</svg>
