<svg width="60" height="60" viewBox="0 0 60 60" fill="none" xmlns="http://www.w3.org/2000/svg">
<path d="M19.5126 44.3427H15.6295C15.4695 44.3427 15.3123 44.3018 15.1726 44.2238C15.033 44.1459 14.9156 44.0335 14.8316 43.8974L13.6885 42.0458L10.5914 40.7602L8.47563 41.2641C8.31989 41.3013 8.15722 41.298 8.00311 41.2545C7.84901 41.211 7.70862 41.1288 7.59531 41.0156L4.8482 38.2682C4.73498 38.1549 4.65265 38.0146 4.60905 37.8605C4.56546 37.7064 4.56206 37.5438 4.59918 37.388L5.10309 35.2718L3.82117 32.1758L1.96797 31.0361C1.83152 30.9522 1.71884 30.8347 1.64068 30.6949C1.56252 30.5551 1.52148 30.3976 1.52148 30.2374V26.3509C1.5215 26.1907 1.56255 26.0332 1.64073 25.8934C1.71892 25.7536 1.83162 25.6362 1.96809 25.5523L3.82176 24.4126L5.10355 21.3164L4.59965 19.2001C4.56253 19.0444 4.56593 18.8817 4.60952 18.7276C4.65311 18.5735 4.73545 18.4332 4.84867 18.3199L7.59531 15.5732C7.70838 15.4601 7.8485 15.3778 8.00233 15.3342C8.15617 15.2905 8.31861 15.287 8.47422 15.3238L10.591 15.8254L13.6886 14.543L14.8316 12.6914C14.9156 12.5553 15.033 12.4429 15.1726 12.365C15.3123 12.2871 15.4695 12.2461 15.6295 12.2461H19.5126C19.6726 12.246 19.8299 12.2869 19.9697 12.3649C20.1094 12.4428 20.2269 12.5552 20.3109 12.6914L21.4505 14.5422L24.55 15.8253L26.6635 15.3239C26.819 15.287 26.9814 15.2905 27.1353 15.334C27.2891 15.3776 27.4293 15.4597 27.5424 15.5727L30.2934 18.3199C30.4067 18.4332 30.4892 18.5736 30.5329 18.7277C30.5765 18.8819 30.58 19.0446 30.5429 19.2005L30.0389 21.3168L31.3214 24.413L33.1722 25.5526C33.3085 25.6366 33.421 25.754 33.4991 25.8937C33.5772 26.0335 33.6182 26.1908 33.6182 26.3509V30.2374C33.6182 30.3975 33.5772 30.5549 33.4991 30.6947C33.421 30.8344 33.3085 30.9518 33.1722 31.0357L31.3214 32.1755L30.0389 35.2718L30.5429 37.388C30.58 37.5438 30.5766 37.7064 30.533 37.8605C30.4894 38.0146 30.4071 38.1549 30.2938 38.2682L27.5466 41.0156C27.4334 41.1289 27.293 41.2112 27.139 41.2549C26.9849 41.2985 26.8222 41.3019 26.6664 41.2648L24.5505 40.7609L21.4507 42.0463L20.3109 43.8979C20.2268 44.034 20.1093 44.1463 19.9696 44.2241C19.8299 44.302 19.6725 44.3428 19.5126 44.3427ZM16.1525 42.4677H18.9884L20.0126 40.8042C20.116 40.6362 20.2697 40.505 20.4518 40.4292L24.1125 38.9112C24.295 38.8355 24.4968 38.8194 24.689 38.8651L26.5908 39.3184L28.5974 37.3125L28.1441 35.4106C28.0983 35.2185 28.1144 35.0169 28.1901 34.8345L29.7048 31.1772C29.7805 30.9949 29.9117 30.8411 30.0798 30.7377L31.7431 29.7135V26.8746L30.0798 25.8504C29.9117 25.7471 29.7804 25.5933 29.7048 25.411L28.1901 21.7537C28.1144 21.5713 28.0983 21.3696 28.1441 21.1776L28.5973 19.276L26.5879 17.269L24.6885 17.7196C24.4968 17.7651 24.2956 17.749 24.1136 17.6737L20.453 16.1589C20.2705 16.0833 20.1166 15.9521 20.0131 15.7839L18.9889 14.1205H16.1529L15.1254 15.7846C15.022 15.9521 14.8684 16.0828 14.6864 16.1582L11.0287 17.6735C10.8466 17.7489 10.6455 17.7651 10.4537 17.7197L8.55133 17.2689L6.54461 19.2756L6.99789 21.1776C7.04363 21.3696 7.02755 21.5713 6.95195 21.7537L5.43672 25.411C5.36124 25.5934 5.22998 25.7474 5.06172 25.8508L3.39566 26.8751V29.7134L5.06172 30.7383C5.22996 30.8417 5.36121 30.9956 5.43672 31.1781L6.95195 34.8348C7.02755 35.0172 7.04363 35.2188 6.99789 35.4109L6.54461 37.3125L8.55074 39.3187L10.4523 38.8657C10.6447 38.82 10.8465 38.8361 11.0291 38.9119L14.6867 40.4297C14.8683 40.5051 15.0216 40.6357 15.125 40.8031L16.1525 42.4677ZM17.5694 38.194C15.6114 38.194 13.6974 37.6134 12.0693 36.5257C10.4413 35.4379 9.17241 33.8917 8.4231 32.0828C7.67379 30.2739 7.47773 28.2833 7.8597 26.363C8.24167 24.4426 9.18452 22.6786 10.569 21.2941C11.9535 19.9096 13.7175 18.9667 15.6379 18.5847C17.5582 18.2027 19.5488 18.3988 21.3577 19.148C23.1667 19.8973 24.7128 21.1662 25.8006 22.7942C26.8884 24.4222 27.469 26.3362 27.469 28.2942C27.4665 30.919 26.4227 33.4356 24.5667 35.2916C22.7107 37.1476 20.1942 38.1914 17.5694 38.194ZM17.5694 20.2695C15.9822 20.2695 14.4307 20.7401 13.111 21.6218C11.7913 22.5036 10.7628 23.7569 10.1554 25.2232C9.54798 26.6895 9.38905 28.3031 9.69867 29.8597C10.0083 31.4164 10.7726 32.8463 11.8948 33.9686C13.0171 35.0909 14.447 35.8552 16.0037 36.1648C17.5603 36.4744 19.1738 36.3155 20.6402 35.7082C22.1065 35.1008 23.3598 34.0722 24.2416 32.7526C25.1234 31.4329 25.594 29.8814 25.594 28.2942C25.592 26.1666 24.7459 24.1266 23.2415 22.6221C21.737 21.1176 19.697 20.2715 17.5694 20.2695ZM44.7617 24.2789H42.1973C42.0372 24.2789 41.8798 24.238 41.74 24.1599C41.6003 24.0819 41.4828 23.9693 41.3989 23.833L40.7009 22.6995L38.85 21.9321L37.5545 22.2405C37.3986 22.2776 37.2358 22.2741 37.0816 22.2304C36.9275 22.1867 36.7871 22.1042 36.6739 21.9907L34.8636 20.177C34.7505 20.0637 34.6683 19.9234 34.6249 19.7694C34.5814 19.6154 34.5781 19.4528 34.6152 19.2972L34.9234 18.0048L34.1559 16.151L33.0225 15.4532C32.8862 15.3693 32.7737 15.2518 32.6956 15.1121C32.6175 14.9724 32.5765 14.815 32.5765 14.6549V12.0938C32.5765 11.9337 32.6175 11.7763 32.6956 11.6366C32.7737 11.4968 32.8862 11.3794 33.0225 11.2955L34.1561 10.5975L34.9234 8.74666L34.6151 7.45104C34.5782 7.29551 34.5816 7.13311 34.6251 6.97928C34.6685 6.82545 34.7506 6.68529 34.8636 6.57213L36.6739 4.75783C36.7871 4.64441 36.9275 4.5619 37.0816 4.51818C37.2358 4.47446 37.3986 4.47099 37.5545 4.50811L38.85 4.81643L40.7009 4.04908L41.3989 2.91553C41.4829 2.77933 41.6004 2.66691 41.7401 2.58896C41.8799 2.51101 42.0372 2.47013 42.1973 2.47021H44.7617C44.9217 2.47021 45.0791 2.51119 45.2189 2.58924C45.3586 2.6673 45.476 2.77983 45.56 2.91611L46.2579 4.04967L48.1088 4.81643L49.4044 4.50811C49.5603 4.47099 49.7231 4.47446 49.8773 4.51818C50.0315 4.5619 50.1719 4.64441 50.2851 4.75783L52.0954 6.57154C52.2083 6.68471 52.2904 6.82487 52.3339 6.9787C52.3774 7.13253 52.3808 7.29492 52.3438 7.45045L52.0355 8.74608L52.8028 10.5969L53.9364 11.2949C54.0727 11.3788 54.1852 11.4963 54.2633 11.636C54.3413 11.7757 54.3823 11.9331 54.3823 12.0932V14.6543C54.3823 14.8144 54.3413 14.9718 54.2633 15.1115C54.1852 15.2512 54.0727 15.3687 53.9364 15.4526L52.8031 16.1504L52.0355 18.0042L52.3437 19.2966C52.3809 19.4522 52.3775 19.6148 52.3341 19.7688C52.2906 19.9228 52.2084 20.0632 52.0954 20.1764L50.2851 21.9901C50.1718 22.1035 50.0314 22.1859 49.8773 22.2296C49.7231 22.2734 49.5603 22.2769 49.4044 22.2399L48.1088 21.9315L46.2579 22.6992L45.56 23.8328C45.4761 23.9691 45.3586 24.0817 45.2189 24.1598C45.0792 24.2379 44.9218 24.2789 44.7617 24.2789ZM42.721 22.4039H44.2375L44.8199 21.458C44.9233 21.2901 45.0771 21.1591 45.2593 21.0836L47.6709 20.0837C47.8532 20.0081 48.0549 19.992 48.2469 20.0377L49.3279 20.2955L50.3979 19.2233L50.1407 18.1452C50.0949 17.9532 50.111 17.7515 50.1865 17.5691L51.1864 15.1541C51.2619 14.9717 51.3932 14.8179 51.5614 14.7144L52.5072 14.132V12.6175L51.5617 12.0352C51.3938 11.9318 51.2628 11.7781 51.1873 11.596L50.1875 9.18424C50.1117 9.00187 50.0956 8.80023 50.1414 8.60815L50.3992 7.52604L49.3289 6.45377L48.248 6.71158C48.0559 6.75728 47.8543 6.74116 47.6719 6.66553L45.2603 5.66568C45.0781 5.59019 44.9244 5.45918 44.821 5.29127L44.2386 4.34533H42.721L42.1386 5.29127C42.0352 5.45939 41.8815 5.59062 41.6992 5.66627L39.2876 6.66611C39.1052 6.74175 38.9036 6.75787 38.7115 6.71217L37.6305 6.45436L36.5602 7.52662L36.818 8.60873C36.8637 8.80082 36.8476 9.00243 36.772 9.18482L35.7721 11.5965C35.6966 11.7787 35.5656 11.9324 35.3977 12.0358L34.4518 12.6182V14.1319L35.3977 14.7143C35.5659 14.8177 35.6971 14.9716 35.7727 15.154L36.7725 17.569C36.8481 17.7514 36.8641 17.953 36.8184 18.1451L36.5605 19.2232L37.6306 20.2954L38.7116 20.0376C38.9037 19.9919 39.1053 20.008 39.2877 20.0836L41.6993 21.0835C41.8815 21.159 42.0352 21.29 42.1387 21.4579L42.721 22.4039ZM43.4794 19.4922C42.2693 19.4925 41.0862 19.1339 40.0799 18.4618C39.0735 17.7897 38.2891 16.8342 37.8259 15.7162C37.3626 14.5983 37.2413 13.368 37.4774 12.1811C37.7134 10.9942 38.2961 9.90393 39.1518 9.04823C40.0075 8.19254 41.0978 7.60984 42.2847 7.37385C43.4716 7.13785 44.7019 7.25916 45.8198 7.72243C46.9378 8.1857 47.8932 8.97012 48.5654 9.97647C49.2375 10.9828 49.596 12.1659 49.5957 13.376C49.5938 14.9976 48.9489 16.5522 47.8022 17.6988C46.6556 18.8454 45.101 19.4904 43.4794 19.4922ZM43.4794 9.1315C42.6402 9.13118 41.8198 9.3797 41.1219 9.84565C40.424 10.3116 39.8799 10.974 39.5585 11.7492C39.237 12.5244 39.1527 13.3774 39.3161 14.2005C39.4795 15.0236 39.8833 15.7798 40.4764 16.3734C41.0696 16.967 41.8254 17.3714 42.6484 17.5354C43.4714 17.6995 44.3245 17.6158 45.0999 17.2949C45.8754 16.9741 46.5382 16.4305 47.0047 15.733C47.4712 15.0354 47.7203 14.2152 47.7207 13.376C47.7199 12.2511 47.2729 11.1725 46.4777 10.3767C45.6826 9.58101 44.6043 9.13318 43.4794 9.1315ZM53.7505 57.5299H31.8167C30.9895 57.5301 30.1769 57.3125 29.4605 56.899C28.7441 56.4855 28.1493 55.8907 27.7357 55.1744C27.3221 54.458 27.1045 53.6454 27.1046 52.8183C27.1047 51.9911 27.3227 51.1786 27.7364 50.4624L33.2208 40.9662L38.7018 31.4693C39.1154 30.7531 39.7102 30.1584 40.4265 29.7449C41.1428 29.3314 41.9553 29.1137 42.7823 29.1137C43.6094 29.1137 44.4219 29.3314 45.1381 29.7449C45.8544 30.1584 46.4492 30.7531 46.8629 31.4693L52.3472 40.9664L57.8284 50.4637C58.2418 51.1796 58.4595 51.9918 58.4596 52.8185C58.4597 53.6452 58.2422 54.4574 57.8291 55.1735C57.4159 55.8896 56.8215 56.4843 56.1057 56.898C55.3899 57.3116 54.5779 57.5296 53.7511 57.5301L53.7505 57.5299ZM42.7818 30.9886C42.2819 30.978 41.7886 31.1046 41.3555 31.3546C40.9224 31.6046 40.5661 31.9684 40.3252 32.4066L34.8442 41.9037L29.3598 51.4009C29.1109 51.8321 28.9799 52.3212 28.9799 52.8191C28.9799 53.317 29.1111 53.8061 29.3601 54.2373C29.6091 54.6684 29.9672 55.0264 30.3985 55.2752C30.8297 55.5241 31.3189 55.655 31.8168 55.6548H53.7505C54.2481 55.6544 54.7367 55.5231 55.1675 55.2741C55.5982 55.025 55.9558 54.6671 56.2045 54.2361C56.4531 53.8052 56.584 53.3164 56.584 52.8189C56.584 52.3213 56.4531 51.8326 56.2045 51.4016L50.7229 41.9036L45.2385 32.4066C44.9975 31.9685 44.6411 31.6047 44.208 31.3548C43.775 31.1049 43.2817 30.9784 42.7818 30.989V30.9886ZM42.7818 47.5778C41.4679 47.5778 40.384 46.5144 40.3144 45.1569L40.0386 39.7555C40.0213 39.402 40.0767 39.0488 40.2015 38.7176C40.3263 38.3864 40.5177 38.0843 40.7639 37.8301C41.0238 37.5562 41.3368 37.3381 41.6837 37.189C42.0306 37.0399 42.4043 36.963 42.7819 36.963C43.1595 36.963 43.5331 37.0399 43.88 37.189C44.2269 37.3381 44.5399 37.5562 44.7998 37.8301C45.0459 38.0842 45.2373 38.3861 45.3621 38.7171C45.4869 39.0481 45.5424 39.4011 45.5253 39.7545L45.2495 45.1568C45.1797 46.5148 44.0957 47.5781 42.7818 47.5781V47.5778ZM42.7818 38.8381C42.6584 38.8386 42.5364 38.864 42.4231 38.9129C42.3098 38.9617 42.2076 39.033 42.1225 39.1224C42.0522 39.1928 41.9972 39.2769 41.9609 39.3696C41.9247 39.4622 41.9078 39.5613 41.9116 39.6607L42.1867 45.0614C42.2028 45.3723 42.4166 45.7031 42.7817 45.7031C43.1467 45.7031 43.3609 45.3723 43.3769 45.0611L43.6526 39.6603C43.6562 39.5609 43.6392 39.462 43.6028 39.3695C43.5664 39.2771 43.5114 39.1931 43.4411 39.1228C43.3561 39.0334 43.2538 38.9621 43.1405 38.9132C43.0272 38.8644 42.9052 38.8389 42.7818 38.8384V38.8381ZM42.7818 53.2746C42.2935 53.2746 41.8162 53.1298 41.4102 52.8585C41.0042 52.5872 40.6877 52.2016 40.5009 51.7504C40.3141 51.2993 40.2652 50.8029 40.3605 50.3239C40.4558 49.845 40.6909 49.4051 41.0362 49.0599C41.3815 48.7146 41.8214 48.4795 42.3004 48.3842C42.7793 48.289 43.2757 48.3379 43.7268 48.5248C44.178 48.7117 44.5635 49.0281 44.8348 49.4342C45.1061 49.8402 45.2508 50.3175 45.2508 50.8058C45.2502 51.4605 44.9899 52.0881 44.527 52.5511C44.0641 53.014 43.4364 53.2743 42.7818 53.275V53.2746ZM42.7818 50.2119C42.6643 50.212 42.5495 50.2468 42.4519 50.3121C42.3542 50.3774 42.2781 50.4701 42.2332 50.5786C42.1882 50.6872 42.1765 50.8066 42.1994 50.9218C42.2224 51.037 42.2789 51.1428 42.362 51.2258C42.4451 51.3089 42.5509 51.3654 42.6661 51.3883C42.7813 51.4113 42.9007 51.3995 43.0092 51.3545C43.1177 51.3096 43.2105 51.2335 43.2757 51.1358C43.341 51.0381 43.3758 50.9233 43.3758 50.8058C43.3756 50.6484 43.3129 50.4975 43.2016 50.3862C43.0902 50.2749 42.9392 50.2124 42.7818 50.2123V50.2119Z" fill="#008080"/>
</svg>
