<svg width="60" height="60" viewBox="0 0 60 60" fill="none" xmlns="http://www.w3.org/2000/svg">
<path d="M29.9998 14.5313C29.0874 14.5307 28.206 14.8631 27.5212 15.4661C26.8363 16.0691 26.395 16.9012 26.2799 17.8064C26.1649 18.7116 26.384 19.6277 26.8963 20.3828C27.4086 21.1379 28.1787 21.6802 29.0623 21.908V24.8438H30.9373V21.908C31.821 21.6802 32.5911 21.1379 33.1034 20.3828C33.6156 19.6277 33.8348 18.7116 33.7198 17.8064C33.6047 16.9012 33.1634 16.0691 32.4785 15.4661C31.7937 14.8631 30.9123 14.5307 29.9998 14.5313ZM29.9998 20.1563C29.629 20.1563 29.2665 20.0463 28.9581 19.8403C28.6498 19.6342 28.4095 19.3414 28.2676 18.9988C28.1257 18.6562 28.0885 18.2792 28.1609 17.9155C28.2332 17.5517 28.4118 17.2176 28.674 16.9554C28.9362 16.6932 29.2703 16.5146 29.634 16.4423C29.9978 16.3699 30.3748 16.4071 30.7174 16.549C31.06 16.6909 31.3528 16.9312 31.5589 17.2396C31.7649 17.5479 31.8748 17.9104 31.8748 18.2813C31.8743 18.7784 31.6766 19.255 31.3251 19.6065C30.9736 19.9581 30.497 20.1558 29.9998 20.1563Z" fill="white"/>
<path d="M57.1875 9.84375H2.8125C2.06685 9.84462 1.35198 10.1412 0.824721 10.6685C0.297463 11.1957 0.000868412 11.9106 0 12.6562L0 42.6562C0.000868412 43.4019 0.297463 44.1168 0.824721 44.644C1.35198 45.1713 2.06685 45.4679 2.8125 45.4688H26.25V48.2812H22.9688C22.7201 48.2812 22.4817 48.38 22.3058 48.5558C22.13 48.7317 22.0312 48.9701 22.0312 49.2188C22.0312 49.4674 22.13 49.7058 22.3058 49.8817C22.4817 50.0575 22.7201 50.1562 22.9688 50.1562H37.0312C37.2799 50.1562 37.5183 50.0575 37.6942 49.8817C37.87 49.7058 37.9688 49.4674 37.9688 49.2188C37.9688 48.9701 37.87 48.7317 37.6942 48.5558C37.5183 48.38 37.2799 48.2812 37.0312 48.2812H33.75V45.4688H57.1875C57.9332 45.4679 58.648 45.1713 59.1753 44.644C59.7025 44.1168 59.9991 43.4019 60 42.6562V12.6562C59.9991 11.9106 59.7025 11.1957 59.1753 10.6685C58.648 10.1412 57.9332 9.84462 57.1875 9.84375ZM31.875 48.2812H28.125V45.4688H31.875V48.2812ZM24.4594 43.5938C24.6791 42.2831 25.3564 41.0928 26.3708 40.2344C27.3852 39.3759 28.6711 38.9048 30 38.9048C31.3289 38.9048 32.6148 39.3759 33.6292 40.2344C34.6436 41.0928 35.3209 42.2831 35.5406 43.5938H24.4594ZM37.4348 43.5938C37.2079 41.782 36.3271 40.1154 34.9581 38.9072C33.589 37.699 31.8259 37.0323 30 37.0323C28.1741 37.0323 26.411 37.699 25.0419 38.9072C23.6729 40.1154 22.7921 41.782 22.5652 43.5938H14.0625C14.0415 43.374 14.1052 43.1545 14.2408 42.9802C14.3763 42.8059 14.5732 42.69 14.7914 42.6562H17.1802C17.394 42.6563 17.6015 42.5831 17.7681 42.449C17.9347 42.3149 18.0504 42.1279 18.0961 41.9189C18.4025 40.5131 18.9582 39.1736 19.7367 37.9636C19.8525 37.7835 19.9032 37.5693 19.8803 37.3564C19.8575 37.1436 19.7625 36.945 19.6111 36.7936L17.9189 35.1033C17.7905 34.9242 17.7345 34.7032 17.7622 34.4846C17.7898 34.266 17.899 34.0659 18.068 33.9244L19.3908 32.5992C19.5316 32.4287 19.7321 32.3184 19.9515 32.2909C20.1709 32.2633 20.3926 32.3207 20.5711 32.4511L22.2614 34.1428C22.4126 34.2941 22.611 34.3891 22.8236 34.4122C23.0363 34.4352 23.2504 34.3848 23.4305 34.2694C24.641 33.4913 25.9808 32.9357 27.3867 32.6287C27.5957 32.5831 27.7829 32.4673 27.917 32.3006C28.0511 32.1339 28.1242 31.9263 28.1241 31.7123V29.3231C28.1579 29.1047 28.274 28.9074 28.4485 28.7718C28.6231 28.6362 28.8429 28.5725 29.063 28.5938H30.9352C31.1553 28.5723 31.3753 28.636 31.5501 28.7716C31.7248 28.9072 31.8411 29.1045 31.875 29.3231V31.7123C31.875 31.9262 31.9481 32.1337 32.0822 32.3003C32.2163 32.4669 32.4034 32.5826 32.6123 32.6283C34.0183 32.9353 35.358 33.4909 36.5686 34.2689C36.7485 34.3845 36.9626 34.4349 37.1752 34.4119C37.3878 34.3889 37.5862 34.2938 37.7372 34.1423L39.4298 32.4497C39.608 32.3197 39.829 32.2626 40.0479 32.29C40.2667 32.3175 40.4668 32.4274 40.6073 32.5973L41.932 33.9244C42.1024 34.065 42.2125 34.2653 42.24 34.4845C42.2674 34.7037 42.2101 34.925 42.0797 35.1033L40.3889 36.7941C40.2376 36.9451 40.1425 37.1434 40.1195 37.356C40.0965 37.5686 40.1469 37.7827 40.2623 37.9627C41.0405 39.1733 41.5964 40.513 41.9039 41.9189C41.9496 42.1279 42.0653 42.3149 42.2319 42.449C42.3985 42.5831 42.606 42.6563 42.8198 42.6562H45.2063C45.4248 42.6896 45.6223 42.8053 45.7582 42.9796C45.8942 43.1539 45.9583 43.3737 45.9375 43.5938H37.4348ZM58.125 42.6562C58.1246 42.9048 58.0257 43.143 57.85 43.3188C57.6743 43.4945 57.436 43.5934 57.1875 43.5938H47.8125C47.8379 42.8757 47.578 42.1768 47.0896 41.6498C46.6013 41.1228 45.9241 40.8105 45.2063 40.7812H43.5534C43.2465 39.6709 42.8033 38.6027 42.2339 37.6013L43.4058 36.4294C43.8922 35.9011 44.1497 35.2017 44.1221 34.4842C44.0945 33.7666 43.7841 33.0891 43.2586 32.5997L41.932 31.2703C41.4423 30.7454 40.7648 30.4356 40.0474 30.4084C39.33 30.3811 38.631 30.6388 38.1028 31.125L36.93 32.2978C35.9286 31.7283 34.8605 31.2852 33.75 30.9787V29.3231C33.7202 28.6051 33.4074 27.9281 32.88 27.4401C32.3525 26.9521 31.6533 26.6927 30.9352 26.7188H29.063C28.345 26.693 27.646 26.9525 27.1188 27.4405C26.5915 27.9285 26.2788 28.6053 26.2491 29.3231V30.9787C25.1386 31.2852 24.0704 31.7283 23.0691 32.2978L21.8981 31.1259C21.3697 30.639 20.6699 30.3811 19.9518 30.4086C19.2338 30.4361 18.5558 30.7467 18.0661 31.2727L16.7423 32.5983C15.7247 33.6173 15.5339 35.3686 16.5928 36.4294L17.7656 37.6008C17.1959 38.6022 16.7528 39.6705 16.4466 40.7812H14.7914C14.0738 40.8109 13.3972 41.1233 12.9093 41.6503C12.4214 42.1773 12.1619 42.876 12.1875 43.5938H2.8125C2.56397 43.5934 2.32573 43.4945 2.15 43.3188C1.97426 43.143 1.87537 42.9048 1.875 42.6562V12.6562C1.87537 12.4077 1.97426 12.1695 2.15 11.9937C2.32573 11.818 2.56397 11.7191 2.8125 11.7188H57.1875C57.436 11.7191 57.6743 11.818 57.85 11.9937C58.0257 12.1695 58.1246 12.4077 58.125 12.6562V42.6562Z" fill="white"/>
<path d="M20.6242 21.5626C20.6282 20.7776 20.3869 20.0109 19.9341 19.3697C19.4812 18.7284 18.8394 18.2446 18.0983 17.9857C17.3572 17.7268 16.5538 17.7059 15.8002 17.9257C15.0466 18.1455 14.3804 18.5952 13.8947 19.2119C13.409 19.8286 13.128 20.5816 13.091 21.3658C13.0539 22.1499 13.2627 22.9261 13.688 23.5859C14.1134 24.2456 14.7342 24.7561 15.4638 25.046C16.1933 25.3359 16.9951 25.3908 17.7573 25.2029L19.6933 28.5563C20.5263 28.4747 21.3654 28.6285 22.1153 29.0003L19.4106 24.3165C19.7928 23.9667 20.098 23.5412 20.3069 23.0671C20.5159 22.593 20.6239 22.0807 20.6242 21.5626ZM16.8742 23.4376C16.5034 23.4376 16.1409 23.3276 15.8325 23.1216C15.5242 22.9156 15.2839 22.6227 15.1419 22.2801C15 21.9375 14.9629 21.5605 15.0352 21.1968C15.1076 20.8331 15.2862 20.499 15.5484 20.2368C15.8106 19.9746 16.1447 19.796 16.5084 19.7236C16.8721 19.6513 17.2491 19.6884 17.5918 19.8303C17.9344 19.9722 18.2272 20.2126 18.4332 20.5209C18.6393 20.8292 18.7492 21.1918 18.7492 21.5626C18.7487 22.0597 18.551 22.5364 18.1995 22.8879C17.848 23.2394 17.3714 23.4371 16.8742 23.4376ZM14.0195 34.2226L11.0786 32.5248C11.3562 31.6492 11.3048 30.7025 10.934 29.8621C10.5633 29.0218 9.89863 28.3456 9.06478 27.9604C8.23093 27.5752 7.28519 27.5075 6.40498 27.77C5.52478 28.0325 4.7706 28.6072 4.28393 29.3861C3.79727 30.1651 3.61156 31.0949 3.76165 32.0011C3.91174 32.9073 4.38731 33.7275 5.09915 34.308C5.81099 34.8885 6.71017 35.1893 7.628 35.154C8.54584 35.1187 9.41925 34.7496 10.0844 34.1162L14.4681 36.6474C14.116 35.9453 13.9554 35.1627 14.0027 34.3787C14.0059 34.3262 14.0148 34.2746 14.0195 34.2226ZM7.49922 33.2814C7.12838 33.2814 6.76587 33.1714 6.45753 32.9654C6.14919 32.7593 5.90886 32.4665 5.76695 32.1239C5.62503 31.7813 5.5879 31.4043 5.66025 31.0406C5.7326 30.6768 5.91117 30.3427 6.1734 30.0805C6.43562 29.8183 6.76971 29.6397 7.13343 29.5674C7.49714 29.495 7.87414 29.5322 8.21675 29.6741C8.55936 29.816 8.8522 30.0563 9.05823 30.3647C9.26425 30.673 9.37422 31.0355 9.37422 31.4064C9.37372 31.9035 9.17602 32.3801 8.8245 32.7316C8.47297 33.0831 7.99635 33.2809 7.49922 33.2814ZM46.8742 21.5626C46.8755 20.9389 46.7212 20.3246 46.4252 19.7756C46.1293 19.2265 45.7011 18.7599 45.1793 18.4181C44.6576 18.0763 44.0588 17.87 43.4372 17.8179C42.8157 17.7659 42.1909 17.8697 41.6196 18.1199C41.0483 18.3702 40.5484 18.759 40.1652 19.2512C39.782 19.7434 39.5277 20.3234 39.4252 20.9387C39.3227 21.5539 39.3753 22.185 39.5782 22.7748C39.7812 23.3647 40.128 23.8945 40.5873 24.3165L37.8841 28.9993C38.6339 28.6279 39.4728 28.4742 40.3056 28.5554L42.2411 25.2029C42.7926 25.3394 43.3679 25.3482 43.9234 25.2288C44.4788 25.1094 44.9997 24.8649 45.4465 24.5139C45.8932 24.1629 46.254 23.7147 46.5014 23.2033C46.7488 22.6918 46.8763 22.1307 46.8742 21.5626ZM43.1242 23.4376C42.7534 23.4376 42.3909 23.3276 42.0825 23.1216C41.7742 22.9156 41.5339 22.6227 41.3919 22.2801C41.25 21.9375 41.2129 21.5605 41.2852 21.1968C41.3576 20.8331 41.5362 20.499 41.7984 20.2368C42.0606 19.9746 42.3947 19.796 42.7584 19.7236C43.1221 19.6513 43.4991 19.6884 43.8418 19.8303C44.1844 19.9722 44.4772 20.2126 44.6832 20.5209C44.8893 20.8292 44.9992 21.1918 44.9992 21.5626C44.9987 22.0597 44.801 22.5364 44.4495 22.8879C44.098 23.2394 43.6213 23.4371 43.1242 23.4376ZM52.4992 27.6564C51.911 27.6563 51.331 27.7947 50.8062 28.0603C50.2813 28.3258 49.8263 28.7111 49.4779 29.185C49.1294 29.6589 48.8974 30.2082 48.8005 30.7883C48.7035 31.3685 48.7444 31.9633 48.9198 32.5248L45.9747 34.2254C46.0555 35.0585 45.9013 35.8976 45.5294 36.6474L49.9141 34.1162C50.3574 34.5392 50.8977 34.8471 51.4876 35.0128C52.0775 35.1786 52.6991 35.1972 53.2978 35.067C53.8966 34.9368 54.4543 34.6618 54.9222 34.2661C55.39 33.8704 55.7537 33.366 55.9814 32.7971C56.209 32.2282 56.2937 31.6121 56.2281 31.0029C56.1624 30.3936 55.9484 29.8098 55.6048 29.3025C55.2611 28.7951 54.7983 28.3798 54.2569 28.0928C53.7155 27.8058 53.112 27.656 52.4992 27.6564ZM52.4992 33.2814C52.1284 33.2814 51.7659 33.1714 51.4575 32.9654C51.1492 32.7593 50.9089 32.4665 50.7669 32.1239C50.625 31.7813 50.5879 31.4043 50.6602 31.0406C50.7326 30.6768 50.9112 30.3427 51.1734 30.0805C51.4356 29.8183 51.7697 29.6397 52.1334 29.5674C52.4971 29.495 52.8741 29.5322 53.2168 29.6741C53.5594 29.816 53.8522 30.0563 54.0582 30.3647C54.2643 30.673 54.3742 31.0355 54.3742 31.4064C54.3737 31.9035 54.176 32.3801 53.8245 32.7316C53.473 33.0831 52.9963 33.2809 52.4992 33.2814Z" fill="white"/>
</svg>
