<svg width="60" height="60" viewBox="0 0 60 60" fill="none" xmlns="http://www.w3.org/2000/svg">
<path d="M27.2184 32.7452C27.1076 32.721 26.9933 32.7171 26.881 32.7336C25.7542 32.6025 24.9041 31.6491 24.9021 30.515C24.9021 30.2539 24.7984 30.0036 24.6139 29.819C24.4293 29.6345 24.179 29.5308 23.9179 29.5308C23.6569 29.5308 23.4066 29.6345 23.222 29.819C23.0375 30.0036 22.9338 30.2539 22.9338 30.515C22.9367 32.4087 24.2034 34.0677 26.0295 34.5689V35.5531C26.0295 35.8141 26.1332 36.0644 26.3177 36.249C26.5023 36.4335 26.7526 36.5372 27.0137 36.5372C27.2747 36.5372 27.525 36.4335 27.7096 36.249C27.8941 36.0644 27.9978 35.8141 27.9978 35.5531V34.6284C30.1056 34.1873 31.538 32.2242 31.3166 30.0824C31.0945 27.9406 29.29 26.313 27.1367 26.3125C25.9026 26.3125 24.9021 25.312 24.9021 24.078C24.9021 22.8439 25.9026 21.8434 27.1367 21.8434C28.3707 21.8434 29.3712 22.8438 29.3712 24.078C29.3712 24.339 29.4749 24.5893 29.6595 24.7739C29.8441 24.9585 30.0944 25.0621 30.3554 25.0621C30.6164 25.0621 30.8668 24.9585 31.0513 24.7739C31.2359 24.5893 31.3396 24.339 31.3396 24.078C31.3368 22.0894 29.9437 20.3743 27.9978 19.9639V19.0682C27.9978 18.8071 27.8941 18.5568 27.7096 18.3722C27.525 18.1877 27.2747 18.084 27.0137 18.084C26.7526 18.084 26.5023 18.1877 26.3177 18.3722C26.1332 18.5568 26.0295 18.8071 26.0295 19.0682V20.024C23.9986 20.5785 22.6915 22.5503 22.9712 24.6369C23.2508 26.7234 25.0314 28.2808 27.1367 28.2804C28.3545 28.2804 29.3477 29.2555 29.3698 30.4726C29.3924 31.6899 28.4352 32.7009 27.2184 32.7452Z" fill="#008080"/>
<path d="M12.8633 27.3721C12.8633 35.2541 19.2528 41.6436 27.1348 41.6436C35.0168 41.6436 41.4063 35.2541 41.4063 27.3721C41.4063 19.4901 35.0168 13.1006 27.1348 13.1006C19.2566 13.1092 12.8725 19.4939 12.8633 27.3721ZM27.1348 15.0689C33.9298 15.0689 39.4379 20.5771 39.4379 27.3721C39.4379 34.1671 33.9298 39.6752 27.1348 39.6752C20.3398 39.6752 14.8316 34.1671 14.8316 27.3721C14.8394 20.5804 20.3431 15.0767 27.1348 15.0689Z" fill="#008080"/>
<path d="M46.2584 44.07L38.5489 47.7127C38.0259 46.74 37.2556 45.9223 36.3157 45.3424C35.3758 44.7624 34.2996 44.4406 33.1956 44.4093L26.0786 44.2137C24.9513 44.1815 23.8458 43.896 22.8439 43.3785L22.1198 43.0033C20.2929 42.0511 18.2627 41.5549 16.2024 41.5571C14.1422 41.5592 12.1131 42.0597 10.2881 43.0158L10.3333 41.3751C10.3368 41.2459 10.3149 41.1173 10.2688 40.9965C10.2227 40.8758 10.1532 40.7653 10.0643 40.6714C9.97549 40.5775 9.86902 40.502 9.751 40.4493C9.63298 40.3965 9.50573 40.3676 9.37652 40.364L1.57227 40.1493C1.44307 40.1458 1.31444 40.1677 1.19371 40.2139C1.07299 40.26 0.96255 40.3295 0.868697 40.4184C0.774844 40.5072 0.699419 40.6137 0.646734 40.7317C0.594049 40.8498 0.565135 40.977 0.561645 41.1062L0.0902262 58.2319C0.0866224 58.3612 0.108517 58.4898 0.15466 58.6106C0.200802 58.7314 0.270288 58.8419 0.359147 58.9358C0.448006 59.0297 0.554498 59.1052 0.672537 59.1579C0.790577 59.2107 0.917851 59.2396 1.04709 59.2432L8.85121 59.458H8.87815C9.13459 59.4581 9.38094 59.3581 9.56476 59.1793C9.74857 59.0004 9.85534 58.757 9.86233 58.5006L9.88484 57.6813L11.9122 56.5957C12.7077 56.1675 13.6386 56.0656 14.5079 56.3117L26.6149 59.7097C26.6361 59.7159 26.6571 59.7207 26.6789 59.7257C27.554 59.9086 28.4456 60.0006 29.3396 60C31.233 60.0012 33.1043 59.5928 34.8251 58.803C34.8675 58.7837 34.9083 58.7611 34.9472 58.7356L52.5014 47.3812C52.712 47.2449 52.8627 47.0333 52.9226 46.7896C52.9825 46.5459 52.9471 46.2886 52.8237 46.0701C51.5205 43.7577 48.6299 42.8769 46.2584 44.07ZM2.08502 57.3026L2.50207 42.144L8.33846 42.3046L7.92142 57.4637L2.08502 57.3026ZM33.9385 57.045C31.8005 58.0098 29.4128 58.2764 27.1146 57.8068L15.0403 54.4174C13.6817 54.0334 12.227 54.1924 10.9834 54.8609L9.94734 55.416L10.2246 45.3373C11.8365 44.2652 13.7065 43.6453 15.6396 43.5422C17.5728 43.4391 19.4981 43.8566 21.2149 44.7511L21.9391 45.1263C23.2047 45.7798 24.6009 46.1404 26.0247 46.1817L33.1422 46.3773C35.1413 46.4349 36.8391 47.8583 37.2447 49.817L26.6432 49.5243C26.0997 49.5096 25.6475 49.9382 25.6321 50.4812C25.625 50.7422 25.7217 50.9953 25.9012 51.1849C26.0806 51.3745 26.328 51.4851 26.589 51.4923L38.2885 51.8143H38.3159C38.5722 51.8141 38.8182 51.714 39.0019 51.5352C39.1855 51.3564 39.2921 51.1131 39.2991 50.8569C39.3112 50.4292 39.2793 50.0014 39.204 49.5802L47.1114 45.8438C47.1192 45.8405 47.1268 45.8366 47.1346 45.8327C47.6822 45.5556 48.3016 45.4527 48.9094 45.5378C49.5172 45.623 50.0845 45.8921 50.5349 46.309L33.9385 57.045ZM28.1195 10.3338V0.984173C28.1195 0.723154 28.0158 0.472826 27.8312 0.288258C27.6467 0.103689 27.3963 0 27.1353 0C26.8743 0 26.624 0.103689 26.4394 0.288258C26.2548 0.472826 26.1511 0.723154 26.1511 0.984173V10.3338C26.1511 10.5948 26.2548 10.8452 26.4394 11.0297C26.624 11.2143 26.8743 11.318 27.1353 11.318C27.3963 11.318 27.6467 11.2143 27.8312 11.0297C28.0158 10.8452 28.1195 10.5948 28.1195 10.3338ZM35.5008 10.3338V5.90504C35.5008 5.64402 35.3971 5.39369 35.2125 5.20912C35.028 5.02456 34.7776 4.92087 34.5166 4.92087C34.2556 4.92087 34.0053 5.02456 33.8207 5.20912C33.6361 5.39369 33.5324 5.64402 33.5324 5.90504V10.3338C33.5324 10.5948 33.6361 10.8452 33.8207 11.0297C34.0053 11.2143 34.2556 11.318 34.5166 11.318C34.7776 11.318 35.028 11.2143 35.2125 11.0297C35.3971 10.8452 35.5008 10.5948 35.5008 10.3338ZM20.7382 10.3338V5.90504C20.7382 5.64402 20.6345 5.39369 20.4499 5.20912C20.2654 5.02456 20.015 4.92087 19.754 4.92087C19.493 4.92087 19.2427 5.02456 19.0581 5.20912C18.8735 5.39369 18.7698 5.64402 18.7698 5.90504V10.3338C18.7698 10.5948 18.8735 10.8452 19.0581 11.0297C19.2427 11.2143 19.493 11.318 19.754 11.318C20.015 11.318 20.2654 11.2143 20.4499 11.0297C20.6345 10.8452 20.7382 10.5948 20.7382 10.3338Z" fill="#008080"/>
</svg>
