<svg width="60" height="60" viewBox="0 0 60 60" fill="none" xmlns="http://www.w3.org/2000/svg">
<path d="M50.7565 39.375C50.9847 40.2587 51.5274 41.0289 52.2828 41.5412C53.0382 42.0534 53.9545 42.2726 54.86 42.1576C55.7654 42.0426 56.5979 41.6013 57.2012 40.9165C57.8046 40.2316 58.1375 39.3502 58.1375 38.4375C58.1375 37.5248 57.8046 36.6434 57.2012 35.9585C56.5979 35.2737 55.7654 34.8324 54.86 34.7174C53.9545 34.6024 53.0382 34.8215 52.2828 35.3338C51.5274 35.8461 50.9847 36.6163 50.7565 37.5H45.9359V32.8125H49.6859C50.4316 32.8118 51.1465 32.5152 51.6738 31.9879C52.2011 31.4606 52.4977 30.7457 52.4984 30V27.9919C53.3822 27.7637 54.1523 27.221 54.6646 26.4656C55.1769 25.7102 55.396 24.7939 55.281 23.8884C55.166 22.983 54.7247 22.1506 54.0399 21.5472C53.355 20.9438 52.4736 20.611 51.5609 20.611C50.6482 20.611 49.7668 20.9438 49.082 21.5472C48.3971 22.1506 47.9558 22.983 47.8408 23.8884C47.7258 24.7939 47.945 25.7102 48.4572 26.4656C48.9695 27.221 49.7397 27.7637 50.6234 27.9919V30C50.6232 30.2486 50.5243 30.4869 50.3486 30.6626C50.1728 30.8384 49.9345 30.9373 49.6859 30.9375H45.9359V26.25C45.9352 25.5043 45.6386 24.7894 45.1113 24.2621C44.584 23.7348 43.8691 23.4382 43.1234 23.4375H42.1859V15.9375C42.1859 12.7052 40.9019 9.60524 38.6163 7.31964C36.3307 5.03404 33.2307 3.75 29.9984 3.75C26.7661 3.75 23.6662 5.03404 21.3806 7.31964C19.095 9.60524 17.8109 12.7052 17.8109 15.9375V23.4375H16.8734C16.1277 23.4382 15.4128 23.7348 14.8855 24.2621C14.3582 24.7894 14.0617 25.5043 14.0609 26.25V30.9375H10.3109C10.0624 30.9373 9.82404 30.8384 9.64828 30.6626C9.47252 30.4869 9.37367 30.2486 9.37342 30V27.9919C10.2572 27.7637 11.0273 27.221 11.5396 26.4656C12.0519 25.7102 12.271 24.7939 12.156 23.8884C12.041 22.983 11.5997 22.1506 10.9149 21.5472C10.23 20.9438 9.34865 20.611 8.43592 20.611C7.5232 20.611 6.6418 20.9438 5.95695 21.5472C5.2721 22.1506 4.83082 22.983 4.71581 23.8884C4.6008 24.7939 4.81997 25.7102 5.33223 26.4656C5.84449 27.221 6.61468 27.7637 7.49842 27.9919V30C7.49917 30.7457 7.79572 31.4606 8.32301 31.9879C8.85029 32.5152 9.56523 32.8118 10.3109 32.8125H14.0609V37.5H9.2403C9.01212 36.6163 8.46946 35.8461 7.71404 35.3338C6.95862 34.8215 6.04231 34.6024 5.13686 34.7174C4.23141 34.8324 3.39898 35.2737 2.79562 35.9585C2.19226 36.6434 1.85938 37.5248 1.85938 38.4375C1.85938 39.3502 2.19226 40.2316 2.79562 40.9165C3.39898 41.6013 4.23141 42.0426 5.13686 42.1576C6.04231 42.2726 6.95862 42.0534 7.71404 41.5412C8.46946 41.0289 9.01212 40.2587 9.2403 39.375H14.0609V44.0625H10.3109C9.56523 44.0632 8.85029 44.3598 8.32301 44.8871C7.79572 45.4144 7.49917 46.1293 7.49842 46.875V48.8831C6.61468 49.1113 5.84449 49.654 5.33223 50.4094C4.81997 51.1648 4.6008 52.0811 4.71581 52.9866C4.83082 53.892 5.2721 54.7244 5.95695 55.3278C6.6418 55.9312 7.5232 56.264 8.43592 56.264C9.34865 56.264 10.23 55.9312 10.9149 55.3278C11.5997 54.7244 12.041 53.892 12.156 52.9866C12.271 52.0811 12.0519 51.1648 11.5396 50.4094C11.0273 49.654 10.2572 49.1113 9.37342 48.8831V46.875C9.37367 46.6264 9.47252 46.3881 9.64828 46.2124C9.82404 46.0366 10.0624 45.9377 10.3109 45.9375H14.0609V48.75C14.0624 49.9927 14.5567 51.1842 15.4355 52.0629C16.3143 52.9417 17.5057 53.436 18.7484 53.4375H41.2484C42.4912 53.436 43.6826 52.9417 44.5613 52.0629C45.4401 51.1842 45.9344 49.9927 45.9359 48.75V45.9375H49.6859C49.9345 45.9377 50.1728 46.0366 50.3486 46.2124C50.5243 46.3881 50.6232 46.6264 50.6234 46.875V48.8831C49.7397 49.1113 48.9695 49.654 48.4572 50.4094C47.945 51.1648 47.7258 52.0811 47.8408 52.9866C47.9558 53.892 48.3971 54.7244 49.082 55.3278C49.7668 55.9312 50.6482 56.264 51.5609 56.264C52.4736 56.264 53.355 55.9312 54.0399 55.3278C54.7247 54.7244 55.166 53.892 55.281 52.9866C55.396 52.0811 55.1769 51.1648 54.6646 50.4094C54.1523 49.654 53.3822 49.1113 52.4984 48.8831V46.875C52.4977 46.1293 52.2011 45.4144 51.6738 44.8871C51.1465 44.3598 50.4316 44.0632 49.6859 44.0625H45.9359V39.375H50.7565ZM54.3734 36.5625C54.7443 36.5625 55.1068 36.6725 55.4151 36.8785C55.7235 37.0845 55.9638 37.3774 56.1057 37.72C56.2476 38.0626 56.2847 38.4396 56.2124 38.8033C56.14 39.167 55.9615 39.5011 55.6992 39.7633C55.437 40.0255 55.1029 40.2041 54.7392 40.2765C54.3755 40.3488 53.9985 40.3117 53.6559 40.1698C53.3133 40.0279 53.0204 39.7875 52.8144 39.4792C52.6084 39.1708 52.4984 38.8083 52.4984 38.4375C52.4989 37.9404 52.6966 37.4637 53.0481 37.1122C53.3997 36.7607 53.8763 36.563 54.3734 36.5625ZM49.6859 24.375C49.6859 24.0042 49.7959 23.6416 50.0019 23.3333C50.2079 23.025 50.5008 22.7846 50.8434 22.6427C51.186 22.5008 51.563 22.4637 51.9267 22.536C52.2904 22.6084 52.6245 22.787 52.8867 23.0492C53.149 23.3114 53.3275 23.6455 53.3999 24.0092C53.4722 24.3729 53.4351 24.7499 53.2932 25.0925C53.1513 25.4351 52.911 25.728 52.6026 25.934C52.2943 26.14 51.9318 26.25 51.5609 26.25C51.0638 26.2495 50.5872 26.0518 50.2356 25.7003C49.8841 25.3488 49.6864 24.8721 49.6859 24.375ZM6.56092 24.375C6.56092 24.0042 6.67089 23.6416 6.87692 23.3333C7.08294 23.025 7.37578 22.7846 7.71839 22.6427C8.061 22.5008 8.438 22.4637 8.80172 22.536C9.16543 22.6084 9.49952 22.787 9.76175 23.0492C10.024 23.3114 10.2025 23.6455 10.2749 24.0092C10.3472 24.3729 10.3101 24.7499 10.1682 25.0925C10.0263 25.4351 9.78596 25.728 9.47762 25.934C9.16927 26.14 8.80676 26.25 8.43592 26.25C7.93879 26.2495 7.46217 26.0518 7.11064 25.7003C6.75912 25.3488 6.56142 24.8721 6.56092 24.375ZM5.62342 40.3125C5.25258 40.3125 4.89007 40.2025 4.58173 39.9965C4.27339 39.7905 4.03306 39.4976 3.89115 39.155C3.74923 38.8124 3.7121 38.4354 3.78445 38.0717C3.8568 37.708 4.03537 37.3739 4.2976 37.1117C4.55982 36.8494 4.89391 36.6709 5.25763 36.5985C5.62134 36.5262 5.99834 36.5633 6.34095 36.7052C6.68356 36.8471 6.9764 37.0875 7.18243 37.3958C7.38845 37.7041 7.49842 38.0667 7.49842 38.4375C7.49792 38.9346 7.30022 39.4113 6.9487 39.7628C6.59718 40.1143 6.12055 40.312 5.62342 40.3125ZM10.3109 52.5C10.3109 52.8708 10.201 53.2333 9.99493 53.5417C9.7889 53.85 9.49606 54.0904 9.15345 54.2323C8.81084 54.3742 8.43384 54.4113 8.07013 54.339C7.70641 54.2666 7.37232 54.088 7.1101 53.8258C6.84787 53.5636 6.6693 53.2295 6.59695 52.8658C6.5246 52.5021 6.56173 52.1251 6.70365 51.7825C6.84556 51.4399 7.08589 51.147 7.39423 50.941C7.70257 50.735 8.06508 50.625 8.43592 50.625C8.93305 50.6255 9.40967 50.8232 9.7612 51.1747C10.1127 51.5262 10.3104 52.0029 10.3109 52.5ZM19.6859 15.9375C19.6859 13.2025 20.7724 10.5794 22.7064 8.64546C24.6404 6.71149 27.2634 5.625 29.9984 5.625C32.7335 5.625 35.3565 6.71149 37.2905 8.64546C39.2244 10.5794 40.3109 13.2025 40.3109 15.9375V23.4375H38.4359V15.9375C38.4359 13.6997 37.547 11.5536 35.9646 9.97129C34.3823 8.38895 32.2362 7.5 29.9984 7.5C27.7607 7.5 25.6145 8.38895 24.0322 9.97129C22.4499 11.5536 21.5609 13.6997 21.5609 15.9375V23.4375H19.6859V15.9375ZM36.5609 23.4375H23.4359V15.9375C23.4359 14.197 24.1273 12.5278 25.358 11.2971C26.5887 10.0664 28.2579 9.375 29.9984 9.375C31.7389 9.375 33.4081 10.0664 34.6388 11.2971C35.8695 12.5278 36.5609 14.197 36.5609 15.9375V23.4375ZM44.0609 48.75C44.0602 49.4957 43.7636 50.2106 43.2363 50.7379C42.709 51.2652 41.9941 51.5618 41.2484 51.5625H18.7484C18.0027 51.5618 17.2878 51.2652 16.7605 50.7379C16.2332 50.2106 15.9367 49.4957 15.9359 48.75V26.25C15.9362 26.0014 16.035 25.7631 16.2108 25.5874C16.3865 25.4116 16.6249 25.3127 16.8734 25.3125H43.1234C43.372 25.3127 43.6103 25.4116 43.7861 25.5874C43.9618 25.7631 44.0607 26.0014 44.0609 26.25V48.75ZM53.4359 52.5C53.4359 52.8708 53.326 53.2333 53.1199 53.5417C52.9139 53.85 52.6211 54.0904 52.2785 54.2323C51.9358 54.3742 51.5588 54.4113 51.1951 54.339C50.8314 54.2666 50.4973 54.088 50.2351 53.8258C49.9729 53.5636 49.7943 53.2295 49.7219 52.8658C49.6496 52.5021 49.6867 52.1251 49.8286 51.7825C49.9706 51.4399 50.2109 51.147 50.5192 50.941C50.8276 50.735 51.1901 50.625 51.5609 50.625C52.058 50.6255 52.5347 50.8232 52.8862 51.1747C53.2377 51.5262 53.4354 52.0029 53.4359 52.5ZM27.1859 35.625C27.1864 36.1221 27.3841 36.5988 27.7356 36.9503C28.0872 37.3018 28.5638 37.4995 29.0609 37.5H30.9359C31.9305 37.5 32.8843 37.8951 33.5876 38.5983C34.2908 39.3016 34.6859 40.2554 34.6859 41.25C34.6859 42.2446 34.2908 43.1984 33.5876 43.9016C32.8843 44.6049 31.9305 45 30.9359 45V46.875C30.9359 47.1236 30.8371 47.3621 30.6613 47.5379C30.4855 47.7137 30.2471 47.8125 29.9984 47.8125C29.7498 47.8125 29.5113 47.7137 29.3355 47.5379C29.1597 47.3621 29.0609 47.1236 29.0609 46.875V45H26.2484C25.9998 45 25.7613 44.9012 25.5855 44.7254C25.4097 44.5496 25.3109 44.3111 25.3109 44.0625C25.3109 43.8139 25.4097 43.5754 25.5855 43.3996C25.7613 43.2238 25.9998 43.125 26.2484 43.125H30.9359C31.4332 43.125 31.9101 42.9275 32.2617 42.5758C32.6134 42.2242 32.8109 41.7473 32.8109 41.25C32.8109 40.7527 32.6134 40.2758 32.2617 39.9242C31.9101 39.5725 31.4332 39.375 30.9359 39.375H29.0609C28.0664 39.375 27.1125 38.9799 26.4093 38.2766C25.706 37.5734 25.3109 36.6196 25.3109 35.625C25.3109 34.6304 25.706 33.6766 26.4093 32.9733C27.1125 32.2701 28.0664 31.875 29.0609 31.875V30C29.0609 29.7514 29.1597 29.5129 29.3355 29.3371C29.5113 29.1613 29.7498 29.0625 29.9984 29.0625C30.2471 29.0625 30.4855 29.1613 30.6613 29.3371C30.8371 29.5129 30.9359 29.7514 30.9359 30V31.875H33.7484C33.9971 31.875 34.2355 31.9738 34.4113 32.1496C34.5872 32.3254 34.6859 32.5639 34.6859 32.8125C34.6859 33.0611 34.5872 33.2996 34.4113 33.4754C34.2355 33.6512 33.9971 33.75 33.7484 33.75H29.0609C28.5638 33.7505 28.0872 33.9482 27.7356 34.2997C27.3841 34.6512 27.1864 35.1279 27.1859 35.625Z" fill="#008080"/>
</svg>
