<svg width="60" height="60" viewBox="0 0 60 60" fill="none" xmlns="http://www.w3.org/2000/svg">
<path d="M55.658 44.8927C54.6147 44.8927 53.7205 45.4831 53.2774 46.3367H49.2578V34.9279H42.6546C42.6527 34.9279 42.6517 34.9289 42.6498 34.9289V30.8863H53.1768C53.5764 31.8463 54.5354 32.5239 55.6581 32.5239C57.1385 32.5239 58.3392 31.3469 58.3392 29.8952C58.3392 28.4435 57.1385 27.2646 55.6581 27.2646C54.5353 27.2646 53.5764 27.944 53.1768 28.9041H42.6497V24.9312C42.6516 24.9312 42.653 24.9322 42.6549 24.9322H49.2581V16.7104L53.8582 14.3431C54.3349 14.7689 54.9627 15.0351 55.658 15.0351C57.1384 15.0351 58.3392 13.8582 58.3392 12.4064C58.3392 10.9547 57.1386 9.77783 55.658 9.77783C54.177 9.77783 52.9763 10.9547 52.9763 12.4064C52.9763 12.4557 52.9887 12.5012 52.991 12.5506L47.2367 15.5122V22.95H42.6549C42.653 22.95 42.6516 22.951 42.6497 22.951V21.1228C42.6497 18.8368 41.2407 14.5125 35.9092 14.5125H23.6455C21.3141 14.5125 16.9051 15.8936 16.9051 21.1228V22.9587C16.8892 22.9577 16.876 22.9499 16.8602 22.9499H12.2785V11.6089H6.39925C6.05281 10.5501 5.05199 9.77783 3.85711 9.77783C2.37665 9.77783 1.17592 10.9547 1.17592 12.4064C1.17592 13.8582 2.37665 15.0351 3.85711 15.0351C4.90048 15.0351 5.79511 14.4447 6.23832 13.5911H10.2571V24.9322H16.8602C16.876 24.9322 16.8893 24.9244 16.9051 24.9234V28.9158C16.8839 28.9148 16.8661 28.9041 16.8448 28.9041H6.33803C5.93878 27.9431 4.97987 27.2646 3.85711 27.2646C2.37665 27.2646 1.17592 28.4415 1.17592 29.8952C1.17592 31.3469 2.37665 32.5239 3.85711 32.5239C4.97944 32.5239 5.93821 31.8464 6.33803 30.8863H16.8449C16.8661 30.8863 16.884 30.8756 16.9051 30.8747V35.2174C16.8893 35.2164 16.876 35.2086 16.8597 35.2086H10.257V43.2175L5.65592 45.5847C5.17928 45.1589 4.55197 44.8928 3.85711 44.8928C2.37658 44.8928 1.17578 46.0715 1.17578 47.5234C1.17578 48.9752 2.37658 50.152 3.85711 50.152C5.33756 50.152 6.53829 48.9751 6.53829 47.5234C6.53829 47.473 6.52596 47.4266 6.52354 47.3783L12.2785 44.4156V37.1908H16.8597C16.876 37.1908 16.8893 37.182 16.9051 37.182V38.807C16.9051 41.0931 18.3141 45.4153 23.6455 45.4153H35.9092C38.2406 45.4153 42.6496 44.0342 42.6496 38.807V36.9091C42.6515 36.9091 42.6525 36.9102 42.6544 36.9102H47.2362V48.319H53.1148C53.4603 49.3787 54.4616 50.1519 55.658 50.1519C57.1384 50.1519 58.3392 48.975 58.3392 47.5234C58.3392 46.0715 57.1384 44.8927 55.658 44.8927ZM40.6281 38.807C40.6281 43.2649 36.3958 43.4295 35.9067 43.4333H23.6455C19.0947 43.4333 18.9304 39.2772 18.9264 38.807V21.1227C18.9264 16.66 23.1657 16.4984 23.6455 16.4944H35.9092C40.4599 16.4944 40.6241 20.6522 40.6281 21.1227V38.807Z" fill="#008080"/>
<path d="M36.3501 32.8947C36.3067 31.546 35.6012 30.3641 34.5412 29.6399C34.4716 29.59 34.3943 29.5409 34.3105 29.4928C33.7476 29.1588 33.0993 28.9486 32.4057 28.8998C32.2725 28.8865 32.1396 28.8793 32.009 28.8793C31.9402 28.8793 31.5384 28.8788 30.9476 28.8782L30.3113 28.8708H29.9893V28.8617C28.4623 28.8598 27.1526 28.8582 27.0234 28.8582C25.9357 28.8582 25.0447 28.0224 24.9893 26.9757C24.9891 26.9737 24.9891 26.9717 24.989 26.9698C24.9876 26.9429 24.9872 26.9158 24.9869 26.8884C24.9872 26.8613 24.9877 26.8341 24.989 26.8072C24.9891 26.8052 24.9891 26.8033 24.9893 26.8014C25.0447 25.7546 25.9357 24.9188 27.0234 24.9188C27.2624 24.9188 32.3195 24.9135 34.5413 24.9105H34.7919C35.3505 24.9105 35.8025 24.4668 35.8025 23.9195C35.8025 23.3721 35.3505 22.9284 34.7919 22.9284H32.8545V19.7347C32.8545 19.1869 32.402 18.7437 31.8438 18.7437C31.2856 18.7437 30.833 19.1869 30.833 19.7347V22.9333C29.8951 22.934 28.8808 22.9345 28.7209 22.9347L28.4849 22.9387V19.7347C28.4849 19.1869 28.0323 18.7437 27.4741 18.7437C26.916 18.7437 26.4634 19.1869 26.4634 19.7347V22.9948C24.7009 23.235 23.2939 24.5722 23.0157 26.283H23.0113C22.9814 26.4752 22.9648 26.6717 22.9648 26.8722C22.9648 26.8777 22.9653 26.883 22.9653 26.8884C22.9653 26.894 22.9648 26.8993 22.9648 26.9048C22.9648 27.1053 22.9814 27.3019 23.0113 27.494H23.0157C23.3062 29.2804 24.8274 30.6606 26.6993 30.8083L28.7208 30.8423C28.8924 30.8426 29.3697 30.8431 29.9892 30.8439V30.838H32.0923C33.3204 30.838 34.3288 31.8361 34.3317 33.0319C34.3288 34.2277 33.3293 35.2005 32.1011 35.2005H24.3403V35.2108V35.2109H24.28C23.7214 35.2109 23.2694 35.6546 23.2694 36.202C23.2694 36.7493 23.7214 37.193 24.28 37.193H24.3403H25.1578H26.4636V40.2254C26.4636 40.7732 26.9162 41.2165 27.4743 41.2165C28.0325 41.2165 28.4851 40.7732 28.4851 40.2254V37.193H30.3114L30.8331 37.187V40.2254C30.8331 40.7732 31.2858 41.2165 31.8439 41.2165C32.4021 41.2165 32.8547 40.7732 32.8547 40.2254V37.1077C33.3791 37.0158 33.8711 36.8318 34.3105 36.571C34.3944 36.5229 34.4718 36.4737 34.5413 36.424C35.6013 35.6998 36.3067 34.5178 36.3502 33.1691C36.3517 33.1343 36.3524 33.0992 36.3528 33.0641C36.353 33.0551 36.3535 33.0461 36.3535 33.037C36.3535 33.0353 36.3535 33.0336 36.3535 33.0319C36.3535 33.0302 36.3535 33.0285 36.3535 33.0268C36.3535 33.0177 36.353 33.0088 36.3528 32.9997C36.3523 32.9646 36.3516 32.9295 36.3501 32.8947Z" fill="#008080"/>
</svg>
