<svg width="80" height="80" viewBox="0 0 80 80" fill="none" xmlns="http://www.w3.org/2000/svg">
<mask id="mask0_1203_2753" style="mask-type:luminance" maskUnits="userSpaceOnUse" x="7" y="0" width="66" height="80">
<path d="M72.1033 36.9151L50.5689 58.4572L72.1033 79.9994H47.4958L25.9537 58.4572L47.4958 36.9151H72.1033ZM47.4958 0L7.5 39.9958L19.8076 52.3034L72.1033 0H47.4958V0Z" fill="white"/>
</mask>
<g mask="url(#mask0_1203_2753)">
<path d="M25.9609 58.4572L38.2608 70.7648L72.1029 36.915H47.4954L25.9609 58.4572Z" fill="#39CEFD"/>
</g>
<mask id="mask1_1203_2753" style="mask-type:luminance" maskUnits="userSpaceOnUse" x="7" y="0" width="66" height="80">
<path d="M72.1033 36.9151L50.5689 58.4572L72.1033 79.9994H47.4958L25.9537 58.4572L47.4958 36.9151H72.1033ZM47.4958 0L7.5 39.9958L19.8076 52.3034L72.1033 0H47.4958V0Z" fill="white"/>
</mask>
<g mask="url(#mask1_1203_2753)">
<path d="M47.4958 0H72.1033L19.8076 52.3034L7.5 39.9958L47.4958 0Z" fill="#39CEFD"/>
</g>
<mask id="mask2_1203_2753" style="mask-type:luminance" maskUnits="userSpaceOnUse" x="7" y="0" width="66" height="80">
<path d="M72.1033 36.9151L50.5689 58.4572L72.1033 79.9994H47.4958L25.9537 58.4572L47.4958 36.9151H72.1033ZM47.4958 0L7.5 39.9958L19.8076 52.3034L72.1033 0H47.4958V0Z" fill="white"/>
</mask>
<g mask="url(#mask2_1203_2753)">
<path d="M38.2617 70.7646L47.4963 79.9915H72.1038L50.5693 58.457L38.2617 70.7646Z" fill="#03569B"/>
</g>
<mask id="mask3_1203_2753" style="mask-type:luminance" maskUnits="userSpaceOnUse" x="7" y="0" width="66" height="80">
<path d="M72.1033 36.9151L50.5689 58.4572L72.1033 79.9994H47.4958L25.9537 58.4572L47.4958 36.9151H72.1033ZM47.4958 0L7.5 39.9958L19.8076 52.3034L72.1033 0H47.4958V0Z" fill="white"/>
</mask>
<g mask="url(#mask3_1203_2753)">
<path d="M56.5152 64.4414L50.5693 58.457L38.2617 70.7646L56.5152 64.4414Z" fill="url(#paint0_linear_1203_2753)"/>
</g>
<mask id="mask4_1203_2753" style="mask-type:luminance" maskUnits="userSpaceOnUse" x="7" y="0" width="66" height="80">
<path d="M72.1033 36.9151L50.5689 58.4572L72.1033 79.9994H47.4958L25.9537 58.4572L47.4958 36.9151H72.1033ZM47.4958 0L7.5 39.9958L19.8076 52.3034L72.1033 0H47.4958V0Z" fill="white"/>
</mask>
<g mask="url(#mask4_1203_2753)">
<path d="M25.9609 58.4525L38.2688 46.1445L50.5775 58.4525L38.2688 70.7605L25.9609 58.4525Z" fill="#16B9FD"/>
</g>
<path d="M72.1033 36.9151L50.5689 58.4572L72.1033 79.9994H47.4958L25.9537 58.4572L47.4958 36.9151H72.1033ZM47.4958 0L7.5 39.9958L19.8076 52.3034L72.1033 0H47.4958Z" fill="url(#paint1_radial_1203_2753)"/>
<defs>
<linearGradient id="paint0_linear_1203_2753" x1="41.8535" y1="73.1398" x2="51.0199" y2="63.9734" gradientUnits="userSpaceOnUse">
<stop stop-color="#1A237E" stop-opacity="0.4"/>
<stop offset="1" stop-color="#1A237E" stop-opacity="0"/>
</linearGradient>
<radialGradient id="paint1_radial_1203_2753" cx="0" cy="0" r="1" gradientUnits="userSpaceOnUse" gradientTransform="translate(9.31493 5.45252) scale(97.8694 97.8694)">
<stop stop-color="white" stop-opacity="0.1"/>
<stop offset="1" stop-color="white" stop-opacity="0"/>
</radialGradient>
</defs>
</svg>
