<svg width="80" height="80" viewBox="0 0 80 80" fill="none" xmlns="http://www.w3.org/2000/svg">
<g clip-path="url(#clip0_28_11880)">
<path d="M71.4278 40H51.4278V45.7125H65.1403C63.1403 54.2838 56.8528 61.425 48.5691 64.2838L15.7116 31.4288C19.1403 21.4288 28.8541 14.2863 39.9991 14.2863C48.5703 14.2863 56.2866 18.5738 61.1416 25.1438L65.4291 21.4313C59.7116 13.7125 50.5703 8.57129 39.9991 8.57129C25.1416 8.57129 12.5703 19.1425 9.42781 33.1425L47.1403 70.855C60.8528 67.4263 71.4278 54.855 71.4278 39.9975V40ZM8.57031 40.2875C8.57031 48.2875 11.7128 56 17.7128 62C23.7128 68 31.7128 71.1425 39.4253 71.1425L8.57031 40.2875Z" fill="white"/>
<path d="M40 0C18 0 0 18 0 40C0 62 18 80 40 80C62 80 80 62 80 40C80 18 62 0 40 0ZM17.7125 62.2875C11.7125 56.2875 8.57 48.2875 8.57 40.575L39.7125 71.4287C31.7125 71.1413 23.7125 68.2862 17.7125 62.2862V62.2875ZM46.855 70.575L9.42875 33.1425C12.5712 19.1425 25.1425 8.57125 40 8.57125C50.5713 8.57125 59.7125 13.7137 65.4287 21.4287L61.1412 25.1413C56.2875 18.5713 48.5713 14.2875 40 14.2875C28.8575 14.2875 19.4287 21.43 15.7125 31.43L48.5712 64.2875C56.8587 61.43 63.1425 54.2875 65.1425 45.7163H51.43V40H71.43C71.43 54.8575 60.8587 67.4287 46.8587 70.5713L46.855 70.575Z" fill="#663399"/>
</g>
<defs>
<clipPath id="clip0_28_11880">
<rect width="80" height="80" fill="white"/>
</clipPath>
</defs>
</svg>
