<svg width="80" height="80" viewBox="0 0 80 80" fill="none" xmlns="http://www.w3.org/2000/svg">
<g clip-path="url(#clip0_1142_1741)">
<path d="M77.9597 36.4858L43.5122 2.03957C41.5297 0.0558203 38.3122 0.0558203 36.3265 2.03957L29.174 9.19332L38.2478 18.2671C40.3572 17.5552 42.7747 18.0327 44.4553 19.7133C46.1447 21.4046 46.6184 23.8427 45.889 25.9589L54.634 34.7046C56.7497 33.9752 59.1915 34.4464 60.8803 36.1389C63.2428 38.4996 63.2428 42.3264 60.8803 44.6883C60.3189 45.25 59.6523 45.6956 58.9186 45.9996C58.1849 46.3036 57.3985 46.4601 56.6043 46.4601C55.8102 46.4601 55.0238 46.3036 54.2901 45.9996C53.5564 45.6956 52.8898 45.25 52.3284 44.6883C51.4849 43.8443 50.9099 42.7696 50.6758 41.5995C50.4417 40.4295 50.559 39.2163 51.0128 38.1127L42.8578 29.9577L42.8565 51.4208C43.4482 51.7122 43.9884 52.0981 44.4559 52.5633C46.8172 54.9239 46.8172 58.7496 44.4559 61.1152C42.094 63.4758 38.2659 63.4758 35.9065 61.1152C33.5453 58.7502 33.5453 54.9246 35.9065 52.5633C36.4722 51.9967 37.1451 51.5484 37.8859 51.2446V29.5827C37.1445 29.2797 36.4715 28.8311 35.9065 28.2633C34.1178 26.4758 33.6872 23.8508 34.6047 21.6533L25.659 12.7077L2.03903 36.3264C1.0861 37.2797 0.550781 38.5723 0.550781 39.9202C0.550781 41.2681 1.0861 42.5607 2.03903 43.5139L36.4872 77.9602C38.4709 79.9439 41.6872 79.9439 43.674 77.9602L77.9603 43.6739C78.913 42.7204 79.4481 41.4277 79.448 40.0798C79.4479 38.7318 78.9126 37.4392 77.9597 36.4858Z" fill="#F34F29"/>
</g>
<defs>
<clipPath id="clip0_1142_1741">
<rect width="80" height="80" fill="white"/>
</clipPath>
</defs>
</svg>
