<svg width="80" height="80" viewBox="0 0 80 80" fill="none" xmlns="http://www.w3.org/2000/svg">
<path fill-rule="evenodd" clip-rule="evenodd" d="M40.0003 3.18945C19.1584 3.18945 2.25781 20.0863 2.25781 40.932C2.25781 57.6082 13.0722 71.7551 28.0684 76.7463C29.9541 77.0963 30.6466 75.9276 30.6466 74.9307C30.6466 74.0307 30.6116 71.0576 30.5953 67.9038C20.0953 70.187 17.8797 63.4507 17.8797 63.4507C16.1628 59.0882 13.6891 57.9282 13.6891 57.9282C10.2641 55.5857 13.9472 55.6345 13.9472 55.6345C17.7366 55.9001 19.7328 59.5238 19.7328 59.5238C23.0991 65.2926 28.5622 63.6251 30.7159 62.6613C31.0547 60.222 32.0328 58.5563 33.1122 57.6138C24.7291 56.6607 15.9159 53.4238 15.9159 38.962C15.9159 34.8413 17.3909 31.4745 19.8053 28.8307C19.4128 27.8807 18.1209 24.042 20.1703 18.8432C20.1703 18.8432 23.3391 17.8288 30.5516 22.712C33.5628 21.8751 36.7922 21.4545 40.0003 21.4401C43.2066 21.4545 46.4378 21.8738 49.4547 22.7107C56.6584 17.8276 59.8234 18.842 59.8234 18.842C61.8778 24.0401 60.5859 27.8795 60.1941 28.8295C62.6141 31.4732 64.0784 34.8401 64.0784 38.9607C64.0784 53.457 55.2491 56.6482 46.8447 57.5832C48.1991 58.7545 49.4053 61.052 49.4053 64.5726C49.4053 69.6226 49.3616 73.687 49.3616 74.9301C49.3616 75.9345 50.0416 77.1113 51.9541 76.7407C66.9416 71.7445 77.7434 57.602 77.7434 40.932C77.7428 20.0876 60.8441 3.18945 40.0003 3.18945Z" fill="#181616"/>
<path d="M16.5525 57.3791C16.4694 57.5666 16.1744 57.6229 15.9056 57.4948C15.6306 57.3723 15.4775 57.1166 15.5662 56.9285C15.6475 56.7348 15.9431 56.6816 16.2162 56.811C16.4912 56.9341 16.6475 57.1923 16.5519 57.3798L16.5525 57.3791ZM18.0812 59.0848C17.9019 59.2516 17.55 59.1741 17.3112 58.9098C17.0637 58.6473 17.0175 58.2954 17.2006 58.126C17.3869 57.9598 17.7281 58.0385 17.9756 58.301C18.2219 58.5673 18.2706 58.916 18.0819 59.0854L18.0812 59.0848ZM19.57 61.2579C19.3387 61.4191 18.96 61.2685 18.7262 60.9329C18.495 60.5966 18.495 60.1935 18.7325 60.0329C18.9656 59.8716 19.3387 60.0173 19.5762 60.3498C19.8062 60.6904 19.8062 61.0941 19.57 61.2579ZM21.6081 63.3585C21.4019 63.5866 20.9606 63.5254 20.6381 63.2148C20.3087 62.9104 20.2169 62.4773 20.4237 62.2498C20.6337 62.021 21.0769 62.0848 21.4012 62.3935C21.7306 62.6973 21.83 63.131 21.6094 63.3579L21.6081 63.3585ZM24.4206 64.5779C24.3287 64.8735 23.905 65.0079 23.4769 64.8816C23.05 64.7523 22.7706 64.4066 22.8581 64.1079C22.9456 63.8098 23.3725 63.6704 23.8031 63.8048C24.23 63.9335 24.5094 64.2773 24.4206 64.5779ZM27.51 64.8035C27.5206 65.1148 27.1581 65.3723 26.71 65.3785C26.2581 65.3891 25.8925 65.1366 25.8881 64.8304C25.8881 64.516 26.2431 64.2616 26.6944 64.2529C27.1425 64.2448 27.5106 64.4948 27.5106 64.8029L27.51 64.8035ZM30.3837 64.3148C30.4375 64.6179 30.1256 64.9298 29.68 65.0129C29.2425 65.0941 28.8362 64.9054 28.78 64.6048C28.7262 64.2935 29.0437 63.9816 29.4812 63.901C29.9275 63.8241 30.3275 64.0066 30.3837 64.3148Z" fill="#181616"/>
</svg>
