<svg width="80" height="80" viewBox="0 0 80 80" fill="none" xmlns="http://www.w3.org/2000/svg">
<path d="M77.9712 32.1137L77.8605 31.8312L67.168 3.92622C66.9504 3.37918 66.5651 2.91512 66.0674 2.60059C65.5695 2.29141 64.9888 2.14247 64.4036 2.17388C63.8183 2.20529 63.2569 2.41553 62.7949 2.77622C62.3381 3.14723 62.0068 3.65007 61.8462 4.21622L54.6268 26.305H25.3924L18.1724 4.21622C18.0158 3.64721 17.6838 3.14203 17.2237 2.77247C16.7617 2.41178 16.2003 2.20154 15.615 2.17013C15.0298 2.13872 14.449 2.28767 13.9512 2.59684C13.4547 2.91275 13.0698 3.37637 12.8505 3.92247L2.13805 31.815L2.0318 32.0975C-1.13008 40.3593 1.55492 49.7175 8.61742 55.045L8.6543 55.0737L8.75242 55.1431L25.0405 67.3406L33.0987 73.4393L38.0074 77.1456C38.5817 77.5814 39.2828 77.8174 40.0037 77.8174C40.7246 77.8174 41.4257 77.5814 41.9999 77.1456L46.9087 73.4393L54.9668 67.3406L71.3531 55.0693L71.3937 55.0368C78.4393 49.7081 81.1199 40.3668 77.9712 32.1137Z" fill="#E24329"/>
<path d="M77.9719 32.1136L77.8613 31.8311C72.6511 32.9005 67.7415 35.1074 63.4831 38.2942L40 56.0511C47.9969 62.1011 54.9587 67.3573 54.9587 67.3573L71.345 55.0861L71.3856 55.0536C78.4425 49.7242 81.1269 40.3736 77.9719 32.1136Z" fill="#FC6D26"/>
<path d="M25.041 67.357L33.0991 73.4558L38.0079 77.162C38.5821 77.5979 39.2832 77.8338 40.0041 77.8338C40.7251 77.8338 41.4261 77.5979 42.0004 77.162L46.9091 73.4558L54.9673 67.357C54.9673 67.357 47.9973 62.0845 40.0004 56.0508C35.0109 59.8155 30.0244 63.5842 25.041 67.357Z" fill="#FCA326"/>
<path d="M16.5118 38.2948C12.2568 35.1018 7.34837 32.8892 2.13805 31.8154L2.0318 32.0979C-1.13008 40.3598 1.55492 49.7179 8.61742 55.0454L8.6543 55.0742L8.75242 55.1436L25.0405 67.3411L39.9993 56.0348L16.5118 38.2948Z" fill="#FC6D26"/>
</svg>
