<svg width="80" height="80" viewBox="0 0 80 80" fill="none" xmlns="http://www.w3.org/2000/svg">
<path d="M29.8802 61.0744C29.8802 61.0744 26.9341 62.7876 31.9768 63.3674C38.086 64.0643 41.2083 63.9644 47.9406 62.6902C47.9406 62.6902 49.7106 63.8 52.1825 64.7613C37.0904 71.2295 18.0262 64.3866 29.8802 61.0744ZM28.036 52.6338C28.036 52.6338 24.7317 55.0797 29.7782 55.6017C36.3041 56.275 41.4578 56.33 50.3757 54.6128C50.3757 54.6128 51.6094 55.8633 53.5489 56.5472C35.3015 61.8829 14.9774 56.968 28.036 52.6338Z" fill="#5382A1"/>
<path d="M43.5827 38.3154C47.3014 42.5968 42.6058 46.4497 42.6058 46.4497C42.6058 46.4497 52.0478 41.5753 47.7115 35.4714C43.6614 29.7788 40.5555 26.9508 57.3696 17.1992C57.3698 17.199 30.9771 23.7906 43.5827 38.3154Z" fill="#E76F00"/>
<path d="M63.5416 67.3175C63.5416 67.3175 65.7218 69.1141 61.1406 70.5036C52.4292 73.1426 24.883 73.9395 17.2308 70.609C14.48 69.4121 19.6385 67.7514 21.2612 67.4029C22.9535 67.036 23.9205 67.1043 23.9205 67.1043C20.8614 64.9493 4.14749 71.3357 15.4307 73.1649C46.2016 78.155 71.5234 70.9178 63.5416 67.3175ZM31.2951 43.8884C31.2951 43.8884 17.2834 47.2164 26.3332 48.4249C30.1543 48.9365 37.7717 48.8208 44.8668 48.2263C50.6655 47.7371 56.4883 46.6973 56.4883 46.6973C56.4883 46.6973 54.4436 47.573 52.9643 48.5829C38.7356 52.3252 11.2484 50.5841 19.1616 46.7563C25.8538 43.5214 31.2951 43.8884 31.2951 43.8884ZM56.4305 57.9381C70.8946 50.422 64.2072 43.1989 59.5391 44.1722C58.395 44.4104 57.8848 44.6167 57.8848 44.6167C57.8848 44.6167 58.3098 43.9513 59.1206 43.6633C68.3552 40.4168 75.4571 53.2387 56.1396 58.3172C56.1396 58.3172 56.3638 58.1173 56.4305 57.9381Z" fill="#5382A1"/>
<path d="M47.7115 1.45312C47.7115 1.45312 55.7219 9.46607 40.1139 21.7882C27.5979 31.6724 37.2599 37.3082 40.1087 43.7475C32.8031 37.1556 27.4416 31.3532 31.0385 25.9526C36.3177 18.0251 50.9435 14.1815 47.7115 1.45312Z" fill="#E76F00"/>
<path d="M32.7199 78.3045C46.6037 79.1932 67.9237 77.8114 68.4285 71.2422C68.4285 71.2422 67.4581 73.7324 56.9543 75.7104C45.1044 77.9402 30.4888 77.6801 21.8203 76.2509C21.8207 76.2504 23.5951 77.7193 32.7199 78.3045Z" fill="#5382A1"/>
</svg>
