<svg width="80" height="80" viewBox="0 0 80 80" fill="none" xmlns="http://www.w3.org/2000/svg">
<path d="M67.5152 10H38.6289C38.6289 17.2 44.4564 23.03 51.6583 23.03H56.9708V28.1713C56.9708 35.3713 62.8008 41.2012 70.0008 41.2012V12.4856C70.0003 11.8265 69.7382 11.1946 69.2722 10.7286C68.8062 10.2625 68.1742 10.0005 67.5152 10Z" fill="#2684FF"/>
<path d="M53.2013 24.4H24.3145C24.3145 31.5994 30.1426 37.4294 37.342 37.4294H42.657V42.5707C42.657 49.7707 48.487 55.6007 55.687 55.6007V26.885C55.686 26.2261 55.4238 25.5945 54.9578 25.1285C54.4919 24.6626 53.8603 24.401 53.2013 24.4Z" fill="url(#paint0_linear_1142_1760)"/>
<path d="M38.8869 38.7988H10C10 46.0013 15.8275 51.8288 23.03 51.8288H28.3425V56.9726C28.3425 64.1726 34.1725 70.0001 41.3719 70.0001V41.287C41.3712 40.6279 41.1093 39.9959 40.6435 39.5296C40.1776 39.0634 39.546 38.8002 38.8869 38.7988Z" fill="url(#paint1_linear_1142_1760)"/>
<defs>
<linearGradient id="paint0_linear_1142_1760" x1="55.0857" y1="24.4325" x2="42.7957" y2="37.105" gradientUnits="userSpaceOnUse">
<stop offset="0.176" stop-color="#0052CC"/>
<stop offset="1" stop-color="#2684FF"/>
</linearGradient>
<linearGradient id="paint1_linear_1142_1760" x1="41.6025" y1="38.9101" x2="27.3925" y2="52.7351" gradientUnits="userSpaceOnUse">
<stop offset="0.176" stop-color="#0052CC"/>
<stop offset="1" stop-color="#2684FF"/>
</linearGradient>
</defs>
</svg>
