<svg width="80" height="80" viewBox="0 0 80 80" fill="none" xmlns="http://www.w3.org/2000/svg">
<g clip-path="url(#clip0_1132_1858)">
<path d="M50.1396 65.0001C50.7646 65.9029 51.1465 65.8335 51.6324 65.6251C52.1184 65.4167 77.1187 56.9792 77.8824 56.7017C78.6462 56.4238 78.4034 56.1807 78.1605 55.7985C77.9174 55.4167 69.584 44.0973 69.1671 43.4376C68.7505 42.7779 68.5421 42.9167 67.8824 43.1251L41.3809 50.021C41.3809 50.021 49.5146 64.097 50.1396 65.0001ZM80.0005 53.4735V40.2242C77.019 41.0185 73.2477 42.0229 71.759 42.4188C74.0049 45.4238 77.5162 50.1267 80.0005 53.4735ZM71.7334 26.1004C71.3249 26.1932 62.2812 27.8276 61.724 27.9017C61.1671 27.976 61.3527 28.2917 61.5755 28.6073L69.534 39.527C69.534 39.527 79.2649 37.1129 79.8593 36.9829C79.9074 36.9723 79.9546 36.961 80.0005 36.9495V35.5035C78.2318 33.2607 73.413 27.1542 72.9965 26.5835C72.4952 25.8963 72.1421 26.0079 71.7334 26.1004Z" fill="#F35045"/>
<path d="M14.8296 8.94812C16.788 8.85906 16.9668 9.30469 17.8271 10.5806L39.4427 46.7188L66.6221 40.2078C65.1162 38.0731 58.2799 28.3809 57.619 27.4559C56.8765 26.4159 57.6377 25.9331 58.8449 25.7291C60.0518 25.5247 70.4512 23.7791 71.3424 23.6491C72.234 23.5191 72.9399 23.2034 74.3881 24.9491C75.1293 25.8422 77.6418 28.9709 79.9996 31.9038V15C79.9996 10.8681 78.5324 7.335 75.5987 4.40094C72.6646 1.46719 69.1315 0 64.9996 0H14.9996C10.8677 0 7.33461 1.46719 4.40055 4.40094C2.71773 6.08437 1.51992 7.96469 0.802734 10.0419C5.70211 9.63937 13.459 9.01062 14.8296 8.94812Z" fill="#F35045"/>
<path d="M52.5903 69.8637C50.2984 70.5581 49.2706 70.9028 47.7778 68.8194C46.6597 67.2591 40.6131 56.3684 37.6484 50.9997C32.0375 52.4691 21.7691 55.1491 18.8078 55.8606C15.9178 56.555 14.6834 54.8222 14.2087 53.7544C13.8759 53.005 5.40281 34.7369 0 23.0156V65C0 69.1322 1.46719 72.6647 4.40094 75.5991C7.335 78.5328 10.8681 80 15 80H65C69.1319 80 72.665 78.5328 75.5991 75.5991C78.5328 72.6647 80 69.1322 80 65V60.0684C73.8625 62.3134 54.1344 69.3959 52.5903 69.8637Z" fill="#F35045"/>
<path d="M18.8787 51.6529C19.6912 51.467 34.914 47.8239 35.239 47.7542C35.564 47.6845 35.7727 47.4989 35.4246 46.8957C35.0765 46.2926 15.1327 11.8676 15.1327 11.8676C14.9487 11.5517 15.0012 11.4464 14.5009 11.4726C14.0549 11.4964 2.77023 12.5032 0.157734 12.7214C0.0806167 13.2738 0.0325298 13.8298 0.0136719 14.3873C2.66586 19.817 17.8884 51.2113 17.9737 51.467C18.0665 51.7457 18.0665 51.8385 18.8787 51.6529Z" fill="#F35045"/>
</g>
<defs>
<clipPath id="clip0_1132_1858">
<rect width="80" height="80" fill="white"/>
</clipPath>
</defs>
</svg>
