<svg width="80" height="80" viewBox="0 0 80 80" fill="none" xmlns="http://www.w3.org/2000/svg">
<path d="M70.2495 39.8327L53.1628 22.7437C53.0913 22.6726 52.9948 22.6328 52.8948 22.6328C52.8878 22.6328 52.8803 22.6332 52.8725 22.6336C52.7651 22.6399 52.6651 22.6922 52.5979 22.777L45.3151 32.018C45.1963 32.1688 45.2096 32.384 45.3448 32.5196L53.1909 40.3657C53.4729 40.6481 53.6276 41.0231 53.6264 41.4235C53.6252 41.8196 53.4713 42.1899 53.1924 42.4657L50.9248 44.7329C50.7971 44.861 50.7775 45.061 50.8775 45.2106C51.4427 46.0563 52.3681 47.4489 52.4545 47.6032C52.7385 48.1716 52.8334 49.6227 51.9955 50.2602L34.1448 63.9702C34.0518 64.0421 33.9971 64.153 33.9971 64.2702C33.9971 65.7913 33.9967 67.846 33.9963 69.9147C33.9959 72.0022 33.9951 74.1038 33.9951 75.6842C33.9951 76.4737 33.9955 77.1334 33.9959 77.5951C33.9959 77.8264 33.9959 78.0084 33.9963 78.1322C33.9967 78.3959 33.9971 78.5556 34.2061 78.6595C34.2584 78.6857 34.3163 78.6997 34.3752 78.6997C34.5315 78.6997 34.594 78.638 34.7447 78.4876L35.0431 78.1896C35.3044 77.9291 35.6872 77.5462 36.1744 77.0599C37.1486 76.0869 38.5392 74.6966 40.2088 73.0286C43.5471 69.6923 47.9975 65.2434 52.4479 60.795C61.3479 51.8989 70.2475 43.0012 70.2475 43.0012C71.1124 42.1257 71.112 40.7046 70.2495 39.8327Z" fill="#5E8CDA"/>
<path d="M47.5432 3.26911L47.5377 3.26131C47.5338 3.25661 47.5307 3.25191 47.5268 3.24761L47.517 3.23591C47.4486 3.15431 47.3502 3.10501 47.2436 3.09961C47.2377 3.09961 47.2319 3.09961 47.226 3.09961C47.1264 3.09961 47.0299 3.13941 46.9584 3.21051L11.3615 38.8117C10.9377 39.2308 10.7037 39.7941 10.7041 40.3957C10.7045 40.9965 10.9385 41.5574 11.3631 41.9758L28.4451 59.0598C28.5158 59.1309 28.6123 59.1707 28.7123 59.1707C28.7197 59.1707 28.7268 59.1707 28.7346 59.1699C28.8424 59.1633 28.942 59.1113 29.0092 59.0265L36.2963 49.7855C36.4147 49.6347 36.4022 49.4199 36.2666 49.2843L28.4127 41.4378C28.1346 41.162 27.9818 40.7921 27.9811 40.3956C27.9807 39.9968 28.1338 39.6241 28.4124 39.3464L30.6847 37.0706C30.814 36.9405 30.832 36.7374 30.7277 36.587L29.1765 34.3581C28.5499 33.4698 28.7445 32.2089 29.6089 31.546L47.4662 17.8449C47.5588 17.7734 47.6142 17.6629 47.6142 17.5449L47.6197 3.49721C47.6197 3.41481 47.5932 3.33481 47.5432 3.26911Z" fill="#093071"/>
<path d="M50.6877 47.373L30.9143 34.5312L39.6479 47.0871C39.8362 47.3742 39.8167 47.8652 39.6096 48.1426L23.9662 67.9965C23.6892 68.3559 23.4584 68.7453 23.6537 69.1478C23.7596 69.3587 24.0154 69.5266 24.2623 69.5473C24.5713 69.5442 24.8076 69.409 25.133 69.1614L50.2744 49.8615C51.0432 49.2739 51.0225 47.8509 50.6877 47.373Z" fill="#F2C913"/>
<path d="M57.9463 12.6575C57.8279 12.4157 57.5647 12.252 57.292 12.252C57.049 12.252 56.8186 12.3571 56.4678 12.6254L31.3158 31.9403C30.5185 32.5501 30.3385 33.7122 30.9138 34.5313L50.6872 47.3731C50.4009 46.9536 42.036 34.8278 41.9517 34.7051C41.7622 34.4371 41.7779 33.9153 41.9841 33.6531L57.6279 13.791L57.6388 13.7785C57.8928 13.4528 58.1475 13.0708 57.9463 12.6575Z" fill="#F4D646"/>
</svg>
