<svg width="60" height="60" viewBox="0 0 60 60" fill="none" xmlns="http://www.w3.org/2000/svg">
<path d="M57.7888 34.9157C55.4633 47.6162 44.3895 56.8341 31.4575 56.8341C25.0638 56.8341 18.9737 54.5885 14.139 50.4789L14.4197 53.2872C14.4304 53.3944 14.4199 53.5027 14.3887 53.6058C14.3576 53.7089 14.3065 53.8049 14.2382 53.8883C14.17 53.9716 14.086 54.0408 13.9911 54.0917C13.8962 54.1426 13.7921 54.1743 13.6849 54.185C13.2341 54.2312 12.8323 53.9012 12.7871 53.4503L12.2919 48.4949C12.2703 48.2785 12.3355 48.0623 12.4733 47.8939C12.6111 47.7256 12.8101 47.6188 13.0266 47.5972L17.982 47.1018C18.4329 47.0556 18.8347 47.3856 18.8798 47.8365C18.9015 48.0529 18.8362 48.2691 18.6984 48.4375C18.5607 48.6059 18.3617 48.7126 18.1452 48.7342L14.9929 49.0494C19.5638 53.0206 25.3636 55.1935 31.4575 55.1935C43.597 55.1935 53.9921 46.5412 56.175 34.6202C56.1944 34.5142 56.2345 34.4131 56.293 34.3226C56.3515 34.2322 56.4272 34.1541 56.5158 34.0929C56.6045 34.0317 56.7043 33.9886 56.8096 33.9659C56.915 33.9433 57.0237 33.9417 57.1297 33.9611C57.2356 33.9805 57.3367 34.0205 57.4272 34.079C57.5177 34.1375 57.5957 34.2132 57.6569 34.3019C57.7182 34.3905 57.7613 34.4904 57.7839 34.5957C57.8065 34.701 57.8082 34.8098 57.7888 34.9157ZM58.4625 17.9412C58.2642 17.8518 58.0385 17.8447 57.835 17.9217C57.6315 17.9986 57.4669 18.1531 57.3773 18.3514L56.2163 20.9239C54.084 14.9474 49.9327 9.9576 44.3957 6.76084C33.1962 0.294669 18.9969 2.74084 10.6328 12.5771C10.4938 12.7431 10.426 12.9573 10.4443 13.173C10.4625 13.3887 10.5653 13.5885 10.7303 13.7287C10.8952 13.869 11.1089 13.9383 11.3247 13.9217C11.5406 13.905 11.7411 13.8037 11.8826 13.6399C19.7334 4.40736 33.0622 2.11178 43.5754 8.18162C48.8528 11.2285 52.7891 16.0103 54.762 21.7349L51.8745 20.4316C51.6764 20.3433 51.4514 20.3371 51.2487 20.4143C51.0461 20.4915 50.8822 20.6458 50.793 20.8434C50.7038 21.0411 50.6964 21.266 50.7726 21.469C50.8488 21.6721 51.0022 21.8367 51.1995 21.9269L55.7386 23.9757C55.8368 24.0201 55.9427 24.0447 56.0504 24.048C56.1581 24.0514 56.2654 24.0335 56.3661 23.9954C56.5696 23.9184 56.7342 23.7638 56.8237 23.5655L58.8725 19.0264C58.9169 18.9282 58.9414 18.8223 58.9448 18.7146C58.9482 18.6069 58.9304 18.4996 58.8923 18.3989C58.8542 18.2981 58.7967 18.2058 58.7229 18.1273C58.6492 18.0488 58.5607 17.9856 58.4625 17.9412ZM7.0077 30.0643C7.0077 29.8467 6.92127 29.6381 6.76743 29.4842C6.61359 29.3304 6.40494 29.244 6.18738 29.244H1.875C1.65744 29.244 1.44879 29.3304 1.29495 29.4842C1.14111 29.6381 1.05469 29.8467 1.05469 30.0643C1.05469 30.2818 1.14111 30.4905 1.29495 30.6443C1.44879 30.7982 1.65744 30.8846 1.875 30.8846H6.18738C6.40494 30.8846 6.61359 30.7982 6.76743 30.6443C6.92127 30.4905 7.0077 30.2818 7.0077 30.0643ZM15.3261 30.0643C15.3261 29.8467 15.2397 29.6381 15.0859 29.4842C14.932 29.3304 14.7234 29.244 14.5058 29.244H10.1934C9.97588 29.244 9.76723 29.3304 9.61339 29.4842C9.45955 29.6381 9.37313 29.8467 9.37313 30.0643C9.37313 30.2818 9.45955 30.4905 9.61339 30.6443C9.76723 30.7982 9.97588 30.8846 10.1934 30.8846H14.5058C14.7234 30.8846 14.932 30.7982 15.0859 30.6443C15.2397 30.4905 15.3261 30.2818 15.3261 30.0643ZM8.68945 40.2432H4.37707C4.15951 40.2432 3.95086 40.3296 3.79702 40.4835C3.64318 40.6373 3.55676 40.8459 3.55676 41.0635C3.55676 41.2811 3.64318 41.4897 3.79702 41.6435C3.95086 41.7974 4.15951 41.8838 4.37707 41.8838H8.68945C8.90701 41.8838 9.11566 41.7974 9.2695 41.6435C9.42334 41.4897 9.50977 41.2811 9.50977 41.0635C9.50977 40.8459 9.42334 40.6373 9.2695 40.4835C9.11566 40.3296 8.90701 40.2432 8.68945 40.2432ZM17.0079 41.8838C17.2255 41.8838 17.4341 41.7974 17.5879 41.6435C17.7418 41.4897 17.8282 41.2811 17.8282 41.0635C17.8282 40.8459 17.7418 40.6373 17.5879 40.4835C17.4341 40.3296 17.2255 40.2432 17.0079 40.2432H12.6955C12.4779 40.2432 12.2693 40.3296 12.1155 40.4835C11.9616 40.6373 11.8752 40.8459 11.8752 41.0635C11.8752 41.2811 11.9616 41.4897 12.1155 41.6435C12.2693 41.7974 12.4779 41.8838 12.6955 41.8838H17.0079ZM4.37707 19.8851H8.68945C8.90701 19.8851 9.11566 19.7987 9.2695 19.6449C9.42334 19.491 9.50977 19.2824 9.50977 19.0648C9.50977 18.8473 9.42334 18.6386 9.2695 18.4848C9.11566 18.3309 8.90701 18.2445 8.68945 18.2445H4.37707C4.15951 18.2445 3.95086 18.3309 3.79702 18.4848C3.64318 18.6386 3.55676 18.8473 3.55676 19.0648C3.55676 19.2824 3.64318 19.491 3.79702 19.6449C3.95086 19.7987 4.15951 19.8851 4.37707 19.8851ZM17.0079 19.8851C17.2255 19.8851 17.4341 19.7987 17.5879 19.6449C17.7418 19.491 17.8282 19.2824 17.8282 19.0648C17.8282 18.8473 17.7418 18.6386 17.5879 18.4848C17.4341 18.3309 17.2255 18.2445 17.0079 18.2445H12.6955C12.4779 18.2445 12.2693 18.3309 12.1155 18.4848C11.9616 18.6386 11.8752 18.8473 11.8752 19.0648C11.8752 19.2824 11.9616 19.491 12.1155 19.6449C12.2693 19.7987 12.4779 19.8851 12.6955 19.8851H17.0079ZM17.8611 37.4403V22.6879C17.8611 22.5439 17.899 22.4025 17.971 22.2778C18.043 22.1531 18.1466 22.0495 18.2713 21.9775L31.0473 14.6013C31.172 14.5293 31.3135 14.4914 31.4575 14.4914C31.6015 14.4914 31.7429 14.5293 31.8676 14.6013L44.6436 21.9775C44.7683 22.0495 44.8719 22.1531 44.9439 22.2778C45.0159 22.4025 45.0538 22.5439 45.0538 22.6879V37.4403C45.0538 37.5843 45.0159 37.7257 44.9439 37.8505C44.8719 37.9752 44.7683 38.0787 44.6436 38.1507L31.8676 45.5269C31.7429 45.5989 31.6015 45.6368 31.4575 45.6368C31.3135 45.6368 31.172 45.5989 31.0473 45.5269L18.2713 38.1507C18.1466 38.0787 18.043 37.9751 17.971 37.8504C17.899 37.7257 17.8611 37.5843 17.8611 37.4403ZM23.0803 21.0953L20.3221 22.6878L23.2924 24.4027L34.4278 17.9737L31.4575 16.2588L23.0803 21.0953ZM39.8346 21.0953L39.6225 20.9729L28.4871 27.4019L31.4575 29.1168L42.5929 22.6878L39.8346 21.0953ZM24.1127 31.0233L26.0262 32.1279V27.8756L24.1127 26.7708V31.0233ZM26.8465 26.4548L37.9819 20.0258L36.0684 18.921L24.933 25.3501L26.8465 26.4548ZM19.5018 36.9667L30.6371 43.3958V30.5377L27.6668 28.8228V33.5488C27.6668 33.6929 27.6289 33.8343 27.557 33.9591C27.485 34.0838 27.3814 34.1873 27.2567 34.2593C27.132 34.3314 26.9905 34.3692 26.8465 34.3692C26.7025 34.3692 26.561 34.3313 26.4363 34.2592L22.8823 32.2074C22.7576 32.1354 22.654 32.0318 22.582 31.9072C22.51 31.7825 22.4721 31.641 22.4721 31.497V25.8237L19.5018 24.1088V36.9667ZM43.4132 36.9667V24.1087L32.2778 30.5377V43.3958L43.4132 36.9667Z" fill="#008080"/>
</svg>
