<svg width="60" height="60" viewBox="0 0 60 60" fill="none" xmlns="http://www.w3.org/2000/svg">
<path d="M10.4157 43.303C10.4861 43.4089 10.5266 43.5318 10.5329 43.6588C10.5393 43.7858 10.5112 43.9122 10.4516 44.0245C10.3921 44.1369 10.3033 44.2311 10.1947 44.2972C10.086 44.3632 9.96156 44.3987 9.8344 44.3999C9.6094 44.3999 9.3844 44.2968 9.25315 44.0905C6.42383 39.9368 4.91423 35.0257 4.9219 29.9999C4.9219 23.9062 7.08753 18.1499 11.0532 13.5937L6.61878 13.9124C6.2344 13.9405 5.8969 13.6499 5.86878 13.2655C5.84065 12.8812 6.13128 12.5437 6.51565 12.5155L12.7125 12.0655C12.9 12.0468 13.0782 12.1124 13.2188 12.2343C13.3594 12.3562 13.4438 12.5249 13.4625 12.7124L13.9125 18.9093C13.9407 19.2937 13.65 19.6312 13.2657 19.6593H13.2094C12.8438 19.6593 12.5344 19.378 12.5063 19.003L12.1782 14.4187C8.3958 18.7193 6.31533 24.2539 6.32815 29.9812C6.32815 34.753 7.74378 39.3561 10.4157 43.2843V43.303ZM43.3032 49.5843C39.375 52.2561 34.7719 53.6718 30 53.6718C24.2157 53.6718 18.75 51.5999 14.4375 47.8218L19.0219 47.4843C19.4063 47.4562 19.6969 47.1186 19.6688 46.7343C19.6407 46.3499 19.2938 46.0593 18.9188 46.0874L12.7219 46.5374C12.3375 46.5655 12.0469 46.903 12.075 47.2874L12.525 53.4843C12.5532 53.8593 12.8625 54.1405 13.2282 54.1405H13.2844C13.6688 54.1124 13.9594 53.7749 13.9313 53.3905L13.6125 48.9562C18.1688 52.9124 23.925 55.0874 30.0188 55.0874C35.0719 55.0874 39.9469 53.5874 44.1094 50.7561C44.4282 50.5405 44.5125 50.0999 44.2969 49.7812C44.0813 49.4624 43.6407 49.378 43.3219 49.5937L43.3032 49.5843ZM16.6969 10.4155C20.625 7.74365 25.2282 6.32803 30 6.32803C35.7844 6.32803 41.25 8.3999 45.5625 12.178L40.9875 12.5062C40.6032 12.5343 40.3125 12.8718 40.3407 13.2562C40.3688 13.6312 40.6782 13.9124 41.0438 13.9124H41.1L47.2969 13.4624C47.6813 13.4343 47.9719 13.0968 47.9438 12.7124L47.4938 6.51553C47.4657 6.13115 47.1282 5.84053 46.7438 5.86865C46.3594 5.89678 46.0688 6.23428 46.0969 6.61865L46.4157 11.053C41.8594 7.09678 36.1032 4.93115 30.0094 4.93115C24.9563 4.93115 20.0813 6.43115 15.9188 9.2624C15.6 9.47803 15.5157 9.91865 15.7313 10.2374C15.9469 10.5562 16.3875 10.6405 16.7063 10.4249L16.6969 10.4155ZM53.3813 46.0874L48.9469 46.4062C52.9032 41.8499 55.0688 36.0937 55.0688 29.9999C55.0688 24.9468 53.5688 20.0718 50.7375 15.9093C50.5219 15.5905 50.0813 15.5062 49.7625 15.7218C49.4438 15.9374 49.3594 16.378 49.575 16.6968C52.2469 20.6249 53.6625 25.228 53.6625 29.9999C53.6625 35.7843 51.5907 41.2499 47.8125 45.5624L47.4844 40.978C47.4782 40.8861 47.4539 40.7963 47.4127 40.7138C47.3716 40.6314 47.3144 40.5579 47.2447 40.4978C47.1749 40.4376 47.0938 40.3919 47.0063 40.3633C46.9187 40.3347 46.8263 40.3237 46.7344 40.3312C46.35 40.3593 46.0594 40.6968 46.0875 41.0812L46.5375 47.278C46.5469 47.4655 46.6407 47.6343 46.7813 47.7562C46.9125 47.8687 47.0719 47.9249 47.2407 47.9249H47.2875L53.4844 47.4749C53.8688 47.4468 54.1594 47.1093 54.1313 46.7249C54.1032 46.3405 53.7563 46.0405 53.3813 46.078V46.0874ZM42.5344 22.3593C42.75 22.4812 42.8907 22.7155 42.8907 22.9687V37.0405C42.8907 37.2937 42.7594 37.528 42.5344 37.6499L30.3469 44.6905C30.2344 44.7561 30.1125 44.7843 29.9907 44.7843C29.8688 44.7843 29.7469 44.7561 29.6344 44.6905L17.4469 37.6499C17.3392 37.5886 17.2496 37.5 17.187 37.393C17.1245 37.286 17.0912 37.1644 17.0907 37.0405V22.9687C17.0907 22.7155 17.2219 22.4812 17.4469 22.3593L29.6344 15.3187C29.7419 15.2587 29.8629 15.2273 29.986 15.2273C30.109 15.2273 30.23 15.2587 30.3375 15.3187L42.525 22.3593H42.5344ZM25.3032 19.453L36.0938 25.6874L40.7907 22.978L30 16.7437L25.3125 19.453H25.3032ZM29.9907 29.203L34.6875 26.4937L23.8969 20.2593L19.2 22.9687L29.9907 29.1937V29.203ZM18.5063 36.6374L29.2875 42.8624V30.4218L18.5063 24.2062V36.6374ZM41.475 36.6374V24.2062L36.7875 26.9062V30.2437C36.7875 30.628 36.4688 30.9468 36.0844 30.9468C35.7 30.9468 35.3813 30.628 35.3813 30.2437V27.7218L30.6938 30.4218V42.8624L41.475 36.6374ZM26.5875 36.9749L22.8375 34.8187C22.6758 34.7272 22.4844 34.7034 22.3053 34.7526C22.1261 34.8018 21.9736 34.9199 21.8813 35.0811C21.8347 35.1609 21.8046 35.2492 21.7926 35.3408C21.7806 35.4324 21.787 35.5254 21.8115 35.6145C21.8359 35.7035 21.8779 35.7868 21.935 35.8595C21.992 35.9321 22.063 35.9926 22.1438 36.0374L25.8938 38.1937C26.0063 38.2593 26.1282 38.2874 26.2407 38.2874C26.4844 38.2874 26.7188 38.1655 26.85 37.9311C26.8966 37.8514 26.9267 37.7631 26.9387 37.6715C26.9507 37.58 26.9443 37.4869 26.9198 37.3978C26.8954 37.3088 26.8534 37.2255 26.7963 37.1529C26.7393 37.0802 26.6683 37.0197 26.5875 36.9749Z" fill="#008080"/>
</svg>
