<svg width="60" height="60" viewBox="0 0 60 60" fill="none" xmlns="http://www.w3.org/2000/svg">
<path d="M27.0316 55.8728C26.9086 55.8725 26.7871 55.8455 26.6755 55.7937L2.1217 43.9783C1.983 43.9112 1.86609 43.8063 1.78443 43.6756C1.70277 43.545 1.65969 43.3939 1.66016 43.2398V16.8662C1.66442 16.7333 1.70158 16.6034 1.76832 16.4884C1.83506 16.3733 1.92929 16.2766 2.04258 16.2069C2.15825 16.1321 2.29131 16.0886 2.42881 16.0805C2.5663 16.0724 2.70355 16.1 2.82719 16.1607L27.3679 27.9168C27.5065 27.9839 27.6235 28.0888 27.7051 28.2194C27.7868 28.3501 27.8299 28.5012 27.8294 28.6552V55.0618C27.8251 55.1948 27.788 55.3246 27.7212 55.4397C27.6545 55.5547 27.5603 55.6515 27.447 55.7212C27.3256 55.8098 27.1816 55.8624 27.0316 55.8728ZM3.29532 42.7322L26.1942 53.7629V29.1629L3.29532 18.1322V42.7322Z" fill="#008080"/>
<path d="M27.0316 29.4529C26.9077 29.4536 26.7855 29.4242 26.6755 29.3672L2.1217 17.5584C1.983 17.4913 1.86609 17.3864 1.78443 17.2558C1.70277 17.1251 1.65969 16.974 1.66016 16.82C1.66015 16.6669 1.7035 16.5169 1.78517 16.3874C1.86685 16.2578 1.98352 16.1541 2.1217 16.0881L26.669 4.2991C26.7784 4.24402 26.8992 4.21533 27.0217 4.21533C27.1442 4.21533 27.265 4.24402 27.3744 4.2991L51.9085 16.1079C52.0461 16.1761 52.1619 16.2813 52.2429 16.4118C52.3238 16.5423 52.3667 16.6928 52.3667 16.8463C52.3667 16.9999 52.3238 17.1504 52.2429 17.2809C52.1619 17.4114 52.0461 17.5166 51.9085 17.5848L27.3679 29.3672C27.2638 29.4212 27.1488 29.4505 27.0316 29.4529ZM4.35686 16.82L27.0316 27.7321L49.6733 16.8463L27.0316 5.93426L4.35686 16.82Z" fill="#008080"/>
<path d="M27.0324 55.8726C26.8783 55.8737 26.7272 55.8302 26.5973 55.7473C26.484 55.6776 26.3897 55.5809 26.323 55.4658C26.2563 55.3507 26.2191 55.2209 26.2148 55.088V28.655C26.2159 28.5013 26.2596 28.3508 26.3411 28.2205C26.4226 28.0901 26.5387 27.9849 26.6764 27.9165L51.1973 16.1012C51.3209 16.0405 51.4582 16.0128 51.5956 16.0209C51.7331 16.029 51.8662 16.0725 51.9819 16.1473C52.0952 16.217 52.1894 16.3137 52.2561 16.4288C52.3229 16.5439 52.36 16.6737 52.3643 16.8067V28.6088C52.3745 28.7219 52.361 28.8359 52.3247 28.9435C52.2884 29.0511 52.2301 29.15 52.1535 29.2338C52.0769 29.3176 51.9837 29.3845 51.8798 29.4303C51.7759 29.4761 51.6636 29.4998 51.55 29.4998C51.4365 29.4998 51.3242 29.4761 51.2203 29.4303C51.1163 29.3845 51.0231 29.3176 50.9465 29.2338C50.8699 29.15 50.8116 29.0511 50.7753 28.9435C50.739 28.8359 50.7255 28.7219 50.7357 28.6088V18.1319L27.8302 29.1627V53.7627L41.2676 47.288C41.4669 47.1944 41.6953 47.1839 41.9024 47.2587C42.1095 47.3335 42.2784 47.4875 42.372 47.6869C42.4655 47.8862 42.4761 48.1146 42.4013 48.3217C42.3265 48.5288 42.1724 48.6977 41.9731 48.7913L27.3687 55.7935C27.2632 55.8426 27.1487 55.8695 27.0324 55.8726Z" fill="#008080"/>
<path d="M19.4692 39.7851C19.3411 39.7861 19.2145 39.7568 19.0999 39.6995C18.9853 39.6422 18.8859 39.5585 18.8099 39.4554L13.7791 32.6444L9.88898 34.8334C9.76527 34.9033 9.62559 34.9401 9.48349 34.9401C9.34139 34.9401 9.20171 34.9033 9.078 34.8334C8.95486 34.7615 8.85284 34.6585 8.78223 34.5346C8.71162 34.4108 8.67491 34.2705 8.6758 34.1279V20.1894C8.67579 20.0363 8.71913 19.8863 8.80081 19.7568C8.88249 19.6273 8.99916 19.5236 9.13734 19.4576L22.6406 12.9169C22.7505 12.8633 22.8711 12.8354 22.9934 12.8354C23.1156 12.8354 23.2363 12.8633 23.3461 12.9169L33.3615 17.7301C33.4994 17.7972 33.6156 17.9017 33.6969 18.0317C33.7782 18.1617 33.8214 18.3119 33.8214 18.4653C33.8214 18.6186 33.7782 18.7688 33.6969 18.8988C33.6156 19.0288 33.4994 19.1333 33.3615 19.2004L20.2868 25.5103V38.9675C20.2862 39.1394 20.2319 39.3069 20.1314 39.4464C20.0309 39.5859 19.8892 39.6905 19.7263 39.7455C19.6431 39.7715 19.5564 39.7848 19.4692 39.7851ZM14.0033 30.7653C14.1312 30.7653 14.2574 30.7951 14.3719 30.8523C14.4863 30.9095 14.5858 30.9926 14.6626 31.0949L18.6516 36.4949V25.0026C18.6518 24.8479 18.6958 24.6963 18.7787 24.5656C18.8616 24.4348 18.9798 24.3303 19.1198 24.2642L31.1263 18.462L22.9835 14.5521L10.2978 20.7037V32.7301L13.5945 30.8708C13.7187 30.7992 13.86 30.7628 14.0033 30.7653ZM32.1813 47.5653C31.9983 47.562 31.8216 47.4974 31.6797 47.3818C31.5378 47.2662 31.4387 47.1063 31.3985 46.9277C31.3582 46.7491 31.379 46.5622 31.4576 46.3969C31.5362 46.2315 31.6679 46.0974 31.8318 46.0158L36.5066 43.7543C36.7029 43.6628 36.9271 43.6516 37.1316 43.723C37.336 43.7944 37.5045 43.9429 37.6011 44.1367C37.648 44.2331 37.6753 44.3379 37.6815 44.445C37.6876 44.5521 37.6725 44.6593 37.6369 44.7605C37.6014 44.8616 37.5461 44.9548 37.4743 45.0344C37.4025 45.1141 37.3156 45.1787 37.2187 45.2246L32.5373 47.473C32.4268 47.5293 32.3053 47.5608 32.1813 47.5653ZM32.1813 42.5147C31.9983 42.5114 31.8216 42.4468 31.6797 42.3312C31.5378 42.2156 31.4387 42.0557 31.3985 41.8771C31.3582 41.6986 31.379 41.5117 31.4576 41.3463C31.5362 41.181 31.6679 41.0468 31.8318 40.9653L34.9967 39.4356C35.093 39.3638 35.204 39.3142 35.3218 39.2902C35.4395 39.2662 35.5611 39.2685 35.6778 39.2968C35.7946 39.3252 35.9037 39.3789 35.9973 39.4542C36.0909 39.5295 36.1668 39.6245 36.2196 39.7324C36.2723 39.8404 36.3006 39.9586 36.3025 40.0788C36.3043 40.1989 36.2796 40.318 36.2302 40.4275C36.1809 40.537 36.1079 40.6343 36.0166 40.7124C35.9254 40.7906 35.818 40.8476 35.7022 40.8796L32.5373 42.4026C32.4297 42.4688 32.3074 42.5073 32.1813 42.5147Z" fill="#008080"/>
<path d="M46.9043 51.3431H46.8515C46.7686 51.3433 46.6862 51.33 46.6076 51.3035C33.0383 47.0244 35.6032 31.3585 35.6032 31.2002C35.6281 31.0623 35.6878 30.9329 35.7766 30.8245C35.8655 30.716 35.9805 30.632 36.1109 30.5804L46.5416 26.4793C46.6359 26.4415 46.7369 26.4236 46.8383 26.4266C46.957 26.4243 47.0751 26.4421 47.1878 26.4793L57.6252 30.5804C57.7555 30.632 57.8705 30.716 57.9594 30.8245C58.0482 30.9329 58.1079 31.0623 58.1328 31.2002C58.1328 31.3585 60.7109 47.0244 47.1482 51.3035C47.0695 51.3295 46.9872 51.3429 46.9043 51.3431ZM37.1658 31.9255C36.8995 34.3756 37.0398 36.853 37.5812 39.2574C38.7944 44.5321 41.9328 48.0398 46.9043 49.6749C51.8691 48.0398 55.0076 44.5321 56.2274 39.2574C56.7553 36.8508 56.8845 34.3739 56.6098 31.9255L46.8779 28.1079L37.1658 31.9255Z" fill="#008080"/>
<path d="M46.8593 42.9497C46.7312 42.9503 46.6049 42.9207 46.4903 42.8634C46.3758 42.8062 46.2763 42.7228 46.1999 42.6201L43.3054 38.7497C43.176 38.5749 43.1214 38.3558 43.1535 38.1406C43.1857 37.9255 43.302 37.7319 43.4769 37.6025C43.6517 37.4731 43.8708 37.4185 44.086 37.4506C44.3011 37.4828 44.4947 37.5991 44.6241 37.7739L46.8659 40.7739L51.923 34.1212C51.988 34.0346 52.0693 33.9616 52.1624 33.9065C52.2556 33.8514 52.3587 33.8151 52.4658 33.7998C52.5729 33.7845 52.6821 33.7904 52.7869 33.8173C52.8917 33.8442 52.9903 33.8914 53.0769 33.9563C53.1634 34.0213 53.2364 34.1026 53.2915 34.1958C53.3467 34.2889 53.3829 34.392 53.3982 34.4991C53.4136 34.6063 53.4076 34.7154 53.3807 34.8202C53.3539 34.9251 53.3066 35.0236 53.2417 35.1102L47.5252 42.6267C47.4486 42.7303 47.348 42.8138 47.232 42.8701C47.116 42.9264 46.9881 42.9537 46.8593 42.9497Z" fill="#008080"/>
</svg>
