<svg width="60" height="60" viewBox="0 0 60 60" fill="none" xmlns="http://www.w3.org/2000/svg">
<path d="M32.8125 28.125C34.3594 28.125 35.625 26.8594 35.625 25.3125V4.6875C35.625 3.14062 34.3594 1.875 32.8125 1.875H4.6875C3.14062 1.875 1.875 3.14062 1.875 4.6875V25.3125C1.875 26.8594 3.14062 28.125 4.6875 28.125H32.8125ZM3.75 4.6875C3.75 4.17187 4.17188 3.75 4.6875 3.75H32.8125C33.3281 3.75 33.75 4.17187 33.75 4.6875V10.3125H3.75V4.6875ZM3.75 25.3125V12.1875H33.75V25.3125C33.75 25.8281 33.3281 26.25 32.8125 26.25H4.6875C4.17188 26.25 3.75 25.8281 3.75 25.3125ZM38.4375 16.875H45.9375C48.525 16.875 50.625 18.975 50.625 21.5625V26.8031L48.4781 24.6562C48.3913 24.5695 48.2883 24.5006 48.1749 24.4536C48.0615 24.4067 47.9399 24.3825 47.8172 24.3825C47.6944 24.3825 47.5729 24.4067 47.4595 24.4536C47.3461 24.5006 47.243 24.5695 47.1562 24.6562C47.0695 24.743 47.0006 24.8461 46.9536 24.9595C46.9067 25.0729 46.8825 25.1944 46.8825 25.3172C46.8825 25.4399 46.9067 25.5615 46.9536 25.6749C47.0006 25.7883 47.0695 25.8913 47.1562 25.9781L50.9062 29.7281C51.0938 29.9156 51.3281 30 51.5719 30C51.8156 30 52.05 29.9062 52.2375 29.7281L55.9875 25.9781C56.0743 25.8913 56.1431 25.7883 56.1901 25.6749C56.2371 25.5615 56.2613 25.4399 56.2613 25.3172C56.2613 25.1944 56.2371 25.0729 56.1901 24.9595C56.1431 24.8461 56.0743 24.743 55.9875 24.6562C55.9007 24.5695 55.7977 24.5006 55.6843 24.4536C55.5709 24.4067 55.4493 24.3825 55.3266 24.3825C55.2038 24.3825 55.0823 24.4067 54.9689 24.4536C54.8555 24.5006 54.7524 24.5695 54.6656 24.6562L52.5187 26.8031V21.5625C52.5187 17.9437 49.575 15 45.9562 15H38.4562C37.9406 15 37.5187 15.4219 37.5187 15.9375C37.5187 16.4531 37.9406 16.875 38.4562 16.875H38.4375ZM21.4688 43.0312H13.9688C11.3812 43.0312 9.28125 40.9312 9.28125 38.3438V33.1031L11.4281 35.25C11.6156 35.4375 11.85 35.5219 12.0938 35.5219C12.3375 35.5219 12.5719 35.4281 12.7594 35.25C12.8463 35.1633 12.9152 35.0602 12.9623 34.9468C13.0093 34.8334 13.0335 34.7118 13.0335 34.5891C13.0335 34.4663 13.0093 34.3447 12.9623 34.2313C12.9152 34.1179 12.8463 34.0149 12.7594 33.9281L9.00937 30.1781C8.92264 30.0912 8.81962 30.0223 8.70621 29.9752C8.5928 29.9282 8.47122 29.904 8.34844 29.904C8.22565 29.904 8.10408 29.9282 7.99066 29.9752C7.87725 30.0223 7.77423 30.0912 7.6875 30.1781L3.9375 33.9281C3.8507 34.0149 3.78185 34.118 3.73488 34.2314C3.68791 34.3448 3.66373 34.4663 3.66373 34.5891C3.66373 34.7118 3.68791 34.8334 3.73488 34.9468C3.78185 35.0602 3.8507 35.1632 3.9375 35.25C4.0243 35.3368 4.12734 35.4056 4.24074 35.4526C4.35414 35.4996 4.47569 35.5238 4.59844 35.5238C4.72119 35.5238 4.84273 35.4996 4.95613 35.4526C5.06954 35.4056 5.17258 35.3368 5.25938 35.25L7.40625 33.1031V38.3438C7.40625 41.9625 10.35 44.9062 13.9688 44.9062H21.4688C21.9844 44.9062 22.4062 44.4844 22.4062 43.9688C22.4062 43.4531 21.9844 43.0312 21.4688 43.0312Z" fill="#008080"/>
<path d="M30.4688 8.4375C31.2454 8.4375 31.875 7.8079 31.875 7.03125C31.875 6.2546 31.2454 5.625 30.4688 5.625C29.6921 5.625 29.0625 6.2546 29.0625 7.03125C29.0625 7.8079 29.6921 8.4375 30.4688 8.4375Z" fill="#008080"/>
<path d="M25.7812 8.4375C26.5579 8.4375 27.1875 7.8079 27.1875 7.03125C27.1875 6.2546 26.5579 5.625 25.7812 5.625C25.0046 5.625 24.375 6.2546 24.375 7.03125C24.375 7.8079 25.0046 8.4375 25.7812 8.4375Z" fill="#008080"/>
<path d="M55.3125 31.875H27.1875C25.6406 31.875 24.375 33.1406 24.375 34.6875V55.3125C24.375 56.8594 25.6406 58.125 27.1875 58.125H55.3125C56.8594 58.125 58.125 56.8594 58.125 55.3125V34.6875C58.125 33.1406 56.8594 31.875 55.3125 31.875ZM26.25 34.6875C26.25 34.1719 26.6719 33.75 27.1875 33.75H55.3125C55.8281 33.75 56.25 34.1719 56.25 34.6875V40.3125H26.25V34.6875ZM55.3125 56.25H27.1875C26.6719 56.25 26.25 55.8281 26.25 55.3125V42.1875H56.25V55.3125C56.25 55.8281 55.8281 56.25 55.3125 56.25Z" fill="#008080"/>
<path d="M52.9688 38.4375C53.7454 38.4375 54.375 37.8079 54.375 37.0312C54.375 36.2546 53.7454 35.625 52.9688 35.625C52.1921 35.625 51.5625 36.2546 51.5625 37.0312C51.5625 37.8079 52.1921 38.4375 52.9688 38.4375Z" fill="#008080"/>
<path d="M48.2812 38.4375C49.0579 38.4375 49.6875 37.8079 49.6875 37.0312C49.6875 36.2546 49.0579 35.625 48.2812 35.625C47.5046 35.625 46.875 36.2546 46.875 37.0312C46.875 37.8079 47.5046 38.4375 48.2812 38.4375Z" fill="#008080"/>
</svg>
