<svg width="60" height="60" viewBox="0 0 60 60" fill="none" xmlns="http://www.w3.org/2000/svg">
<path d="M26.9948 31.4252L26.9901 31.413L24.7007 25.563C24.6311 25.3881 24.5107 25.2381 24.3549 25.1324C24.1991 25.0267 24.0152 24.9702 23.827 24.9702C23.6387 24.9702 23.4548 25.0267 23.299 25.1324C23.1432 25.2381 23.0228 25.3881 22.9532 25.563L20.6723 31.3905C20.662 31.413 20.6545 31.4355 20.6451 31.459L19.7479 33.7521C19.7031 33.8668 19.6813 33.9892 19.6838 34.1123C19.6863 34.2354 19.713 34.3568 19.7624 34.4696C19.8118 34.5823 19.8829 34.6843 19.9717 34.7696C20.0605 34.8549 20.1653 34.9218 20.2799 34.9666C20.3946 35.0115 20.517 35.0332 20.6401 35.0308C20.7632 35.0283 20.8846 35.0016 20.9974 34.9522C21.1102 34.9028 21.2121 34.8316 21.2974 34.7428C21.3827 34.654 21.4496 34.5493 21.4945 34.4346L22.1657 32.7199H25.4873L26.1585 34.4346C26.2033 34.5493 26.2703 34.654 26.3556 34.7428C26.4409 34.8316 26.5428 34.9028 26.6556 34.9522C26.7684 35.0016 26.8898 35.0283 27.0129 35.0308C27.136 35.0332 27.2584 35.0115 27.3731 34.9666C27.4877 34.9218 27.5925 34.8549 27.6813 34.7696C27.7701 34.6843 27.8412 34.5823 27.8906 34.4696C27.94 34.3568 27.9667 34.2354 27.9692 34.1123C27.9717 33.9892 27.9499 33.8668 27.9051 33.7521L26.9948 31.4252ZM22.8998 30.8449L23.827 28.4768L24.7542 30.8449H22.8998ZM33.0679 24.9687H30.8573C30.6086 24.9687 30.3702 25.0674 30.1944 25.2433C30.0185 25.4191 29.9198 25.6575 29.9198 25.9062V34.0962C29.9198 34.3448 30.0185 34.5833 30.1944 34.7591C30.3702 34.9349 30.6086 35.0337 30.8573 35.0337C31.1059 35.0337 31.3444 34.9349 31.5202 34.7591C31.696 34.5833 31.7948 34.3448 31.7948 34.0962V31.368H33.0679C34.8285 31.368 36.2601 29.9299 36.2601 28.1618C36.2601 26.3937 34.8285 24.9696 33.0679 24.9696V24.9687ZM33.0679 29.4921H31.7948V26.8427H33.0679C33.7935 26.8427 34.3851 27.4334 34.3851 28.1599C34.3851 28.894 33.7935 29.4921 33.0679 29.4921ZM37.9485 25.9043V34.0934C37.9485 34.342 38.0473 34.5805 38.2231 34.7563C38.3989 34.9321 38.6374 35.0309 38.886 35.0309C39.1347 35.0309 39.3731 34.9321 39.5489 34.7563C39.7248 34.5805 39.8235 34.342 39.8235 34.0934V25.9043C39.8235 25.6557 39.7248 25.4172 39.5489 25.2414C39.3731 25.0656 39.1347 24.9668 38.886 24.9668C38.6374 24.9668 38.3989 25.0656 38.2231 25.2414C38.0473 25.4172 37.9485 25.6557 37.9485 25.9043Z" fill="#008080"/>
<path d="M57.3159 24.7285L51.21 23.8838C50.7548 22.2987 50.1223 20.77 49.3247 19.3266L53.0428 14.4132C53.1794 14.2325 53.2461 14.0086 53.2304 13.7827C53.2147 13.5567 53.1178 13.3441 52.9575 13.1841L46.8159 7.04254C46.6557 6.88258 46.4431 6.78594 46.2172 6.77044C45.9913 6.75493 45.7675 6.8216 45.5869 6.95816L40.6725 10.6772C39.2298 9.87928 37.7017 9.24653 36.1172 8.79098L35.2706 2.68504C35.2396 2.46087 35.1286 2.25549 34.958 2.10679C34.7874 1.95809 34.5688 1.87611 34.3425 1.87598H25.6575C25.4312 1.87611 25.2126 1.95809 25.042 2.10679C24.8714 2.25549 24.7604 2.46087 24.7294 2.68504L23.8828 8.79098C22.2982 9.2471 20.7699 9.87982 19.3266 10.6772L14.4131 6.95816C14.2325 6.82179 14.0086 6.75524 13.7828 6.77074C13.557 6.78624 13.3444 6.88276 13.1841 7.04254L7.0425 13.1841C6.88223 13.3441 6.78529 13.5567 6.76961 13.7827C6.75392 14.0086 6.82056 14.2325 6.95719 14.4132L10.6753 19.3266C9.87768 20.7701 9.24495 22.2988 8.78906 23.8838L2.68406 24.7285C2.45974 24.7595 2.25422 24.8707 2.1055 25.0415C1.95678 25.2122 1.8749 25.4311 1.875 25.6575V34.3435C1.8749 34.5699 1.95678 34.7888 2.1055 34.9596C2.25422 35.1303 2.45974 35.2415 2.68406 35.2725L8.78906 36.1172C9.24421 37.7025 9.87697 39.2312 10.6753 40.6744L6.95719 45.5879C6.82056 45.7685 6.75392 45.9924 6.76961 46.2184C6.78529 46.4443 6.88223 46.6569 7.0425 46.8169L13.1841 52.9585C13.3442 53.1186 13.5569 53.2154 13.7828 53.2309C14.0087 53.2464 14.2326 53.1796 14.4131 53.0429L19.3275 49.3238C20.7702 50.1217 22.2983 50.7545 23.8828 51.21L24.7294 57.316C24.7604 57.5401 24.8714 57.7455 25.042 57.8942C25.2126 58.0429 25.4312 58.1249 25.6575 58.125H34.3425C34.5688 58.1249 34.7874 58.0429 34.958 57.8942C35.1286 57.7455 35.2396 57.5401 35.2706 57.316L36.1172 51.21C37.7015 50.7541 39.2296 50.1213 40.6725 49.3238L45.5869 53.0429C45.7674 53.1796 45.9913 53.2464 46.2172 53.2309C46.4431 53.2154 46.6558 53.1186 46.8159 52.9585L52.9575 46.8169C53.1178 46.6569 53.2147 46.4443 53.2304 46.2184C53.2461 45.9924 53.1794 45.7685 53.0428 45.5879L49.3247 40.6744C50.1221 39.2309 50.7545 37.7022 51.21 36.1172L57.3159 35.2725C57.5403 35.2415 57.7458 35.1303 57.8945 34.9596C58.0432 34.7888 58.1251 34.5699 58.125 34.3435V25.6575C58.1251 25.4311 58.0432 25.2122 57.8945 25.0415C57.7458 24.8707 57.5403 24.7595 57.3159 24.7285ZM56.25 33.526L50.34 34.3444C49.9631 34.3969 49.6556 34.6716 49.56 35.04C49.0891 36.8765 48.3606 38.6371 47.3962 40.2694C47.2022 40.5975 47.2256 41.0091 47.4544 41.3129L51.0534 46.0688L46.0678 51.0554L41.3109 47.4563C41.1625 47.344 40.984 47.2784 40.7982 47.2679C40.6124 47.2574 40.4276 47.3024 40.2675 47.3972C38.6358 48.3617 36.8759 49.0905 35.04 49.5619C34.8599 49.6081 34.6976 49.7068 34.5739 49.8456C34.4502 49.9843 34.3706 50.1568 34.3453 50.341L33.5259 56.251H26.475L25.6556 50.341C25.6301 50.1569 25.5504 49.9845 25.4267 49.8458C25.303 49.7071 25.1409 49.6083 24.9609 49.5619C23.1251 49.0905 21.3651 48.3617 19.7334 47.3972C19.5735 47.3019 19.3886 47.2566 19.2027 47.2671C19.0167 47.2776 18.8382 47.3435 18.69 47.4563L13.9331 51.0554L8.9475 46.0688L12.5466 41.3129C12.6587 41.1643 12.7242 40.9858 12.7345 40.8C12.7449 40.6142 12.6997 40.4295 12.6047 40.2694C11.6401 38.6371 10.9114 36.8765 10.44 35.04C10.3934 34.8599 10.2944 34.6977 10.1555 34.5739C10.0167 34.4501 9.84424 34.3702 9.66 34.3444L3.75094 33.526V26.4741L9.66 25.6557C10.0369 25.6032 10.3444 25.3285 10.44 24.96C10.911 23.1235 11.6398 21.3628 12.6047 19.7307C12.7987 19.4025 12.7753 18.991 12.5466 18.6872L8.9475 13.9313L13.9331 8.94473L18.6891 12.5438C18.8373 12.656 19.0157 12.7216 19.2013 12.7321C19.387 12.7426 19.5716 12.6976 19.7316 12.6029C21.3639 11.638 23.1244 10.9089 24.9609 10.4372C25.141 10.3911 25.3033 10.2923 25.427 10.1536C25.5507 10.0148 25.6303 9.84235 25.6556 9.65816L26.475 3.74816H33.5259L34.3453 9.65816C34.3708 9.84226 34.4505 10.0146 34.5742 10.1533C34.6979 10.292 34.86 10.3909 35.04 10.4372C36.8759 10.9087 38.6358 11.6375 40.2675 12.6019C40.4276 12.6968 40.6124 12.7418 40.7982 12.7313C40.984 12.7207 41.1625 12.6552 41.3109 12.5429L46.0678 8.94379L51.0534 13.9304L47.4544 18.6863C47.3422 18.8348 47.2768 19.0133 47.2664 19.1992C47.2561 19.385 47.3013 19.5697 47.3962 19.7297C48.3604 21.3621 49.0889 23.1227 49.56 24.9591C49.6556 25.3275 49.9631 25.6022 50.34 25.6547L56.25 26.4732V33.525V33.526Z" fill="#008080"/>
<path d="M30.0001 14.792C21.6141 14.792 14.791 21.6142 14.791 30.0001C14.791 38.3861 21.6132 45.2082 30.0001 45.2082C38.387 45.2082 45.2091 38.3861 45.2091 30.0001C45.2091 21.6142 38.387 14.792 30.0001 14.792ZM30.0001 43.3332C22.6473 43.3332 16.666 37.352 16.666 30.0001C16.666 22.6482 22.6473 16.667 30.0001 16.667C37.3529 16.667 43.3341 22.6482 43.3341 30.0001C43.3341 37.352 37.3529 43.3332 30.0001 43.3332Z" fill="#008080"/>
</svg>
