<svg width="60" height="60" viewBox="0 0 60 60" fill="none" xmlns="http://www.w3.org/2000/svg">
<path d="M42.9559 0H17.9729C15.1272 0 12.812 2.31238 12.812 5.15532V12.8552C12.7768 12.8498 12.7453 12.8343 12.7087 12.8343C12.3174 12.8343 12 13.1518 12 13.543V15.6634C12 16.0547 12.3174 16.3721 12.7087 16.3721C12.7453 16.3721 12.7768 16.3566 12.812 16.3512V18.5439C12.7768 18.5385 12.7453 18.523 12.7087 18.523C12.3174 18.523 12 18.8404 12 19.2317V21.3521C12 21.7434 12.3174 22.0608 12.7087 22.0608C12.7453 22.0608 12.7768 22.0453 12.812 22.0399V54.8447C12.812 57.6876 15.1244 60 17.9729 60H42.9559C45.7989 60 48.1122 57.6876 48.1122 54.8447V5.15532C48.1122 2.31238 45.7989 0 42.9559 0ZM46.6949 54.8447C46.6949 56.9061 45.0174 58.5827 42.956 58.5827H17.9673C15.9059 58.5827 14.2293 56.9061 14.2293 54.8447V47.3207V5.15533C14.2293 3.09394 15.9087 1.41733 17.9729 1.41733H42.9559C45.0173 1.41733 46.6949 3.09394 46.6949 5.15533L46.6949 54.8447Z" fill="#008080"/>
<path d="M30.2812 52.0024C28.9977 52.0024 27.9531 53.0461 27.9531 54.3296C27.9531 55.6131 28.9977 56.6576 30.2812 56.6576C31.5739 56.6576 32.6249 55.6131 32.6249 54.3296C32.6249 53.0461 31.5739 52.0024 30.2812 52.0024ZM30.2812 55.2403C29.7792 55.2403 29.3704 54.8316 29.3704 54.3296C29.3704 53.8276 29.7792 53.4198 30.2812 53.4198C30.8007 53.4198 31.2076 53.8193 31.2076 54.3296C31.2076 54.8399 30.8007 55.2403 30.2812 55.2403Z" fill="#008080"/>
<path d="M27.5934 5.95346H33.3319C33.7232 5.95346 34.0406 5.63603 34.0406 5.24479C34.0406 4.85356 33.7232 4.53613 33.3319 4.53613H27.5934C27.2022 4.53613 26.8848 4.85356 26.8848 5.24479C26.8848 5.63603 27.2022 5.95346 27.5934 5.95346Z" fill="#008080"/>
<path d="M43.2557 26.2363L40.4275 25.6707C40.2245 24.974 39.9486 24.3059 39.6035 23.6776L41.1934 21.2849C41.3789 21.0044 41.3429 20.6325 41.1057 20.3935L38.7149 17.9843C38.4759 17.7416 38.1004 17.7047 37.8189 17.8938L35.4217 19.4902C34.785 19.134 34.116 18.8526 33.4221 18.6486L32.8398 15.8352C32.7716 15.5067 32.4818 15.2705 32.1459 15.2705H28.7632C28.4255 15.2705 28.1348 15.5086 28.0684 15.8389L27.5027 18.6496C26.8098 18.8535 26.1408 19.134 25.5069 19.4902L23.1077 17.8938C22.8309 17.7065 22.4535 17.7444 22.2145 17.9824L19.8053 20.3917C19.5663 20.6307 19.5294 21.0053 19.7167 21.2867L21.3158 23.6803C20.9587 24.3345 20.6791 25.0008 20.4816 25.6707L17.6719 26.2363C17.3416 26.3027 17.1035 26.5934 17.1035 26.9311V30.3231C17.1035 30.6599 17.3407 30.9496 17.6701 31.017L20.4826 31.5919C20.681 32.2636 20.9606 32.9326 21.3167 33.5896L19.7167 35.9869C19.5285 36.2683 19.5663 36.6438 19.8071 36.8828L22.2164 39.2727C22.4544 39.508 22.8254 39.5459 23.105 39.3613L25.5115 37.777C26.1454 38.1202 26.8125 38.3943 27.5027 38.5945L27.8275 40.2106V44.1872C27.8275 45.6396 29.0086 46.8207 30.461 46.8207C31.9134 46.8207 33.0955 45.6396 33.0955 44.1872V40.1777L33.4221 38.5954C34.1132 38.3952 34.7813 38.1211 35.4171 37.777L37.8226 39.3613C38.1041 39.5468 38.4768 39.508 38.7131 39.2709L41.1039 36.881C41.3429 36.6429 41.3798 36.2692 41.1934 35.9878L39.6026 33.5933C39.9486 32.9575 40.2254 32.2876 40.4275 31.5919L43.2575 31.0179C43.5879 30.9506 43.825 30.6599 43.825 30.3231V26.9311C43.825 26.5934 43.587 26.3027 43.2557 26.2363ZM31.6781 44.1872C31.6781 44.858 31.1319 45.4034 30.461 45.4034C29.7902 45.4034 29.2449 44.858 29.2449 44.1872V34.5797C29.2449 34.2687 29.0419 33.9937 28.7447 33.9024C26.2635 33.1402 24.5961 30.885 24.5961 28.2912C24.5961 26.5814 25.3334 24.9805 26.5781 23.8778V24.7867C26.5781 26.2538 27.3957 27.5798 28.7115 28.2469C28.7401 28.2617 28.7706 28.2737 28.8029 28.2848C29.8695 28.796 31.0959 28.7932 32.1958 28.2617C33.5116 27.5946 34.3291 26.2686 34.3291 24.8014V23.8704C35.5841 24.9722 36.3269 26.5759 36.3269 28.2912C36.3269 30.8851 34.6595 33.1393 32.1782 33.9024C31.8811 33.9938 31.6781 34.2687 31.6781 34.5797L31.6781 44.1872ZM42.4077 29.7436L39.7152 30.2899C39.4457 30.3453 39.2326 30.5501 39.168 30.8177C38.9585 31.6777 38.6208 32.4971 38.1631 33.2528C38.021 33.4881 38.0275 33.7834 38.1788 34.0122L39.6912 36.2886L38.1197 37.86L35.8332 36.355C35.6062 36.2037 35.3137 36.1982 35.0793 36.3384C34.4558 36.7124 33.7854 36.9834 33.0954 37.1901V35.0835C35.8969 34.0002 37.7442 31.3335 37.7442 28.2913C37.7442 25.6236 36.2946 23.1719 33.961 21.893C33.7423 21.774 33.4747 21.7777 33.2597 21.905C33.0438 22.0323 32.9118 22.2649 32.9118 22.5149V24.8015C32.9118 25.7178 32.3794 26.5796 31.5674 26.992C30.856 27.3335 30.0541 27.3316 29.3685 26.9828C29.3436 26.9708 29.3168 26.9588 29.2882 26.9496C28.4891 26.515 27.9955 25.6928 27.9955 24.7867V22.5149C27.9955 22.2639 27.8626 22.0323 27.6467 21.905C27.4308 21.7767 27.1622 21.774 26.9445 21.8948C24.622 23.1774 23.1788 25.6282 23.1788 28.2913C23.1788 31.3335 25.0261 34.0002 27.8275 35.0835V37.1892C27.1385 36.982 26.4697 36.7115 25.8492 36.3384C25.6157 36.1982 25.3242 36.2037 25.0953 36.3551L22.806 37.8619L21.2198 36.2877L22.7387 34.0131C22.89 33.7871 22.8974 33.4927 22.759 33.2583C22.2819 32.4546 21.9396 31.6334 21.7412 30.8177C21.6766 30.551 21.4634 30.3453 21.1949 30.2908L18.5208 29.7446V27.5115L21.1931 26.9736C21.4634 26.9191 21.6775 26.7124 21.7421 26.4439C21.9377 25.631 22.2791 24.8134 22.7571 24.0162C22.8974 23.7809 22.8909 23.4856 22.7386 23.2577L21.2189 20.9823L22.806 19.3951L25.0925 20.9158C25.3232 21.0708 25.624 21.0727 25.8603 20.9278C26.6114 20.4581 27.4252 20.1158 28.2778 19.9091C28.5454 19.8445 28.7512 19.6304 28.8056 19.361L29.3436 16.6878H31.5692L32.1229 19.3647C32.1782 19.6332 32.384 19.8454 32.6507 19.91C33.5014 20.1149 34.3153 20.4581 35.0692 20.9278C35.3035 21.0736 35.6044 21.0718 35.8369 20.9158L38.1197 19.3961L39.693 20.9813L38.1788 23.2596C38.0265 23.4893 38.021 23.7864 38.1649 24.0217C38.6208 24.7664 38.9585 25.5821 39.168 26.4458C39.2326 26.7134 39.4466 26.9191 39.717 26.9736L42.4077 27.5124L42.4077 29.7436Z" fill="#008080"/>
</svg>
