<svg width="60" height="60" viewBox="0 0 60 60" fill="none" xmlns="http://www.w3.org/2000/svg">
<path d="M7.08574 39.8908V20.1189C7.08574 19.7311 7.40098 19.4158 7.78887 19.4158H16.183C16.5709 19.4158 16.8861 19.7311 16.8861 20.1189V34.8225C16.8861 35.2104 16.5709 35.5256 16.183 35.5256C15.7951 35.5256 15.4799 35.2104 15.4799 34.8225V20.8221H8.49199V39.8908C8.49199 40.2787 8.17676 40.5939 7.78887 40.5939C7.40098 40.5939 7.08574 40.2787 7.08574 39.8908ZM58.2381 14.9299L56.8799 27.7396C56.8518 28.0092 56.6701 28.2377 56.4146 28.3279C56.1592 28.4182 55.8744 28.3537 55.6834 28.1627L53.1193 25.5986L32.3467 46.3701C32.2149 46.5019 32.0362 46.576 31.8498 46.5764H17.7252L8.28574 56.0158C8.22053 56.0811 8.14308 56.133 8.05782 56.1683C7.97256 56.2037 7.88117 56.2219 7.78887 56.2219C7.69657 56.2219 7.60517 56.2037 7.51991 56.1683C7.43465 56.133 7.3572 56.0811 7.29199 56.0158L1.96348 50.6873C1.68926 50.4131 1.68926 49.9678 1.96348 49.6924L13.8158 37.84C13.9476 37.7083 14.1263 37.6341 14.3127 37.6338H28.4361L46.7947 19.2752L44.2307 16.7111C44.1367 16.6174 44.0713 16.4989 44.0421 16.3694C44.0128 16.24 44.0209 16.1049 44.0654 15.9799C44.1097 15.8548 44.1883 15.7447 44.2924 15.6624C44.3965 15.5801 44.5218 15.5288 44.6537 15.5146L57.4635 14.1564C57.6744 14.1342 57.8842 14.208 58.0354 14.358C58.1096 14.4322 58.1664 14.5221 58.2014 14.621C58.2365 14.7199 58.249 14.8255 58.2381 14.9299ZM56.7475 15.6459L46.2662 16.758L48.2865 18.7783C48.5607 19.0525 48.5607 19.4979 48.2865 19.7732L29.2248 38.835C29.093 38.9667 28.9143 39.0409 28.7279 39.0412H14.6045L3.45527 50.1904L7.78887 54.524L16.9377 45.3752C17.0695 45.2434 17.2482 45.1693 17.4346 45.1689H31.558L52.6213 24.1057C52.7531 23.974 52.9318 23.9 53.1182 23.9C53.3045 23.9 53.4832 23.974 53.615 24.1057L55.6354 26.126L56.7475 15.6459ZM20.4393 35.5256C20.8271 35.5256 21.1424 35.2104 21.1424 34.8225V13.0033H28.1303V33.2592C28.1303 33.6471 28.4455 33.9623 28.8334 33.9623C29.2213 33.9623 29.5365 33.6471 29.5365 33.2592V12.3002C29.5365 11.9123 29.2213 11.5971 28.8334 11.5971H20.4393C20.0514 11.5971 19.7361 11.9123 19.7361 12.3002V34.8225C19.7361 35.2104 20.0514 35.5256 20.4393 35.5256ZM33.0908 29.7072C33.4787 29.7072 33.7939 29.392 33.7939 29.0041V5.18457H40.7818V20.6088C40.7818 20.9967 41.0971 21.3119 41.485 21.3119C41.8729 21.3119 42.1881 20.9967 42.1881 20.6088V4.48145C42.1881 4.09355 41.8729 3.77832 41.485 3.77832H33.0908C32.7029 3.77832 32.3877 4.09355 32.3877 4.48145V29.0041C32.3877 29.392 32.7018 29.7072 33.0908 29.7072Z" fill="#008080"/>
</svg>
