<svg width="80" height="80" viewBox="0 0 80 80" fill="none" xmlns="http://www.w3.org/2000/svg">
<path fill-rule="evenodd" clip-rule="evenodd" d="M55.024 26.7578C56.0271 29.6597 56.7496 32.6222 56.9871 35.6928C57.2821 39.5022 57.1471 43.2847 56.344 47.0316C56.3221 47.1347 56.2759 47.2316 56.2415 47.3316C55.9896 47.3322 55.7327 47.3009 55.4865 47.3391C53.4059 47.6659 51.3271 48.0047 49.2484 48.3416C47.0996 48.6897 44.9477 49.0241 42.8027 49.3959C42.0427 49.5272 41.1021 49.3703 40.7952 50.4216C40.7865 50.4503 40.699 50.4553 40.6484 50.4716L40.7521 44.1897L40.6465 29.0322L41.6477 28.8603C43.2852 28.5922 44.9227 28.3203 46.5615 28.0597C48.5171 27.7491 50.4746 27.4472 52.4315 27.1441C53.2946 27.0097 54.159 26.8866 55.024 26.7578Z" fill="#439934"/>
<path fill-rule="evenodd" clip-rule="evenodd" d="M38.5798 68.7835C37.5235 67.8754 36.4304 67.0073 35.4179 66.0523C29.9697 60.9135 25.9847 54.8654 24.0222 47.5735C23.4816 45.5666 23.121 43.5273 23.0054 41.4535C22.9241 40.0023 22.8066 38.5379 22.9091 37.0941C23.1822 33.2541 23.7372 29.451 24.8635 25.7523L24.9254 25.666C25.0347 25.8116 25.1922 25.9404 25.2479 26.1048C26.3472 29.3423 27.4385 32.5823 28.5241 35.8241C31.9354 46.0116 35.3422 56.2016 38.7591 66.3866C38.826 66.5854 38.9991 66.7485 39.1235 66.9279L38.5798 68.7835Z" fill="#45A538"/>
<path fill-rule="evenodd" clip-rule="evenodd" d="M55.0231 26.7573C54.1581 26.8861 53.2931 27.0092 52.43 27.1423C50.4731 27.4455 48.5156 27.7473 46.56 28.058C44.9213 28.3186 43.2838 28.5905 41.6463 28.8586L40.645 29.0305L40.6375 28.3773C40.6044 27.8405 40.5475 27.3042 40.5413 26.7673C40.4981 23.3436 40.4713 19.9198 40.4288 16.4961C40.4025 14.353 40.3631 12.2105 40.3194 10.068C40.2925 8.73672 40.2638 7.40484 40.2038 6.07547C40.1713 5.36109 40.0563 4.65047 40.0094 3.93609C39.9831 3.52547 40.0194 3.11172 40.0275 2.69922C40.5381 3.68859 41.0375 4.68547 41.5625 5.66734C42.3919 7.21984 43.7131 8.36359 44.9025 9.61172C49.6044 14.5442 52.9425 20.2792 55.0231 26.7573Z" fill="#46A037"/>
<path fill-rule="evenodd" clip-rule="evenodd" d="M40.6479 50.4711C40.6985 50.4548 40.7866 50.4498 40.7948 50.4211C41.1016 49.3698 42.0423 49.5267 42.8023 49.3955C44.9473 49.0242 47.0991 48.6892 49.2479 48.3411C51.3266 48.0042 53.4054 47.6655 55.486 47.3386C55.7323 47.2998 55.9891 47.3317 56.241 47.3311C55.8523 48.7186 55.546 50.1361 55.0529 51.4855C54.4929 53.0161 53.8154 54.5098 53.096 55.9742C52.0191 58.1584 50.6862 60.2067 49.1254 62.0761C47.926 63.5186 46.5891 64.8517 45.2491 66.1686C44.5085 66.8967 43.6354 67.4898 42.8229 68.1442L42.6123 68.0005L41.8535 67.3517L41.0685 65.6311C40.5323 63.6239 40.2398 61.5595 40.1973 59.4823L40.2116 59.1317L40.3185 57.6155C40.3541 57.098 40.4016 56.5811 40.4235 56.0623C40.5041 54.1986 40.5741 52.3348 40.6479 50.4711Z" fill="#409433"/>
<path fill-rule="evenodd" clip-rule="evenodd" d="M40.647 50.4703C40.5732 52.334 40.5032 54.1978 40.4238 56.0621C40.402 56.5809 40.3545 57.0978 40.3188 57.6153L39.8407 57.7959C38.7788 54.6696 37.7163 51.5765 36.677 48.4753C34.9582 43.3446 33.2601 38.2059 31.5438 33.074C30.1576 28.9318 28.7618 24.7928 27.3563 20.6571C27.2907 20.4634 27.102 20.3121 26.9707 20.1409L30.0307 14.5146C30.1357 14.6971 30.2745 14.8678 30.3407 15.064C31.7579 19.2528 33.1679 23.4441 34.5707 27.6378C36.3932 33.094 38.2045 38.5546 40.0257 44.0115C40.0982 44.2296 40.2182 44.4309 40.3326 44.6753L40.7513 44.1878L40.647 50.4703Z" fill="#4FAA41"/>
<path fill-rule="evenodd" clip-rule="evenodd" d="M26.9727 20.1416C27.104 20.3129 27.2921 20.4641 27.3584 20.6579C28.7638 24.7936 30.1597 28.9325 31.5459 33.0747C33.2621 38.2066 34.9602 43.3453 36.679 48.476C37.7177 51.5766 38.7802 54.6703 39.8427 57.7966L40.3209 57.616L40.214 59.1322L40.1171 59.4816C39.9509 61.1416 39.8109 62.8054 39.6084 64.4616C39.5065 65.2916 39.2902 66.1066 39.1259 66.9285C39.0021 66.7491 38.8284 66.586 38.7615 66.3872C35.3446 56.2016 31.9377 46.0122 28.5265 35.8247C27.4412 32.5826 26.3492 29.3428 25.2502 26.1054C25.1946 25.941 25.0377 25.8122 24.9277 25.6666L26.9727 20.1416Z" fill="#4AA73C"/>
<path fill-rule="evenodd" clip-rule="evenodd" d="M40.7519 44.1884L40.3331 44.6759C40.2187 44.4315 40.0988 44.2296 40.0263 44.0121C38.2056 38.5552 36.3937 33.0946 34.5712 27.6384C33.1685 23.4447 31.7585 19.2534 30.3412 15.0646C30.2756 14.8684 30.1369 14.6971 30.0312 14.5152L33.8156 9.53711C33.935 9.69648 34.105 9.83836 34.1669 10.0177C35.2175 13.0934 36.2587 16.1727 37.2937 19.254C38.2606 22.1315 39.2131 25.0134 40.1912 27.8871C40.2569 28.0796 40.485 28.2159 40.6375 28.3784L40.645 29.0315C40.6812 34.0827 40.7169 39.1359 40.7519 44.1884Z" fill="#57AE47"/>
<path fill-rule="evenodd" clip-rule="evenodd" d="M40.6383 28.3778C40.4858 28.2153 40.2577 28.0791 40.192 27.8866C39.2139 25.0128 38.2614 22.1309 37.2945 19.2534C36.2595 16.1722 35.2183 13.0934 34.1677 10.0172C34.1058 9.83781 33.9358 9.69594 33.8164 9.53656C35.047 8.33156 36.2395 7.08344 37.5195 5.93406C38.6577 4.91281 39.5727 3.81781 39.6145 2.20406C39.6164 2.13719 39.6514 2.07031 39.7052 1.88281L40.0295 2.69906C40.0214 3.11219 39.9845 3.52531 40.0114 3.93594C40.0583 4.65031 40.1733 5.36094 40.2058 6.07531C40.2658 7.40469 40.2945 8.73656 40.3214 10.0678C40.3645 12.2103 40.4039 14.3528 40.4308 16.4959C40.4727 19.9197 40.5002 23.3434 40.5433 26.7672C40.5483 27.3053 40.6045 27.8409 40.6383 28.3778Z" fill="#60B24F"/>
<path fill-rule="evenodd" clip-rule="evenodd" d="M39.1238 66.9277C39.2882 66.1059 39.5045 65.2902 39.6063 64.4609C39.8095 62.8052 39.9488 61.1409 40.1151 59.4809L40.1563 59.4746L40.1976 59.4815C40.2401 61.5586 40.5326 63.6231 41.0688 65.6302C40.9588 65.7752 40.8032 65.9046 40.7451 66.0684C40.2907 67.3496 39.8626 68.6409 39.4057 69.9221C39.3432 70.0971 39.1695 70.2334 39.047 70.3871L38.5801 68.7834L39.1238 66.9277Z" fill="#A9AA88"/>
<path fill-rule="evenodd" clip-rule="evenodd" d="M39.0469 70.3877C39.1694 70.234 39.3437 70.0977 39.4056 69.9227C39.8625 68.6415 40.2912 67.3509 40.745 66.069C40.8031 65.9052 40.9581 65.7759 41.0687 65.6309L41.8531 67.3521C41.6981 67.5721 41.4844 67.7702 41.3981 68.0152L39.8956 72.4271C39.8337 72.604 39.6225 72.729 39.4812 72.8784L39.0469 70.3877Z" fill="#B6B598"/>
<path fill-rule="evenodd" clip-rule="evenodd" d="M39.4824 72.8778C39.6243 72.7291 39.8349 72.6034 39.8968 72.4266L41.3993 68.0147C41.4849 67.7703 41.6993 67.5716 41.8543 67.3516L42.6137 67.9997C42.2468 68.3622 42.043 68.7809 42.1655 69.3103L41.9349 70.0653C41.8299 70.1947 41.678 70.3072 41.6262 70.4553C41.1018 71.9572 40.6012 73.4672 40.073 74.9691C40.0062 75.1597 39.8205 75.3091 39.6893 75.4766C39.6212 74.6097 39.5518 73.7447 39.4824 72.8778Z" fill="#C2C1A7"/>
<path fill-rule="evenodd" clip-rule="evenodd" d="M39.6887 75.4767C39.8194 75.3086 40.005 75.1592 40.0725 74.9692C40.6006 73.4679 41.1012 71.9579 41.6256 70.4554C41.6775 70.3079 41.8287 70.1948 41.9344 70.0654L41.6162 73.5311C41.5312 73.6292 41.4081 73.7148 41.3675 73.8292C41.0081 74.8379 40.6694 75.8542 40.3087 76.8629C40.2344 77.0711 40.0919 77.2548 39.9806 77.4492C39.8819 77.3198 39.705 77.1948 39.6969 77.0598C39.665 76.5342 39.6869 76.0048 39.6887 75.4767Z" fill="#CECDB7"/>
<path fill-rule="evenodd" clip-rule="evenodd" d="M39.9805 77.4494C40.0917 77.2544 40.2342 77.0706 40.3086 76.8631C40.6698 75.855 41.008 74.8387 41.3673 73.8294C41.408 73.715 41.5317 73.63 41.6161 73.5312L41.6236 75.8062L40.8623 77.7587L39.9805 77.4494Z" fill="#DBDAC7"/>
<path fill-rule="evenodd" clip-rule="evenodd" d="M40.8633 77.7591L41.6245 75.8066L41.7814 78.1166L40.8633 77.7591Z" fill="#EBE9DC"/>
<path fill-rule="evenodd" clip-rule="evenodd" d="M42.1646 69.3116C42.0421 68.7822 42.2453 68.3629 42.6128 68.001L42.8234 68.1447L42.1646 69.3116Z" fill="#CECDB7"/>
<path fill-rule="evenodd" clip-rule="evenodd" d="M40.1977 59.4828L40.1565 59.4759L40.1152 59.4822L40.2121 59.1328L40.1977 59.4828Z" fill="#4FAA41"/>
</svg>
