<svg width="80" height="80" viewBox="0 0 80 80" fill="none" xmlns="http://www.w3.org/2000/svg">
<g clip-path="url(#clip0_1140_1864)">
<path d="M73.092 61.1291C68.8027 61.0122 65.5271 61.4116 62.7264 62.5922C61.9308 62.9278 60.6608 62.9372 60.5308 63.9341C60.9683 64.3922 61.0364 65.0772 61.3839 65.6409C62.0527 66.7222 63.1814 68.1734 64.1889 68.9334C65.2902 69.7647 66.4246 70.6528 67.6046 71.3722C69.7033 72.6516 72.0464 73.3828 74.0671 74.6647C75.2583 75.4209 76.4414 76.3728 77.6033 77.2253C78.1783 77.6472 78.5639 78.3028 79.3108 78.5672V78.4459C78.9183 77.9459 78.8171 77.2597 78.4571 76.7378L76.8714 75.1522C75.3214 73.0947 73.3533 71.2872 71.2614 69.7866C69.5933 68.5891 65.8602 66.9716 65.1646 65.0309L65.0427 64.9091C66.2252 64.7753 67.6096 64.3478 68.7014 64.0547C70.5352 63.5634 72.1739 63.6903 74.0671 63.2016L76.6277 62.4697V61.9822C75.6708 61.0003 74.9883 59.7003 73.9452 58.8116C71.2139 56.4866 68.2339 54.1634 65.1652 52.2259C63.4627 51.1522 61.3596 50.4541 59.5552 49.5434C58.9483 49.2366 57.8821 49.0772 57.4814 48.5672C56.5333 47.3597 56.0177 45.8284 55.2871 44.4216C53.7564 41.4734 52.2533 38.2541 50.897 35.1522C49.972 33.0372 49.3677 30.9522 48.2139 29.0547C42.6764 19.9503 36.7164 14.4559 27.4833 9.05469C25.5183 7.90594 23.1527 7.45282 20.6527 6.85907C19.3121 6.77844 17.9702 6.69656 16.6289 6.61469C15.8096 6.27344 14.9583 5.27156 14.1902 4.78531C11.1314 2.85281 3.28518 -1.35031 1.02018 4.17594C-0.410447 7.66406 3.1583 11.0666 4.43393 12.8347C5.33018 14.0734 6.47705 15.4641 7.11705 16.8584C7.5383 17.7753 7.6108 18.6947 7.97143 19.6641C8.85705 22.0528 9.62893 24.6516 10.7758 26.8584C11.3552 27.9759 11.9939 29.1522 12.7271 30.1509C13.1758 30.7641 13.9464 31.0341 14.0677 31.9803C13.3152 33.0341 13.2721 34.6703 12.8489 36.0053C10.9427 42.0147 11.6621 49.4847 14.4346 53.9322C15.2846 55.2984 17.2889 58.2266 20.0439 57.1028C22.4539 56.1216 21.9158 53.0791 22.6052 50.3953C22.7608 49.7872 22.6652 49.3397 22.9708 48.9322V49.0541L25.1664 53.4441C26.7914 56.0609 29.6739 58.7953 32.1177 60.6403C33.3846 61.5972 34.3821 63.2509 36.0202 63.8109V63.6884H35.8983C35.5808 63.1941 35.0839 62.9891 34.6789 62.5916C33.7246 61.6559 32.6633 60.4928 31.8746 59.4209C29.6521 56.4041 27.6883 53.1022 25.8989 49.6653C25.0439 48.0234 24.3008 46.2134 23.5808 44.5428C23.3033 43.8991 23.3071 42.9247 22.7283 42.5916C21.9389 43.8153 20.7771 44.8053 20.1671 46.2503C19.1914 48.5603 19.0658 51.3778 18.7039 54.2991C18.4902 54.3753 18.5852 54.3228 18.4596 54.4203C16.7608 54.0109 16.1646 52.2628 15.5327 50.7622C13.9364 46.9684 13.6396 40.8609 15.0446 36.4941C15.4083 35.3634 17.0508 31.8059 16.3858 30.7616C16.0683 29.7203 15.0208 29.1178 14.4352 28.3222C13.7096 27.3384 12.9858 26.0434 12.4827 24.9072C11.1764 21.9503 10.5664 18.6297 9.1908 15.6397C8.53268 14.2103 7.4208 12.7634 6.50768 11.4934C5.49705 10.0853 4.36455 9.04844 3.5808 7.34656C3.30205 6.74156 2.92393 5.77281 3.33643 5.15094C3.46768 4.73156 3.65393 4.55656 4.0683 4.41969C4.7758 3.87406 6.7458 4.60094 7.48205 4.90656C9.43768 5.71906 11.0702 6.49282 12.7271 7.59031C13.5214 8.11782 14.3264 9.13719 15.2877 9.41969H16.3852C18.1021 9.81406 20.0252 9.54156 21.6296 10.0291C24.4646 10.8903 27.0052 12.2309 29.3121 13.6878C36.3408 18.1266 42.0883 24.4441 46.0196 31.9809C46.6521 33.1947 46.9258 34.3522 47.4827 35.6397C48.6064 38.2353 50.022 40.9059 51.1402 43.4447C52.2564 45.9772 53.3439 48.5328 54.9214 50.6403C55.7508 51.7478 58.9533 52.3422 60.4096 52.9578C61.4296 53.3884 63.1014 53.8384 64.0683 54.4203C65.9139 55.5341 67.7027 56.8597 69.4346 58.0797C70.2989 58.6891 72.9595 60.0272 73.092 61.1291ZM18.5802 14.6659C17.6858 14.6491 17.0533 14.7634 16.3846 14.9091V15.0309H16.5064C16.9333 15.9072 17.6864 16.4722 18.2133 17.2266C18.6196 18.0809 19.0264 18.9341 19.4333 19.7872L19.5546 19.6666C20.3102 19.1334 20.6558 18.2828 20.6514 16.9828C20.3489 16.6647 20.3046 16.2659 20.0421 15.8859C19.6946 15.3791 19.0202 15.0909 18.5802 14.6659Z" fill="#00618A"/>
</g>
<defs>
<clipPath id="clip0_1140_1864">
<rect width="80" height="80" fill="white"/>
</clipPath>
</defs>
</svg>
