<svg width="80" height="80" viewBox="0 0 80 80" fill="none" xmlns="http://www.w3.org/2000/svg">
<g clip-path="url(#clip0_28_11873)">
<path d="M40.0005 80.001C62.0922 80.001 80.001 62.0922 80.001 40.0005C80.001 17.9088 62.0922 0 40.0005 0C17.9088 0 0 17.9088 0 40.0005C0 62.0922 17.9088 80.001 40.0005 80.001Z" fill="black"/>
<path d="M66.4485 70.0095L30.7299 24H24V55.9871H29.3841V30.8374L62.2223 73.2651C63.7019 72.2751 65.1138 71.1875 66.4485 70.0095Z" fill="url(#paint0_linear_28_11873)"/>
<path d="M51.1133 24H56.4467V56.0004H51.1133V24Z" fill="url(#paint1_linear_28_11873)"/>
</g>
<defs>
<linearGradient id="paint0_linear_28_11873" x1="48.4448" y1="51.7781" x2="64.2227" y2="71.3339" gradientUnits="userSpaceOnUse">
<stop stop-color="white"/>
<stop offset="1" stop-color="white" stop-opacity="0"/>
</linearGradient>
<linearGradient id="paint1_linear_28_11873" x1="53.78" y1="24" x2="53.6906" y2="47.5003" gradientUnits="userSpaceOnUse">
<stop stop-color="white"/>
<stop offset="1" stop-color="white" stop-opacity="0"/>
</linearGradient>
<clipPath id="clip0_28_11873">
<rect width="80" height="80" fill="white"/>
</clipPath>
</defs>
</svg>
