<svg width="80" height="80" viewBox="0 0 80 80" fill="none" xmlns="http://www.w3.org/2000/svg">
<path d="M39.8701 5H40.0326C40.8654 5.39666 41.6765 5.83728 42.4626 6.32C51.5109 11.5233 60.5592 16.7283 69.6076 21.935C69.9576 22.1219 70.2435 22.4096 70.428 22.7608C70.6126 23.1121 70.6873 23.5107 70.6426 23.905C70.6226 34.8775 70.6426 45.8475 70.6301 56.815C70.5123 57.3384 70.1924 57.794 69.7401 58.0825C60.1184 63.6225 50.4959 69.1592 40.8726 74.6925C40.6394 74.8702 40.3583 74.9741 40.0655 74.9905C39.7728 75.007 39.4818 74.9354 39.2301 74.785C29.5967 69.2617 19.9726 63.7283 10.3576 58.185C10.0451 58.0373 9.78336 57.8003 9.6054 57.504C9.42743 57.2076 9.3412 56.8653 9.35758 56.52C9.35758 45.55 9.35758 34.5808 9.35758 23.6125C9.334 23.2687 9.41346 22.9258 9.5858 22.6274C9.75814 22.329 10.0155 22.0888 10.3251 21.9375C19.3617 16.7408 28.3984 11.5408 37.4351 6.3375C38.2401 5.8775 39.0301 5.39 39.8701 5Z" fill="#019639"/>
<path d="M21.917 26.3449C21.917 35.3933 21.917 44.4424 21.917 53.4924C21.9055 53.9936 21.9939 54.492 22.1772 54.9586C22.3605 55.4252 22.635 55.8506 22.9845 56.2099C23.6546 56.8718 24.5313 57.284 25.4685 57.3778C26.4057 57.4715 27.3467 57.2411 28.1345 56.7249C28.6619 56.3666 29.0936 55.8847 29.3921 55.3213C29.6906 54.7579 29.8468 54.13 29.847 53.4924C29.847 46.9424 29.8345 40.3924 29.847 33.8424C35.8187 40.9924 41.8029 48.1324 47.7995 55.2624C48.6327 56.1064 49.6644 56.7277 50.8001 57.0693C51.9358 57.4109 53.139 57.4618 54.2995 57.2174C55.119 57.056 55.865 56.6359 56.428 56.019C56.9909 55.402 57.3411 54.6207 57.427 53.7899C57.4404 44.5549 57.4404 35.3208 57.427 26.0874C57.3409 25.1018 56.8886 24.1843 56.1592 23.5158C55.4298 22.8474 54.4764 22.4766 53.487 22.4766C52.4977 22.4766 51.5442 22.8474 50.8148 23.5158C50.0855 24.1843 49.6331 25.1018 49.547 26.0874C49.547 32.7424 49.507 39.3899 49.547 46.0424C43.682 39.1274 37.8895 32.1524 32.047 25.2124C31.2768 24.2247 30.257 23.4604 29.0929 22.9981C27.9288 22.5358 26.6625 22.3923 25.4245 22.5824C24.4867 22.6868 23.6173 23.1237 22.9738 23.814C22.3304 24.5042 21.9554 25.4021 21.917 26.3449Z" fill="white"/>
</svg>
