<svg width="80" height="80" viewBox="0 0 80 80" fill="none" xmlns="http://www.w3.org/2000/svg">
<path d="M36.6403 1.06707C38.6403 -0.0654287 41.1903 -0.0704287 43.1403 1.06707L73.0003 17.8996C74.8678 18.9496 76.1178 21.0321 76.1003 23.1846V56.9346C76.1128 59.1771 74.7403 61.3046 72.7703 62.3346L43.0703 79.0896C42.0545 79.6509 40.9069 79.9301 39.7467 79.898C38.5865 79.8659 37.4561 79.5237 36.4728 78.9071L27.5603 73.7571C26.9528 73.3946 26.2703 73.1071 25.8403 72.5196C26.2203 72.0096 26.8953 71.9446 27.4453 71.7196C28.6853 71.3246 29.8203 70.7196 30.9603 70.0796C31.2478 69.8796 31.6003 69.9546 31.8753 70.1346L39.4753 74.5296C40.0178 74.8421 40.5678 74.4296 41.0328 74.1671L70.1953 57.7096C70.5553 57.5346 70.7553 57.1546 70.7253 56.7596V23.3346C70.7653 22.8846 70.5078 22.4746 70.1003 22.2921L40.4753 5.60957C40.3046 5.49149 40.102 5.42803 39.8945 5.42758C39.6869 5.42713 39.4841 5.48973 39.3128 5.60707L9.73032 22.3246C9.33032 22.5071 9.05532 22.9121 9.10532 23.3621V56.7871C9.07032 57.1821 9.28032 57.5546 9.64282 57.7246L17.5478 62.1871C19.0328 62.9871 20.8553 63.4371 22.4903 62.8496C23.2058 62.5799 23.8218 62.098 24.2556 61.4684C24.6895 60.8388 24.9206 60.0917 24.9178 59.3271L24.9253 26.1021C24.8903 25.6096 25.3553 25.2021 25.8328 25.2521H29.6328C30.1328 25.2396 30.5253 25.7696 30.4578 26.2646L30.4503 59.6996C30.4528 62.6696 29.2328 65.8996 26.4853 67.3571C23.1003 69.1071 18.9153 68.7396 15.5703 67.0571L7.07032 62.3571C5.07032 61.3571 3.72782 59.1971 3.74032 56.9571V23.2071C3.74864 22.1101 4.0502 21.0354 4.61374 20.0943C5.17728 19.1531 5.98229 18.3798 6.94532 17.8546L36.6403 1.06707ZM45.2503 24.4621C49.5678 24.2121 54.1903 24.2971 58.0753 26.4246C61.0828 28.0546 62.7503 31.4746 62.8053 34.8196C62.7203 35.2696 62.2503 35.5196 61.8203 35.4871C60.5703 35.4846 59.3153 35.5046 58.0603 35.4796C57.5278 35.4996 57.2203 35.0096 57.1528 34.5396C56.7928 32.9396 55.9203 31.3571 54.4153 30.5846C52.1053 29.4271 49.4253 29.4846 46.9053 29.5096C45.0653 29.6096 43.0878 29.7671 41.5303 30.8471C40.3303 31.6671 39.9703 33.3471 40.3978 34.6521C40.7978 35.6096 41.9053 35.9171 42.8078 36.2021C48.0128 37.5621 53.5253 37.4521 58.6328 39.2196C60.7453 39.9496 62.8128 41.3696 63.5378 43.5821C64.4828 46.5471 64.0703 50.0921 61.9628 52.4721C60.2528 54.4321 57.7628 55.4721 55.2753 56.0771C51.9678 56.8146 48.5378 56.8321 45.1803 56.5021C42.0228 56.1421 38.7378 55.3121 36.3003 53.1621C34.2153 51.3521 33.2003 48.5321 33.3003 45.8121C33.3253 45.3521 33.7828 45.0321 34.2253 45.0696H37.9753C38.4803 45.0346 38.8503 45.4696 38.8753 45.9446C39.1078 47.4446 39.6803 49.0696 41.0103 49.9446C43.5753 51.5996 46.7928 51.4846 49.7278 51.5321C52.1603 51.4246 54.8903 51.3921 56.8778 49.7821C57.9278 48.8646 58.2353 47.3321 57.9528 46.0121C57.6453 44.8971 56.4528 44.3796 55.4528 44.0121C50.3153 42.3871 44.7403 42.9771 39.6528 41.1371C37.5878 40.4071 35.5903 39.0271 34.7978 36.9046C33.6903 33.9046 34.1978 30.1871 36.5303 27.8871C38.7803 25.5996 42.0803 24.7171 45.2053 24.4021L45.2503 24.4621Z" fill="#8CC84B"/>
</svg>
