<svg width="60" height="60" viewBox="0 0 60 60" fill="none" xmlns="http://www.w3.org/2000/svg">
<path d="M57.1875 22.0312H48.75C48.0043 22.0321 47.2895 22.3287 46.7622 22.856C46.235 23.3832 45.9384 24.0981 45.9375 24.8438V43.5938C45.9384 44.3394 46.235 45.0543 46.7622 45.5815C47.2895 46.1088 48.0043 46.4054 48.75 46.4062H57.1875C57.9332 46.4054 58.648 46.1088 59.1753 45.5815C59.7025 45.0543 59.9991 44.3394 60 43.5938V24.8438C59.9991 24.0981 59.7025 23.3832 59.1753 22.856C58.648 22.3287 57.9332 22.0321 57.1875 22.0312ZM58.125 43.5938C58.1248 43.8423 58.0259 44.0806 57.8501 44.2564C57.6744 44.4321 57.4361 44.531 57.1875 44.5312H48.75C48.5014 44.531 48.2631 44.4321 48.0874 44.2564C47.9116 44.0806 47.8127 43.8423 47.8125 43.5938V24.8438C47.8127 24.5952 47.9116 24.3569 48.0874 24.1811C48.2631 24.0054 48.5014 23.9065 48.75 23.9062H57.1875C57.4361 23.9065 57.6744 24.0054 57.8501 24.1811C58.0259 24.3569 58.1248 24.5952 58.125 24.8438V43.5938ZM2.20875 35.1562H34.3538C34.9388 35.1561 35.4999 34.924 35.9139 34.5107C36.328 34.0974 36.5613 33.5367 36.5625 32.9517V12.0483C36.5613 11.4633 36.328 10.9026 35.9139 10.4893C35.4999 10.076 34.9388 9.84387 34.3538 9.84375H2.20875C1.62372 9.84387 1.06263 10.076 0.648554 10.4893C0.234481 10.9026 0.0012413 11.4633 0 12.0483L0 32.9517C0.0012413 33.5367 0.234481 34.0974 0.648554 34.5107C1.06263 34.924 1.62372 35.1561 2.20875 35.1562ZM1.875 12.0483C1.87574 11.9604 1.91128 11.8764 1.97383 11.8146C2.03638 11.7528 2.12085 11.7184 2.20875 11.7188H34.3538C34.4417 11.7184 34.5261 11.7528 34.5887 11.8146C34.6512 11.8764 34.6868 11.9604 34.6875 12.0483V32.9517C34.6868 33.0396 34.6512 33.1236 34.5887 33.1854C34.5261 33.2472 34.4417 33.2816 34.3538 33.2812H2.20875C2.12085 33.2816 2.03638 33.2472 1.97383 33.1854C1.91128 33.1236 1.87574 33.0396 1.875 32.9517V12.0483ZM0.9375 38.9062H35.625C35.8736 38.9062 36.1121 38.8075 36.2879 38.6317C36.4637 38.4558 36.5625 38.2174 36.5625 37.9688C36.5625 37.7201 36.4637 37.4817 36.2879 37.3058C36.1121 37.13 35.8736 37.0312 35.625 37.0312H0.9375C0.68886 37.0312 0.450403 37.13 0.274587 37.3058C0.0987721 37.4817 0 37.7201 0 37.9688C0 38.2174 0.0987721 38.4558 0.274587 38.6317C0.450403 38.8075 0.68886 38.9062 0.9375 38.9062Z" fill="#008080"/>
<path d="M18.2812 15.4688C18.799 15.4688 19.2188 15.049 19.2188 14.5312C19.2188 14.0135 18.799 13.5938 18.2812 13.5938C17.7635 13.5938 17.3438 14.0135 17.3438 14.5312C17.3438 15.049 17.7635 15.4688 18.2812 15.4688Z" fill="#008080"/>
<path d="M45.0089 46.4062C44.5888 45.8526 44.2978 45.2119 44.1572 44.5312H2.8125C2.56394 44.531 2.32562 44.4321 2.14986 44.2564C1.9741 44.0806 1.87525 43.8423 1.875 43.5938V40.7812H0.9375C0.617957 40.7806 0.300882 40.7253 0 40.6177L0 43.5938C0.000868412 44.3394 0.297463 45.0543 0.824721 45.5815C1.35198 46.1088 2.06685 46.4054 2.8125 46.4062H25.7812V48.2812H21.0938C20.8451 48.2812 20.6067 48.38 20.4308 48.5558C20.255 48.7317 20.1562 48.9701 20.1562 49.2188C20.1562 49.4674 20.255 49.7058 20.4308 49.8817C20.6067 50.0575 20.8451 50.1562 21.0938 50.1562H38.9062C39.1549 50.1562 39.3933 50.0575 39.5692 49.8817C39.745 49.7058 39.8438 49.4674 39.8438 49.2188C39.8438 48.9701 39.745 48.7317 39.5692 48.5558C39.3933 48.38 39.1549 48.2812 38.9062 48.2812H34.2188V46.4062H45.0089ZM32.3438 46.4062V48.2812H27.6562V46.4062H32.3438ZM57.1875 9.84375H37.7845C38.1486 10.4064 38.3672 11.0507 38.4206 11.7188H57.1875C57.4361 11.719 57.6744 11.8178 57.8501 11.9936C58.0259 12.1694 58.1248 12.4077 58.125 12.6562V20.2509C58.8057 20.3915 59.4463 20.6825 60 21.1027V12.6562C59.9991 11.9106 59.7025 11.1957 59.1753 10.6685C58.648 10.1412 57.9332 9.84462 57.1875 9.84375Z" fill="#008080"/>
</svg>
