<svg width="80" height="80" viewBox="0 0 80 80" fill="none" xmlns="http://www.w3.org/2000/svg">
<path d="M40 75C59.33 75 75 59.33 75 40C75 20.67 59.33 5 40 5C20.67 5 5 20.67 5 40C5 59.33 20.67 75 40 75Z" fill="#0A26A3"/>
<path d="M36.0976 25H40.2976L39.1106 31.3105H42.8846C44.9543 31.3548 46.4961 31.8172 47.5108 32.6982C48.5456 33.579 48.8501 35.2535 48.4241 37.7203L46.3848 48.7222H42.1238L44.0716 38.2157C44.2743 37.1142 44.2136 36.3325 43.8891 35.87C43.5646 35.4075 42.8646 35.1763 41.7891 35.1763L38.4106 35.1432L35.9148 48.7222H31.7148L36.0976 25Z" fill="white"/>
<path fill-rule="evenodd" clip-rule="evenodd" d="M16.8523 31.3105H25.009C27.403 31.3323 29.138 32.0815 30.2135 33.557C31.289 35.0328 31.644 37.048 31.2788 39.6033C31.137 40.771 30.8222 41.916 30.3352 43.0395C29.8685 44.1628 29.2195 45.1758 28.3875 46.079C27.3727 47.2243 26.2873 47.951 25.1308 48.2598C23.9742 48.5683 22.7769 48.7223 21.5394 48.7223H17.8871L16.7306 54.9998H12.5L16.8523 31.3105ZM18.5871 44.9888L20.4072 35.11H21.022C21.2454 35.11 21.4785 35.0988 21.722 35.077C23.3454 35.055 24.6943 35.2203 25.77 35.5725C26.8655 35.9248 27.2307 37.2575 26.8655 39.5703C26.4195 42.3238 25.5465 43.9315 24.2481 44.394C22.9497 44.8348 21.3263 45.0438 19.3784 45.0218H18.9523C18.8306 45.0218 18.7089 45.0105 18.5871 44.9888Z" fill="white"/>
<path fill-rule="evenodd" clip-rule="evenodd" d="M61.091 31.3105H52.9343L48.582 54.9998H52.8125L53.9693 48.7223H57.6215C58.859 48.7223 60.0563 48.5683 61.2128 48.2598C62.3695 47.951 63.4548 47.2243 64.4695 46.079C65.3015 45.1758 65.9505 44.1628 66.4173 43.0395C66.9043 41.916 67.219 40.771 67.3608 39.6033C67.726 37.048 67.3713 35.0328 66.2955 33.557C65.22 32.0815 63.4853 31.3323 61.091 31.3105ZM56.4893 35.11L54.6693 44.9888C54.791 45.0105 54.9128 45.0218 55.0345 45.0218H55.4605C57.4085 45.0438 59.0318 44.8348 60.3303 44.394C61.6285 43.9315 62.5015 42.3238 62.9478 39.5703C63.313 37.2575 62.9478 35.9248 61.852 35.5725C60.7765 35.2203 59.4275 35.055 57.804 35.077C57.5605 35.0988 57.3275 35.11 57.104 35.11H56.4893Z" fill="white"/>
</svg>
