<svg width="80" height="80" viewBox="0 0 80 80" fill="none" xmlns="http://www.w3.org/2000/svg">
<path d="M58.6302 57.5699C59.1209 53.4868 58.974 52.8874 62.0152 53.5493L62.7871 53.6168C65.1259 53.7231 68.1852 53.2405 69.9827 52.4055C73.8521 50.6099 76.1459 47.6131 72.3315 48.3999C63.629 50.1956 63.0309 47.2487 63.0309 47.2487C72.2202 33.6143 76.0615 16.3062 72.7452 12.0693C63.7015 0.513674 48.0471 5.97805 47.7852 6.1193L47.7015 6.13492C45.9821 5.77805 44.0577 5.56492 41.8958 5.52992C37.9577 5.46492 34.9696 6.56242 32.7027 8.28117C32.7027 8.28117 4.77585 -3.22445 6.07523 22.7505C6.35148 28.2762 13.9952 64.5618 23.1127 53.6018C26.4452 49.5943 29.6652 46.2056 29.6652 46.2056C31.264 47.2674 33.179 47.8099 35.1865 47.6149L35.3421 47.4824C35.2934 47.9799 35.3146 48.4668 35.404 49.0431C33.0559 51.6674 33.7458 52.128 29.0502 53.0943C24.299 54.073 27.0902 55.8162 28.9121 56.2718C31.1215 56.8243 36.2321 57.6068 39.6859 52.773L39.5484 53.3243C40.4696 54.0618 40.4077 58.6224 40.5377 61.8806C40.6684 65.1393 40.8865 68.1799 41.5509 69.9731C42.2152 71.7655 42.999 76.383 49.1702 75.0605C54.3277 73.958 58.2709 72.3674 58.6302 57.5699Z" fill="black"/>
<path d="M47.1605 78.2846C44.4311 78.2846 42.6536 77.229 41.5742 76.2096C39.9448 74.6721 39.2986 72.6915 38.9123 71.5084L38.7455 71.0146C37.968 68.9159 37.7042 65.894 37.548 62.0028C37.5242 61.4184 37.508 60.8165 37.4898 60.1784C37.4767 59.7115 37.4605 59.1259 37.4367 58.5134C36.4534 58.9822 35.4096 59.3121 34.3355 59.4934C32.4111 59.8221 30.3423 59.7159 28.1855 59.1765C26.6636 58.7959 25.0823 58.0071 24.1811 56.789C21.5542 59.0896 19.0486 58.7778 17.6836 58.3221C15.2755 57.519 13.1205 55.2621 11.0948 51.424C9.65172 48.6896 8.25609 45.1271 6.94609 40.8346C4.66484 33.3596 3.21547 25.4865 3.08672 22.9015C2.68172 14.8109 4.85984 9.02464 9.55922 5.70526C16.9723 0.469014 28.2042 3.54839 32.2992 4.94651C35.0505 3.28839 38.2873 2.48151 41.9448 2.53964C43.9092 2.57151 45.7798 2.74401 47.5173 3.05401C49.3298 2.48401 52.9098 1.66589 57.008 1.71714C64.5586 1.80714 70.8155 4.74964 75.1011 10.2265C78.1598 14.134 76.6473 22.3396 75.4742 26.8834C73.823 33.2746 70.9298 40.0721 67.3761 45.9896C68.3411 45.9965 69.7392 45.8809 71.7267 45.4703C75.648 44.6609 76.7948 46.7634 77.1061 47.7046C78.353 51.4809 72.933 54.3346 71.2423 55.1196C69.0761 56.1253 65.5442 56.7378 62.6517 56.6053L62.5255 56.5971L61.7655 56.5303L61.6905 57.164L61.618 57.7834C61.4236 65.2828 60.3523 70.0321 58.148 73.1703C55.8373 76.4603 52.6261 77.3821 49.7973 77.9884C48.8323 78.1946 47.9555 78.2846 47.1605 78.2846ZM41.4167 50.9903C43.1786 52.4003 43.333 55.0534 43.4711 60.0115C43.4886 60.6303 43.5048 61.2159 43.5267 61.7628C43.593 63.419 43.7486 67.2971 44.3561 68.9359C44.4417 69.1678 44.5186 69.4028 44.5998 69.6521C45.2767 71.7246 45.6161 72.764 48.543 72.1384C50.9998 71.6115 52.263 71.139 53.2517 69.7315C54.6886 67.6853 55.4923 63.569 55.6398 57.4971L58.6292 57.5696L55.6605 57.2134L55.748 56.4721C56.0323 54.0284 56.2373 52.2634 57.8705 51.0959C59.1811 50.1596 60.6742 50.2503 61.8636 50.4646C60.5567 49.4771 60.1955 48.319 60.0992 47.844L59.8498 46.6159L60.5505 45.5765C64.5861 39.589 67.9136 32.2303 69.6811 25.3865C71.4973 18.3546 70.9436 14.6203 70.3898 13.914C63.0592 4.54714 50.3473 8.41464 49.0198 8.85339L48.7955 8.97464L47.6705 9.18401L47.0942 9.06464C45.5055 8.73464 43.7405 8.55214 41.8486 8.52151C38.8761 8.47151 36.478 9.17401 34.5117 10.6659L33.1473 11.7003L31.5642 11.0484C28.1817 9.66526 18.2467 6.88464 13.0042 10.5978C10.0942 12.659 8.76859 16.6978 9.06359 22.6021C9.16109 24.5515 10.4855 31.9309 12.6705 39.0878C15.6898 48.9784 18.4336 52.264 19.5792 52.6459C19.7792 52.7134 20.298 52.3103 20.8142 51.6903C22.9667 49.1099 25.1956 46.5942 27.498 44.1465L29.2292 42.3246L31.3223 43.7153C32.1661 44.2759 33.0967 44.594 34.0523 44.654L39.0442 40.3965L38.3211 47.7765C38.3048 47.9421 38.2967 48.1678 38.3617 48.5865L38.5792 49.9853L37.6355 51.0403L37.5267 51.1628L40.2692 52.4284L41.4167 50.9903Z" fill="black"/>
<path d="M72.3314 48.4003C63.6282 50.1959 63.0301 47.249 63.0301 47.249C72.2195 33.614 76.0607 16.3053 72.7457 12.0696C63.702 0.51464 48.0464 5.97902 47.7851 6.12089L47.7007 6.13589C45.9814 5.77902 44.057 5.56652 41.8939 5.53152C37.9557 5.46714 34.9689 6.56402 32.702 8.28277C32.702 8.28277 4.77448 -3.22223 6.07323 22.7521C6.34948 28.2784 13.9932 64.564 23.1107 53.604C26.4432 49.5965 29.6626 46.2078 29.6626 46.2078C31.262 47.2696 33.1764 47.8121 35.1832 47.6171L35.3395 47.4846C35.2907 47.9821 35.3132 48.469 35.402 49.0453C33.0532 51.6696 33.7432 52.1303 29.0476 53.0965C24.2964 54.0753 27.0876 55.8184 28.9101 56.274C31.1189 56.8265 36.2301 57.609 39.6832 52.7753L39.5451 53.3265C40.4657 54.064 41.112 58.1215 41.0039 61.7996C40.8951 65.4778 40.8226 68.0034 41.5482 69.9759C42.2732 71.9484 42.9957 76.3859 49.1682 75.0634C54.3257 73.9584 56.9982 71.094 57.3707 66.3165C57.6345 62.9196 58.2314 63.4221 58.2695 60.3853L58.7489 58.9478C59.3014 54.3434 58.8364 52.8584 62.0145 53.549L62.7864 53.6165C65.1251 53.7228 68.1857 53.2403 69.9826 52.4053C73.8514 50.6109 76.1457 47.6134 72.3314 48.4003Z" fill="#336791"/>
<path d="M47.4725 76.4415C42.3275 76.4415 40.6975 72.3671 40.0306 70.7009C39.0544 68.259 38.8437 58.7828 39.0612 51.0115C39.0645 50.8805 39.0936 50.7513 39.147 50.6316C39.2003 50.5118 39.2768 50.4038 39.3721 50.3138C39.4674 50.2237 39.5795 50.1534 39.7021 50.1069C39.8247 50.0604 39.9552 50.0386 40.0862 50.0428C40.2171 50.0463 40.3461 50.0757 40.4656 50.1291C40.5852 50.1825 40.693 50.259 40.783 50.3541C40.873 50.4493 40.9433 50.5612 40.99 50.6836C41.0366 50.8059 41.0587 50.9362 41.055 51.0671C40.8044 60.0303 41.16 68.1528 41.8825 69.9603C43.01 72.7784 44.72 75.2434 49.5544 74.2078C54.1437 73.2234 55.8625 71.4834 56.6281 67.0453C57.2156 63.6396 58.3775 53.9509 58.5206 52.039C58.5302 51.9084 58.5654 51.7809 58.6244 51.6639C58.6833 51.5469 58.7648 51.4427 58.864 51.3572C58.9633 51.2717 59.0785 51.2067 59.203 51.1658C59.3274 51.1249 59.4587 51.109 59.5894 51.119C59.853 51.139 60.0979 51.2627 60.2704 51.4631C60.4429 51.6635 60.5288 51.9241 60.5094 52.1878C60.36 54.1784 59.2037 63.8484 58.5937 67.3846C57.69 72.6265 55.3531 75.004 49.9725 76.1578C49.0581 76.3534 48.2275 76.4409 47.4725 76.4415ZM19.575 56.5409C19.1253 56.5394 18.6787 56.4655 18.2525 56.3221C14.9106 55.2071 11.7275 49.7646 8.79124 40.144C6.55624 32.8209 5.13999 25.1771 5.01562 22.6928C4.64749 15.3278 6.54374 10.1171 10.6531 7.20651C18.7825 1.44651 32.4581 6.93151 33.0362 7.16776C33.2812 7.26779 33.4763 7.46102 33.5787 7.70494C33.6812 7.94885 33.6825 8.22347 33.5825 8.46838C33.4825 8.71329 33.2892 8.90843 33.0453 9.01088C32.8014 9.11332 32.5268 9.11467 32.2819 9.01463C32.15 8.96088 19.0362 3.70713 11.8019 8.83651C8.28812 11.3278 6.67499 15.9565 7.00687 22.5934C7.11124 24.6865 8.43437 32.1465 10.6981 39.5615C13.3194 48.1503 16.3025 53.5696 18.8831 54.4303C19.2881 54.5653 20.5206 54.9759 22.2825 52.8571C24.3371 50.3895 26.4688 47.9871 28.6744 45.6534C28.8589 45.4693 29.1082 45.3648 29.3688 45.3622C29.6295 45.3596 29.8808 45.4591 30.069 45.6395C30.2572 45.8198 30.3673 46.0667 30.3758 46.3272C30.3843 46.5877 30.2904 46.8412 30.1144 47.0334C30.0844 47.0646 27.085 50.2003 23.8162 54.1328C22.2681 55.9946 20.7844 56.5409 19.575 56.5409ZM62.9681 48.1378C62.7873 48.1375 62.61 48.0881 62.4551 47.9949C62.3002 47.9017 62.1735 47.7681 62.0887 47.6085C62.0038 47.4488 61.9639 47.2691 61.9733 47.0886C61.9827 46.908 62.0409 46.7334 62.1419 46.5834C71.4312 32.799 74.6919 16.1434 71.8994 12.5746C68.3844 8.08338 63.4212 5.73776 57.1469 5.60213C52.5012 5.50213 48.8087 6.68838 48.205 6.89526L48.0531 6.95713C47.4462 7.14776 46.9806 6.81526 46.805 6.42651C46.7049 6.20378 46.6897 5.95211 46.7623 5.71896C46.835 5.48581 46.9904 5.2873 47.1994 5.16088C47.2281 5.14401 47.3194 5.10526 47.4675 5.05088C48.4931 4.67526 52.2419 3.55026 56.885 3.60338C63.8275 3.67713 69.5625 6.35401 73.4687 11.3459C75.3169 13.7078 75.3212 19.149 73.4806 26.2753C71.6044 33.5409 68.0737 41.349 63.795 47.6984C63.6037 47.984 63.2887 48.1378 62.9681 48.1378ZM63.4431 54.519C61.8569 54.519 60.435 54.2953 59.5837 53.7853C58.7087 53.2609 58.5419 52.5484 58.52 52.1703C58.2812 47.9765 60.595 47.2465 61.775 46.9134C61.6106 46.6646 61.3769 46.3721 61.135 46.0703C60.4469 45.2103 59.5044 44.0328 58.7781 42.2715C58.6644 41.9965 58.3081 41.3571 57.8956 40.6165C55.6587 36.6053 51.0044 28.2584 53.9944 23.984C55.3781 22.0059 58.1337 21.2271 62.1937 21.6615C60.9994 18.0228 55.3119 6.64026 41.8162 6.41901C37.7575 6.35151 34.4287 7.59963 31.9275 10.1253C26.3275 15.7809 26.53 26.014 26.5331 26.1165C26.5366 26.2474 26.5142 26.3777 26.4673 26.5C26.4204 26.6223 26.3498 26.7341 26.2597 26.8291C26.1696 26.9241 26.0616 27.0004 25.942 27.0537C25.8224 27.107 25.6934 27.1362 25.5625 27.1396C25.4316 27.1431 25.3013 27.1207 25.179 27.0738C25.0567 27.0269 24.9449 26.9563 24.8499 26.8662C24.7549 26.7761 24.6786 26.6681 24.6253 26.5485C24.572 26.4289 24.5428 26.2999 24.5394 26.169C24.5269 25.7146 24.3181 14.9759 30.5106 8.72151C33.4087 5.79463 37.2237 4.34963 41.8494 4.42526C50.4831 4.56713 56.0406 8.95651 59.1819 12.6134C62.6062 16.599 64.285 20.9953 64.4231 22.4628C64.5262 23.554 63.7431 23.7721 63.585 23.8046L63.225 23.8128C59.2406 23.1746 56.6844 23.6178 55.6275 25.1278C53.3531 28.3784 57.7562 36.274 59.6362 39.6459C60.1162 40.5059 60.4625 41.1278 60.6212 41.5115C61.2387 43.009 62.0444 44.0153 62.6912 44.824C63.2606 45.5353 63.7537 46.1521 63.93 46.8759C64.0119 47.0196 65.1737 48.7384 72.0681 47.3153C73.7962 46.959 74.8325 47.2634 75.1494 48.2215C75.7725 50.1059 72.2762 52.304 70.3406 53.2028C68.6062 54.009 65.8381 54.519 63.4431 54.519ZM60.5081 52.0059C60.7269 52.2265 61.8212 52.6071 64.0875 52.5096C66.1025 52.4234 68.2275 51.9853 69.5025 51.3934C71.1331 50.6359 72.2219 49.789 72.7856 49.2109L72.4731 49.2684C68.065 50.1784 64.9469 50.0571 63.2056 48.9078C63.0886 48.8304 62.976 48.7468 62.8681 48.6571C62.6794 48.7315 62.505 48.7803 62.3806 48.8153C61.3931 49.0921 60.3719 49.379 60.5081 52.0059ZM32.0319 57.5778C30.9369 57.5778 29.7844 57.4284 28.6075 57.134C27.3881 56.829 25.3325 55.9109 25.3637 54.4028C25.3994 52.7109 27.86 52.2034 28.7862 52.0128C32.1325 51.3234 32.3506 51.0471 33.3962 49.719C33.7012 49.3321 34.0806 48.8503 34.5981 48.2728C35.3662 47.4128 36.2056 46.9771 37.0931 46.9771C37.7112 46.9771 38.2181 47.1865 38.5531 47.3259C39.6206 47.7684 40.5112 48.8384 40.8775 50.1178C41.2081 51.2721 41.05 52.3834 40.4337 53.2465C38.4106 56.0796 35.505 57.5778 32.0319 57.5778ZM27.5181 54.4884C27.8187 54.7209 28.4212 55.0315 29.0919 55.199C30.1112 55.454 31.1 55.5834 32.0325 55.5834C34.8737 55.5834 37.155 54.4071 38.8119 52.0871C39.1575 51.6034 39.0537 50.989 38.9612 50.6659C38.7675 49.989 38.2862 49.3734 37.7906 49.1678C37.5219 49.0565 37.2987 48.9715 37.0937 48.9715C36.9837 48.9715 36.6487 48.9715 36.085 49.6021C35.696 50.0397 35.322 50.4903 34.9637 50.9534C33.6612 52.6071 33.0644 53.1684 29.1894 53.9665C28.2437 54.1603 27.7587 54.3578 27.5181 54.4884ZM35.1862 49.8884C34.9482 49.888 34.7181 49.8025 34.5376 49.6473C34.357 49.4921 34.238 49.2775 34.2019 49.0421C34.1771 48.8766 34.1604 48.7099 34.1519 48.5428C31.6119 48.4953 29.1612 47.4053 27.3006 45.464C24.9481 43.0096 23.8775 39.609 24.3637 36.1346C24.8919 32.3615 24.6944 29.0309 24.5881 27.2415C24.5587 26.744 24.5375 26.3846 24.5387 26.1359C24.5406 25.8203 24.5469 24.9834 27.3444 23.5653C28.3394 23.0609 30.3344 22.1809 32.5137 21.9553C36.1244 21.5821 38.5044 23.1903 39.2169 26.484C41.14 35.3765 39.3694 39.3096 38.0762 42.1821C37.8356 42.7171 37.6081 43.2221 37.4262 43.7115L37.2656 44.1428C36.5825 45.9746 35.9919 47.5571 36.1731 48.739C36.193 48.8685 36.1872 49.0005 36.1561 49.1277C36.1249 49.2549 36.069 49.3747 35.9915 49.4803C35.914 49.5859 35.8165 49.6752 35.7045 49.7431C35.5925 49.8109 35.4682 49.8561 35.3387 49.8759L35.1862 49.8884ZM26.5394 26.4121L26.5781 27.124C26.6881 28.9828 26.8931 32.4415 26.3381 36.4115C25.9375 39.2771 26.8125 42.074 28.74 44.084C30.2631 45.6728 32.2675 46.5496 34.3275 46.5496H34.37C34.6006 45.5778 34.9837 44.5515 35.3962 43.4459L35.5556 43.0171C35.7612 42.4646 36.0019 41.9296 36.2569 41.3634C37.5012 38.5984 39.0506 35.1565 37.2662 26.9059C36.9131 25.2715 36.0562 24.3259 34.6481 24.014C31.7556 23.3753 27.445 25.5509 26.5394 26.4121ZM32.5581 25.989C32.5081 26.3415 33.2037 27.2828 34.1112 27.4084C35.0169 27.5353 35.7919 26.799 35.8412 26.4465C35.8906 26.094 35.1956 25.7053 34.2881 25.579C33.3812 25.4528 32.6062 25.6365 32.5581 25.989ZM34.3194 27.7553L34.065 27.7378C33.5025 27.6596 32.9337 27.3053 32.5444 26.789C32.4075 26.6078 32.1844 26.2565 32.2287 25.9428C32.2919 25.4828 32.8531 25.2071 33.7287 25.2071C33.9244 25.2071 34.1281 25.2215 34.3331 25.2503C34.8119 25.3165 35.2562 25.4546 35.5844 25.6378C36.1531 25.9553 36.195 26.3096 36.1694 26.4928C36.0994 27.0009 35.2912 27.7553 34.3194 27.7553ZM32.8887 26.0478C32.9169 26.2653 33.4556 26.9828 34.1569 27.0796L34.32 27.0909C34.9675 27.0909 35.4512 26.5815 35.5081 26.4146C35.4481 26.3009 35.0319 26.0184 34.2425 25.9084C34.0725 25.884 33.9011 25.8717 33.7294 25.8715C33.2219 25.8715 32.9525 25.9859 32.8887 26.0478ZM60.1419 25.2696C60.1912 25.6221 59.4962 26.5634 58.5894 26.6896C57.6831 26.8159 56.9075 26.0803 56.8575 25.7278C56.81 25.3753 57.505 24.9859 58.4112 24.8603C59.3175 24.7334 60.0919 24.9178 60.1419 25.2696ZM58.38 26.8696C57.5075 26.8696 56.7544 26.1909 56.6925 25.7503C56.6206 25.2215 57.4912 24.8196 58.3875 24.6953C58.585 24.6678 58.7806 24.654 58.9687 24.654C59.7425 24.654 60.255 24.8809 60.3062 25.2471C60.3394 25.484 60.1575 25.8496 59.8444 26.1796C59.6375 26.3965 59.2031 26.7721 58.6112 26.854L58.38 26.8696ZM58.9694 24.9865C58.7969 24.9865 58.6169 24.9996 58.4344 25.0246C57.5337 25.1503 56.9962 25.5115 57.0225 25.7053C57.0525 25.9184 57.6275 26.5378 58.3806 26.5378L58.5662 26.5246C59.0581 26.4565 59.4275 26.1353 59.6037 25.9503C59.8806 25.6596 59.9906 25.3859 59.9775 25.2928C59.96 25.169 59.6275 24.9865 58.9694 24.9865ZM61.4475 45.5134C61.2668 45.5135 61.0895 45.4645 60.9346 45.3715C60.7796 45.2786 60.6528 45.1453 60.5678 44.9859C60.4828 44.8265 60.4428 44.6469 60.452 44.4665C60.4611 44.286 60.5192 44.1115 60.62 43.9615C62.7437 40.7896 62.355 37.5553 61.9794 34.4271C61.8187 33.0946 61.6537 31.7165 61.6962 30.394C61.74 29.0334 61.9131 27.9109 62.08 26.8253C62.2781 25.539 62.4656 24.324 62.3881 22.8815C62.3811 22.7508 62.3998 22.6199 62.4433 22.4964C62.4868 22.3729 62.5543 22.2592 62.6417 22.1618C62.7292 22.0643 62.835 21.985 62.9531 21.9285C63.0712 21.8719 63.1992 21.8392 63.33 21.8321C63.4607 21.8251 63.5916 21.8438 63.7151 21.8874C63.8386 21.9309 63.9523 21.9983 64.0498 22.0857C64.1472 22.1732 64.2265 22.279 64.283 22.3971C64.3396 22.5152 64.3723 22.6433 64.3794 22.774C64.4681 24.4228 64.2562 25.7978 64.0512 27.1284C63.8931 28.1553 63.7294 29.2171 63.69 30.4578C63.6519 31.629 63.8012 32.8728 63.9594 34.189C64.3594 37.5153 64.8125 41.2853 62.2775 45.0709C62.1862 45.2072 62.0627 45.3189 61.9179 45.3961C61.7731 45.4733 61.6116 45.5136 61.4475 45.5134Z" fill="white"/>
</svg>
