<svg width="91" height="80" viewBox="0 0 91 80" fill="none" xmlns="http://www.w3.org/2000/svg">
<g clip-path="url(#clip0_1132_1837)">
<mask id="mask0_1132_1837" style="mask-type:luminance" maskUnits="userSpaceOnUse" x="0" y="0" width="90" height="80">
<path d="M89.8328 0H0V80H89.8328V0Z" fill="white"/>
</mask>
<g mask="url(#mask0_1132_1837)">
<path fill-rule="evenodd" clip-rule="evenodd" d="M89.8328 40.0109C89.8328 34.0601 82.3832 28.4236 70.9568 24.9219C73.596 13.276 72.4189 4.01352 67.2576 1.04542C66.066 0.350909 64.677 0.0219319 63.1563 0.0219319V4.10856C63.9971 4.10856 64.677 4.27671 65.2472 4.58376C67.7401 6.00932 68.8148 11.4484 67.974 18.4447C67.7693 20.1626 67.4404 21.9757 67.0383 23.8253C63.4488 22.948 59.5303 22.2681 55.4144 21.8295C52.9434 18.4447 50.3774 15.3669 47.7968 12.6766C53.7623 7.12054 59.3622 4.08664 63.171 4.08664V0C58.1339 0 51.5471 3.58951 44.8798 9.81816C38.2125 3.62606 31.6257 0.0731061 26.5887 0.0731061V4.15974C30.3756 4.15974 35.9975 7.17902 41.9702 12.6912C39.4041 15.3816 36.8455 18.4374 34.411 21.8295C30.2732 22.2681 26.3547 22.948 22.7653 23.8399C22.3412 22.0122 22.0342 20.2358 21.8149 18.5324C20.9522 11.5362 22.0196 6.09704 24.4905 4.64954C25.0389 4.32057 25.7553 4.17436 26.596 4.17436V0.0950381C25.0608 0.0950381 23.6645 0.424015 22.4582 1.11852C17.3115 4.08663 16.1564 13.3346 18.8175 24.9438C7.41296 28.4529 0 34.0747 0 40.0109C0 45.9618 7.44952 51.5983 18.876 55.1C16.2369 66.7459 17.4138 76.0084 22.5752 78.9765C23.7668 79.6711 25.1558 80 26.6984 80C31.7353 80 38.3223 76.4104 44.9895 70.1818C51.6568 76.3739 58.2437 79.9269 63.2807 79.9269C64.8159 79.9269 66.2122 79.5979 67.4184 78.9034C72.5651 75.9353 73.7202 66.6873 71.0591 55.0781C82.4199 51.5836 89.8328 45.9399 89.8328 40.0109ZM53.2651 40.0109C53.2651 35.3907 49.5221 31.6403 44.8945 31.6403C40.2742 31.6403 36.5238 35.3833 36.5238 40.0109C36.5238 44.6386 40.2668 48.3816 44.8945 48.3816C49.5221 48.3743 53.2651 44.6312 53.2651 40.0109ZM65.9929 27.7949C65.3129 30.1562 64.4723 32.5907 63.5219 35.0251C62.7689 33.563 61.9866 32.0936 61.124 30.6314C60.2833 29.1693 59.3841 27.7365 58.4849 26.3475C61.0874 26.7349 63.595 27.2101 65.9929 27.7949ZM57.6076 47.2997C56.182 49.7706 54.7126 52.1174 53.192 54.2959C50.4651 54.5371 47.7017 54.6615 44.9164 54.6615C42.1529 54.6615 39.3896 54.5298 36.6774 54.3105C35.1567 52.132 33.6727 49.8072 32.2471 47.3508C30.8581 44.9529 29.5933 42.5185 28.4383 40.0621C29.5714 37.6057 30.8581 35.1567 32.2251 32.7589C33.6507 30.2878 35.1202 27.9412 36.6408 25.7626C39.3676 25.5213 42.131 25.3971 44.9164 25.3971C47.6798 25.3971 50.4432 25.5287 53.1555 25.748C54.676 27.9265 56.1601 30.2513 57.5857 32.7077C58.9747 35.1055 60.2394 37.54 61.3945 39.9963C60.2394 42.4454 58.982 44.8945 57.6076 47.2997ZM63.5219 44.9164C64.5088 47.3727 65.3496 49.8218 66.0514 52.2051C63.6535 52.7899 61.1241 53.2871 58.5068 53.6672C59.406 52.2563 60.2979 50.8088 61.146 49.3247C61.9794 47.8626 62.7689 46.3785 63.5219 44.9164ZM44.9529 64.4504C43.2496 62.6958 41.5462 60.7366 39.8648 58.5945C41.5096 58.6677 43.1984 58.7261 44.9017 58.7261C46.6198 58.7261 48.3231 58.6896 49.9899 58.5945C48.3378 60.7366 46.6344 62.6958 44.9529 64.4504ZM31.3333 53.6672C28.7307 53.2797 26.2232 52.8045 23.8253 52.2197C24.5051 49.8584 25.3459 47.4239 26.2963 44.9895C27.0492 46.4516 27.8315 47.921 28.6941 49.3832C29.5568 50.8526 30.4341 52.2782 31.3333 53.6672ZM44.8579 15.5643C46.5613 17.3189 48.2647 19.2781 49.9461 21.42C48.3012 21.347 46.6124 21.2885 44.9091 21.2885C43.1911 21.2885 41.4877 21.3251 39.8209 21.42C41.4731 19.2781 43.1765 17.3189 44.8579 15.5643ZM31.3113 26.3475C30.4121 27.7584 29.5203 29.2059 28.6722 30.69C27.8315 32.1521 27.042 33.6215 26.2889 35.0836C25.302 32.6273 24.4613 30.1782 23.7594 27.7949C26.1647 27.2248 28.6941 26.7349 31.3113 26.3475ZM14.7382 49.2735C8.25368 46.5101 4.0647 42.884 4.0647 40.0109C4.0647 37.1379 8.26099 33.4899 14.7382 30.7484C16.3099 30.0685 18.0353 29.4691 19.8118 28.8988C20.8571 32.4884 22.2315 36.2241 23.935 40.0475C22.2535 43.8564 20.8937 47.5702 19.8702 51.145C18.0572 50.5748 16.3319 49.9534 14.7382 49.2735ZM24.5928 75.4382C22.1 74.0126 21.0253 68.5735 21.8661 61.5772C22.0708 59.8593 22.3997 58.0462 22.8018 56.1966C26.3913 57.0739 30.3098 57.7538 34.4257 58.1925C36.8967 61.5772 39.4627 64.6551 42.0433 67.3453C36.0706 72.8941 30.4706 75.9353 26.6618 75.9353C25.8357 75.9134 25.1412 75.7526 24.5928 75.4382ZM68.0252 61.4895C68.8879 68.4857 67.8205 73.9249 65.3496 75.3724C64.8012 75.7014 64.0848 75.8475 63.244 75.8475C59.4572 75.8475 53.8353 72.8283 47.8626 67.316C50.4286 64.6258 52.9873 61.57 55.4217 58.1778C59.5595 57.7392 63.478 57.0593 67.0676 56.1601C67.4916 58.0097 67.8205 59.7862 68.0252 61.4895ZM75.0727 49.2735C73.5009 49.9534 71.7755 50.5528 69.9991 51.1231C68.9537 47.5336 67.5793 43.7978 65.8759 39.9744C67.5574 36.1656 68.9171 32.4518 69.9406 28.8769C71.7536 29.4472 73.4716 30.0685 75.0872 30.7411C81.5718 33.5046 85.7607 37.1305 85.7607 40.0037C85.7462 42.884 81.5572 46.5247 75.0727 49.2735Z" fill="#00BCD4"/>
</g>
</g>
<defs>
<clipPath id="clip0_1132_1837">
<rect width="90.3529" height="80" fill="white"/>
</clipPath>
</defs>
</svg>
