<svg width="60" height="60" viewBox="0 0 60 60" fill="none" xmlns="http://www.w3.org/2000/svg">
<path d="M28.1881 32.5834C28.2706 32.4819 28.329 32.3634 28.359 32.2367C28.3889 32.11 28.3897 31.9782 28.3611 31.8512C27.6458 28.6667 25.8518 25.8185 23.2754 23.7769C20.699 21.7354 17.4944 20.6227 14.191 20.6227C10.8876 20.6227 7.68296 21.7354 5.10658 23.7769C2.53019 25.8185 0.736151 28.6667 0.0208358 31.8512C-0.00767628 31.9782 -0.00691701 32.11 0.023058 32.2367C0.053033 32.3635 0.111458 32.4819 0.194018 32.5834C0.276578 32.6848 0.381163 32.7667 0.50005 32.8229C0.618936 32.879 0.749087 32.9081 0.880891 32.908H27.5011C27.6329 32.9082 27.7631 32.8791 27.882 32.8229C28.0009 32.7667 28.1055 32.6848 28.1881 32.5834ZM2.02734 31.1694C2.84334 28.6154 4.46258 26.3848 6.64992 24.8015C8.83727 23.2181 11.4788 22.3644 14.191 22.3644C16.9031 22.3644 19.5447 23.2181 21.732 24.8015C23.9194 26.3848 25.5386 28.6154 26.3546 31.1694H2.02734ZM14.1918 18.6958C15.4634 18.6958 16.7064 18.3234 17.7636 17.6259C18.8208 16.9283 19.6448 15.9369 20.1314 14.7769C20.6179 13.6169 20.7452 12.3405 20.497 11.1092C20.2489 9.87777 19.6365 8.74668 18.7374 7.85895C17.8382 6.97122 16.6926 6.36671 15.4455 6.12187C14.1984 5.87703 12.9057 6.00287 11.7311 6.48345C10.5564 6.96404 9.55239 7.7778 8.84609 8.82181C8.13979 9.86583 7.76289 11.0932 7.76306 12.3487C7.76489 14.0318 8.44277 15.6455 9.64798 16.8357C10.8532 18.0259 12.4873 18.6954 14.1918 18.6975V18.6958ZM14.1918 7.73862C15.1149 7.73947 16.0171 8.01053 16.7842 8.51756C17.5513 9.02458 18.1489 9.74479 18.5015 10.5871C18.8541 11.4295 18.9459 12.3562 18.7652 13.25C18.5846 14.1439 18.1396 14.9648 17.4865 15.6089C16.8334 16.2531 16.0015 16.6916 15.0961 16.869C14.1906 17.0464 13.2523 16.9548 12.3996 16.6056C11.5469 16.2565 10.8181 15.6656 10.3055 14.9076C9.79286 14.1496 9.51934 13.2585 9.51951 12.347C9.52135 11.1246 10.0144 9.95291 10.8905 9.08918C11.7665 8.22546 12.9539 7.74033 14.1918 7.74033V7.73862ZM29.1805 19.0238C29.3009 19.1518 29.4575 19.2409 29.6299 19.2796C29.8024 19.3183 29.9826 19.3049 30.1472 19.241C30.3118 19.1771 30.453 19.0657 30.5525 18.9213C30.652 18.777 30.7052 18.6064 30.7051 18.4318V16.3659H39.2797C41.5528 16.3689 43.732 17.2619 45.3392 18.8491C46.9465 20.4363 47.8507 22.5881 47.8534 24.8326C47.8606 25.0585 47.9565 25.2727 48.1208 25.4299C48.2851 25.5872 48.505 25.6751 48.7338 25.6751C48.9626 25.6751 49.1825 25.5872 49.3468 25.4299C49.5111 25.2727 49.607 25.0585 49.6142 24.8326V20.7385C49.6112 18.033 48.5214 15.4392 46.584 13.5261C44.6465 11.6131 42.0196 10.537 39.2797 10.5341H30.7051V8.46824C30.7052 8.29363 30.652 8.12303 30.5525 7.97869C30.453 7.83434 30.3118 7.72296 30.1472 7.65905C29.9826 7.59513 29.8024 7.58167 29.6299 7.6204C29.4575 7.65913 29.3009 7.74826 29.1805 7.87617L24.4788 12.8579C24.3269 13.0188 24.2424 13.2305 24.2424 13.4504C24.2424 13.6703 24.3269 13.8821 24.4788 14.0429L29.1805 19.0238ZM28.9443 10.6793V11.4047C28.9445 11.5189 28.9675 11.6319 29.012 11.7374C29.0565 11.8428 29.1216 11.9386 29.2035 12.0192C29.2855 12.0998 29.3827 12.1636 29.4896 12.2071C29.5966 12.2506 29.7112 12.2729 29.8269 12.2727H39.2797C41.2172 12.2751 43.0969 12.9244 44.6135 14.1149C46.1301 15.3055 47.1944 16.9674 47.6336 18.8308C46.6758 17.529 45.4195 16.4696 43.9676 15.739C42.5157 15.0084 40.9093 14.6275 39.2797 14.6273H29.8269C29.7112 14.6272 29.5967 14.6496 29.4898 14.6932C29.383 14.7368 29.2859 14.8008 29.2041 14.8815C29.1223 14.9622 29.0574 15.058 29.0131 15.1635C28.9688 15.269 28.946 15.382 28.946 15.4962V16.2224L26.3287 13.45L28.9443 10.6793ZM45.8097 42.7177C42.5114 42.7329 39.3155 43.8507 36.7431 45.8891C34.1706 47.9274 32.3732 50.7661 31.6439 53.9423C31.6152 54.0694 31.6159 54.2011 31.6457 54.3279C31.6756 54.4547 31.7339 54.5732 31.8164 54.6748C31.8989 54.7763 32.0034 54.8582 32.1222 54.9145C32.2411 54.9708 32.3712 55 32.5031 55H59.1189C59.2508 55.0002 59.3811 54.971 59.5 54.9148C59.619 54.8586 59.7236 54.7767 59.8062 54.6751C59.8888 54.5735 59.9472 54.455 59.9771 54.3281C60.007 54.2013 60.0076 54.0694 59.979 53.9423C59.2495 50.7655 57.4516 47.9264 54.8784 45.888C52.3053 43.8496 49.1086 42.7321 45.8097 42.7177ZM33.6461 53.2614C34.4613 50.7069 36.0802 48.4756 38.2676 46.8917C40.4549 45.3078 43.0968 44.4538 45.8093 44.4538C48.5217 44.4538 51.1636 45.3078 53.3509 46.8917C55.5383 48.4756 57.1572 50.7069 57.9725 53.2614H33.6461ZM39.3809 34.4407C39.3811 35.6962 39.7583 36.9234 40.4648 37.9672C41.1713 39.011 42.1754 39.8245 43.3501 40.3048C44.5248 40.7851 45.8174 40.9107 47.0644 40.6657C48.3114 40.4206 49.4568 39.816 50.3558 38.9282C51.2548 38.0404 51.867 36.9093 52.115 35.678C52.363 34.4466 52.2356 33.1703 51.749 32.0104C51.2624 30.8506 50.4384 29.8592 49.3812 29.1617C48.3241 28.4643 47.0812 28.092 45.8097 28.092C44.1051 28.0938 42.4708 28.7633 41.2656 29.9535C40.0603 31.1438 39.3825 32.7576 39.3809 34.4407ZM50.4777 34.4407C50.4777 35.3534 50.2036 36.2455 49.69 37.0043C49.1764 37.7631 48.4464 38.3544 47.5924 38.7035C46.7384 39.0525 45.7987 39.1437 44.8922 38.9653C43.9858 38.7869 43.1533 38.3471 42.5 37.7015C41.8467 37.0558 41.4021 36.2334 41.2223 35.3382C41.0425 34.4429 41.1356 33.5152 41.4899 32.6722C41.8442 31.8293 42.4438 31.1091 43.2127 30.6026C43.9816 30.0962 44.8854 29.8263 45.8097 29.8272C47.0481 29.8283 48.2354 30.3149 49.1107 31.18C49.986 32.0451 50.4777 33.2179 50.4777 34.4407ZM25.8009 42.4059C25.6804 42.2779 25.5237 42.1888 25.3512 42.1501C25.1787 42.1114 24.9984 42.1249 24.8338 42.1889C24.6692 42.2529 24.5279 42.3645 24.4285 42.5089C24.329 42.6534 24.276 42.8241 24.2763 42.9988V45.0647H15.7034C13.4301 45.0624 11.2505 44.1698 9.64281 42.5827C8.03514 40.9956 7.13072 38.8436 7.12797 36.5988C7.13167 36.4824 7.11163 36.3664 7.06905 36.2577C7.02647 36.1491 6.96222 36.05 6.8801 35.9663C6.79799 35.8826 6.69968 35.8161 6.59102 35.7707C6.48237 35.7253 6.36558 35.7018 6.24758 35.7018C6.12959 35.7018 6.0128 35.7253 5.90414 35.7707C5.79549 35.8161 5.69718 35.8826 5.61506 35.9663C5.53295 36.05 5.46869 36.1491 5.42611 36.2577C5.38353 36.3664 5.3635 36.4824 5.3672 36.5988V40.6921C5.37063 43.3977 6.46078 45.9915 8.39851 47.9046C10.3362 49.8176 12.9633 50.8936 15.7034 50.8965H24.2763V52.9623C24.276 53.137 24.329 53.3078 24.4285 53.4522C24.5279 53.5967 24.6692 53.7082 24.8338 53.7722C24.9984 53.8363 25.1787 53.8498 25.3512 53.8111C25.5237 53.7724 25.6804 53.6832 25.8009 53.5553L30.5026 48.5718C30.6545 48.411 30.7389 48.1992 30.7389 47.9793C30.7389 47.7594 30.6545 47.5477 30.5026 47.3868L25.8009 42.4059ZM26.0371 50.7538V50.0268C26.0371 49.9125 26.0142 49.7993 25.9698 49.6937C25.9255 49.5881 25.8604 49.4922 25.7784 49.4115C25.6964 49.3308 25.5991 49.2668 25.4921 49.2233C25.385 49.1798 25.2703 49.1576 25.1545 49.1579H15.7034C13.7657 49.1555 11.8857 48.5064 10.3689 47.3158C8.85196 46.1253 7.78728 44.4633 7.34774 42.5998C8.30574 43.9019 9.56224 44.9615 11.0145 45.6921C12.4668 46.4227 14.0736 46.8034 15.7034 46.8033H25.1545C25.3881 46.8033 25.6122 46.7117 25.7774 46.5485C25.9425 46.3854 26.0353 46.1642 26.0353 45.9335V45.2073L28.6527 47.9797L26.0371 50.7538Z" fill="#008080"/>
</svg>
