<svg width="60" height="60" viewBox="0 0 60 60" fill="none" xmlns="http://www.w3.org/2000/svg">
<path d="M12.1898 1.87451C11.4451 1.87731 10.7316 2.17413 10.2047 2.70039C9.67779 3.22664 9.38006 3.93972 9.37633 4.68441V34.6862C9.37633 35.937 11.2543 35.937 11.2543 34.6862V11.2538H48.7468V34.6862C48.7184 35.9618 50.6531 35.9618 50.6248 34.6862V4.68441C50.6211 3.94033 50.3238 3.22778 49.7977 2.70163C49.2715 2.17547 48.559 1.87824 47.8149 1.87451H12.1898ZM12.1898 3.7525H47.8149C48.3464 3.7525 48.7468 4.14936 48.7468 4.68441V9.37584H11.2543V4.68441C11.2543 4.14936 11.6512 3.74896 12.1862 3.74896L12.1898 3.7525ZM14.0642 5.6234C13.9409 5.6234 13.8188 5.64769 13.7049 5.69488C13.591 5.74207 13.4874 5.81124 13.4002 5.89843C13.3131 5.98562 13.2439 6.08914 13.1967 6.20306C13.1495 6.31699 13.1252 6.43909 13.1252 6.5624C13.1252 6.68571 13.1495 6.80781 13.1967 6.92174C13.2439 7.03566 13.3131 7.13918 13.4002 7.22637C13.4874 7.31356 13.591 7.38273 13.7049 7.42992C13.8188 7.47711 13.9409 7.50139 14.0642 7.50139C14.3133 7.50139 14.5521 7.40246 14.7282 7.22637C14.9043 7.05027 15.0032 6.81144 15.0032 6.5624C15.0032 6.31336 14.9043 6.07453 14.7282 5.89843C14.5521 5.72233 14.3133 5.6234 14.0642 5.6234ZM17.8131 5.6234C17.6898 5.6234 17.5677 5.64769 17.4538 5.69488C17.3398 5.74207 17.2363 5.81124 17.1491 5.89843C17.0619 5.98562 16.9928 6.08914 16.9456 6.20306C16.8984 6.31699 16.8741 6.43909 16.8741 6.5624C16.8741 6.68571 16.8984 6.80781 16.9456 6.92174C16.9928 7.03566 17.0619 7.13918 17.1491 7.22637C17.2363 7.31356 17.3398 7.38273 17.4538 7.42992C17.5677 7.47711 17.6898 7.50139 17.8131 7.50139C18.0621 7.50139 18.301 7.40246 18.4771 7.22637C18.6532 7.05027 18.7521 6.81144 18.7521 6.5624C18.7521 6.31336 18.6532 6.07453 18.4771 5.89843C18.301 5.72233 18.0621 5.6234 17.8131 5.6234ZM21.562 5.6234C21.4387 5.6234 21.3166 5.64769 21.2027 5.69488C21.0887 5.74207 20.9852 5.81124 20.898 5.89843C20.8108 5.98562 20.7417 6.08914 20.6945 6.20306C20.6473 6.31699 20.623 6.43909 20.623 6.5624C20.623 6.68571 20.6473 6.80781 20.6945 6.92174C20.7417 7.03566 20.8108 7.13918 20.898 7.22637C20.9852 7.31356 21.0887 7.38273 21.2027 7.42992C21.3166 7.47711 21.4387 7.50139 21.562 7.50139C21.811 7.50139 22.0499 7.40246 22.226 7.22637C22.4021 7.05027 22.501 6.81144 22.501 6.5624C22.501 6.31336 22.4021 6.07453 22.226 5.89843C22.0499 5.72233 21.811 5.6234 21.562 5.6234ZM34.6406 5.6234C33.3756 5.71199 33.4607 7.53328 34.6867 7.50139H45.9404C47.1629 7.47305 47.1629 5.65175 45.9404 5.6234H34.6406ZM4.69198 7.50139C3.94696 7.50418 3.23313 7.80089 2.70565 8.32705C2.17817 8.8532 1.87966 9.56627 1.875 10.3113V44.062C1.875 45.6033 3.15062 46.8719 4.69198 46.8719H55.3127C56.0568 46.8681 56.7693 46.5709 57.2955 46.0447C57.8216 45.5186 58.1188 44.806 58.1226 44.062V10.3113C58.1188 9.56721 57.8216 8.85466 57.2955 8.32851C56.7693 7.80236 56.0568 7.50512 55.3127 7.50139H53.4347C52.1591 7.47305 52.1591 9.40419 53.4347 9.37584H55.3127C55.8477 9.37584 56.2446 9.7727 56.2446 10.3113V37.4996H3.74945V10.3113C3.74945 9.7727 4.15693 9.37584 4.69198 9.37584H6.55934C7.83496 9.40419 7.83496 7.47305 6.55934 7.49785L4.69198 7.50139ZM32.8264 14.985C32.6255 14.9832 32.4293 15.0459 32.2666 15.1639C32.104 15.2819 31.9835 15.449 31.9228 15.6405L26.296 32.5141C25.8991 33.7011 27.6779 34.2964 28.0783 33.1094L33.7052 16.2323C33.7541 16.0914 33.7688 15.941 33.7481 15.7933C33.7273 15.6456 33.6717 15.505 33.5858 15.3831C33.5 15.2613 33.3863 15.1616 33.2542 15.0923C33.1222 15.0231 32.9755 14.9863 32.8264 14.985ZM36.9013 20.4064L41.66 24.375L36.9013 28.3471C35.8843 29.1408 37.1387 30.6432 38.106 29.7857L43.7223 25.0978C43.8273 25.0097 43.9118 24.8996 43.9697 24.7753C44.0277 24.6511 44.0577 24.5156 44.0577 24.3785C44.0577 24.2414 44.0277 24.1059 43.9697 23.9817C43.9118 23.8574 43.8273 23.7473 43.7223 23.6592L38.1025 18.9678C37.9212 18.8161 37.6903 18.7366 37.454 18.7445C36.5682 18.8225 36.2493 19.8784 36.9013 20.4099V20.4064ZM22.4797 18.741C22.2675 18.748 22.0639 18.8266 21.9022 18.9642L16.2788 23.6557C16.1738 23.7438 16.0893 23.8539 16.0314 23.9781C15.9734 24.1024 15.9434 24.2378 15.9434 24.375C15.9434 24.5121 15.9734 24.6475 16.0314 24.7718C16.0893 24.8961 16.1738 25.0061 16.2788 25.0943L21.8986 29.7821C22.866 30.6822 24.1593 29.1302 23.0963 28.3435L18.334 24.375L23.1034 20.4099C23.2552 20.2857 23.3644 20.117 23.4155 19.9276C23.4666 19.7382 23.4571 19.5375 23.3883 19.3538C23.3195 19.17 23.1948 19.0125 23.0319 18.9032C22.8689 18.7939 22.6758 18.7349 22.4797 18.741ZM3.74945 39.3776H56.2481V44.062C56.2515 44.1854 56.2298 44.3083 56.1842 44.4231C56.1386 44.5379 56.0701 44.6422 55.983 44.7297C55.8958 44.8172 55.7917 44.8861 55.6771 44.9321C55.5625 44.9781 55.4397 45.0003 55.3162 44.9974H4.69198C4.56776 45.0013 4.44404 44.9798 4.3284 44.9343C4.21275 44.8887 4.10761 44.8201 4.01939 44.7325C3.93118 44.645 3.86174 44.5404 3.81533 44.4251C3.76891 44.3098 3.7465 44.1862 3.74945 44.062V39.3776ZM31.9264 41.2521H28.0818C26.8842 41.3938 26.9657 43.0875 28.1243 43.1194H31.8768C33.163 43.2363 33.2693 41.2769 31.9264 41.2521ZM24.744 48.6754C24.56 48.6717 24.3789 48.722 24.2233 48.8203C24.0677 48.9186 23.9444 49.0604 23.8687 49.2282C23.4152 50.1955 22.6073 51.3259 21.2112 52.4987H19.6876C18.9432 52.5043 18.231 52.8032 17.7056 53.3306C17.1802 53.858 16.884 54.5713 16.8812 55.3157V57.1831C16.8777 57.7004 17.2958 58.1221 17.8131 58.1256H42.188C42.3116 58.1256 42.434 58.1012 42.5482 58.0538C42.6623 58.0064 42.766 57.9369 42.8532 57.8493C42.9405 57.7618 43.0096 57.6578 43.0565 57.5435C43.1035 57.4292 43.1275 57.3067 43.127 57.1831V55.3157C43.1224 54.5707 42.8246 53.8574 42.298 53.3302C41.7715 52.803 41.0586 52.5043 40.3136 52.4987H38.7899C37.3974 51.3294 36.5859 50.1955 36.1324 49.2282C36.0859 49.1082 36.0152 48.9991 35.9248 48.9076C35.8344 48.8161 35.7261 48.7441 35.6067 48.6962C35.4873 48.6483 35.3593 48.6254 35.2307 48.6289C35.1021 48.6325 34.9756 48.6625 34.8591 48.717C34.7425 48.7715 34.6384 48.8494 34.5532 48.9458C34.468 49.0422 34.4036 49.1551 34.3638 49.2774C34.3241 49.3998 34.3099 49.529 34.3221 49.6571C34.3344 49.7851 34.3728 49.9093 34.4351 50.0219C34.8001 50.8015 35.3564 51.6448 36.1111 52.4987H23.89C24.6412 51.6483 25.2011 50.805 25.566 50.0184C25.6342 49.877 25.6658 49.7209 25.658 49.5642C25.6503 49.4075 25.6034 49.2552 25.5216 49.1213C25.4399 48.9874 25.3259 48.8761 25.19 48.7976C25.0542 48.7191 24.9008 48.6759 24.744 48.6719V48.6754ZM19.6876 54.3732H40.31C40.4346 54.3703 40.5584 54.3927 40.6741 54.439C40.7898 54.4853 40.8949 54.5547 40.983 54.6428C41.0711 54.7309 41.1404 54.8359 41.1867 54.9516C41.2331 55.0673 41.2555 55.1912 41.2525 55.3157V56.2512H18.7521V55.3157C18.7521 54.7807 19.1525 54.3732 19.6876 54.3732Z" fill="#008080"/>
</svg>
