<svg width="60" height="60" viewBox="0 0 60 60" fill="none" xmlns="http://www.w3.org/2000/svg">
<path fill-rule="evenodd" clip-rule="evenodd" d="M17.1507 53.4569L17.6841 54.3993C17.6846 54.4001 17.6851 54.4009 17.6854 54.4017C18.2467 55.3999 17.8906 56.6738 16.8981 57.2344L14.7278 58.4645L14.725 58.466C13.7266 59.0273 12.4528 58.6712 11.8919 57.6782L5.5099 46.4013C4.94355 45.402 5.29967 44.1269 6.29355 43.5654L8.46637 42.3354L8.4672 42.335C9.46061 41.7739 10.735 42.1264 11.3006 43.1197L11.3019 43.1219L11.7178 43.8569L17.2508 40.6533C19.0034 39.6398 20.7964 38.99 22.7212 39.6151C24.5433 40.2059 27.5174 41.4806 30.5532 42.0291C30.5947 42.0366 30.6357 42.0469 30.6758 42.0599C32.2999 42.5858 33.2834 44.2299 32.8399 45.8791C32.8093 45.9936 32.7733 46.1066 32.7321 46.2177C32.9307 46.1394 33.123 46.046 33.3073 45.9383L41.0458 41.4312C43.9288 39.7517 45.8545 39.9619 46.9425 40.6919C47.9007 41.3347 48.3481 42.4307 48.3194 43.5083C48.2905 44.5986 47.7658 45.6373 46.9107 46.1639L32.869 54.8093C31.35 55.7467 29.6865 55.9673 27.9628 55.5076L27.9618 55.5073L18.1525 52.8784L17.1507 53.4569ZM12.645 45.4951L16.2237 51.8185L17.5488 51.0533C17.6559 50.9915 17.7741 50.9514 17.8967 50.9352C18.0192 50.9191 18.1438 50.9272 18.2632 50.9592L28.4483 53.6889C29.6537 54.0104 30.8181 53.863 31.8804 53.2074L31.8812 53.2069L45.9237 44.5611C46.2698 44.348 46.426 43.8996 46.4378 43.4583C46.4731 42.1271 45.1304 41.2302 41.9933 43.0578L34.2551 47.5646C32.9784 48.3085 31.6406 48.5154 30.1824 48.2833C30.1813 48.2831 30.1803 48.283 30.1792 48.2829L29.22 48.1267L29.2188 48.1265C29.2061 48.1245 29.1935 48.1222 29.1808 48.1196L29.1794 48.1192C27.4298 47.76 25.807 47.2318 24.0063 46.7479C23.5046 46.6131 23.2068 46.0963 23.3417 45.5946C23.4765 45.093 23.9932 44.7952 24.4948 44.93C26.2441 45.4002 27.8212 45.9159 29.5192 46.2673C30.2813 46.3491 30.8464 46.0449 31.022 45.3907L31.0221 45.3903C31.1988 44.7333 30.7838 44.1006 30.1479 43.8686C27.0427 43.2964 24.0046 42.01 22.1404 41.4056L22.14 41.4054C20.7423 40.9516 19.4659 41.5469 18.1933 42.2829L12.645 45.4951ZM9.66473 44.0509L9.66402 44.0498C9.60932 43.9553 9.48802 43.9203 9.39296 43.9739L7.22096 45.2036L7.22014 45.204C7.1259 45.2572 7.0939 45.3785 7.14755 45.4731L7.14779 45.4737L13.5301 56.7511L13.5305 56.7518C13.5841 56.8467 13.7065 56.8789 13.802 56.8256L15.9699 55.5967L15.9712 55.5962C16.0663 55.5424 16.0984 55.42 16.0448 55.3245L9.66473 44.0509ZM9.00002 45.1518C9.49249 45.0785 9.9499 45.4186 10.0232 45.9112C10.0936 46.4038 9.75343 46.864 9.26096 46.9344C8.76837 47.0077 8.31096 46.6647 8.23767 46.1722C8.16732 45.6796 8.50743 45.2222 9.00002 45.1518ZM39.2659 4.57685C40.7075 4.96416 42.0924 5.53807 43.3853 6.28403L46.0337 5.1065C46.2075 5.0292 46.4007 5.00641 46.5878 5.04112C46.7749 5.07584 46.947 5.16644 47.0816 5.30097L50.7256 8.94497C50.8599 9.07935 50.9505 9.25127 50.9853 9.43811C51.0201 9.62494 50.9975 9.81793 50.9205 9.99168L49.7472 12.6404C50.4943 13.9351 51.0686 15.3222 51.4553 16.7661L54.1563 17.8057C54.3338 17.874 54.4864 17.9945 54.594 18.1513C54.7017 18.3081 54.7593 18.4938 54.7593 18.684V23.8386C54.7593 24.0288 54.7017 24.2146 54.594 24.3713C54.4864 24.5281 54.3338 24.6486 54.1563 24.717L51.4547 25.7566C51.0668 27.1982 50.4906 28.5813 49.7467 29.8759L50.9205 32.5258C50.9975 32.6995 51.0201 32.8925 50.9853 33.0794C50.9505 33.2662 50.86 33.4381 50.7256 33.5725L47.0816 37.2165C46.9472 37.3509 46.7753 37.4415 46.5884 37.4763C46.4016 37.5111 46.2086 37.4885 46.0348 37.4116L43.3868 36.2385C42.0936 36.9852 40.7081 37.5592 39.2657 37.9459L38.226 40.6472C38.1577 40.8247 38.0372 40.9774 37.8804 41.0851C37.7236 41.1927 37.5379 41.2504 37.3477 41.2504H32.1931C32.0029 41.2504 31.8171 41.1927 31.6603 41.0851C31.5035 40.9774 31.383 40.8247 31.3147 40.6472L30.2752 37.9462C28.8295 37.5582 27.4456 36.9818 26.1506 36.2378L23.5006 37.4116C23.3269 37.4885 23.1339 37.511 22.9471 37.4762C22.7603 37.4414 22.5884 37.3509 22.454 37.2165L18.81 33.5725C18.6755 33.438 18.5849 33.2658 18.5502 33.0787C18.5155 32.8917 18.5382 32.6985 18.6156 32.5246L19.7927 29.8771C19.0461 28.5854 18.4728 27.1991 18.082 25.7572L15.3793 24.717C15.2018 24.6487 15.0491 24.5282 14.9415 24.3714C14.8338 24.2146 14.7761 24.0288 14.7761 23.8386V18.684C14.7761 18.4938 14.8338 18.3081 14.9415 18.1513C15.0491 17.9945 15.2018 17.874 15.3793 17.8057L18.0817 16.7657C18.4711 15.3225 19.0464 13.9361 19.793 12.6411L18.6156 9.99286C18.5382 9.819 18.5155 9.6258 18.5502 9.43874C18.5849 9.25167 18.6755 9.07951 18.81 8.94497L22.454 5.30097C22.5886 5.16644 22.7607 5.07584 22.9478 5.04112C23.1349 5.00641 23.3281 5.0292 23.5019 5.1065L26.1501 6.28403C27.4433 5.53795 28.8285 4.96399 30.2704 4.57674L31.315 1.86944C31.3834 1.69212 31.5039 1.53968 31.6607 1.43216C31.8174 1.32464 32.003 1.2671 32.1931 1.26709H37.3477C37.7372 1.26709 38.0865 1.50709 38.2261 1.87074L39.2659 4.57685ZM37.6837 5.70709L36.701 3.14944H32.8387L31.8513 5.70838C31.7963 5.85092 31.7074 5.97792 31.5924 6.07841C31.4773 6.17891 31.3395 6.24989 31.1908 6.28521C29.6067 6.66157 28.093 7.28886 26.707 8.14333C26.5767 8.22359 26.4288 8.27088 26.2762 8.28111C26.1235 8.29134 25.9707 8.2642 25.8308 8.20203L23.3278 7.08921L20.5981 9.81886L21.7111 12.3218C21.7732 12.4616 21.8004 12.6145 21.7902 12.7671C21.7799 12.9198 21.7326 13.0677 21.6524 13.1979C20.7963 14.5873 20.1701 16.0991 19.7885 17.6891C19.7529 17.8374 19.6818 17.9749 19.5813 18.0897C19.4807 18.2044 19.3538 18.293 19.2114 18.3478L16.6585 19.3304V23.1924L19.2114 24.1749C19.3537 24.2296 19.4805 24.3182 19.581 24.4328C19.6815 24.5474 19.7527 24.6848 19.7884 24.833C20.1699 26.4177 20.7957 27.934 21.6516 29.3183C21.7321 29.4486 21.7797 29.5967 21.7901 29.7496C21.8004 29.9025 21.7733 30.0556 21.7111 30.1957L20.5981 32.6986L23.3285 35.429L25.832 34.32C25.9714 34.2584 26.1236 34.2314 26.2756 34.2415C26.4277 34.2516 26.575 34.2985 26.705 34.378C28.0941 35.2292 29.6056 35.8606 31.1954 36.2373C31.3443 36.2726 31.4824 36.3437 31.5976 36.4444C31.7129 36.545 31.8019 36.6723 31.8568 36.8151L32.8393 39.368H36.7013L37.6839 36.8151C37.7388 36.6724 37.8277 36.5452 37.9428 36.4445C38.0579 36.3439 38.1958 36.2728 38.3446 36.2374C39.9285 35.8611 41.4439 35.2356 42.8273 34.3801C42.9575 34.2997 43.1053 34.2521 43.2579 34.2416C43.4106 34.2312 43.5635 34.2581 43.7034 34.32L46.207 35.429L48.938 32.698L47.8291 30.1945C47.7674 30.0552 47.7404 29.9029 47.7505 29.7509C47.7606 29.5988 47.8075 29.4515 47.8871 29.3216C48.7384 27.9323 49.3698 26.4207 49.7465 24.8357C49.7818 24.6869 49.8529 24.549 49.9536 24.4338C50.0542 24.3187 50.1814 24.2298 50.3241 24.1749L52.877 23.1924V19.3304L50.3241 18.3478C50.1813 18.2928 50.054 18.2039 49.9534 18.0886C49.8527 17.9734 49.7816 17.8353 49.7464 17.6864C49.3709 16.1005 48.7436 14.5851 47.8884 13.1979C47.8082 13.0679 47.7609 12.9203 47.7506 12.7678C47.7403 12.6154 47.7672 12.4628 47.8291 12.3231L48.938 9.81956L46.2077 7.08921L43.7046 8.20203C43.5648 8.2642 43.4119 8.29134 43.2593 8.28111C43.1066 8.27088 42.9588 8.22359 42.8285 8.14333C41.4425 7.28882 39.9288 6.66153 38.3446 6.28521C38.1958 6.24983 38.0578 6.17869 37.9426 6.07795C37.8274 5.97722 37.7385 5.84992 37.6837 5.70709ZM34.7667 7.71097C42.2517 7.71097 48.3207 13.7727 48.3207 21.2577C48.3207 28.7425 42.2516 34.8118 34.7667 34.8118C27.2817 34.8118 21.2199 28.7427 21.2199 21.2577C21.2199 13.7726 27.2815 7.71097 34.7667 7.71097ZM34.7667 9.59332C28.3217 9.59332 23.1023 14.8126 23.1023 21.2577C23.1023 27.7029 28.3216 32.9294 34.7667 32.9294C41.212 32.9294 46.4384 27.7031 46.4384 21.2577C46.4384 14.8125 41.2119 9.59332 34.7667 9.59332ZM33.2581 30.1033C33.2581 30.6227 32.8364 31.0445 32.317 31.0445C31.7976 31.0445 31.3758 30.6227 31.3758 30.1033V25.7445C29.0659 24.5258 27.4887 22.0976 27.4887 19.3049C27.4887 16.4654 29.1123 14.0071 31.4807 12.8049C31.6242 12.7321 31.784 12.6973 31.9448 12.7038C32.1055 12.7103 32.2619 12.7579 32.3991 12.8421C32.5362 12.9263 32.6495 13.0442 32.728 13.1846C32.8066 13.325 32.8479 13.4832 32.8479 13.6441V19.4763L34.7704 20.5857L36.6927 19.4763V13.6441C36.6928 13.4832 36.734 13.325 36.8126 13.1846C36.8912 13.0442 37.0044 12.9263 37.1416 12.8421C37.2787 12.7579 37.4351 12.7103 37.5959 12.7038C37.7567 12.6973 37.9164 12.7321 38.0599 12.8049C40.4284 14.0071 42.052 16.4654 42.052 19.3049C42.052 22.0979 40.4781 24.5261 38.165 25.7449V30.1019C38.165 30.6213 37.7432 31.0431 37.2238 31.0431C36.7043 31.0431 36.2826 30.6213 36.2826 30.1019V25.1492C36.2826 24.9637 36.3374 24.7823 36.4402 24.6279C36.5429 24.4734 36.689 24.3528 36.8601 24.2811C38.806 23.4662 40.1697 21.5434 40.1697 19.3049C40.1697 17.8063 39.5598 16.4509 38.5751 15.4724V20.0198C38.5751 20.185 38.5316 20.3474 38.449 20.4905C38.3663 20.6336 38.2475 20.7524 38.1044 20.835L35.2407 22.4874C35.0977 22.57 34.9355 22.6134 34.7703 22.6134C34.6052 22.6134 34.4429 22.57 34.2999 22.4874L31.4364 20.835C31.2932 20.7524 31.1744 20.6336 31.0917 20.4905C31.0091 20.3474 30.9656 20.185 30.9656 20.0198L30.9657 15.4723C29.981 16.4509 29.3711 17.8063 29.3711 19.3049C29.3711 21.5437 30.7384 23.4664 32.6811 24.2813C32.8521 24.3531 32.998 24.4737 33.1007 24.6281C33.2034 24.7825 33.2581 24.9638 33.2581 25.1492V30.1033Z" fill="white"/>
</svg>
