<svg width="60" height="60" viewBox="0 0 60 60" fill="none" xmlns="http://www.w3.org/2000/svg">
<path d="M27.2022 31.0848L31.0844 27.2022C31.1606 27.1261 31.2211 27.0357 31.2623 26.9362C31.3036 26.8367 31.3248 26.73 31.3248 26.6223C31.3248 26.5146 31.3036 26.408 31.2623 26.3085C31.2211 26.209 31.1606 26.1186 31.0844 26.0425L29.0163 23.9744C29.4413 23.1953 29.7822 22.3732 30.033 21.5219H32.9561C33.1737 21.5219 33.3823 21.4354 33.5361 21.2816C33.69 21.1278 33.7764 20.9191 33.7764 20.7015V15.2115C33.7764 14.994 33.69 14.7853 33.5361 14.6315C33.3823 14.4777 33.1737 14.3912 32.9561 14.3912H30.0395C29.7886 13.5387 29.4466 12.7157 29.0195 11.9364L31.0844 9.87107C31.1606 9.79493 31.2211 9.70451 31.2624 9.60497C31.3036 9.50544 31.3249 9.39875 31.3249 9.291C31.3249 9.18325 31.3036 9.07655 31.2624 8.97702C31.2211 8.87748 31.1606 8.78706 31.0844 8.71092L27.2022 4.82826C27.1261 4.75204 27.0357 4.69157 26.9362 4.65031C26.8367 4.60905 26.7301 4.58781 26.6223 4.58781C26.5146 4.58781 26.408 4.60905 26.3085 4.65031C26.209 4.69157 26.1186 4.75204 26.0425 4.82826L23.9772 6.89404C23.1979 6.46699 22.3748 6.12502 21.5223 5.87404V2.95654C21.5224 2.8488 21.5012 2.7421 21.46 2.64255C21.4188 2.543 21.3584 2.45254 21.2822 2.37636C21.206 2.30017 21.1156 2.23975 21.016 2.19855C20.9165 2.15734 20.8098 2.13617 20.702 2.13623H15.2116C15.1038 2.13617 14.9971 2.15734 14.8976 2.19855C14.798 2.23975 14.7076 2.30017 14.6314 2.37636C14.5552 2.45254 14.4948 2.543 14.4536 2.64255C14.4124 2.7421 14.3912 2.8488 14.3913 2.95654V5.8792C13.5401 6.13027 12.7181 6.47126 11.9392 6.89639L9.87156 4.82826C9.79542 4.75202 9.705 4.69154 9.60546 4.65028C9.50593 4.60901 9.39923 4.58777 9.29148 4.58777C9.18373 4.58777 9.07704 4.60901 8.97751 4.65028C8.87797 4.69154 8.78755 4.75202 8.71141 4.82826L4.82875 8.71092C4.75251 8.78706 4.69203 8.87748 4.65077 8.97702C4.6095 9.07655 4.58826 9.18325 4.58826 9.291C4.58826 9.39875 4.6095 9.50544 4.65077 9.60497C4.69203 9.70451 4.75251 9.79493 4.82875 9.87107L6.89594 11.9387C6.47084 12.7178 6.12986 13.54 5.87875 14.3912H2.95703C2.84929 14.3912 2.74259 14.4123 2.64304 14.4535C2.54349 14.4948 2.45303 14.5552 2.37685 14.6314C2.30066 14.7075 2.24024 14.798 2.19904 14.8976C2.15783 14.9971 2.13666 15.1038 2.13672 15.2115V20.7015C2.13666 20.8093 2.15783 20.916 2.19904 21.0155C2.24024 21.1151 2.30066 21.2055 2.37685 21.2817C2.45303 21.3579 2.54349 21.4183 2.64304 21.4595C2.74259 21.5007 2.84929 21.5219 2.95703 21.5219H5.87406C6.12516 22.3744 6.46729 23.1974 6.89453 23.9767L4.82875 26.0425C4.75253 26.1186 4.69206 26.209 4.6508 26.3085C4.60954 26.408 4.5883 26.5146 4.5883 26.6223C4.5883 26.73 4.60954 26.8367 4.6508 26.9362C4.69206 27.0357 4.75253 27.1261 4.82875 27.2022L8.71047 31.0848C8.86443 31.2385 9.07305 31.3247 9.29055 31.3247C9.50805 31.3247 9.71666 31.2385 9.87063 31.0848L11.9359 29.019C12.7155 29.4461 13.5386 29.7882 14.3913 30.0395V32.957C14.3913 33.1746 14.4777 33.3832 14.6315 33.5371C14.7854 33.6909 14.994 33.7773 15.2116 33.7773H20.702C20.9196 33.7773 21.1282 33.6909 21.2821 33.5371C21.4359 33.3832 21.5223 33.1746 21.5223 32.957V30.0339C22.3735 29.7828 23.1955 29.4418 23.9744 29.0167L26.0425 31.0848C26.1963 31.2385 26.4049 31.3249 26.6223 31.3249C26.8398 31.3249 27.0484 31.2385 27.2022 31.0848ZM24.6892 27.4112C24.5589 27.2807 24.3884 27.198 24.2053 27.1763C24.0222 27.1547 23.8371 27.1955 23.68 27.2922C22.6999 27.8948 21.6304 28.3378 20.5113 28.6047C20.3322 28.6477 20.1727 28.7496 20.0585 28.8941C19.9444 29.0387 19.8821 29.2174 19.8817 29.4015V32.1344H16.0319V29.409C16.0316 29.2247 15.9693 29.0458 15.8549 28.9012C15.7405 28.7567 15.5808 28.6548 15.4014 28.6122C14.2824 28.3446 13.2135 27.8997 12.235 27.2945C12.0778 27.1975 11.8924 27.1565 11.7089 27.1779C11.5254 27.1993 11.3546 27.282 11.2239 27.4126L9.29125 29.3439L6.56969 26.6214L8.50094 24.6897C8.63142 24.559 8.71406 24.3883 8.7355 24.2049C8.75693 24.0215 8.71591 23.8362 8.61906 23.679C8.0139 22.7 7.56937 21.6304 7.30234 20.5108C7.25968 20.3314 7.15785 20.1717 7.01328 20.0573C6.8687 19.9429 6.68982 19.8806 6.50547 19.8803H3.77734V16.0314H6.50969C6.69389 16.0311 6.87264 15.9688 7.01717 15.8547C7.16171 15.7405 7.26364 15.581 7.30656 15.4019C7.57317 14.283 8.01621 13.2136 8.61906 12.234C8.71551 12.0767 8.75621 11.8916 8.73461 11.7083C8.71302 11.5251 8.63037 11.3544 8.5 11.2239L6.56969 9.29076L9.29125 6.5692L11.2244 8.50232C11.3548 8.63274 11.5254 8.71541 11.7086 8.73701C11.8917 8.75861 12.0769 8.71788 12.2341 8.62139C13.214 8.01882 14.2834 7.5758 15.4023 7.30889C15.5814 7.26589 15.7409 7.16394 15.855 7.01942C15.9692 6.8749 16.0315 6.69619 16.0319 6.51201V3.77686H19.8817V6.50451C19.882 6.68886 19.9443 6.86775 20.0587 7.01232C20.1731 7.15689 20.3328 7.25872 20.5122 7.30139C21.6317 7.56832 22.7013 8.01269 23.6805 8.61764C23.8375 8.7149 24.0229 8.75616 24.2064 8.73471C24.3899 8.71326 24.5607 8.63037 24.6911 8.49951L26.6223 6.56826L29.3444 9.29076L27.4131 11.2225C27.2827 11.3532 27.2001 11.5241 27.1786 11.7075C27.1572 11.891 27.1982 12.0763 27.295 12.2336C27.9001 13.2124 28.3445 14.2819 28.6112 15.4014C28.6539 15.5807 28.7557 15.7405 28.9003 15.8549C29.0449 15.9692 29.2238 16.0316 29.4081 16.0319H32.1358V19.8812H29.403C29.2187 19.8816 29.04 19.944 28.8954 20.0582C28.7509 20.1725 28.649 20.3321 28.6061 20.5112C28.3393 21.6302 27.8962 22.6996 27.2936 23.6795C27.197 23.8366 27.1562 24.0217 27.1778 24.2048C27.1994 24.388 27.2821 24.5585 27.4127 24.6887L29.3444 26.6223L26.6223 29.3439L24.6892 27.4112Z" fill="#008080"/>
<path d="M17.9566 10.8555C16.5521 10.8555 15.1792 11.2719 14.0114 12.0522C12.8436 12.8325 11.9335 13.9415 11.396 15.2391C10.8585 16.5366 10.7179 17.9644 10.9919 19.3419C11.2659 20.7194 11.9422 21.9847 12.9353 22.9778C13.9284 23.9709 15.1937 24.6472 16.5712 24.9212C17.9487 25.1952 19.3765 25.0546 20.674 24.5171C21.9716 23.9797 23.0806 23.0695 23.8609 21.9017C24.6412 20.734 25.0577 19.361 25.0577 17.9566C25.0556 16.0739 24.3067 14.2689 22.9755 12.9377C21.6442 11.6064 19.8392 10.8576 17.9566 10.8555ZM17.9566 23.418C16.8766 23.418 15.8209 23.0977 14.923 22.4978C14.025 21.8978 13.3252 21.0451 12.9118 20.0473C12.4985 19.0496 12.3903 17.9518 12.6009 16.8926C12.8116 15.8334 13.3315 14.8604 14.0951 14.0967C14.8587 13.333 15.8315 12.8129 16.8907 12.6021C17.9499 12.3913 19.0478 12.4993 20.0455 12.9124C21.0433 13.3256 21.8962 14.0253 22.4963 14.9231C23.0964 15.821 23.4168 16.8766 23.417 17.9566C23.4153 19.4042 22.8394 20.7921 21.8158 21.8158C20.7921 22.8394 19.4042 23.4153 17.9566 23.417V23.418ZM57.0438 38.4784H54.1263C53.8753 37.6259 53.5333 36.8029 53.1063 36.0236L55.1716 33.9578C55.2478 33.8817 55.3083 33.7913 55.3495 33.6918C55.3908 33.5923 55.412 33.4857 55.412 33.378C55.412 33.2703 55.3908 33.1636 55.3495 33.0641C55.3083 32.9646 55.2478 32.8742 55.1716 32.7981L51.2894 28.9164C51.2132 28.8402 51.1228 28.7797 51.0233 28.7384C50.9237 28.6972 50.8171 28.6759 50.7093 28.6759C50.6016 28.6759 50.4949 28.6972 50.3953 28.7384C50.2958 28.7797 50.2054 28.8402 50.1292 28.9164L48.0639 30.9813C47.2846 30.5543 46.4618 30.2122 45.6095 29.9608V27.0433C45.6095 26.8257 45.5231 26.6171 45.3693 26.4632C45.2154 26.3094 45.0068 26.223 44.7892 26.223H39.2988C39.0812 26.223 38.8725 26.3094 38.7187 26.4632C38.5649 26.6171 38.4784 26.8257 38.4784 27.0433V29.9664C37.6271 30.2174 36.805 30.5584 36.0259 30.9836L33.9583 28.9164C33.8822 28.8402 33.7918 28.7797 33.6923 28.7385C33.5928 28.6972 33.4862 28.676 33.3784 28.676C33.2707 28.676 33.1641 28.6972 33.0646 28.7385C32.9651 28.7797 32.8747 28.8402 32.7986 28.9164L28.9159 32.7981C28.7622 32.9519 28.6759 33.1605 28.6759 33.378C28.6759 33.5954 28.7622 33.804 28.9159 33.9578L30.9845 36.0259C30.5592 36.8049 30.2184 37.6271 29.9678 38.4784H27.0438C26.8262 38.4784 26.6175 38.5649 26.4637 38.7187C26.3099 38.8725 26.2234 39.0812 26.2234 39.2987V44.7888C26.2234 45.0063 26.3099 45.215 26.4637 45.3688C26.6175 45.5226 26.8262 45.6091 27.0438 45.6091H29.9613C30.2122 46.4616 30.5542 47.2846 30.9813 48.0639L28.9159 50.1292C28.7622 50.2831 28.6758 50.4918 28.6758 50.7093C28.6758 50.9268 28.7622 51.1355 28.9159 51.2894L32.7986 55.172C32.8747 55.2482 32.9651 55.3087 33.0646 55.35C33.1641 55.3912 33.2707 55.4125 33.3784 55.4125C33.4862 55.4125 33.5928 55.3912 33.6923 55.35C33.7918 55.3087 33.8822 55.2482 33.9583 55.172L36.0236 53.1095C36.8029 53.5367 37.6259 53.8786 38.4784 54.1295V57.047C38.4784 57.1548 38.4996 57.2615 38.5408 57.361C38.582 57.4606 38.6424 57.551 38.7186 57.6272C38.7948 57.7034 38.8852 57.7638 38.9848 57.805C39.0843 57.8462 39.191 57.8674 39.2988 57.8673H44.7888C44.8965 57.8674 45.0032 57.8462 45.1027 57.805C45.2023 57.7638 45.2928 57.7034 45.3689 57.6272C45.4451 57.551 45.5055 57.4606 45.5467 57.361C45.588 57.2615 45.6091 57.1548 45.6091 57.047V54.1244C46.4604 53.8733 47.2826 53.5321 48.0616 53.1067L50.1292 55.1744C50.2054 55.2506 50.2958 55.3111 50.3953 55.3524C50.4949 55.3936 50.6016 55.4149 50.7093 55.4149C50.8171 55.4149 50.9237 55.3936 51.0233 55.3524C51.1228 55.3111 51.2132 55.2506 51.2894 55.1744L55.1716 51.2927C55.2478 51.2165 55.3083 51.1261 55.3496 51.0266C55.3908 50.927 55.4121 50.8203 55.4121 50.7126C55.4121 50.6048 55.3908 50.4981 55.3496 50.3986C55.3083 50.2991 55.2478 50.2086 55.1716 50.1325L53.1039 48.0644C53.529 47.2854 53.87 46.4635 54.1211 45.6123H57.0438C57.1515 45.6124 57.2582 45.5912 57.3577 45.55C57.4573 45.5088 57.5478 45.4484 57.6239 45.3722C57.7001 45.296 57.7605 45.2056 57.8018 45.106C57.843 45.0065 57.8641 44.8998 57.8641 44.792V39.2987C57.8641 39.191 57.843 39.0843 57.8018 38.9848C57.7605 38.8852 57.7001 38.7948 57.6239 38.7186C57.5478 38.6424 57.4573 38.582 57.3577 38.5408C57.2582 38.4995 57.1515 38.4784 57.0438 38.4784ZM56.2234 43.9689H53.4911C53.3069 43.9692 53.1282 44.0314 52.9836 44.1456C52.8391 44.2598 52.7371 44.4193 52.6942 44.5984C52.4273 45.7174 51.9843 46.7868 51.3817 47.7667C51.2853 47.9239 51.2446 48.109 51.2662 48.2922C51.2878 48.4754 51.3704 48.6459 51.5008 48.7764L53.4344 50.71L50.7123 53.4316L48.7792 51.4984C48.6487 51.3682 48.4781 51.2857 48.295 51.2641C48.1119 51.2425 47.9268 51.2831 47.7695 51.3794C46.7894 51.9819 45.7199 52.4249 44.6008 52.6919C44.4217 52.7348 44.2622 52.8367 44.148 52.9813C44.0338 53.1258 43.9715 53.3046 43.9713 53.4888V56.2211H40.1191V53.4934C40.1188 53.3091 40.0565 53.1302 39.9421 52.9856C39.8277 52.8411 39.6679 52.7392 39.4886 52.6966C38.369 52.4296 37.2994 51.9853 36.3203 51.3803C36.1632 51.2831 35.9779 51.2419 35.7944 51.2634C35.611 51.2848 35.4401 51.3677 35.3097 51.4984L33.3784 53.4297L30.6564 50.7095L32.5877 48.7778C32.7183 48.6472 32.8011 48.4763 32.8225 48.2928C32.844 48.1093 32.8028 47.9239 32.7058 47.7667C32.101 46.7878 31.6568 45.7183 31.39 44.5989C31.3473 44.4196 31.2455 44.2598 31.1009 44.1454C30.9564 44.031 30.7775 43.9687 30.5931 43.9684H27.8641V40.1191H30.5964C30.7807 40.1187 30.9594 40.0563 31.1039 39.942C31.2485 39.8278 31.3504 39.6682 31.3933 39.4891C31.6601 38.3701 32.1032 37.3006 32.7058 36.3208C32.8024 36.1637 32.8432 35.9786 32.8216 35.7955C32.8 35.6123 32.7172 35.4418 32.5867 35.3116L30.6564 33.378L33.3784 30.6564L35.3116 32.5895C35.4418 32.7202 35.6123 32.8031 35.7955 32.8247C35.9786 32.8463 36.1638 32.8054 36.3208 32.7086C37.3008 32.106 38.3704 31.663 39.4895 31.3961C39.6686 31.3531 39.8281 31.2512 39.9422 31.1066C40.0564 30.9621 40.1187 30.7834 40.1191 30.5992V27.8664H43.9689V30.5941C43.9692 30.7784 44.0315 30.9573 44.1459 31.1019C44.2603 31.2464 44.42 31.3483 44.5994 31.3909C45.7188 31.6582 46.7882 32.1027 47.7672 32.7077C47.9244 32.8049 48.1098 32.8461 48.2933 32.8247C48.4769 32.8032 48.6478 32.7204 48.7783 32.5895L50.7095 30.6564L53.4316 33.3784L51.4998 35.3102C51.3693 35.4407 51.2866 35.6115 51.2652 35.7949C51.2437 35.9783 51.2848 36.1636 51.3817 36.3208C51.9866 37.2997 52.4308 38.3692 52.6975 39.4886C52.7401 39.668 52.8419 39.8279 52.9865 39.9424C53.131 40.0568 53.31 40.1192 53.4944 40.1195H56.222L56.2234 43.9689Z" fill="#008080"/>
<path d="M42.0436 34.9428C40.6391 34.9428 39.2662 35.3593 38.0984 36.1396C36.9306 36.9198 36.0205 38.0289 35.483 39.3264C34.9456 40.624 34.8049 42.0518 35.0789 43.4293C35.3529 44.8067 36.0292 46.072 37.0223 47.0651C38.0154 48.0582 39.2807 48.7346 40.6582 49.0086C42.0357 49.2826 43.4635 49.1419 44.761 48.6045C46.0586 48.067 47.1676 47.1568 47.9479 45.9891C48.7282 44.8213 49.1447 43.4484 49.1447 42.0439C49.1426 40.1612 48.3937 38.3563 47.0625 37.025C45.7312 35.6937 43.9263 34.9449 42.0436 34.9428ZM42.0436 47.5053C40.9636 47.5053 39.9079 47.1851 39.0099 46.5851C38.1119 45.9851 37.412 45.1322 36.9988 44.1345C36.5855 43.1367 36.4773 42.0388 36.688 40.9796C36.8987 39.9203 37.4188 38.9474 38.1824 38.1837C38.9461 37.42 39.9191 36.9 40.9783 36.6893C42.0375 36.4786 43.1354 36.5867 44.1332 37C45.131 37.4133 45.9838 38.1132 46.5838 39.0112C47.1838 39.9091 47.504 40.9649 47.504 42.0448C47.5022 43.4924 46.9263 44.8801 45.9026 45.9036C44.8789 46.9271 43.4911 47.5028 42.0436 47.5044V47.5053ZM35.9583 9.77703C40.7244 11.1801 44.8405 14.2241 47.5781 18.3702C46.9215 18.9645 46.5064 19.7794 46.4117 20.66C46.3169 21.5405 46.5492 22.4251 47.0644 23.1455C47.5795 23.8658 48.3415 24.3717 49.2053 24.5668C50.0692 24.7618 50.9746 24.6325 51.7493 24.2034C52.524 23.7743 53.1139 23.0753 53.4067 22.2395C53.6995 21.4037 53.6749 20.4895 53.3374 19.6707C52.9999 18.8519 52.3732 18.1857 51.5765 17.799C50.7798 17.4123 49.8688 17.3319 49.0167 17.5733C46.0675 13.0505 41.6016 9.72806 36.4219 8.20344C36.3179 8.17067 36.2084 8.15897 36.0998 8.16901C35.9912 8.17906 35.8858 8.21065 35.7895 8.26193C35.6933 8.31321 35.6083 8.38317 35.5394 8.4677C35.4705 8.55223 35.4192 8.64964 35.3884 8.75424C35.3576 8.85883 35.348 8.96852 35.3601 9.07688C35.3722 9.18524 35.4058 9.2901 35.4589 9.38533C35.512 9.48056 35.5836 9.56425 35.6694 9.63151C35.7552 9.69876 35.8531 9.74823 35.9583 9.77703ZM51.9375 21.035C51.9375 21.4218 51.8228 21.7999 51.6079 22.1215C51.393 22.4431 51.0876 22.6937 50.7302 22.8418C50.3729 22.9898 49.9797 23.0285 49.6003 22.953C49.221 22.8776 48.8725 22.6913 48.599 22.4178C48.3255 22.1443 48.1393 21.7959 48.0638 21.4165C47.9883 21.0372 48.0271 20.644 48.1751 20.2866C48.3231 19.9293 48.5738 19.6238 48.8954 19.409C49.217 19.1941 49.5951 19.0794 49.9818 19.0794C50.5004 19.0799 50.9975 19.2861 51.3641 19.6527C51.7308 20.0194 51.937 20.5165 51.9375 21.035ZM24.0417 50.2236C19.2764 48.82 15.1612 45.7761 12.4242 41.6305C13.0808 41.0361 13.4959 40.2212 13.5906 39.3407C13.6853 38.4601 13.453 37.5755 12.9379 36.8552C12.4228 36.1348 11.6608 35.6289 10.797 35.4339C9.93312 35.2388 9.02771 35.3681 8.25302 35.7972C7.47833 36.2264 6.88844 36.9253 6.59561 37.7611C6.30277 38.5969 6.32743 39.5112 6.66489 40.33C7.00235 41.1487 7.62906 41.8149 8.42576 42.2016C9.22245 42.5884 10.1335 42.6687 10.9856 42.4273C13.9341 46.9498 18.3992 50.2722 23.5781 51.7972C23.6534 51.8194 23.7316 51.8307 23.8101 51.8305C24.0072 51.83 24.1974 51.7587 24.3462 51.6295C24.495 51.5004 24.5923 51.3219 24.6203 51.1269C24.6484 50.9319 24.6053 50.7333 24.4989 50.5674C24.3926 50.4016 24.2301 50.2795 24.0412 50.2236H24.0417ZM8.06248 38.9656C8.06266 38.5789 8.17752 38.2009 8.39251 37.8794C8.60751 37.5579 8.91301 37.3074 9.27037 37.1595C9.62773 37.0117 10.0209 36.9731 10.4002 37.0486C10.7795 37.1242 11.1279 37.3105 11.4013 37.5841C11.6747 37.8576 11.8608 38.2061 11.9362 38.5854C12.0116 38.9647 11.9728 39.3579 11.8248 39.7152C11.6767 40.0725 11.4261 40.3778 11.1045 40.5927C10.7829 40.8075 10.4048 40.9222 10.0181 40.9222C9.49943 40.9217 9.00215 40.7154 8.63548 40.3485C8.26881 39.9817 8.06273 39.4843 8.06248 38.9656Z" fill="#008080"/>
</svg>
