<svg width="60" height="60" viewBox="0 0 60 60" fill="none" xmlns="http://www.w3.org/2000/svg">
<g clip-path="url(#clip0_1104_102)">
<path d="M30.0039 25C31.7839 25 33.524 24.4722 35.004 23.4832C36.4841 22.4943 37.6376 21.0887 38.3188 19.4442C39 17.7996 39.1782 15.99 38.831 14.2442C38.4837 12.4984 37.6265 10.8947 36.3679 9.63604C35.1092 8.37737 33.5055 7.5202 31.7597 7.17294C30.0139 6.82567 28.2043 7.0039 26.5598 7.68509C24.9152 8.36628 23.5096 9.51983 22.5207 10.9999C21.5317 12.4799 21.0039 14.22 21.0039 16C21.0066 18.3861 21.9556 20.6738 23.6429 22.361C25.3301 24.0483 27.6178 24.9974 30.0039 25ZM30.0039 9C31.3884 9 32.7418 9.41055 33.8929 10.1797C35.044 10.9489 35.9412 12.0421 36.4711 13.3212C37.0009 14.6003 37.1395 16.0078 36.8694 17.3656C36.5993 18.7235 35.9326 19.9708 34.9537 20.9498C33.9747 21.9287 32.7274 22.5954 31.3695 22.8655C30.0117 23.1356 28.6042 22.997 27.3251 22.4672C26.046 21.9373 24.9528 21.0401 24.1836 19.889C23.4144 18.7379 23.0039 17.3845 23.0039 16C23.006 14.1441 23.7442 12.3649 25.0565 11.0526C26.3688 9.7403 28.148 9.00212 30.0039 9Z" fill="#008080"/>
<path d="M30.0039 21C30.9928 21 31.9595 20.7068 32.7818 20.1574C33.604 19.6079 34.2449 18.8271 34.6233 17.9134C35.0017 16.9998 35.1008 15.9945 34.9078 15.0246C34.7149 14.0546 34.2387 13.1637 33.5394 12.4645C32.8402 11.7652 31.9493 11.289 30.9794 11.0961C30.0095 10.9031 29.0041 11.0022 28.0905 11.3806C27.1769 11.759 26.396 12.3999 25.8466 13.2222C25.2972 14.0444 25.0039 15.0111 25.0039 16C25.0055 17.3256 25.5328 18.5964 26.4701 19.5338C27.4075 20.4711 28.6783 20.9984 30.0039 21ZM30.0039 13C30.5972 13 31.1773 13.1759 31.6706 13.5056C32.164 13.8352 32.5485 14.3038 32.7755 14.852C33.0026 15.4001 33.062 16.0033 32.9463 16.5853C32.8305 17.1672 32.5448 17.7018 32.1252 18.1213C31.7057 18.5409 31.1711 18.8266 30.5892 18.9424C30.0072 19.0581 29.404 18.9987 28.8559 18.7716C28.3077 18.5446 27.8391 18.1601 27.5095 17.6667C27.1799 17.1734 27.0039 16.5933 27.0039 16C27.0039 15.2044 27.32 14.4413 27.8826 13.8787C28.4452 13.3161 29.2083 13 30.0039 13Z" fill="#008080"/>
<path d="M60.0009 38.0002C59.9997 37.5844 59.8685 37.1795 59.6257 36.842C59.3829 36.5046 59.0407 36.2515 58.6469 36.1182L48.5299 32.5002L58.6479 28.8812C59.0421 28.7489 59.3848 28.4962 59.6275 28.1587C59.8703 27.8212 60.0009 27.4159 60.0009 27.0002C60.0009 26.5844 59.8703 26.1791 59.6275 25.8416C59.3848 25.5041 59.0421 25.2514 58.6479 25.1192L42.9479 19.4992C42.9749 19.3992 43.0089 19.2992 43.0329 19.1992L44.8799 18.6342C45.1682 18.5478 45.4241 18.3771 45.6145 18.1439C45.8048 17.9108 45.921 17.6259 45.9479 17.3262C45.9879 16.8892 46.0069 16.4462 46.0069 16.0002C46.0069 15.5542 45.9879 15.1112 45.9479 14.6742C45.9208 14.3742 45.8045 14.0891 45.614 13.8558C45.4235 13.6225 45.1674 13.4516 44.8789 13.3652L43.0269 12.8002C42.7044 11.4786 42.1799 10.2147 41.4719 9.05316L42.3789 7.35316C42.5227 7.0879 42.5835 6.78559 42.5536 6.48535C42.5236 6.18512 42.4043 5.90078 42.2109 5.66916C41.9296 5.3325 41.6296 5.00649 41.3109 4.69116C40.9922 4.37583 40.6659 4.07583 40.3319 3.79116C40.1004 3.59867 39.8167 3.47982 39.5171 3.44988C39.2175 3.41994 38.9159 3.48029 38.6509 3.62316L36.9429 4.53116C35.7828 3.82308 34.5207 3.29761 33.2009 2.97316L32.6369 1.12616C32.5494 0.838136 32.378 0.58272 32.1447 0.392502C31.9113 0.202283 31.6266 0.0858858 31.3269 0.0581612C30.4447 -0.0213402 29.5571 -0.0213402 28.6749 0.0581612C28.375 0.0856272 28.0902 0.202066 27.857 0.392538C27.6237 0.583009 27.4527 0.838825 27.3659 1.12716L26.8009 2.97316C25.4798 3.2966 24.2163 3.8214 23.0549 4.52916L21.3489 3.62216C21.0832 3.47895 20.7808 3.41851 20.4805 3.44863C20.1802 3.47875 19.8958 3.59804 19.6639 3.79116C19.3279 4.07116 19.0019 4.37116 18.6869 4.69116C18.3719 5.01116 18.0709 5.33216 17.7869 5.66816C17.5934 5.89948 17.4738 6.18352 17.4435 6.48356C17.4132 6.7836 17.4736 7.08583 17.6169 7.35116L18.5249 9.05816C17.8198 10.2188 17.297 11.4809 16.9749 12.8002L15.1279 13.3652C14.8395 13.4515 14.5837 13.6222 14.3933 13.8554C14.203 14.0885 14.0868 14.3734 14.0599 14.6732C14.0199 15.1102 14.0009 15.5532 14.0009 15.9992C14.0009 16.4452 14.0199 16.8882 14.0599 17.3232C14.0867 17.6235 14.2029 17.9089 14.3934 18.1425C14.584 18.3762 14.8401 18.5474 15.1289 18.6342L16.9749 19.1982C16.9989 19.2982 17.0329 19.3982 17.0599 19.4982L1.35389 25.1192C0.959707 25.2514 0.617023 25.5041 0.374238 25.8416C0.131453 26.1791 0.000836775 26.5844 0.000836775 27.0002C0.000836775 27.4159 0.131453 27.8212 0.374238 28.1587C0.617023 28.4962 0.959707 28.7489 1.35389 28.8812L11.4719 32.5002L1.35389 36.1182C0.959471 36.2504 0.616575 36.5033 0.373637 36.841C0.1307 37.1787 0 37.5842 0 38.0002C0 38.4162 0.1307 38.8217 0.373637 39.1594C0.616575 39.4971 0.959471 39.7499 1.35389 39.8822L10.0729 43.0002L1.35389 46.1192C0.959471 46.2514 0.616575 46.5043 0.373637 46.842C0.1307 47.1797 0 47.5852 0 48.0012C0 48.4172 0.1307 48.8227 0.373637 49.1604C0.616575 49.4981 0.959471 49.7509 1.35389 49.8832L29.2819 59.8742C29.7455 60.0422 30.2533 60.0422 30.7169 59.8742L58.6469 49.8832C59.0413 49.7509 59.3842 49.4981 59.6271 49.1604C59.8701 48.8227 60.0008 48.4172 60.0008 48.0012C60.0008 47.5852 59.8701 47.1797 59.6271 46.842C59.3842 46.5043 59.0413 46.2514 58.6469 46.1192L49.9299 43.0002L58.6479 39.8822C59.0415 39.7487 59.3835 39.4955 59.6261 39.1581C59.8687 38.8206 59.9998 38.4158 60.0009 38.0002ZM16.0259 16.8172C15.9917 16.273 15.9917 15.7273 16.0259 15.1832L18.1159 14.5442C18.2891 14.4915 18.4448 14.3928 18.5663 14.2586C18.6878 14.1244 18.7706 13.9597 18.8059 13.7822C19.0964 12.307 19.6785 10.9046 20.5179 9.65716C20.6187 9.50673 20.6769 9.33174 20.686 9.15086C20.6952 8.96998 20.655 8.79001 20.5699 8.63016L19.5409 6.70016C19.7209 6.50016 19.9069 6.30016 20.1019 6.10516C20.2969 5.91016 20.4939 5.72316 20.7019 5.54416L22.6369 6.57316C22.7968 6.65816 22.9768 6.69813 23.1577 6.68879C23.3386 6.67946 23.5136 6.62117 23.6639 6.52016C24.9088 5.6792 26.3087 5.0945 27.7819 4.80016C27.9592 4.76507 28.1237 4.68256 28.2579 4.56141C28.3921 4.44026 28.4909 4.28501 28.5439 4.11216L29.1839 2.02116C29.728 1.98716 30.2738 1.98716 30.8179 2.02116L31.4579 4.11216C31.5109 4.28501 31.6097 4.44026 31.7439 4.56141C31.878 4.68256 32.0425 4.76507 32.2199 4.80016C33.6945 5.09074 35.0962 5.67278 36.3429 6.51216C36.4932 6.61317 36.6682 6.67146 36.8491 6.68079C37.0299 6.69013 37.21 6.65016 37.3699 6.56516L39.3009 5.54016C39.5009 5.71916 39.7009 5.90716 39.8959 6.10116C40.0909 6.29516 40.2769 6.49316 40.4569 6.69616L39.4319 8.63016C39.3465 8.79013 39.3063 8.97029 39.3155 9.15137C39.3246 9.33244 39.3828 9.50762 39.4839 9.65816C40.3254 10.9046 40.9092 12.3068 41.2009 13.7822C41.2362 13.9597 41.319 14.1244 41.4405 14.2586C41.562 14.3928 41.7177 14.4915 41.8909 14.5442L43.9809 15.1832C44.0151 15.7273 44.0151 16.273 43.9809 16.8172L41.8909 17.4562C41.7177 17.5088 41.562 17.6075 41.4405 17.7417C41.319 17.8759 41.2362 18.0406 41.2009 18.2182C40.9103 19.6934 40.3283 21.0958 39.4889 22.3432C39.388 22.4936 39.3299 22.6686 39.3208 22.8495C39.3116 23.0303 39.3517 23.2103 39.4369 23.3702L40.4609 25.3002C40.2809 25.5002 40.0949 25.7002 39.8999 25.9002C39.7049 26.1002 39.5079 26.2822 39.3049 26.4612L37.3699 25.4322C37.21 25.3472 37.0299 25.3072 36.8491 25.3165C36.6682 25.3259 36.4932 25.3842 36.3429 25.4852C35.0964 26.3256 33.6947 26.9087 32.2199 27.2002C32.0425 27.2353 31.878 27.3178 31.7439 27.4389C31.6097 27.5601 31.5109 27.7153 31.4579 27.8882L30.8179 29.9792C30.2738 30.0132 29.728 30.0132 29.1839 29.9792L28.5439 27.8882C28.4909 27.7153 28.3921 27.5601 28.2579 27.4389C28.1237 27.3178 27.9592 27.2353 27.7819 27.2002C26.3069 26.9095 24.9048 26.3271 23.6579 25.4872C23.5075 25.3863 23.3325 25.3282 23.1516 25.319C22.9707 25.3099 22.7907 25.35 22.6309 25.4352L20.7009 26.4592C20.5009 26.2812 20.3009 26.0932 20.1009 25.8992C19.9009 25.7052 19.7199 25.5072 19.5399 25.2992L20.5689 23.3652C20.6542 23.2052 20.6945 23.025 20.6853 22.844C20.6762 22.6629 20.6179 22.4877 20.5169 22.3372C19.6771 21.0903 19.0951 19.6882 18.8049 18.2132C18.7696 18.0356 18.6868 17.8709 18.5653 17.7367C18.4438 17.6025 18.2881 17.5038 18.1149 17.4512L16.0259 16.8172ZM17.7259 21.3852C17.9601 21.9226 18.2294 22.444 18.5319 22.9462L17.6249 24.6462C17.4811 24.9114 17.4202 25.2137 17.4502 25.514C17.4801 25.8142 17.5995 26.0985 17.7929 26.3302C18.0742 26.6668 18.3742 26.9928 18.6929 27.3082C19.0116 27.6235 19.3379 27.9235 19.6719 28.2082C19.9035 28.4003 20.1873 28.5189 20.4867 28.5488C20.7862 28.5788 21.0878 28.5186 21.3529 28.3762L23.0599 27.4682C24.2197 28.1762 25.4814 28.702 26.8009 29.0272L27.3649 30.8742C27.4521 31.1621 27.6232 31.4175 27.8564 31.6076C28.0896 31.7977 28.3743 31.9138 28.6739 31.9412C29.1109 31.9812 29.5539 32.0002 29.9999 32.0002C30.4459 32.0002 30.8889 31.9812 31.3259 31.9412C31.6258 31.9138 31.9107 31.7974 32.144 31.6069C32.3772 31.4165 32.5482 31.1606 32.6349 30.8722L33.1989 29.0272C34.52 28.7037 35.7834 28.1789 36.9449 27.4712L38.6509 28.3782C38.9165 28.5216 39.219 28.5822 39.5193 28.5521C39.8197 28.522 40.1041 28.4025 40.3359 28.2092C40.6719 27.9292 40.9979 27.6292 41.3129 27.3092C41.6279 26.9892 41.9289 26.6682 42.2129 26.3322C42.4064 26.1008 42.526 25.8168 42.5563 25.5168C42.5866 25.2167 42.5262 24.9145 42.3829 24.6492L41.4749 22.9422C41.7771 22.44 42.046 21.9186 42.2799 21.3812L57.9739 27.0002L29.9579 36.9882L2.02789 27.0002L17.7259 21.3852ZM57.9739 48.0002L29.9579 57.9912L2.02789 48.0002L13.0409 44.0602L29.2829 49.8692C29.7465 50.0372 30.2543 50.0372 30.7179 49.8692L46.9609 44.0622L57.9739 48.0002ZM29.9579 47.9882L2.02789 38.0002L14.4409 33.5622L29.2829 38.8712C29.7465 39.0392 30.2543 39.0392 30.7179 38.8712L45.5609 33.5622L57.9739 38.0002L29.9579 47.9882Z" fill="#008080"/>
<path d="M27.3504 43.0594L16.1674 39.0594C15.9201 38.9793 15.6514 38.9987 15.4182 39.1133C15.185 39.228 15.0055 39.4289 14.9179 39.6736C14.8303 39.9182 14.8414 40.1874 14.9488 40.4241C15.0562 40.6607 15.2515 40.8462 15.4934 40.9414L26.6764 44.9414C26.7844 44.9804 26.8985 45.0004 27.0134 45.0004C27.2487 45 27.4763 44.9167 27.6563 44.7651C27.8362 44.6135 27.957 44.4033 27.9972 44.1714C28.0375 43.9396 27.9947 43.701 27.8764 43.4976C27.758 43.2941 27.5718 43.139 27.3504 43.0594ZM27.3504 53.0594L16.1674 49.0594C15.9201 48.9793 15.6514 48.9987 15.4182 49.1133C15.185 49.228 15.0055 49.4289 14.9179 49.6736C14.8303 49.9183 14.8414 50.1874 14.9488 50.4241C15.0562 50.6607 15.2515 50.8462 15.4934 50.9414L26.6764 54.9414C26.7844 54.9805 26.8985 55.0004 27.0134 55.0004C27.2487 55 27.4763 54.9167 27.6563 54.7651C27.8362 54.6135 27.957 54.4033 27.9972 54.1714C28.0375 53.9396 27.9947 53.701 27.8764 53.4976C27.758 53.2941 27.5718 53.139 27.3504 53.0594Z" fill="#008080"/>
</g>
<defs>
<clipPath id="clip0_1104_102">
<rect width="60" height="60" fill="white"/>
</clipPath>
</defs>
</svg>
