<svg width="60" height="60" viewBox="0 0 60 60" fill="none" xmlns="http://www.w3.org/2000/svg">
<path d="M46.875 15.9374C46.2089 15.9388 45.544 15.9962 44.8875 16.109C44.4723 12.4513 42.7251 9.07455 39.9793 6.6228C37.2334 4.17105 33.6811 2.81592 30 2.81592C26.3189 2.81592 22.7666 4.17105 20.0207 6.6228C17.2749 9.07455 15.5277 12.4513 15.1125 16.109C14.456 15.9962 13.7911 15.9388 13.125 15.9374C9.89267 15.9374 6.79274 17.2214 4.50714 19.507C2.22154 21.7926 0.9375 24.8926 0.9375 28.1249C0.9375 31.3572 2.22154 34.4572 4.50714 36.7428C6.79274 39.0284 9.89267 40.3124 13.125 40.3124H17.8125V44.324L12.8287 45.9861C12.6421 46.0483 12.4798 46.1676 12.3647 46.3271C12.2497 46.4866 12.1876 46.6782 12.1875 46.8749V49.8205C11.3038 50.0487 10.5336 50.5914 10.0213 51.3468C9.50905 52.1022 9.28988 53.0185 9.40489 53.924C9.5199 54.8294 9.96118 55.6618 10.646 56.2652C11.3309 56.8686 12.2123 57.2014 13.125 57.2014C14.0377 57.2014 14.9191 56.8686 15.604 56.2652C16.2888 55.6618 16.7301 54.8294 16.8451 53.924C16.9601 53.0185 16.741 52.1022 16.2287 51.3468C15.7164 50.5914 14.9462 50.0487 14.0625 49.8205V47.5508L19.0462 45.8886C19.2329 45.8265 19.3952 45.7072 19.5103 45.5477C19.6253 45.3882 19.6874 45.1966 19.6875 44.9999V40.3124H29.0625V49.8205C28.1788 50.0487 27.4086 50.5914 26.8963 51.3468C26.384 52.1022 26.1649 53.0185 26.2799 53.924C26.3949 54.8294 26.8362 55.6618 27.521 56.2652C28.2059 56.8686 29.0873 57.2014 30 57.2014C30.9127 57.2014 31.7941 56.8686 32.479 56.2652C33.1638 55.6618 33.6051 54.8294 33.7201 53.924C33.8351 53.0185 33.6159 52.1022 33.1037 51.3468C32.5914 50.5914 31.8212 50.0487 30.9375 49.8205V40.3124H40.3125V44.9999C40.3126 45.1966 40.3747 45.3882 40.4897 45.5477C40.6048 45.7072 40.7671 45.8265 40.9537 45.8886L45.9375 47.5508V49.8205C45.0538 50.0487 44.2836 50.5914 43.7713 51.3468C43.2591 52.1022 43.0399 53.0185 43.1549 53.924C43.2699 54.8294 43.7112 55.6618 44.396 56.2652C45.0809 56.8686 45.9623 57.2014 46.875 57.2014C47.7877 57.2014 48.6691 56.8686 49.354 56.2652C50.0388 55.6618 50.4801 54.8294 50.5951 53.924C50.7101 53.0185 50.4909 52.1022 49.9787 51.3468C49.4664 50.5914 48.6962 50.0487 47.8125 49.8205V46.8749C47.8124 46.6782 47.7503 46.4866 47.6353 46.3271C47.5202 46.1676 47.3579 46.0483 47.1713 45.9861L42.1875 44.324V40.3124H46.875C50.1073 40.3124 53.2073 39.0284 55.4929 36.7428C57.7785 34.4572 59.0625 31.3572 59.0625 28.1249C59.0625 24.8926 57.7785 21.7926 55.4929 19.507C53.2073 17.2214 50.1073 15.9374 46.875 15.9374ZM15 53.4374C15 53.8082 14.89 54.1708 14.684 54.4791C14.478 54.7874 14.1851 55.0278 13.8425 55.1697C13.4999 55.3116 13.1229 55.3487 12.7592 55.2764C12.3955 55.204 12.0614 55.0254 11.7992 54.7632C11.537 54.501 11.3584 54.1669 11.286 53.8032C11.2137 53.4395 11.2508 53.0625 11.3927 52.7199C11.5346 52.3773 11.775 52.0844 12.0833 51.8784C12.3916 51.6724 12.7542 51.5624 13.125 51.5624C13.6223 51.5624 14.0992 51.7599 14.4508 52.1116C14.8025 52.4632 15 52.9401 15 53.4374ZM31.875 53.4374C31.875 53.8082 31.765 54.1708 31.559 54.4791C31.353 54.7874 31.0601 55.0278 30.7175 55.1697C30.3749 55.3116 29.9979 55.3487 29.6342 55.2764C29.2705 55.204 28.9364 55.0254 28.6742 54.7632C28.412 54.501 28.2334 54.1669 28.161 53.8032C28.0887 53.4395 28.1258 53.0625 28.2677 52.7199C28.4096 52.3773 28.65 52.0844 28.9583 51.8784C29.2666 51.6724 29.6292 51.5624 30 51.5624C30.4973 51.5624 30.9742 51.7599 31.3258 52.1116C31.6775 52.4632 31.875 52.9401 31.875 53.4374ZM48.75 53.4374C48.75 53.8082 48.64 54.1708 48.434 54.4791C48.228 54.7874 47.9351 55.0278 47.5925 55.1697C47.2499 55.3116 46.8729 55.3487 46.5092 55.2764C46.1455 55.204 45.8114 55.0254 45.5492 54.7632C45.2869 54.501 45.1084 54.1669 45.036 53.8032C44.9637 53.4395 45.0008 53.0625 45.1427 52.7199C45.2846 52.3773 45.525 52.0844 45.8333 51.8784C46.1416 51.6724 46.5042 51.5624 46.875 51.5624C47.3723 51.5624 47.8492 51.7599 48.2008 52.1116C48.5525 52.4632 48.75 52.9401 48.75 53.4374ZM46.875 38.4374H13.125C11.6561 38.4437 10.2029 38.136 8.86253 37.5352C7.52217 36.9343 6.32565 36.054 5.35305 34.9533C4.38046 33.8525 3.65424 32.5567 3.22301 31.1525C2.79178 29.7484 2.66549 28.2683 2.85259 26.8114C3.0397 25.3545 3.53589 23.9543 4.30793 22.7047C5.07998 21.4551 6.11007 20.3848 7.32925 19.5656C8.54842 18.7463 9.92856 18.1969 11.3772 17.9542C12.8259 17.7115 14.3098 17.7811 15.7294 18.1583C15.8649 18.1936 16.0067 18.198 16.1442 18.1713C16.2817 18.1446 16.4115 18.0874 16.524 18.004C16.6365 17.9205 16.7288 17.8129 16.7943 17.6891C16.8597 17.5652 16.8966 17.4283 16.9022 17.2883C17.0304 13.9003 18.4664 10.6938 20.9087 8.34219C23.351 5.99057 26.6096 4.6768 30 4.6768C33.3904 4.6768 36.6489 5.99057 39.0913 8.34219C41.5336 10.6938 42.9696 13.9003 43.0978 17.2883C43.1034 17.4283 43.1403 17.5652 43.2057 17.6891C43.2712 17.8129 43.3635 17.9205 43.476 18.004C43.5885 18.0874 43.7183 18.1446 43.8558 18.1713C43.9933 18.198 44.1351 18.1936 44.2706 18.1583C45.688 17.787 47.1682 17.7221 48.6126 17.9679C50.0571 18.2138 51.4325 18.7647 52.6472 19.584C53.8619 20.4034 54.888 21.4722 55.657 22.7194C56.426 23.9665 56.9203 25.3633 57.107 26.8166C57.2936 28.2698 57.1683 29.7462 56.7393 31.1472C56.3104 32.5482 55.5877 33.8417 54.6195 34.9413C53.6512 36.041 52.4597 36.9216 51.1242 37.5245C49.7888 38.1273 48.3402 38.4386 46.875 38.4374Z" fill="#008080"/>
<path d="M41.6034 20.6944L39.6938 19.9172C39.5914 19.6396 39.4772 19.3666 39.3516 19.0987L40.2206 17.2791C40.3036 17.1037 40.3301 16.9069 40.2966 16.7158C40.263 16.5247 40.1709 16.3488 40.0331 16.2122L37.2206 13.3997C37.0835 13.2627 36.9073 13.1715 36.7162 13.1388C36.5252 13.106 36.3287 13.1333 36.1537 13.2169L34.3341 14.0859C34.0622 13.9609 33.7891 13.8469 33.5147 13.7437L32.7384 11.835C32.6686 11.6629 32.5493 11.5155 32.3956 11.4113C32.2419 11.3072 32.0607 11.251 31.875 11.25H28.125C27.9385 11.2501 27.7563 11.3058 27.6017 11.41C27.447 11.5143 27.327 11.6622 27.2569 11.835L26.4806 13.7437C26.2069 13.8437 25.9338 13.9578 25.6612 14.0859L23.8416 13.2188C23.6667 13.1352 23.4701 13.1079 23.2791 13.1406C23.088 13.1734 22.9118 13.2645 22.7747 13.4016L19.9622 16.2141C19.8244 16.3506 19.7323 16.5266 19.6988 16.7177C19.6652 16.9088 19.6917 17.1056 19.7747 17.2809L20.6438 19.1006C20.5188 19.3725 20.4047 19.6456 20.3016 19.92L18.3928 20.6962C18.2212 20.767 18.0744 20.887 17.9711 21.0413C17.8678 21.1955 17.8126 21.3769 17.8125 21.5625V25.3125C17.8126 25.499 17.8683 25.6812 17.9725 25.8358C18.0768 25.9905 18.2247 26.1105 18.3975 26.1806L20.3062 26.9569C20.4075 27.2312 20.5216 27.5044 20.6484 27.7763L19.7813 29.5959C19.6983 29.7713 19.6717 29.9681 19.7053 30.1592C19.7389 30.3503 19.8309 30.5262 19.9687 30.6628L22.7812 33.4753C22.9178 33.6131 23.0938 33.7052 23.2849 33.7387C23.476 33.7723 23.6728 33.7458 23.8481 33.6628L25.6678 32.7947C25.9397 32.9212 26.2134 33.0347 26.4863 33.1359L27.2634 35.0456C27.334 35.2163 27.4534 35.3624 27.6067 35.4655C27.76 35.5685 27.9403 35.624 28.125 35.625H31.875C32.0614 35.625 32.2435 35.5694 32.3981 35.4653C32.5528 35.3613 32.6729 35.2136 32.7431 35.0409L33.5203 33.1313C33.7931 33.03 34.0669 32.9166 34.3387 32.79L36.1584 33.6581C36.3338 33.7411 36.5306 33.7676 36.7217 33.7341C36.9128 33.7005 37.0887 33.6084 37.2253 33.4706L40.0378 30.6581C40.1756 30.5216 40.2677 30.3456 40.3012 30.1545C40.3348 29.9634 40.3083 29.7666 40.2253 29.5912L39.3562 27.7716C39.4812 27.5003 39.5953 27.2272 39.6984 26.9522L41.6081 26.1759C41.7791 26.1053 41.9254 25.9856 42.0285 25.8319C42.1316 25.6783 42.1869 25.4975 42.1875 25.3125V21.5625C42.1875 21.3761 42.1319 21.194 42.0278 21.0394C41.9238 20.8847 41.7761 20.7646 41.6034 20.6944ZM40.3125 24.6816L38.5913 25.3819C38.4635 25.4339 38.3487 25.5134 38.2552 25.6149C38.1617 25.7163 38.0917 25.8372 38.0503 25.9688C37.9004 26.4401 37.709 26.8972 37.4784 27.3347C37.4109 27.4638 37.3744 27.6068 37.3718 27.7524C37.3692 27.8981 37.4006 28.0423 37.4634 28.1737L38.2434 29.8059L36.3684 31.6809L34.7362 30.9009C34.605 30.8382 34.4609 30.8069 34.3154 30.8095C34.1699 30.8121 34.0271 30.8486 33.8981 30.9159C33.46 31.1459 33.0026 31.3373 32.5313 31.4878C32.3997 31.5292 32.2788 31.5992 32.1774 31.6927C32.0759 31.7862 31.9964 31.901 31.9444 32.0288L31.2441 33.75H28.7559L28.0556 32.0288C28.0036 31.901 27.9241 31.7862 27.8226 31.6927C27.7212 31.5992 27.6003 31.5292 27.4687 31.4878C26.9974 31.3373 26.54 31.1459 26.1019 30.9159C25.9729 30.8486 25.8301 30.8121 25.6846 30.8095C25.5391 30.8069 25.395 30.8382 25.2638 30.9009L23.6316 31.6809L21.7566 29.8059L22.5366 28.1737C22.5994 28.0423 22.6308 27.8981 22.6282 27.7524C22.6256 27.6068 22.5891 27.4638 22.5216 27.3347C22.2912 26.8972 22.1001 26.4401 21.9506 25.9688C21.9091 25.8371 21.839 25.7162 21.7453 25.6147C21.6516 25.5133 21.5367 25.4338 21.4088 25.3819L19.6875 24.6816V22.1934L21.4088 21.4931C21.5367 21.4412 21.6516 21.3617 21.7453 21.2603C21.839 21.1588 21.9091 21.0379 21.9506 20.9062C22.1001 20.4349 22.2912 19.9778 22.5216 19.5403C22.5891 19.4112 22.6256 19.2682 22.6282 19.1226C22.6308 18.9769 22.5994 18.8327 22.5366 18.7013L21.7566 17.0691L23.6316 15.1941L25.2638 15.9741C25.395 16.0368 25.5391 16.0681 25.6846 16.0655C25.8301 16.0629 25.9729 16.0264 26.1019 15.9591C26.5397 15.7287 26.9971 15.5377 27.4687 15.3881C27.6004 15.3466 27.7213 15.2765 27.8228 15.1828C27.9242 15.0891 28.0037 14.9742 28.0556 14.8463L28.7559 13.125H31.2441L31.9444 14.8463C31.9963 14.9742 32.0758 15.0891 32.1772 15.1828C32.2787 15.2765 32.3996 15.3466 32.5313 15.3881C33.0029 15.5377 33.4603 15.7287 33.8981 15.9591C34.0271 16.0264 34.1699 16.0629 34.3154 16.0655C34.4609 16.0681 34.605 16.0368 34.7362 15.9741L36.3684 15.1941L38.2434 17.0691L37.4634 18.7013C37.4006 18.8327 37.3692 18.9769 37.3718 19.1226C37.3744 19.2682 37.4109 19.4112 37.4784 19.5403C37.7089 19.9782 37.9002 20.4356 38.0503 20.9072C38.0919 21.0386 38.1619 21.1593 38.2554 21.2605C38.3489 21.3618 38.4636 21.4412 38.5913 21.4931L40.3125 22.1934V24.6816Z" fill="#008080"/>
<path d="M30 16.875C28.7021 16.875 27.4333 17.2599 26.3541 17.981C25.2749 18.7021 24.4337 19.727 23.937 20.9261C23.4403 22.1253 23.3104 23.4448 23.5636 24.7178C23.8168 25.9908 24.4418 27.1601 25.3596 28.0779C26.2774 28.9957 27.4467 29.6207 28.7197 29.8739C29.9927 30.1271 31.3122 29.9972 32.5114 29.5005C33.7105 29.0038 34.7354 28.1626 35.4565 27.0834C36.1776 26.0042 36.5625 24.7354 36.5625 23.4375C36.5605 21.6976 35.8685 20.0296 34.6382 18.7993C33.4079 17.569 31.7399 16.877 30 16.875ZM30 28.125C29.0729 28.125 28.1666 27.8501 27.3958 27.335C26.6249 26.8199 26.0241 26.0879 25.6693 25.2313C25.3145 24.3748 25.2217 23.4323 25.4026 22.523C25.5834 21.6137 26.0299 20.7785 26.6854 20.1229C27.341 19.4674 28.1762 19.0209 29.0855 18.8401C29.9948 18.6592 30.9373 18.752 31.7938 19.1068C32.6504 19.4616 33.3824 20.0624 33.8975 20.8333C34.4126 21.6041 34.6875 22.5104 34.6875 23.4375C34.686 24.6802 34.1917 25.8717 33.3129 26.7504C32.4342 27.6292 31.2427 28.1235 30 28.125Z" fill="#008080"/>
</svg>
