<svg width="91" height="80" viewBox="0 0 91 80" fill="none" xmlns="http://www.w3.org/2000/svg">
<g clip-path="url(#clip0_1132_1866)">
<path d="M89.2756 35.1944L71.5679 4.80559C70.035 2.16689 66.2644 0 63.181 0H27.8009C24.7351 0 20.9468 2.16689 19.4139 4.80559L1.7239 35.1944C0.190993 37.8331 0.190993 42.1494 1.7239 44.7881L19.4139 75.1944C20.9468 77.8331 24.7174 80 27.8009 80H63.1986C66.2644 80 70.035 77.8331 71.5855 75.1944L89.2756 44.7881C90.8085 42.1494 90.8085 37.8331 89.2756 35.1944ZM41.6675 16.8108C41.6675 14.8187 43.3061 13.1935 45.3147 13.1935C47.3233 13.1935 48.962 14.8187 48.962 16.8108V38.4273C48.962 40.4194 47.3233 42.0446 45.3147 42.0446C43.3061 42.0446 41.6675 40.4194 41.6675 38.4273V16.8108ZM45.3147 62.962C31.6772 62.962 20.5768 51.9528 20.5768 38.4273C20.5945 30.6684 24.2946 23.3814 30.5671 18.7331C32.0119 17.6671 34.0382 17.9642 35.113 19.3971C36.1878 20.8301 35.8882 22.8397 34.4434 23.9056C26.3561 29.8646 24.6646 41.2058 30.6729 49.2267C36.6811 57.2477 48.1162 58.9253 56.2036 52.9664C60.8376 49.5588 63.5686 44.159 63.5686 38.4273C63.551 32.678 60.8023 27.2783 56.1331 23.8532C54.6883 22.8047 54.3888 20.7776 55.446 19.3447C56.5031 17.9118 58.547 17.6147 59.9918 18.6632C66.3172 23.294 70.035 30.6335 70.0526 38.4273C70.0526 51.9703 58.9523 62.962 45.3147 62.962Z" fill="#6DB33F"/>
</g>
<defs>
<clipPath id="clip0_1132_1866">
<rect width="91" height="80" fill="white"/>
</clipPath>
</defs>
</svg>
