<svg width="73" height="80" viewBox="0 0 73 80" fill="none" xmlns="http://www.w3.org/2000/svg">
<path d="M28.3258 0C22.0689 2.80349 15.874 5.662 11.0918 9.77228C11.9933 10.1228 13.0052 10.8272 13.9908 11.1157C13.9799 11.112 14.0374 11.4212 13.9908 11.1157C18.262 12.3677 23.3201 13.1246 28.1898 13.8362C28.1753 13.8253 28.0666 13.4301 28.0482 13.4229C27.665 13.1966 26.5442 12.919 26.2303 12.7037C28.0518 12.1487 30.2423 11.1668 31.3374 10.2069C31.9873 11.3824 33.3198 12.9229 33.8892 13.6893C32.5386 13.7734 30.6439 13.5432 29.2896 13.6237H29.2642C29.4687 13.653 29.3583 14.2459 29.5592 14.2789C29.6103 14.2861 29.8356 14.404 29.8868 14.4113C31.672 14.6777 35.2547 14.5654 35.251 14.5654H35.2547C32.0859 10.0094 29.87 5.12158 28.3258 0ZM27.72 2.23039C28.4026 4.38063 29.2022 6.20941 30.2096 7.46508C26.7272 7.38828 23.135 7.00873 19.3274 6.03401C21.7807 4.42057 24.6171 3.19422 27.72 2.23039ZM17.1373 11.4441C16.4399 11.1009 16.0788 10.5898 14.2207 10.2649C14.7426 8.96905 15.7028 7.89212 16.9549 7.40671C17.8676 8.62245 18.9297 10.1555 20.5761 11.2106C19.4299 11.2871 18.2874 11.3676 17.1448 11.448C17.1445 11.4477 17.1409 11.4477 17.1373 11.4441ZM24.6791 12.3347C22.1711 11.057 19.6453 8.59313 18.3566 6.82608C22.0036 7.92479 27.1103 9.14053 30.7573 9.26091C29.2639 10.4001 26.9824 11.5245 24.6791 12.3347Z" fill="url(#paint0_linear_1203_2700)"/>
<path d="M42.8037 39.17C42.8 39.1627 42.8 39.1555 42.8 39.1482C42.8037 39.17 42.2504 39.0641 42.0094 39.1482C38.3918 40.3785 34.8775 41.4012 31.3911 42.646C28.558 43.657 25.5261 44.5993 22.7935 45.7411C19.0332 47.3121 15.639 49.5768 12.0957 51.6399C11.8438 54.4434 12.3183 57.0464 13.8516 59.3642C9.87982 60.3973 5.90807 61.434 1.93632 62.4671C2.18461 59.2217 4.0536 57.0606 6.77694 55.0567C-13.589 69.8193 16.688 79.3835 35.2542 80.0005C41.891 65.3038 44.4462 53.1696 42.8037 39.17ZM31.6696 44.2039C32.093 46.5985 31.1805 50.0885 30.6949 52.7861C29.6143 52.2895 26.8764 50.5521 24.7374 46.8834C26.8253 46.1315 29.5816 44.956 31.6696 44.2039ZM33.9184 43.1088C37.3425 44.2659 40.1608 45.7263 41.6393 47.8581C38.4998 49.4606 34.6887 51.6729 31.5459 53.2754C32.115 50.0885 33.3526 46.2957 33.9184 43.1088ZM30.4686 54.5822C29.943 58.0099 26.5991 63.022 23.6423 66.1213C20.7765 64.6137 18.2981 62.7556 16.7721 60.0322C21.0977 59.222 26.7086 56.1264 30.4686 54.5822ZM16.104 58.9081C18.0498 55.3746 21.7585 51.023 23.7043 47.493C25.325 50.8808 27.8403 52.706 29.7824 53.8231C26.0844 55.8491 19.9663 58.5065 16.104 58.9081ZM14.0342 51.326C16.5495 50.2711 19.0609 49.216 21.5761 48.1611C20.1889 51.5413 18.0205 54.8087 15.4943 58.0247C13.815 56.7433 13.0886 53.5455 14.0342 51.326ZM6.25132 70.8708C3.19228 69.5202 1.91817 66.8625 1.85616 63.3217C5.79496 62.4274 9.73376 61.5365 13.6692 60.6422C12.3038 64.3509 9.73013 67.7314 6.25132 70.8708ZM15.1913 61.1276C16.6699 63.2083 18.7799 65.0555 21.8791 67.096C17.2723 69.0672 12.5448 70.4399 7.77372 71.6006C10.778 68.3371 13.3223 64.8765 15.1913 61.1276ZM8.50377 72.0243C13.4028 71.1409 18.7251 69.3194 23.2153 67.702C22.6458 70.6114 20.1196 73.7654 17.4401 76.1055C14.2423 75.2987 11.2159 74.0502 8.50377 72.0243ZM24.5986 68.3154C28.0665 70.3486 32.0676 70.9328 35.8639 71.6593C30.5818 74.0575 24.7628 75.4958 18.7469 76.5912C21.3278 73.8204 23.2334 71.3342 24.5986 68.3154ZM34.3454 78.9054C29.9612 78.7666 25.6791 78.1496 21.4557 77.2006C26.7636 75.9849 31.9218 74.3094 36.9886 72.36C36.2108 74.7256 35.6048 76.9451 34.3454 78.9054ZM37.9924 70.6262C34.1374 69.9215 28.775 69.5641 25.7705 67.1546C30.5527 65.1251 36.0064 62.9128 40.7886 60.8869C40.2409 64.3766 39.1458 67.4392 37.9924 70.6262ZM24.6754 66.7896C27.0518 64.3366 30.5306 58.6344 31.2864 54.8819C34.5426 57.1927 38.4339 59.1821 40.8799 59.5471C36.4627 61.27 29.0959 65.0664 24.6754 66.7896ZM41.431 57.7764C37.9558 57.448 34.63 56.2322 31.8958 54.0675C35.1375 52.3809 38.8244 50.6982 42.0661 49.0115C42.2085 52.1583 41.7742 54.6917 41.431 57.7764ZM42.1284 46.336C40.8104 44.4742 38.7224 43.2842 36.1086 42.5614C37.9522 42.1087 39.7955 41.6559 41.639 41.2071C42.015 42.9152 42.2378 44.6236 42.1284 46.336Z" fill="url(#paint1_linear_1203_2700)"/>
<path d="M71.6195 31.2482C62.2123 19.6287 49.7569 16.9018 35.2535 14.5655H35.2498C33.5378 14.2882 31.7964 14.0178 30.0296 13.7369L29.8727 13.7151C29.6791 13.6821 29.4856 13.6531 29.2887 13.6238C28.8762 13.5581 28.4637 13.4886 28.0475 13.423C24.5104 12.8535 20.8743 12.2329 17.1436 11.4481C17.1436 11.4481 17.14 11.4481 17.1363 11.4445C16.1877 11.2453 15.241 11.0372 14.2962 10.8203C14.1831 10.7946 14.0737 10.7655 13.9642 10.7398C13.9533 10.7362 13.9385 10.7326 13.9276 10.7289C12.4893 10.3675 11.5182 9.96593 11.0911 9.77266C11.0328 9.74725 10.9817 9.72518 10.9451 9.70703C11.2188 9.86399 12.022 10.3421 13.4201 11.3571C27.3211 21.469 27.7227 34.9172 12.2083 49.8549C10.8685 51.1472 9.41569 52.695 8.01758 54.1845C8.05416 54.1624 8.08684 54.1406 8.12343 54.1188C9.44111 53.2974 10.7554 52.4724 12.077 51.651C12.0843 51.6474 12.0879 51.6438 12.0952 51.6402C18.4325 48.3071 25.0106 45.4598 31.4099 43.0579C34.9296 41.739 38.4853 40.518 42.0728 39.3965C42.3175 39.3163 42.5582 39.2431 42.8029 39.1702C55.9445 35.0999 66.9981 33.0885 71.5687 32.8039C72.5213 32.7449 72.6015 32.4601 71.6195 31.2482ZM57.9961 21.9248C52.5752 23.4871 47.4391 25.579 42.5839 28.1962C44.139 25.5424 45.6175 21.2603 45.7161 18.1209C49.7714 18.9386 54.1045 20.2932 57.9961 21.9248ZM41.3062 27.5868C39.5321 26.0719 37.4037 25.0022 34.9837 24.3012C38.0684 21.5634 41.4157 19.4461 44.9858 17.8472C44.296 21.2603 43.2919 24.5788 41.3062 27.5868ZM24.4919 23.1804C26.6422 23.7865 28.7921 24.3923 30.9387 24.9983C28.8323 26.8564 26.8466 28.7145 24.7366 30.569C24.857 28.3096 24.7877 25.7725 24.4919 23.1804ZM32.2165 25.579L28.4162 35.2272C27.511 33.9788 26.2333 33.2415 24.6782 32.8837C27.1896 30.4486 29.7048 28.0138 32.2165 25.579ZM28.2665 37.0524C29.4602 38.3885 29.5004 40.6298 29.723 42.5317C26.3718 43.5902 22.4073 45.2366 18.5051 47.314C21.484 44.1963 25.284 40.1698 28.2665 37.0524ZM33.4649 26.1264C35.6405 26.6229 37.4037 27.5354 38.937 28.6819C35.6022 31.0356 32.2681 33.3902 28.9346 35.7456C30.4422 32.5405 31.9537 29.3315 33.4649 26.1264ZM43.467 17.3288C39.9734 19.0006 36.7136 21.0961 33.7056 23.6589C33.3297 21.0012 32.9571 18.3437 32.5812 15.6863C36.334 15.7737 39.9553 16.3468 43.467 17.3288ZM32.3075 23.4178C29.9056 22.6439 27.5035 21.8736 25.1013 21.1034C26.7039 18.5845 29.208 17.1461 31.6395 15.624L32.3075 23.4178ZM15.8441 12.1488C17.0196 12.1782 18.3409 12.4189 19.7792 12.9884C20.8014 14.5909 21.5133 16.6937 21.8052 18.38C20.3632 16.2848 18.0926 13.8355 15.8441 12.1488ZM23.6122 20.3733C23.134 18.3292 22.6483 16.2812 21.6519 13.6528C24.5503 13.8863 27.5912 14.2114 30.4092 15.1749C27.9635 16.5987 25.4923 18.2999 23.6122 20.3733ZM23.8275 34.7416C24.8424 34.9387 25.7585 35.468 26.5324 36.4757C25.01 37.5015 23.4915 38.5273 21.973 39.5492C22.7799 38.0416 23.5063 36.4938 23.8275 34.7416ZM21.608 40.3416C21.8415 41.0716 22.0716 41.8017 22.3051 42.5317C20.4141 43.8313 18.5269 45.1308 16.6358 46.4306C19.2718 43.8824 20.5093 41.9841 21.608 40.3416ZM30.7561 42.1667C30.6064 39.9947 30.1537 38.0855 29.3543 36.4793C33.0049 34.1942 36.6552 31.9127 40.3021 29.6272C37.3051 33.6867 33.7568 38.1109 30.7561 42.1667ZM32.7019 41.3453C35.5601 37.7531 38.7214 34.0699 41.5799 30.478C44.2996 31.7191 46.4934 33.6319 48.7238 36.1726C43.3832 37.8956 38.0424 39.6224 32.7019 41.3453ZM43.4343 28.8059C48.5121 26.309 53.9842 24.5311 59.5476 22.9285C56.693 27.2907 53.2798 31.5364 49.9395 35.8986C48.5012 33.2303 46.2524 30.6603 43.4343 28.8059ZM51.458 35.4973C54.9843 31.6934 57.7515 27.6342 60.3067 23.5055C64.4318 25.6264 67.7609 28.4556 70.4295 31.8761C64.1947 32.4709 57.8573 33.7668 51.458 35.4973Z" fill="url(#paint2_radial_1203_2700)"/>
<defs>
<linearGradient id="paint0_linear_1203_2700" x1="11.0918" y1="0" x2="35.2547" y2="0" gradientUnits="userSpaceOnUse">
<stop stop-color="#868789"/>
<stop offset="1" stop-color="white"/>
</linearGradient>
<linearGradient id="paint1_linear_1203_2700" x1="0" y1="39.1152" x2="43.2866" y2="39.1152" gradientUnits="userSpaceOnUse">
<stop stop-color="#868789"/>
<stop offset="1" stop-color="white"/>
</linearGradient>
<radialGradient id="paint2_radial_1203_2700" cx="0" cy="0" r="1" gradientUnits="userSpaceOnUse" gradientTransform="translate(36.9273 29.7161) scale(64.2525 44.498)">
<stop stop-color="#E75A47"/>
<stop offset="1" stop-color="#9A2123"/>
</radialGradient>
</defs>
</svg>
