<svg width="60" height="60" viewBox="0 0 60 60" fill="none" xmlns="http://www.w3.org/2000/svg">
<path d="M2.94141 37.2331V51.5513C2.94141 53.0702 4.17668 54.3054 5.6952 54.3054H10.5443C12.0628 54.3054 13.2981 53.0701 13.2981 51.5513V50.3723H37.0281C39.2858 50.3737 41.4955 49.7199 43.389 48.4903L55.23 40.8113C57.2598 39.4952 57.6718 36.6867 56.0945 34.8432C54.7338 33.2531 52.4231 32.9712 50.7196 34.1871L43.956 39.0187H39.3007C39.9257 38.3148 40.3106 37.3928 40.3226 36.3828C40.3495 34.1257 38.5301 32.2837 36.2716 32.2837H26.8174C24.771 32.2837 22.8091 33.1531 21.435 34.6688L16.4868 40.1255C16.3336 40.2942 16.1469 40.4291 15.9386 40.5215C15.7302 40.6139 15.5049 40.6617 15.277 40.6619H13.2982V37.233C13.2982 35.7142 12.0629 34.479 10.5444 34.479H5.6952C4.17656 34.4791 2.94141 35.7144 2.94141 37.2331ZM15.2769 41.9941C16.112 41.9941 16.9129 41.6393 17.4735 41.0206L22.4217 35.564C22.9783 34.9511 23.6569 34.4612 24.4138 34.1257C25.1708 33.7903 25.9895 33.6166 26.8174 33.6159H36.2716C37.7868 33.6159 39.0089 34.8515 38.9906 36.3674C38.9748 37.7041 37.9859 38.8113 36.7085 39.019C25.7714 38.9908 35.0092 39.0177 28.7598 39.019C28.5832 39.019 28.4138 39.0891 28.2889 39.214C28.164 39.3389 28.0938 39.5083 28.0938 39.6849C28.0938 39.8616 28.164 40.031 28.2889 40.1559C28.4138 40.2808 28.5832 40.3509 28.7598 40.3509H44.1694C44.3082 40.3509 44.4436 40.3077 44.5564 40.2271L51.4938 35.2715C52.631 34.4593 54.174 34.6472 55.0825 35.7091C56.1305 36.9333 55.8671 38.8113 54.5052 39.6937L42.6642 47.3727C40.9865 48.4623 39.0286 49.0416 37.0281 49.0403H13.2981V41.9941H15.2769ZM11.966 37.2331V51.5513C11.966 52.3355 11.328 52.9734 10.5443 52.9734H5.6952C4.91133 52.9734 4.27348 52.3355 4.27348 51.5513V37.2331C4.27348 36.449 4.91145 35.8111 5.6952 35.8111H10.5443C11.3282 35.8112 11.966 36.449 11.966 37.2331ZM13.3863 18.1197C10.9567 18.1197 8.97996 20.0965 8.97996 22.5263C8.97996 24.9558 10.9567 26.9324 13.3863 26.9324C15.816 26.9324 17.7927 24.9556 17.7927 22.5263C17.7927 21.5794 17.4895 20.7034 16.9793 19.9843L23.5929 13.601C24.3342 14.1671 25.2568 14.5077 26.2596 14.5077C27.0727 14.5077 27.8324 14.2823 28.4869 13.8968L33.1016 19.5722C32.3919 20.3547 31.9553 21.3892 31.9553 22.5262C31.9553 24.9556 33.932 26.9322 36.3616 26.9322C38.7913 26.9322 40.768 24.9555 40.768 22.5262C40.768 21.5581 40.4504 20.6648 39.9192 19.9369L46.2739 13.6363C47.0072 14.1811 47.9118 14.5076 48.8933 14.5076C51.323 14.5076 53.2997 12.5308 53.2997 10.1014C53.2997 7.67154 51.323 5.69482 48.8933 5.69482C46.4637 5.69482 44.487 7.67154 44.487 10.1014C44.487 11.0695 44.8045 11.9626 45.336 12.6906L38.9811 18.9912C38.2479 18.4463 37.3433 18.1196 36.3616 18.1196C35.5485 18.1196 34.7886 18.345 34.1341 18.7308L29.5196 13.0554C30.2293 12.2728 30.6661 11.2384 30.6661 10.1015C30.6661 7.67166 28.6894 5.69494 26.2597 5.69494C23.8301 5.69494 21.8534 7.67166 21.8534 10.1015C21.8534 11.0485 22.1565 11.9245 22.667 12.6436L16.0534 19.0267C15.312 18.4603 14.3892 18.1197 13.3863 18.1197ZM13.3863 25.6004C11.6911 25.6004 10.312 24.2216 10.312 22.5263C10.312 20.8311 11.6911 19.4518 13.3863 19.4518C15.0816 19.4518 16.4606 20.8312 16.4606 22.5263C16.4606 24.2215 15.0814 25.6004 13.3863 25.6004ZM48.8932 7.02701C50.5884 7.02701 51.9675 8.40643 51.9675 10.1015C51.9675 11.7967 50.5884 13.1756 48.8932 13.1756C47.198 13.1756 45.8189 11.7968 45.8189 10.1015C45.8189 8.40631 47.198 7.02701 48.8932 7.02701ZM39.4358 22.5263C39.4358 24.2216 38.0568 25.6004 36.3615 25.6004C34.6663 25.6004 33.2872 24.2216 33.2872 22.5263C33.2872 20.8311 34.6663 19.4518 36.3615 19.4518C38.0568 19.4517 39.4358 20.8311 39.4358 22.5263ZM26.2595 7.02701C27.9547 7.02701 29.3338 8.40643 29.3338 10.1015C29.3338 11.7967 27.9547 13.1756 26.2595 13.1756C24.5643 13.1756 23.1852 11.7968 23.1852 10.1015C23.1852 8.40631 24.5644 7.02701 26.2595 7.02701Z" fill="#008080"/>
</svg>
