<svg width="80" height="80" viewBox="0 0 80 80" fill="none" xmlns="http://www.w3.org/2000/svg">
<path d="M68.9902 10.583C61.602 -0.0585711 46.8935 -3.1765 36.3196 3.53382L17.6798 15.4633C12.5962 18.649 9.07161 23.8681 8.05489 29.7651C7.17373 34.7131 7.91933 39.7967 10.2917 44.2024C8.66492 46.6425 7.58042 49.3538 7.10595 52.2006C6.02145 58.2331 7.44486 64.4689 10.9695 69.417C18.4254 80.0586 33.0661 83.1765 43.64 76.4662L62.2798 64.6045C67.3634 61.4188 70.888 56.1997 71.9048 50.3027C72.7859 45.3547 72.0403 40.2711 69.668 35.8654C71.2947 33.4252 72.3792 30.714 72.8537 27.8672C74.006 21.7669 72.5826 15.5311 68.9902 10.583Z" fill="#FF3E00"/>
<path d="M34.4885 70.4338C28.456 71.9927 22.1523 69.6204 18.6277 64.5368C16.4587 61.5544 15.6453 57.8265 16.2553 54.1663C16.3909 53.5563 16.5265 53.014 16.662 52.404L17.0009 51.3195L17.9499 51.9973C20.1867 53.6241 22.6268 54.8441 25.2702 55.6575L25.9481 55.8608L25.8803 56.5386C25.8125 57.4876 26.0836 58.5043 26.6259 59.3177C27.7104 60.8766 29.6082 61.6222 31.4383 61.1478C31.845 61.0122 32.2517 60.8766 32.5906 60.6733L51.1627 48.8116C52.1116 48.2016 52.7216 47.3204 52.925 46.2359C53.1283 45.1514 52.8572 43.9992 52.2472 43.118C51.1627 41.559 49.2648 40.8812 47.4347 41.3557C47.028 41.4913 46.6213 41.6268 46.2824 41.8302L39.1654 46.3715C38.0131 47.1171 36.7253 47.6593 35.3696 47.9982C29.3371 49.5572 23.0335 47.1849 19.5088 42.1013C17.4076 39.1189 16.5265 35.391 17.2043 31.7308C17.8143 28.2062 19.9833 25.0205 23.0335 23.1226L41.6733 11.2609C42.8256 10.5153 44.1134 9.97309 45.469 9.56641C51.5016 8.00745 57.8052 10.3798 61.3298 15.4634C63.4988 18.4457 64.3122 22.1737 63.7022 25.8338C63.5666 26.4439 63.4311 26.9861 63.2277 27.5962L62.8888 28.6807L61.9399 28.0028C59.7031 26.3761 57.263 25.156 54.6195 24.3427L53.9417 24.1393L54.0095 23.4615C54.0772 22.5126 53.8061 21.4959 53.2639 20.6825C52.1794 19.1235 50.2815 18.4457 48.4514 18.9202C48.0447 19.0557 47.638 19.1913 47.2991 19.3947L28.7271 31.2563C27.7782 31.8664 27.1681 32.7475 26.9648 33.832C26.7614 34.9165 27.0326 36.0688 27.6426 36.9499C28.7271 38.5089 30.625 39.1867 32.4551 38.7122C32.8617 38.5767 33.2684 38.4411 33.6073 38.2378L40.7244 33.6964C41.8766 32.9509 43.1645 32.4086 44.5201 32.0019C50.5526 30.443 56.8563 32.8153 60.3809 37.8989C62.5499 40.8812 63.3633 44.6092 62.7532 48.2694C62.1432 51.794 59.9742 54.9797 56.9241 56.8775L38.2842 68.7392C37.132 69.4848 35.8441 70.0271 34.4885 70.4338Z" fill="white"/>
</svg>
