<svg width="80" height="80" viewBox="0 0 80 80" fill="none" xmlns="http://www.w3.org/2000/svg">
<g clip-path="url(#clip0_1203_2741)">
<path d="M79.9125 22.01C79.9119 20.4215 79.7422 18.8376 79.4063 17.285C78.7813 14.0938 77.1212 11.1688 74.6562 8.91004C73.3927 7.72879 71.9352 6.774 70.3475 6.08754C68.7937 5.33754 67.135 4.83754 65.4225 4.56254C63.73 4.25004 61.86 4.25004 60.1687 4.10254H18.3563C17.0538 4.12493 15.7542 4.22973 14.465 4.41629C13.1812 4.55879 11.9237 4.86629 10.715 5.33629L9.5275 5.79629C8.39485 6.3634 7.31369 7.02799 6.29625 7.78254C5.96625 8.09504 5.615 8.24254 5.28375 8.53504C4.02881 9.60546 2.97847 10.8947 2.18375 12.34C1.3625 13.775 0.7875 15.3225 0.50625 16.93C0.254565 18.4879 0.0855784 20.058 0 21.6338L0 58.075C0.00064143 59.6635 0.170347 61.2475 0.50625 62.8C1.13125 65.9913 2.79125 68.9163 5.25625 71.175C6.50637 72.32 7.94065 73.2459 9.49875 73.9138C11.0525 74.6638 12.7112 75.1638 14.4237 75.4388C16.1162 75.7513 17.9862 75.7513 19.6775 75.8988H60.26C62.0212 75.8969 63.779 75.743 65.5137 75.4388C67.1937 75.1638 68.8237 74.655 70.3512 73.9338C71.9324 73.2212 73.4109 72.3001 74.7475 71.195C75.987 70.121 77.0223 68.832 77.8038 67.39C78.6413 65.9675 79.2138 64.4188 79.4963 62.8113C79.7487 61.2464 79.9177 59.6692 80.0025 58.0863V22.0238L79.9125 22.01Z" fill="#F05138"/>
<path d="M53.4228 59.6414C46.3003 63.3414 36.5166 63.7164 26.6903 59.9339C19.0241 57.0002 12.4603 51.9464 7.85156 45.4252C10.0016 46.9502 12.3416 48.2152 14.8203 49.1877C24.9766 53.3689 35.1553 53.1802 42.3003 49.1877C32.8691 42.3627 24.3753 34.4402 17.0191 25.6052C15.7516 24.3301 14.6174 22.9291 13.6341 21.4239C21.3591 27.5952 29.5766 33.1864 38.2128 38.1489C31.9228 32.0839 26.1378 25.5614 20.9128 18.6427C29.6266 26.5964 39.2053 33.6464 49.4891 39.6752L50.5891 40.2602C50.8865 39.5788 51.1436 38.8805 51.3591 38.1689C53.7341 30.3914 51.0291 21.5489 45.0941 14.2314C58.8341 21.6939 66.9691 35.7227 63.5816 47.4727C63.5816 47.7852 63.4066 48.1002 63.2941 48.4139L63.4041 48.5389C70.1966 56.1702 68.3291 64.2389 67.4716 62.7139C63.7566 56.3389 56.8753 58.3014 53.4241 59.6389L53.4228 59.6414Z" fill="#FEFEFE"/>
</g>
<defs>
<clipPath id="clip0_1203_2741">
<rect width="80" height="80" fill="white"/>
</clipPath>
</defs>
</svg>
