<svg width="60" height="60" viewBox="0 0 60 60" fill="none" xmlns="http://www.w3.org/2000/svg">
<path d="M30.9375 7.5H25.3125C25.0639 7.5 24.8254 7.40123 24.6496 7.22541C24.4738 7.0496 24.375 6.81114 24.375 6.5625C24.375 6.31386 24.4738 6.0754 24.6496 5.89959C24.8254 5.72377 25.0639 5.625 25.3125 5.625H30.9375C31.1861 5.625 31.4246 5.72377 31.6004 5.89959C31.7762 6.0754 31.875 6.31386 31.875 6.5625C31.875 6.81114 31.7762 7.0496 31.6004 7.22541C31.4246 7.40123 31.1861 7.5 30.9375 7.5ZM38.4375 58.125H17.8125C16.5698 58.1235 15.3783 57.6292 14.4996 56.7504C13.6208 55.8717 13.1265 54.6802 13.125 53.4375V40.3125C13.125 40.0639 13.2238 39.8254 13.3996 39.6496C13.5754 39.4738 13.8139 39.375 14.0625 39.375C14.3111 39.375 14.5496 39.4738 14.7254 39.6496C14.9012 39.8254 15 40.0639 15 40.3125V53.4375C15 54.9881 16.2619 56.25 17.8125 56.25H38.4375C39.9881 56.25 41.25 54.9881 41.25 53.4375V21.5625C41.25 21.3139 41.3488 21.0754 41.5246 20.8996C41.7004 20.7238 41.9389 20.625 42.1875 20.625C42.4361 20.625 42.6746 20.7238 42.8504 20.8996C43.0262 21.0754 43.125 21.3139 43.125 21.5625V53.4375C43.125 56.0213 41.0231 58.125 38.4375 58.125Z" fill="white"/>
<path d="M42.1867 9.375C41.9381 9.375 41.6996 9.27623 41.5238 9.10041C41.348 8.9246 41.2492 8.68614 41.2492 8.4375V6.5625C41.2492 5.01187 39.9873 3.75 38.4367 3.75H17.8117C16.2611 3.75 14.9992 5.01187 14.9992 6.5625V8.4375C14.9992 8.68614 14.9004 8.9246 14.7246 9.10041C14.5488 9.27623 14.3104 9.375 14.0617 9.375C13.8131 9.375 13.5746 9.27623 13.3988 9.10041C13.223 8.9246 13.1242 8.68614 13.1242 8.4375V6.5625C13.1242 3.97875 15.2261 1.875 17.8117 1.875H38.4367C41.0223 1.875 43.1242 3.97875 43.1242 6.5625V8.4375C43.1242 8.68614 43.0254 8.9246 42.8496 9.10041C42.6738 9.27623 42.4354 9.375 42.1867 9.375ZM27.1867 46.875H19.6867C19.4381 46.875 19.1996 46.7762 19.0238 46.6004C18.848 46.4246 18.7492 46.1861 18.7492 45.9375C18.7492 45.6889 18.848 45.4504 19.0238 45.2746C19.1996 45.0988 19.4381 45 19.6867 45H27.1867C27.4354 45 27.6738 45.0988 27.8496 45.2746C28.0254 45.4504 28.1242 45.6889 28.1242 45.9375C28.1242 46.1861 28.0254 46.4246 27.8496 46.6004C27.6738 46.7762 27.4354 46.875 27.1867 46.875ZM32.8117 50.625H19.6867C19.4381 50.625 19.1996 50.5262 19.0238 50.3504C18.848 50.1746 18.7492 49.9361 18.7492 49.6875C18.7492 49.4389 18.848 49.2004 19.0238 49.0246C19.1996 48.8488 19.4381 48.75 19.6867 48.75H32.8117C33.0604 48.75 33.2988 48.8488 33.4746 49.0246C33.6504 49.2004 33.7492 49.4389 33.7492 49.6875C33.7492 49.9361 33.6504 50.1746 33.4746 50.3504C33.2988 50.5262 33.0604 50.625 32.8117 50.625ZM36.5617 43.125H19.6867C19.4381 43.125 19.1996 43.0262 19.0238 42.8504C18.848 42.6746 18.7492 42.4361 18.7492 42.1875C18.7492 41.9389 18.848 41.7004 19.0238 41.5246C19.1996 41.3488 19.4381 41.25 19.6867 41.25H36.5617C36.8104 41.25 37.0488 41.3488 37.2246 41.5246C37.4004 41.7004 37.4992 41.9389 37.4992 42.1875C37.4992 42.4361 37.4004 42.6746 37.2246 42.8504C37.0488 43.0262 36.8104 43.125 36.5617 43.125ZM16.8742 26.25C14.2886 26.25 12.1867 24.1462 12.1867 21.5625C12.1867 18.9788 14.2886 16.875 16.8742 16.875C19.4598 16.875 21.5617 18.9788 21.5617 21.5625C21.5617 24.1462 19.4598 26.25 16.8742 26.25ZM16.8742 18.75C15.3236 18.75 14.0617 20.0119 14.0617 21.5625C14.0617 23.1131 15.3236 24.375 16.8742 24.375C18.4248 24.375 19.6867 23.1131 19.6867 21.5625C19.6867 20.0119 18.4248 18.75 16.8742 18.75ZM16.8742 37.5C13.5784 37.4966 10.4052 36.2498 7.98859 34.0088C7.86547 33.8949 7.77514 33.7502 7.72699 33.5896C7.67884 33.429 7.67464 33.2584 7.71483 33.0956C8.06216 31.6754 8.8768 30.4132 10.0279 29.5117C11.179 28.6102 12.5996 28.1218 14.0617 28.125H19.6867C21.1486 28.1223 22.569 28.6106 23.7203 29.5116C24.8715 30.4126 25.6868 31.6741 26.0355 33.0938C26.0757 33.2565 26.0715 33.4271 26.0233 33.5877C25.9752 33.7483 25.8848 33.8931 25.7617 34.0069C23.3449 36.2491 20.1709 37.4966 16.8742 37.5ZM9.69858 33.0131C13.7523 36.39 19.9961 36.39 24.0498 33.0131C23.7162 32.1261 23.1196 31.3622 22.3398 30.8237C21.5601 30.2852 20.6344 29.9978 19.6867 30H14.0617C13.1141 29.9978 12.1884 30.2852 11.4086 30.8237C10.6288 31.3622 10.0322 32.1261 9.69858 33.0131Z" fill="white"/>
<path d="M16.875 37.5C9.63938 37.5 3.75 31.6125 3.75 24.375C3.75 17.1375 9.63938 11.25 16.875 11.25C24.1106 11.25 30 17.1375 30 24.375C30 31.6125 24.1106 37.5 16.875 37.5ZM16.875 13.125C10.6706 13.125 5.625 18.1706 5.625 24.375C5.625 30.5794 10.6706 35.625 16.875 35.625C23.0794 35.625 28.125 30.5794 28.125 24.375C28.125 18.1706 23.0794 13.125 16.875 13.125ZM8.4375 43.0313C7.92 43.0313 7.5 42.705 7.5 42.1875V42C7.5 41.7514 7.59877 41.5129 7.77459 41.3371C7.9504 41.1613 8.18886 41.0625 8.4375 41.0625C8.68614 41.0625 8.9246 41.1613 9.10041 41.3371C9.27623 41.5129 9.375 41.7514 9.375 42C9.375 42.5175 8.955 43.0313 8.4375 43.0313ZM8.4375 46.7812C7.92 46.7812 7.5 46.455 7.5 45.9375V45.75C7.5 45.5014 7.59877 45.2629 7.77459 45.0871C7.9504 44.9113 8.18886 44.8125 8.4375 44.8125C8.68614 44.8125 8.9246 44.9113 9.10041 45.0871C9.27623 45.2629 9.375 45.5014 9.375 45.75C9.375 46.2675 8.955 46.7812 8.4375 46.7812ZM8.4375 50.5312C7.92 50.5312 7.5 50.205 7.5 49.6875V49.5C7.5 49.2514 7.59877 49.0129 7.77459 48.8371C7.9504 48.6613 8.18886 48.5625 8.4375 48.5625C8.68614 48.5625 8.9246 48.6613 9.10041 48.8371C9.27623 49.0129 9.375 49.2514 9.375 49.5C9.375 50.0175 8.955 50.5312 8.4375 50.5312ZM45.6375 50.625H44.0625C43.8139 50.625 43.5754 50.5262 43.3996 50.3504C43.2238 50.1746 43.125 49.9361 43.125 49.6875C43.125 49.4389 43.2238 49.2004 43.3996 49.0246C43.5754 48.8488 43.8139 48.75 44.0625 48.75H44.8819L45.3412 46.6219C45.3782 46.4496 45.4631 46.2912 45.5862 46.1652C45.7093 46.0391 45.8655 45.9504 46.0369 45.9094C46.9416 45.6876 47.8063 45.3264 48.6 44.8387C48.7497 44.7474 48.9219 44.6999 49.0973 44.7015C49.2726 44.7032 49.444 44.754 49.5919 44.8481L51.4481 46.035L52.5975 44.8763L51.4106 43.035C51.3154 42.8869 51.2636 42.7151 51.2613 42.5391C51.259 42.363 51.3062 42.1899 51.3975 42.0394C51.8853 41.246 52.2459 40.3812 52.4663 39.4763C52.5075 39.3054 52.5957 39.1495 52.721 39.0263C52.8463 38.903 53.0035 38.8173 53.175 38.7787L55.3106 38.3044V36.6975L53.175 36.2231C53.0035 36.1846 52.8463 36.0989 52.721 35.9756C52.5957 35.8523 52.5075 35.6965 52.4663 35.5256C52.2451 34.621 51.8845 33.7563 51.3975 32.9625C51.3054 32.8127 51.2576 32.6398 51.2596 32.464C51.2616 32.2881 51.3133 32.1165 51.4087 31.9687L52.5975 30.1106L51.45 28.9631L49.5919 30.1519C49.4441 30.2465 49.2727 30.2975 49.0973 30.2992C48.9219 30.3008 48.7495 30.253 48.6 30.1613C47.806 29.6743 46.9414 29.3131 46.0369 29.0906C45.8655 29.0496 45.7093 28.9609 45.5862 28.8348C45.4631 28.7088 45.3782 28.5504 45.3412 28.3781L44.8819 26.25H44.0625C43.8139 26.25 43.5754 26.1512 43.3996 25.9754C43.2238 25.7996 43.125 25.5611 43.125 25.3125C43.125 25.0639 43.2238 24.8254 43.3996 24.6496C43.5754 24.4738 43.8139 24.375 44.0625 24.375H45.6375C45.8517 24.3754 46.0593 24.4491 46.2257 24.5838C46.3922 24.7185 46.5075 24.9062 46.5525 25.1156L47.0531 27.4275C47.7394 27.6356 48.4125 27.9169 49.0612 28.2675L51.075 26.9794C51.2551 26.8643 51.4691 26.8142 51.6815 26.8374C51.894 26.8606 52.0921 26.9557 52.2431 27.1069L54.4575 29.3194C54.6084 29.4706 54.7031 29.6689 54.726 29.8813C54.7488 30.0938 54.6984 30.3076 54.5831 30.4875L53.295 32.5012C53.6456 33.1519 53.9269 33.825 54.135 34.5131L56.4506 35.0269C56.659 35.073 56.8454 35.1888 56.979 35.3551C57.1127 35.5215 57.1855 35.7285 57.1856 35.9419V39.0544C57.1855 39.2678 57.1127 39.4748 56.979 39.6411C56.8454 39.8075 56.659 39.9233 56.4506 39.9694L54.135 40.4831C53.9234 41.1797 53.6419 41.8531 53.295 42.4931L54.5813 44.4881C54.6977 44.6674 54.7491 44.8811 54.727 45.0938C54.7048 45.3064 54.6103 45.5049 54.4594 45.6562L52.245 47.8875C52.0941 48.0395 51.8957 48.1352 51.6828 48.1587C51.47 48.1822 51.2555 48.1322 51.075 48.0169L49.0612 46.7288C48.4216 47.075 47.7488 47.3564 47.0531 47.5688L46.5525 49.8806C46.5083 50.0907 46.3933 50.2793 46.2267 50.4147C46.0602 50.5502 45.8522 50.6245 45.6375 50.625Z" fill="white"/>
<path d="M46.0369 42.69C45.8236 42.6897 45.6169 42.6168 45.4507 42.4832C45.2845 42.3496 45.1688 42.1633 45.1227 41.9552C45.0766 41.747 45.1029 41.5293 45.1972 41.338C45.2914 41.1468 45.4481 40.9934 45.6412 40.9031C46.2886 40.6002 46.8365 40.1193 47.2209 39.5168C47.6054 38.9142 47.8105 38.2148 47.8125 37.5C47.8116 36.8816 47.658 36.2731 47.3652 35.7284C47.0725 35.1837 46.6497 34.7198 46.1345 34.3778C45.6192 34.0359 45.0275 33.8265 44.4119 33.7684C43.7962 33.7102 43.1758 33.805 42.6056 34.0444C42.4915 34.0981 42.3676 34.1282 42.2415 34.1329C42.1155 34.1376 41.9897 34.1168 41.8719 34.0718C41.754 34.0267 41.6465 33.9583 41.5557 33.8707C41.4649 33.7831 41.3927 33.6781 41.3434 33.5619C41.2942 33.4458 41.2689 33.3209 41.2691 33.1947C41.2693 33.0685 41.2949 32.9437 41.3445 32.8277C41.3941 32.7116 41.4665 32.6068 41.5576 32.5195C41.6486 32.4321 41.7564 32.3641 41.8744 32.3194C42.7296 31.9603 43.6602 31.8179 44.5836 31.905C45.507 31.992 46.3946 32.3058 47.1677 32.8183C47.9407 33.3309 48.5751 34.0264 49.0147 34.8431C49.4543 35.6599 49.6854 36.5725 49.6875 37.5C49.6851 38.5716 49.3777 39.6205 48.8014 40.5239C48.225 41.4274 47.4033 42.1481 46.4325 42.6019C46.3087 42.6599 46.1736 42.6899 46.0369 42.69ZM48.75 18.75H37.5C35.4319 18.75 33.75 17.0681 33.75 15C33.75 12.9319 35.4319 11.25 37.5 11.25H48.75C50.8181 11.25 52.5 12.9319 52.5 15C52.5 17.0681 50.8181 18.75 48.75 18.75ZM37.5 13.125C37.0172 13.1466 36.5614 13.3536 36.2274 13.7028C35.8934 14.0521 35.707 14.5167 35.707 15C35.707 15.4833 35.8934 15.9479 36.2274 16.2972C36.5614 16.6464 37.0172 16.8534 37.5 16.875H48.75C49.2328 16.8534 49.6886 16.6464 50.0226 16.2972C50.3566 15.9479 50.543 15.4833 50.543 15C50.543 14.5167 50.3566 14.0521 50.0226 13.7028C49.6886 13.3536 49.2328 13.1466 48.75 13.125H37.5Z" fill="white"/>
</svg>
