<svg width="60" height="60" viewBox="0 0 60 60" fill="none" xmlns="http://www.w3.org/2000/svg">
<path d="M55.838 46.4483H4.16202C2.23402 46.4483 0.666016 44.8803 0.666016 42.9523V8.74698C0.666016 6.81898 2.23402 5.25098 4.16202 5.25098H55.838C57.7647 5.25098 59.3327 6.81898 59.3327 8.74698V42.9523C59.3327 44.8803 57.7647 46.4483 55.838 46.4483ZM4.16202 6.58564C2.96868 6.58564 1.99935 7.55498 1.99935 8.74698V42.9523C1.99935 44.1443 2.96868 45.1136 4.16202 45.1136H55.838C57.03 45.1136 57.9994 44.1443 57.9994 42.9523V8.74698C57.9994 7.55498 57.03 6.58431 55.838 6.58431C55.838 6.58431 4.16202 6.58431 4.16202 6.58564Z" fill="#008080"/>
<path d="M22.858 50.8445C22.754 50.8445 22.6487 50.8205 22.55 50.7685C22.2234 50.5979 22.0967 50.1952 22.2674 49.8699L24.558 45.4739C24.7274 45.1472 25.13 45.0205 25.4567 45.1912C25.7834 45.3619 25.91 45.7645 25.7394 46.0899L23.4487 50.4859C23.3926 50.5941 23.3079 50.6848 23.2037 50.7481C23.0995 50.8113 22.9799 50.8447 22.858 50.8445ZM37.1407 50.8445C36.9007 50.8445 36.6674 50.7139 36.5487 50.4859L34.258 46.0899C34.0887 45.7632 34.2154 45.3605 34.5407 45.1912C34.8674 45.0219 35.27 45.1485 35.4394 45.4739L37.73 49.8699C37.8994 50.1965 37.7727 50.5992 37.4474 50.7685C37.35 50.8205 37.2447 50.8445 37.1407 50.8445Z" fill="#008080"/>
<path d="M44.5127 54.7485H15.486C15.2807 54.7485 15.086 54.6538 14.9593 54.4912C14.8327 54.3285 14.7887 54.1178 14.8393 53.9178C15.4967 51.3218 17.826 49.5098 20.5047 49.5098H39.494C42.1713 49.5098 44.5007 51.3232 45.158 53.9178C45.2087 54.1165 45.1647 54.3285 45.038 54.4912C44.976 54.5714 44.8963 54.6363 44.8053 54.6809C44.7142 54.7255 44.6141 54.7486 44.5127 54.7485ZM16.4313 53.4152H43.5674C43.2013 52.645 42.6242 51.9945 41.9032 51.5393C41.1821 51.084 40.3467 50.8426 39.494 50.8432H20.5047C19.6521 50.8432 18.8169 51.0848 18.096 51.54C17.3751 51.9952 16.7979 52.6454 16.4313 53.4152ZM58.666 40.0072H1.33268C0.964682 40.0072 0.666016 39.7085 0.666016 39.3405C0.666016 38.9725 0.964682 38.6738 1.33268 38.6738H58.666C59.034 38.6738 59.3327 38.9725 59.3327 39.3405C59.3327 39.7085 59.034 40.0072 58.666 40.0072Z" fill="#008080"/>
<path d="M34.0558 43.2283H25.9451C24.9584 43.2283 24.1571 42.4256 24.1571 41.4389V39.3403C24.1571 38.9723 24.4558 38.6736 24.8238 38.6736C25.1918 38.6736 25.4904 38.9723 25.4904 39.3403V41.4389C25.4904 41.6896 25.6944 41.8949 25.9451 41.8949H34.0558C34.3064 41.8949 34.5118 41.6909 34.5118 41.4389V39.3403C34.5118 38.9723 34.8104 38.6736 35.1784 38.6736C35.5464 38.6736 35.8451 38.9723 35.8451 39.3403V41.4389C35.8438 42.4256 35.0411 43.2283 34.0558 43.2283ZM53.2798 13.8443H40.3451C39.9771 13.8443 39.6784 13.5456 39.6784 13.1776C39.6784 12.8096 39.9771 12.5109 40.3451 12.5109H53.2798C53.6478 12.5109 53.9464 12.8096 53.9464 13.1776C53.9464 13.5456 53.6478 13.8443 53.2798 13.8443ZM53.2798 17.8163H40.3451C39.9771 17.8163 39.6784 17.5176 39.6784 17.1496C39.6784 16.7816 39.9771 16.4829 40.3451 16.4829H53.2798C53.6478 16.4829 53.9464 16.7816 53.9464 17.1496C53.9464 17.5176 53.6478 17.8163 53.2798 17.8163ZM53.2798 21.7869H40.3451C39.9771 21.7869 39.6784 21.4883 39.6784 21.1203C39.6784 20.7523 39.9771 20.4536 40.3451 20.4536H53.2798C53.6478 20.4536 53.9464 20.7523 53.9464 21.1203C53.9464 21.4883 53.6478 21.7869 53.2798 21.7869ZM48.6584 25.7776H40.3451C39.9771 25.7776 39.6784 25.4789 39.6784 25.1109C39.6784 24.7429 39.9771 24.4443 40.3451 24.4443H48.6584C49.0264 24.4443 49.3251 24.7429 49.3251 25.1109C49.3251 25.4789 49.0264 25.7776 48.6584 25.7776ZM52.6478 32.7469H40.9758C40.2598 32.7469 39.6784 32.1643 39.6784 31.4483V29.0803C39.6784 28.3643 40.2611 27.7816 40.9758 27.7816H52.6478C53.3638 27.7816 53.9451 28.3643 53.9451 29.0803V31.4483C53.9464 32.1656 53.3638 32.7469 52.6478 32.7469ZM41.0118 31.4136H52.6131V29.1163H41.0118V31.4136ZM6.71976 13.1869C6.54909 13.1869 6.37843 13.1216 6.24776 12.9923C6.12288 12.8672 6.05273 12.6977 6.05273 12.5209C6.05273 12.3442 6.12288 12.1747 6.24776 12.0496L7.93976 10.3576C8.19976 10.0976 8.62243 10.0976 8.88243 10.3576C9.14243 10.6176 9.14243 11.0403 8.88243 11.3003L7.19176 12.9923C7.12982 13.0543 7.05623 13.1034 6.97522 13.1368C6.89421 13.1702 6.80739 13.1872 6.71976 13.1869Z" fill="#008080"/>
<path d="M10.1051 13.1869C9.93443 13.1869 9.76376 13.1216 9.63309 12.9923L7.94109 11.3003C7.68109 11.0403 7.68109 10.6176 7.94109 10.3576C8.20109 10.0976 8.62376 10.0976 8.88376 10.3576L10.5758 12.0496C10.7006 12.1747 10.7708 12.3442 10.7708 12.5209C10.7708 12.6977 10.7006 12.8672 10.5758 12.9923C10.5142 13.0543 10.4408 13.1035 10.36 13.1369C10.2792 13.1704 10.1925 13.1874 10.1051 13.1869Z" fill="#008080"/>
<path d="M8.41276 29.971C8.04476 29.971 7.74609 29.6723 7.74609 29.3043V10.8283C7.74609 10.4603 8.04476 10.1616 8.41276 10.1616C8.78076 10.1616 9.07943 10.4603 9.07943 10.8283V29.3043C9.07943 29.6723 8.78076 29.971 8.41276 29.971Z" fill="#008080"/>
<path d="M8.41173 29.971C8.24107 29.971 8.0704 29.9056 7.93973 29.7763L6.24773 28.083C5.98773 27.823 5.98773 27.4003 6.24773 27.1403C6.50773 26.8803 6.9304 26.8803 7.1904 27.1403L8.8824 28.8323C9.00728 28.9574 9.07743 29.1269 9.07743 29.3036C9.07743 29.4804 9.00728 29.6499 8.8824 29.775C8.75173 29.9056 8.5824 29.971 8.41173 29.971Z" fill="#008080"/>
<path d="M8.41312 29.9708C8.24245 29.9708 8.07179 29.9055 7.94112 29.7761C7.81624 29.651 7.74609 29.4815 7.74609 29.3048C7.74609 29.128 7.81624 28.9585 7.94112 28.8335L9.63312 27.1415C9.89312 26.8815 10.3158 26.8815 10.5758 27.1415C10.8358 27.4015 10.8358 27.8241 10.5758 28.0841L8.88379 29.7761C8.75884 29.9007 8.58959 29.9707 8.41312 29.9708ZM23.2705 21.9361C23.1345 21.9361 22.9998 21.8948 22.8838 21.8121L14.3518 15.7335C14.2107 15.6298 14.116 15.4748 14.0882 15.3019C14.0605 15.1291 14.1019 14.9522 14.2035 14.8096C14.3051 14.667 14.4587 14.5701 14.6312 14.5399C14.8037 14.5097 14.9811 14.5486 15.1251 14.6481L23.2705 20.4521L31.4158 14.6481C31.7158 14.4348 32.1318 14.5041 32.3451 14.8041C32.5585 15.1041 32.4891 15.5201 32.1891 15.7335L23.6571 21.8135C23.5411 21.8948 23.4051 21.9361 23.2705 21.9361Z" fill="#008080"/>
<path d="M23.2709 29.9708C23.1669 29.9708 23.0629 29.9468 22.9683 29.8974L14.4363 25.5441C14.3268 25.4883 14.2349 25.4034 14.1706 25.2987C14.1064 25.194 14.0724 25.0736 14.0723 24.9508V15.1908C14.0723 14.9401 14.2123 14.7108 14.4349 14.5974L22.9669 10.2361C23.0608 10.1881 23.1648 10.1631 23.2703 10.1631C23.3757 10.1631 23.4797 10.1881 23.5736 10.2361L32.1056 14.5974C32.3283 14.7108 32.4683 14.9401 32.4683 15.1908V24.9508C32.4683 25.2014 32.3283 25.4308 32.1043 25.5441L23.5723 29.8974C23.4789 29.9468 23.3749 29.9708 23.2709 29.9708ZM15.4056 24.5428L23.2709 28.5561L31.1363 24.5428V15.5988L23.2709 11.5774L15.4056 15.5988V24.5428Z" fill="#008080"/>
<path d="M23.2702 29.971C22.9022 29.971 22.6035 29.6724 22.6035 29.3044V21.2697C22.6035 20.9017 22.9022 20.603 23.2702 20.603C23.6382 20.603 23.9368 20.9017 23.9368 21.2697V29.3044C23.9368 29.6724 23.6382 29.971 23.2702 29.971ZM32.5075 33.4044C32.3368 33.4044 32.1662 33.339 32.0355 33.2097L30.3422 31.5164C30.0822 31.2564 30.0822 30.8337 30.3422 30.5737C30.6022 30.3137 31.0248 30.3137 31.2848 30.5737L32.9782 32.267C33.1031 32.3921 33.1732 32.5616 33.1732 32.7384C33.1732 32.9151 33.1031 33.0846 32.9782 33.2097C32.9166 33.2718 32.8432 33.3209 32.7624 33.3544C32.6816 33.3878 32.595 33.4048 32.5075 33.4044Z" fill="#008080"/>
<path d="M30.8155 35.0976C30.6448 35.0976 30.4741 35.0322 30.3435 34.9029C30.2186 34.7778 30.1484 34.6083 30.1484 34.4316C30.1484 34.2548 30.2186 34.0853 30.3435 33.9602L32.0368 32.2682C32.2968 32.0082 32.7195 32.0082 32.9795 32.2682C33.2395 32.5282 33.2395 32.9509 32.9795 33.2109L31.2861 34.9029C31.1568 35.0322 30.9861 35.0976 30.8155 35.0976Z" fill="#008080"/>
<path d="M32.5079 33.4046H14.0319C13.6639 33.4046 13.3652 33.106 13.3652 32.738C13.3652 32.37 13.6639 32.0713 14.0319 32.0713H32.5079C32.8759 32.0713 33.1746 32.37 33.1746 32.738C33.1746 33.106 32.8772 33.4046 32.5079 33.4046Z" fill="#008080"/>
<path d="M14.0323 33.4046C13.8616 33.4046 13.6909 33.3392 13.5603 33.2099C13.4354 33.0848 13.3652 32.9153 13.3652 32.7386C13.3652 32.5618 13.4354 32.3923 13.5603 32.2672L15.2523 30.5739C15.5123 30.3139 15.9349 30.3139 16.1949 30.5739C16.4549 30.8339 16.4549 31.2566 16.1949 31.5166L14.5029 33.2099C14.4413 33.272 14.368 33.3212 14.2872 33.3546C14.2064 33.388 14.1197 33.405 14.0323 33.4046Z" fill="#008080"/>
<path d="M15.7242 35.0976C15.5536 35.0976 15.3829 35.0322 15.2522 34.9029L13.5602 33.2109C13.3002 32.9509 13.3002 32.5282 13.5602 32.2682C13.8202 32.0082 14.2429 32.0082 14.5029 32.2682L16.1949 33.9602C16.3198 34.0853 16.3899 34.2548 16.3899 34.4316C16.3899 34.6083 16.3198 34.7778 16.1949 34.9029C16.0656 35.0322 15.8949 35.0976 15.7242 35.0976Z" fill="#008080"/>
</svg>
