<svg width="60" height="60" viewBox="0 0 60 60" fill="none" xmlns="http://www.w3.org/2000/svg">
<path d="M57.6585 3.41455H10.2439C8.97561 3.41455 7.90244 4.43894 7.90244 5.75601V11.317H2.34146C1.02439 11.317 0 12.3414 0 13.6585V54.2438C0 55.5121 1.02439 56.5853 2.34146 56.5853H49.7561C51.0244 56.5853 52.0976 55.5609 52.0976 54.2438V48.6828H57.6585C58.9268 48.6828 60 47.6585 60 46.3414V5.75601C60 4.43894 58.9756 3.41455 57.6585 3.41455ZM10.2439 5.36577H57.6585C57.8537 5.36577 58.0488 5.51211 58.0488 5.75601V12.4877H9.85366V5.75601C9.85366 5.51211 10.0488 5.36577 10.2439 5.36577ZM2.34146 13.2682H7.90244V20.3902H1.95122V13.6585C1.95122 13.4633 2.09756 13.2682 2.34146 13.2682ZM50.1463 54.2438C50.1463 54.4389 50 54.6341 49.7561 54.6341H2.34146C2.14634 54.6341 1.95122 54.4877 1.95122 54.2438V22.3414H7.90244V46.3414C7.90244 47.6097 8.92683 48.6828 10.2439 48.6828H50.1463V54.2438ZM57.6585 46.7316H10.2439C10.0488 46.7316 9.85366 46.5853 9.85366 46.3414V14.4389H58.0488V46.3414C58.0488 46.5365 57.9024 46.7316 57.6585 46.7316Z" fill="#008080"/>
<path d="M18.0971 9.70708H14.4873C13.9507 9.70708 13.5117 9.26805 13.5117 8.73147C13.5117 8.19488 13.9507 7.75586 14.4873 7.75586H18.0971C18.6337 7.75586 19.0727 8.19488 19.0727 8.73147C19.0727 9.26805 18.6337 9.70708 18.0971 9.70708ZM26.341 9.70708H22.7312C22.1946 9.70708 21.7556 9.26805 21.7556 8.73147C21.7556 8.19488 22.1946 7.75586 22.7312 7.75586H26.341C26.8776 7.75586 27.3166 8.19488 27.3166 8.73147C27.3166 9.26805 26.8776 9.70708 26.341 9.70708Z" fill="#008080"/>
<path d="M18.9766 30.6828L28.2449 35.4633V33.6097L21.1229 30.0487L28.2449 26.4877V24.6341L18.9766 29.3658V30.6828ZM30.2936 36.0487H32.0497L37.5131 21.9023H35.7083L30.2936 36.0487ZM39.5131 24.6341V26.4877L46.6839 30.0487L39.5131 33.6097V35.4633L48.7814 30.6828V29.3658L39.5131 24.6341Z" fill="#008080"/>
</svg>
