<svg width="60" height="60" viewBox="0 0 60 60" fill="none" xmlns="http://www.w3.org/2000/svg">
<path fill-rule="evenodd" clip-rule="evenodd" d="M21.6525 54.6221C21.2307 54.6221 20.844 54.2706 20.844 53.8137V47.0299L17.786 54.1301C17.5048 54.7979 16.5909 54.7979 16.3097 54.1301L13.2517 47.0299V53.8137C13.2517 54.8682 11.67 54.8682 11.67 53.8137V43.1634C11.67 42.3199 12.8651 42.0387 13.1815 42.8471L17.0479 51.8102L20.9143 42.8471C21.2658 42.0387 22.4609 42.2847 22.4609 43.1634V53.8137C22.4609 54.2706 22.1094 54.6221 21.6525 54.6221ZM51.1076 38.594H6.99516C5.23769 38.594 3.79657 40.0351 3.79657 41.7575V55.2197C3.79657 56.9772 5.23769 58.3831 6.99516 58.3831H53.0057C54.7632 58.3831 56.1691 56.9772 56.1691 55.2197V41.7575C56.1691 40.0351 54.7632 38.594 53.0057 38.594H51.1076ZM50.3344 37.0123V11.529H43.7263C41.8985 11.529 40.3871 10.0176 40.3871 8.18981V1.58172H15.8528C12.4433 1.58172 9.66651 4.39367 9.66651 7.80316V37.0123H50.3344ZM51.9161 10.8612V37.0123H53.0057C55.6419 37.0123 57.786 39.1564 57.786 41.7575V55.2197C57.786 57.8559 55.6419 60 53.0057 60H6.99516C4.35896 60 2.21484 57.8559 2.21484 55.2197V41.7575C2.21484 39.1564 4.35896 37.0123 6.99516 37.0123H8.08479V7.80316C8.08479 3.51494 11.5646 0 15.8528 0H41.1955C41.4416 0 41.6173 0.105448 41.793 0.246046L51.6349 10.0879C51.8458 10.2988 51.9864 10.5448 51.9161 10.8612ZM42.0039 2.74165V8.18981C42.0039 9.13884 42.7772 9.91213 43.7263 9.91213H49.2096L42.0039 2.74165ZM44.5699 32.478H16.5206C15.4662 32.478 15.4662 30.8612 16.5206 30.8612H44.5699C45.6243 30.8612 45.6243 32.478 44.5699 32.478ZM44.5699 26.3269H16.5206C15.4662 26.3269 15.4662 24.7452 16.5206 24.7452H44.5699C45.6243 24.7452 45.6243 26.3269 44.5699 26.3269ZM44.5699 20.2109H16.5206C15.4662 20.2109 15.4662 18.594 16.5206 18.594H44.5699C45.6243 18.594 45.6243 20.2109 44.5699 20.2109ZM34.6929 14.6221C33.9899 14.6221 33.6384 13.7434 34.1305 13.2513L37.3291 10.0527L34.1305 6.81898C33.3923 6.08084 34.5171 4.95606 35.2553 5.6942L39.0514 9.45518C39.3326 9.77153 39.3326 10.2988 39.0514 10.6151L35.2553 14.3761C35.1147 14.5167 34.9038 14.6221 34.6929 14.6221ZM26.2922 14.6221C26.0813 14.6221 25.8704 14.5167 25.7298 14.3761L21.9688 10.6151C21.6525 10.2988 21.6525 9.77153 21.9688 9.45518L25.7298 5.6942C26.4679 4.95606 27.5927 6.08084 26.8546 6.81898L23.656 10.0527L26.8546 13.2513C27.3467 13.7434 26.9952 14.6221 26.2922 14.6221ZM29.4908 14.7627C28.9635 14.7627 28.5769 14.2355 28.7175 13.7434L30.7561 6.15114C31.0022 5.13181 32.5488 5.5536 32.2676 6.53779L30.2641 14.1652C30.1586 14.5167 29.8423 14.7627 29.4908 14.7627ZM30.5101 54.6221C30.1938 54.6221 29.9126 54.4464 29.772 54.1301L25.1674 43.4798C24.7456 42.5308 26.2219 41.8981 26.6437 42.8471L30.5101 51.8102L34.3765 42.8471C34.7983 41.8981 36.2394 42.5308 35.8528 43.4798L31.2482 54.1301C31.1076 54.4464 30.8264 54.6221 30.5101 54.6221ZM39.438 54.6221C39.0163 54.6221 38.6648 54.2706 38.6648 53.8137V43.1634C38.6648 42.7416 39.0163 42.3902 39.438 42.3902H44.359C46.5382 42.3902 48.3308 44.1476 48.3308 46.3269C48.3308 48.5061 46.5382 50.2988 44.359 50.2988H40.2465V53.8137C40.2465 54.2706 39.895 54.6221 39.438 54.6221ZM40.2465 48.6819H44.359C47.4873 48.6819 47.4873 43.9719 44.359 43.9719H40.2465V48.6819Z" fill="#008080"/>
</svg>
