<svg width="60" height="60" viewBox="0 0 60 60" fill="none" xmlns="http://www.w3.org/2000/svg">
<path d="M52.5 7.73438H51.3281V5.625C51.3274 4.94147 51.0555 4.28614 50.5722 3.80281C50.0889 3.31948 49.4335 3.04762 48.75 3.04688H11.25C10.5665 3.04762 9.91114 3.31948 9.42781 3.80281C8.94448 4.28614 8.67262 4.94147 8.67188 5.625V7.73438H7.5C5.04375 7.73438 3.04688 9.73125 3.04688 12.1875V44.0625C3.04688 46.5187 5.04375 48.5156 7.5 48.5156H24.0863L21.9769 55.5469H18.75C18.5635 55.5469 18.3847 55.621 18.2528 55.7528C18.121 55.8847 18.0469 56.0635 18.0469 56.25C18.0469 56.4365 18.121 56.6153 18.2528 56.7472C18.3847 56.879 18.5635 56.9531 18.75 56.9531H41.25C41.4365 56.9531 41.6153 56.879 41.7472 56.7472C41.879 56.6153 41.9531 56.4365 41.9531 56.25C41.9531 56.0635 41.879 55.8847 41.7472 55.7528C41.6153 55.621 41.4365 55.5469 41.25 55.5469H38.0231L35.9137 48.5156H52.5C54.9553 48.5156 56.9531 46.5187 56.9531 44.0625V12.1875C56.9531 9.73125 54.9553 7.73438 52.5 7.73438ZM52.5 9.14062C53.3078 9.14162 54.0822 9.46295 54.6534 10.0341C55.2246 10.6053 55.5459 11.3797 55.5469 12.1875V39.6094H51.3281V9.14062H52.5ZM10.0781 5.625C10.0781 4.97812 10.6031 4.45312 11.25 4.45312H48.75C49.3969 4.45312 49.9219 4.97812 49.9219 5.625V39.6094H10.0781V5.625ZM7.5 9.14062H8.67188V39.6094H4.45312V12.1875C4.45412 11.3797 4.77545 10.6053 5.34663 10.0341C5.91781 9.46295 6.69222 9.14162 7.5 9.14062ZM36.555 55.5469H23.445L25.5544 48.5156H34.4447L36.555 55.5469ZM52.5 47.1094H7.5C6.69222 47.1084 5.91781 46.7871 5.34663 46.2159C4.77545 45.6447 4.45412 44.8703 4.45312 44.0625V41.0156H55.5469V44.0625C55.5459 44.8703 55.2246 45.6447 54.6534 46.2159C54.0822 46.7871 53.3078 47.1084 52.5 47.1094ZM26.1431 19.5872C26.3296 19.5872 26.5084 19.5131 26.6403 19.3812C26.7722 19.2494 26.8463 19.0705 26.8463 18.8841V16.1588H30.0769L32.4384 19.3059C32.4936 19.3801 32.5629 19.4426 32.6424 19.4899C32.7218 19.5371 32.8098 19.5682 32.9013 19.5813C32.9928 19.5944 33.086 19.5892 33.1755 19.5661C33.265 19.5429 33.3491 19.5023 33.4228 19.4466C33.5719 19.3345 33.6703 19.1679 33.6965 18.9833C33.7227 18.7987 33.6745 18.6113 33.5625 18.4622L31.6528 15.9159C32.2574 15.6719 32.7755 15.2531 33.1408 14.713C33.506 14.1729 33.7018 13.5361 33.7031 12.8841C33.7021 12.0159 33.3568 11.1835 32.7429 10.5696C32.129 9.9557 31.2966 9.61037 30.4284 9.60938H26.1431C25.9566 9.60938 25.7778 9.68345 25.6459 9.81532C25.5141 9.94718 25.44 10.126 25.44 10.3125V18.8841C25.44 19.2722 25.7541 19.5872 26.1431 19.5872ZM26.8463 11.0156H30.4284C31.4587 11.0156 32.2969 11.8538 32.2969 12.8841C32.2969 13.9144 31.4587 14.7525 30.4284 14.7525H26.8463V11.0156ZM37.2853 19.5872C37.4718 19.5872 37.6506 19.5131 37.7825 19.3812C37.9144 19.2494 37.9884 19.0705 37.9884 18.8841V16.1588H41.5716C43.3762 16.1588 44.8462 14.6897 44.8462 12.8841C44.8462 11.0784 43.3772 9.60938 41.5716 9.60938H37.2844C37.0979 9.60938 36.9191 9.68345 36.7872 9.81532C36.6553 9.94718 36.5812 10.126 36.5812 10.3125V18.8841C36.5812 19.2722 36.8972 19.5872 37.2853 19.5872ZM37.9884 11.0156H41.5716C42.6009 11.0156 43.44 11.8538 43.44 12.8841C43.44 13.9144 42.6009 14.7525 41.5716 14.7525H37.9875L37.9884 11.0156ZM15.1537 18.8841V10.3125C15.1537 10.126 15.2278 9.94718 15.3597 9.81532C15.4916 9.68345 15.6704 9.60938 15.8569 9.60938H21.8569C22.0434 9.60938 22.2222 9.68345 22.3541 9.81532C22.4859 9.94718 22.56 10.126 22.56 10.3125C22.56 10.499 22.4859 10.6778 22.3541 10.8097C22.2222 10.9415 22.0434 11.0156 21.8569 11.0156H16.56V13.8947H19.9819C20.1684 13.8947 20.3472 13.9688 20.4791 14.1006C20.6109 14.2325 20.685 14.4113 20.685 14.5978C20.685 14.7843 20.6109 14.9631 20.4791 15.095C20.3472 15.2269 20.1684 15.3009 19.9819 15.3009H16.56V18.1809H21.8569C22.0434 18.1809 22.2222 18.255 22.3541 18.3869C22.4859 18.5187 22.56 18.6976 22.56 18.8841C22.56 19.0705 22.4859 19.2494 22.3541 19.3812C22.2222 19.5131 22.0434 19.5872 21.8569 19.5872H15.8569C15.6704 19.5872 15.4916 19.5131 15.3597 19.3812C15.2278 19.2494 15.1537 19.0705 15.1537 18.8841ZM14.2969 30.9375C14.2969 30.751 14.371 30.5722 14.5028 30.4403C14.6347 30.3085 14.8135 30.2344 15 30.2344H30C30.1865 30.2344 30.3653 30.3085 30.4972 30.4403C30.629 30.5722 30.7031 30.751 30.7031 30.9375C30.7031 31.124 30.629 31.3028 30.4972 31.4347C30.3653 31.5665 30.1865 31.6406 30 31.6406H15C14.8135 31.6406 14.6347 31.5665 14.5028 31.4347C14.371 31.3028 14.2969 31.124 14.2969 30.9375ZM45.7031 30.9375C45.7031 31.124 45.629 31.3028 45.4972 31.4347C45.3653 31.5665 45.1865 31.6406 45 31.6406H35.625C35.4385 31.6406 35.2597 31.5665 35.1278 31.4347C34.996 31.3028 34.9219 31.124 34.9219 30.9375C34.9219 30.751 34.996 30.5722 35.1278 30.4403C35.2597 30.3085 35.4385 30.2344 35.625 30.2344H45C45.1865 30.2344 45.3653 30.3085 45.4972 30.4403C45.629 30.5722 45.7031 30.751 45.7031 30.9375ZM14.2969 25.3125C14.2969 25.126 14.371 24.9472 14.5028 24.8153C14.6347 24.6835 14.8135 24.6094 15 24.6094H45C45.1865 24.6094 45.3653 24.6835 45.4972 24.8153C45.629 24.9472 45.7031 25.126 45.7031 25.3125C45.7031 25.499 45.629 25.6778 45.4972 25.8097C45.3653 25.9415 45.1865 26.0156 45 26.0156H15C14.8135 26.0156 14.6347 25.9415 14.5028 25.8097C14.371 25.6778 14.2969 25.499 14.2969 25.3125Z" fill="#008080"/>
</svg>
