<svg width="60" height="60" viewBox="0 0 60 60" fill="none" xmlns="http://www.w3.org/2000/svg">
<path d="M30.2653 37.891L22.998 34.6007V25.733M30.2653 37.891V29.0233M30.2653 37.891L37.5325 34.6007V25.733M22.998 25.733L30.2653 29.0233M22.998 25.733L30.2653 22.3923L37.5325 25.733M30.2653 29.0233L37.5325 25.733M9.09219 21.5383V35.0571M12.6393 44.0507L22.5864 49.7936M33.434 51.9605L43.4355 46.1862M50.6816 38.4148V24.9665M47.1343 15.943L37.2277 10.2235M26.3396 8.03322L16.4361 13.7509M29.8869 9.82197V17.4447M29.8869 42.2759V50.4613M12.7667 19.1967L19.1891 23.3025M40.1104 36.6776L47.0069 41.0865M47.0069 19.1967L40.5846 23.3025M19.6633 36.6776L12.7667 41.0865M5.54492 14.4437H12.6393V21.5381H5.54492V14.4437ZM26.3396 2.43799H33.434V9.5324H26.3396V2.43799ZM26.3396 50.4613H33.434V57.5557H26.3396V50.4613ZM47.1343 14.4437H54.2287V21.5381H47.1343V14.4437ZM5.54492 38.4148H12.6393V45.5092H5.54492V38.4148ZM47.1343 38.4148H54.2287V45.5092H47.1343V38.4148Z" stroke="#008080" stroke-width="1.4" stroke-miterlimit="10" stroke-linecap="round" stroke-linejoin="round"/>
</svg>
