<svg width="60" height="60" viewBox="0 0 60 60" fill="none" xmlns="http://www.w3.org/2000/svg">
<path d="M52.5 7.73438H51.3281V5.625C51.3274 4.94147 51.0555 4.28614 50.5722 3.80281C50.0889 3.31948 49.4335 3.04762 48.75 3.04688H11.25C10.5665 3.04762 9.91114 3.31948 9.42781 3.80281C8.94448 4.28614 8.67262 4.94147 8.67188 5.625V7.73438H7.5C5.04375 7.73438 3.04688 9.73125 3.04688 12.1875V44.0625C3.04688 46.5187 5.04375 48.5156 7.5 48.5156H24.0863L21.9769 55.5469H18.75C18.5635 55.5469 18.3847 55.621 18.2528 55.7528C18.121 55.8847 18.0469 56.0635 18.0469 56.25C18.0469 56.4365 18.121 56.6153 18.2528 56.7472C18.3847 56.879 18.5635 56.9531 18.75 56.9531H41.25C41.4365 56.9531 41.6153 56.879 41.7472 56.7472C41.879 56.6153 41.9531 56.4365 41.9531 56.25C41.9531 56.0635 41.879 55.8847 41.7472 55.7528C41.6153 55.621 41.4365 55.5469 41.25 55.5469H38.0231L35.9137 48.5156H52.5C54.9553 48.5156 56.9531 46.5187 56.9531 44.0625V12.1875C56.9531 9.73125 54.9553 7.73438 52.5 7.73438ZM52.5 9.14062C53.3078 9.14162 54.0822 9.46295 54.6534 10.0341C55.2246 10.6053 55.5459 11.3797 55.5469 12.1875V39.6094H51.3281V9.14062H52.5ZM10.0781 5.625C10.0781 4.97812 10.6031 4.45312 11.25 4.45312H48.75C49.3969 4.45312 49.9219 4.97812 49.9219 5.625V39.6094H10.0781V5.625ZM7.5 9.14062H8.67188V39.6094H4.45312V12.1875C4.45412 11.3797 4.77545 10.6053 5.34663 10.0341C5.91781 9.46295 6.69222 9.14162 7.5 9.14062ZM36.555 55.5469H23.445L25.5544 48.5156H34.4447L36.555 55.5469ZM52.5 47.1094H7.5C6.69222 47.1084 5.91781 46.7871 5.34663 46.2159C4.77545 45.6447 4.45412 44.8703 4.45312 44.0625V41.0156H55.5469V44.0625C55.5459 44.8703 55.2246 45.6447 54.6534 46.2159C54.0822 46.7871 53.3078 47.1084 52.5 47.1094ZM25.2863 19.5872C25.4727 19.5872 25.6516 19.5131 25.7834 19.3812C25.9153 19.2494 25.9894 19.0705 25.9894 18.8841V16.1588H29.22L31.5806 19.3059C31.6358 19.3801 31.7051 19.4426 31.7845 19.4899C31.864 19.5371 31.952 19.5682 32.0435 19.5813C32.135 19.5944 32.2282 19.5892 32.3177 19.5661C32.4072 19.5429 32.4913 19.5023 32.565 19.4466C32.6389 19.3912 32.7011 19.3218 32.7481 19.2423C32.7952 19.1628 32.8261 19.0749 32.8392 18.9835C32.8522 18.8921 32.8472 18.799 32.8243 18.7096C32.8013 18.6201 32.761 18.5361 32.7056 18.4622L30.7959 15.9159C31.4006 15.6719 31.9186 15.2531 32.2839 14.713C32.6491 14.1729 32.8449 13.5361 32.8462 12.8841C32.8453 12.0159 32.4999 11.1835 31.886 10.5696C31.2721 9.9557 30.4398 9.61037 29.5716 9.60938H25.2863C25.0998 9.60938 24.9209 9.68345 24.7891 9.81532C24.6572 9.94718 24.5831 10.126 24.5831 10.3125V18.8841C24.5831 19.2722 24.8972 19.5872 25.2863 19.5872ZM25.9894 11.0156H29.5716C30.6019 11.0156 31.44 11.8538 31.44 12.8841C31.44 13.9144 30.6019 14.7525 29.5716 14.7525H25.9894V11.0156ZM14.2969 14.5978C14.2984 13.2753 14.8244 12.0073 15.7596 11.0721C16.6948 10.1369 17.9628 9.61086 19.2853 9.60938H21.0009C21.1874 9.60938 21.3663 9.68345 21.4981 9.81532C21.63 9.94718 21.7041 10.126 21.7041 10.3125C21.7041 10.499 21.63 10.6778 21.4981 10.8097C21.3663 10.9415 21.1874 11.0156 21.0009 11.0156H19.2853C17.31 11.0156 15.7031 12.6225 15.7031 14.5978C15.7031 16.5731 17.31 18.1809 19.2853 18.1809H21.0009C21.1874 18.1809 21.3663 18.255 21.4981 18.3869C21.63 18.5187 21.7041 18.6976 21.7041 18.8841C21.7041 19.0705 21.63 19.2494 21.4981 19.3812C21.3663 19.5131 21.1874 19.5872 21.0009 19.5872H19.2853C17.9626 19.5857 16.6945 19.0595 15.7593 18.1241C14.824 17.1887 14.2981 15.9205 14.2969 14.5978ZM35.7253 18.8841V10.3125C35.7251 10.1678 35.7696 10.0266 35.8526 9.90815C35.9357 9.78968 36.0532 9.6997 36.1893 9.65049C36.3253 9.60128 36.4732 9.59523 36.6128 9.63317C36.7524 9.67112 36.8769 9.7512 36.9694 9.8625L40.7147 14.3569L44.46 9.8625C44.553 9.75261 44.6774 9.67382 44.8165 9.63674C44.9556 9.59965 45.1027 9.60603 45.2381 9.65503C45.3735 9.70404 45.4906 9.7933 45.5737 9.91084C45.6569 10.0284 45.702 10.1685 45.7031 10.3125V18.8841C45.7031 19.0705 45.629 19.2494 45.4972 19.3812C45.3653 19.5131 45.1865 19.5872 45 19.5872C44.8135 19.5872 44.6347 19.5131 44.5028 19.3812C44.371 19.2494 44.2969 19.0705 44.2969 18.8841V12.255L41.2547 15.9056C40.9875 16.2272 40.4419 16.2272 40.1747 15.9056L37.1325 12.255V18.8841C37.1325 19.0705 37.0584 19.2494 36.9266 19.3812C36.7947 19.5131 36.6159 19.5872 36.4294 19.5872C36.2429 19.5872 36.0641 19.5131 35.9322 19.3812C35.8003 19.2494 35.7262 19.0705 35.7262 18.8841H35.7253ZM14.2969 30.9375C14.2969 30.751 14.371 30.5722 14.5028 30.4403C14.6347 30.3085 14.8135 30.2344 15 30.2344H30C30.1865 30.2344 30.3653 30.3085 30.4972 30.4403C30.629 30.5722 30.7031 30.751 30.7031 30.9375C30.7031 31.124 30.629 31.3028 30.4972 31.4347C30.3653 31.5665 30.1865 31.6406 30 31.6406H15C14.8135 31.6406 14.6347 31.5665 14.5028 31.4347C14.371 31.3028 14.2969 31.124 14.2969 30.9375ZM45.7031 30.9375C45.7031 31.124 45.629 31.3028 45.4972 31.4347C45.3653 31.5665 45.1865 31.6406 45 31.6406H35.625C35.4385 31.6406 35.2597 31.5665 35.1278 31.4347C34.996 31.3028 34.9219 31.124 34.9219 30.9375C34.9219 30.751 34.996 30.5722 35.1278 30.4403C35.2597 30.3085 35.4385 30.2344 35.625 30.2344H45C45.1865 30.2344 45.3653 30.3085 45.4972 30.4403C45.629 30.5722 45.7031 30.751 45.7031 30.9375ZM14.2969 25.3125C14.2969 25.126 14.371 24.9472 14.5028 24.8153C14.6347 24.6835 14.8135 24.6094 15 24.6094H45C45.1865 24.6094 45.3653 24.6835 45.4972 24.8153C45.629 24.9472 45.7031 25.126 45.7031 25.3125C45.7031 25.499 45.629 25.6778 45.4972 25.8097C45.3653 25.9415 45.1865 26.0156 45 26.0156H15C14.8135 26.0156 14.6347 25.9415 14.5028 25.8097C14.371 25.6778 14.2969 25.499 14.2969 25.3125Z" fill="#008080"/>
</svg>
