<svg width="24" height="24" viewBox="0 0 24 24" fill="none" xmlns="http://www.w3.org/2000/svg">
<path d="M19.1 2.8C18.72 2.3 18.13 2 17.5 2H6.5C5.87 2 5.28 2.3 4.9 2.8L2.2 6.4C2.07 6.57 2 6.78 2 7V8C2 9.04 2.41 9.98 3.06 10.69C3.03 10.79 3 10.89 3 11V20C3 21.1 3.9 22 5 22H19C20.1 22 21 21.1 21 20V11C21 10.89 20.97 10.79 20.94 10.69C21.59 9.98 22 9.04 22 8V7C22 6.78 21.93 6.57 21.8 6.4L19.1 2.8ZM20 7.33V8C20 9.1 19.1 10 18 10C16.9 10 16 9.1 16 8V7C16 6.92 15.99 6.84 15.97 6.76L15.28 4H17.5L20 7.33ZM10.78 4H13.22L14 7.12V8C14 9.1 13.1 10 12 10C10.9 10 10 9.1 10 8V7.12L10.78 4ZM4 7.33L6.5 4H8.72L8.03 6.76C8.01 6.84 8 6.92 8 7V8C8 9.1 7.1 10 6 10C4.9 10 4 9.1 4 8V7.33ZM10 20V16H14V20H10ZM16 20V16C16 14.9 15.1 14 14 14H10C8.9 14 8 14.9 8 16V20H5V11.86C5.32 11.94 5.65 12 6 12C7.2 12 8.27 11.46 9 10.62C9.73 11.46 10.8 12 12 12C13.2 12 14.27 11.46 15 10.62C15.73 11.46 16.8 12 18 12C18.35 12 18.68 11.94 19 11.86V20H16Z" fill="white"/>
</svg>
