<svg width="48" height="48" viewBox="0 0 48 48" fill="none" xmlns="http://www.w3.org/2000/svg">
<path d="M4 24.0032C4.00101 19.6184 5.44297 15.3555 8.10397 11.8704C10.765 8.38538 14.4975 5.8714 18.7272 4.71539C22.9569 3.55939 27.4492 3.82542 31.5129 5.47255C35.5766 7.11968 38.9864 10.0566 41.2174 13.8314C43.4485 17.6061 44.3773 22.0095 43.8608 26.3638C43.3442 30.718 41.4111 34.7819 38.3588 37.9299C35.3065 41.0779 31.3043 43.1357 26.968 43.7864C22.6318 44.4371 18.2018 43.6447 14.36 41.5312L6.584 43.8992C6.23717 44.0049 5.86813 44.0143 5.51637 43.9264C5.16462 43.8385 4.84337 43.6566 4.58699 43.4003C4.33062 43.1439 4.14875 42.8226 4.06086 42.4709C3.97297 42.1191 3.98235 41.7501 4.088 41.4032L6.456 33.6152C4.84306 30.6684 3.99841 27.3627 4 24.0032ZM16 22.0032C16 22.5337 16.2107 23.0424 16.5858 23.4175C16.9609 23.7925 17.4696 24.0032 18 24.0032H30C30.5304 24.0032 31.0391 23.7925 31.4142 23.4175C31.7893 23.0424 32 22.5337 32 22.0032C32 21.4728 31.7893 20.9641 31.4142 20.589C31.0391 20.214 30.5304 20.0032 30 20.0032H18C17.4696 20.0032 16.9609 20.214 16.5858 20.589C16.2107 20.9641 16 21.4728 16 22.0032ZM18 28.0032C17.4696 28.0032 16.9609 28.214 16.5858 28.589C16.2107 28.9641 16 29.4728 16 30.0032C16 30.5337 16.2107 31.0424 16.5858 31.4175C16.9609 31.7925 17.4696 32.0032 18 32.0032H26C26.5304 32.0032 27.0391 31.7925 27.4142 31.4175C27.7893 31.0424 28 30.5337 28 30.0032C28 29.4728 27.7893 28.9641 27.4142 28.589C27.0391 28.214 26.5304 28.0032 26 28.0032H18Z" fill="white"/>
</svg>
