<svg width="60" height="60" viewBox="0 0 60 60" fill="none" xmlns="http://www.w3.org/2000/svg">
<g clip-path="url(#clip0_6_946)">
<g clip-path="url(#clip1_6_946)">
<path d="M48.2602 58.6953C51.862 58.6953 54.7818 55.7755 54.7818 52.1737C54.7818 48.5719 51.862 45.6521 48.2602 45.6521C44.6584 45.6521 41.7386 48.5719 41.7386 52.1737C41.7386 55.7755 44.6584 58.6953 48.2602 58.6953Z" fill="#455A64"/>
<path d="M22.1735 58.6953C25.7753 58.6953 28.6951 55.7755 28.6951 52.1737C28.6951 48.5719 25.7753 45.6521 22.1735 45.6521C18.5717 45.6521 15.6519 48.5719 15.6519 52.1737C15.6519 55.7755 18.5717 58.6953 22.1735 58.6953Z" fill="#455A64"/>
<path d="M59.673 9.57168C59.5505 9.43302 59.4 9.32201 59.2313 9.246C59.0627 9.17 58.8798 9.13075 58.6948 9.13086H11.7389C11.0186 9.13074 10.4344 9.71451 10.4343 10.4349C10.4343 10.5225 10.4431 10.6101 10.4607 10.6961L15.6781 36.7826C15.7382 37.0772 15.8983 37.3419 16.1312 37.5321C16.3642 37.7222 16.6556 37.826 16.9563 37.826C17.0136 37.8298 17.0711 37.8298 17.1285 37.826L56.2583 32.6086C56.5441 32.5705 56.8093 32.4387 57.0122 32.2338C57.2152 32.029 57.3445 31.7626 57.38 31.4765L59.9886 10.6072C60.0132 10.422 59.9978 10.2338 59.9434 10.0551C59.8889 9.87646 59.7967 9.7116 59.673 9.57168Z" fill="#0F07FF"/>
<path d="M22.1735 32.6088C21.8648 32.6087 21.5661 32.499 21.3306 32.2994C21.0951 32.0997 20.9381 31.823 20.8875 31.5184L18.2789 15.8665C18.1821 15.1526 18.6824 14.4956 19.3963 14.3989C19.7256 14.3543 20.0595 14.437 20.3299 14.6303C20.6003 14.8235 20.7867 15.1127 20.851 15.4387L23.4597 31.0907C23.5774 31.8009 23.0976 32.4722 22.3875 32.5907C22.3168 32.6028 22.2453 32.6089 22.1735 32.6088ZM28.6952 31.3044C28.3687 31.3058 28.0536 31.1846 27.8121 30.9648C27.5705 30.745 27.4203 30.4427 27.3909 30.1175L26.0865 15.7699C26.019 15.0527 26.5457 14.4166 27.263 14.3491L27.2735 14.3481C27.9909 14.2832 28.625 14.8123 28.69 15.5297L29.9943 29.8774C30.0592 30.5948 29.5302 31.229 28.8128 31.2939H28.8126L28.6952 31.3044ZM35.2168 30.0001C34.4965 30.0001 33.9125 29.416 33.9125 28.6957V15.6525C33.9125 14.9321 34.4965 14.3481 35.2168 14.3481C35.9372 14.3481 36.5212 14.9321 36.5212 15.6525V28.6958C36.5212 29.4162 35.9372 30.0001 35.2168 30.0001ZM41.7384 28.6958H41.5923C40.876 28.62 40.3568 27.9778 40.4326 27.2613L40.4341 27.248L41.7384 15.5091C41.8231 14.7916 42.4676 14.2749 43.1862 14.3482C43.9022 14.4275 44.4185 15.072 44.3394 15.7881L43.035 27.5272C43.0014 27.8477 42.8504 28.1445 42.611 28.3603C42.3716 28.5761 42.0608 28.6956 41.7384 28.6958ZM48.2602 27.3914C48.062 27.3914 47.8665 27.3462 47.6885 27.2593C47.5104 27.1724 47.3545 27.0461 47.2325 26.89C47.1106 26.7338 47.0258 26.5519 46.9846 26.3581C46.9435 26.1643 46.947 25.9637 46.9949 25.7715L49.6035 15.3369C49.7617 14.6341 50.4596 14.1926 51.1624 14.3507C51.8651 14.5088 52.3067 15.2068 52.1486 15.9095C52.1442 15.9292 52.1393 15.9488 52.1339 15.9682L49.5253 26.4028C49.4549 26.6851 49.2921 26.9358 49.0629 27.1149C48.8337 27.294 48.5511 27.3914 48.2602 27.3914Z" fill="#FAFAFA"/>
<path d="M53.4774 43.0433H23.3709C19.0229 43.0332 15.2814 39.9667 14.418 35.7051L8.06075 3.91343H1.30437C0.584013 3.91343 0 3.32941 0 2.60906C0 1.8887 0.584013 1.30469 1.30437 1.30469H9.13034C9.43102 1.30462 9.72249 1.40844 9.95541 1.59858C10.1883 1.78872 10.3484 2.0535 10.4085 2.34811L16.9771 35.1911C17.5928 38.2354 20.265 40.4268 23.3709 40.4345H53.4774C54.1978 40.4345 54.7818 41.0185 54.7818 41.7389C54.7818 42.4593 54.1978 43.0433 53.4774 43.0433Z" fill="#455A64"/>
</g>
</g>
<defs>
<clipPath id="clip0_6_946">
<rect width="60" height="60" fill="white"/>
</clipPath>
<clipPath id="clip1_6_946">
<rect width="60" height="60" fill="white"/>
</clipPath>
</defs>
</svg>
