<svg width="60" height="60" viewBox="0 0 60 60" fill="none" xmlns="http://www.w3.org/2000/svg">
<g clip-path="url(#clip0_6_906)">
<path d="M39.225 46.1625C39.0844 45.8201 38.8455 45.527 38.5385 45.3201C38.2316 45.1132 37.8702 45.0018 37.5 45H35.625V39.375C35.625 38.8777 35.4275 38.4008 35.0759 38.0492C34.7242 37.6975 34.2473 37.5 33.75 37.5H26.25C25.7528 37.5 25.2758 37.6975 24.9242 38.0492C24.5726 38.4008 24.375 38.8777 24.375 39.375V45H22.5C22.1276 44.9978 21.763 45.1066 21.4526 45.3125C21.1423 45.5184 20.9003 45.812 20.7575 46.156C20.6147 46.4999 20.5775 46.8786 20.6508 47.2438C20.724 47.6089 20.9044 47.944 21.1688 48.2062L28.6688 55.7062C29.0201 56.0555 29.4953 56.2515 29.9907 56.2515C30.486 56.2515 30.9612 56.0555 31.3125 55.7062L38.8125 48.2062C39.0759 47.9447 39.2556 47.6108 39.3291 47.247C39.4025 46.8832 39.3663 46.5057 39.225 46.1625Z" fill="#3552E5"/>
<path d="M55.9688 4.63125C55.7999 4.36104 55.5649 4.13833 55.2861 3.98414C55.0072 3.82995 54.6936 3.74937 54.375 3.75H5.625C5.30538 3.75097 4.99131 3.83363 4.71263 3.99012C4.43394 4.14662 4.19988 4.37176 4.03268 4.64416C3.86548 4.91656 3.7707 5.22718 3.75732 5.54652C3.74394 5.86586 3.81242 6.18332 3.95625 6.46875L7.70625 13.9688C7.86206 14.278 8.10046 14.538 8.395 14.72C8.68955 14.902 9.02875 14.999 9.375 15H50.625C50.9713 14.999 51.3105 14.902 51.605 14.72C51.8995 14.538 52.1379 14.278 52.2938 13.9688L56.0438 6.46875C56.1901 6.18183 56.2601 5.86202 56.247 5.54018C56.2339 5.21833 56.138 4.9053 55.9688 4.63125Z" fill="#70B2E2"/>
<path d="M50.2875 17.6813C50.1152 17.4329 49.8854 17.2298 49.6176 17.0895C49.3499 16.9491 49.0522 16.8755 48.75 16.875H11.25C10.946 16.8759 10.6467 16.9507 10.3781 17.093C10.1094 17.2352 9.87936 17.4407 9.70776 17.6916C9.53616 17.9426 9.42815 18.2315 9.39304 18.5334C9.35793 18.8354 9.39677 19.1414 9.50621 19.425L12.3937 26.925C12.5297 27.2774 12.7689 27.5805 13.0801 27.7946C13.3912 28.0087 13.7598 28.1239 14.1375 28.125H45.8625C46.2402 28.1239 46.6087 28.0087 46.9199 27.7946C47.231 27.5805 47.4702 27.2774 47.6062 26.925L50.4937 19.425C50.6043 19.1396 50.6433 18.8314 50.6073 18.5275C50.5714 18.2235 50.4616 17.933 50.2875 17.6813Z" fill="#4FFFEA"/>
<path d="M44.6062 30.7311C44.4315 30.5042 44.2072 30.3204 43.9505 30.1936C43.6937 30.0669 43.4113 30.0006 43.125 29.9999H16.875C16.5818 29.9898 16.2903 30.0486 16.024 30.1716C15.7576 30.2946 15.5239 30.4784 15.3415 30.7082C15.1591 30.938 15.0332 31.2073 14.9739 31.4946C14.9146 31.782 14.9235 32.0792 15 32.3624L17.025 39.8624C17.1348 40.2715 17.38 40.6313 17.7204 40.8832C18.0609 41.1351 18.4767 41.2644 18.9 41.2499H41.1C41.5233 41.2644 41.939 41.1351 42.2795 40.8832C42.62 40.6313 42.8651 40.2715 42.975 39.8624L45 32.3624C45.0656 32.0786 45.0641 31.7834 44.9958 31.5003C44.9274 31.2171 44.794 30.9538 44.6062 30.7311Z" fill="#667EBB"/>
<path d="M39.225 46.1625C39.0843 45.8201 38.8455 45.527 38.5385 45.3201C38.2315 45.1132 37.8702 45.0018 37.5 45H35.625V39.375C35.625 38.8777 35.4275 38.4008 35.0758 38.0492C34.7242 37.6975 34.2473 37.5 33.75 37.5H30V56.25C30.2468 56.2514 30.4914 56.2041 30.7198 56.1108C30.9483 56.0175 31.156 55.88 31.3312 55.7062L38.8312 48.2062C39.0914 47.9426 39.2677 47.6078 39.3377 47.244C39.4078 46.8803 39.3686 46.504 39.225 46.1625Z" fill="#2E4AD3"/>
<path d="M55.9688 4.63125C55.7999 4.36104 55.5649 4.13833 55.2861 3.98414C55.0072 3.82995 54.6936 3.74937 54.375 3.75H30V15H50.625C50.9713 14.999 51.3104 14.902 51.605 14.72C51.8995 14.538 52.1379 14.278 52.2937 13.9688L56.0437 6.46875C56.1901 6.18183 56.2601 5.86202 56.247 5.54018C56.2339 5.21833 56.138 4.9053 55.9688 4.63125Z" fill="#57A0D7"/>
<path d="M50.2875 17.6813C50.1152 17.4329 49.8854 17.2298 49.6177 17.0895C49.35 16.9491 49.0523 16.8755 48.75 16.875H30V28.125H45.8625C46.2402 28.1239 46.6088 28.0087 46.9199 27.7946C47.2311 27.5805 47.4703 27.2774 47.6062 26.925L50.4938 19.425C50.6043 19.1396 50.6433 18.8314 50.6074 18.5275C50.5714 18.2235 50.4616 17.933 50.2875 17.6813Z" fill="#5029FF"/>
<path d="M44.6063 30.7312C44.4316 30.5043 44.2073 30.3205 43.9505 30.1937C43.6937 30.067 43.4113 30.0007 43.125 30H30V41.25H41.1C41.5233 41.2645 41.939 41.1353 42.2795 40.8833C42.62 40.6314 42.8651 40.2716 42.975 39.8625L45 32.3625C45.0656 32.0787 45.0641 31.7835 44.9958 31.5004C44.9275 31.2172 44.7941 30.9539 44.6063 30.7312Z" fill="#4276A0"/>
</g>
<defs>
<clipPath id="clip0_6_906">
<rect width="60" height="60" fill="white"/>
</clipPath>
</defs>
</svg>
