<svg width="60" height="60" viewBox="0 0 60 60" fill="none" xmlns="http://www.w3.org/2000/svg">
<g clip-path="url(#clip0_6_959)">
<path d="M35.4326 5.4326C35.4326 2.43224 33.0004 6.34882e-06 30 6.34882e-06C28.7125 -0.00196505 27.4665 0.455233 26.4859 1.28946C25.6308 2.56987 24.922 3.77626 24.922 5.43647C24.922 8.43683 26.9998 10.3784 30.0001 10.3784C31.7708 10.3784 33.2479 9.91642 34.2396 8.60548C34.4872 8.2782 34.9634 7.64439 34.9634 7.64439C35.2737 6.94836 35.4336 6.19467 35.4326 5.4326Z" fill="#6490FF"/>
<path d="M34.9632 7.64448C34.1169 9.54227 32.2129 10.8653 30 10.8653C27 10.8653 24.5674 8.43269 24.5674 5.43269C24.5674 3.77273 25.3124 2.28673 26.4858 1.28955C26.1753 1.98544 26.0152 2.73907 26.0161 3.5011C26.0161 6.5011 28.4487 8.9337 31.4487 8.9337C32.7362 8.93531 33.9821 8.47826 34.9632 7.64448Z" fill="#668AFF"/>
<path d="M31.8713 3.56128H28.1288C27.6288 3.56128 27.2234 3.96655 27.2234 4.46671C27.2234 4.96687 27.6288 5.37214 28.1288 5.37214H29.0946V7.24337C29.0946 7.74353 29.5 8.1488 30 8.1488C30.5001 8.1488 30.9055 7.74353 30.9055 7.24337V5.37214H31.8713C32.3713 5.37214 32.7767 4.96687 32.7767 4.46671C32.7767 3.96655 32.3713 3.56128 31.8713 3.56128Z" fill="#F7F7F9"/>
<path d="M49.9196 5.4326C49.9196 2.43224 47.4873 6.34882e-06 44.487 6.34882e-06C43.1995 -0.00196505 41.9535 0.455233 40.9728 1.28946C40.1177 2.56987 39.4089 3.77626 39.4089 5.43647C39.4089 8.43683 41.4867 10.3784 44.4871 10.3784C46.2577 10.3784 47.7348 9.91642 48.7266 8.60548C48.9742 8.2782 49.4503 7.64439 49.4503 7.64439C49.7606 6.94836 49.9205 6.19467 49.9196 5.4326Z" fill="#6490FF"/>
<path d="M49.4501 7.64448C48.6039 9.54227 46.6998 10.8653 44.4869 10.8653C41.4869 10.8653 39.0543 8.43269 39.0543 5.43269C39.0543 3.77273 39.7993 2.28673 40.9728 1.28955C40.6622 1.98544 40.5021 2.73907 40.503 3.5011C40.503 6.5011 42.9356 8.9337 45.9356 8.9337C47.2231 8.93531 48.4691 8.47826 49.4501 7.64448Z" fill="#668AFF"/>
<path d="M46.3582 3.56128H42.6158C42.1157 3.56128 41.7103 3.96655 41.7103 4.46671C41.7103 4.96687 42.1157 5.37214 42.6158 5.37214H43.5816V7.24337C43.5816 7.74353 43.9869 8.1488 44.487 8.1488C44.987 8.1488 45.3924 7.74353 45.3924 7.24337V5.37214H46.3582C46.8583 5.37214 47.2636 4.96687 47.2636 4.46671C47.2636 3.96655 46.8583 3.56128 46.3582 3.56128Z" fill="#F7F7F9"/>
<path d="M48.2904 17.7362L12.1938 17.7339L12.1936 20.7042C12.1935 21.6573 12.4191 22.5968 12.852 23.4459C13.2848 24.295 13.9126 25.0296 14.6839 25.5894L26.6645 34.2862C26.8187 34.3981 26.9443 34.545 27.0309 34.7148C27.1174 34.8847 27.1626 35.0726 27.1626 35.2632L27.1616 38.5098C27.1616 38.5842 27.1845 38.6567 27.2271 38.7177C27.2698 38.7786 27.3302 38.8249 27.4 38.8503L29.4568 40.125L32.9953 41.4117C33.0317 41.4249 33.0709 41.4292 33.1093 41.4242C33.1478 41.4191 33.1845 41.4048 33.2163 41.3826C33.2481 41.3603 33.2741 41.3307 33.292 41.2963C33.3099 41.2619 33.3193 41.2236 33.3193 41.1848L33.3196 35.2638C33.3196 35.0732 33.3648 34.8852 33.4514 34.7154C33.538 34.5456 33.6636 34.3987 33.8179 34.2868L45.7995 25.5916C46.5709 25.0318 47.1987 24.2973 47.6317 23.4483C48.0646 22.5992 48.2904 21.6597 48.2904 20.7066V17.7362Z" fill="#000DFF"/>
<path d="M29.4568 33.2112L29.4569 40.1249L26.918 39.2016C26.8481 39.1762 26.7878 39.1299 26.7452 39.069C26.7026 39.008 26.6799 38.9354 26.6801 38.8611V35.2635C26.6801 34.876 26.4942 34.5126 26.1816 34.2857L14.2009 25.5899C13.4296 25.0299 12.8019 24.2952 12.369 23.4461C11.9361 22.5969 11.7104 21.6573 11.7103 20.7042L11.7115 17.7332H14.487V18.6519C14.4871 19.605 14.7128 20.5446 15.1457 21.3937C15.5785 22.2429 16.2063 22.9776 16.9775 23.5376L28.9582 32.2334C29.1126 32.3454 29.2383 32.4925 29.3249 32.6624C29.4116 32.8324 29.4568 33.0204 29.4568 33.2112Z" fill="#000DFF"/>
<path d="M51.1268 19.3102H14.5244L9.22262 18.9405C8.55586 18.9405 8.01538 18.4 8.01538 17.7333L8.08214 15.9473C8.08214 15.2805 8.62262 14.74 9.28938 14.74L14.4869 14.4812H51.1268C51.7935 14.4812 52.334 15.0217 52.334 15.6884V18.1029C52.334 18.7697 51.7935 19.3102 51.1268 19.3102Z" fill="#000DFF"/>
<path d="M14.5244 19.3099H8.87326C8.20686 19.3099 7.66602 18.7691 7.66602 18.1027V15.6882C7.66602 15.0218 8.20686 14.481 8.87326 14.481H14.4869V18.652C14.4869 18.8729 14.499 19.0926 14.5244 19.3099Z" fill="#000DFF"/>
<path d="M20.9457 5.4326C20.9457 2.43224 18.5134 6.34882e-06 15.5131 6.34882e-06C14.2256 -0.00196505 12.9796 0.455233 11.9989 1.28946C11.1438 2.56987 10.4351 3.77626 10.4351 5.43647C10.4351 8.43683 12.5128 10.3784 15.5132 10.3784C17.2839 10.3784 18.7609 9.91642 19.7527 8.60548C20.0003 8.2782 20.4764 7.64439 20.4764 7.64439C20.7867 6.94836 20.9466 6.19467 20.9457 5.4326Z" fill="#6490FF"/>
<path d="M20.4763 7.64448C19.63 9.54227 17.7259 10.8653 15.513 10.8653C12.513 10.8653 10.0804 8.43269 10.0804 5.43269C10.0804 3.77273 10.8254 2.28673 11.9989 1.28955C11.6883 1.98544 11.5283 2.73907 11.5291 3.5011C11.5291 6.5011 13.9617 8.9337 16.9617 8.9337C18.2492 8.93531 19.4952 8.47826 20.4763 7.64448Z" fill="#668AFF"/>
<path d="M17.3843 3.56128H13.6419C13.1418 3.56128 12.7365 3.96655 12.7365 4.46671C12.7365 4.96687 13.1418 5.37214 13.6419 5.37214H14.6077V7.24337C14.6077 7.74353 15.0131 8.1488 15.5131 8.1488C16.0132 8.1488 16.4185 7.74353 16.4185 7.24337V5.37214H17.3843C17.8844 5.37214 18.2898 4.96687 18.2898 4.46671C18.2898 3.96655 17.8844 3.56128 17.3843 3.56128Z" fill="#F7F7F9"/>
<path d="M37.5453 52.4547C37.5453 48.2875 34.1672 44.9094 30 44.9094C28.3364 44.9069 26.7189 45.4566 25.4013 46.4723C23.9224 48.1465 22.8876 50.0184 22.8876 52.4547C22.8876 56.6219 25.8329 59.5312 30 59.5312C31.5861 59.5312 32.9594 59.273 34.174 58.437C34.9697 57.8894 36.2886 56.6257 36.2886 56.6257C37.0827 55.4309 37.5453 53.9968 37.5453 52.4547Z" fill="#6490FF"/>
<path d="M36.2885 56.6258C34.9376 58.66 32.6257 60.0001 30 60.0001C25.8326 60.0001 22.4547 56.6222 22.4547 52.4548C22.4547 50.0186 23.61 47.8516 25.4016 46.4729C24.6072 47.6681 24.1449 49.1023 24.1449 50.6439C24.1449 54.8113 27.5227 58.1892 31.6901 58.1892C33.4213 58.1892 35.0149 57.6061 36.2885 56.6258Z" fill="#668AFF"/>
<path d="M30.4178 51.5376C30.1036 51.4624 29.573 51.28 29.5487 50.9038C29.5331 50.6608 29.712 50.3923 29.8706 50.3319C30.3108 50.1643 30.7733 50.3948 30.8245 50.4217C30.9299 50.478 31.0455 50.5129 31.1644 50.5243C31.2834 50.5357 31.4034 50.5235 31.5176 50.4883C31.6318 50.4531 31.7379 50.3956 31.8298 50.3192C31.9217 50.2428 31.9976 50.149 32.053 50.0431C32.1085 49.9373 32.1424 49.8215 32.1529 49.7024C32.1634 49.5834 32.1502 49.4635 32.1141 49.3495C32.078 49.2356 32.0197 49.13 31.9426 49.0387C31.8655 48.9474 31.7711 48.8723 31.6648 48.8177C31.5378 48.7511 31.2661 48.6247 30.9053 48.5414V48.1928C30.9053 47.6926 30.4999 47.2874 29.9999 47.2874C29.4998 47.2874 29.0944 47.6926 29.0944 48.1928V48.6964C28.2416 49.0904 27.6787 50.0429 27.7415 51.02C27.8126 52.1257 28.6552 52.9776 29.9958 53.2987C30.3092 53.3737 30.8268 53.5667 30.7738 54.0159C30.7369 54.3284 30.454 54.6515 30.0444 54.6515C29.4428 54.6515 29.0312 54.2458 28.9863 54.1995C28.9034 54.1143 28.8046 54.0461 28.6954 53.999C28.5862 53.9519 28.4688 53.9268 28.3499 53.9251C28.231 53.9234 28.113 53.9452 28.0025 53.9891C27.892 54.033 27.7912 54.0983 27.706 54.1812C27.6207 54.2641 27.5526 54.3629 27.5055 54.4721C27.4584 54.5813 27.4333 54.6986 27.4316 54.8175C27.4299 54.9364 27.4516 55.0545 27.4956 55.165C27.5395 55.2755 27.6048 55.3762 27.6876 55.4615C27.8534 55.6321 28.3458 56.0821 29.0945 56.316V56.7165C29.0945 57.2167 29.4999 57.622 30 57.622C30.5 57.622 30.9054 57.2167 30.9054 56.7165V56.3116C31.791 55.9947 32.4571 55.2045 32.5724 54.2283C32.6877 53.2527 32.1925 51.9628 30.4178 51.5376Z" fill="white"/>
</g>
<defs>
<clipPath id="clip0_6_959">
<rect width="60" height="60" fill="white"/>
</clipPath>
</defs>
</svg>
