<svg width="616" height="332" viewBox="0 0 616 332" fill="none" xmlns="http://www.w3.org/2000/svg">
<g clip-path="url(#clip0_6_3929)">
<path opacity="0.2" d="M134.724 67L154.367 86.769L99.0475 142.444H121.137L164.879 98.4208C164.879 98.4208 226.545 158.898 224.97 158.898H156.62L171.322 144.102L160.616 133.327L135.112 158.971C135.112 158.971 45.2778 158.24 46.0044 158.995C46.731 159.751 134.724 67 134.724 67Z" fill="url(#paint0_linear_6_3929)"/>
<path opacity="0.2" d="M483.019 26L495.2 38.2482L460.895 72.7425H474.593L501.718 45.4672C501.718 45.4672 539.958 82.9367 538.982 82.9367H496.597L505.713 73.7695L499.075 67.0941L483.259 82.9821C483.259 82.9821 427.552 82.529 428.003 82.9972C428.453 83.4653 483.019 26 483.019 26Z" fill="url(#paint1_linear_6_3929)"/>
<path opacity="0.2" d="M562.723 123L569.746 130.091L549.967 150.061H557.865L573.504 134.271C573.504 134.271 595.552 155.963 594.989 155.963H570.551L575.808 150.656L571.98 146.791L562.861 155.99C562.861 155.99 530.742 155.727 531.002 155.998C531.261 156.269 562.723 123 562.723 123Z" fill="url(#paint2_linear_6_3929)"/>
<path opacity="0.2" d="M583.757 33L589.903 39.2315L572.596 56.7813H579.506L593.191 42.9044C593.191 42.9044 612.483 61.9678 611.991 61.9678H590.607L595.207 57.3038L591.858 53.9075L583.879 61.9909C583.879 61.9909 555.774 61.7604 556.001 61.9986C556.229 62.2367 583.757 33 583.757 33Z" fill="url(#paint3_linear_6_3929)"/>
<path opacity="0.2" d="M589.062 189L600.146 200.174L568.932 231.642H581.396L606.077 206.76C606.077 206.76 640.872 240.942 639.983 240.942H601.417L609.712 232.579L603.672 226.489L589.281 240.984C589.281 240.984 538.592 240.57 539.002 240.997C539.412 241.425 589.062 189 589.062 189Z" fill="url(#paint4_linear_6_3929)"/>
<path opacity="0.2" d="M489.723 107L496.746 114.091L476.967 134.061H484.865L500.504 118.271C500.504 118.271 522.552 139.963 521.989 139.963H497.551L502.808 134.656L498.98 130.791L489.861 139.99C489.861 139.99 457.742 139.727 458.002 139.998C458.261 140.269 489.723 107 489.723 107Z" fill="url(#paint5_linear_6_3929)"/>
<path opacity="0.2" d="M220.723 33L227.746 40.0911L207.967 60.0614H215.865L231.504 44.2705C231.504 44.2705 253.552 65.9634 252.989 65.9634H228.551L233.808 60.656L229.98 56.7913L220.861 65.9896C220.861 65.9896 188.742 65.7273 189.002 65.9984C189.261 66.2694 220.723 33 220.723 33Z" fill="url(#paint6_linear_6_3929)"/>
<path opacity="0.2" d="M47.0884 195L57.5134 205.529L28.1537 235.182H39.877L63.0922 211.735C63.0922 211.735 95.8198 243.946 94.9843 243.946H58.7089L66.5115 236.065L60.8298 230.327L47.2941 243.985C47.2941 243.985 -0.383308 243.595 0.00232684 243.998C0.387962 244.4 47.0884 195 47.0884 195Z" fill="url(#paint7_linear_6_3929)"/>
<path d="M344.376 14L423.496 102.316L200.672 351.038H289.645L465.837 154.369C465.837 154.369 714.222 424.544 707.881 424.544H432.569L491.788 358.443L448.667 310.31L345.937 424.871C345.937 424.871 -15.9091 421.604 -12.9823 424.979C-10.0556 428.355 344.376 14 344.376 14Z" fill="url(#paint8_linear_6_3929)"/>
</g>
<defs>
<linearGradient id="paint0_linear_6_3929" x1="46" y1="113" x2="225" y2="113" gradientUnits="userSpaceOnUse">
<stop stop-color="#6DFAD9"/>
<stop offset="1" stop-color="#2755EE"/>
</linearGradient>
<linearGradient id="paint1_linear_6_3929" x1="428" y1="54.5" x2="539" y2="54.5" gradientUnits="userSpaceOnUse">
<stop stop-color="#6DFAD9"/>
<stop offset="1" stop-color="#2755EE"/>
</linearGradient>
<linearGradient id="paint2_linear_6_3929" x1="531" y1="139.5" x2="595" y2="139.5" gradientUnits="userSpaceOnUse">
<stop stop-color="#6DFAD9"/>
<stop offset="1" stop-color="#2755EE"/>
</linearGradient>
<linearGradient id="paint3_linear_6_3929" x1="556" y1="47.5" x2="612" y2="47.5" gradientUnits="userSpaceOnUse">
<stop stop-color="#6DFAD9"/>
<stop offset="1" stop-color="#2755EE"/>
</linearGradient>
<linearGradient id="paint4_linear_6_3929" x1="539" y1="215" x2="640" y2="215" gradientUnits="userSpaceOnUse">
<stop stop-color="#6DFAD9"/>
<stop offset="1" stop-color="#2755EE"/>
</linearGradient>
<linearGradient id="paint5_linear_6_3929" x1="458" y1="123.5" x2="522" y2="123.5" gradientUnits="userSpaceOnUse">
<stop stop-color="#6DFAD9"/>
<stop offset="1" stop-color="#2755EE"/>
</linearGradient>
<linearGradient id="paint6_linear_6_3929" x1="189" y1="49.5" x2="253" y2="49.5" gradientUnits="userSpaceOnUse">
<stop stop-color="#6DFAD9"/>
<stop offset="1" stop-color="#2755EE"/>
</linearGradient>
<linearGradient id="paint7_linear_6_3929" x1="0" y1="219.5" x2="95" y2="219.5" gradientUnits="userSpaceOnUse">
<stop stop-color="#6DFAD9"/>
<stop offset="1" stop-color="#2755EE"/>
</linearGradient>
<linearGradient id="paint8_linear_6_3929" x1="-13" y1="219.5" x2="708" y2="219.5" gradientUnits="userSpaceOnUse">
<stop stop-color="#6DFAD9"/>
<stop offset="1" stop-color="#2755EE"/>
</linearGradient>
<clipPath id="clip0_6_3929">
<path d="M0 0H596C607.046 0 616 8.9543 616 20V312C616 323.046 607.046 332 596 332H0V0Z" fill="white"/>
</clipPath>
</defs>
</svg>
