<svg width="60" height="60" viewBox="0 0 60 60" fill="none" xmlns="http://www.w3.org/2000/svg">
<g clip-path="url(#clip0_6_919)">
<path d="M1.81824 54.5453C1.81824 56.5544 3.44551 58.1817 5.4546 58.1817H54.5455C56.5546 58.1817 58.1819 56.5544 58.1819 54.5453V11.2544H1.81824V54.5453Z" fill="#D8D7EF"/>
<path d="M54.5455 1.81812H5.4546C3.44551 1.81812 1.81824 3.44539 1.81824 5.45448V11.2545H58.1819V5.45448C58.1819 3.44539 56.5546 1.81812 54.5455 1.81812Z" fill="#434343"/>
<path d="M7.27283 16.709H52.7274V39.9908H7.27283V16.709Z" fill="#5F6FE7"/>
<path d="M10.6636 8.35438C11.6678 8.35438 12.4818 7.54035 12.4818 6.5362C12.4818 5.53205 11.6678 4.71802 10.6636 4.71802C9.65949 4.71802 8.84546 5.53205 8.84546 6.5362C8.84546 7.54035 9.65949 8.35438 10.6636 8.35438Z" fill="#FF3300"/>
<path d="M17.2636 8.35438C18.2678 8.35438 19.0818 7.54035 19.0818 6.5362C19.0818 5.53205 18.2678 4.71802 17.2636 4.71802C16.2595 4.71802 15.4454 5.53205 15.4454 6.5362C15.4454 7.54035 16.2595 8.35438 17.2636 8.35438Z" fill="#FFE100"/>
<path d="M23.8636 8.35438C24.8677 8.35438 25.6818 7.54035 25.6818 6.5362C25.6818 5.53205 24.8677 4.71802 23.8636 4.71802C22.8594 4.71802 22.0454 5.53205 22.0454 6.5362C22.0454 7.54035 22.8594 8.35438 23.8636 8.35438Z" fill="#00FF2F"/>
<path d="M10.9092 52.7273C12.9175 52.7273 14.5456 51.0993 14.5456 49.091C14.5456 47.0826 12.9175 45.4546 10.9092 45.4546C8.90088 45.4546 7.27283 47.0826 7.27283 49.091C7.27283 51.0993 8.90088 52.7273 10.9092 52.7273Z" fill="#1F31A3"/>
<path d="M27.8001 48.1817H18.0546C17.5546 48.1817 17.1455 47.7726 17.1455 47.2726C17.1455 46.7726 17.5546 46.3635 18.0546 46.3635H27.8001C28.3001 46.3635 28.7091 46.7726 28.7091 47.2726C28.7091 47.7726 28.3001 48.1817 27.8001 48.1817ZM23.8637 51.8181H18.0546C17.5546 51.8181 17.1455 51.409 17.1455 50.909C17.1455 50.409 17.5546 49.9999 18.0546 49.9999H23.8637C24.3637 49.9999 24.7728 50.409 24.7728 50.909C24.7728 51.409 24.3637 51.8181 23.8637 51.8181Z" fill="white"/>
<path d="M35.8364 52.7273C37.8447 52.7273 39.4728 51.0993 39.4728 49.091C39.4728 47.0826 37.8447 45.4546 35.8364 45.4546C33.8281 45.4546 32.2001 47.0826 32.2001 49.091C32.2001 51.0993 33.8281 52.7273 35.8364 52.7273Z" fill="#3B6AE1"/>
<path d="M12.3728 45.7637C12.6164 46.317 12.7181 46.9224 12.6687 47.525C12.6194 48.1275 12.4205 48.7083 12.0902 49.2146C11.7598 49.721 11.3084 50.137 10.7768 50.4249C10.2452 50.7128 9.65013 50.8637 9.04555 50.8637C8.52736 50.8637 8.02736 50.7455 7.58191 50.5546C7.91837 51.3176 8.50688 51.9419 9.24882 52.3226C9.99075 52.7034 10.841 52.8176 11.6571 52.6461C12.4733 52.4746 13.2056 52.0277 13.7315 51.3805C14.2573 50.7332 14.5448 49.9249 14.5455 49.0909C14.5452 48.3853 14.3397 47.6951 13.9539 47.1043C13.5681 46.5135 13.0187 46.0477 12.3728 45.7637Z" fill="#1F31A3"/>
<path d="M37.3001 45.7637C37.5436 46.317 37.6453 46.9224 37.596 47.525C37.5466 48.1275 37.3478 48.7083 37.0174 49.2146C36.6871 49.721 36.2357 50.137 35.704 50.4249C35.1724 50.7128 34.5774 50.8637 33.9728 50.8637C33.4546 50.8637 32.9546 50.7455 32.5092 50.5546C32.7471 51.0959 33.1134 51.571 33.5764 51.9387C34.0394 52.3065 34.5852 52.5557 35.1663 52.6649C35.7474 52.774 36.3464 52.7398 36.9113 52.5651C37.4762 52.3905 37.9899 52.0807 38.408 51.6626C38.8261 51.2445 39.1359 50.7307 39.3106 50.1658C39.4853 49.6009 39.5195 49.0019 39.4104 48.4208C39.3012 47.8397 39.052 47.2939 38.6842 46.8309C38.3165 46.3679 37.8414 46.0016 37.3001 45.7637Z" fill="#3B6AE1"/>
<path d="M52.7273 48.1817H42.9818C42.4818 48.1817 42.0728 47.7726 42.0728 47.2726C42.0728 46.7726 42.4818 46.3635 42.9818 46.3635H52.7273C53.2273 46.3635 53.6364 46.7726 53.6364 47.2726C53.6364 47.7726 53.2273 48.1817 52.7273 48.1817ZM48.7909 51.8181H42.9818C42.4818 51.8181 42.0728 51.409 42.0728 50.909C42.0728 50.409 42.4818 49.9999 42.9818 49.9999H48.7909C49.2909 49.9999 49.7 50.409 49.7 50.909C49.7 51.409 49.2909 51.8181 48.7909 51.8181Z" fill="white"/>
<path d="M41.3 39.9909C37.8273 37.3363 37.1727 28.009 32.5727 28.009C27.9818 28.009 27.3182 37.3363 23.8455 39.9909H41.3Z" fill="#012AF8"/>
<path d="M39.2546 37.2636H37.9455C33.2455 37.2636 30.1637 32.1818 32.5092 28.0999C32.5273 28.0727 32.5455 28.0363 32.5637 28.009C27.991 28.0363 27.3273 37.3363 23.8546 39.9909H41.3001C40.491 39.3727 39.8364 38.3999 39.2546 37.2636Z" fill="#012AF4"/>
<path d="M44.4091 28.4272C46.5731 28.4272 48.3273 26.673 48.3273 24.509C48.3273 22.345 46.5731 20.5908 44.4091 20.5908C42.2452 20.5908 40.491 22.345 40.491 24.509C40.491 26.673 42.2452 28.4272 44.4091 28.4272Z" fill="white"/>
<path d="M32.8001 39.9909C27.7183 36.1091 26.7546 22.4636 20.0365 22.4636C13.3183 22.4636 12.3546 36.1091 7.27283 39.9909H32.8001Z" fill="#012AF8"/>
<path d="M30.5091 37.2636H28.6091C21.1182 37.2636 16.5273 28.8182 20.8182 22.6818C20.8455 22.6364 20.8819 22.6 20.9091 22.5545C20.6273 22.5 20.3455 22.4636 20.0455 22.4636C13.3273 22.4636 12.3637 36.1091 7.28186 39.9909H32.8091C31.9273 39.3273 31.1819 38.3727 30.5091 37.2636Z" fill="#012AF4"/>
</g>
<defs>
<clipPath id="clip0_6_919">
<rect width="60" height="60" fill="white"/>
</clipPath>
</defs>
</svg>
