<svg width="60" height="60" viewBox="0 0 60 60" fill="none" xmlns="http://www.w3.org/2000/svg">
<g clip-path="url(#clip0_6_880)">
<path d="M6.4807 35.2306C6.4807 37.5172 6.98367 39.2727 7.64086 40.3347C8.50266 41.7258 9.78773 42.3151 11.0981 42.3151C12.7882 42.3151 14.3344 41.8964 17.3138 37.7836C19.7009 34.4873 22.5136 29.8599 24.4059 26.9591L27.611 22.0444C29.8373 18.6313 32.4141 14.8372 35.3688 12.2653C37.7803 10.1661 40.3823 9 43.0008 9C47.3972 9 51.5848 11.5427 54.7898 16.3116C58.2973 21.5343 60 28.1127 60 34.9015C60 38.9373 59.2031 41.9027 57.8468 44.2456C56.5364 46.5113 53.9824 48.775 49.6863 48.775V42.3151C53.3648 42.3151 54.2829 38.9415 54.2829 35.0807C54.2829 29.5789 52.9976 23.473 50.1663 19.1104C48.1568 16.0157 45.5529 14.1249 42.6881 14.1249C39.5897 14.1249 37.0962 16.4571 34.294 20.6161C32.8043 22.8255 31.2748 25.5181 29.5577 28.5563L27.6673 31.8987C23.8697 38.6187 22.9078 40.1492 21.0091 42.6753C17.681 47.0987 14.8395 48.775 11.0981 48.775C6.66023 48.775 3.85359 46.8568 2.1157 43.9665C0.696797 41.6112 0 38.5209 0 34.9995L6.4807 35.2306Z" fill="#0081FB"/>
<path d="M5.10983 16.7675C8.08124 12.1967 12.3689 9 17.2868 9C20.1351 9 22.9664 9.8414 25.923 12.2508C29.1569 14.8849 32.6039 19.2227 36.9042 26.3719L38.4464 28.9373C42.1685 35.1266 44.2863 38.3104 45.5257 39.8122C47.1199 41.7404 48.2362 42.3151 49.6863 42.3151C53.3648 42.3151 54.2829 38.9415 54.2829 35.0807L60 34.9015C60 38.9373 59.2031 41.9027 57.8468 44.2456C56.5364 46.5113 53.9824 48.775 49.6863 48.775C47.0156 48.775 44.6496 48.196 42.033 45.7324C40.0216 43.8416 37.6701 40.4826 35.861 37.4629L30.4798 28.4917C27.78 23.9895 25.3031 20.6327 23.8699 19.1123C22.3282 17.4777 20.3458 15.5034 17.1827 15.5034C14.6226 15.5034 12.4483 17.2966 10.6289 20.0391L5.10983 16.7675Z" fill="url(#paint0_linear_6_880)"/>
<path d="M17.1825 15.5034C14.6224 15.5034 12.4481 17.2966 10.6287 20.0391C8.05617 23.9146 6.4807 29.687 6.4807 35.2306C6.4807 37.5172 6.98367 39.2727 7.64086 40.3347L2.1157 43.9665C0.696797 41.6112 0 38.5209 0 34.9995C0 28.5958 1.76109 21.9216 5.10984 16.7675C8.08125 12.1967 12.3689 9 17.2868 9L17.1825 15.5034Z" fill="url(#paint1_linear_6_880)"/>
</g>
<defs>
<linearGradient id="paint0_linear_6_880" x1="12.7275" y1="31.2477" x2="53.991" y2="33.3359" gradientUnits="userSpaceOnUse">
<stop stop-color="#0064E1"/>
<stop offset="0.4" stop-color="#0064E1"/>
<stop offset="0.83" stop-color="#0073EE"/>
<stop offset="1" stop-color="#0082FB"/>
</linearGradient>
<linearGradient id="paint1_linear_6_880" x1="9.38932" y1="37.946" x2="9.38932" y2="22.7443" gradientUnits="userSpaceOnUse">
<stop stop-color="#0082FB"/>
<stop offset="1" stop-color="#0064E0"/>
</linearGradient>
<clipPath id="clip0_6_880">
<rect width="60" height="40" fill="white" transform="translate(0 9)"/>
</clipPath>
</defs>
</svg>
