<svg width="60" height="60" viewBox="0 0 60 60" fill="none" xmlns="http://www.w3.org/2000/svg">
<g clip-path="url(#clip0_6_972)">
<path d="M42.5714 19.5303C42.3958 19.5304 42.2241 19.4783 42.078 19.3807C41.9805 19.3158 41.8967 19.2323 41.8315 19.135C41.7662 19.0378 41.7208 18.9286 41.6977 18.8138C41.6746 18.6989 41.6744 18.5807 41.6971 18.4657C41.7197 18.3508 41.7648 18.2415 41.8297 18.144L51.463 3.66957C51.5279 3.57203 51.6114 3.48824 51.7086 3.42297C51.8059 3.3577 51.9151 3.31224 52.03 3.28918C52.1448 3.26612 52.2631 3.26591 52.378 3.28857C52.4929 3.31123 52.6023 3.35632 52.6998 3.42125C52.7973 3.48613 52.8811 3.5696 52.9464 3.66687C53.0116 3.76414 53.0571 3.87331 53.0801 3.98815C53.1032 4.10299 53.1034 4.22125 53.0808 4.33617C53.0581 4.45109 53.013 4.56043 52.9481 4.65793L43.3148 19.1323C43.2334 19.2549 43.1229 19.3554 42.9932 19.4248C42.8634 19.4942 42.7185 19.5305 42.5714 19.5303ZM39.9439 20.2214C39.8055 20.2213 39.669 20.1889 39.5453 20.1267L31.2709 15.9825C31.1661 15.93 31.0728 15.8575 30.9961 15.7689C30.9194 15.6804 30.8609 15.5776 30.8239 15.4665C30.7869 15.3553 30.7722 15.238 30.7806 15.1211C30.789 15.0043 30.8203 14.8902 30.8728 14.7855C30.9252 14.6807 30.9978 14.5873 31.0864 14.5106C31.1749 14.4339 31.2777 14.3754 31.3889 14.3384C31.5 14.3015 31.6174 14.2868 31.7342 14.2952C31.8511 14.3036 31.9651 14.3349 32.0699 14.3874L40.3442 18.5316C40.449 18.5841 40.5424 18.6566 40.6191 18.7452C40.6958 18.8337 40.7543 18.9365 40.7913 19.0476C40.8282 19.1588 40.8429 19.2761 40.8345 19.393C40.8261 19.5098 40.7948 19.6239 40.7423 19.7286C40.6682 19.8768 40.5542 20.0014 40.4131 20.0884C40.2721 20.1754 40.1097 20.2215 39.9439 20.2214ZM19.8586 25.3989C19.6822 25.399 19.5098 25.3467 19.3631 25.2488C19.2165 25.1509 19.1021 25.0116 19.0346 24.8487C18.967 24.6858 18.9492 24.5065 18.9835 24.3335C19.0179 24.1605 19.1027 24.0016 19.2273 23.8768L27.8278 15.2615C27.9106 15.1786 28.0088 15.1128 28.117 15.0679C28.2252 15.023 28.3412 14.9998 28.4583 14.9997C28.5754 14.9996 28.6914 15.0226 28.7997 15.0673C28.9079 15.1121 29.0063 15.1777 29.0892 15.2605C29.1721 15.3432 29.2379 15.4415 29.2828 15.5497C29.3277 15.6579 29.3509 15.7738 29.351 15.891C29.3511 16.0081 29.3281 16.1241 29.2834 16.2323C29.2386 16.3406 29.173 16.439 29.0903 16.5219L20.4898 25.1371C20.407 25.2203 20.3087 25.2862 20.2003 25.3311C20.092 25.3761 19.9759 25.3991 19.8586 25.3989ZM8.95054 31.6088C8.78631 31.609 8.62524 31.5638 8.48508 31.4782C8.34492 31.3926 8.23112 31.2699 8.15624 31.1238C8.10276 31.0196 8.07033 30.9058 8.06081 30.7891C8.05129 30.6723 8.06486 30.5548 8.10075 30.4433C8.13664 30.3318 8.19415 30.2285 8.26998 30.1392C8.34581 30.0499 8.4385 29.9764 8.54273 29.923L15.9609 26.1172C16.0651 26.0637 16.1789 26.0313 16.2956 26.0217C16.4123 26.0122 16.5298 26.0258 16.6413 26.0617C16.7528 26.0975 16.8562 26.155 16.9454 26.2308C17.0347 26.3067 17.1082 26.3993 17.1616 26.5036C17.2151 26.6078 17.2475 26.7215 17.2571 26.8383C17.2666 26.955 17.253 27.0725 17.2171 27.184C17.1812 27.2955 17.1237 27.3989 17.0479 27.4882C16.9721 27.5774 16.8794 27.6509 16.7751 27.7044L9.35695 31.5102C9.23129 31.575 9.09194 31.6088 8.95054 31.6088Z" fill="#B1DBFC"/>
<path d="M6.85908 34.4916C8.38235 34.4916 9.6172 33.2567 9.6172 31.7335C9.6172 30.2102 8.38235 28.9753 6.85908 28.9753C5.33581 28.9753 4.10095 30.2102 4.10095 31.7335C4.10095 33.2567 5.33581 34.4916 6.85908 34.4916Z" fill="#476CFF"/>
<path d="M18.4295 28.6964C19.9528 28.6964 21.1876 27.4616 21.1876 25.9383C21.1876 24.415 19.9528 23.1802 18.4295 23.1802C16.9062 23.1802 15.6714 24.415 15.6714 25.9383C15.6714 27.4616 16.9062 28.6964 18.4295 28.6964Z" fill="#39E1FF"/>
<path d="M29.9999 17.1063C31.5232 17.1063 32.7581 15.8715 32.7581 14.3482C32.7581 12.8249 31.5232 11.5901 29.9999 11.5901C28.4767 11.5901 27.2418 12.8249 27.2418 14.3482C27.2418 15.8715 28.4767 17.1063 29.9999 17.1063Z" fill="#015AFF"/>
<path d="M41.5705 22.9015C43.0938 22.9015 44.3286 21.6666 44.3286 20.1434C44.3286 18.6201 43.0938 17.3853 41.5705 17.3853C40.0472 17.3853 38.8124 18.6201 38.8124 20.1434C38.8124 21.6666 40.0472 22.9015 41.5705 22.9015Z" fill="#0098BA"/>
<path d="M53.1408 5.51625C54.6641 5.51625 55.8989 4.28139 55.8989 2.75812C55.8989 1.23485 54.6641 0 53.1408 0C51.6175 0 50.3827 1.23485 50.3827 2.75812C50.3827 4.28139 51.6175 5.51625 53.1408 5.51625Z" fill="#0193FA"/>
<path d="M7.11384 31.7333C7.11384 30.7661 7.61212 29.9158 8.36552 29.4233C7.91783 29.1302 7.39419 28.9744 6.85908 28.9751C5.33576 28.9751 4.10095 30.2099 4.10095 31.7332C4.10095 33.2565 5.33587 34.4913 6.85908 34.4913C7.41513 34.4913 7.9324 34.3262 8.36552 34.0431C7.61201 33.5509 7.11384 32.7006 7.11384 31.7333Z" fill="#476CFF"/>
<path d="M18.6843 25.9384C18.6843 24.9712 19.1826 24.1208 19.936 23.6284C19.4883 23.3353 18.9646 23.1795 18.4295 23.1802C16.9062 23.1802 15.6714 24.415 15.6714 25.9383C15.6714 27.4616 16.9062 28.6964 18.4295 28.6964C18.9856 28.6964 19.5028 28.5313 19.936 28.2482C19.1826 27.756 18.6843 26.9057 18.6843 25.9384Z" fill="#39E1FF"/>
<path d="M30.2547 14.3483C30.2547 13.3811 30.753 12.5308 31.5064 12.0383C31.0587 11.7452 30.5351 11.5894 29.9999 11.5901C28.4766 11.5901 27.2418 12.8249 27.2418 14.3482C27.2418 15.8715 28.4767 17.1063 29.9999 17.1063C30.556 17.1063 31.0733 16.9412 31.5064 16.6581C30.753 16.1659 30.2547 15.3155 30.2547 14.3483Z" fill="#015AFF"/>
<path d="M41.8253 20.1433C41.8253 19.176 42.3235 18.3257 43.0769 17.8333C42.6293 17.5401 42.1056 17.3843 41.5705 17.385C40.0472 17.385 38.8124 18.6198 38.8124 20.1431C38.8124 21.6665 40.0473 22.9013 41.5705 22.9013C42.1266 22.9013 42.6438 22.7361 43.0769 22.453C42.3234 21.9608 41.8253 21.1104 41.8253 20.1433Z" fill="#0098BA"/>
<path d="M53.3956 2.75813C53.3956 1.79086 53.8939 0.940549 54.6473 0.448127C54.1995 0.155104 53.6759 -0.000657856 53.1408 2.08841e-06C51.6175 2.08841e-06 50.3827 1.23481 50.3827 2.75813C50.3827 4.28145 51.6176 5.51625 53.1408 5.51625C53.6969 5.51625 54.2141 5.35114 54.6473 5.06801C53.8939 4.57571 53.3956 3.72539 53.3956 2.75813Z" fill="#0193FA"/>
<path d="M9.84204 41.9426H3.87603C3.6782 41.9426 3.48848 42.0212 3.3486 42.1611C3.20871 42.301 3.13013 42.4907 3.13013 42.6885V59.108H10.5881V42.6886C10.588 42.4908 10.5094 42.3011 10.3695 42.1612C10.2296 42.0213 10.0399 41.9427 9.84204 41.9426Z" fill="#476CFF"/>
<path d="M21.4125 36.1475H15.4465C15.2486 36.1475 15.0589 36.226 14.919 36.3659C14.7791 36.5058 14.7006 36.6955 14.7006 36.8934V59.1079H22.1585V36.8935C22.1585 36.6956 22.0799 36.5059 21.94 36.366C21.8001 36.2261 21.6103 36.1475 21.4125 36.1475Z" fill="#39E1FF"/>
<path d="M32.983 24.5068H27.017C26.9191 24.5068 26.8221 24.5261 26.7316 24.5636C26.6411 24.6011 26.5589 24.656 26.4896 24.7253C26.4203 24.7946 26.3654 24.8768 26.3279 24.9673C26.2904 25.0578 26.2711 25.1548 26.2711 25.2527V59.108H33.7291V25.2527C33.729 25.0549 33.6504 24.8652 33.5105 24.7253C33.3706 24.5855 33.1809 24.5069 32.983 24.5068Z" fill="#015AFF"/>
<path d="M44.5535 30.3525H38.5875C38.3896 30.3525 38.1999 30.4311 38.06 30.571C37.9201 30.7109 37.8416 30.9006 37.8416 31.0984V59.108H45.2995V31.0984C45.2994 30.9006 45.2208 30.7109 45.0809 30.571C44.941 30.4312 44.7513 30.3526 44.5535 30.3525Z" fill="#0098BA"/>
<path d="M56.1239 12.8857H50.1579C49.9601 12.8857 49.7703 12.9643 49.6305 13.1042C49.4906 13.2441 49.412 13.4338 49.412 13.6316V59.1079H56.8699V13.6318C56.8699 13.4339 56.7913 13.2441 56.6514 13.1042C56.5115 12.9643 56.3218 12.8857 56.1239 12.8857Z" fill="#0193FA"/>
<path d="M8.45935 41.9426H3.87603C3.77807 41.9426 3.68108 41.9619 3.59058 41.9994C3.50009 42.0369 3.41786 42.0918 3.3486 42.1611C3.27933 42.2304 3.22439 42.3126 3.18691 42.4031C3.14942 42.4936 3.13013 42.5906 3.13013 42.6885V59.108H7.71356V42.6886C7.71355 42.5907 7.73283 42.4937 7.7703 42.4032C7.80777 42.3127 7.8627 42.2305 7.93195 42.1612C8.0012 42.0919 8.08342 42.0369 8.17391 41.9995C8.2644 41.962 8.36139 41.9426 8.45935 41.9426Z" fill="#476CFF"/>
<path d="M20.0299 36.1475H15.4465C15.2486 36.1475 15.0589 36.226 14.919 36.3659C14.7791 36.5058 14.7006 36.6955 14.7006 36.8934V59.1079H19.284V36.8935C19.284 36.7955 19.3033 36.6985 19.3407 36.608C19.3782 36.5175 19.4332 36.4352 19.5024 36.366C19.5717 36.2967 19.6539 36.2417 19.7444 36.2042C19.8349 36.1668 19.9319 36.1475 20.0299 36.1475Z" fill="#39E1FF"/>
<path d="M31.6005 24.5068H27.017C26.9191 24.5068 26.8221 24.5261 26.7316 24.5636C26.6411 24.6011 26.5589 24.656 26.4896 24.7253C26.4203 24.7946 26.3654 24.8768 26.3279 24.9673C26.2904 25.0578 26.2711 25.1548 26.2711 25.2527V59.108H30.8546V25.2527C30.8545 25.1548 30.8738 25.0578 30.9113 24.9673C30.9488 24.8768 31.0037 24.7945 31.073 24.7253C31.1423 24.656 31.2245 24.6011 31.315 24.5636C31.4055 24.5261 31.5025 24.5068 31.6005 24.5068Z" fill="#015AFF"/>
<path d="M43.1708 30.3525H38.5875C38.3896 30.3525 38.1999 30.4311 38.06 30.571C37.9201 30.7109 37.8416 30.9006 37.8416 31.0984V59.108H42.425V31.0984C42.425 31.0005 42.4443 30.9035 42.4817 30.813C42.5192 30.7225 42.5741 30.6403 42.6434 30.571C42.7126 30.5017 42.7949 30.4468 42.8853 30.4093C42.9758 30.3718 43.0728 30.3525 43.1708 30.3525Z" fill="#0098BA"/>
<path d="M54.7413 12.8857H50.1579C49.9601 12.8857 49.7703 12.9643 49.6305 13.1042C49.4906 13.2441 49.412 13.4338 49.412 13.6316V59.1079H53.9954V13.6318C53.9954 13.4339 54.074 13.2442 54.2139 13.1043C54.3538 12.9644 54.5435 12.8858 54.7413 12.8857Z" fill="#0193FA"/>
</g>
<defs>
<clipPath id="clip0_6_972">
<rect width="60" height="60" fill="white"/>
</clipPath>
</defs>
</svg>
