<svg width="60" height="60" viewBox="0 0 60 60" fill="none" xmlns="http://www.w3.org/2000/svg">
<path d="M3.15915 29.7558C3.15348 34.4633 4.39457 39.0891 6.7573 43.1668L2.93332 57.0667L17.2222 53.3369C21.1745 55.4782 25.6023 56.6004 30.102 56.6014H30.1139C44.9681 56.6014 57.0605 44.5678 57.0667 29.7771C57.0695 22.6096 54.2682 15.8705 49.1791 10.7999C44.0909 5.72971 37.3235 2.93619 30.1129 2.93335C15.2563 2.93335 3.16533 14.9656 3.15915 29.7558Z" fill="url(#paint0_linear_6_933)"/>
<path d="M2.23408 29.7481C2.22827 34.6177 3.51206 39.4027 5.95605 43.6209L2 58L16.781 54.1415C20.8694 56.3577 25.4503 57.5191 30.1054 57.5197H30.1173C45.4838 57.5197 57.9929 45.0697 58 29.7703C58.0024 22.3553 55.1042 15.3831 49.8405 10.1378C44.5759 4.89331 37.5759 2.00284 30.1173 2C14.7479 2 2.24025 14.4477 2.23408 29.7481ZM11.0369 42.8963L10.4847 42.0242C8.16373 38.3475 6.93541 34.0919 6.94174 29.7495C6.94648 17.0328 17.3427 6.68715 30.1263 6.68715C36.3163 6.68951 42.134 9.0917 46.5103 13.4508C50.886 17.8104 53.2938 23.605 53.2919 29.7684C53.2862 42.4855 42.8904 52.8331 30.1168 52.8331H30.1083C25.9579 52.8333 21.8837 51.7229 18.3123 49.6179L17.4657 49.1178L8.6947 51.4075L11.0369 42.8963Z" fill="url(#paint1_linear_6_933)"/>
<path d="M23.1186 18.1472C22.6021 16.9929 22.0594 16.9698 21.5687 16.9494C21.1669 16.932 20.7072 16.9334 20.2485 16.9334C19.7884 16.9334 19.0424 17.1073 18.4114 17.8009C17.7799 18.4945 16 20.1713 16 23.5827C16 26.994 18.4686 30.2896 18.8128 30.7526C19.1574 31.2147 23.5787 38.4385 30.5808 41.2172C36.4007 43.5267 37.5848 43.0675 38.8478 42.9517C40.1107 42.8364 42.924 41.2753 43.4977 39.6561C44.0719 38.0374 44.0719 36.6497 43.8996 36.3601C43.7278 36.0714 43.2681 35.8975 42.5794 35.5512C41.8902 35.2044 38.5032 33.527 37.8722 33.2955C37.2402 33.0645 36.781 32.9492 36.3214 33.6433C35.8622 34.3364 34.5429 35.8975 34.141 36.3601C33.7391 36.8226 33.3368 36.8812 32.648 36.5349C31.9588 36.1867 29.7399 35.4552 27.1079 33.0938C25.06 31.2558 23.6773 28.9869 23.2754 28.2929C22.8735 27.5988 23.2327 27.2241 23.5777 26.8782C23.8876 26.5678 24.267 26.0689 24.6116 25.664C24.9553 25.259 25.0703 24.9703 25.2999 24.5078C25.5299 24.0447 25.4144 23.6403 25.2426 23.2935C25.0703 22.9467 23.7313 19.5183 23.1186 18.1472Z" fill="white"/>
<defs>
<linearGradient id="paint0_linear_6_933" x1="30" y1="57.0667" x2="30" y2="2.93335" gradientUnits="userSpaceOnUse">
<stop stop-color="#1FAF38"/>
<stop offset="1" stop-color="#60D669"/>
</linearGradient>
<linearGradient id="paint1_linear_6_933" x1="30" y1="58" x2="30" y2="2" gradientUnits="userSpaceOnUse">
<stop stop-color="#F9F9F9"/>
<stop offset="1" stop-color="white"/>
</linearGradient>
</defs>
</svg>
