<svg width="60" height="60" viewBox="0 0 60 60" fill="none" xmlns="http://www.w3.org/2000/svg">
<g clip-path="url(#clip0_7_4129)">
<g clip-path="url(#clip1_7_4129)">
<path fill-rule="evenodd" clip-rule="evenodd" d="M34.9385 0C33.4622 0 32.0579 0.576004 31.0137 1.62001L17.8593 14.7601L23.0443 19.9441L31.4818 17.8321L39.6673 19.7521L44.9243 14.4961C43.5201 12.7921 43.6401 10.2961 45.2004 8.73606C46.7607 7.17605 49.2571 7.05605 50.9614 8.46006L58.0908 1.34401C57.0706 0.480003 55.7743 0 54.4421 0H34.9385Z" fill="#EA4335"/>
<path d="M58.0788 1.35596L50.9615 8.47201C52.3657 9.62402 52.8938 11.532 52.2697 13.236C51.6456 14.9401 50.0253 16.0801 48.213 16.0681C46.9167 16.0681 45.7165 15.5161 44.9123 14.5081C44.9003 14.4961 44.9244 14.5201 44.9123 14.5081L36.7868 22.7281L31.0018 19.9321L24.4846 23.3881L22.6002 29.4242L24.4846 36.2042L31.0018 39.1202L40.7836 37.7162L45.2364 42.1683L58.3668 29.0282C59.423 27.9961 60.0231 26.5801 60.0111 25.1041V5.57999C60.0111 3.95998 59.303 2.42396 58.0788 1.35596Z" fill="#4285F4"/>
<path d="M17.8594 14.76L1.64436 30.9721C0.588163 32.0161 5.45803e-05 33.4441 5.45803e-05 34.9322C-0.0119476 36.4082 0.588163 37.8242 1.64436 38.8562L11.1141 48.3243L21.8681 37.5722L19.9958 29.4121L23.0443 19.956L17.8594 14.76Z" fill="#FBBC05"/>
<path fill-rule="evenodd" clip-rule="evenodd" d="M11.1141 48.3243L21.1479 58.3564C22.1921 59.4004 23.5964 60.0004 25.0727 60.0004C26.5609 59.9884 27.9772 59.4004 29.0334 58.3564L45.2364 42.1443L40.7836 37.6923L31.4698 40.3923L21.8441 37.5723L11.1141 48.3243Z" fill="#34A853"/>
<path fill-rule="evenodd" clip-rule="evenodd" d="M43.052 27.0842H31.4698V32.0522H38.1311C37.507 35.2082 34.9145 37.0202 31.4698 37.0202C27.2691 36.8762 23.9805 33.3602 24.1245 29.1602C24.2565 25.1642 27.4731 21.9601 31.4698 21.8161C33.1502 21.8161 34.7705 22.4161 36.0427 23.5081L39.6554 19.7641C37.4229 17.7001 34.5064 16.5601 31.4698 16.5481C24.5806 16.5481 19.0475 22.2721 19.0475 29.4002C19.0475 36.5282 24.5806 42.2523 31.4698 42.2523C37.687 42.2523 43.328 37.5722 43.328 29.4002C43.316 28.6322 43.22 27.8522 43.052 27.0842Z" fill="white"/>
</g>
</g>
<defs>
<clipPath id="clip0_7_4129">
<rect width="60" height="60" fill="white"/>
</clipPath>
<clipPath id="clip1_7_4129">
<rect width="60" height="60" fill="white"/>
</clipPath>
</defs>
</svg>
