<svg width="28" height="25" viewBox="0 0 28 25" fill="none" xmlns="http://www.w3.org/2000/svg">
<g clip-path="url(#clip0_6_1044)">
<path d="M25.3767 12.5H20.9998V8.92647C20.9777 6.97794 22.5472 5.38235 24.4998 5.35294H24.9346C25.664 5.34559 26.2535 4.75 26.2461 4.01471V1.33824C26.2535 0.610294 25.6714 0.00735294 24.9346 0H24.4998C19.6146 0.0514706 15.6946 4.05147 15.7462 8.92647V22.3162C15.7314 23.7794 16.903 24.9779 18.3693 24.9926H25.3693C26.8356 24.9779 28.0072 23.7794 27.9925 22.3162V15.1765C28.0072 13.7132 26.8356 12.5147 25.3693 12.5H25.3767ZM9.62299 12.5H5.24615V8.92647C5.22404 6.97794 6.79352 5.38235 8.74615 5.35294H9.18089C9.91036 5.34559 10.4998 4.75 10.4925 4.01471V1.33824C10.5072 0.610294 9.9251 0.00735294 9.18825 0H8.75352C3.86089 0.0514706 -0.0517462 4.05147 -0.000167236 8.92647V22.3162C-0.0149041 23.7794 1.15667 24.9779 2.62299 24.9926H9.62299C11.0893 24.9779 12.2609 23.7794 12.2462 22.3162V15.1765C12.2609 13.7132 11.0893 12.5147 9.62299 12.5Z" fill="#CBCBCB"/>
</g>
<defs>
<clipPath id="clip0_6_1044">
<rect width="28" height="25" fill="white"/>
</clipPath>
</defs>
</svg>
