<svg width="24" height="22" viewBox="0 0 24 22" fill="none" xmlns="http://www.w3.org/2000/svg">
<g clip-path="url(#clip0_6_3950)">
<path d="M0.551969 15.917L8.51997 1.99915C9.53209 2.60711 14.6358 5.48892 15.4601 6.03701L7.49209 19.9556C6.62069 21.1302 -0.552031 17.6995 0.551969 15.9163V15.917Z" fill="#FBBC04"/>
<path d="M23.4453 15.9167L15.4773 1.9997C14.3634 0.108272 11.9643 -0.579084 9.99379 0.538038C8.02326 1.65516 7.42326 4.06158 8.5372 6.03746L16.5052 19.9562C17.6191 21.8468 20.0183 22.534 21.9888 21.417C23.8732 20.2998 24.5593 17.808 23.4453 15.9183V15.9167Z" fill="#4285F4"/>
<path d="M3.99975 21.9549C6.20875 21.9549 7.9995 20.1732 7.9995 17.9754C7.9995 15.7775 6.20875 13.9958 3.99975 13.9958C1.79075 13.9958 0 15.7775 0 17.9754C0 20.1732 1.79075 21.9549 3.99975 21.9549Z" fill="#34A853"/>
</g>
<defs>
<clipPath id="clip0_6_3950">
<rect width="24" height="22" fill="white"/>
</clipPath>
</defs>
</svg>
