<svg width="40" height="40" viewBox="0 0 40 40" fill="none" xmlns="http://www.w3.org/2000/svg">
<path d="M28.3333 30.0002C26.4833 30.0002 25 31.4835 25 33.3335C25 34.2176 25.3512 35.0654 25.9763 35.6905C26.6014 36.3156 27.4493 36.6668 28.3333 36.6668C29.2174 36.6668 30.0652 36.3156 30.6903 35.6905C31.3155 35.0654 31.6667 34.2176 31.6667 33.3335C31.6667 32.4494 31.3155 31.6016 30.6903 30.9765C30.0652 30.3514 29.2174 30.0002 28.3333 30.0002ZM1.66666 3.3335V6.66683H4.99999L11 19.3168L8.73332 23.4002C8.48332 23.8668 8.33332 24.4168 8.33332 25.0002C8.33332 25.8842 8.68451 26.7321 9.30963 27.3572C9.93475 27.9823 10.7826 28.3335 11.6667 28.3335H31.6667V25.0002H12.3667C12.2561 25.0002 12.1502 24.9563 12.072 24.8781C11.9939 24.8 11.95 24.694 11.95 24.5835C11.95 24.5002 11.9667 24.4335 12 24.3835L13.5 21.6668H25.9167C27.1667 21.6668 28.2667 20.9668 28.8333 19.9502L34.8 9.16683C34.9167 8.90016 35 8.61683 35 8.3335C35 7.89147 34.8244 7.46755 34.5118 7.15498C34.1993 6.84242 33.7753 6.66683 33.3333 6.66683H8.68332L7.11666 3.3335M11.6667 30.0002C9.81666 30.0002 8.33332 31.4835 8.33332 33.3335C8.33332 34.2176 8.68451 35.0654 9.30963 35.6905C9.93475 36.3156 10.7826 36.6668 11.6667 36.6668C12.5507 36.6668 13.3986 36.3156 14.0237 35.6905C14.6488 35.0654 15 34.2176 15 33.3335C15 32.4494 14.6488 31.6016 14.0237 30.9765C13.3986 30.3514 12.5507 30.0002 11.6667 30.0002Z" fill="white"/>
</svg>
