<svg width="60" height="60" viewBox="0 0 60 60" fill="none" xmlns="http://www.w3.org/2000/svg">
<g clip-path="url(#clip0_28_12870)">
<path fill-rule="evenodd" clip-rule="evenodd" d="M5.87564 13.9915C5.55133 14.0757 5.21763 14.1181 4.88258 14.1179C2.70741 14.1179 0.941406 12.3519 0.941406 10.1767C0.941406 8.00152 2.70741 6.23552 4.88258 6.23552C7.05776 6.23552 8.82376 8.00152 8.82376 10.1767C8.82376 11.4195 8.24717 12.5288 7.34717 13.2514L8.50035 15.4708H12.8832V5.86329C12.8832 3.15588 15.0982 0.941406 17.8018 0.941406H42.1954C44.9027 0.941406 47.1173 3.15611 47.1173 5.86329V15.4708H51.5001L52.6533 13.2514C51.7533 12.5288 51.1767 11.4195 51.1767 10.1767C51.1767 8.00152 52.9427 6.23552 55.1179 6.23552C57.2931 6.23552 59.0591 8.00152 59.0591 10.1767C59.0591 12.3519 57.2931 14.1179 55.1179 14.1179C54.7749 14.1179 54.4421 14.074 54.1248 13.9915L52.7311 16.6741C52.6615 16.8079 52.5566 16.92 52.4277 16.9983C52.2989 17.0765 52.151 17.1179 52.0002 17.1179H47.1173V28.0591H51.2631C51.6421 26.2786 53.2251 24.9414 55.1179 24.9414C57.2931 24.9414 59.0591 26.7074 59.0591 28.8826C59.0591 31.0578 57.2931 32.8238 55.1179 32.8238C53.2251 32.8238 51.6421 31.4866 51.2631 29.7061H47.1173V40.6473H52.0002C52.151 40.6473 52.2989 40.6887 52.4277 40.7669C52.5566 40.8452 52.6615 40.9573 52.7311 41.0911L54.1519 43.8255C54.4677 43.746 54.7922 43.7059 55.1179 43.7061C57.2931 43.7061 59.0591 45.4721 59.0591 47.6473C59.0591 49.8225 57.2931 51.5885 55.1179 51.5885C52.9427 51.5885 51.1767 49.8225 51.1767 47.6473C51.1767 46.3945 51.7625 45.2774 52.6749 44.5553L51.5001 42.2943H47.1173V54.1372C47.1173 56.8443 44.9027 59.0591 42.1954 59.0591H17.8018C15.0982 59.0591 12.8832 56.8446 12.8832 54.1372V42.2943H8.50035L7.32552 44.5553C8.23799 45.2774 8.82376 46.3945 8.82376 47.6473C8.82376 49.8225 7.05776 51.5885 4.88258 51.5885C2.70741 51.5885 0.941406 49.8225 0.941406 47.6473C0.941406 45.4721 2.70741 43.7061 4.88258 43.7061C5.21588 43.7061 5.53941 43.7475 5.84858 43.8255L7.26941 41.0911C7.33894 40.9573 7.44386 40.8452 7.57273 40.7669C7.70159 40.6887 7.84947 40.6473 8.00023 40.6473H12.8832V29.7061H8.73741C8.35835 31.4866 6.77541 32.8238 4.88258 32.8238C2.70741 32.8238 0.941406 31.0578 0.941406 28.8826C0.941406 26.7074 2.70741 24.9414 4.88258 24.9414C6.77541 24.9414 8.35835 26.2786 8.73741 28.0591H12.8832V17.1179H8.00023C7.84947 17.1179 7.70159 17.0765 7.57273 16.9983C7.44386 16.92 7.33894 16.8079 7.26941 16.6741L5.87564 13.9915ZM45.4702 54.1372V5.86329C45.4702 4.06199 43.9967 2.58847 42.1954 2.58847H17.8018C16.0033 2.58847 14.5302 4.06223 14.5302 5.86329V54.1372C14.5302 55.9382 16.0033 57.412 17.8018 57.412H42.1954C43.9967 57.412 45.4702 55.9385 45.4702 54.1372ZM52.8238 28.8826C52.8238 30.1487 53.8518 31.1767 55.1179 31.1767C56.384 31.1767 57.412 30.1487 57.412 28.8826C57.412 27.6165 56.384 26.5885 55.1179 26.5885C53.8518 26.5885 52.8238 27.6165 52.8238 28.8826ZM7.1767 28.8826C7.1767 27.6165 6.1487 26.5885 4.88258 26.5885C3.61647 26.5885 2.58847 27.6165 2.58847 28.8826C2.58847 30.1487 3.61647 31.1767 4.88258 31.1767C6.1487 31.1767 7.1767 30.1487 7.1767 28.8826ZM41.4046 31.728C39.7339 31.728 38.8951 33.7525 40.0767 34.9341C40.7106 35.5681 40.7106 36.5994 40.0767 37.2333L38.3509 38.9591C37.7171 39.5929 36.6858 39.5929 36.0518 38.9591C34.8701 37.7774 32.8456 38.6162 32.8456 40.2869C32.8456 41.1872 32.1179 41.912 31.2206 41.912H28.7799C27.8826 41.912 27.1548 41.1872 27.1548 40.2869C27.1548 38.6142 25.1313 37.7765 23.9487 38.9591C23.3143 39.5934 22.2853 39.5934 21.6512 38.9593L19.9238 37.2333C19.2899 36.5994 19.2899 35.5681 19.9238 34.9341C21.1054 33.7525 20.2675 31.728 18.5959 31.728C17.6986 31.728 16.9708 31.0002 16.9708 30.1029V27.6622C16.9708 26.7649 17.6986 26.0372 18.5959 26.0372C20.2675 26.0372 21.1054 24.0127 19.9238 22.8311C19.2894 22.1967 19.2894 21.1676 19.9238 20.5333L21.6509 18.8061C22.2853 18.1718 23.3143 18.1718 23.9487 18.8061C25.1303 19.9878 27.1548 19.1499 27.1548 17.4782C27.1548 16.5809 27.8826 15.8532 28.7799 15.8532H31.2206C32.1179 15.8532 32.8456 16.5809 32.8456 17.4782C32.8456 19.1499 34.8701 19.9878 36.0518 18.8061C36.6858 18.1722 37.7171 18.1722 38.3509 18.8061L40.0767 20.5333C40.7111 21.1676 40.7111 22.1967 40.0767 22.8311C38.8951 24.0127 39.7339 26.0372 41.4046 26.0372C42.3048 26.0372 43.0296 26.7649 43.0296 27.6622V30.1029C43.0296 31.0002 42.3048 31.728 41.4046 31.728ZM18.6179 27.6841V30.0811C21.7339 30.0987 23.294 33.8689 21.1034 36.0836L22.7999 37.7787C25.0166 35.5872 28.7841 37.1474 28.8018 40.2649H31.1987C31.2163 37.1508 34.9866 35.5888 37.2013 37.7794L38.8971 36.0836C36.7065 33.8689 38.2685 30.0987 41.3826 30.0811V27.6841C38.2687 27.6665 36.7067 23.8971 38.8963 21.6822L37.2013 19.9858C34.9866 22.1763 31.2163 20.6162 31.1987 17.5002H28.8018C28.7841 20.6159 25.0147 22.1761 22.7999 19.9865L21.1041 21.6822C23.2938 23.8971 21.7335 27.6665 18.6179 27.6841ZM30.0009 35.5715C26.3165 35.5715 23.3127 32.5661 23.3127 28.8833C23.3127 25.1988 26.3165 22.1951 30.0009 22.1951C33.6838 22.1951 36.6892 25.1988 36.6892 28.8833C36.6892 32.5661 33.6838 35.5715 30.0009 35.5715ZM30.0009 33.9245C32.7768 33.9245 35.0421 31.6592 35.0421 28.8833C35.0421 26.1062 32.7768 23.8421 30.0009 23.8421C27.2239 23.8421 24.9598 26.1062 24.9598 28.8833C24.9598 31.6592 27.2239 33.9245 30.0009 33.9245ZM27.7726 53.3733C27.3181 53.3733 26.9491 53.0043 26.9491 52.5498C26.9491 52.0953 27.3181 51.7262 27.7726 51.7262H32.2279C32.6823 51.7262 33.0514 52.0953 33.0514 52.5498C33.0514 53.0043 32.6823 53.3733 32.2279 53.3733H27.7726ZM4.88258 45.3532C3.61647 45.3532 2.58847 46.3812 2.58847 47.6473C2.58847 48.9134 3.61647 49.9414 4.88258 49.9414C6.1487 49.9414 7.1767 48.9134 7.1767 47.6473C7.1767 46.3812 6.1487 45.3532 4.88258 45.3532ZM55.1179 7.88258C53.8518 7.88258 52.8238 8.91058 52.8238 10.1767C52.8238 11.4428 53.8518 12.4708 55.1179 12.4708C56.384 12.4708 57.412 11.4428 57.412 10.1767C57.412 8.91058 56.384 7.88258 55.1179 7.88258ZM55.1179 45.3532C53.8518 45.3532 52.8238 46.3812 52.8238 47.6473C52.8238 48.9134 53.8518 49.9414 55.1179 49.9414C56.384 49.9414 57.412 48.9134 57.412 47.6473C57.412 46.3812 56.384 45.3532 55.1179 45.3532ZM4.88258 7.88258C3.61647 7.88258 2.58847 8.91058 2.58847 10.1767C2.58847 11.4428 3.61647 12.4708 4.88258 12.4708C6.1487 12.4708 7.1767 11.4428 7.1767 10.1767C7.1767 8.91058 6.1487 7.88258 4.88258 7.88258Z" fill="#008080"/>
</g>
<defs>
<clipPath id="clip0_28_12870">
<rect width="60" height="60" fill="white"/>
</clipPath>
</defs>
</svg>
