<svg width="60" height="60" viewBox="0 0 60 60" fill="none" xmlns="http://www.w3.org/2000/svg">
<path fill-rule="evenodd" clip-rule="evenodd" d="M51.2168 31.9077L51.336 32.0204L52.9097 30.3569L44.7027 22.5933L43.129 24.2569L51.2168 31.9077ZM42.0702 34.0327L42.0676 34.0353C42.4935 34.4104 43.1863 34.1079 43.17 33.5178C43.1638 33.2959 43.0823 33.1788 42.9438 33.0402L42.9464 33.0376C42.6831 32.8058 42.2634 32.8343 42.0653 33.0397C42.0481 33.0605 42.03 33.0805 42.0109 33.0995L42.0083 33.0971C41.7765 33.3604 41.805 33.78 42.0105 33.9783C42.0311 33.9953 42.0511 34.0133 42.0703 34.0327H42.0702ZM35.3886 39.8278L37.9065 29.5111C40.0515 29.6152 42.1002 28.5605 43.26 26.7146L49.2768 32.4063C48.4098 33.0189 47.7216 33.8515 47.2831 34.8182C46.8446 35.785 46.6715 36.8512 46.7817 37.907L36.6196 40.9938L41.6082 35.7202C41.9136 35.8461 42.2421 35.9064 42.5723 35.8972C44.6032 35.8409 45.6755 33.3614 44.149 31.8351L44.1459 31.8381C43.1886 30.9199 41.7321 30.9681 40.8056 31.8946L40.8087 31.8976C40.1121 32.6238 39.9564 33.6787 40.3765 34.5552L35.3886 39.8281V39.8278ZM40.7388 41.517V54.5843C40.7388 56.5333 39.1474 58.1245 37.1986 58.1245H8.81953C6.8707 58.1245 5.2793 56.5331 5.2793 54.5843V5.41572C5.2793 3.46689 6.8707 1.87549 8.81953 1.87549H37.1986C39.1475 1.87549 40.7388 3.46689 40.7388 5.41572V26.9824C41.2628 26.5951 41.6913 26.0929 41.9913 25.5144L41.7478 25.284L41.7448 25.2871C41.195 24.7374 41.1666 23.8644 41.7251 23.2736L41.7221 23.2708C41.7371 23.2558 41.7526 23.2415 41.7683 23.2279L43.6589 21.2292C43.7871 21.0934 43.9408 20.9842 44.1112 20.9079C44.2817 20.8315 44.4655 20.7896 44.6522 20.7844C44.8389 20.7792 45.0247 20.8109 45.1992 20.8776C45.3736 20.9444 45.5331 21.0449 45.6687 21.1733L54.2736 29.3133C54.4095 29.4415 54.5187 29.5952 54.595 29.7656C54.6713 29.9361 54.7133 30.1199 54.7185 30.3066C54.7236 30.4933 54.692 30.6792 54.6252 30.8536C54.5584 31.028 54.4579 31.1875 54.3294 31.3231L52.363 33.4015L52.3661 33.4046C51.8845 33.8861 51.1301 33.9692 50.5642 33.595C48.9259 34.5448 48.1273 36.476 48.57 38.3019C48.6222 38.5179 48.5878 38.7456 48.474 38.9365C48.3603 39.1273 48.1764 39.266 47.9617 39.3229L40.7386 41.517H40.7388ZM14.9468 3.57998C14.9468 4.14494 15.0713 4.57643 15.4721 4.97732C15.7963 5.30146 16.2427 5.50268 16.733 5.50268H29.2852C30.2658 5.50268 31.0713 4.69713 31.0713 3.7165V3.57998H14.9468ZM39.0343 49.3847H6.98379V54.5843C6.98379 55.5922 7.8116 56.4201 8.81953 56.4201H37.1986C38.2065 56.4201 39.0343 55.5922 39.0343 54.5843V49.3847ZM6.98379 47.6802H39.0343V42.0347L34.0508 43.5485C33.4184 43.7405 32.8262 43.1671 32.9794 42.5366H32.9788L36.4311 28.391C36.5352 27.9524 36.9595 27.6634 37.4119 27.7471C37.9479 27.8462 38.4993 27.8419 39.0343 27.7351V5.41572C39.0343 4.40779 38.2065 3.57998 37.1986 3.57998H32.7758V3.7165C32.7758 5.63814 31.2068 7.20717 29.2852 7.20717H16.733C14.8114 7.20717 13.2423 5.63814 13.2423 3.7165V3.57998H8.81953C7.8116 3.57998 6.98379 4.40779 6.98379 5.41572V47.6802ZM24.5388 52.1947H21.4794C21.0196 52.1947 20.765 52.759 21.1054 53.0993C21.1543 53.1487 21.2126 53.188 21.2768 53.2149C21.341 53.2417 21.4098 53.2557 21.4794 53.2559H24.5388C24.9986 53.2559 25.2533 52.6916 24.9129 52.3513C24.8639 52.3019 24.8057 52.2626 24.7415 52.2357C24.6773 52.2089 24.6084 52.1949 24.5388 52.1947ZM21.4794 50.4903C20.8639 50.4903 20.3048 50.7414 19.9002 51.1462C18.4881 52.5581 19.507 54.9605 21.4794 54.9605H24.5388C25.1544 54.9605 25.7134 54.7092 26.118 54.3046C27.5303 52.8925 26.5111 50.4904 24.5388 50.4904H21.4794V50.4903ZM24.7041 23.8654C23.1525 22.3138 20.4882 23.4182 20.4882 25.6117C20.4882 27.8052 23.1525 28.9096 24.7041 27.358C25.6684 26.3937 25.6684 24.8297 24.7041 23.8654ZM17.1704 34.8904C20.6019 37.4413 25.3137 37.4413 28.7452 34.8904C27.2285 31.1469 22.5984 29.8142 19.3277 32.1546C18.3642 32.844 17.6161 33.7927 17.1704 34.8905V34.8904ZM29.8237 20.2269C26.0318 16.435 19.8837 16.435 16.0918 20.2269C12.3983 23.9204 12.2876 29.8737 15.8425 33.7002C16.9226 31.5311 18.9478 29.9541 21.3306 29.4565C18.62 28.3079 17.9052 24.7613 20.0064 22.6601C21.6366 21.0299 24.279 21.0299 25.9092 22.6601C28.0104 24.7613 27.2955 28.3078 24.585 29.4565C26.9678 29.9541 28.993 31.531 30.0731 33.7002C33.628 29.8737 33.5173 23.9204 29.8239 20.2269H29.8237ZM22.9577 15.6785C16.654 15.6785 11.5433 20.7892 11.5433 27.0929C11.5433 33.3967 16.654 38.5074 22.9577 38.5074C29.2615 38.5074 34.3721 33.3967 34.3721 27.0929C34.3721 20.7892 29.2615 15.6785 22.9577 15.6785Z" fill="#008080"/>
</svg>
