<svg width="60" height="60" viewBox="0 0 60 60" fill="none" xmlns="http://www.w3.org/2000/svg">
<g clip-path="url(#clip0_28_12782)">
<path d="M43.0856 4.00089C43.2472 3.67377 43.3424 3.31784 43.3655 2.95371C43.3886 2.58958 43.3392 2.22448 43.2203 1.87956C42.9804 1.17784 42.4819 0.61112 41.8158 0.284285C40.4407 -0.390012 38.7739 0.179402 38.0992 1.55413L35.2977 7.26374C32.9273 6.00221 30.2248 5.28585 27.3573 5.28585C24.4898 5.28585 21.7873 6.00221 19.4169 7.26374L16.6154 1.55413C15.9407 0.179519 14.2736 -0.390481 12.8988 0.284285C12.2329 0.61112 11.7343 1.17737 11.4945 1.87956C11.2546 2.58128 11.3023 3.33479 11.629 4.00042L14.9272 10.7217C12.1188 13.7489 10.3991 17.7987 10.3991 22.2436C10.3991 22.36 10.422 22.4753 10.4665 22.5829C10.5111 22.6905 10.5764 22.7883 10.6587 22.8706C10.7411 22.953 10.8388 23.0183 10.9464 23.0629C11.054 23.1074 11.1693 23.1304 11.2857 23.1303H43.429C43.5454 23.1303 43.6606 23.1074 43.7682 23.0628C43.8757 23.0182 43.9734 22.9529 44.0557 22.8706C44.138 22.7882 44.2033 22.6905 44.2478 22.5829C44.2923 22.4754 44.3152 22.3601 44.3152 22.2437C44.3152 17.7988 42.5953 13.7489 39.7875 10.7218L43.0856 4.00089ZM39.6908 2.3346C39.9343 1.83796 40.5377 1.63147 41.035 1.87546C41.532 2.11944 41.7381 2.72237 41.494 3.21995L38.4485 9.42585C37.9321 8.9782 37.3891 8.56209 36.8225 8.17979L39.6908 2.3346ZM13.6799 1.87546C14.177 1.63147 14.7803 1.83749 15.0238 2.3346L17.8922 8.17979C17.325 8.56299 16.7816 8.97901 16.2656 9.42632L13.2206 3.21995C12.9762 2.72237 13.1828 2.11944 13.6799 1.87546ZM12.1975 21.3574C12.658 13.3951 19.2814 7.05819 27.3573 7.05819C35.4332 7.05819 42.0566 13.3951 42.517 21.3574H12.1975ZM50.5193 25.1391C48.2061 25.1391 46.3243 27.0208 46.3243 29.3344V43.515C46.3243 45.8285 48.2061 47.7104 50.5193 47.7104C52.8328 47.7104 54.7146 45.8285 54.7146 43.5151V29.3342C54.7146 27.0207 52.8328 25.1389 50.5193 25.1389V25.1391ZM52.9422 43.515C52.9422 44.8513 51.8555 45.938 50.5193 45.938C49.1835 45.938 48.0968 44.8513 48.0968 43.515V29.3344C48.0968 27.9982 49.1835 26.9115 50.5193 26.9115C51.8555 26.9115 52.9422 27.9982 52.9422 29.3344V43.515ZM43.429 25.1391H38.8202C38.5882 25.1437 38.3673 25.2391 38.2049 25.4048C38.0425 25.5705 37.9515 25.7932 37.9515 26.0253C37.9515 26.2573 38.0425 26.4801 38.2049 26.6458C38.3673 26.8115 38.5882 26.9069 38.8202 26.9115H42.5427V47.8285H38.7021C38.5857 47.8285 38.4705 47.8514 38.3629 47.8959C38.2554 47.9405 38.1577 48.0057 38.0754 48.088C37.9931 48.1703 37.9278 48.268 37.8833 48.3755C37.8387 48.4831 37.8158 48.5983 37.8158 48.7147V55.8055C37.8158 57.1413 36.7291 58.228 35.3933 58.228C34.0571 58.228 32.9705 57.1413 32.9705 55.8055V48.7147C32.9705 48.5983 32.9476 48.4831 32.903 48.3755C32.8585 48.268 32.7932 48.1703 32.7109 48.088C32.6286 48.0057 32.5309 47.9405 32.4234 47.8959C32.3158 47.8514 32.2006 47.8285 32.0842 47.8285H22.6304C22.5141 47.8285 22.3988 47.8514 22.2913 47.896C22.1838 47.9405 22.0861 48.0058 22.0038 48.0881C21.9215 48.1704 21.8562 48.2681 21.8117 48.3756C21.7672 48.4831 21.7442 48.5983 21.7443 48.7147V55.8055C21.7443 57.1413 20.6575 58.228 19.3213 58.228C17.9856 58.228 16.8988 57.1413 16.8988 55.8055V48.7147C16.8988 48.5983 16.8759 48.4831 16.8314 48.3756C16.7868 48.2681 16.7216 48.1704 16.6393 48.0881C16.557 48.0058 16.4593 47.9405 16.3518 47.896C16.2442 47.8514 16.129 47.8285 16.0126 47.8285H12.1719V26.9114H34.5067C34.7417 26.9114 34.9671 26.818 35.1333 26.6518C35.2995 26.4856 35.3929 26.2602 35.3929 26.0252C35.3929 25.7901 35.2995 25.5647 35.1333 25.3985C34.9671 25.2323 34.7417 25.1389 34.5067 25.1389H11.2857C11.1694 25.1389 11.0541 25.1618 10.9466 25.2063C10.839 25.2508 10.7413 25.3161 10.659 25.3984C10.5767 25.4807 10.5114 25.5784 10.4669 25.6859C10.4224 25.7935 10.3994 25.9087 10.3995 26.0251V48.7146C10.3994 48.831 10.4223 48.9463 10.4668 49.0538C10.5113 49.1614 10.5766 49.2591 10.6589 49.3414C10.7412 49.4237 10.8389 49.489 10.9465 49.5335C11.0541 49.5781 11.1693 49.6009 11.2857 49.6009H15.1263V55.8054C15.1263 58.1184 17.0082 60.0003 19.3213 60.0003C21.6348 60.0003 23.5166 58.1184 23.5166 55.8054V49.6009H31.198V55.8054C31.198 58.1184 33.0798 60.0003 35.3933 60.0003C37.7065 60.0003 39.5883 58.1184 39.5883 55.8054V49.6009H43.429C43.5454 49.6009 43.6606 49.578 43.7682 49.5335C43.8757 49.489 43.9734 49.4237 44.0557 49.3414C44.138 49.2591 44.2033 49.1614 44.2478 49.0538C44.2923 48.9463 44.3152 48.831 44.3152 48.7146V26.0252C44.3151 25.7902 44.2217 25.5648 44.0555 25.3987C43.8894 25.2325 43.664 25.1391 43.429 25.1391ZM4.19531 25.1391C1.88191 25.1391 0 27.0208 0 29.3344V43.515C0 45.8285 1.88191 47.7104 4.19531 47.7104C6.50859 47.7104 8.39039 45.8285 8.39039 43.5151V29.3342C8.39039 27.0207 6.50848 25.1389 4.19543 25.1389L4.19531 25.1391ZM6.61793 43.515C6.61793 44.8513 5.53113 45.938 4.19531 45.938C2.85902 45.938 1.77234 44.8513 1.77234 43.515V29.3344C1.77234 27.9982 2.85902 26.9115 4.19531 26.9115C5.53102 26.9115 6.61781 27.9982 6.61781 29.3344L6.61793 43.515Z" fill="#008080"/>
<path d="M19.7949 13.7939C18.2637 13.7939 17.0176 15.04 17.0176 16.5713C17.0176 18.1026 18.2637 19.3484 19.7949 19.3484C21.3261 19.3484 22.5723 18.1025 22.5723 16.5712C22.5723 15.0399 21.3262 13.7939 19.7949 13.7939ZM19.7949 17.5756C19.2411 17.5756 18.7906 17.1251 18.7906 16.5713C18.7906 16.0175 19.2411 15.5669 19.7949 15.5669C20.3489 15.5669 20.7992 16.0173 20.7992 16.5712C20.7992 17.125 20.3489 17.5755 19.7949 17.5755V17.5756ZM34.9212 13.7939C33.3901 13.7939 32.144 15.04 32.144 16.5713C32.144 18.1026 33.3901 19.3484 34.9214 19.3484C36.4525 19.3484 37.6985 18.1025 37.6985 16.5712C37.6985 15.0399 36.4525 13.7939 34.9212 13.7939ZM34.9212 17.5756C34.3674 17.5756 33.917 17.1251 33.917 16.5713C33.917 16.0175 34.3674 15.5669 34.9212 15.5669C35.4752 15.5669 35.9255 16.0173 35.9255 16.5712C35.9255 17.125 35.4752 17.5755 34.9212 17.5755V17.5756Z" fill="#008080"/>
</g>
<defs>
<clipPath id="clip0_28_12782">
<rect width="60" height="60" fill="white"/>
</clipPath>
</defs>
</svg>
