<svg width="60" height="60" viewBox="0 0 60 60" fill="none" xmlns="http://www.w3.org/2000/svg">
<g clip-path="url(#clip0_28_12809)">
<path d="M42.2811 1.21204L42.2179 0L41.0116 0.12982C40.8932 0.142458 29.2335 1.54751 28.4339 14.5835L28.3535 15.8886L29.6586 15.8002C29.7919 15.791 42.9979 14.7375 42.2811 1.21204ZM40.0052 2.66764C39.7858 10.5235 33.6739 12.7086 30.8684 13.298C31.9368 5.66384 37.4731 3.33742 40.0052 2.66764Z" fill="#008080"/>
<path d="M53.5189 43.1014L52.7848 42.8635C48.3422 41.4275 45.3586 37.3582 45.3586 32.7376C45.3586 28.627 47.6828 24.9506 51.4257 23.1423L52.5424 22.6035L51.9197 21.5316C51.6532 21.0721 49.1613 17.0017 43.8973 15.6541C39.7224 14.5857 35.0281 15.5312 29.9399 18.4653C27.7858 17.158 20.6307 13.3897 14.9382 17.1671C13.8238 17.7829 2.01241 24.8587 8.15992 43.9504C8.34029 44.3777 12.6267 54.4199 17.6988 58.1812C19.0671 59.4886 22.5665 61.1223 26.5657 58.396C27.2585 58.11 31.8941 56.3258 34.8351 58.4156C35.9208 59.1589 37.8164 60.001 39.8189 60.001C41.3377 60.001 42.9173 59.5173 44.2523 58.1387C44.875 57.5999 50.5629 52.5231 53.5189 44.4811L53.6051 44.2468L53.5189 43.1014ZM42.7174 56.4258L42.629 56.5096C40.1095 59.1554 36.2896 56.6245 36.1483 56.5303C34.6456 55.4619 32.9051 55.1138 31.2725 55.1138C28.3097 55.1138 25.7041 56.2615 25.5375 56.3361L25.3502 56.4418C21.8818 58.8625 19.5071 56.7325 19.2555 56.4901L19.12 56.3741C14.5326 53.0286 10.3163 43.1542 10.3106 43.1508C4.55712 25.2654 15.5792 19.4155 16.0479 19.1776L16.1743 19.103C21.513 15.5185 29.1874 20.7068 29.2632 20.7585L29.8755 21.1789L30.5097 20.7964C35.2889 17.907 39.6017 16.9247 43.3275 17.8794C46.3627 18.6561 48.2974 20.5528 49.2441 21.7189C45.3988 24.0752 43.0621 28.1869 43.0621 32.7376C43.0621 37.9717 46.2042 42.6223 50.9915 44.6454C48.0447 51.8384 42.7737 56.3787 42.7174 56.4258Z" fill="#008080"/>
</g>
<defs>
<clipPath id="clip0_28_12809">
<rect width="60" height="60" fill="white"/>
</clipPath>
</defs>
</svg>
